G04*
G04 #@! TF.GenerationSoftware,Altium Limited,Altium Designer,22.11.1 (43)*
G04*
G04 Layer_Physical_Order=1*
G04 Layer_Color=255*
%FSLAX44Y44*%
%MOMM*%
G71*
G04*
G04 #@! TF.SameCoordinates,BDA14645-3F24-47FE-B4C7-F524B08D16E3*
G04*
G04*
G04 #@! TF.FilePolarity,Positive*
G04*
G01*
G75*
%ADD10C,0.2000*%
%ADD12C,0.6000*%
%ADD13R,0.8000X0.4000*%
%ADD14R,0.4000X0.8000*%
%ADD15R,0.6000X0.6000*%
%ADD16R,0.7000X0.6000*%
%ADD17R,0.6000X0.7000*%
%ADD24C,0.1000*%
%AMCUSTOMSHAPE25*
4,1,5,-0.3500,-0.3000,-0.3500,0.3000,0.1000,0.3000,0.3500,0.0500,0.3500,-0.3000,-0.3500,-0.3000,0.0*%
%ADD25CUSTOMSHAPE25*%

%ADD26C,0.3000*%
%ADD27C,0.4000*%
G36*
X17982Y79709D02*
X17982Y79709D01*
X17982Y79709D01*
X23742Y78267D01*
X31299Y75563D01*
X38555Y72131D01*
X45439Y68004D01*
X51886Y63223D01*
X57833Y57833D01*
X63223Y51886D01*
X68004Y45439D01*
X72131Y38555D01*
X75563Y31299D01*
X78266Y23742D01*
X80217Y15956D01*
X81394Y8017D01*
X81788Y0D01*
X81394Y-8017D01*
X80217Y-15956D01*
X78266Y-23742D01*
X75563Y-31299D01*
X72131Y-38555D01*
X68004Y-45439D01*
X63223Y-51886D01*
X57833Y-57833D01*
X51886Y-63223D01*
X45439Y-68004D01*
X38555Y-72131D01*
X31299Y-75562D01*
X23742Y-78266D01*
X17982Y-79709D01*
X17982D01*
X17982Y-79709D01*
X16716Y-79804D01*
X-16672D01*
X-17915Y-79709D01*
X-17915Y-79709D01*
X-17915Y-79709D01*
X-23675Y-78266D01*
X-31233Y-75562D01*
X-38488Y-72131D01*
X-45373Y-68004D01*
X-51820Y-63223D01*
X-57767Y-57833D01*
X-63157Y-51886D01*
X-67938Y-45439D01*
X-72064Y-38555D01*
X-75496Y-31299D01*
X-78200Y-23742D01*
X-80150Y-15956D01*
X-81328Y-8017D01*
X-81722Y0D01*
X-81328Y8017D01*
X-80150Y15956D01*
X-78200Y23742D01*
X-75496Y31299D01*
X-72064Y38555D01*
X-67938Y45439D01*
X-63157Y51886D01*
X-57767Y57833D01*
X-51820Y63223D01*
X-45373Y68004D01*
X-38488Y72131D01*
X-31233Y75563D01*
X-23675Y78267D01*
X-17915Y79709D01*
X-17915D01*
X-17915Y79709D01*
X-16649Y79804D01*
X16739D01*
X17982Y79709D01*
D02*
G37*
%LPC*%
G36*
X0Y70574D02*
X-7902Y70131D01*
X-15704Y68805D01*
X-23309Y66614D01*
X-30621Y63586D01*
X-37548Y59757D01*
X-44002Y55177D01*
X-49904Y49904D01*
X-55177Y44002D01*
X-59757Y37548D01*
X-63586Y30621D01*
X-66614Y23309D01*
X-68805Y15704D01*
X-70131Y7902D01*
X-70574Y0D01*
X-70131Y-7902D01*
X-68805Y-15704D01*
X-66614Y-23309D01*
X-63586Y-30621D01*
X-59757Y-37548D01*
X-55177Y-44002D01*
X-49904Y-49904D01*
X-44002Y-55177D01*
X-37548Y-59757D01*
X-30621Y-63586D01*
X-23309Y-66614D01*
X-15704Y-68805D01*
X-7902Y-70131D01*
X0Y-70574D01*
X7902Y-70131D01*
X15704Y-68805D01*
X23309Y-66614D01*
X30621Y-63586D01*
X37548Y-59757D01*
X44002Y-55177D01*
X49904Y-49904D01*
X55177Y-44002D01*
X59757Y-37548D01*
X63586Y-30621D01*
X66614Y-23309D01*
X68805Y-15704D01*
X70131Y-7902D01*
X70574Y0D01*
X70131Y7902D01*
X68805Y15704D01*
X66614Y23309D01*
X63586Y30621D01*
X59757Y37548D01*
X55177Y44002D01*
X49904Y49904D01*
X44002Y55177D01*
X37548Y59757D01*
X30621Y63586D01*
X23309Y66614D01*
X15704Y68805D01*
X7902Y70131D01*
X0Y70574D01*
D02*
G37*
%LPD*%
D10*
X30500Y-6000D02*
X39300D01*
X43300Y-2000D01*
Y0D01*
X-38829Y-13970D02*
X-36799Y-16000D01*
X-39370Y-13970D02*
X-38829D01*
X30500Y-18000D02*
Y-6000D01*
X5000Y-5000D02*
Y5000D01*
X-4999Y-5000D02*
X5000D01*
X-4999D02*
Y5000D01*
X-43268Y-10762D02*
Y-10072D01*
X-43300Y-10040D02*
X-43268Y-10072D01*
X-32500Y-16000D02*
X-30500Y-18000D01*
X-36799Y-16000D02*
X-32500D01*
X-20000Y-29000D02*
Y-28000D01*
X-30500Y-18000D02*
X-30000D01*
X-2000Y-43300D02*
X0D01*
X-11350Y-37650D02*
X-7650D01*
X43300Y0D02*
X60960D01*
X-1540Y43300D02*
X0D01*
X-2540Y44300D02*
X-1540Y43300D01*
X-2540Y44300D02*
Y59690D01*
D12*
X30157Y-69801D02*
D03*
D13*
X0Y-43300D02*
D03*
X0Y43300D02*
D03*
D14*
X-43300Y0D02*
D03*
X43300D02*
D03*
D15*
X5000Y5000D02*
D03*
Y-5000D02*
D03*
X-4999Y5000D02*
D03*
Y-5000D02*
D03*
D16*
X30500Y-6000D02*
D03*
Y-18000D02*
D03*
Y6000D02*
D03*
X-30500Y-6000D02*
D03*
Y6000D02*
D03*
Y18000D02*
D03*
Y-18000D02*
D03*
D17*
X6000Y-30500D02*
D03*
X-6000D02*
D03*
X-18000D02*
D03*
X18000D02*
D03*
X-6000Y30500D02*
D03*
X6000D02*
D03*
X18000D02*
D03*
X-18000D02*
D03*
D24*
X37846Y49139D02*
G03*
X33856Y45673I-3500J0D01*
G01*
X40811Y45145D02*
G03*
X37801Y48579I-3500J-32D01*
G01*
X33856Y45673D02*
G03*
X34136Y43640I3455J-560D01*
G01*
X44414Y41646D02*
G03*
X40811Y45145I-3500J0D01*
G01*
X21444Y58584D02*
G03*
X15784Y61338I-3500J0D01*
G01*
X20035Y55777D02*
G03*
X21444Y58584I-2091J2807D01*
G01*
X20780Y53798D02*
G03*
X20035Y55777I-3000J0D01*
G01*
X20780Y53798D02*
G03*
X20035Y55777I-3000J0D01*
G01*
X47538Y37688D02*
G03*
X44381Y41171I-3500J0D01*
G01*
X41327Y35475D02*
G03*
X47538Y37688I2711J2213D01*
G01*
X34704Y35984D02*
G03*
X41327Y35475I3396J847D01*
G01*
X22448Y38945D02*
G03*
X20320Y39830I-2128J-2115D01*
G01*
X22441Y38951D02*
G03*
X20320Y39830I-2121J-2121D01*
G01*
X23279Y38519D02*
G03*
X25400Y37640I2121J2121D01*
G01*
X23272Y38525D02*
G03*
X25400Y37640I2128J2115D01*
G01*
X27130Y33020D02*
G03*
X26245Y35148I-3000J0D01*
G01*
X27130Y33020D02*
G03*
X26251Y35141I-3000J0D01*
G01*
X27630Y27940D02*
G03*
X27130Y29743I-3500J0D01*
G01*
X22231Y25000D02*
G03*
X27630Y27940I1899J2940D01*
G01*
X22550Y22905D02*
G03*
X22050Y24708I-3500J0D01*
G01*
X15784Y61338D02*
G03*
X10153Y57289I-3091J-1641D01*
G01*
X10620Y53340D02*
G03*
X9735Y55468I-3000J0D01*
G01*
X10620Y53340D02*
G03*
X9741Y55461I-3000J0D01*
G01*
X5936Y59267D02*
G03*
X1693Y55024I-3396J-847D01*
G01*
X-4120Y59690D02*
G03*
X-10620Y57887I-3500J0D01*
G01*
X-4620D02*
G03*
X-4120Y59690I-3000J1803D01*
G01*
X14780Y48260D02*
G03*
X15665Y46132I3000J0D01*
G01*
X14780Y48260D02*
G03*
X15659Y46139I3000J0D01*
G01*
X12330Y39830D02*
G03*
X10209Y38951I0J-3000D01*
G01*
X12330Y39830D02*
G03*
X10202Y38945I0J-3000D01*
G01*
X9741Y38649D02*
G03*
X10620Y40770I-2121J2121D01*
G01*
X9735Y38642D02*
G03*
X10620Y40770I-2115J2128D01*
G01*
X-10620D02*
G03*
X-9741Y38649I3000J0D01*
G01*
X-10620Y40770D02*
G03*
X-9735Y38642I3000J0D01*
G01*
X54790Y-31563D02*
G03*
X47826Y-32061I-3500J0D01*
G01*
X51390Y-35062D02*
G03*
X54790Y-31563I-100J3498D01*
G01*
X48385Y-39030D02*
G03*
X51426Y-35560I-459J3470D01*
G01*
X48500Y-39920D02*
G03*
X48385Y-39030I-3500J0D01*
G01*
X44541Y-36450D02*
G03*
X48500Y-39920I459J-3470D01*
G01*
X21657Y20570D02*
G03*
X22550Y22905I-2607J2335D01*
G01*
X12353Y8455D02*
G03*
X14481Y7570I2128J2115D01*
G01*
X12359Y8449D02*
G03*
X14481Y7570I2121J2121D01*
G01*
X40677Y-10507D02*
G03*
X40677Y-10507I-3500J0D01*
G01*
X28130Y-24130D02*
G03*
X24130Y-20130I-4000J0D01*
G01*
X23870D02*
G03*
X21042Y-21302I0J-4000D01*
G01*
X23870Y-20130D02*
G03*
X21037Y-21307I0J-4000D01*
G01*
X27327Y-26534D02*
G03*
X28130Y-24130I-3197J2404D01*
G01*
X30670Y-30480D02*
G03*
X27327Y-26534I-4000J0D01*
G01*
X19708Y1620D02*
G03*
X19708Y1620I-3500J0D01*
G01*
X-3885Y19813D02*
G03*
X-3000Y21940I-2115J2128D01*
G01*
X-3878Y19819D02*
G03*
X-3000Y21940I-2121J2121D01*
G01*
X3309Y-21399D02*
G03*
X3309Y-21399I-3500J0D01*
G01*
X-11430Y13510D02*
G03*
X-9302Y14395I0J3000D01*
G01*
X-11430Y13510D02*
G03*
X-9309Y14389I0J3000D01*
G01*
X47826Y-32062D02*
G03*
X44541Y-36450I100J-3498D01*
G01*
X29498Y-37118D02*
G03*
X30670Y-34290I-2828J2828D01*
G01*
X29493Y-37123D02*
G03*
X30670Y-34290I-2823J2833D01*
G01*
X37790Y-49530D02*
G03*
X37790Y-49530I-3500J0D01*
G01*
X22860Y-42100D02*
G03*
X25693Y-40923I0J4000D01*
G01*
X22860Y-42100D02*
G03*
X25688Y-40928I0J4000D01*
G01*
X-1728D02*
G03*
X1100Y-42100I2828J2828D01*
G01*
X-1733Y-40923D02*
G03*
X1100Y-42100I2833J2823D01*
G01*
X-19718Y56470D02*
G03*
X-26641Y57199I-3500J0D01*
G01*
X-24017Y53062D02*
G03*
X-19718Y56470I799J3408D01*
G01*
X-26641Y57199D02*
G03*
X-24017Y53062I-799J-3408D01*
G01*
X-18385Y22052D02*
G03*
X-17500Y24179I-2115J2128D01*
G01*
X-18378Y22058D02*
G03*
X-17500Y24179I-2121J2121D01*
G01*
X-23000Y29658D02*
G03*
X-23500Y28000I2500J-1658D01*
G01*
X-23000Y29658D02*
G03*
X-23500Y28000I2500J-1658D01*
G01*
X-17780Y19510D02*
G03*
X-19901Y18631I0J-3000D01*
G01*
X-17780Y19510D02*
G03*
X-19908Y18625I0J-3000D01*
G01*
X-25000Y18820D02*
G03*
X-19405Y21032I2140J2770D01*
G01*
X-24035Y24887D02*
G03*
X-26063Y23000I1175J-3297D01*
G01*
X-25000Y13550D02*
G03*
X-26175Y13000I870J-3390D01*
G01*
D02*
G03*
X-27528Y11000I2045J-2840D01*
G01*
X-32060Y31670D02*
G03*
X-38341Y29545I-3500J0D01*
G01*
X-42004Y38687D02*
G03*
X-37140Y41910I1364J3223D01*
G01*
D02*
G03*
X-43776Y40356I-3500J0D01*
G01*
X-32779Y29545D02*
G03*
X-32060Y31670I-2781J2125D01*
G01*
X-38341Y29545D02*
G03*
X-39369Y25448I2781J-2875D01*
G01*
X-31369Y26479D02*
G03*
X-32545Y29312I-4000J0D01*
G01*
X-41640Y37133D02*
G03*
X-42004Y38687I-3500J0D01*
G01*
X-46114Y33771D02*
G03*
X-41640Y37133I974J3362D01*
G01*
X-43776Y40356D02*
G03*
X-48521Y38038I-1364J-3223D01*
G01*
D02*
G03*
X-46114Y33771I-974J-3362D01*
G01*
X-50530Y28534D02*
G03*
X-50530Y28534I-3500J0D01*
G01*
X-31369Y26479D02*
G03*
X-32540Y29307I-4000J0D01*
G01*
X-39369Y22369D02*
G03*
X-38197Y19540I4000J0D01*
G01*
X-39369Y22369D02*
G03*
X-38192Y19535I4000J0D01*
G01*
X-18860Y1270D02*
G03*
X-21031Y4827I-4000J0D01*
G01*
X-23038Y6835D02*
G03*
X-20734Y9313I-1092J3325D01*
G01*
X-18860Y1270D02*
G03*
X-21031Y4827I-4000J0D01*
G01*
X-30936Y1000D02*
G03*
X-29154Y503I1937J3500D01*
G01*
X-20032Y-1689D02*
G03*
X-18860Y1140I-2828J2828D01*
G01*
X-20037Y-1694D02*
G03*
X-18860Y1140I-2823J2833D01*
G01*
X-30936Y1000D02*
G03*
X-29154Y503I1937J3500D01*
G01*
X-39680Y11430D02*
G03*
X-39680Y11430I-3500J0D01*
G01*
X-46030Y-31750D02*
G03*
X-46030Y-31750I-3500J0D01*
G01*
X-28250Y-52070D02*
G03*
X-33401Y-48984I-3500J0D01*
G01*
X-35179Y-51368D02*
G03*
X-28250Y-52070I3429J-702D01*
G01*
X-33330Y-48282D02*
G03*
X-35179Y-51368I-3500J0D01*
G01*
X-41666Y-37407D02*
G03*
X-41666Y-37407I-3500J0D01*
G01*
X37845Y49168D02*
X42311D01*
X37843Y49268D02*
X42199D01*
X37845Y49068D02*
X42423D01*
X37830Y49468D02*
X41975D01*
X37838Y49368D02*
X42087D01*
X37871Y48568D02*
X42982D01*
X37826Y48768D02*
X42759D01*
X38308Y48468D02*
X43094D01*
X37841Y48968D02*
X42535D01*
X37835Y48868D02*
X42647D01*
X37720Y50068D02*
X41304D01*
X37691Y50168D02*
X41192D01*
X37746Y49968D02*
X41416D01*
X37623Y50368D02*
X40968D01*
X37659Y50268D02*
X41080D01*
X37819Y49568D02*
X41863D01*
X37805Y49668D02*
X41751D01*
X37814Y48668D02*
X42870D01*
X37769Y49868D02*
X41528D01*
X37789Y49768D02*
X41640D01*
X40144Y47168D02*
X44549D01*
X40069Y47268D02*
X44437D01*
X40214Y47068D02*
X44661D01*
X39900Y47468D02*
X44213D01*
X39988Y47368D02*
X44325D01*
X40447Y46668D02*
X45108D01*
X40395Y46768D02*
X44997D01*
X40494Y46568D02*
X45220D01*
X40279Y46968D02*
X44773D01*
X40339Y46868D02*
X44885D01*
X39187Y48068D02*
X43542D01*
X39019Y48168D02*
X43430D01*
X39336Y47968D02*
X43654D01*
X38598Y48368D02*
X43206D01*
X38826Y48268D02*
X43318D01*
X39703Y47668D02*
X43990D01*
X39806Y47568D02*
X44101D01*
X39470Y47868D02*
X43766D01*
X39592Y47768D02*
X43878D01*
X36865Y51568D02*
X39398D01*
X36765Y51668D02*
X39257D01*
X36958Y51468D02*
X39539D01*
X36537Y51868D02*
X38976D01*
X36656Y51768D02*
X39116D01*
X37266Y51068D02*
X40103D01*
X37197Y51168D02*
X39962D01*
X37330Y50968D02*
X40244D01*
X37044Y51368D02*
X39680D01*
X37123Y51268D02*
X39821D01*
X35696Y52368D02*
X38271D01*
X35426Y52468D02*
X38130D01*
X35914Y52268D02*
X38412D01*
X28184Y58525D02*
X34560Y55001D01*
X35046Y52568D02*
X37989D01*
X34560Y55001D02*
X40500Y50786D01*
X36406Y51968D02*
X38835D01*
X36099Y52168D02*
X38553D01*
X36261Y52068D02*
X38694D01*
X37541Y50568D02*
X40744D01*
X37494Y50668D02*
X40633D01*
X37583Y50468D02*
X40856D01*
X37389Y50868D02*
X40385D01*
X37443Y50768D02*
X40521D01*
X23614Y46668D02*
X31867D01*
X23514Y46768D02*
X31771D01*
X23714Y46568D02*
X31971D01*
X23314Y46968D02*
X31600D01*
X23414Y46868D02*
X31682D01*
X22714Y47568D02*
X31218D01*
X22614Y47668D02*
X31170D01*
X22814Y47468D02*
X31270D01*
X22414Y47868D02*
X31084D01*
X22514Y47768D02*
X31125D01*
X23114Y47168D02*
X31453D01*
X23214Y47068D02*
X31524D01*
X22914Y47368D02*
X31327D01*
X23014Y47268D02*
X31388D01*
X42016Y44968D02*
X46794D01*
X41649Y45068D02*
X46704D01*
X42281Y44868D02*
X46883D01*
X40808Y45268D02*
X46526D01*
X40811Y45168D02*
X46615D01*
X45932Y45932D02*
X50786Y40500D01*
X42841Y44568D02*
X47151D01*
X42984Y44468D02*
X47240D01*
X42496Y44768D02*
X46972D01*
X42680Y44668D02*
X47062D01*
X40729Y45868D02*
X45989D01*
X40500Y50786D02*
X45932Y45932D01*
X40749Y45768D02*
X46079D01*
X40678Y46068D02*
X45780D01*
X40705Y45968D02*
X45892D01*
X40793Y45468D02*
X46347D01*
X40802Y45368D02*
X46436D01*
X40767Y45668D02*
X46168D01*
X40781Y45568D02*
X46257D01*
X44066Y43168D02*
X48402D01*
X44015Y43268D02*
X48313D01*
X44112Y43068D02*
X48492D01*
X43902Y43468D02*
X48134D01*
X43961Y43368D02*
X48223D01*
X44261Y42668D02*
X48849D01*
X44229Y42768D02*
X48760D01*
X44290Y42568D02*
X48938D01*
X44155Y42968D02*
X48581D01*
X44194Y42868D02*
X48670D01*
X43441Y44068D02*
X47598D01*
X43341Y44168D02*
X47509D01*
X43533Y43968D02*
X47687D01*
X43114Y44368D02*
X47330D01*
X43232Y44268D02*
X47419D01*
X43771Y43668D02*
X47955D01*
X43839Y43568D02*
X48045D01*
X43618Y43868D02*
X47777D01*
X43697Y43768D02*
X47866D01*
X40615Y46268D02*
X45556D01*
X40578Y46368D02*
X45444D01*
X40648Y46168D02*
X45668D01*
X40538Y46468D02*
X45332D01*
X24714Y45568D02*
X33841D01*
X24814Y45468D02*
X33829D01*
X24914Y45368D02*
X33820D01*
X24114Y46168D02*
X32495D01*
X24014Y46268D02*
X32344D01*
X24214Y46068D02*
X32666D01*
X23814Y46468D02*
X32084D01*
X23914Y46368D02*
X32207D01*
X24514Y45768D02*
X33403D01*
X24614Y45668D02*
X33855D01*
X24314Y45968D02*
X32864D01*
X24414Y45868D02*
X33100D01*
X26214Y44068D02*
X33971D01*
X26114Y44168D02*
X33941D01*
X26314Y43968D02*
X34004D01*
X25914Y44368D02*
X33891D01*
X26014Y44268D02*
X33915D01*
X26614Y43668D02*
X34123D01*
X26643Y43640D02*
X34136D01*
X26414Y43868D02*
X34040D01*
X26514Y43768D02*
X34080D01*
X25314Y44968D02*
X33814D01*
X25014Y45268D02*
X33814D01*
X25414Y44868D02*
X33820D01*
X25114Y45168D02*
X33811D01*
X25214Y45068D02*
X33811D01*
X25714Y44568D02*
X33854D01*
X25814Y44468D02*
X33871D01*
X25514Y44768D02*
X33828D01*
X25614Y44668D02*
X33839D01*
X21389Y57968D02*
X29192D01*
X21370Y57868D02*
X29373D01*
X21348Y57768D02*
X29553D01*
X21419Y58168D02*
X28830D01*
X21406Y58068D02*
X29011D01*
X21261Y57468D02*
X30096D01*
X21226Y57368D02*
X30277D01*
X21187Y57268D02*
X30458D01*
X21322Y57668D02*
X29734D01*
X21293Y57568D02*
X29915D01*
X21049Y56968D02*
X31001D01*
X20995Y56868D02*
X31182D01*
X20936Y56768D02*
X31363D01*
X21145Y57168D02*
X30639D01*
X21099Y57068D02*
X30820D01*
X20732Y56468D02*
X31906D01*
X20653Y56368D02*
X32087D01*
X20568Y56268D02*
X32268D01*
X20873Y56668D02*
X31544D01*
X20805Y56568D02*
X31725D01*
X20542Y54968D02*
X34606D01*
X20498Y55068D02*
X34439D01*
X20583Y54868D02*
X34747D01*
X20477Y56168D02*
X32448D01*
X20449Y55168D02*
X34258D01*
X20704Y54468D02*
X35311D01*
X20680Y54568D02*
X35170D01*
X20725Y54368D02*
X35452D01*
X20619Y54768D02*
X34888D01*
X20651Y54668D02*
X35029D01*
X20152Y55868D02*
X32991D01*
X20043Y55768D02*
X33172D01*
X20126Y55668D02*
X33353D01*
X20377Y56068D02*
X32629D01*
X20269Y55968D02*
X32810D01*
X20336Y55368D02*
X33896D01*
X20395Y55268D02*
X34077D01*
X20202Y55568D02*
X33534D01*
X20272Y55468D02*
X33715D01*
X20827Y60568D02*
X23252D01*
X20756Y60668D02*
X23010D01*
X20893Y60468D02*
X23493D01*
X20596Y60868D02*
X22527D01*
X20679Y60768D02*
X22769D01*
X21454Y61313D02*
X28184Y58525D01*
X21065Y60168D02*
X24217D01*
X21114Y60068D02*
X24459D01*
X20955Y60368D02*
X23734D01*
X21012Y60268D02*
X23976D01*
X20065Y61368D02*
X21261D01*
X14455Y63329D02*
X21454Y61313D01*
X20190Y61268D02*
X21562D01*
X19773Y61568D02*
X20567D01*
X19927Y61468D02*
X20914D01*
X20409Y61068D02*
X22044D01*
X20506Y60968D02*
X22286D01*
X20304Y61168D02*
X21803D01*
X21432Y58868D02*
X27356D01*
X21423Y58968D02*
X27114D01*
X21439Y58768D02*
X27597D01*
X21395Y59168D02*
X26631D01*
X21410Y59068D02*
X26873D01*
X21442Y58468D02*
X28287D01*
X21437Y58368D02*
X28468D01*
X21430Y58268D02*
X28649D01*
X21443Y58668D02*
X27838D01*
X21444Y58568D02*
X28080D01*
X21272Y59668D02*
X25424D01*
X21237Y59768D02*
X25183D01*
X21303Y59568D02*
X25666D01*
X21159Y59968D02*
X24700D01*
X21200Y59868D02*
X24941D01*
X21355Y59368D02*
X26149D01*
X21376Y59268D02*
X26390D01*
X21330Y59468D02*
X25907D01*
X20780Y53068D02*
X37284D01*
X20780Y53168D02*
X37143D01*
X20780Y52968D02*
X37425D01*
X20780Y53368D02*
X36862D01*
X20780Y53268D02*
X37002D01*
X20780Y52768D02*
X37707D01*
X20780Y52868D02*
X37566D01*
X20780Y52668D02*
X37848D01*
X20780Y52568D02*
X33645D01*
X20780Y52468D02*
X33266D01*
X20775Y53968D02*
X36016D01*
X20768Y54068D02*
X35875D01*
X20779Y53868D02*
X36157D01*
X20743Y54268D02*
X35593D01*
X20757Y54168D02*
X35734D01*
X20780Y53568D02*
X36580D01*
X20780Y53468D02*
X36720D01*
X20780Y53768D02*
X36298D01*
X20780Y53668D02*
X36439D01*
X20780Y51368D02*
X31647D01*
X20780Y51468D02*
X31733D01*
X20780Y51268D02*
X31568D01*
X20780Y51168D02*
X31494D01*
X20780Y51068D02*
X31425D01*
X20780Y50868D02*
X31303D01*
X20780Y50968D02*
X31362D01*
X20780Y50768D02*
X31248D01*
X20780Y50668D02*
X31197D01*
X20780Y50568D02*
X31151D01*
X20780Y52268D02*
X32778D01*
X20780Y52368D02*
X32996D01*
X20780Y52168D02*
X32592D01*
X20780Y52068D02*
X32430D01*
X20780Y51968D02*
X32285D01*
X20780Y51868D02*
X32154D01*
X20780Y51768D02*
X32035D01*
X20780Y51668D02*
X31926D01*
X20780Y51568D02*
X31826D01*
X20780Y49768D02*
X30903D01*
X20780Y49868D02*
X30923D01*
X20780Y49668D02*
X30886D01*
X20780Y49568D02*
X30872D01*
X20814Y49468D02*
X30861D01*
X21014Y49268D02*
X30848D01*
X20914Y49368D02*
X30853D01*
X21214Y49068D02*
X30846D01*
X20780Y49503D02*
X26643Y43640D01*
X21114Y49168D02*
X30846D01*
X20780Y50368D02*
X31069D01*
X20780Y50468D02*
X31108D01*
X20780Y50268D02*
X31033D01*
X20780Y50168D02*
X31000D01*
X20780Y50068D02*
X30971D01*
X20780Y49503D02*
Y53798D01*
Y49968D02*
X30945D01*
X21714Y48568D02*
X30893D01*
X21614Y48668D02*
X30877D01*
X21814Y48468D02*
X30911D01*
X21414Y48868D02*
X30856D01*
X21514Y48768D02*
X30865D01*
X22214Y48068D02*
X31014D01*
X22114Y48168D02*
X30983D01*
X22314Y47968D02*
X31047D01*
X21914Y48368D02*
X30932D01*
X22014Y48268D02*
X30956D01*
X21314Y48968D02*
X30850D01*
X10620Y42968D02*
X18829D01*
X10620Y42868D02*
X18929D01*
X10620Y43168D02*
X18629D01*
X10620Y43068D02*
X18729D01*
X15665Y46132D02*
X23272Y38525D01*
X10620Y42568D02*
X19229D01*
X10620Y42768D02*
X19029D01*
X10620Y42668D02*
X19129D01*
X47534Y37868D02*
X52654D01*
X47527Y37968D02*
X52583D01*
X47537Y37768D02*
X52725D01*
X47505Y38168D02*
X52441D01*
X47517Y38068D02*
X52512D01*
X47531Y37468D02*
X52938D01*
X47524Y37368D02*
X53009D01*
X47513Y37268D02*
X53080D01*
X47538Y37668D02*
X52796D01*
X47536Y37568D02*
X52867D01*
X47426Y38568D02*
X52157D01*
X47398Y38668D02*
X52086D01*
X47450Y38468D02*
X52228D01*
X47333Y38868D02*
X51944D01*
X47367Y38768D02*
X52015D01*
X47499Y37168D02*
X53151D01*
X47483Y37068D02*
X53222D01*
X47463Y36968D02*
X53292D01*
X47471Y38368D02*
X52299D01*
X47490Y38268D02*
X52370D01*
X47386Y36668D02*
X53505D01*
X47354Y36568D02*
X53576D01*
X47319Y36468D02*
X53647D01*
X47441Y36868D02*
X53363D01*
X47415Y36768D02*
X53434D01*
X47191Y36168D02*
X53860D01*
X47141Y36068D02*
X53931D01*
X47087Y35968D02*
X54002D01*
X47280Y36368D02*
X53718D01*
X47237Y36268D02*
X53789D01*
X46897Y35668D02*
X54215D01*
X46823Y35568D02*
X54286D01*
X46744Y35468D02*
X54357D01*
X47028Y35868D02*
X54073D01*
X46965Y35768D02*
X54144D01*
X46467Y35168D02*
X54570D01*
X46359Y35068D02*
X54641D01*
X46659Y35368D02*
X54428D01*
X46567Y35268D02*
X54499D01*
X44414Y41668D02*
X49743D01*
X44413Y41568D02*
X49832D01*
X44409Y41468D02*
X49921D01*
X44407Y41868D02*
X49564D01*
X44412Y41768D02*
X49653D01*
X45500Y40868D02*
X50458D01*
X45259Y40968D02*
X50368D01*
X45700Y40768D02*
X50547D01*
X44411Y41168D02*
X50189D01*
X44946Y41068D02*
X50279D01*
X44375Y42168D02*
X49296D01*
X44358Y42268D02*
X49207D01*
X44388Y42068D02*
X49385D01*
X44316Y42468D02*
X49028D01*
X44339Y42368D02*
X49117D01*
X44403Y41368D02*
X50011D01*
X44393Y41268D02*
X50100D01*
X44399Y41968D02*
X49475D01*
X46990Y39568D02*
X51448D01*
X46924Y39668D02*
X51377D01*
X47052Y39468D02*
X51519D01*
X46776Y39868D02*
X51235D01*
X46853Y39768D02*
X51306D01*
X47255Y39068D02*
X51802D01*
X47210Y39168D02*
X51732D01*
X47296Y38968D02*
X51873D01*
X47109Y39368D02*
X51590D01*
X47161Y39268D02*
X51660D01*
X46289Y40368D02*
X50880D01*
X46164Y40468D02*
X50809D01*
X46403Y40268D02*
X50951D01*
X45874Y40668D02*
X50636D01*
X46027Y40568D02*
X50726D01*
X46604Y40068D02*
X51093D01*
X46694Y39968D02*
X51164D01*
X46508Y40168D02*
X51022D01*
X33047Y37640D02*
X34704Y35984D01*
X27590Y28468D02*
X58368D01*
X27573Y28568D02*
X58313D01*
X27604Y28368D02*
X58423D01*
X27531Y28768D02*
X58202D01*
X27553Y28668D02*
X58257D01*
X27628Y28068D02*
X58573D01*
X27622Y28168D02*
X58532D01*
X27630Y27968D02*
X58615D01*
X55001Y34560D02*
X58525Y28184D01*
X27615Y28268D02*
X58479D01*
X27325Y29368D02*
X57871D01*
X27279Y29468D02*
X57815D01*
X27368Y29268D02*
X57926D01*
X27174Y29668D02*
X57705D01*
X27228Y29568D02*
X57760D01*
X27476Y28968D02*
X58092D01*
X27505Y28868D02*
X58147D01*
X27407Y29168D02*
X57981D01*
X27443Y29068D02*
X58036D01*
X27619Y27668D02*
X58739D01*
X27610Y27568D02*
X58780D01*
X27598Y27468D02*
X58822D01*
X27629Y27868D02*
X58656D01*
X27626Y27768D02*
X58697D01*
X27544Y27168D02*
X58946D01*
X27520Y27068D02*
X58987D01*
X31857Y22968D02*
X60686D01*
X27583Y27368D02*
X58863D01*
X27565Y27268D02*
X58905D01*
X27428Y26768D02*
X59112D01*
X27391Y26668D02*
X59153D01*
X27350Y26568D02*
X59194D01*
X27492Y26968D02*
X59029D01*
X27462Y26868D02*
X59070D01*
X27205Y26268D02*
X59319D01*
X27148Y26168D02*
X59360D01*
X27306Y26468D02*
X59236D01*
X27257Y26368D02*
X59277D01*
X45968Y34768D02*
X54854D01*
X45807Y34668D02*
X54924D01*
X45624Y34568D02*
X54995D01*
X46241Y34968D02*
X54711D01*
X46111Y34868D02*
X54783D01*
X45410Y34468D02*
X55052D01*
X45146Y34368D02*
X55107D01*
X44783Y34268D02*
X55163D01*
X50786Y40500D02*
X55001Y34560D01*
X40928Y34768D02*
X42108D01*
X40853Y34668D02*
X42269D01*
X40771Y34568D02*
X42452D01*
X41064Y34968D02*
X41835D01*
X40999Y34868D02*
X41965D01*
X40588Y34368D02*
X42930D01*
X40485Y34268D02*
X43294D01*
X40683Y34468D02*
X42666D01*
X40115Y33968D02*
X55328D01*
X39965Y33868D02*
X55384D01*
X39796Y33768D02*
X55439D01*
X40373Y34168D02*
X55218D01*
X40250Y34068D02*
X55273D01*
X39369Y33568D02*
X55549D01*
X39074Y33468D02*
X55605D01*
X38617Y33368D02*
X55660D01*
X39601Y33668D02*
X55494D01*
X31500Y23039D02*
X32281Y22884D01*
X27130Y30768D02*
X57097D01*
X27130Y30868D02*
X57042D01*
X27130Y30668D02*
X57152D01*
X27130Y31068D02*
X56931D01*
X27130Y30968D02*
X56986D01*
X27130Y30468D02*
X57263D01*
X27130Y30268D02*
X57373D01*
X27130Y29743D02*
Y33020D01*
Y30568D02*
X57207D01*
X25024Y36368D02*
X34319D01*
X24924Y36468D02*
X34219D01*
X25124Y36268D02*
X34419D01*
X24724Y36668D02*
X34019D01*
X24824Y36568D02*
X34119D01*
X25524Y35868D02*
X34735D01*
X25424Y35968D02*
X34708D01*
X25624Y35768D02*
X34765D01*
X25224Y36168D02*
X34519D01*
X25324Y36068D02*
X34619D01*
X24124Y37268D02*
X33419D01*
X24024Y37368D02*
X33319D01*
X24224Y37168D02*
X33519D01*
X23824Y37568D02*
X33119D01*
X23924Y37468D02*
X33219D01*
X24524Y36868D02*
X33819D01*
X24624Y36768D02*
X33919D01*
X24324Y37068D02*
X33619D01*
X24424Y36968D02*
X33719D01*
X26757Y34468D02*
X35517D01*
X26700Y34568D02*
X35429D01*
X26810Y34368D02*
X35612D01*
X26568Y34768D02*
X35272D01*
X26637Y34668D02*
X35347D01*
X26976Y33968D02*
X36085D01*
X26941Y34068D02*
X35950D01*
X27008Y33868D02*
X36235D01*
X26858Y34268D02*
X35715D01*
X26902Y34168D02*
X35827D01*
X26024Y35368D02*
X34920D01*
X25924Y35468D02*
X34876D01*
X26124Y35268D02*
X34968D01*
X25724Y35668D02*
X34798D01*
X25824Y35568D02*
X34835D01*
X26411Y34968D02*
X35136D01*
X26493Y34868D02*
X35201D01*
X26224Y35168D02*
X35020D01*
X26322Y35068D02*
X35076D01*
X10620Y41368D02*
X20429D01*
X10620Y41468D02*
X20329D01*
X10620Y41268D02*
X20529D01*
X10620Y41668D02*
X20129D01*
X10620Y41568D02*
X20229D01*
X10620Y40868D02*
X20929D01*
X10620Y40968D02*
X20829D01*
X10620Y40768D02*
X21029D01*
X10620Y41168D02*
X20629D01*
X10620Y41068D02*
X20729D01*
X10620Y42168D02*
X19629D01*
X10620Y42268D02*
X19529D01*
X10620Y42068D02*
X19729D01*
X10620Y42468D02*
X19329D01*
X10620Y42368D02*
X19429D01*
X10620Y41768D02*
X20029D01*
X10618Y40668D02*
X21129D01*
X10620Y41968D02*
X19829D01*
X10620Y41868D02*
X19929D01*
X23624Y37768D02*
X24532D01*
X20925Y39768D02*
X22029D01*
X21291Y39668D02*
X22129D01*
X22448Y38945D02*
X26245Y35148D01*
X25400Y37640D02*
X33047D01*
X23724Y37668D02*
X24989D01*
X10593Y40368D02*
X21429D01*
X10578Y40268D02*
X21529D01*
X10559Y40168D02*
X21629D01*
X10613Y40568D02*
X21229D01*
X10605Y40468D02*
X21329D01*
X10511Y39968D02*
X21829D01*
X10481Y39868D02*
X21929D01*
X10537Y40068D02*
X21729D01*
X12330Y39830D02*
X20320D01*
X27130Y30068D02*
X57484D01*
X27130Y30168D02*
X57428D01*
X27130Y29968D02*
X57539D01*
X27130Y31168D02*
X56876D01*
X27130Y30368D02*
X57318D01*
X27088Y26068D02*
X59401D01*
X27022Y25968D02*
X59443D01*
X26951Y25868D02*
X59484D01*
X27130Y29868D02*
X57594D01*
X27130Y29768D02*
X57650D01*
X26704Y25568D02*
X59609D01*
X26608Y25468D02*
X59650D01*
X26504Y25368D02*
X59691D01*
X26875Y25768D02*
X59526D01*
X26793Y25668D02*
X59567D01*
X26131Y25068D02*
X59816D01*
X25979Y24968D02*
X59857D01*
X26391Y25268D02*
X59733D01*
X26267Y25168D02*
X59774D01*
X25373Y24668D02*
X59981D01*
X25069Y24568D02*
X60023D01*
X24575Y24468D02*
X60064D01*
X25808Y24868D02*
X59899D01*
X25610Y24768D02*
X59940D01*
X22540Y23168D02*
X60603D01*
X22531Y23268D02*
X60561D01*
X22546Y23068D02*
X60644D01*
X22504Y23468D02*
X60479D01*
X22519Y23368D02*
X60520D01*
X22351Y24068D02*
X60230D01*
X22314Y24168D02*
X60188D01*
X22385Y23968D02*
X60271D01*
X22229Y24368D02*
X60106D01*
X22273Y24268D02*
X60147D01*
X22466Y23668D02*
X60396D01*
X22487Y23568D02*
X60437D01*
X22415Y23868D02*
X60313D01*
X22442Y23768D02*
X60354D01*
X27130Y32768D02*
X55992D01*
X27130Y32868D02*
X55936D01*
X27130Y32668D02*
X56047D01*
X27130Y33068D02*
X55826D01*
X27130Y32968D02*
X55881D01*
X27130Y32268D02*
X56268D01*
X27130Y32368D02*
X56213D01*
X27130Y32168D02*
X56323D01*
X27130Y32568D02*
X56102D01*
X27130Y32468D02*
X56157D01*
X27096Y33468D02*
X37126D01*
X27079Y33568D02*
X36831D01*
X27110Y33368D02*
X37583D01*
X27035Y33768D02*
X36404D01*
X27059Y33668D02*
X36599D01*
X27120Y33268D02*
X55715D01*
X27126Y33168D02*
X55770D01*
X27130Y31768D02*
X56544D01*
X27130Y31868D02*
X56489D01*
X27130Y31668D02*
X56599D01*
X27130Y32068D02*
X56378D01*
X27130Y31968D02*
X56434D01*
X27130Y31368D02*
X56765D01*
X27130Y31468D02*
X56710D01*
X27130Y31268D02*
X56821D01*
X27130Y31568D02*
X56655D01*
X22181Y24468D02*
X23685D01*
X27001Y23039D02*
X31500D01*
X22073Y24668D02*
X22887D01*
X22129Y24568D02*
X23191D01*
X26220Y22884D02*
X27001Y23039D01*
X22549Y22968D02*
X26644D01*
X22550Y22868D02*
X26197D01*
X14954Y62368D02*
X17790D01*
X14831Y62468D02*
X17443D01*
X15067Y62268D02*
X18138D01*
X14543Y62668D02*
X16749D01*
X14694Y62568D02*
X17096D01*
X15267Y62068D02*
X17613D01*
X15171Y62168D02*
X18485D01*
X15356Y61968D02*
X17052D01*
X15438Y61868D02*
X16734D01*
X15514Y61768D02*
X16491D01*
X13937Y62968D02*
X15708D01*
X13633Y63068D02*
X15361D01*
X14174Y62868D02*
X16055D01*
X7273Y64549D02*
X14455Y63329D01*
X13140Y63168D02*
X15014D01*
X14371Y62768D02*
X16402D01*
X3139Y61868D02*
X9948D01*
X3559Y61768D02*
X9872D01*
X3843Y61668D02*
X9801D01*
X8334Y56868D02*
X10472D01*
X8234Y56968D02*
X10385D01*
X8434Y56768D02*
X10567D01*
X8034Y57168D02*
X10233D01*
X8134Y57068D02*
X10306D01*
X8834Y56368D02*
X10967D01*
X8734Y56468D02*
X10867D01*
X8934Y56268D02*
X11067D01*
X8534Y56668D02*
X10667D01*
X8634Y56568D02*
X10767D01*
X7434Y57768D02*
X9772D01*
X4069Y61568D02*
X9735D01*
X7534Y57668D02*
X9841D01*
X4260Y61468D02*
X9674D01*
X7334Y57868D02*
X9709D01*
X7834Y57368D02*
X10080D01*
X7934Y57268D02*
X10166D01*
X7634Y57568D02*
X9915D01*
X7734Y57468D02*
X9994D01*
X5222Y60668D02*
X9330D01*
X5135Y60768D02*
X9361D01*
X5303Y60568D02*
X9303D01*
X5378Y60468D02*
X9279D01*
X5448Y60368D02*
X9258D01*
X5572Y60168D02*
X9225D01*
X5512Y60268D02*
X9240D01*
X5628Y60068D02*
X9213D01*
X5679Y59968D02*
X9204D01*
X5726Y59868D02*
X9197D01*
X4426Y61368D02*
X9618D01*
X0Y64958D02*
X7273Y64549D01*
X4574Y61268D02*
X9566D01*
X-1597Y64868D02*
X1597D01*
X-3378Y64768D02*
X3378D01*
X4707Y61168D02*
X9517D01*
X4828Y61068D02*
X9473D01*
X4939Y60968D02*
X9432D01*
X5041Y60868D02*
X9395D01*
X6634Y58568D02*
X9380D01*
X6534Y58668D02*
X9348D01*
X6734Y58468D02*
X9416D01*
X6334Y58868D02*
X9293D01*
X6434Y58768D02*
X9319D01*
X7134Y58068D02*
X9595D01*
X7034Y58168D02*
X9545D01*
X7234Y57968D02*
X9650D01*
X6834Y58368D02*
X9455D01*
X6934Y58268D02*
X9498D01*
X5879Y59468D02*
X9201D01*
X5846Y59568D02*
X9195D01*
X5909Y59368D02*
X9208D01*
X5770Y59768D02*
X9194D01*
X5810Y59668D02*
X9193D01*
X6134Y59068D02*
X9250D01*
X6234Y58968D02*
X9270D01*
X5936Y59268D02*
X9219D01*
X6034Y59168D02*
X9233D01*
X10620Y51968D02*
X14780D01*
X10620Y52068D02*
X14780D01*
X10620Y51868D02*
X14780D01*
X10620Y52268D02*
X14780D01*
X10620Y52168D02*
X14780D01*
Y48260D02*
Y52556D01*
X10620Y51568D02*
X14780D01*
X10620Y51468D02*
X14780D01*
X10620Y51768D02*
X14780D01*
X10620Y51668D02*
X14780D01*
X10620Y52768D02*
X14567D01*
X10620Y52868D02*
X14467D01*
X10620Y52668D02*
X14667D01*
X10620Y53068D02*
X14267D01*
X10620Y52968D02*
X14367D01*
X10620Y52468D02*
X14780D01*
X10620Y52368D02*
X14780D01*
X10578Y56757D02*
X14780Y52556D01*
X10620Y52568D02*
X14767D01*
X10620Y50168D02*
X14780D01*
X10620Y50268D02*
X14780D01*
X10620Y50068D02*
X14780D01*
X10620Y50468D02*
X14780D01*
X10620Y50368D02*
X14780D01*
X10620Y49668D02*
X14780D01*
X10620Y49768D02*
X14780D01*
X10620Y49568D02*
X14780D01*
X10620Y49968D02*
X14780D01*
X10620Y49868D02*
X14780D01*
X10620Y51068D02*
X14780D01*
X10620Y51168D02*
X14780D01*
X10620Y50968D02*
X14780D01*
X10620Y51368D02*
X14780D01*
X10620Y51268D02*
X14780D01*
X10620Y50668D02*
X14780D01*
X10620Y50568D02*
X14780D01*
X10620Y50868D02*
X14780D01*
X10620Y50768D02*
X14780D01*
X9918Y55268D02*
X12067D01*
X9830Y55368D02*
X11967D01*
X9998Y55168D02*
X12167D01*
X9634Y55568D02*
X11767D01*
X9734Y55468D02*
X11867D01*
X10140Y54968D02*
X12367D01*
X10072Y55068D02*
X12267D01*
X10201Y54868D02*
X12467D01*
X9334Y55868D02*
X11467D01*
X9234Y55968D02*
X11367D01*
X9434Y55768D02*
X11567D01*
X9034Y56168D02*
X11167D01*
X9134Y56068D02*
X11267D01*
X5936Y59267D02*
X9735Y55468D01*
X9534Y55668D02*
X11667D01*
X1693Y55024D02*
X4620Y52097D01*
X10602Y53668D02*
X13667D01*
X10589Y53768D02*
X13567D01*
X10611Y53568D02*
X13767D01*
X10553Y53968D02*
X13367D01*
X10573Y53868D02*
X13467D01*
X10620Y53268D02*
X14067D01*
X10620Y53368D02*
X13967D01*
X10620Y53168D02*
X14167D01*
X10617Y53468D02*
X13867D01*
X10620Y40770D02*
Y53340D01*
X10400Y54468D02*
X12867D01*
X10357Y54568D02*
X12767D01*
X10438Y54368D02*
X12967D01*
X10258Y54768D02*
X12567D01*
X10310Y54668D02*
X12667D01*
X10503Y54168D02*
X13167D01*
X10530Y54068D02*
X13267D01*
X10473Y54268D02*
X13067D01*
X4620Y42013D02*
Y52097D01*
X-6705Y63068D02*
X11753D01*
X-7231Y63168D02*
X12246D01*
X-6394Y62968D02*
X11449D01*
X-5158Y64668D02*
X5158D01*
X-6939Y64568D02*
X6939D01*
X-5954Y62768D02*
X11015D01*
X-6154Y62868D02*
X11212D01*
X-5782Y62668D02*
X10843D01*
X-5629Y62568D02*
X10692D01*
X-5491Y62468D02*
X10555D01*
X-8340Y64368D02*
X8340D01*
X-8928Y64268D02*
X8928D01*
X-9517Y64168D02*
X9517D01*
X-7273Y64549D02*
X0Y64958D01*
X-7751Y64468D02*
X7751D01*
X-11283Y63868D02*
X11283D01*
X-11871Y63768D02*
X11871D01*
X-12460Y63668D02*
X12460D01*
X-10105Y64068D02*
X10105D01*
X-10694Y63968D02*
X10694D01*
X-4549Y61368D02*
X654D01*
X-4605Y61468D02*
X820D01*
X-4496Y61268D02*
X506D01*
X-4448Y61168D02*
X373D01*
X-4403Y61068D02*
X252D01*
X-4324Y60868D02*
X39D01*
X-4362Y60968D02*
X141D01*
X-4290Y60768D02*
X-55D01*
X-4259Y60668D02*
X-142D01*
X-4232Y60568D02*
X-223D01*
X-5253Y62268D02*
X10318D01*
X-5367Y62368D02*
X10432D01*
X-5149Y62168D02*
X10215D01*
X-5052Y62068D02*
X10119D01*
X-4963Y61968D02*
X10030D01*
X-4881Y61868D02*
X1941D01*
X-4804Y61768D02*
X1521D01*
X-4733Y61668D02*
X1237D01*
X-4667Y61568D02*
X1011D01*
X-4141Y60068D02*
X-548D01*
X-4153Y60168D02*
X-492D01*
X-4131Y59968D02*
X-599D01*
X-4125Y59868D02*
X-646D01*
X-4121Y59768D02*
X-690D01*
X-4120Y59668D02*
X-730D01*
X-4122Y59568D02*
X-766D01*
X-4127Y59468D02*
X-799D01*
X-4135Y59368D02*
X-829D01*
X-4146Y59268D02*
X-856D01*
X-4186Y60368D02*
X-368D01*
X-4208Y60468D02*
X-298D01*
X-4168Y60268D02*
X-432D01*
X-4159Y59168D02*
X-879D01*
X-4176Y59068D02*
X-899D01*
X-4195Y58968D02*
X-917D01*
X-4218Y58868D02*
X-931D01*
X-4244Y58768D02*
X-943D01*
X-4272Y58668D02*
X-951D01*
X-4305Y58568D02*
X-957D01*
X-4340Y58468D02*
X-960D01*
X-4379Y58368D02*
X-960D01*
X-4518Y58068D02*
X-942D01*
X-4573Y57968D02*
X-931D01*
X-4620Y56968D02*
X-645D01*
X-4422Y58268D02*
X-957D01*
X-4468Y58168D02*
X-951D01*
X-4620Y57568D02*
X-855D01*
X-4620Y57668D02*
X-878D01*
X-4620Y57468D02*
X-828D01*
X-4620Y57868D02*
X-916D01*
X-4620Y57768D02*
X-899D01*
X-4620Y57168D02*
X-728D01*
X-4620Y57068D02*
X-688D01*
X-4620Y57368D02*
X-798D01*
X-4620Y57268D02*
X-765D01*
X-4620Y52068D02*
X4620D01*
X-4620Y52168D02*
X4549D01*
X-4620Y51968D02*
X4620D01*
X-4620Y52368D02*
X4349D01*
X-4620Y52268D02*
X4449D01*
X-4620Y51568D02*
X4620D01*
X-4620Y51668D02*
X4620D01*
X-4620Y51468D02*
X4620D01*
X-4620Y51868D02*
X4620D01*
X-4620Y51768D02*
X4620D01*
X-4620Y52968D02*
X3749D01*
X-4620Y53068D02*
X3649D01*
X-4620Y52868D02*
X3849D01*
X-4620Y53268D02*
X3449D01*
X-4620Y53168D02*
X3549D01*
X-4620Y52568D02*
X4149D01*
X-4620Y52468D02*
X4249D01*
X-4620Y52768D02*
X3949D01*
X-4620Y52668D02*
X4049D01*
X-4620Y50168D02*
X4620D01*
X-4620Y50268D02*
X4620D01*
X-4620Y50068D02*
X4620D01*
X-4620Y50468D02*
X4620D01*
X-4620Y50368D02*
X4620D01*
X-4620Y49668D02*
X4620D01*
X-4620Y49768D02*
X4620D01*
X-4620Y49568D02*
X4620D01*
X-4620Y49968D02*
X4620D01*
X-4620Y49868D02*
X4620D01*
X-4620Y51068D02*
X4620D01*
X-4620Y51168D02*
X4620D01*
X-4620Y50968D02*
X4620D01*
X-4620Y51368D02*
X4620D01*
X-4620Y51268D02*
X4620D01*
X-4620Y50668D02*
X4620D01*
X-4620Y50568D02*
X4620D01*
X-4620Y50868D02*
X4620D01*
X-4620Y50768D02*
X4620D01*
X-4620Y55868D02*
X144D01*
X-4620Y55968D02*
X42D01*
X-4620Y55768D02*
X256D01*
X-4620Y56168D02*
X-139D01*
X-4620Y56068D02*
X-52D01*
X-4620Y55368D02*
X826D01*
X-4620Y55468D02*
X659D01*
X-4620Y55268D02*
X1018D01*
X-4620Y55668D02*
X377D01*
X-4620Y55568D02*
X511D01*
X-4620Y56568D02*
X-430D01*
X-4620Y56668D02*
X-490D01*
X-4620Y56468D02*
X-365D01*
X-4620Y56868D02*
X-597D01*
X-4620Y56768D02*
X-546D01*
X-4620Y56368D02*
X-296D01*
X-4620Y56268D02*
X-220D01*
X-10620Y40770D02*
Y57887D01*
X-4620Y42013D02*
Y57887D01*
Y53968D02*
X2749D01*
X-4620Y54068D02*
X2649D01*
X-4620Y53868D02*
X2849D01*
X-4620Y54268D02*
X2449D01*
X-4620Y54168D02*
X2549D01*
X-4620Y53468D02*
X3249D01*
X-4620Y53568D02*
X3149D01*
X-4620Y53368D02*
X3349D01*
X-4620Y53768D02*
X2949D01*
X-4620Y53668D02*
X3049D01*
X-4620Y54868D02*
X1849D01*
X-4620Y54968D02*
X1749D01*
X-4620Y54768D02*
X1949D01*
X-4620Y55168D02*
X1245D01*
X-4620Y55068D02*
X1532D01*
X-4620Y54468D02*
X2249D01*
X-4620Y54368D02*
X2349D01*
X-4620Y54668D02*
X2049D01*
X-4620Y54568D02*
X2149D01*
X10620Y46168D02*
X15630D01*
X10620Y46368D02*
X15452D01*
X10620Y46268D02*
X15537D01*
X10620Y45768D02*
X16029D01*
X10620Y45868D02*
X15929D01*
X10620Y45668D02*
X16129D01*
X10620Y46068D02*
X15729D01*
X10620Y45968D02*
X15829D01*
X10620Y47068D02*
X15027D01*
X10620Y47168D02*
X14986D01*
X10620Y46968D02*
X15072D01*
X10620Y47368D02*
X14916D01*
X10620Y47268D02*
X14949D01*
X10620Y46568D02*
X15302D01*
X10620Y46668D02*
X15237D01*
X10620Y46468D02*
X15374D01*
X10620Y46868D02*
X15122D01*
X10620Y46768D02*
X15177D01*
X10620Y44368D02*
X17429D01*
X10620Y44468D02*
X17329D01*
X10620Y44268D02*
X17529D01*
X10620Y44668D02*
X17129D01*
X10620Y44568D02*
X17229D01*
X10620Y43868D02*
X17929D01*
X10620Y43968D02*
X17829D01*
X10620Y43768D02*
X18029D01*
X10620Y44168D02*
X17629D01*
X10620Y44068D02*
X17729D01*
X10620Y45268D02*
X16529D01*
X10620Y45368D02*
X16429D01*
X10620Y45168D02*
X16629D01*
X10620Y45568D02*
X16229D01*
X10620Y45468D02*
X16329D01*
X10620Y44868D02*
X16929D01*
X10620Y44768D02*
X17029D01*
X10620Y45068D02*
X16729D01*
X10620Y44968D02*
X16829D01*
X10620Y48868D02*
X14780D01*
X10620Y48968D02*
X14780D01*
X10620Y48768D02*
X14780D01*
X10620Y49168D02*
X14780D01*
X10620Y49068D02*
X14780D01*
X10620Y48368D02*
X14780D01*
X10620Y48468D02*
X14780D01*
X10620Y48268D02*
X14780D01*
X10620Y48668D02*
X14780D01*
X10620Y48568D02*
X14780D01*
X10620Y49368D02*
X14780D01*
X10620Y49468D02*
X14780D01*
X-4620Y49268D02*
X4620D01*
X-4620Y49468D02*
X4620D01*
X-4620Y49368D02*
X4620D01*
X10620Y49268D02*
X14780D01*
X-4620Y48968D02*
X4620D01*
X-4620Y49168D02*
X4620D01*
X-4620Y49068D02*
X4620D01*
X10620Y47868D02*
X14806D01*
X10620Y47968D02*
X14794D01*
X10620Y47768D02*
X14821D01*
X10620Y48168D02*
X14781D01*
X10620Y48068D02*
X14786D01*
X10620Y47568D02*
X14861D01*
X10620Y47668D02*
X14839D01*
X10620Y47468D02*
X14886D01*
X-4620Y43868D02*
X4620D01*
X-4620Y43768D02*
X4620D01*
X-4620Y44468D02*
X4620D01*
X-4620Y44568D02*
X4620D01*
X-4620Y44368D02*
X4620D01*
X-4620Y44868D02*
X4620D01*
X-4620Y44668D02*
X4620D01*
X-4620Y44068D02*
X4620D01*
X-4620Y43968D02*
X4620D01*
X-4620Y44268D02*
X4620D01*
X-4620Y44168D02*
X4620D01*
X10620Y43368D02*
X18429D01*
X10620Y43468D02*
X18329D01*
X10620Y43268D02*
X18529D01*
X10620Y43668D02*
X18129D01*
X10620Y43568D02*
X18229D01*
X-4620Y42468D02*
X4620D01*
X-4620Y42568D02*
X4620D01*
X-4620Y42368D02*
X4620D01*
X-4620Y42768D02*
X4620D01*
X-4620Y42668D02*
X4620D01*
X-4620Y43368D02*
X4620D01*
X-4620Y43468D02*
X4620D01*
X-4620Y43268D02*
X4620D01*
X-4620Y43668D02*
X4620D01*
X-4620Y43568D02*
X4620D01*
X-4620Y42968D02*
X4620D01*
X-4620Y42868D02*
X4620D01*
X-4620Y43168D02*
X4620D01*
X-4620Y43068D02*
X4620D01*
X10448Y39768D02*
X11725D01*
X-3975Y41368D02*
X3975D01*
X10410Y39668D02*
X11359D01*
X7628Y36370D02*
X10202Y38945D01*
X0Y37393D02*
X4620Y42013D01*
X7372Y36280D02*
X9735Y38642D01*
X-4620Y42168D02*
X4620D01*
X-4620Y42268D02*
X4620D01*
X-4620Y42068D02*
X4620D01*
X-4575Y41968D02*
X4575D01*
X-4475Y41868D02*
X4475D01*
X-4375Y41768D02*
X4375D01*
X-4275Y41668D02*
X4275D01*
X-4175Y41568D02*
X4175D01*
X-4075Y41468D02*
X4075D01*
X-2975Y40368D02*
X2975D01*
X-3075Y40468D02*
X3075D01*
X-2875Y40268D02*
X2875D01*
X-2775Y40168D02*
X2775D01*
X-2675Y40068D02*
X2675D01*
X-2475Y39868D02*
X2475D01*
X-2575Y39968D02*
X2575D01*
X-2375Y39768D02*
X2375D01*
X-2275Y39668D02*
X2275D01*
X-2175Y39568D02*
X2175D01*
X-3775Y41168D02*
X3775D01*
X-3875Y41268D02*
X3875D01*
X-3675Y41068D02*
X3675D01*
X-3575Y40968D02*
X3575D01*
X-3475Y40868D02*
X3475D01*
X-3375Y40768D02*
X3375D01*
X-3275Y40668D02*
X3275D01*
X-4620Y42013D02*
X0Y37393D01*
X-3175Y40568D02*
X3175D01*
X-1275Y38668D02*
X1275D01*
X-1375Y38768D02*
X1375D01*
X-1175Y38568D02*
X1175D01*
X-1075Y38468D02*
X1075D01*
X-975Y38368D02*
X975D01*
X-775Y38168D02*
X775D01*
X-875Y38268D02*
X875D01*
X-675Y38068D02*
X675D01*
X-575Y37968D02*
X575D01*
X-475Y37868D02*
X475D01*
X-1975Y39368D02*
X1975D01*
X-2075Y39468D02*
X2075D01*
X-1875Y39268D02*
X1875D01*
X-1775Y39168D02*
X1775D01*
X-1675Y39068D02*
X1675D01*
X-1575Y38968D02*
X1575D01*
X-1475Y38868D02*
X1475D01*
X-3000Y22968D02*
X-2160D01*
X-3000Y22868D02*
X-2060D01*
X-4620Y47668D02*
X4620D01*
X-4620Y47768D02*
X4620D01*
X-4620Y47568D02*
X4620D01*
X-4620Y47968D02*
X4620D01*
X-4620Y47868D02*
X4620D01*
X-4620Y47168D02*
X4620D01*
X-4620Y47268D02*
X4620D01*
X-4620Y47068D02*
X4620D01*
X-4620Y47468D02*
X4620D01*
X-4620Y47368D02*
X4620D01*
X-4620Y48568D02*
X4620D01*
X-4620Y48668D02*
X4620D01*
X-4620Y48468D02*
X4620D01*
X-4620Y48868D02*
X4620D01*
X-4620Y48768D02*
X4620D01*
X-4620Y48168D02*
X4620D01*
X-4620Y48068D02*
X4620D01*
X-4620Y48368D02*
X4620D01*
X-4620Y48268D02*
X4620D01*
X-4620Y45768D02*
X4620D01*
X-4620Y45868D02*
X4620D01*
X-4620Y45668D02*
X4620D01*
X-4620Y46068D02*
X4620D01*
X-4620Y45968D02*
X4620D01*
X-4620Y44968D02*
X4620D01*
X-4620Y45068D02*
X4620D01*
X-4620Y44768D02*
X4620D01*
X-4620Y45568D02*
X4620D01*
X-4620Y45468D02*
X4620D01*
X-4620Y46668D02*
X4620D01*
X-4620Y46768D02*
X4620D01*
X-4620Y46568D02*
X4620D01*
X-4620Y46968D02*
X4620D01*
X-4620Y46868D02*
X4620D01*
X-4620Y46268D02*
X4620D01*
X-4620Y46168D02*
X4620D01*
X-4620Y46468D02*
X4620D01*
X-4620Y46368D02*
X4620D01*
X-4620Y45268D02*
X4620D01*
X-4620Y45368D02*
X4620D01*
X-4620Y45168D02*
X4620D01*
X-9735Y38642D02*
X-7092Y36000D01*
X-11000D02*
X-7092D01*
X-13000Y34868D02*
X-11000D01*
X-13000Y35068D02*
X-11000D01*
X-13000Y34968D02*
X-11000D01*
X-13000Y35668D02*
X-11000D01*
X-13000Y35768D02*
X-11000D01*
X-13000Y35568D02*
X-11000D01*
X-13000Y35968D02*
X-11000D01*
X-13000Y35868D02*
X-11000D01*
X-13000Y35268D02*
X-11000D01*
X-13000Y35168D02*
X-11000D01*
X-13000Y35468D02*
X-11000D01*
X-13000Y35368D02*
X-11000D01*
X-13000Y33568D02*
X-11000D01*
X-13000Y33668D02*
X-11000D01*
X-13000Y33468D02*
X-11000D01*
X-13000Y33868D02*
X-11000D01*
X-13000Y33768D02*
X-11000D01*
X-13000Y33068D02*
X-11000D01*
X-13000Y33168D02*
X-11000D01*
X-13000Y32968D02*
X-11000D01*
X-13000Y33368D02*
X-11000D01*
X-13000Y33268D02*
X-11000D01*
X-13000Y34468D02*
X-11000D01*
X-13000Y34568D02*
X-11000D01*
X-13000Y34368D02*
X-11000D01*
X-13000Y34768D02*
X-11000D01*
X-13000Y34668D02*
X-11000D01*
X-13000Y34068D02*
X-11000D01*
X-13000Y33968D02*
X-11000D01*
X-13000Y34268D02*
X-11000D01*
X-13000Y34168D02*
X-11000D01*
X-13000Y27768D02*
X-11000D01*
X-13000Y27868D02*
X-11000D01*
X-13000Y27668D02*
X-11000D01*
X-13000Y28068D02*
X-11000D01*
X-13000Y27968D02*
X-11000D01*
Y25000D02*
Y36000D01*
X-13000Y27368D02*
X-11000D01*
X-13000Y27168D02*
X-11000D01*
X-13000Y27568D02*
X-11000D01*
X-13000Y27468D02*
X-11000D01*
X-13000Y28668D02*
X-11000D01*
X-13000Y28768D02*
X-11000D01*
X-13000Y28568D02*
X-11000D01*
X-13000Y32868D02*
X-11000D01*
X-13000Y28868D02*
X-11000D01*
X-13000Y28268D02*
X-11000D01*
X-13000Y28168D02*
X-11000D01*
X-13000Y28468D02*
X-11000D01*
X-13000Y28368D02*
X-11000D01*
X-13000Y25668D02*
X-11000D01*
X-13000Y25768D02*
X-11000D01*
X-13000Y25568D02*
X-11000D01*
X-13000Y25968D02*
X-11000D01*
X-13000Y25868D02*
X-11000D01*
Y25000D02*
X-9000D01*
X-13000Y25068D02*
X-11000D01*
X-9000Y23183D02*
Y25000D01*
X-13000Y25368D02*
X-11000D01*
X-13000Y25168D02*
X-11000D01*
X-13000Y26568D02*
X-11000D01*
X-13000Y26668D02*
X-11000D01*
X-13000Y26468D02*
X-11000D01*
X-13000Y27068D02*
X-11000D01*
X-13000Y26868D02*
X-11000D01*
X-13000Y26168D02*
X-11000D01*
X-13000Y26068D02*
X-11000D01*
X-13000Y26368D02*
X-11000D01*
X-13000Y26268D02*
X-11000D01*
X-13000Y31568D02*
X-11000D01*
X-13000Y31668D02*
X-11000D01*
X-13000Y31468D02*
X-11000D01*
X-13000Y31868D02*
X-11000D01*
X-13000Y31768D02*
X-11000D01*
X-13000Y31068D02*
X-11000D01*
X-13000Y31168D02*
X-11000D01*
X-13000Y30968D02*
X-11000D01*
X-13000Y31368D02*
X-11000D01*
X-13000Y31268D02*
X-11000D01*
X-13000Y32468D02*
X-11000D01*
X-13000Y32568D02*
X-11000D01*
X-13000Y32368D02*
X-11000D01*
X-13000Y32768D02*
X-11000D01*
X-13000Y32668D02*
X-11000D01*
X-13000Y32168D02*
X-11000D01*
X-13000Y32068D02*
X-11000D01*
X-13000Y25000D02*
Y36000D01*
Y32268D02*
X-11000D01*
X-13000Y29568D02*
X-11000D01*
X-13000Y29668D02*
X-11000D01*
X-13000Y29468D02*
X-11000D01*
X-13000Y29868D02*
X-11000D01*
X-13000Y29768D02*
X-11000D01*
X-13000Y29068D02*
X-11000D01*
X-13000Y29168D02*
X-11000D01*
X-13000Y28968D02*
X-11000D01*
X-13000Y29368D02*
X-11000D01*
X-13000Y29268D02*
X-11000D01*
X-13000Y30568D02*
X-11000D01*
X-13000Y30668D02*
X-11000D01*
X-13000Y30468D02*
X-11000D01*
X-13000Y30868D02*
X-11000D01*
X-13000Y30768D02*
X-11000D01*
X-13000Y30068D02*
X-11000D01*
X-13000Y29968D02*
X-11000D01*
X-13000Y30368D02*
X-11000D01*
X-13000Y30168D02*
X-11000D01*
X61313Y21454D02*
X63329Y14455D01*
X36000Y9668D02*
X64142D01*
X36000Y9568D02*
X64159D01*
X36033Y14968D02*
X63181D01*
X36014Y14868D02*
X63210D01*
X63329Y14455D02*
X64549Y7273D01*
X36000Y9268D02*
X64211D01*
X36000Y9168D02*
X64227D01*
X36000Y9468D02*
X64177D01*
X36000Y9368D02*
X64194D01*
X36000Y10368D02*
X64024D01*
X36000Y10468D02*
X64007D01*
X36000Y10268D02*
X64041D01*
X36000Y10668D02*
X63973D01*
X36000Y10568D02*
X63990D01*
X36000Y9868D02*
X64109D01*
X36000Y9968D02*
X64092D01*
X36000Y9768D02*
X64125D01*
X36000Y10168D02*
X64058D01*
X36000Y10068D02*
X64075D01*
X36000Y3868D02*
X64741D01*
X36000Y3968D02*
X64735D01*
X36000Y3768D02*
X64746D01*
X36000Y7668D02*
X64482D01*
X36000Y4068D02*
X64729D01*
X36000Y3268D02*
X64774D01*
X36000Y3468D02*
X64763D01*
X36000Y3168D02*
X64780D01*
X36000Y3668D02*
X64752D01*
X36000Y3568D02*
X64758D01*
X36000Y8768D02*
X64295D01*
X36000Y8868D02*
X64278D01*
X36000Y8668D02*
X64312D01*
X36000Y9068D02*
X64244D01*
X36000Y8968D02*
X64261D01*
X36000Y8368D02*
X64363D01*
X36000Y7968D02*
X64431D01*
X36000Y8568D02*
X64329D01*
X36000Y8468D02*
X64346D01*
X36040Y17568D02*
X62432D01*
X36040Y17668D02*
X62403D01*
X36040Y17468D02*
X62461D01*
X58525Y28184D02*
X61313Y21454D01*
X36040Y17768D02*
X62375D01*
X36040Y17068D02*
X62576D01*
X36040Y17168D02*
X62547D01*
X36040Y16968D02*
X62605D01*
X36040Y17368D02*
X62490D01*
X36040Y17268D02*
X62519D01*
X36040Y18368D02*
X62202D01*
X36040Y18468D02*
X62173D01*
X36040Y18268D02*
X62231D01*
X36006Y18668D02*
X62115D01*
X36026Y18568D02*
X62144D01*
X36040Y17968D02*
X62317D01*
X36040Y17868D02*
X62346D01*
X36040Y18168D02*
X62259D01*
X36040Y18068D02*
X62288D01*
X36040Y15668D02*
X62980D01*
X36040Y15768D02*
X62951D01*
X36040Y15568D02*
X63008D01*
X36040Y15968D02*
X62893D01*
X36040Y15868D02*
X62922D01*
X36040Y15168D02*
X63124D01*
X36040Y15268D02*
X63095D01*
X36040Y15068D02*
X63152D01*
X36040Y15468D02*
X63037D01*
X36040Y15368D02*
X63066D01*
X36040Y16568D02*
X62720D01*
X36040Y16668D02*
X62691D01*
X36040Y16468D02*
X62749D01*
X36040Y16868D02*
X62634D01*
X36040Y16768D02*
X62663D01*
X36040Y16168D02*
X62836D01*
X36040Y16068D02*
X62864D01*
X36040Y16368D02*
X62778D01*
X36040Y16268D02*
X62807D01*
X36000Y1868D02*
X64853D01*
X36000Y1968D02*
X64847D01*
X36000Y1768D02*
X64859D01*
X36000Y2168D02*
X64836D01*
X36000Y2068D02*
X64842D01*
X64549Y7273D02*
X64958Y0D01*
X36000Y1468D02*
X64875D01*
X36000Y1368D02*
X64881D01*
X36000Y1668D02*
X64864D01*
X36000Y1568D02*
X64870D01*
X36000Y2768D02*
X64802D01*
X36000Y2868D02*
X64797D01*
X36000Y2668D02*
X64808D01*
X36000Y3068D02*
X64786D01*
X36000Y2968D02*
X64791D01*
X36000Y2368D02*
X64825D01*
X36000Y2268D02*
X64831D01*
X36000Y2568D02*
X64814D01*
X36000Y2468D02*
X64819D01*
X64549Y-7273D02*
X64958Y0D01*
X39173Y-7632D02*
X64489D01*
X39309Y-7732D02*
X64472D01*
X39434Y-7832D02*
X64455D01*
X39547Y-7932D02*
X64438D01*
X63329Y-14455D02*
X64549Y-7273D01*
X39651Y-8032D02*
X64421D01*
X39747Y-8132D02*
X64404D01*
X39836Y-8232D02*
X64387D01*
X39919Y-8332D02*
X64370D01*
X36000Y1168D02*
X64892D01*
X36000Y1268D02*
X64887D01*
X36000Y1068D02*
X64898D01*
X37594Y-7032D02*
X64563D01*
X38104Y-7132D02*
X64557D01*
X38411Y-7232D02*
X64552D01*
X38649Y-7332D02*
X64539D01*
X38848Y-7432D02*
X64523D01*
X39020Y-7532D02*
X64506D01*
X40507Y-9432D02*
X64183D01*
X40473Y-9332D02*
X64200D01*
X40538Y-9532D02*
X64166D01*
X40565Y-9632D02*
X64149D01*
X40590Y-9732D02*
X64132D01*
X40629Y-9932D02*
X64098D01*
X40611Y-9832D02*
X64115D01*
X40644Y-10032D02*
X64081D01*
X40656Y-10132D02*
X64064D01*
X40666Y-10232D02*
X64047D01*
X40066Y-8532D02*
X64336D01*
X39995Y-8432D02*
X64353D01*
X40132Y-8632D02*
X64319D01*
X40193Y-8732D02*
X64302D01*
X40250Y-8832D02*
X64285D01*
X40302Y-8932D02*
X64268D01*
X40351Y-9032D02*
X64251D01*
X40395Y-9132D02*
X64234D01*
X40436Y-9232D02*
X64217D01*
X40676Y-10432D02*
X64013D01*
X40672Y-10332D02*
X64030D01*
X40676Y-10532D02*
X63996D01*
X40674Y-10632D02*
X63979D01*
X40669Y-10732D02*
X63962D01*
X40662Y-10832D02*
X63945D01*
X40651Y-10932D02*
X63928D01*
X40637Y-11032D02*
X63911D01*
X40620Y-11132D02*
X63894D01*
X40601Y-11232D02*
X63877D01*
X40578Y-11332D02*
X63860D01*
X40552Y-11432D02*
X63843D01*
X40523Y-11532D02*
X63826D01*
X40491Y-11632D02*
X63809D01*
X40455Y-11732D02*
X63792D01*
X40416Y-11832D02*
X63775D01*
X40373Y-11932D02*
X63758D01*
X40327Y-12032D02*
X63741D01*
X40276Y-12132D02*
X63724D01*
X35986Y18768D02*
X62087D01*
X35966Y18868D02*
X62058D01*
X35994Y14768D02*
X63239D01*
X35927Y19068D02*
X62000D01*
X35947Y18968D02*
X62029D01*
X35934Y14468D02*
X63325D01*
X35914Y14368D02*
X63344D01*
X35894Y14268D02*
X63361D01*
X35974Y14668D02*
X63268D01*
X35954Y14568D02*
X63296D01*
X35717Y13968D02*
X63412D01*
X35650Y13868D02*
X63429D01*
X35583Y13768D02*
X63446D01*
X35850Y14168D02*
X63378D01*
X35783Y14068D02*
X63395D01*
X35308Y13468D02*
X63497D01*
X35159Y13368D02*
X63514D01*
X35009Y13268D02*
X63531D01*
X35516Y13668D02*
X63463D01*
X35449Y13568D02*
X63480D01*
X34038Y12968D02*
X63582D01*
X28275Y11968D02*
X63752D01*
X28375Y11868D02*
X63769D01*
X34859Y13168D02*
X63548D01*
X34541Y13068D02*
X63565D01*
X28775Y11468D02*
X63837D01*
X28675Y11568D02*
X63820D01*
X28875Y11368D02*
X63854D01*
X28475Y11768D02*
X63786D01*
X28575Y11668D02*
X63803D01*
X27675Y12568D02*
X63650D01*
X27575Y12668D02*
X63633D01*
X27775Y12468D02*
X63667D01*
X27359Y12868D02*
X63599D01*
X27472Y12768D02*
X63616D01*
X28075Y12168D02*
X63718D01*
X28175Y12068D02*
X63735D01*
X27875Y12368D02*
X63684D01*
X27975Y12268D02*
X63701D01*
X33716Y21668D02*
X61224D01*
X33616Y21768D02*
X61183D01*
X33816Y21568D02*
X61266D01*
X33416Y21968D02*
X61100D01*
X33516Y21868D02*
X61141D01*
X34216Y21168D02*
X61395D01*
X34116Y21268D02*
X61366D01*
X34316Y21068D02*
X61424D01*
X33916Y21468D02*
X61307D01*
X34016Y21368D02*
X61337D01*
X32753Y22568D02*
X60851D01*
X32604Y22668D02*
X60810D01*
X32903Y22468D02*
X60893D01*
X32304Y22868D02*
X60727D01*
X32454Y22768D02*
X60768D01*
X33216Y22168D02*
X61017D01*
X33316Y22068D02*
X61058D01*
X33016Y22368D02*
X60934D01*
X33116Y22268D02*
X60975D01*
X35558Y19768D02*
X61799D01*
X35492Y19868D02*
X61770D01*
X35625Y19668D02*
X61827D01*
X35316Y20068D02*
X61712D01*
X35416Y19968D02*
X61741D01*
X35887Y19268D02*
X61943D01*
X35826Y19368D02*
X61914D01*
X35907Y19168D02*
X61971D01*
X35692Y19568D02*
X61856D01*
X35759Y19468D02*
X61885D01*
X34716Y20668D02*
X61539D01*
X34616Y20768D02*
X61510D01*
X34816Y20568D02*
X61568D01*
X34416Y20968D02*
X61453D01*
X34516Y20868D02*
X61481D01*
X35116Y20268D02*
X61654D01*
X35216Y20168D02*
X61683D01*
X34916Y20468D02*
X61597D01*
X35016Y20368D02*
X61626D01*
X36000Y4568D02*
X64701D01*
X36000Y4668D02*
X64696D01*
X36000Y4468D02*
X64707D01*
X36000Y4868D02*
X64685D01*
X36000Y4768D02*
X64690D01*
X36000Y3368D02*
X64769D01*
X36000Y4168D02*
X64724D01*
X19646Y968D02*
X64904D01*
X36000Y4368D02*
X64713D01*
X36000Y4268D02*
X64718D01*
X19576Y668D02*
X64920D01*
X19546Y568D02*
X64926D01*
X19513Y468D02*
X64932D01*
X19626Y868D02*
X64909D01*
X19602Y768D02*
X64915D01*
X19392Y168D02*
X64949D01*
X19345Y68D02*
X64954D01*
X19476Y368D02*
X64937D01*
X19436Y268D02*
X64943D01*
X19293Y-32D02*
X64956D01*
X19238Y-132D02*
X64951D01*
X19178Y-232D02*
X64945D01*
X19113Y-332D02*
X64939D01*
X19043Y-432D02*
X64934D01*
X18968Y-532D02*
X64928D01*
X18887Y-632D02*
X64922D01*
X18800Y-732D02*
X64917D01*
X18706Y-832D02*
X64911D01*
X18603Y-932D02*
X64906D01*
X18492Y-1032D02*
X64900D01*
X18371Y-1132D02*
X64894D01*
X18237Y-1232D02*
X64889D01*
X18089Y-1332D02*
X64883D01*
X17922Y-1432D02*
X64878D01*
X17730Y-1532D02*
X64872D01*
X17503Y-1632D02*
X64866D01*
X17216Y-1732D02*
X64861D01*
X16788Y-1832D02*
X64855D01*
X36000Y7468D02*
X64516D01*
X36000Y7568D02*
X64499D01*
X36000Y7368D02*
X64533D01*
X36000Y7868D02*
X64448D01*
X36000Y7768D02*
X64465D01*
X36000Y6968D02*
X64567D01*
X36000Y7068D02*
X64561D01*
X36000Y6868D02*
X64572D01*
X36000Y7268D02*
X64550D01*
X36000Y7168D02*
X64555D01*
X36000Y10968D02*
X63922D01*
X29175Y11068D02*
X63905D01*
X36000Y10868D02*
X63939D01*
X28975Y11268D02*
X63871D01*
X29075Y11168D02*
X63888D01*
X36000Y8168D02*
X64397D01*
X36000Y8068D02*
X64414D01*
X36000Y10768D02*
X63956D01*
X36000Y8268D02*
X64380D01*
X36000Y5568D02*
X64645D01*
X36000Y5668D02*
X64640D01*
X36000Y5468D02*
X64651D01*
X36000Y5868D02*
X64628D01*
X36000Y5768D02*
X64634D01*
X36000Y5068D02*
X64673D01*
X36000Y5168D02*
X64668D01*
X36000Y4968D02*
X64679D01*
X36000Y5368D02*
X64657D01*
X36000Y5268D02*
X64662D01*
X36000Y6468D02*
X64595D01*
X36000Y6568D02*
X64589D01*
X36000Y6368D02*
X64600D01*
X36000Y6768D02*
X64578D01*
X36000Y6668D02*
X64584D01*
X36000Y6068D02*
X64617D01*
X36000Y5968D02*
X64623D01*
X36000Y6268D02*
X64606D01*
X36000Y6168D02*
X64612D01*
X61313Y-21454D02*
X63329Y-14455D01*
X58525Y-28184D02*
X61313Y-21454D01*
X53807Y-29132D02*
X58001D01*
X53900Y-29232D02*
X57946D01*
X53986Y-29332D02*
X57891D01*
X55001Y-34560D02*
X58525Y-28184D01*
X54066Y-29432D02*
X57836D01*
X54140Y-29532D02*
X57780D01*
X54209Y-29632D02*
X57725D01*
X54272Y-29732D02*
X57670D01*
X52363Y-28231D02*
X58499D01*
X51979Y-28131D02*
X58547D01*
X52634Y-28331D02*
X58444D01*
X52853Y-28431D02*
X58388D01*
X53039Y-28531D02*
X58333D01*
X53347Y-28732D02*
X58223D01*
X53202Y-28631D02*
X58278D01*
X53478Y-28832D02*
X58167D01*
X53597Y-28932D02*
X58112D01*
X53707Y-29032D02*
X58057D01*
X54713Y-30831D02*
X57062D01*
X54690Y-30731D02*
X57117D01*
X54733Y-30931D02*
X57007D01*
X54749Y-31031D02*
X56951D01*
X54763Y-31131D02*
X56896D01*
X54782Y-31332D02*
X56786D01*
X54774Y-31232D02*
X56841D01*
X54788Y-31432D02*
X56730D01*
X54790Y-31532D02*
X56675D01*
X54789Y-31632D02*
X56620D01*
X54387Y-29931D02*
X57559D01*
X54332Y-29832D02*
X57615D01*
X54437Y-30031D02*
X57504D01*
X54484Y-30131D02*
X57449D01*
X54527Y-30231D02*
X57394D01*
X54566Y-30331D02*
X57338D01*
X54602Y-30431D02*
X57283D01*
X54634Y-30531D02*
X57228D01*
X54664Y-30631D02*
X57172D01*
X54786Y-31732D02*
X56565D01*
X54780Y-31832D02*
X56509D01*
X54771Y-31932D02*
X56454D01*
X54759Y-32032D02*
X56399D01*
X54744Y-32132D02*
X56343D01*
X54726Y-32232D02*
X56288D01*
X54705Y-32332D02*
X56233D01*
X54681Y-32431D02*
X56178D01*
X54653Y-32531D02*
X56122D01*
X54623Y-32631D02*
X56067D01*
X54589Y-32731D02*
X56012D01*
X54552Y-32831D02*
X55957D01*
X54511Y-32931D02*
X55901D01*
X54467Y-33031D02*
X55846D01*
X54419Y-33131D02*
X55791D01*
X54367Y-33231D02*
X55736D01*
X54310Y-33331D02*
X55680D01*
X54250Y-33431D02*
X55625D01*
X54184Y-33531D02*
X55570D01*
X54113Y-33631D02*
X55514D01*
X54037Y-33732D02*
X55459D01*
X53955Y-33832D02*
X55404D01*
X53867Y-33932D02*
X55349D01*
X53771Y-34032D02*
X55293D01*
X53668Y-34132D02*
X55238D01*
X53555Y-34232D02*
X55183D01*
X53432Y-34332D02*
X55128D01*
X53296Y-34432D02*
X55072D01*
X53144Y-34532D02*
X55017D01*
X52974Y-34632D02*
X54950D01*
X52777Y-34732D02*
X54880D01*
X52542Y-34832D02*
X54809D01*
X52241Y-34931D02*
X54738D01*
X51760Y-35031D02*
X54667D01*
X51400Y-35131D02*
X54596D01*
X51410Y-35231D02*
X54525D01*
X51424Y-35431D02*
X54383D01*
X51418Y-35331D02*
X54454D01*
X51426Y-35531D02*
X54312D01*
X51425Y-35631D02*
X54241D01*
X51422Y-35731D02*
X54170D01*
X51415Y-35831D02*
X54099D01*
X51406Y-35931D02*
X54028D01*
X51394Y-36031D02*
X53957D01*
X51379Y-36131D02*
X53886D01*
X51361Y-36232D02*
X53815D01*
X51340Y-36332D02*
X53744D01*
X51316Y-36432D02*
X53673D01*
X51288Y-36532D02*
X53602D01*
X51258Y-36632D02*
X53531D01*
X51224Y-36732D02*
X53460D01*
X50786Y-40500D02*
X55001Y-34560D01*
X51187Y-36832D02*
X53390D01*
X51146Y-36932D02*
X53319D01*
X51102Y-37032D02*
X53248D01*
X51053Y-37132D02*
X53177D01*
X51001Y-37232D02*
X53106D01*
X50945Y-37332D02*
X53035D01*
X50884Y-37431D02*
X52964D01*
X50818Y-37531D02*
X52893D01*
X50747Y-37631D02*
X52822D01*
X50671Y-37731D02*
X52751D01*
X50589Y-37831D02*
X52680D01*
X50500Y-37931D02*
X52609D01*
X50404Y-38031D02*
X52538D01*
X50300Y-38131D02*
X52467D01*
X50187Y-38231D02*
X52396D01*
X50063Y-38331D02*
X52325D01*
X49927Y-38431D02*
X52254D01*
X49775Y-38531D02*
X52183D01*
X49604Y-38631D02*
X52112D01*
X49406Y-38732D02*
X52041D01*
X49170Y-38832D02*
X51971D01*
X48866Y-38932D02*
X51899D01*
X48478Y-39532D02*
X51474D01*
X48466Y-39432D02*
X51545D01*
X48488Y-39632D02*
X51403D01*
X48495Y-39732D02*
X51332D01*
X48499Y-39832D02*
X51261D01*
X48500Y-39931D02*
X51190D01*
X48498Y-40031D02*
X51119D01*
X48494Y-40132D02*
X51048D01*
X48486Y-40231D02*
X50977D01*
X48476Y-40332D02*
X50906D01*
X48410Y-39132D02*
X51758D01*
X48385Y-39032D02*
X51828D01*
X48432Y-39232D02*
X51687D01*
X48450Y-39332D02*
X51616D01*
X48462Y-40431D02*
X50835D01*
X48446Y-40532D02*
X50759D01*
X48427Y-40631D02*
X50669D01*
X48405Y-40732D02*
X50580D01*
X48379Y-40831D02*
X50490D01*
X48351Y-40932D02*
X50401D01*
X48319Y-41031D02*
X50312D01*
X48284Y-41132D02*
X50222D01*
X48245Y-41231D02*
X50133D01*
X48203Y-41332D02*
X50044D01*
X48157Y-41431D02*
X49954D01*
X48107Y-41532D02*
X49865D01*
X48053Y-41631D02*
X49776D01*
X47995Y-41732D02*
X49686D01*
X47932Y-41831D02*
X49597D01*
X47864Y-41932D02*
X49507D01*
X47791Y-42031D02*
X49418D01*
X47713Y-42132D02*
X49329D01*
X47628Y-42231D02*
X49239D01*
X47537Y-42332D02*
X49150D01*
X47438Y-42432D02*
X49061D01*
X47330Y-42531D02*
X48971D01*
X40222Y-12232D02*
X63707D01*
X40163Y-12332D02*
X63690D01*
X40100Y-12432D02*
X63673D01*
X40031Y-12532D02*
X63656D01*
X39958Y-12632D02*
X63639D01*
X39878Y-12732D02*
X63622D01*
X39793Y-12832D02*
X63605D01*
X39700Y-12932D02*
X63588D01*
X39600Y-13032D02*
X63571D01*
X39492Y-13132D02*
X63554D01*
X39373Y-13232D02*
X63537D01*
X39243Y-13332D02*
X63520D01*
X39099Y-13432D02*
X63503D01*
X38937Y-13532D02*
X63486D01*
X38753Y-13632D02*
X63469D01*
X38537Y-13732D02*
X63452D01*
X38270Y-13832D02*
X63435D01*
X37897Y-13932D02*
X63418D01*
X287Y-17932D02*
X62328D01*
X2387Y-19032D02*
X62011D01*
X2291Y-18932D02*
X62039D01*
X2475Y-19132D02*
X61982D01*
X2557Y-19232D02*
X61953D01*
X2633Y-19332D02*
X61924D01*
X2769Y-19532D02*
X61867D01*
X2704Y-19432D02*
X61895D01*
X2830Y-19632D02*
X61838D01*
X2886Y-19732D02*
X61809D01*
X2938Y-19832D02*
X61780D01*
X1064Y-18132D02*
X62270D01*
X764Y-18032D02*
X62299D01*
X1298Y-18232D02*
X62241D01*
X1495Y-18332D02*
X62212D01*
X1665Y-18432D02*
X62184D01*
X1816Y-18532D02*
X62155D01*
X1952Y-18632D02*
X62126D01*
X2075Y-18732D02*
X62097D01*
X2188Y-18832D02*
X62068D01*
X26532Y-20932D02*
X61463D01*
X26393Y-20832D02*
X61492D01*
X26660Y-21032D02*
X61434D01*
X26778Y-21132D02*
X61406D01*
X26887Y-21232D02*
X61377D01*
X27083Y-21432D02*
X61319D01*
X26988Y-21332D02*
X61348D01*
X27171Y-21532D02*
X61281D01*
X27254Y-21632D02*
X61239D01*
X27331Y-21732D02*
X61198D01*
X3031Y-20032D02*
X61723D01*
X2986Y-19932D02*
X61751D01*
X24241Y-20132D02*
X61694D01*
X25026Y-20232D02*
X61665D01*
X25384Y-20332D02*
X61636D01*
X25654Y-20432D02*
X61607D01*
X25877Y-20532D02*
X61579D01*
X26069Y-20632D02*
X61550D01*
X26240Y-20732D02*
X61521D01*
X27913Y-22832D02*
X60742D01*
X27878Y-22732D02*
X60784D01*
X27946Y-22932D02*
X60701D01*
X27976Y-23032D02*
X60659D01*
X28003Y-23132D02*
X60618D01*
X28049Y-23332D02*
X60535D01*
X28028Y-23232D02*
X60577D01*
X28068Y-23432D02*
X60494D01*
X28085Y-23532D02*
X60452D01*
X28099Y-23632D02*
X60411D01*
X27472Y-21932D02*
X61115D01*
X27404Y-21832D02*
X61157D01*
X27535Y-22032D02*
X61074D01*
X27595Y-22132D02*
X61032D01*
X27651Y-22232D02*
X60991D01*
X27703Y-22332D02*
X60949D01*
X27752Y-22432D02*
X60908D01*
X27797Y-22532D02*
X60866D01*
X27839Y-22632D02*
X60825D01*
X28119Y-23832D02*
X60328D01*
X28110Y-23732D02*
X60369D01*
X28125Y-23932D02*
X60287D01*
X28129Y-24032D02*
X60245D01*
X28130Y-24132D02*
X60204D01*
X28129Y-24232D02*
X60162D01*
X28125Y-24332D02*
X60121D01*
X28119Y-24432D02*
X60079D01*
X28110Y-24532D02*
X60038D01*
X28098Y-24632D02*
X59997D01*
X28084Y-24732D02*
X59955D01*
X28068Y-24832D02*
X59914D01*
X28049Y-24931D02*
X59872D01*
X28027Y-25031D02*
X59831D01*
X28003Y-25131D02*
X59790D01*
X27975Y-25231D02*
X59748D01*
X27945Y-25331D02*
X59707D01*
X27912Y-25431D02*
X59665D01*
X27876Y-25531D02*
X59624D01*
X27838Y-25631D02*
X59583D01*
X27795Y-25731D02*
X59541D01*
X28066Y-26732D02*
X59127D01*
X28310Y-26832D02*
X59085D01*
X28516Y-26932D02*
X59044D01*
X28858Y-27132D02*
X58961D01*
X28697Y-27032D02*
X59002D01*
X29004Y-27232D02*
X58920D01*
X29137Y-27332D02*
X58878D01*
X29260Y-27431D02*
X58837D01*
X27750Y-25831D02*
X59500D01*
X27701Y-25931D02*
X59458D01*
X27649Y-26031D02*
X59417D01*
X27593Y-26131D02*
X59375D01*
X27533Y-26232D02*
X59334D01*
X27470Y-26332D02*
X59292D01*
X27401Y-26432D02*
X59251D01*
X27329Y-26532D02*
X59210D01*
X27761Y-26632D02*
X59168D01*
X30163Y-28531D02*
X49541D01*
X30106Y-28431D02*
X49727D01*
X30217Y-28631D02*
X49378D01*
X30268Y-28732D02*
X49233D01*
X30315Y-28832D02*
X49102D01*
X30398Y-29032D02*
X48873D01*
X30358Y-28932D02*
X48983D01*
X30436Y-29132D02*
X48773D01*
X30470Y-29232D02*
X48680D01*
X30502Y-29332D02*
X48594D01*
X29478Y-27631D02*
X58754D01*
X29373Y-27531D02*
X58795D01*
X29576Y-27731D02*
X58713D01*
X29668Y-27831D02*
X58671D01*
X29753Y-27931D02*
X58630D01*
X29833Y-28031D02*
X58588D01*
X29908Y-28131D02*
X50602D01*
X29978Y-28231D02*
X50217D01*
X30044Y-28331D02*
X49946D01*
X47213Y-42632D02*
X48882D01*
X47085Y-42731D02*
X48793D01*
X46943Y-42832D02*
X48703D01*
X46783Y-42931D02*
X48614D01*
X46603Y-43032D02*
X48524D01*
X45932Y-45932D02*
X50786Y-40500D01*
X46392Y-43131D02*
X48435D01*
X46133Y-43232D02*
X48346D01*
X45782Y-43331D02*
X48256D01*
X30556Y-29532D02*
X48440D01*
X30530Y-29432D02*
X48514D01*
X30579Y-29632D02*
X48371D01*
X30599Y-29732D02*
X48308D01*
X30617Y-29832D02*
X48248D01*
X30632Y-29931D02*
X48194D01*
X30645Y-30031D02*
X48143D01*
X30655Y-30131D02*
X48096D01*
X30662Y-30231D02*
X48053D01*
X25559Y22442D02*
X26220Y22884D01*
X22547Y22768D02*
X26047D01*
X22542Y22668D02*
X25897D01*
X22534Y22568D02*
X25748D01*
X22523Y22468D02*
X25598D01*
X32281Y22884D02*
X32942Y22442D01*
X25117Y21780D02*
X25559Y22442D01*
X32943Y22442D02*
X35442Y19942D01*
X22509Y22368D02*
X25509D01*
X24961Y21000D02*
X25117Y21780D01*
X22492Y22268D02*
X25443D01*
X22472Y22168D02*
X25376D01*
X22448Y22068D02*
X25309D01*
X22422Y21968D02*
X25242D01*
X22393Y21868D02*
X25175D01*
X22360Y21768D02*
X25114D01*
X22324Y21668D02*
X25094D01*
X22285Y21568D02*
X25074D01*
X22242Y21468D02*
X25054D01*
X22195Y21368D02*
X25034D01*
X36040Y15000D02*
Y18500D01*
X35884Y14220D02*
X36040Y15000D01*
X35442Y13558D02*
X35884Y14220D01*
X35442Y19942D02*
X35884Y19280D01*
X34781Y13116D02*
X35442Y13558D01*
X34000Y12961D02*
X34781Y13116D01*
X27243Y12961D02*
X34000D01*
X29243Y11000D02*
X36000D01*
X27558Y12685D02*
X29243Y11000D01*
X24188Y7570D02*
X25000Y6757D01*
X22144Y21268D02*
X25015D01*
X17511Y4868D02*
X25000D01*
X17737Y4768D02*
X25000D01*
X16806Y5068D02*
X25000D01*
X17227Y4968D02*
X25000D01*
X18375Y4368D02*
X25000D01*
X19577Y2568D02*
X25000D01*
X17927Y4668D02*
X25000D01*
X18241Y4468D02*
X25000D01*
X22089Y21168D02*
X24995D01*
X22029Y21068D02*
X24975D01*
X21822Y20768D02*
X24961D01*
X21965Y20968D02*
X24961D01*
X21896Y20868D02*
X24961D01*
X21657Y20570D02*
X24961D01*
X18971Y3768D02*
X25000D01*
X19046Y3668D02*
X25000D01*
X21742Y20668D02*
X24961D01*
X18094Y4568D02*
X25000D01*
X14481Y7570D02*
X24188D01*
X18496Y4268D02*
X25000D01*
X18803Y3968D02*
X25000D01*
X18890Y3868D02*
X25000D01*
X18607Y4168D02*
X25000D01*
X18709Y4068D02*
X25000D01*
X19647Y2268D02*
X25000D01*
X19627Y2368D02*
X25000D01*
X19664Y2168D02*
X25000D01*
X19547Y2668D02*
X25000D01*
X19603Y2468D02*
X25000D01*
X19704Y1768D02*
X25000D01*
X19699Y1868D02*
X25000D01*
X19707Y1668D02*
X25000D01*
X19679Y2068D02*
X25000D01*
X19690Y1968D02*
X25000D01*
X19295Y3268D02*
X25000D01*
X19240Y3368D02*
X25000D01*
X19346Y3168D02*
X25000D01*
X19115Y3568D02*
X25000D01*
X19180Y3468D02*
X25000D01*
X19477Y2868D02*
X25000D01*
X19514Y2768D02*
X25000D01*
X19394Y3068D02*
X25000D01*
X19437Y2968D02*
X25000D01*
Y1000D02*
Y6757D01*
X19698Y1368D02*
X25000D01*
Y1000D02*
X36000D01*
X19707Y1568D02*
X25000D01*
X19704Y1468D02*
X25000D01*
X36000Y1000D02*
Y11000D01*
X19690Y1268D02*
X25000D01*
X19678Y1168D02*
X25000D01*
X19664Y1068D02*
X25000D01*
X3071Y-20132D02*
X23759D01*
X3108Y-20232D02*
X22975D01*
X3142Y-20332D02*
X22617D01*
X3172Y-20432D02*
X22346D01*
X3200Y-20532D02*
X22123D01*
X3224Y-20632D02*
X21931D01*
X3305Y-21232D02*
X21114D01*
X3298Y-21132D02*
X21223D01*
X3308Y-21332D02*
X21012D01*
X3309Y-21432D02*
X20912D01*
X3306Y-21532D02*
X20812D01*
X17343Y-25000D02*
X21037Y-21307D01*
X3301Y-21632D02*
X20712D01*
X3293Y-21732D02*
X20612D01*
X3262Y-20832D02*
X21607D01*
X3244Y-20732D02*
X21760D01*
X3277Y-20932D02*
X21468D01*
X3289Y-21032D02*
X21340D01*
X3282Y-21832D02*
X20512D01*
X3268Y-21932D02*
X20412D01*
X3251Y-22032D02*
X20312D01*
X3231Y-22132D02*
X20212D01*
X3208Y-22232D02*
X20112D01*
X13000Y-25000D02*
X17343D01*
X11000Y-25331D02*
X13000D01*
X11000Y-25131D02*
X13000D01*
X11000Y-25231D02*
X13000D01*
Y-32343D02*
Y-25000D01*
X11000Y-25631D02*
X13000D01*
X11000Y-25731D02*
X13000D01*
X11000Y-25431D02*
X13000D01*
X11000Y-25531D02*
X13000D01*
X3182Y-22332D02*
X20012D01*
X3153Y-22432D02*
X19912D01*
X3120Y-22532D02*
X19812D01*
X3084Y-22632D02*
X19712D01*
X3045Y-22732D02*
X19612D01*
X3002Y-22832D02*
X19512D01*
X2955Y-22932D02*
X19412D01*
X11000Y-30343D02*
Y-25000D01*
Y-25031D02*
X13000D01*
X11000Y-27032D02*
X13000D01*
X11000Y-26932D02*
X13000D01*
X11000Y-27132D02*
X13000D01*
X11000Y-26732D02*
X13000D01*
X11000Y-26832D02*
X13000D01*
X11000Y-27531D02*
X13000D01*
X11000Y-27431D02*
X13000D01*
X11000Y-27631D02*
X13000D01*
X11000Y-27232D02*
X13000D01*
X11000Y-27332D02*
X13000D01*
X11000Y-26131D02*
X13000D01*
X11000Y-26031D02*
X13000D01*
X11000Y-26232D02*
X13000D01*
X11000Y-25831D02*
X13000D01*
X11000Y-25931D02*
X13000D01*
X11000Y-26532D02*
X13000D01*
X11000Y-26632D02*
X13000D01*
X11000Y-26332D02*
X13000D01*
X11000Y-26432D02*
X13000D01*
X-4529Y19168D02*
X1639D01*
X-4629Y19068D02*
X1740D01*
X-4729Y18968D02*
X1840D01*
X-4329Y19368D02*
X1440D01*
X-4429Y19268D02*
X1540D01*
X-5029Y18668D02*
X2139D01*
X-5129Y18568D02*
X2239D01*
X-5229Y18468D02*
X2340D01*
X-4829Y18868D02*
X1939D01*
X-4929Y18768D02*
X2040D01*
X-5529Y18168D02*
X2639D01*
X-5629Y18068D02*
X2740D01*
X-5729Y17968D02*
X2840D01*
X-5329Y18368D02*
X2439D01*
X-5429Y18268D02*
X2539D01*
X-6029Y17668D02*
X3140D01*
X-6129Y17568D02*
X3239D01*
X-5829Y17868D02*
X2939D01*
X-5929Y17768D02*
X3040D01*
X-6429Y17268D02*
X3539D01*
X-6529Y17168D02*
X3640D01*
X-6629Y17068D02*
X3740D01*
X-6229Y17468D02*
X3340D01*
X-6329Y17368D02*
X3440D01*
X-6929Y16768D02*
X4040D01*
X-7029Y16668D02*
X4139D01*
X-7129Y16568D02*
X4239D01*
X-6729Y16968D02*
X3839D01*
X-6829Y16868D02*
X3939D01*
X-7429Y16268D02*
X4539D01*
X-7529Y16168D02*
X4640D01*
X-7629Y16068D02*
X4739D01*
X-7229Y16468D02*
X4340D01*
X-7329Y16368D02*
X4439D01*
X-7929Y15768D02*
X5039D01*
X-8029Y15668D02*
X5139D01*
X-7729Y15968D02*
X4839D01*
X-7829Y15868D02*
X4940D01*
X-3000Y22468D02*
X-1661D01*
X-3000Y22568D02*
X-1761D01*
X-3000Y22368D02*
X-1560D01*
X-3000Y22768D02*
X-1961D01*
X-3000Y22668D02*
X-1860D01*
X-3000Y22068D02*
X-1260D01*
X-3000Y22168D02*
X-1361D01*
X-3000Y21968D02*
X-1160D01*
X-3000Y21940D02*
Y23808D01*
Y22268D02*
X-1461D01*
X-3012Y21668D02*
X-860D01*
X-3023Y21568D02*
X-760D01*
X-3037Y21468D02*
X-661D01*
X-3001Y21868D02*
X-1060D01*
X-3005Y21768D02*
X-961D01*
X-3055Y21368D02*
X-560D01*
X-12673Y19510D02*
X-9000Y23183D01*
X-3129Y21068D02*
X-260D01*
X-3162Y20968D02*
X-160D01*
X-3198Y20868D02*
X-60D01*
X-3076Y21268D02*
X-461D01*
X-3101Y21168D02*
X-360D01*
X-3332Y20568D02*
X239D01*
X-3386Y20468D02*
X340D01*
X-3444Y20368D02*
X439D01*
X-3238Y20768D02*
X39D01*
X-3283Y20668D02*
X139D01*
X-3655Y20068D02*
X740D01*
X-3739Y19968D02*
X839D01*
X-3830Y19868D02*
X940D01*
X-3509Y20268D02*
X540D01*
X-3579Y20168D02*
X640D01*
X-4129Y19568D02*
X1239D01*
X-4229Y19468D02*
X1339D01*
X-3929Y19768D02*
X1040D01*
X-4029Y19668D02*
X1139D01*
X-8729Y14968D02*
X5839D01*
X-8829Y14868D02*
X5939D01*
X-8929Y14768D02*
X6040D01*
X-8529Y15168D02*
X5640D01*
X-8629Y15068D02*
X5739D01*
X-3000Y23808D02*
X12353Y8455D01*
X-9229Y14468D02*
X6339D01*
X2904Y-23032D02*
X19312D01*
X-9029Y14668D02*
X6140D01*
X-9129Y14568D02*
X6240D01*
X-9555Y14168D02*
X6640D01*
X-9687Y14068D02*
X6740D01*
X-9836Y13968D02*
X6840D01*
X-9329Y14368D02*
X6439D01*
X-9436Y14268D02*
X6539D01*
X-10468Y13668D02*
X7139D01*
X-10841Y13568D02*
X7240D01*
X-10008Y13868D02*
X6939D01*
X-10212Y13768D02*
X7039D01*
X2850Y-23132D02*
X19212D01*
X2790Y-23232D02*
X19112D01*
X2727Y-23332D02*
X19012D01*
X2658Y-23432D02*
X18912D01*
X2584Y-23532D02*
X18812D01*
X2504Y-23632D02*
X18712D01*
X2418Y-23732D02*
X18612D01*
X2325Y-23832D02*
X18512D01*
X2224Y-23932D02*
X18412D01*
X2115Y-24032D02*
X18312D01*
X1995Y-24132D02*
X18212D01*
X1864Y-24232D02*
X18112D01*
X1719Y-24332D02*
X18012D01*
X1556Y-24432D02*
X17912D01*
X1369Y-24532D02*
X17812D01*
X1150Y-24632D02*
X17712D01*
X877Y-24732D02*
X17612D01*
X491Y-24832D02*
X17512D01*
X1000Y-25000D02*
X11000D01*
X-1000Y-25231D02*
X1000D01*
X-1000Y-25331D02*
X1000D01*
X-1000Y-25031D02*
X1000D01*
X-1000Y-25131D02*
X1000D01*
Y-32343D02*
Y-25000D01*
X-1000Y-25531D02*
X1000D01*
X-1000Y-25631D02*
X1000D01*
X-1000Y-30343D02*
Y-25000D01*
Y-25431D02*
X1000D01*
X-8229Y15468D02*
X5339D01*
X-8329Y15368D02*
X5440D01*
X-8429Y15268D02*
X5540D01*
X-9302Y14395D02*
X-3885Y19813D01*
X-8129Y15568D02*
X5239D01*
X-11000Y-25000D02*
X-1000D01*
X-11000Y-36000D02*
Y-25000D01*
X-1000Y-26932D02*
X1000D01*
X-1000Y-26832D02*
X1000D01*
X-1000Y-27032D02*
X1000D01*
X-1000Y-26632D02*
X1000D01*
X-1000Y-26732D02*
X1000D01*
X-1000Y-27431D02*
X1000D01*
X-1000Y-27332D02*
X1000D01*
X-1000Y-27531D02*
X1000D01*
X-1000Y-27132D02*
X1000D01*
X-1000Y-27232D02*
X1000D01*
X-1000Y-26031D02*
X1000D01*
X-1000Y-25931D02*
X1000D01*
X-1000Y-26131D02*
X1000D01*
X-1000Y-25731D02*
X1000D01*
X-1000Y-25831D02*
X1000D01*
X-1000Y-26432D02*
X1000D01*
X-1000Y-26532D02*
X1000D01*
X-1000Y-26232D02*
X1000D01*
X-1000Y-26332D02*
X1000D01*
X30670Y-31432D02*
X47793D01*
X30670Y-31332D02*
X47798D01*
X30670Y-31732D02*
X47794D01*
X30670Y-31532D02*
X47790D01*
X30670Y-31632D02*
X47791D01*
X30670Y-32032D02*
X47821D01*
X30670Y-31932D02*
X47810D01*
X30670Y-31832D02*
X47800D01*
X30670Y-32132D02*
X47222D01*
X30670Y-30431D02*
X47978D01*
X30667Y-30331D02*
X48014D01*
X30670Y-30531D02*
X47945D01*
X30670Y-30631D02*
X47916D01*
X30670Y-30731D02*
X47890D01*
X30670Y-30931D02*
X47847D01*
X30670Y-30831D02*
X47867D01*
X30670Y-31031D02*
X47831D01*
X30670Y-31131D02*
X47817D01*
X30670Y-31232D02*
X47806D01*
X30670Y-33231D02*
X45313D01*
X30670Y-33131D02*
X45406D01*
X30670Y-33331D02*
X45227D01*
X30670Y-33431D02*
X45148D01*
X30670Y-33531D02*
X45074D01*
X30670Y-33732D02*
X44942D01*
X30670Y-33631D02*
X45005D01*
X30670Y-33832D02*
X44883D01*
X30670Y-33932D02*
X44828D01*
X30670Y-34032D02*
X44777D01*
X30670Y-32332D02*
X46574D01*
X30670Y-32232D02*
X46844D01*
X30670Y-32431D02*
X46357D01*
X30670Y-32531D02*
X46171D01*
X30670Y-32631D02*
X46009D01*
X30670Y-32731D02*
X45865D01*
X30670Y-32831D02*
X45734D01*
X30670Y-32931D02*
X45615D01*
X30670Y-33031D02*
X45506D01*
X30670Y-34232D02*
X44688D01*
X30670Y-34132D02*
X44731D01*
X30670Y-34332D02*
X44649D01*
X30670Y-34290D02*
Y-30480D01*
X30668Y-34432D02*
X44613D01*
X30663Y-34532D02*
X44580D01*
X30655Y-34632D02*
X44551D01*
X30646Y-34732D02*
X44525D01*
X30633Y-34832D02*
X44503D01*
X30618Y-34931D02*
X44483D01*
X30601Y-35031D02*
X44466D01*
X30580Y-35131D02*
X44452D01*
X30558Y-35231D02*
X44441D01*
X30532Y-35331D02*
X44433D01*
X30504Y-35431D02*
X44428D01*
X30472Y-35531D02*
X44426D01*
X30438Y-35631D02*
X44427D01*
X30318Y-35931D02*
X44446D01*
X30271Y-36031D02*
X44458D01*
X30221Y-36131D02*
X44473D01*
X30401Y-35731D02*
X44430D01*
X30361Y-35831D02*
X44436D01*
X30167Y-36232D02*
X44491D01*
X30110Y-36332D02*
X44512D01*
X30048Y-36432D02*
X44536D01*
X29983Y-36532D02*
X44124D01*
X29913Y-36632D02*
X43802D01*
X29838Y-36732D02*
X43557D01*
X29759Y-36832D02*
X43353D01*
X29674Y-36932D02*
X43178D01*
X29583Y-37032D02*
X43024D01*
X29485Y-37132D02*
X42885D01*
X29385Y-37232D02*
X42759D01*
X29285Y-37332D02*
X42644D01*
X29185Y-37431D02*
X42539D01*
X29085Y-37531D02*
X42442D01*
X36392Y-46732D02*
X45038D01*
X36252Y-46631D02*
X45150D01*
X36519Y-46831D02*
X44926D01*
X36635Y-46932D02*
X44814D01*
X36741Y-47031D02*
X44702D01*
X40500Y-50786D02*
X45932Y-45932D01*
X36839Y-47132D02*
X44590D01*
X36930Y-47231D02*
X44478D01*
X37013Y-47332D02*
X44366D01*
X37091Y-47432D02*
X44254D01*
X34392Y-46031D02*
X45821D01*
X28985Y-37631D02*
X42352D01*
X35127Y-46132D02*
X45709D01*
X28885Y-37731D02*
X42269D01*
X28785Y-37831D02*
X42191D01*
X35460Y-46231D02*
X45597D01*
X35711Y-46332D02*
X45485D01*
X35918Y-46431D02*
X45374D01*
X36095Y-46532D02*
X45262D01*
X37645Y-48531D02*
X43024D01*
X37613Y-48432D02*
X43135D01*
X37673Y-48632D02*
X42912D01*
X37698Y-48731D02*
X42800D01*
X37720Y-48832D02*
X42688D01*
X37754Y-49032D02*
X42464D01*
X37738Y-48931D02*
X42576D01*
X37767Y-49131D02*
X42352D01*
X37777Y-49232D02*
X42240D01*
X37784Y-49331D02*
X42128D01*
X37230Y-47632D02*
X44031D01*
X37163Y-47531D02*
X44143D01*
X37293Y-47731D02*
X43919D01*
X37350Y-47832D02*
X43807D01*
X37404Y-47931D02*
X43695D01*
X37453Y-48032D02*
X43583D01*
X37499Y-48131D02*
X43471D01*
X37540Y-48232D02*
X43359D01*
X37578Y-48331D02*
X43247D01*
X37790Y-49531D02*
X41905D01*
X37789Y-49432D02*
X42017D01*
X37789Y-49632D02*
X41793D01*
X37784Y-49731D02*
X41681D01*
X37777Y-49832D02*
X41569D01*
X37767Y-49932D02*
X41457D01*
X37754Y-50031D02*
X41345D01*
X37738Y-50132D02*
X41233D01*
X37719Y-50231D02*
X41121D01*
X37697Y-50332D02*
X41009D01*
X37672Y-50431D02*
X40897D01*
X37644Y-50532D02*
X40786D01*
X37612Y-50631D02*
X40674D01*
X37577Y-50732D02*
X40562D01*
X37539Y-50831D02*
X40437D01*
X34560Y-55001D02*
X40500Y-50786D01*
X37497Y-50932D02*
X40296D01*
X37452Y-51031D02*
X40155D01*
X37402Y-51132D02*
X40014D01*
X37349Y-51231D02*
X39873D01*
X37291Y-51332D02*
X39732D01*
X37228Y-51431D02*
X39591D01*
X37161Y-51532D02*
X39450D01*
X37089Y-51631D02*
X39309D01*
X37011Y-51732D02*
X39168D01*
X36927Y-51831D02*
X39027D01*
X36836Y-51932D02*
X38886D01*
X36738Y-52031D02*
X38746D01*
X36631Y-52132D02*
X38605D01*
X36515Y-52231D02*
X38464D01*
X36388Y-52332D02*
X38323D01*
X36247Y-52432D02*
X38182D01*
X36090Y-52531D02*
X38041D01*
X35912Y-52632D02*
X37900D01*
X35704Y-52731D02*
X37759D01*
X35452Y-52832D02*
X37618D01*
X35115Y-52931D02*
X37477D01*
X11000Y-28932D02*
X13000D01*
X11000Y-28832D02*
X13000D01*
X11000Y-29032D02*
X13000D01*
X11000Y-28631D02*
X13000D01*
X11000Y-28732D02*
X13000D01*
X11000Y-29432D02*
X13000D01*
X11000Y-29332D02*
X13000D01*
X11000Y-29532D02*
X13000D01*
X11000Y-29132D02*
X13000D01*
X11000Y-29232D02*
X13000D01*
X11000Y-28031D02*
X13000D01*
X11000Y-27931D02*
X13000D01*
X11000Y-28131D02*
X13000D01*
X11000Y-27731D02*
X13000D01*
X11000Y-27831D02*
X13000D01*
X11000Y-28431D02*
X13000D01*
X11000Y-28531D02*
X13000D01*
X11000Y-28231D02*
X13000D01*
X11000Y-28331D02*
X13000D01*
X11489Y-30831D02*
X13000D01*
X11389Y-30731D02*
X13000D01*
X11589Y-30931D02*
X13000D01*
X11189Y-30531D02*
X13000D01*
X11289Y-30631D02*
X13000D01*
X11989Y-31332D02*
X13000D01*
X11889Y-31232D02*
X13000D01*
X12089Y-31432D02*
X13000D01*
X11689Y-31031D02*
X13000D01*
X11789Y-31131D02*
X13000D01*
X11000Y-29931D02*
X13000D01*
X11000Y-29832D02*
X13000D01*
X11000Y-30031D02*
X13000D01*
X11000Y-29632D02*
X13000D01*
X11000Y-29732D02*
X13000D01*
X11000Y-30331D02*
X13000D01*
X11089Y-30431D02*
X13000D01*
X11000Y-30131D02*
X13000D01*
X11000Y-30231D02*
X13000D01*
X-1000Y-28832D02*
X1000D01*
X-1000Y-28732D02*
X1000D01*
X-1000Y-28932D02*
X1000D01*
X-1000Y-28531D02*
X1000D01*
X-1000Y-28631D02*
X1000D01*
X-1000Y-29332D02*
X1000D01*
X-1000Y-29232D02*
X1000D01*
X-1000Y-29432D02*
X1000D01*
X-1000Y-29032D02*
X1000D01*
X-1000Y-29132D02*
X1000D01*
X-1000Y-27931D02*
X1000D01*
X-1000Y-27831D02*
X1000D01*
X-1000Y-28031D02*
X1000D01*
X-1000Y-27631D02*
X1000D01*
X-1000Y-27731D02*
X1000D01*
X-1000Y-28331D02*
X1000D01*
X-1000Y-28431D02*
X1000D01*
X-1000Y-28131D02*
X1000D01*
X-1000Y-28231D02*
X1000D01*
X-611Y-30731D02*
X1000D01*
X-711Y-30631D02*
X1000D01*
X-511Y-30831D02*
X1000D01*
X-911Y-30431D02*
X1000D01*
X-811Y-30531D02*
X1000D01*
X-111Y-31232D02*
X1000D01*
X-211Y-31131D02*
X1000D01*
X-11Y-31332D02*
X1000D01*
X-411Y-30931D02*
X1000D01*
X-311Y-31031D02*
X1000D01*
X-1000Y-29832D02*
X1000D01*
X-1000Y-29732D02*
X1000D01*
X-1000Y-29931D02*
X1000D01*
X-1000Y-29532D02*
X1000D01*
X-1000Y-29632D02*
X1000D01*
X-1000Y-30231D02*
X1000D01*
X-1000Y-30331D02*
X1000D01*
X-1000Y-30031D02*
X1000D01*
X-1000Y-30131D02*
X1000D01*
X28685Y-37931D02*
X42120D01*
X28585Y-38031D02*
X42053D01*
X28485Y-38131D02*
X41992D01*
X28385Y-38231D02*
X41934D01*
X28285Y-38331D02*
X41881D01*
X28185Y-38431D02*
X41832D01*
X28085Y-38531D02*
X41787D01*
X27985Y-38631D02*
X41746D01*
X27885Y-38732D02*
X41708D01*
X27785Y-38832D02*
X41674D01*
X27685Y-38932D02*
X41642D01*
X27585Y-39032D02*
X41615D01*
X27485Y-39132D02*
X41590D01*
X27385Y-39232D02*
X41568D01*
X27285Y-39332D02*
X41550D01*
X27185Y-39432D02*
X41534D01*
X27085Y-39532D02*
X41522D01*
X26985Y-39632D02*
X41512D01*
X26485Y-40132D02*
X41506D01*
X26185Y-40431D02*
X41538D01*
X26085Y-40532D02*
X41554D01*
X25985Y-40631D02*
X41573D01*
X26385Y-40231D02*
X41514D01*
X26285Y-40332D02*
X41524D01*
X25685Y-40932D02*
X41649D01*
X25581Y-41031D02*
X41681D01*
X25470Y-41132D02*
X41716D01*
X25885Y-40732D02*
X41595D01*
X25785Y-40831D02*
X41621D01*
X25074Y-41431D02*
X41843D01*
X24915Y-41532D02*
X41893D01*
X24738Y-41631D02*
X41947D01*
X25349Y-41231D02*
X41755D01*
X25217Y-41332D02*
X41797D01*
X24009Y-41932D02*
X42136D01*
X23597Y-42031D02*
X42209D01*
X24537Y-41732D02*
X42005D01*
X24301Y-41831D02*
X42068D01*
X26885Y-39732D02*
X41505D01*
X26785Y-39832D02*
X41501D01*
X26585Y-40031D02*
X41502D01*
X12189Y-31532D02*
X13000D01*
X26685Y-39931D02*
X41500D01*
X25693Y-40923D02*
X29493Y-37123D01*
X28184Y-58525D02*
X34560Y-55001D01*
X13100Y-42100D02*
X22860D01*
X11000Y-30343D02*
X13000Y-32343D01*
X-1000Y-30343D02*
X1000Y-32343D01*
X189Y-31532D02*
X1000D01*
X89Y-31432D02*
X1000D01*
X-11000Y-36000D02*
X-6657D01*
X1100Y-42100D02*
X13100D01*
X-6657Y-36000D02*
X-1733Y-40923D01*
X21454Y-61313D02*
X28184Y-58525D01*
X14455Y-63329D02*
X21454Y-61313D01*
X7273Y-64549D02*
X14455Y-63329D01*
X-7379Y-64531D02*
X7379D01*
X-5814Y-64632D02*
X5814D01*
X0Y-64958D02*
X7273Y-64549D01*
X-4033Y-64731D02*
X4033D01*
X-2252Y-64832D02*
X2252D01*
X-7273Y-64549D02*
X0Y-64958D01*
X-472Y-64932D02*
X472D01*
X-12088Y-63731D02*
X12088D01*
X-12676Y-63632D02*
X12676D01*
X-11499Y-63832D02*
X11499D01*
X-10911Y-63931D02*
X10911D01*
X-10322Y-64032D02*
X10322D01*
X-9733Y-64131D02*
X9733D01*
X-9145Y-64232D02*
X9145D01*
X-8556Y-64331D02*
X8556D01*
X-7968Y-64432D02*
X7968D01*
X-13637Y63468D02*
X13637D01*
X-14225Y63368D02*
X14225D01*
X-14667Y63268D02*
X14667D01*
X-14455Y63329D02*
X-7273Y64549D01*
X-13048Y63568D02*
X13048D01*
X-15014Y63168D02*
X-8009D01*
X-15361Y63068D02*
X-8535D01*
X-15708Y62968D02*
X-8846D01*
X-16055Y62868D02*
X-9086D01*
X-16402Y62768D02*
X-9286D01*
X-16749Y62668D02*
X-9458D01*
X-17096Y62568D02*
X-9611D01*
X-17443Y62468D02*
X-9749D01*
X-17790Y62368D02*
X-9873D01*
X-18138Y62268D02*
X-9987D01*
X-18485Y62168D02*
X-10091D01*
X-18832Y62068D02*
X-10188D01*
X-19179Y61968D02*
X-10277D01*
X-19526Y61868D02*
X-10359D01*
X-19873Y61768D02*
X-10436D01*
X-20158Y58168D02*
X-10772D01*
X-20220Y61668D02*
X-10507D01*
X-20104Y58068D02*
X-10722D01*
X-20278Y58368D02*
X-10861D01*
X-20216Y58268D02*
X-10818D01*
X-19930Y57668D02*
X-10620D01*
X-19968Y57768D02*
X-10620D01*
X-19895Y57568D02*
X-10620D01*
X-20055Y57968D02*
X-10667D01*
X-20010Y57868D02*
X-10620D01*
X-20567Y61568D02*
X-10573D01*
X-20914Y61468D02*
X-10635D01*
X-21261Y61368D02*
X-10691D01*
X-21562Y61268D02*
X-10744D01*
X-21803Y61168D02*
X-10792D01*
X-22044Y61068D02*
X-10837D01*
X-22286Y60968D02*
X-10878D01*
X-22527Y60868D02*
X-10916D01*
X-20345Y58468D02*
X-10900D01*
X-22769Y60768D02*
X-10950D01*
X-23010Y60668D02*
X-10980D01*
X-23252Y60568D02*
X-11008D01*
X-21454Y61313D02*
X-14455Y63329D01*
X-23493Y60468D02*
X-11032D01*
X-22381Y59868D02*
X-11115D01*
X-23117Y59968D02*
X-11109D01*
X-21590Y59568D02*
X-11118D01*
X-22048Y59768D02*
X-11119D01*
X-21797Y59668D02*
X-11120D01*
X-23734Y60368D02*
X-11054D01*
X-23976Y60268D02*
X-11072D01*
X-24217Y60168D02*
X-11087D01*
X-24459Y60068D02*
X-11099D01*
X-24700Y59968D02*
X-23320D01*
X-24941Y59868D02*
X-24055D01*
X-25183Y59768D02*
X-24388D01*
X-25424Y59668D02*
X-24639D01*
X-25666Y59568D02*
X-24846D01*
X-20989Y59168D02*
X-11081D01*
X-21116Y59268D02*
X-11094D01*
X-20873Y59068D02*
X-11064D01*
X-21413Y59468D02*
X-11113D01*
X-21256Y59368D02*
X-11105D01*
X-20495Y58668D02*
X-10968D01*
X-20579Y58768D02*
X-10996D01*
X-20417Y58568D02*
X-10935D01*
X-20767Y58968D02*
X-11045D01*
X-20669Y58868D02*
X-11022D01*
X-25907Y59468D02*
X-25023D01*
X-26149Y59368D02*
X-25180D01*
X-26390Y59268D02*
X-25320D01*
X-26631Y59168D02*
X-25447D01*
X-26873Y59068D02*
X-25563D01*
X-27114Y58968D02*
X-25669D01*
X-27356Y58868D02*
X-25767D01*
X-27597Y58768D02*
X-25858D01*
X-27838Y58668D02*
X-25942D01*
X-19811Y57268D02*
X-10620D01*
X-20993Y53768D02*
X-10620D01*
X-21120Y53668D02*
X-10620D01*
X-19864Y57468D02*
X-10620D01*
X-19835Y57368D02*
X-10620D01*
X-21596Y53368D02*
X-10620D01*
X-21804Y53268D02*
X-10620D01*
X-22056Y53168D02*
X-10620D01*
X-21261Y53568D02*
X-10620D01*
X-21418Y53468D02*
X-10620D01*
X-24064Y52868D02*
X-10620D01*
X-24093Y52768D02*
X-10620D01*
X-24126Y52668D02*
X-10620D01*
X-22394Y53068D02*
X-10620D01*
X-24039Y52968D02*
X-10620D01*
X-24243Y52368D02*
X-10620D01*
X-24289Y52268D02*
X-10620D01*
X-24161Y52568D02*
X-10620D01*
X-24200Y52468D02*
X-10620D01*
X-24453Y51968D02*
X-10620D01*
X-24516Y51868D02*
X-10620D01*
X-24585Y51768D02*
X-10620D01*
X-24340Y52168D02*
X-10620D01*
X-24394Y52068D02*
X-10620D01*
X-24823Y51468D02*
X-10620D01*
X-24915Y51368D02*
X-10620D01*
X-25015Y51268D02*
X-10620D01*
X-24658Y51668D02*
X-10620D01*
X-24737Y51568D02*
X-10620D01*
X-25372Y50968D02*
X-10620D01*
X-25516Y50868D02*
X-10620D01*
X-25677Y50768D02*
X-10620D01*
X-25124Y51168D02*
X-10620D01*
X-25242Y51068D02*
X-10620D01*
X-26343Y50468D02*
X-10620D01*
X-26712Y50368D02*
X-10620D01*
X-25861Y50668D02*
X-10620D01*
X-26077Y50568D02*
X-10620D01*
X-19724Y56668D02*
X-10620D01*
X-19731Y56768D02*
X-10620D01*
X-19720Y56568D02*
X-10620D01*
X-19754Y56968D02*
X-10620D01*
X-19741Y56868D02*
X-10620D01*
X-19724Y56268D02*
X-10620D01*
X-19731Y56168D02*
X-10620D01*
X-19741Y56068D02*
X-10620D01*
X-19718Y56468D02*
X-10620D01*
X-19720Y56368D02*
X-10620D01*
X-19754Y55968D02*
X-10620D01*
X-19770Y57068D02*
X-10620D01*
X-19770Y55868D02*
X-10620D01*
X-19789Y57168D02*
X-10620D01*
X-19811Y55668D02*
X-10620D01*
X-19836Y55568D02*
X-10620D01*
X-19789Y55768D02*
X-10620D01*
X-19931Y55268D02*
X-10620D01*
X-19969Y55168D02*
X-10620D01*
X-20011Y55068D02*
X-10620D01*
X-19864Y55468D02*
X-10620D01*
X-19896Y55368D02*
X-10620D01*
X-20159Y54768D02*
X-10620D01*
X-20217Y54668D02*
X-10620D01*
X-20280Y54568D02*
X-10620D01*
X-20057Y54968D02*
X-10620D01*
X-20106Y54868D02*
X-10620D01*
X-20497Y54268D02*
X-10620D01*
X-20581Y54168D02*
X-10620D01*
X-20672Y54068D02*
X-10620D01*
X-20347Y54468D02*
X-10620D01*
X-20419Y54368D02*
X-10620D01*
X-20770Y53968D02*
X-10620D01*
X-20877Y53868D02*
X-10620D01*
X-23000Y29658D02*
Y36000D01*
X-13000D01*
X-44997Y46768D02*
X-10620D01*
X-45108Y46668D02*
X-10620D01*
X-45220Y46568D02*
X-10620D01*
X-44773Y46968D02*
X-10620D01*
X-44885Y46868D02*
X-10620D01*
X-39362Y45168D02*
X-10620D01*
X-39654Y45268D02*
X-10620D01*
X-39132Y45068D02*
X-10620D01*
X-45332Y46468D02*
X-10620D01*
X-40101Y45368D02*
X-10620D01*
X-45668Y46168D02*
X-10620D01*
X-45780Y46068D02*
X-10620D01*
X-45892Y45968D02*
X-10620D01*
X-45444Y46368D02*
X-10620D01*
X-45556Y46268D02*
X-10620D01*
X-46168Y45668D02*
X-10620D01*
X-46257Y45568D02*
X-10620D01*
X-46347Y45468D02*
X-10620D01*
X-45989Y45868D02*
X-10620D01*
X-46079Y45768D02*
X-10620D01*
X-37674Y43768D02*
X-10620D01*
X-37739Y43868D02*
X-10620D01*
X-37614Y43668D02*
X-10620D01*
X-37885Y44068D02*
X-10620D01*
X-37809Y43968D02*
X-10620D01*
X-37414Y43268D02*
X-10620D01*
X-37458Y43368D02*
X-10620D01*
X-37374Y43168D02*
X-10620D01*
X-37558Y43568D02*
X-10620D01*
X-37506Y43468D02*
X-10620D01*
X-38486Y44668D02*
X-10620D01*
X-38620Y44768D02*
X-10620D01*
X-38363Y44568D02*
X-10620D01*
X-38938Y44968D02*
X-10620D01*
X-38770Y44868D02*
X-10620D01*
X-38054Y44268D02*
X-10620D01*
X-37966Y44168D02*
X-10620D01*
X-38252Y44468D02*
X-10620D01*
X-38149Y44368D02*
X-10620D01*
X-28080Y58568D02*
X-26019D01*
X-28184Y58525D02*
X-21454Y61313D01*
X-28287Y58468D02*
X-26091D01*
X-28468Y58368D02*
X-26158D01*
X-41304Y50068D02*
X-10620D01*
X-41416Y49968D02*
X-10620D01*
X-41528Y49868D02*
X-10620D01*
X-41080Y50268D02*
X-10620D01*
X-41192Y50168D02*
X-10620D01*
X-41863Y49568D02*
X-10620D01*
X-41975Y49468D02*
X-10620D01*
X-42087Y49368D02*
X-10620D01*
X-41640Y49768D02*
X-10620D01*
X-41751Y49668D02*
X-10620D01*
X-42423Y49068D02*
X-10620D01*
X-42535Y48968D02*
X-10620D01*
X-42199Y49268D02*
X-10620D01*
X-42311Y49168D02*
X-10620D01*
X-42870Y48668D02*
X-10620D01*
X-42982Y48568D02*
X-10620D01*
X-43094Y48468D02*
X-10620D01*
X-42647Y48868D02*
X-10620D01*
X-42759Y48768D02*
X-10620D01*
X-43430Y48168D02*
X-10620D01*
X-43542Y48068D02*
X-10620D01*
X-43654Y47968D02*
X-10620D01*
X-43206Y48368D02*
X-10620D01*
X-43318Y48268D02*
X-10620D01*
X-43990Y47668D02*
X-10620D01*
X-44101Y47568D02*
X-10620D01*
X-44213Y47468D02*
X-10620D01*
X-43766Y47868D02*
X-10620D01*
X-43878Y47768D02*
X-10620D01*
X-44549Y47168D02*
X-10620D01*
X-44661Y47068D02*
X-10620D01*
X-44325Y47368D02*
X-10620D01*
X-44437Y47268D02*
X-10620D01*
X-38039Y39568D02*
X-10369D01*
X-38132Y39468D02*
X-10323D01*
X-38234Y39368D02*
X-10272D01*
X-37872Y39768D02*
X-10448D01*
X-37952Y39668D02*
X-10410D01*
X-38597Y39068D02*
X-10091D01*
X-38744Y38968D02*
X-10019D01*
X-38909Y38868D02*
X-9940D01*
X-38344Y39268D02*
X-10217D01*
X-38464Y39168D02*
X-10157D01*
X-39599Y38568D02*
X-9661D01*
X-40004Y38468D02*
X-9561D01*
X-41865Y38368D02*
X-9461D01*
X-39097Y38768D02*
X-9854D01*
X-39320Y38668D02*
X-9761D01*
X-41767Y38068D02*
X-9161D01*
X-41741Y37968D02*
X-9061D01*
X-41829Y38268D02*
X-9361D01*
X-41797Y38168D02*
X-9261D01*
X-41643Y37268D02*
X-8361D01*
X-41648Y37368D02*
X-8461D01*
X-41640Y37168D02*
X-8261D01*
X-41667Y37568D02*
X-8661D01*
X-41656Y37468D02*
X-8561D01*
X-41650Y36868D02*
X-7961D01*
X-41659Y36768D02*
X-7861D01*
X-41671Y36668D02*
X-7761D01*
X-41641Y37068D02*
X-8161D01*
X-41644Y36968D02*
X-8061D01*
X-41681Y37668D02*
X-8761D01*
X-41686Y36568D02*
X-7661D01*
X-41704Y36468D02*
X-7561D01*
X-41718Y37868D02*
X-8961D01*
X-41698Y37768D02*
X-8861D01*
X-41776Y36168D02*
X-7261D01*
X-41806Y36068D02*
X-7161D01*
X-41725Y36368D02*
X-7461D01*
X-41748Y36268D02*
X-7361D01*
X-37144Y42068D02*
X-10620D01*
X-37150Y42168D02*
X-10620D01*
X-37141Y41968D02*
X-10620D01*
X-37170Y42368D02*
X-10620D01*
X-37158Y42268D02*
X-10620D01*
X-37148Y41668D02*
X-10620D01*
X-37157Y41568D02*
X-10620D01*
X-37168Y41468D02*
X-10620D01*
X-37140Y41868D02*
X-10620D01*
X-37143Y41768D02*
X-10620D01*
X-37247Y42768D02*
X-10620D01*
X-37274Y42868D02*
X-10620D01*
X-37223Y42668D02*
X-10620D01*
X-37337Y43068D02*
X-10620D01*
X-37304Y42968D02*
X-10620D01*
X-37182Y41368D02*
X-10620D01*
X-37199Y41268D02*
X-10620D01*
X-37202Y42568D02*
X-10620D01*
X-37185Y42468D02*
X-10620D01*
X-37269Y40968D02*
X-10620D01*
X-37299Y40868D02*
X-10620D01*
X-37331Y40768D02*
X-10620D01*
X-37220Y41168D02*
X-10620D01*
X-37243Y41068D02*
X-10620D01*
X-37451Y40468D02*
X-10605D01*
X-37498Y40368D02*
X-10593D01*
X-37549Y40268D02*
X-10578D01*
X-37368Y40668D02*
X-10618D01*
X-37407Y40568D02*
X-10613D01*
X-37664Y40068D02*
X-10537D01*
X-37728Y39968D02*
X-10511D01*
X-37797Y39868D02*
X-10481D01*
X-37604Y40168D02*
X-10559D01*
X-41839Y35968D02*
X-23000D01*
X-41961Y35668D02*
X-23000D01*
X-42009Y35568D02*
X-23000D01*
X-41877Y35868D02*
X-23000D01*
X-41917Y35768D02*
X-23000D01*
X-17500Y24768D02*
X-9000D01*
X-17500Y24868D02*
X-9000D01*
X-17500Y24668D02*
X-9000D01*
X-13000Y25268D02*
X-11000D01*
X-17500Y24968D02*
X-9000D01*
X-17500Y24268D02*
X-9000D01*
X-17500Y24368D02*
X-9000D01*
X-17500Y24168D02*
X-9000D01*
X-17500Y24568D02*
X-9000D01*
X-17500Y24468D02*
X-9000D01*
X-17516Y23868D02*
X-9000D01*
X-17528Y23768D02*
X-9000D01*
X-17544Y23668D02*
X-9000D01*
X-17502Y24068D02*
X-9000D01*
X-17507Y23968D02*
X-9000D01*
X-17585Y23468D02*
X-9000D01*
X-17612Y23368D02*
X-9000D01*
X-17642Y23268D02*
X-9000D01*
X-17563Y23568D02*
X-9000D01*
X-17675Y23168D02*
X-9014D01*
X-17713Y23068D02*
X-9114D01*
X-17755Y22968D02*
X-9214D01*
X-17802Y22868D02*
X-9314D01*
X-17852Y22768D02*
X-9414D01*
X-17908Y22668D02*
X-9514D01*
X-17969Y22568D02*
X-9614D01*
X-18036Y22468D02*
X-9714D01*
X-18108Y22368D02*
X-9814D01*
X-18187Y22268D02*
X-9914D01*
X-18274Y22168D02*
X-10014D01*
X-18368Y22068D02*
X-10114D01*
X-18468Y21968D02*
X-10214D01*
X-18568Y21868D02*
X-10314D01*
X-18668Y21768D02*
X-10414D01*
X-18768Y21668D02*
X-10514D01*
X-18868Y21568D02*
X-10614D01*
X-18968Y21468D02*
X-10714D01*
X-19068Y21368D02*
X-10814D01*
X-19168Y21268D02*
X-10914D01*
X-13000Y26968D02*
X-11000D01*
X-13000Y27268D02*
X-11000D01*
X-13000Y26768D02*
X-11000D01*
X-13000Y31968D02*
X-11000D01*
X-13000Y30268D02*
X-11000D01*
X-13000Y25468D02*
X-11000D01*
X-17500Y25000D02*
X-13000D01*
X-17500Y24179D02*
Y25000D01*
X-19268Y21168D02*
X-11014D01*
X-19368Y21068D02*
X-11114D01*
X-23500Y25422D02*
Y28000D01*
X-19416Y20968D02*
X-11214D01*
X-19435Y20868D02*
X-11314D01*
X-19405Y21032D02*
X-18385Y22052D01*
X-19458Y20768D02*
X-11414D01*
X-19483Y20668D02*
X-11514D01*
X-19512Y20568D02*
X-11614D01*
X-19545Y20468D02*
X-11714D01*
X-19580Y20368D02*
X-11814D01*
X-19619Y20268D02*
X-11914D01*
X-19662Y20168D02*
X-12014D01*
X-19708Y20068D02*
X-12114D01*
X-19758Y19968D02*
X-12214D01*
X-19813Y19868D02*
X-12314D01*
X-17780Y19510D02*
X-12673D01*
X-19871Y19768D02*
X-12414D01*
X-19935Y19668D02*
X-12514D01*
X-20003Y19568D02*
X-12614D01*
X-20076Y19468D02*
X-18278D01*
X-20155Y19368D02*
X-18691D01*
X-20241Y19268D02*
X-18960D01*
X-20333Y19168D02*
X-19170D01*
X-20433Y19068D02*
X-19347D01*
X-20541Y18968D02*
X-19499D01*
X-17279Y12768D02*
X8040D01*
X-17379Y12668D02*
X8140D01*
X-17479Y12568D02*
X8239D01*
X-17079Y12968D02*
X7839D01*
X-17179Y12868D02*
X7940D01*
X-17779Y12268D02*
X8540D01*
X-17879Y12168D02*
X8640D01*
X-17979Y12068D02*
X8740D01*
X-17579Y12468D02*
X8339D01*
X-17679Y12368D02*
X8439D01*
X-18279Y11768D02*
X9039D01*
X-18379Y11668D02*
X9140D01*
X-18479Y11568D02*
X9240D01*
X-18079Y11968D02*
X8839D01*
X-18179Y11868D02*
X8939D01*
X-18779Y11268D02*
X9539D01*
X-18879Y11168D02*
X9639D01*
X-18579Y11468D02*
X9340D01*
X-18679Y11368D02*
X9439D01*
X-19179Y10868D02*
X9940D01*
X-19279Y10768D02*
X10039D01*
X-19379Y10668D02*
X10139D01*
X-18979Y11068D02*
X9740D01*
X-19079Y10968D02*
X9840D01*
X-19679Y10368D02*
X10439D01*
X-19779Y10268D02*
X10539D01*
X-19879Y10168D02*
X10639D01*
X-19479Y10568D02*
X10239D01*
X-19579Y10468D02*
X10339D01*
X-20179Y9868D02*
X10940D01*
X-20279Y9768D02*
X11040D01*
X-20379Y9668D02*
X11140D01*
X-19979Y10068D02*
X10740D01*
X-20079Y9968D02*
X10840D01*
X-20679Y9368D02*
X11439D01*
X-20745Y9268D02*
X11539D01*
X-20479Y9568D02*
X11240D01*
X-20579Y9468D02*
X11339D01*
X-20659Y18868D02*
X-19634D01*
X-20789Y18768D02*
X-19755D01*
X-20933Y18668D02*
X-19864D01*
X-21094Y18568D02*
X-19964D01*
X-21277Y18468D02*
X-20064D01*
X-21492Y18368D02*
X-20164D01*
X-21757Y18268D02*
X-20264D01*
X-22124Y18168D02*
X-20364D01*
X-25000D02*
X-23596D01*
X-25000Y18068D02*
X-20464D01*
X-25000Y18368D02*
X-24228D01*
X-25000Y18268D02*
X-23963D01*
X-24976Y13556D02*
X-19908Y18625D01*
X-25000Y17968D02*
X-20564D01*
X-25000Y13550D02*
Y18820D01*
Y17868D02*
X-20664D01*
X-16537Y13510D02*
X-11430D01*
X-25000Y16868D02*
X-21664D01*
X-16579Y13468D02*
X7340D01*
X-25000Y16768D02*
X-21764D01*
X-25000Y16668D02*
X-21864D01*
X-16779Y13268D02*
X7539D01*
X-16879Y13168D02*
X7639D01*
X-16979Y13068D02*
X7739D01*
X-20734Y9313D02*
X-16537Y13510D01*
X-16679Y13368D02*
X7440D01*
X-25000Y17668D02*
X-20864D01*
X-25000Y17768D02*
X-20764D01*
X-25000Y17568D02*
X-20964D01*
X-25000Y17468D02*
X-21064D01*
X-25000Y17368D02*
X-21164D01*
X-25000Y17268D02*
X-21264D01*
X-25000Y17168D02*
X-21364D01*
X-25000Y17068D02*
X-21464D01*
X-25000Y16968D02*
X-21564D01*
X-33215Y34268D02*
X-23000D01*
X-33331Y34368D02*
X-23000D01*
X-33109Y34168D02*
X-23000D01*
X-33598Y34568D02*
X-23000D01*
X-33458Y34468D02*
X-23000D01*
X-32060Y31668D02*
X-23000D01*
X-32836Y33868D02*
X-23000D01*
X-32062Y31568D02*
X-23000D01*
X-33011Y34068D02*
X-23000D01*
X-32920Y33968D02*
X-23000D01*
X-35452Y35168D02*
X-23000D01*
X-42178Y35268D02*
X-23000D01*
X-34723Y35068D02*
X-23000D01*
X-42061Y35468D02*
X-23000D01*
X-42117Y35368D02*
X-23000D01*
X-33932Y34768D02*
X-23000D01*
X-33754Y34668D02*
X-23000D01*
X-34389Y34968D02*
X-23000D01*
X-34139Y34868D02*
X-23000D01*
X-32083Y31268D02*
X-23000D01*
X-32096Y31168D02*
X-23000D01*
X-32112Y31068D02*
X-23000D01*
X-32066Y31468D02*
X-23000D01*
X-32073Y31368D02*
X-23000D01*
X-32178Y30768D02*
X-23000D01*
X-32206Y30668D02*
X-23000D01*
X-32238Y30568D02*
X-23000D01*
X-32131Y30968D02*
X-23000D01*
X-32153Y30868D02*
X-23000D01*
X-32353Y30268D02*
X-23000D01*
X-32399Y30168D02*
X-23000D01*
X-32448Y30068D02*
X-23000D01*
X-32273Y30468D02*
X-23000D01*
X-32311Y30368D02*
X-23000D01*
X-32622Y29768D02*
X-23000D01*
X-32689Y29668D02*
X-23000D01*
X-32501Y29968D02*
X-23000D01*
X-32559Y29868D02*
X-23000D01*
X-32177Y32568D02*
X-23000D01*
X-32205Y32668D02*
X-23000D01*
X-32152Y32468D02*
X-23000D01*
X-32271Y32868D02*
X-23000D01*
X-32237Y32768D02*
X-23000D01*
X-32083Y32068D02*
X-23000D01*
X-32096Y32168D02*
X-23000D01*
X-32073Y31968D02*
X-23000D01*
X-32130Y32368D02*
X-23000D01*
X-32111Y32268D02*
X-23000D01*
X-32557Y33468D02*
X-23000D01*
X-32620Y33568D02*
X-23000D01*
X-32500Y33368D02*
X-23000D01*
X-32759Y33768D02*
X-23000D01*
X-32687Y33668D02*
X-23000D01*
X-32352Y33068D02*
X-23000D01*
X-32310Y32968D02*
X-23000D01*
X-32446Y33268D02*
X-23000D01*
X-32397Y33168D02*
X-23000D01*
X-32061Y31768D02*
X-23000D01*
X-32066Y31868D02*
X-23000D01*
X-32021Y28668D02*
X-23424D01*
X-31958Y28568D02*
X-23445D01*
X-31899Y28468D02*
X-23463D01*
X-31791Y28268D02*
X-23488D01*
X-31843Y28368D02*
X-23477D01*
X-31743Y28168D02*
X-23495D01*
X-31698Y28068D02*
X-23499D01*
X-31656Y27968D02*
X-23500D01*
X-32701Y29468D02*
X-23116D01*
X-32761Y29568D02*
X-23057D01*
X-32601Y29368D02*
X-23170D01*
X-32502Y29268D02*
X-23219D01*
X-32408Y29168D02*
X-23263D01*
X-32320Y29068D02*
X-23303D01*
X-32238Y28968D02*
X-23339D01*
X-32161Y28868D02*
X-23371D01*
X-32089Y28768D02*
X-23400D01*
X-31373Y26668D02*
X-23500D01*
X-31379Y26768D02*
X-23500D01*
X-31370Y26568D02*
X-23500D01*
X-31399Y26968D02*
X-23500D01*
X-31388Y26868D02*
X-23500D01*
X-31369Y26168D02*
X-23500D01*
X-31369Y26268D02*
X-23500D01*
X-31369Y26068D02*
X-23500D01*
X-31369Y26468D02*
X-23500D01*
X-31369Y26368D02*
X-23500D01*
X-31520Y27568D02*
X-23500D01*
X-31550Y27668D02*
X-23500D01*
X-31493Y27468D02*
X-23500D01*
X-31618Y27868D02*
X-23500D01*
X-31582Y27768D02*
X-23500D01*
X-31429Y27168D02*
X-23500D01*
X-31412Y27068D02*
X-23500D01*
X-31469Y27368D02*
X-23500D01*
X-31447Y27268D02*
X-23500D01*
X-25000Y15868D02*
X-22664D01*
X-25000Y15968D02*
X-22564D01*
X-25000Y15768D02*
X-22764D01*
X-25000Y15668D02*
X-22864D01*
X-25000Y15568D02*
X-22964D01*
X-25000Y15368D02*
X-23164D01*
X-25000Y15468D02*
X-23064D01*
X-25000Y15268D02*
X-23264D01*
X-25000Y15168D02*
X-23364D01*
X-25000Y15068D02*
X-23464D01*
X-25000Y16568D02*
X-21964D01*
X-31369Y25768D02*
X-23500D01*
X-25000Y16468D02*
X-22064D01*
X-31369Y25968D02*
X-23500D01*
X-31369Y25868D02*
X-23500D01*
X-25000Y16368D02*
X-22164D01*
X-25000Y16268D02*
X-22264D01*
X-25000Y16168D02*
X-22364D01*
X-25000Y16068D02*
X-22464D01*
X-31369Y24668D02*
X-24525D01*
X-31369Y24768D02*
X-24326D01*
X-31369Y24568D02*
X-24698D01*
X-31369Y24468D02*
X-24851D01*
X-31369Y24368D02*
X-24989D01*
X-31369Y24268D02*
X-25113D01*
X-31369Y24168D02*
X-25227D01*
X-31369Y24068D02*
X-25331D01*
X-31311Y23968D02*
X-25428D01*
X-31369Y25568D02*
X-23500D01*
X-31369Y25668D02*
X-23500D01*
X-31369Y25468D02*
X-23500D01*
X-31369Y25368D02*
X-23554D01*
X-31369Y25268D02*
X-23654D01*
X-31369Y25168D02*
X-23753D01*
X-31369Y25068D02*
X-23853D01*
X-31369Y24968D02*
X-23953D01*
X-31369Y24868D02*
X-24086D01*
X-25000Y14868D02*
X-23664D01*
X-25000Y14968D02*
X-23564D01*
X-25000Y14768D02*
X-23764D01*
X-30343Y23000D02*
X-26063D01*
X-25000Y14668D02*
X-23864D01*
X-25000Y14468D02*
X-24064D01*
X-25000Y14568D02*
X-23964D01*
X-25000Y14368D02*
X-24164D01*
X-31111Y23768D02*
X-25600D01*
X-31211Y23868D02*
X-25517D01*
X-31011Y23668D02*
X-25676D01*
X-30911Y23568D02*
X-25747D01*
X-30811Y23468D02*
X-25813D01*
X-30711Y23368D02*
X-25875D01*
X-30611Y23268D02*
X-25931D01*
X-30511Y23168D02*
X-25984D01*
X-30411Y23068D02*
X-26032D01*
X-28649Y58268D02*
X-26221D01*
X-28830Y58168D02*
X-26278D01*
X-29011Y58068D02*
X-26332D01*
X-29192Y57968D02*
X-26381D01*
X-29373Y57868D02*
X-26427D01*
X-29553Y57768D02*
X-26468D01*
X-29734Y57668D02*
X-26507D01*
X-29915Y57568D02*
X-26541D01*
X-30096Y57468D02*
X-26573D01*
X-30277Y57368D02*
X-26601D01*
X-30458Y57268D02*
X-27844D01*
X-30639Y57168D02*
X-28362D01*
X-30820Y57068D02*
X-28671D01*
X-31001Y56968D02*
X-28910D01*
X-31182Y56868D02*
X-29109D01*
X-31363Y56768D02*
X-29282D01*
X-34560Y55001D02*
X-28184Y58525D01*
X-31544Y56668D02*
X-29434D01*
X-31725Y56568D02*
X-29571D01*
X-31906Y56468D02*
X-29696D01*
X-32087Y56368D02*
X-29809D01*
X-32268Y56268D02*
X-29914D01*
X-32448Y56168D02*
X-30010D01*
X-32629Y56068D02*
X-30099D01*
X-32810Y55968D02*
X-30181D01*
X-32991Y55868D02*
X-30258D01*
X-33172Y55768D02*
X-30329D01*
X-39116Y51768D02*
X-30296D01*
X-33353Y55668D02*
X-30395D01*
X-38976Y51868D02*
X-30364D01*
X-39539Y51468D02*
X-30058D01*
X-39680Y51368D02*
X-29966D01*
X-39821Y51268D02*
X-29866D01*
X-39257Y51668D02*
X-30223D01*
X-39398Y51568D02*
X-30143D01*
X-40244Y50968D02*
X-29509D01*
X-40385Y50868D02*
X-29365D01*
X-39962Y51168D02*
X-29757D01*
X-40103Y51068D02*
X-29639D01*
X-33534Y55568D02*
X-30456D01*
X-33715Y55468D02*
X-30513D01*
X-33896Y55368D02*
X-30565D01*
X-34077Y55268D02*
X-30614D01*
X-34258Y55168D02*
X-30658D01*
X-34439Y55068D02*
X-30699D01*
X-34606Y54968D02*
X-30737D01*
X-34747Y54868D02*
X-30771D01*
X-34888Y54768D02*
X-30801D01*
X-35029Y54668D02*
X-30829D01*
X-35170Y54568D02*
X-30853D01*
X-35311Y54468D02*
X-30874D01*
X-35452Y54368D02*
X-30893D01*
X-35593Y54268D02*
X-30908D01*
X-35734Y54168D02*
X-30920D01*
X-35875Y54068D02*
X-30930D01*
X-36016Y53968D02*
X-30936D01*
X-40500Y50786D02*
X-34560Y55001D01*
X-36157Y53868D02*
X-30940D01*
X-36580Y53568D02*
X-30933D01*
X-36720Y53468D02*
X-30925D01*
X-36862Y53368D02*
X-30915D01*
X-36298Y53768D02*
X-30940D01*
X-36439Y53668D02*
X-30938D01*
X-37284Y53068D02*
X-30865D01*
X-37425Y52968D02*
X-30842D01*
X-37566Y52868D02*
X-30816D01*
X-37002Y53268D02*
X-30901D01*
X-37143Y53168D02*
X-30884D01*
X-37989Y52568D02*
X-30720D01*
X-38130Y52468D02*
X-30681D01*
X-38271Y52368D02*
X-30638D01*
X-37707Y52768D02*
X-30787D01*
X-37848Y52668D02*
X-30755D01*
X-38694Y52068D02*
X-30487D01*
X-38835Y51968D02*
X-30428D01*
X-38412Y52268D02*
X-30591D01*
X-38553Y52168D02*
X-30541D01*
X-40744Y50568D02*
X-28804D01*
X-40856Y50468D02*
X-28538D01*
X-40968Y50368D02*
X-28169D01*
X-40521Y50768D02*
X-29204D01*
X-40633Y50668D02*
X-29020D01*
X-42243Y35168D02*
X-35668D01*
X-42314Y35068D02*
X-36397D01*
X-42390Y34968D02*
X-36731D01*
X-42471Y34868D02*
X-36981D01*
X-42560Y34768D02*
X-37188D01*
X-42655Y34668D02*
X-37366D01*
X-42758Y34568D02*
X-37522D01*
X-42871Y34468D02*
X-37662D01*
X-42994Y34368D02*
X-37789D01*
X-43129Y34268D02*
X-37905D01*
X-43280Y34168D02*
X-38011D01*
X-43450Y34068D02*
X-38109D01*
X-43645Y33968D02*
X-38200D01*
X-43878Y33868D02*
X-38284D01*
X-44176Y33768D02*
X-38361D01*
X-44644Y33668D02*
X-38433D01*
X-46175Y33568D02*
X-38500D01*
X-46210Y33468D02*
X-38563D01*
X-46248Y33368D02*
X-38620D01*
X-46290Y33268D02*
X-38674D01*
X-46336Y33168D02*
X-38723D01*
X-46386Y33068D02*
X-38768D01*
X-46440Y32968D02*
X-38810D01*
X-46498Y32868D02*
X-38849D01*
X-46561Y32768D02*
X-38883D01*
X-46628Y32668D02*
X-38915D01*
X-46701Y32568D02*
X-38943D01*
X-45932Y45932D02*
X-40500Y50786D01*
X-46436Y45368D02*
X-41179D01*
X-46526Y45268D02*
X-41626D01*
X-46615Y45168D02*
X-41918D01*
X-46704Y45068D02*
X-42148D01*
X-46794Y44968D02*
X-42342D01*
X-46883Y44868D02*
X-42510D01*
X-46972Y44768D02*
X-42660D01*
X-47062Y44668D02*
X-42794D01*
X-47151Y44568D02*
X-42917D01*
X-47240Y44468D02*
X-43028D01*
X-47330Y44368D02*
X-43131D01*
X-47419Y44268D02*
X-43226D01*
X-47509Y44168D02*
X-43314D01*
X-47598Y44068D02*
X-43395D01*
X-47687Y43968D02*
X-43471D01*
X-47777Y43868D02*
X-43541D01*
X-47866Y43768D02*
X-43606D01*
X-47955Y43668D02*
X-43666D01*
X-46779Y32468D02*
X-38968D01*
X-46864Y32368D02*
X-38990D01*
X-46955Y32268D02*
X-39009D01*
X-47053Y32168D02*
X-39024D01*
X-47161Y32068D02*
X-39037D01*
X-47277Y31968D02*
X-39047D01*
X-47405Y31868D02*
X-39054D01*
X-47547Y31768D02*
X-39059D01*
X-48045Y43568D02*
X-43722D01*
X-48134Y43468D02*
X-43774D01*
X-48223Y43368D02*
X-43822D01*
X-48313Y43268D02*
X-43866D01*
X-48402Y43168D02*
X-43906D01*
X-48095Y31468D02*
X-39054D01*
X-48351Y31368D02*
X-39047D01*
X-47705Y31668D02*
X-39060D01*
X-47885Y31568D02*
X-39058D01*
X-48492Y43068D02*
X-43943D01*
X-48581Y42968D02*
X-43976D01*
X-48670Y42868D02*
X-44006D01*
X-48760Y42768D02*
X-44033D01*
X-48849Y42668D02*
X-44057D01*
X-48938Y42568D02*
X-44078D01*
X-49028Y42468D02*
X-44095D01*
X-49117Y42368D02*
X-44110D01*
X-49207Y42268D02*
X-44122D01*
X-49296Y42168D02*
X-44130D01*
X-49385Y42068D02*
X-44136D01*
X-49653Y41768D02*
X-44137D01*
X-49743Y41668D02*
X-44132D01*
X-49475Y41968D02*
X-44139D01*
X-49564Y41868D02*
X-44140D01*
X-49921Y41468D02*
X-44112D01*
X-50011Y41368D02*
X-44098D01*
X-50786Y40500D02*
X-45932Y45932D01*
X-49832Y41568D02*
X-44123D01*
X-50279Y41068D02*
X-44037D01*
X-50368Y40968D02*
X-44011D01*
X-50458Y40868D02*
X-43981D01*
X-50100Y41268D02*
X-44081D01*
X-50189Y41168D02*
X-44061D01*
X-50547Y40768D02*
X-43949D01*
X-50636Y40668D02*
X-43912D01*
X-50726Y40568D02*
X-45810D01*
X-50809Y40468D02*
X-46201D01*
X-50880Y40368D02*
X-46475D01*
X-50951Y40268D02*
X-46696D01*
X-51022Y40168D02*
X-46883D01*
X-51093Y40068D02*
X-47046D01*
X-51164Y39968D02*
X-47192D01*
X-51235Y39868D02*
X-47324D01*
X-51306Y39768D02*
X-47443D01*
X-51377Y39668D02*
X-47553D01*
X-51448Y39568D02*
X-47654D01*
X-51519Y39468D02*
X-47747D01*
X-51590Y39368D02*
X-47833D01*
X-51660Y39268D02*
X-47913D01*
X-51732Y39168D02*
X-47987D01*
X-51802Y39068D02*
X-48056D01*
X-51873Y38968D02*
X-48120D01*
X-51944Y38868D02*
X-48179D01*
X-52015Y38768D02*
X-48234D01*
X-52086Y38668D02*
X-48285D01*
X-49259Y38168D02*
X-48483D01*
X-52157Y38568D02*
X-48332D01*
X-52228Y38468D02*
X-48375D01*
X-52299Y38368D02*
X-48415D01*
X-52370Y38268D02*
X-48451D01*
X-52441Y38168D02*
X-49730D01*
X-52512Y38068D02*
X-50357D01*
X-52583Y37968D02*
X-50683D01*
X-52654Y37868D02*
X-50930D01*
X-52725Y37768D02*
X-51135D01*
X-52796Y37668D02*
X-51311D01*
X-52867Y37568D02*
X-51466D01*
X-52938Y37468D02*
X-51605D01*
X-53009Y37368D02*
X-51732D01*
X-53080Y37268D02*
X-51847D01*
X-53151Y37168D02*
X-51952D01*
X-53222Y37068D02*
X-52050D01*
X-53292Y36968D02*
X-52140D01*
X-53363Y36868D02*
X-52223D01*
X-53434Y36768D02*
X-52301D01*
X-53505Y36668D02*
X-52373D01*
X-53576Y36568D02*
X-52439D01*
X-53647Y36468D02*
X-52501D01*
X-53718Y36368D02*
X-52559D01*
X-53789Y36268D02*
X-52612D01*
X-53860Y36168D02*
X-52661D01*
X-53931Y36068D02*
X-52706D01*
X-54002Y35968D02*
X-52748D01*
X-54073Y35868D02*
X-52786D01*
X-52473Y31668D02*
X-51284D01*
X-52693Y31768D02*
X-51443D01*
X-52286Y31568D02*
X-51104D01*
X-53355Y31968D02*
X-51712D01*
X-52966Y31868D02*
X-51584D01*
X-51845Y31268D02*
X-50292D01*
X-48697D02*
X-39037D01*
X-52122Y31468D02*
X-50894D01*
X-51977Y31368D02*
X-50638D01*
X-55001Y34560D02*
X-50786Y40500D01*
X-56157Y32468D02*
X-52210D01*
X-56213Y32368D02*
X-52126D01*
X-56047Y32668D02*
X-52361D01*
X-56102Y32568D02*
X-52289D01*
X-56378Y32068D02*
X-51829D01*
X-56268Y32268D02*
X-52035D01*
X-56323Y32168D02*
X-51936D01*
X-50837Y29968D02*
X-38619D01*
X-50884Y30068D02*
X-38672D01*
X-50794Y29868D02*
X-38561D01*
X-50990Y30268D02*
X-38767D01*
X-50935Y30168D02*
X-38721D01*
X-50686Y29568D02*
X-38359D01*
X-50719Y29668D02*
X-38431D01*
X-50657Y29468D02*
X-38418D01*
X-50755Y29768D02*
X-38498D01*
X-50631Y29368D02*
X-38513D01*
X-51422Y30868D02*
X-38967D01*
X-51515Y30968D02*
X-38989D01*
X-51336Y30768D02*
X-38942D01*
X-51726Y31168D02*
X-39024D01*
X-51616Y31068D02*
X-39008D01*
X-51113Y30468D02*
X-38847D01*
X-51049Y30368D02*
X-38809D01*
X-51256Y30668D02*
X-38914D01*
X-51182Y30568D02*
X-38882D01*
X-54144Y35768D02*
X-52820D01*
X-54215Y35668D02*
X-52851D01*
X-54286Y35568D02*
X-52879D01*
X-54357Y35468D02*
X-52904D01*
X-54428Y35368D02*
X-52926D01*
X-54499Y35268D02*
X-52944D01*
X-54570Y35168D02*
X-52960D01*
X-54641Y35068D02*
X-52973D01*
X-54711Y34968D02*
X-52983D01*
X-54783Y34868D02*
X-52990D01*
X-54995Y34568D02*
X-52993D01*
X-55052Y34468D02*
X-52989D01*
X-55107Y34368D02*
X-52981D01*
X-54854Y34768D02*
X-52994D01*
X-54924Y34668D02*
X-52995D01*
X-55218Y34168D02*
X-52958D01*
X-55273Y34068D02*
X-52942D01*
X-58525Y28184D02*
X-55001Y34560D01*
X-55163Y34268D02*
X-52971D01*
X-55439Y33768D02*
X-52875D01*
X-55494Y33668D02*
X-52846D01*
X-55549Y33568D02*
X-52815D01*
X-55328Y33968D02*
X-52922D01*
X-55384Y33868D02*
X-52900D01*
X-55715Y33268D02*
X-52699D01*
X-55770Y33168D02*
X-52653D01*
X-55826Y33068D02*
X-52604D01*
X-55605Y33468D02*
X-52780D01*
X-55660Y33368D02*
X-52741D01*
X-55881Y32968D02*
X-52550D01*
X-55936Y32868D02*
X-52492D01*
X-55992Y32768D02*
X-52429D01*
X-56434Y31968D02*
X-54704D01*
X-56489Y31868D02*
X-55094D01*
X-56544Y31768D02*
X-55367D01*
X-56599Y31668D02*
X-55587D01*
X-56655Y31568D02*
X-55774D01*
X-56710Y31468D02*
X-55938D01*
X-50546Y28868D02*
X-38902D01*
X-50557Y28968D02*
X-38834D01*
X-50538Y28768D02*
X-38965D01*
X-50533Y28668D02*
X-39025D01*
X-50530Y28568D02*
X-39081D01*
X-50531Y28468D02*
X-39133D01*
X-50534Y28368D02*
X-39181D01*
X-50540Y28268D02*
X-39227D01*
X-50549Y28168D02*
X-39269D01*
X-50588Y29168D02*
X-38684D01*
X-50608Y29268D02*
X-38601D01*
X-50571Y29068D02*
X-38761D01*
X-50561Y28068D02*
X-39308D01*
X-50576Y27968D02*
X-39343D01*
X-50594Y27868D02*
X-39376D01*
X-50615Y27768D02*
X-39406D01*
X-50639Y27668D02*
X-39433D01*
X-50666Y27568D02*
X-39458D01*
X-50696Y27468D02*
X-39479D01*
X-50730Y27368D02*
X-39499D01*
X-50767Y27268D02*
X-39515D01*
X-50807Y27168D02*
X-39529D01*
X-50852Y27068D02*
X-39540D01*
X-50900Y26968D02*
X-39549D01*
X-51280Y26368D02*
X-39549D01*
X-51362Y26268D02*
X-39540D01*
X-51451Y26168D02*
X-39528D01*
X-50952Y26868D02*
X-39555D01*
X-51205Y26468D02*
X-39555D01*
X-51762Y25868D02*
X-39479D01*
X-51885Y25768D02*
X-39457D01*
X-52020Y25668D02*
X-39433D01*
X-51546Y26068D02*
X-39515D01*
X-51649Y25968D02*
X-39498D01*
X-52537Y25368D02*
X-39369D01*
X-52771Y25268D02*
X-39369D01*
X-52171Y25568D02*
X-39405D01*
X-52341Y25468D02*
X-39375D01*
X-58423Y28368D02*
X-57526D01*
X-58479Y28268D02*
X-57520D01*
X-58532Y28168D02*
X-57511D01*
X-58313Y28568D02*
X-57530D01*
X-58368Y28468D02*
X-57529D01*
X-58656Y27868D02*
X-57466D01*
X-58697Y27768D02*
X-57445D01*
X-58739Y27668D02*
X-57421D01*
X-58573Y28068D02*
X-57499D01*
X-58615Y27968D02*
X-57484D01*
X-58863Y27368D02*
X-57330D01*
X-58905Y27268D02*
X-57293D01*
X-58946Y27168D02*
X-57253D01*
X-58780Y27568D02*
X-57394D01*
X-58822Y27468D02*
X-57364D01*
X-59070Y26868D02*
X-57108D01*
X-59112Y26768D02*
X-57052D01*
X-58987Y27068D02*
X-57208D01*
X-59029Y26968D02*
X-57160D01*
X-51008Y26768D02*
X-39559D01*
X-51069Y26668D02*
X-39560D01*
X-51134Y26568D02*
X-39559D01*
X-59153Y26668D02*
X-56991D01*
X-59194Y26568D02*
X-56926D01*
X-59319Y26268D02*
X-56698D01*
X-59360Y26168D02*
X-56610D01*
X-59401Y26068D02*
X-56514D01*
X-59236Y26468D02*
X-56856D01*
X-59277Y26368D02*
X-56780D01*
X-59526Y25768D02*
X-56175D01*
X-59567Y25668D02*
X-56040D01*
X-59609Y25568D02*
X-55889D01*
X-59443Y25968D02*
X-56411D01*
X-59484Y25868D02*
X-56298D01*
X-59733Y25268D02*
X-55289D01*
X-59774Y25168D02*
X-54991D01*
X-59650Y25468D02*
X-55719D01*
X-59692Y25368D02*
X-55523D01*
X-36000Y13000D02*
X-26175D01*
X-39739Y12068D02*
X-27064D01*
X-39722Y11968D02*
X-27127D01*
X-31369Y24026D02*
Y26479D01*
Y24026D02*
X-30343Y23000D01*
X-39696Y11768D02*
X-27239D01*
X-39708Y11868D02*
X-27185D01*
X-39688Y11668D02*
X-27288D01*
X-39683Y11568D02*
X-27334D01*
X-39680Y11468D02*
X-27376D01*
X-39989Y12868D02*
X-26347D01*
X-40036Y12968D02*
X-26219D01*
X-39946Y12768D02*
X-26464D01*
X-39906Y12668D02*
X-26571D01*
X-39870Y12568D02*
X-26670D01*
X-39838Y12468D02*
X-26761D01*
X-39808Y12368D02*
X-26845D01*
X-39782Y12268D02*
X-26924D01*
X-39759Y12168D02*
X-26996D01*
X-39681Y11368D02*
X-27415D01*
X-39684Y11268D02*
X-27450D01*
X-39690Y11168D02*
X-27482D01*
X-39699Y11068D02*
X-27510D01*
X-36000Y11000D02*
X-27528D01*
X-39743Y10768D02*
X-36000D01*
X-39764Y10668D02*
X-36000D01*
X-39788Y10568D02*
X-36000D01*
X-39711Y10968D02*
X-36000D01*
X-39725Y10868D02*
X-36000D01*
X-39878Y10268D02*
X-36000D01*
X-39915Y10168D02*
X-36000D01*
X-39956Y10068D02*
X-36000D01*
X-39815Y10468D02*
X-36000D01*
X-39845Y10368D02*
X-36000D01*
X-40100Y9768D02*
X-36000D01*
X-40352Y9368D02*
X-36000D01*
X-40000Y9968D02*
X-36000D01*
X-40048Y9868D02*
X-36000D01*
X-39369Y22369D02*
Y25448D01*
X-53069Y25168D02*
X-39369D01*
X-53541Y25068D02*
X-39369D01*
X-36000Y13000D02*
Y17343D01*
X-42129Y14768D02*
X-36000D01*
X-41852Y14668D02*
X-36000D01*
X-38192Y19535D02*
X-36000Y17343D01*
X-42526Y14868D02*
X-36000D01*
X-59899Y24868D02*
X-39369D01*
X-59940Y24768D02*
X-39369D01*
X-59981Y24668D02*
X-39369D01*
X-59816Y25068D02*
X-54519D01*
X-59857Y24968D02*
X-39369D01*
X-60106Y24368D02*
X-39369D01*
X-60147Y24268D02*
X-39369D01*
X-60023Y24568D02*
X-39369D01*
X-60064Y24468D02*
X-39369D01*
X-40266Y13368D02*
X-36000D01*
X-40335Y13468D02*
X-36000D01*
X-40202Y13268D02*
X-36000D01*
X-40489Y13668D02*
X-36000D01*
X-40409Y13568D02*
X-36000D01*
X-40156Y9668D02*
X-36000D01*
X-40216Y9568D02*
X-36000D01*
X-40281Y9468D02*
X-36000D01*
X-40142Y13168D02*
X-36000D01*
X-40087Y13068D02*
X-36000D01*
X-41132Y14268D02*
X-36000D01*
X-41279Y14368D02*
X-36000D01*
X-41000Y14168D02*
X-36000D01*
X-41631Y14568D02*
X-36000D01*
X-41443Y14468D02*
X-36000D01*
X-40669Y13868D02*
X-36000D01*
X-40576Y13768D02*
X-36000D01*
X-40880Y14068D02*
X-36000D01*
X-40770Y13968D02*
X-36000D01*
X-61654Y20268D02*
X-38773D01*
X-61683Y20168D02*
X-38709D01*
X-61712Y20068D02*
X-38641D01*
X-61597Y20468D02*
X-38888D01*
X-61626Y20368D02*
X-38832D01*
X-61799Y19768D02*
X-38408D01*
X-61827Y19668D02*
X-38319D01*
X-61856Y19568D02*
X-38225D01*
X-61741Y19968D02*
X-38568D01*
X-61770Y19868D02*
X-38491D01*
X-61943Y19268D02*
X-37925D01*
X-61971Y19168D02*
X-37825D01*
X-62000Y19068D02*
X-37725D01*
X-61885Y19468D02*
X-38125D01*
X-61914Y19368D02*
X-38025D01*
X-62087Y18768D02*
X-37425D01*
X-62115Y18668D02*
X-37325D01*
X-62029Y18968D02*
X-37625D01*
X-62058Y18868D02*
X-37525D01*
X-62202Y18368D02*
X-37025D01*
X-62231Y18268D02*
X-36925D01*
X-62259Y18168D02*
X-36825D01*
X-62144Y18568D02*
X-37225D01*
X-62173Y18468D02*
X-37125D01*
X-62346Y17868D02*
X-36525D01*
X-62375Y17768D02*
X-36425D01*
X-62403Y17668D02*
X-36325D01*
X-62288Y18068D02*
X-36725D01*
X-62317Y17968D02*
X-36625D01*
X-62490Y17368D02*
X-36025D01*
X-62519Y17268D02*
X-36000D01*
X-62547Y17168D02*
X-36000D01*
X-62432Y17568D02*
X-36225D01*
X-62461Y17468D02*
X-36125D01*
X-62634Y16868D02*
X-36000D01*
X-62663Y16768D02*
X-36000D01*
X-62576Y17068D02*
X-36000D01*
X-62605Y16968D02*
X-36000D01*
X-60271Y23968D02*
X-39369D01*
X-60313Y23868D02*
X-39369D01*
X-60354Y23768D02*
X-39369D01*
X-60188Y24168D02*
X-39369D01*
X-60230Y24068D02*
X-39369D01*
X-60479Y23468D02*
X-39369D01*
X-60520Y23368D02*
X-39369D01*
X-60561Y23268D02*
X-39369D01*
X-60396Y23668D02*
X-39369D01*
X-60437Y23568D02*
X-39369D01*
X-60686Y22968D02*
X-39369D01*
X-60727Y22868D02*
X-39369D01*
X-60768Y22768D02*
X-39369D01*
X-60603Y23168D02*
X-39369D01*
X-60644Y23068D02*
X-39369D01*
X-60851Y22568D02*
X-39369D01*
X-60893Y22468D02*
X-39369D01*
X-61313Y21454D02*
X-58525Y28184D01*
X-60810Y22668D02*
X-39369D01*
X-61017Y22168D02*
X-39364D01*
X-61058Y22068D02*
X-39357D01*
X-61100Y21968D02*
X-39349D01*
X-60934Y22368D02*
X-39369D01*
X-60975Y22268D02*
X-39367D01*
X-61224Y21668D02*
X-39307D01*
X-61266Y21568D02*
X-39288D01*
X-61307Y21468D02*
X-39266D01*
X-61141Y21868D02*
X-39337D01*
X-61183Y21768D02*
X-39323D01*
X-61395Y21168D02*
X-39184D01*
X-61424Y21068D02*
X-39151D01*
X-61453Y20968D02*
X-39116D01*
X-61337Y21368D02*
X-39241D01*
X-61366Y21268D02*
X-39214D01*
X-61539Y20668D02*
X-38989D01*
X-61568Y20568D02*
X-38940D01*
X-61481Y20868D02*
X-39077D01*
X-61510Y20768D02*
X-39035D01*
X-62749Y16468D02*
X-36000D01*
X-62778Y16368D02*
X-36000D01*
X-62807Y16268D02*
X-36000D01*
X-62691Y16668D02*
X-36000D01*
X-62720Y16568D02*
X-36000D01*
X-62893Y15968D02*
X-36000D01*
X-62922Y15868D02*
X-36000D01*
X-62951Y15768D02*
X-36000D01*
X-62836Y16168D02*
X-36000D01*
X-62864Y16068D02*
X-36000D01*
X-63037Y15468D02*
X-36000D01*
X-63066Y15368D02*
X-36000D01*
X-63095Y15268D02*
X-36000D01*
X-62980Y15668D02*
X-36000D01*
X-63008Y15568D02*
X-36000D01*
X-63152Y15068D02*
X-36000D01*
X-63181Y14968D02*
X-36000D01*
X-63124Y15168D02*
X-36000D01*
X-63210Y14868D02*
X-43834D01*
X-63239Y14768D02*
X-44231D01*
X-63268Y14668D02*
X-44508D01*
X-63296Y14568D02*
X-44729D01*
X-63325Y14468D02*
X-44917D01*
X-63344Y14368D02*
X-45082D01*
X-63361Y14268D02*
X-45228D01*
X-63378Y14168D02*
X-45360D01*
X-63395Y14068D02*
X-45480D01*
X-63412Y13968D02*
X-45590D01*
X-63429Y13868D02*
X-45691D01*
X-63446Y13768D02*
X-45784D01*
X-63463Y13668D02*
X-45871D01*
X-63480Y13568D02*
X-45951D01*
X-63497Y13468D02*
X-46025D01*
X-63514Y13368D02*
X-46094D01*
X-64194Y9368D02*
X-46008D01*
X-64211Y9268D02*
X-45933D01*
X-64159Y9568D02*
X-46144D01*
X-64177Y9468D02*
X-46079D01*
X-63531Y13268D02*
X-46158D01*
X-63548Y13168D02*
X-46218D01*
X-63565Y13068D02*
X-46273D01*
X-63329Y14455D02*
X-61313Y21454D01*
X-63582Y12968D02*
X-46324D01*
X-63599Y12868D02*
X-46371D01*
X-63616Y12768D02*
X-46414D01*
X-63633Y12668D02*
X-46454D01*
X-63650Y12568D02*
X-46490D01*
X-63667Y12468D02*
X-46522D01*
X-63684Y12368D02*
X-46552D01*
X-63701Y12268D02*
X-46578D01*
X-63718Y12168D02*
X-46601D01*
X-63735Y12068D02*
X-46621D01*
X-63752Y11968D02*
X-46638D01*
X-63769Y11868D02*
X-46652D01*
X-63786Y11768D02*
X-46664D01*
X-63803Y11668D02*
X-46672D01*
X-63820Y11568D02*
X-46677D01*
X-63871Y11268D02*
X-46676D01*
X-63888Y11168D02*
X-46670D01*
X-63905Y11068D02*
X-46661D01*
X-63837Y11468D02*
X-46680D01*
X-63854Y11368D02*
X-46680D01*
X-63956Y10768D02*
X-46617D01*
X-63973Y10668D02*
X-46596D01*
X-63990Y10568D02*
X-46572D01*
X-63922Y10968D02*
X-46649D01*
X-63939Y10868D02*
X-46635D01*
X-64041Y10268D02*
X-46482D01*
X-64058Y10168D02*
X-46445D01*
X-64075Y10068D02*
X-46404D01*
X-64007Y10468D02*
X-46545D01*
X-64024Y10368D02*
X-46515D01*
X-64125Y9768D02*
X-46260D01*
X-64142Y9668D02*
X-46204D01*
X-64092Y9968D02*
X-46360D01*
X-64109Y9868D02*
X-46312D01*
X-21893Y7468D02*
X24289D01*
X-22019Y7368D02*
X24389D01*
X-22158Y7268D02*
X24489D01*
X-21672Y7668D02*
X13719D01*
X-21778Y7568D02*
X24189D01*
X-22072Y5868D02*
X25000D01*
X-22172Y5968D02*
X25000D01*
X-21972Y5768D02*
X25000D01*
X-22313Y7168D02*
X24589D01*
X-22272Y6068D02*
X25000D01*
X-22940Y6868D02*
X24889D01*
X-22972Y6768D02*
X24989D01*
X-22872Y6668D02*
X25000D01*
X-22489Y7068D02*
X24689D01*
X-22694Y6968D02*
X24789D01*
X-22472Y6268D02*
X25000D01*
X-22572Y6368D02*
X25000D01*
X-22372Y6168D02*
X25000D01*
X-22772Y6568D02*
X25000D01*
X-22672Y6468D02*
X25000D01*
X-20750Y4668D02*
X14488D01*
X-20921Y4768D02*
X14679D01*
X-20597Y4568D02*
X14322D01*
X-20458Y4468D02*
X14174D01*
X-20330Y4368D02*
X14040D01*
X-20103Y4168D02*
X13808D01*
X-20212Y4268D02*
X13919D01*
X-20002Y4068D02*
X13707D01*
X-19907Y3968D02*
X13612D01*
X-19819Y3868D02*
X13525D01*
X-21572Y5368D02*
X25000D01*
X-21672Y5468D02*
X25000D01*
X-21472Y5268D02*
X25000D01*
X-21872Y5668D02*
X25000D01*
X-21772Y5568D02*
X25000D01*
X-21372Y5168D02*
X25000D01*
X-21272Y5068D02*
X15609D01*
X-21172Y4968D02*
X15189D01*
X-21072Y4868D02*
X14905D01*
X-20839Y8968D02*
X11839D01*
X-20877Y8868D02*
X11940D01*
X-20919Y8768D02*
X12040D01*
X-20773Y9168D02*
X11639D01*
X-20805Y9068D02*
X11739D01*
X-19659Y3668D02*
X13370D01*
X-19736Y3768D02*
X13445D01*
X-19586Y3568D02*
X13300D01*
X-20964Y8668D02*
X12140D01*
X-19518Y3468D02*
X13235D01*
X-21123Y8368D02*
X12443D01*
X-21185Y8268D02*
X12556D01*
X-21252Y8168D02*
X12683D01*
X-21013Y8568D02*
X12240D01*
X-21066Y8468D02*
X12340D01*
X-21484Y7868D02*
X13176D01*
X-21575Y7768D02*
X13408D01*
X-21324Y8068D02*
X12825D01*
X-21401Y7968D02*
X12987D01*
X-19014Y2368D02*
X12788D01*
X-19044Y2468D02*
X12812D01*
X-18987Y2268D02*
X12768D01*
X-18962Y2168D02*
X12751D01*
X-18941Y2068D02*
X12736D01*
X-18905Y1868D02*
X12716D01*
X-18922Y1968D02*
X12725D01*
X-18891Y1768D02*
X12711D01*
X-18880Y1668D02*
X12708D01*
X-18871Y1568D02*
X12708D01*
X-19395Y3268D02*
X13120D01*
X-19455Y3368D02*
X13176D01*
X-19339Y3168D02*
X13069D01*
X-19287Y3068D02*
X13021D01*
X-19239Y2968D02*
X12978D01*
X-19193Y2868D02*
X12938D01*
X-19151Y2768D02*
X12901D01*
X-19112Y2668D02*
X12868D01*
X-19077Y2568D02*
X12838D01*
X-20275Y-1932D02*
X64850D01*
X-20375Y-2032D02*
X64844D01*
X-20475Y-2132D02*
X64838D01*
X-20575Y-2232D02*
X64833D01*
X-20675Y-2332D02*
X64827D01*
X-20775Y-2432D02*
X64821D01*
X-20875Y-2532D02*
X64816D01*
X-20975Y-2632D02*
X64810D01*
X-21075Y-2732D02*
X64805D01*
X-21174Y-2832D02*
X64799D01*
X-21274Y-2932D02*
X64793D01*
X-21374Y-3032D02*
X64788D01*
X-21474Y-3132D02*
X64782D01*
X-21574Y-3232D02*
X64777D01*
X-21674Y-3332D02*
X64771D01*
X-21774Y-3432D02*
X64765D01*
X-21874Y-3532D02*
X64760D01*
X-21974Y-3632D02*
X64754D01*
X-22074Y-3732D02*
X64748D01*
X-22174Y-3832D02*
X64743D01*
X-22274Y-3932D02*
X64737D01*
X-22374Y-4032D02*
X64731D01*
X-22475Y-4132D02*
X64726D01*
X-22575Y-4232D02*
X64720D01*
X-22675Y-4332D02*
X64715D01*
X-22775Y-4432D02*
X64709D01*
X-22875Y-4532D02*
X64703D01*
X-22975Y-4632D02*
X64698D01*
X-23075Y-4732D02*
X64692D01*
X-23175Y-4832D02*
X64687D01*
X-23275Y-4932D02*
X64681D01*
X-23375Y-5032D02*
X64675D01*
X-23475Y-5132D02*
X64670D01*
X-23575Y-5232D02*
X64664D01*
X-23674Y-5332D02*
X64658D01*
X-23774Y-5432D02*
X64653D01*
X-23874Y-5532D02*
X64647D01*
X-23974Y-5632D02*
X64642D01*
X-18860Y1168D02*
X12737D01*
X-18860Y1268D02*
X12725D01*
X-18861Y1068D02*
X12751D01*
X-18865Y1468D02*
X12711D01*
X-18861Y1368D02*
X12717D01*
X-18877Y768D02*
X12813D01*
X-18888Y668D02*
X12839D01*
X-18901Y568D02*
X12869D01*
X-18864Y968D02*
X12769D01*
X-18869Y868D02*
X12789D01*
X-18956Y268D02*
X12979D01*
X-18980Y168D02*
X13023D01*
X-19006Y68D02*
X13070D01*
X-18917Y468D02*
X12902D01*
X-18935Y368D02*
X12939D01*
X-19102Y-232D02*
X13238D01*
X-19140Y-332D02*
X13302D01*
X-19035Y-32D02*
X13122D01*
X-19067Y-132D02*
X13177D01*
X-19274Y-632D02*
X13528D01*
X-19325Y-732D02*
X13615D01*
X-19380Y-832D02*
X13710D01*
X-19182Y-432D02*
X13372D01*
X-19226Y-532D02*
X13447D01*
X-19567Y-1132D02*
X14045D01*
X-19639Y-1232D02*
X14178D01*
X-19715Y-1332D02*
X14327D01*
X-19438Y-932D02*
X13812D01*
X-19501Y-1032D02*
X13923D01*
X-19976Y-1632D02*
X14913D01*
X-20075Y-1732D02*
X15199D01*
X-20175Y-1832D02*
X15628D01*
X-19796Y-1432D02*
X14494D01*
X-19883Y-1532D02*
X14685D01*
X-24074Y-5732D02*
X64636D01*
X-24174Y-5832D02*
X64630D01*
X-24274Y-5932D02*
X64625D01*
X-24374Y-6032D02*
X64619D01*
X-24474Y-6132D02*
X64614D01*
X-24574Y-6232D02*
X64608D01*
X-24674Y-6332D02*
X64602D01*
X-24774Y-6432D02*
X64597D01*
X-24874Y-6532D02*
X64591D01*
X-24975Y-6632D02*
X64585D01*
X-25000Y-7732D02*
X35044D01*
X-25000Y-7832D02*
X34920D01*
X-25000Y-7932D02*
X34806D01*
X-25000Y-8032D02*
X34702D01*
X-25000Y-6832D02*
X64574D01*
X-25000Y-6732D02*
X64580D01*
X-25000Y-6932D02*
X64569D01*
X-25000Y-7032D02*
X36759D01*
X-25000Y-7132D02*
X36250D01*
X-25000Y-7332D02*
X35704D01*
X-25000Y-7232D02*
X35942D01*
X-25000Y-7432D02*
X35505D01*
X-25000Y-7532D02*
X35333D01*
X-25000Y-7632D02*
X35180D01*
X-25000Y-8232D02*
X34517D01*
X-25000Y-8132D02*
X34606D01*
X-25000Y-8332D02*
X34434D01*
X-25000Y-8432D02*
X34358D01*
X-25000Y-8532D02*
X34287D01*
X-63469Y-13632D02*
X35600D01*
X-63486Y-13532D02*
X35416D01*
X-63452Y-13732D02*
X35817D01*
X-63520Y-13332D02*
X35110D01*
X-63503Y-13432D02*
X35254D01*
X-63622Y-12732D02*
X34475D01*
X-63639Y-12632D02*
X34395D01*
X-63605Y-12832D02*
X34560D01*
X-63673Y-12432D02*
X34253D01*
X-63656Y-12532D02*
X34322D01*
X-63554Y-13132D02*
X34862D01*
X-63537Y-13232D02*
X34980D01*
X-63588Y-12932D02*
X34653D01*
X-63571Y-13032D02*
X34753D01*
X-25000Y-9632D02*
X33788D01*
X-25000Y-9532D02*
X33815D01*
X-25000Y-9732D02*
X33763D01*
X-25000Y-9832D02*
X33742D01*
X-25000Y-9932D02*
X33724D01*
X-25000Y-10132D02*
X33697D01*
X-25000Y-10032D02*
X33709D01*
X-25000Y-10232D02*
X33687D01*
X-25000Y-10332D02*
X33681D01*
X-25000Y-10432D02*
X33677D01*
X-25000Y-8732D02*
X34160D01*
X-25000Y-8632D02*
X34221D01*
X-25000Y-8832D02*
X34103D01*
X-25000Y-8932D02*
X34051D01*
X-25000Y-9032D02*
X34003D01*
X-25000Y-9132D02*
X33958D01*
X-25000Y-9232D02*
X33917D01*
X-25000Y-9332D02*
X33880D01*
X-25000Y-9432D02*
X33846D01*
X-25000Y-10832D02*
X33692D01*
X-25000Y-10732D02*
X33684D01*
X-25000Y-10932D02*
X33702D01*
X-25000Y-10532D02*
X33677D01*
X-25000Y-10632D02*
X33679D01*
X-63707Y-12232D02*
X34131D01*
X-63724Y-12132D02*
X34077D01*
X-63690Y-12332D02*
X34190D01*
X-63758Y-11932D02*
X33980D01*
X-63741Y-12032D02*
X34026D01*
X-63860Y-11332D02*
X33775D01*
X-63877Y-11232D02*
X33753D01*
X-63843Y-11432D02*
X33801D01*
X-63911Y-11032D02*
X33716D01*
X-63894Y-11132D02*
X33733D01*
X-63792Y-11732D02*
X33898D01*
X-63775Y-11832D02*
X33937D01*
X-63826Y-11532D02*
X33830D01*
X-63809Y-11632D02*
X33862D01*
X-63163Y-15032D02*
X63163D01*
X-63192Y-14932D02*
X63192D01*
X-63134Y-15132D02*
X63134D01*
X-63106Y-15232D02*
X63106D01*
X-63077Y-15332D02*
X63077D01*
X-63019Y-15532D02*
X63019D01*
X-63048Y-15432D02*
X63048D01*
X-62990Y-15632D02*
X62990D01*
X-62961Y-15732D02*
X62961D01*
X-62933Y-15832D02*
X62933D01*
X-63384Y-14132D02*
X63384D01*
X-63401Y-14032D02*
X63401D01*
X-63367Y-14232D02*
X63367D01*
X-63350Y-14332D02*
X63350D01*
X-63333Y-14432D02*
X63333D01*
X-63307Y-14532D02*
X63307D01*
X-63278Y-14632D02*
X63278D01*
X-63250Y-14732D02*
X63250D01*
X-63221Y-14832D02*
X63221D01*
X-62616Y-16932D02*
X62616D01*
X-62645Y-16832D02*
X62645D01*
X-62587Y-17032D02*
X62587D01*
X-62558Y-17132D02*
X62558D01*
X-62529Y-17232D02*
X62529D01*
X-62472Y-17432D02*
X62472D01*
X-62501Y-17332D02*
X62501D01*
X-62443Y-17532D02*
X62443D01*
X-62414Y-17632D02*
X62414D01*
X-62385Y-17732D02*
X62385D01*
X-62875Y-16032D02*
X62875D01*
X-62904Y-15932D02*
X62904D01*
X-62846Y-16132D02*
X62846D01*
X-62817Y-16232D02*
X62817D01*
X-62789Y-16332D02*
X62789D01*
X-62760Y-16432D02*
X62760D01*
X-62731Y-16532D02*
X62731D01*
X-62702Y-16632D02*
X62702D01*
X-62673Y-16732D02*
X62673D01*
X-62126Y-18632D02*
X-2334D01*
X-62155Y-18532D02*
X-2199D01*
X-62097Y-18732D02*
X-2458D01*
X-62068Y-18832D02*
X-2570D01*
X-62039Y-18932D02*
X-2674D01*
X-61982Y-19132D02*
X-2858D01*
X-62011Y-19032D02*
X-2769D01*
X-61953Y-19232D02*
X-2940D01*
X-61924Y-19332D02*
X-3016D01*
X-61895Y-19432D02*
X-3086D01*
X-63418Y-13932D02*
X36456D01*
X-63435Y-13832D02*
X36084D01*
X-62356Y-17832D02*
X62356D01*
X-62328Y-17932D02*
X-670D01*
X-62299Y-18032D02*
X-1147D01*
X-62270Y-18132D02*
X-1447D01*
X-62241Y-18232D02*
X-1681D01*
X-62212Y-18332D02*
X-1877D01*
X-62184Y-18432D02*
X-2048D01*
X-61579Y-20532D02*
X-3582D01*
X-61607Y-20432D02*
X-3555D01*
X-61550Y-20632D02*
X-3606D01*
X-61521Y-20732D02*
X-3627D01*
X-61492Y-20832D02*
X-3645D01*
X-61434Y-21032D02*
X-3672D01*
X-61463Y-20932D02*
X-3660D01*
X-61406Y-21132D02*
X-3681D01*
X-61377Y-21232D02*
X-3687D01*
X-61348Y-21332D02*
X-3691D01*
X-61838Y-19632D02*
X-3212D01*
X-61867Y-19532D02*
X-3152D01*
X-61809Y-19732D02*
X-3269D01*
X-61780Y-19832D02*
X-3321D01*
X-61751Y-19932D02*
X-3369D01*
X-61723Y-20032D02*
X-3413D01*
X-61694Y-20132D02*
X-3454D01*
X-61665Y-20232D02*
X-3491D01*
X-61636Y-20332D02*
X-3525D01*
X-28254Y-52231D02*
X32065D01*
X-28260Y-52332D02*
X32192D01*
X-28269Y-52432D02*
X32333D01*
X-28250Y-52031D02*
X31842D01*
X-28251Y-52132D02*
X31949D01*
X-28313Y-52731D02*
X32876D01*
X-28334Y-52832D02*
X33128D01*
X-28358Y-52931D02*
X33465D01*
X-28281Y-52531D02*
X32490D01*
X-28295Y-52632D02*
X32668D01*
X-28385Y-53032D02*
X37336D01*
X-28415Y-53131D02*
X37195D01*
X-28448Y-53232D02*
X37054D01*
X-28485Y-53331D02*
X36913D01*
X-28526Y-53432D02*
X36772D01*
X-28570Y-53531D02*
X36631D01*
X-28618Y-53632D02*
X36490D01*
X-28670Y-53731D02*
X36350D01*
X-28726Y-53832D02*
X36209D01*
X-28786Y-53931D02*
X36068D01*
X-28851Y-54032D02*
X35927D01*
X-28921Y-54131D02*
X35786D01*
X-28997Y-54232D02*
X35645D01*
X-29079Y-54331D02*
X35504D01*
X-29167Y-54432D02*
X35363D01*
X-29262Y-54531D02*
X35222D01*
X-29365Y-54632D02*
X35081D01*
X-29477Y-54731D02*
X34940D01*
X-29600Y-54832D02*
X34799D01*
X-29735Y-54932D02*
X34658D01*
X-29885Y-55031D02*
X34505D01*
X-30054Y-55132D02*
X34324D01*
X-30248Y-55231D02*
X34144D01*
X-30480Y-55332D02*
X33963D01*
X-30775Y-55431D02*
X33782D01*
X-31232Y-55532D02*
X33601D01*
X-33239Y-55732D02*
X33239D01*
X-33058Y-55831D02*
X33058D01*
X-32877Y-55932D02*
X32877D01*
X-29702Y-49232D02*
X30803D01*
X-29849Y-49131D02*
X30813D01*
X-29570Y-49331D02*
X30796D01*
X-29450Y-49432D02*
X30791D01*
X-29341Y-49531D02*
X30790D01*
X-28979Y-49932D02*
X30813D01*
X-29060Y-49832D02*
X30803D01*
X-28905Y-50031D02*
X30826D01*
X-29239Y-49632D02*
X30791D01*
X-29146Y-49731D02*
X30796D01*
X-33330Y-48232D02*
X31040D01*
X-33333Y-48131D02*
X31082D01*
X-33330Y-48331D02*
X31002D01*
X-33333Y-48432D02*
X30967D01*
X-31097Y-48632D02*
X30907D01*
X-30699Y-48731D02*
X30882D01*
X-30423Y-48832D02*
X30860D01*
X-30201Y-48931D02*
X30842D01*
X-30013Y-49032D02*
X30826D01*
X-28329Y-51332D02*
X31289D01*
X-28352Y-51231D02*
X31231D01*
X-28309Y-51431D02*
X31352D01*
X-28408Y-51031D02*
X31128D01*
X-28378Y-51132D02*
X31178D01*
X-28258Y-51831D02*
X31653D01*
X-28266Y-51732D02*
X31569D01*
X-28253Y-51932D02*
X31744D01*
X-28292Y-51532D02*
X31419D01*
X-28278Y-51631D02*
X31491D01*
X-28657Y-50431D02*
X30908D01*
X-28712Y-50332D02*
X30883D01*
X-28606Y-50532D02*
X30936D01*
X-28836Y-50132D02*
X30842D01*
X-28772Y-50231D02*
X30861D01*
X-28477Y-50831D02*
X31041D01*
X-28440Y-50932D02*
X31083D01*
X-28559Y-50631D02*
X30968D01*
X-28516Y-50732D02*
X31003D01*
X-30887Y-57031D02*
X30887D01*
X-31068Y-56932D02*
X31068D01*
X-30706Y-57132D02*
X30706D01*
X-30525Y-57231D02*
X30525D01*
X-30344Y-57332D02*
X30344D01*
X-29982Y-57531D02*
X29982D01*
X-30163Y-57432D02*
X30163D01*
X-29801Y-57632D02*
X29801D01*
X-29620Y-57731D02*
X29620D01*
X-29439Y-57832D02*
X29439D01*
X-32515Y-56132D02*
X32515D01*
X-32696Y-56031D02*
X32696D01*
X-32334Y-56231D02*
X32334D01*
X-32153Y-56332D02*
X32153D01*
X-31972Y-56431D02*
X31972D01*
X-31791Y-56532D02*
X31791D01*
X-31610Y-56631D02*
X31610D01*
X-31430Y-56732D02*
X31430D01*
X-31249Y-56831D02*
X31249D01*
X-27203Y-58931D02*
X27203D01*
X-27445Y-58832D02*
X27445D01*
X-26962Y-59032D02*
X26962D01*
X-26720Y-59131D02*
X26720D01*
X-26479Y-59232D02*
X26479D01*
X-25996Y-59432D02*
X25996D01*
X-26237Y-59331D02*
X26237D01*
X-25755Y-59531D02*
X25755D01*
X-25513Y-59632D02*
X25513D01*
X-25272Y-59731D02*
X25272D01*
X-29077Y-58032D02*
X29077D01*
X-29258Y-57931D02*
X29258D01*
X-28896Y-58131D02*
X28896D01*
X-28716Y-58232D02*
X28716D01*
X-28535Y-58331D02*
X28535D01*
X-28354Y-58432D02*
X28354D01*
X-28169Y-58531D02*
X28169D01*
X-27927Y-58632D02*
X27927D01*
X-27686Y-58731D02*
X27686D01*
X-22616Y-60831D02*
X22616D01*
X-22858Y-60732D02*
X22857D01*
X-22375Y-60932D02*
X22375D01*
X-22133Y-61031D02*
X22133D01*
X-21892Y-61132D02*
X21892D01*
X-21389Y-61332D02*
X21389D01*
X-21651Y-61231D02*
X21650D01*
X-21042Y-61431D02*
X21042D01*
X-20695Y-61532D02*
X20695D01*
X-20348Y-61631D02*
X20348D01*
X-24789Y-59932D02*
X24789D01*
X-25030Y-59832D02*
X25030D01*
X-24548Y-60031D02*
X24548D01*
X-24306Y-60132D02*
X24306D01*
X-24065Y-60231D02*
X24065D01*
X-23823Y-60332D02*
X23823D01*
X-23582Y-60431D02*
X23582D01*
X-23340Y-60532D02*
X23340D01*
X-23099Y-60631D02*
X23099D01*
X-16530Y-62731D02*
X16530D01*
X-16877Y-62632D02*
X16877D01*
X-16183Y-62832D02*
X16183D01*
X-15835Y-62931D02*
X15836D01*
X-15488Y-63032D02*
X15489D01*
X-14794Y-63232D02*
X14794D01*
X-15141Y-63131D02*
X15141D01*
X-14442Y-63331D02*
X14442D01*
X-13853Y-63432D02*
X13853D01*
X-13265Y-63531D02*
X13265D01*
X-19654Y-61831D02*
X19654D01*
X-20001Y-61732D02*
X20001D01*
X-19307Y-61932D02*
X19307D01*
X-18959Y-62031D02*
X18959D01*
X-18612Y-62132D02*
X18612D01*
X-18265Y-62231D02*
X18265D01*
X-17918Y-62332D02*
X17918D01*
X-17571Y-62432D02*
X17571D01*
X-17224Y-62531D02*
X17224D01*
X-60287Y-23932D02*
X-2607D01*
X-60328Y-23832D02*
X-2707D01*
X-60245Y-24032D02*
X-2497D01*
X-60411Y-23632D02*
X-2887D01*
X-60369Y-23732D02*
X-2801D01*
X-60079Y-24432D02*
X-1938D01*
X-60121Y-24332D02*
X-2101D01*
X-60038Y-24532D02*
X-1752D01*
X-60204Y-24132D02*
X-2378D01*
X-60162Y-24232D02*
X-2247D01*
X-60659Y-23032D02*
X-3287D01*
X-60701Y-22932D02*
X-3338D01*
X-60618Y-23132D02*
X-3232D01*
X-60784Y-22732D02*
X-3428D01*
X-60742Y-22832D02*
X-3385D01*
X-60494Y-23432D02*
X-3040D01*
X-60452Y-23532D02*
X-2966D01*
X-60577Y-23232D02*
X-3173D01*
X-60535Y-23332D02*
X-3109D01*
X-42311Y-39432D02*
X-3225D01*
X-42385Y-39532D02*
X-3125D01*
X-42464Y-39632D02*
X-3025D01*
X-42179Y-39232D02*
X-3425D01*
X-42243Y-39332D02*
X-3325D01*
X-42742Y-39931D02*
X-2725D01*
X-42851Y-40031D02*
X-2625D01*
X-42969Y-40132D02*
X-2525D01*
X-42550Y-39732D02*
X-2925D01*
X-42642Y-39832D02*
X-2825D01*
X-59914Y-24832D02*
X-874D01*
X-59955Y-24732D02*
X-1260D01*
X-59872Y-24931D02*
X17412D01*
X-59997Y-24632D02*
X-1532D01*
X-43099Y-40231D02*
X-2425D01*
X-43589Y-40532D02*
X-2125D01*
X-43806Y-40631D02*
X-2025D01*
X-43244Y-40332D02*
X-2325D01*
X-43405Y-40431D02*
X-2225D01*
X-60866Y-22532D02*
X-3503D01*
X-60908Y-22432D02*
X-3535D01*
X-60825Y-22632D02*
X-3467D01*
X-60949Y-22332D02*
X-3565D01*
X-41732Y-36732D02*
X-5925D01*
X-41677Y-37132D02*
X-5525D01*
X-41686Y-37032D02*
X-5625D01*
X-41671Y-37232D02*
X-5425D01*
X-41714Y-36832D02*
X-5825D01*
X-41699Y-36932D02*
X-5725D01*
X-61198Y-21732D02*
X-3675D01*
X-61239Y-21632D02*
X-3684D01*
X-61156Y-21832D02*
X-3664D01*
X-61319Y-21432D02*
X-3691D01*
X-61281Y-21532D02*
X-3689D01*
X-61032Y-22132D02*
X-3614D01*
X-60991Y-22232D02*
X-3591D01*
X-61115Y-21932D02*
X-3650D01*
X-61074Y-22032D02*
X-3634D01*
X-41668Y-37531D02*
X-5125D01*
X-41673Y-37631D02*
X-5025D01*
X-41681Y-37731D02*
X-4925D01*
X-41667Y-37332D02*
X-5325D01*
X-41666Y-37431D02*
X-5225D01*
X-41722Y-38031D02*
X-4625D01*
X-41742Y-38131D02*
X-4525D01*
X-41765Y-38231D02*
X-4425D01*
X-41692Y-37831D02*
X-4825D01*
X-41706Y-37931D02*
X-4725D01*
X-41852Y-38531D02*
X-4125D01*
X-41887Y-38631D02*
X-4025D01*
X-41927Y-38732D02*
X-3925D01*
X-41791Y-38331D02*
X-4325D01*
X-41820Y-38431D02*
X-4225D01*
X-42066Y-39032D02*
X-3625D01*
X-42121Y-39132D02*
X-3525D01*
X-41969Y-38832D02*
X-3825D01*
X-42016Y-38932D02*
X-3725D01*
X-48167Y-43432D02*
X48167D01*
X-48256Y-43331D02*
X44218D01*
X-48078Y-43531D02*
X48078D01*
X-48435Y-43131D02*
X43608D01*
X-48346Y-43232D02*
X43867D01*
X-47899Y-43731D02*
X47899D01*
X-47988Y-43632D02*
X47988D01*
X-47810Y-43832D02*
X47810D01*
X-47720Y-43931D02*
X47720D01*
X-47631Y-44032D02*
X47631D01*
X-48971Y-42531D02*
X42670D01*
X-49061Y-42432D02*
X42562D01*
X-48882Y-42632D02*
X42787D01*
X-49239Y-42231D02*
X42372D01*
X-49150Y-42332D02*
X42463D01*
X-48614Y-42931D02*
X43217D01*
X-48524Y-43032D02*
X43397D01*
X-48793Y-42731D02*
X42915D01*
X-48703Y-42832D02*
X43058D01*
X-35306Y-45132D02*
X46648D01*
X-35533Y-45031D02*
X46737D01*
X-35115Y-45231D02*
X46558D01*
X-34948Y-45332D02*
X46469D01*
X-34799Y-45431D02*
X46380D01*
X-34545Y-45631D02*
X46201D01*
X-34666Y-45532D02*
X46290D01*
X-34434Y-45732D02*
X46112D01*
X-34331Y-45831D02*
X46022D01*
X-34237Y-45932D02*
X45933D01*
X-47452Y-44232D02*
X47452D01*
X-47541Y-44131D02*
X47541D01*
X-47363Y-44331D02*
X47363D01*
X-47273Y-44432D02*
X47273D01*
X-47184Y-44531D02*
X47184D01*
X-47095Y-44632D02*
X47095D01*
X-47005Y-44731D02*
X47005D01*
X-36245Y-44832D02*
X46916D01*
X-35819Y-44932D02*
X46827D01*
X-49507Y-41932D02*
X-48D01*
X-49597Y-41831D02*
X-340D01*
X-49418Y-42031D02*
X363D01*
X-44072Y-40732D02*
X-1925D01*
X-44444Y-40831D02*
X-1825D01*
X-34150Y-46031D02*
X34188D01*
X-49329Y-42132D02*
X42287D01*
X-34069Y-46132D02*
X33453D01*
X-33994Y-46231D02*
X33120D01*
X-33924Y-46332D02*
X32869D01*
X-50133Y-41231D02*
X-1389D01*
X-50222Y-41132D02*
X-1509D01*
X-50044Y-41332D02*
X-1257D01*
X-50401Y-40932D02*
X-1725D01*
X-50312Y-41031D02*
X-1621D01*
X-49776Y-41631D02*
X-778D01*
X-49686Y-41732D02*
X-577D01*
X-49954Y-41431D02*
X-1114D01*
X-49865Y-41532D02*
X-955D01*
X-33435Y-47432D02*
X31489D01*
X-33462Y-47332D02*
X31567D01*
X-33412Y-47531D02*
X31417D01*
X-33391Y-47632D02*
X31350D01*
X-33374Y-47731D02*
X31287D01*
X-33348Y-47931D02*
X31176D01*
X-33359Y-47832D02*
X31230D01*
X-33420Y-55631D02*
X33420D01*
X-33339Y-48032D02*
X31127D01*
X-33339Y-48531D02*
X30935D01*
X-33799Y-46532D02*
X32485D01*
X-33859Y-46431D02*
X32662D01*
X-33744Y-46631D02*
X32328D01*
X-33692Y-46732D02*
X32188D01*
X-33645Y-46831D02*
X32061D01*
X-33601Y-46932D02*
X31945D01*
X-33561Y-47031D02*
X31839D01*
X-33525Y-47132D02*
X31741D01*
X-33491Y-47231D02*
X31651D01*
X-23038Y6835D02*
X-21031Y4827D01*
X-25000Y-6657D02*
X-20037Y-1694D01*
X-30657Y-1000D02*
X-29154Y503D01*
X-36000Y-1000D02*
X-30657D01*
X-36000Y1000D02*
X-30936D01*
X-64489Y-7632D02*
X-36000D01*
X-64523Y-7432D02*
X-36000D01*
X-64506Y-7532D02*
X-36000D01*
X-64421Y-8032D02*
X-36000D01*
X-64438Y-7932D02*
X-36000D01*
X-64404Y-8132D02*
X-36000D01*
X-64472Y-7732D02*
X-36000D01*
X-64455Y-7832D02*
X-36000D01*
X-64183Y-9432D02*
X-36000D01*
X-64200Y-9332D02*
X-36000D01*
X-64166Y-9532D02*
X-36000D01*
X-64234Y-9132D02*
X-36000D01*
X-64217Y-9232D02*
X-36000D01*
X-64098Y-9932D02*
X-36000D01*
X-64115Y-9832D02*
X-36000D01*
X-64081Y-10032D02*
X-36000D01*
X-64149Y-9632D02*
X-36000D01*
X-64132Y-9732D02*
X-36000D01*
X-64336Y-8532D02*
X-36000D01*
X-64353Y-8432D02*
X-36000D01*
X-64319Y-8632D02*
X-36000D01*
X-64387Y-8232D02*
X-36000D01*
X-64370Y-8332D02*
X-36000D01*
X-64268Y-8932D02*
X-36000D01*
X-64251Y-9032D02*
X-36000D01*
X-64302Y-8732D02*
X-36000D01*
X-64285Y-8832D02*
X-36000D01*
X-40597Y9068D02*
X-36000D01*
X-40692Y8968D02*
X-36000D01*
X-40795Y8868D02*
X-36000D01*
X-40427Y9268D02*
X-36000D01*
X-40509Y9168D02*
X-36000D01*
Y1000D02*
Y11000D01*
X-41165Y8568D02*
X-36000D01*
X-41315Y8468D02*
X-36000D01*
X-40907Y8768D02*
X-36000D01*
X-41030Y8668D02*
X-36000D01*
X-64261Y8968D02*
X-45668D01*
X-64278Y8868D02*
X-45565D01*
X-64295Y8768D02*
X-45453D01*
X-64227Y9168D02*
X-45851D01*
X-64244Y9068D02*
X-45763D01*
X-64346Y8468D02*
X-45045D01*
X-64312Y8668D02*
X-45330D01*
X-64329Y8568D02*
X-45195D01*
X-41679Y8268D02*
X-36000D01*
X-41910Y8168D02*
X-36000D01*
X-42206Y8068D02*
X-36000D01*
X-64363Y8368D02*
X-44876D01*
X-41484D02*
X-36000D01*
X-64030Y-10332D02*
X-36000D01*
X-64047Y-10232D02*
X-36000D01*
X-64013Y-10432D02*
X-36000D01*
X-42663Y7968D02*
X-36000D01*
X-64064Y-10132D02*
X-36000D01*
X-64414Y8068D02*
X-44154D01*
X-64431Y7968D02*
X-43697D01*
X-64448Y7868D02*
X-36000D01*
X-64380Y8268D02*
X-44681D01*
X-64397Y8168D02*
X-44450D01*
X-64499Y7568D02*
X-36000D01*
X-64516Y7468D02*
X-36000D01*
X-64465Y7768D02*
X-36000D01*
X-64482Y7668D02*
X-36000D01*
X-59334Y-26232D02*
X-11000D01*
X-59375Y-26131D02*
X-11000D01*
X-59292Y-26332D02*
X-11000D01*
X-59458Y-25931D02*
X-11000D01*
X-59417Y-26031D02*
X-11000D01*
X-59127Y-26732D02*
X-11000D01*
X-59168Y-26632D02*
X-11000D01*
X-59085Y-26832D02*
X-11000D01*
X-59251Y-26432D02*
X-11000D01*
X-59210Y-26532D02*
X-11000D01*
X-59707Y-25331D02*
X-11000D01*
X-59748Y-25231D02*
X-11000D01*
X-59665Y-25431D02*
X-11000D01*
X-59831Y-25031D02*
X-11000D01*
X-59790Y-25131D02*
X-11000D01*
X-59541Y-25731D02*
X-11000D01*
X-59500Y-25831D02*
X-11000D01*
X-59624Y-25531D02*
X-11000D01*
X-59582Y-25631D02*
X-11000D01*
X-47208Y-29132D02*
X-11000D01*
X-47326Y-29032D02*
X-11000D01*
X-47099Y-29232D02*
X-11000D01*
X-47598Y-28832D02*
X-11000D01*
X-47455Y-28932D02*
X-11000D01*
X-46744Y-29632D02*
X-11000D01*
X-46823Y-29532D02*
X-11000D01*
X-46671Y-29732D02*
X-11000D01*
X-47000Y-29332D02*
X-11000D01*
X-46908Y-29432D02*
X-11000D01*
X-58499Y-28231D02*
X-11000D01*
X-58547Y-28131D02*
X-11000D01*
X-48779Y-28331D02*
X-11000D01*
X-58630Y-27931D02*
X-11000D01*
X-58588Y-28031D02*
X-11000D01*
X-47941Y-28631D02*
X-11000D01*
X-47758Y-28732D02*
X-11000D01*
X-48418Y-28431D02*
X-11000D01*
X-48155Y-28531D02*
X-11000D01*
X-25000Y-11000D02*
Y-6657D01*
X-58961Y-27132D02*
X-11000D01*
X-58920Y-27232D02*
X-11000D01*
X-36000Y-11000D02*
Y-1000D01*
Y-11000D02*
X-25000D01*
X-58754Y-27631D02*
X-11000D01*
X-58795Y-27531D02*
X-11000D01*
X-58713Y-27731D02*
X-11000D01*
X-58878Y-27332D02*
X-11000D01*
X-58837Y-27431D02*
X-11000D01*
X-63945Y-10832D02*
X-36000D01*
X-63962Y-10732D02*
X-36000D01*
X-63928Y-10932D02*
X-36000D01*
X-63996Y-10532D02*
X-36000D01*
X-63979Y-10632D02*
X-36000D01*
X-59044Y-26932D02*
X-11000D01*
X-59002Y-27032D02*
X-11000D01*
X-63329Y-14455D02*
X-61313Y-21454D01*
X-58525Y-28184D01*
X-58001Y-29132D02*
X-51852D01*
X-58057Y-29032D02*
X-51734D01*
X-57946Y-29232D02*
X-51961D01*
X-57891Y-29332D02*
X-52060D01*
X-57836Y-29432D02*
X-52152D01*
X-57780Y-29532D02*
X-52237D01*
X-57725Y-29632D02*
X-52316D01*
X-57670Y-29732D02*
X-52389D01*
X-57615Y-29832D02*
X-52457D01*
X-58444Y-28331D02*
X-50281D01*
X-58671Y-27831D02*
X-11000D01*
X-58388Y-28431D02*
X-50642D01*
X-58333Y-28531D02*
X-50905D01*
X-58278Y-28631D02*
X-51119D01*
X-58223Y-28732D02*
X-51302D01*
X-58167Y-28832D02*
X-51462D01*
X-58525Y-28184D02*
X-55001Y-34560D01*
X-58112Y-28932D02*
X-51605D01*
X-64758Y3568D02*
X-36000D01*
X-64763Y3468D02*
X-36000D01*
X-64769Y3368D02*
X-36000D01*
X-64533Y7368D02*
X-36000D01*
X-64752Y3668D02*
X-36000D01*
X-64786Y3068D02*
X-36000D01*
X-64791Y2968D02*
X-36000D01*
X-64797Y2868D02*
X-36000D01*
X-64774Y3268D02*
X-36000D01*
X-64780Y3168D02*
X-36000D01*
X-64814Y2568D02*
X-36000D01*
X-64819Y2468D02*
X-36000D01*
X-64825Y2368D02*
X-36000D01*
X-64802Y2768D02*
X-36000D01*
X-64808Y2668D02*
X-36000D01*
X-64842Y2068D02*
X-36000D01*
X-64847Y1968D02*
X-36000D01*
X-64831Y2268D02*
X-36000D01*
X-64836Y2168D02*
X-36000D01*
X-64864Y1668D02*
X-36000D01*
X-64870Y1568D02*
X-36000D01*
X-64875Y1468D02*
X-36000D01*
X-64853Y1868D02*
X-36000D01*
X-64859Y1768D02*
X-36000D01*
X-64892Y1168D02*
X-36000D01*
X-64898Y1068D02*
X-36000D01*
X-64904Y968D02*
X-30878D01*
X-64881Y1368D02*
X-36000D01*
X-64887Y1268D02*
X-36000D01*
X-64920Y668D02*
X-30148D01*
X-64926Y568D02*
X-29736D01*
X-64932Y468D02*
X-29188D01*
X-64909Y868D02*
X-30676D01*
X-64915Y768D02*
X-30440D01*
X-64937Y368D02*
X-29288D01*
X-64943Y268D02*
X-29388D01*
X-64949Y168D02*
X-29488D01*
X-64954Y68D02*
X-29588D01*
X-64555Y7168D02*
X-36000D01*
X-64561Y7068D02*
X-36000D01*
X-64567Y6968D02*
X-36000D01*
X-64549Y7273D02*
X-63329Y14455D01*
X-64550Y7268D02*
X-36000D01*
X-64584Y6668D02*
X-36000D01*
X-64589Y6568D02*
X-36000D01*
X-64595Y6468D02*
X-36000D01*
X-64572Y6868D02*
X-36000D01*
X-64578Y6768D02*
X-36000D01*
X-64612Y6168D02*
X-36000D01*
X-64617Y6068D02*
X-36000D01*
X-64623Y5968D02*
X-36000D01*
X-64600Y6368D02*
X-36000D01*
X-64606Y6268D02*
X-36000D01*
X-64634Y5768D02*
X-36000D01*
X-64640Y5668D02*
X-36000D01*
X-64958Y0D02*
X-64549Y7273D01*
X-64628Y5868D02*
X-36000D01*
X-64657Y5368D02*
X-36000D01*
X-64662Y5268D02*
X-36000D01*
X-64668Y5168D02*
X-36000D01*
X-64645Y5568D02*
X-36000D01*
X-64651Y5468D02*
X-36000D01*
X-64685Y4868D02*
X-36000D01*
X-64690Y4768D02*
X-36000D01*
X-64696Y4668D02*
X-36000D01*
X-64673Y5068D02*
X-36000D01*
X-64679Y4968D02*
X-36000D01*
X-64713Y4368D02*
X-36000D01*
X-64718Y4268D02*
X-36000D01*
X-64724Y4168D02*
X-36000D01*
X-64701Y4568D02*
X-36000D01*
X-64707Y4468D02*
X-36000D01*
X-64741Y3868D02*
X-36000D01*
X-64746Y3768D02*
X-36000D01*
X-64729Y4068D02*
X-36000D01*
X-64735Y3968D02*
X-36000D01*
X-64726Y-4132D02*
X-36000D01*
X-64906Y-932D02*
X-30588D01*
X-64720Y-4232D02*
X-36000D01*
X-64737Y-3932D02*
X-36000D01*
X-64731Y-4032D02*
X-36000D01*
X-64698Y-4632D02*
X-36000D01*
X-64703Y-4532D02*
X-36000D01*
X-64692Y-4732D02*
X-36000D01*
X-64715Y-4332D02*
X-36000D01*
X-64709Y-4432D02*
X-36000D01*
X-64951Y-132D02*
X-29788D01*
X-64956Y-32D02*
X-29688D01*
X-64945Y-232D02*
X-29888D01*
X-64939Y-332D02*
X-29988D01*
X-64934Y-432D02*
X-30088D01*
X-64928Y-532D02*
X-30188D01*
X-64922Y-632D02*
X-30288D01*
X-64917Y-732D02*
X-30388D01*
X-64911Y-832D02*
X-30488D01*
X-64619Y-6032D02*
X-36000D01*
X-64625Y-5932D02*
X-36000D01*
X-64614Y-6132D02*
X-36000D01*
X-64636Y-5732D02*
X-36000D01*
X-64630Y-5832D02*
X-36000D01*
X-64591Y-6532D02*
X-36000D01*
X-64597Y-6432D02*
X-36000D01*
X-64580Y-6732D02*
X-36000D01*
X-64608Y-6232D02*
X-36000D01*
X-64602Y-6332D02*
X-36000D01*
X-64670Y-5132D02*
X-36000D01*
X-64675Y-5032D02*
X-36000D01*
X-64664Y-5232D02*
X-36000D01*
X-64687Y-4832D02*
X-36000D01*
X-64681Y-4932D02*
X-36000D01*
X-64647Y-5532D02*
X-36000D01*
X-64642Y-5632D02*
X-36000D01*
X-64658Y-5332D02*
X-36000D01*
X-64653Y-5432D02*
X-36000D01*
X-64838Y-2132D02*
X-36000D01*
X-64844Y-2032D02*
X-36000D01*
X-64833Y-2232D02*
X-36000D01*
X-64855Y-1832D02*
X-36000D01*
X-64850Y-1932D02*
X-36000D01*
X-64810Y-2632D02*
X-36000D01*
X-64816Y-2532D02*
X-36000D01*
X-64805Y-2732D02*
X-36000D01*
X-64827Y-2332D02*
X-36000D01*
X-64821Y-2432D02*
X-36000D01*
X-64883Y-1332D02*
X-36000D01*
X-64889Y-1232D02*
X-36000D01*
X-64878Y-1432D02*
X-36000D01*
X-64900Y-1032D02*
X-36000D01*
X-64894Y-1132D02*
X-36000D01*
X-64866Y-1632D02*
X-36000D01*
X-64861Y-1732D02*
X-36000D01*
X-64958Y0D02*
X-64549Y-7273D01*
X-64872Y-1532D02*
X-36000D01*
X-64574Y-6832D02*
X-36000D01*
X-64585Y-6632D02*
X-36000D01*
X-64569Y-6932D02*
X-36000D01*
X-64748Y-3732D02*
X-36000D01*
X-64743Y-3832D02*
X-36000D01*
X-64552Y-7232D02*
X-36000D01*
X-64557Y-7132D02*
X-36000D01*
X-64539Y-7332D02*
X-36000D01*
X-64563Y-7032D02*
X-36000D01*
X-64549Y-7273D02*
X-63329Y-14455D01*
X-64782Y-3132D02*
X-36000D01*
X-64788Y-3032D02*
X-36000D01*
X-64777Y-3232D02*
X-36000D01*
X-64799Y-2832D02*
X-36000D01*
X-64793Y-2932D02*
X-36000D01*
X-64760Y-3532D02*
X-36000D01*
X-64754Y-3632D02*
X-36000D01*
X-64771Y-3332D02*
X-36000D01*
X-64765Y-3432D02*
X-36000D01*
X-46030Y-31732D02*
X-11000D01*
X-46031Y-31832D02*
X-11000D01*
X-46035Y-31932D02*
X-11000D01*
X-46037Y-31532D02*
X-11000D01*
X-46032Y-31632D02*
X-11000D01*
X-43694Y-34232D02*
X-11000D01*
X-43932Y-34132D02*
X-11000D01*
X-43495Y-34332D02*
X-11000D01*
X-44751Y-33932D02*
X-11000D01*
X-44240Y-34032D02*
X-11000D01*
X-46055Y-31332D02*
X-11000D01*
X-46069Y-31232D02*
X-11000D01*
X-46045Y-31432D02*
X-11000D01*
X-46104Y-31031D02*
X-11000D01*
X-46085Y-31131D02*
X-11000D01*
X-46063Y-32232D02*
X-11000D01*
X-46079Y-32332D02*
X-11000D01*
X-46097Y-32431D02*
X-11000D01*
X-46041Y-32032D02*
X-11000D01*
X-46051Y-32132D02*
X-11000D01*
X-41948Y-36031D02*
X-6625D01*
X-42211Y-35531D02*
X-11000D01*
X-41907Y-36131D02*
X-6525D01*
X-42348Y-35331D02*
X-11000D01*
X-42277Y-35431D02*
X-11000D01*
X-41777Y-36532D02*
X-6125D01*
X-41805Y-36432D02*
X-6225D01*
X-41753Y-36632D02*
X-6025D01*
X-41869Y-36232D02*
X-6425D01*
X-41835Y-36332D02*
X-6325D01*
X-42909Y-34732D02*
X-11000D01*
X-43034Y-34632D02*
X-11000D01*
X-42796Y-34832D02*
X-11000D01*
X-43323Y-34432D02*
X-11000D01*
X-43171Y-34532D02*
X-11000D01*
X-42507Y-35131D02*
X-11000D01*
X-42424Y-35231D02*
X-11000D01*
X-42692Y-34931D02*
X-11000D01*
X-42596Y-35031D02*
X-11000D01*
X-42041Y-35831D02*
X-11000D01*
X-42093Y-35731D02*
X-11000D01*
X-41992Y-35931D02*
X-11000D01*
X-42150Y-35631D02*
X-11000D01*
X-45150Y-46631D02*
X-39916D01*
X-44926Y-46831D02*
X-40015D01*
X-45038Y-46732D02*
X-39968D01*
X-44814Y-46932D02*
X-40059D01*
X-44702Y-47031D02*
X-40099D01*
X-44590Y-47132D02*
X-40135D01*
X-46022Y-45831D02*
X-39329D01*
X-46112Y-45732D02*
X-39227D01*
X-45933Y-45932D02*
X-39423D01*
X-45821Y-46031D02*
X-39510D01*
X-45709Y-46132D02*
X-39591D01*
X-45597Y-46231D02*
X-39666D01*
X-45485Y-46332D02*
X-39736D01*
X-45374Y-46431D02*
X-39801D01*
X-45262Y-46532D02*
X-39861D01*
X-43135Y-48432D02*
X-40327D01*
X-43471Y-48131D02*
X-40327D01*
X-43024Y-48531D02*
X-40321D01*
X-43359Y-48232D02*
X-40330D01*
X-43247Y-48331D02*
X-40330D01*
X-33347Y-48632D02*
X-32403D01*
X-42688Y-48832D02*
X-40287D01*
X-42576Y-48931D02*
X-40269D01*
X-42912Y-48632D02*
X-40312D01*
X-42800Y-48731D02*
X-40301D01*
X-44366Y-47332D02*
X-40198D01*
X-44478Y-47231D02*
X-40168D01*
X-44254Y-47432D02*
X-40225D01*
X-44143Y-47531D02*
X-40248D01*
X-44031Y-47632D02*
X-40269D01*
X-43919Y-47731D02*
X-40286D01*
X-43807Y-47832D02*
X-40301D01*
X-43695Y-47931D02*
X-40312D01*
X-43583Y-48032D02*
X-40321D01*
X-36631Y-53531D02*
X-34930D01*
X-36490Y-53632D02*
X-34882D01*
X-36913Y-53331D02*
X-35015D01*
X-36772Y-53432D02*
X-34974D01*
X-36068Y-53931D02*
X-34714D01*
X-35927Y-54032D02*
X-34649D01*
X-36350Y-53731D02*
X-34831D01*
X-36209Y-53832D02*
X-34774D01*
X-37618Y-52832D02*
X-35166D01*
X-37477Y-52931D02*
X-35142D01*
X-37900Y-52632D02*
X-35205D01*
X-37759Y-52731D02*
X-35187D01*
X-40500Y-50786D02*
X-34560Y-55001D01*
X-37054Y-53232D02*
X-35052D01*
X-37336Y-53032D02*
X-35115D01*
X-37195Y-53131D02*
X-35085D01*
X-33963Y-55332D02*
X-33020D01*
X-34144Y-55231D02*
X-33252D01*
X-33782Y-55431D02*
X-32725D01*
X-34505Y-55031D02*
X-33615D01*
X-34324Y-55132D02*
X-33446D01*
X-21454Y-61313D02*
X-14455Y-63329D01*
X-28184Y-58525D02*
X-21454Y-61313D01*
X-14455Y-63329D02*
X-7273Y-64549D01*
X-34560Y-55001D02*
X-28184Y-58525D01*
X-33601Y-55532D02*
X-32268D01*
X-35363Y-54432D02*
X-34333D01*
X-35504Y-54331D02*
X-34421D01*
X-35222Y-54531D02*
X-34238D01*
X-35786Y-54131D02*
X-34578D01*
X-35645Y-54232D02*
X-34503D01*
X-34799Y-54832D02*
X-33900D01*
X-34658Y-54932D02*
X-33765D01*
X-35081Y-54632D02*
X-34135D01*
X-34940Y-54731D02*
X-34023D01*
X-41233Y-50132D02*
X-39802D01*
X-41345Y-50031D02*
X-39862D01*
X-41121Y-50231D02*
X-39737D01*
X-41569Y-49832D02*
X-39969D01*
X-41457Y-49932D02*
X-39917D01*
X-40674Y-50631D02*
X-39425D01*
X-40786Y-50532D02*
X-39512D01*
X-40562Y-50732D02*
X-39330D01*
X-41009Y-50332D02*
X-39667D01*
X-40897Y-50431D02*
X-39592D01*
X-42128Y-49331D02*
X-40169D01*
X-42240Y-49232D02*
X-40199D01*
X-42017Y-49432D02*
X-40136D01*
X-42464Y-49032D02*
X-40249D01*
X-42352Y-49131D02*
X-40225D01*
X-41793Y-49632D02*
X-40059D01*
X-41681Y-49731D02*
X-40016D01*
X-45932Y-45932D02*
X-40500Y-50786D01*
X-41905Y-49531D02*
X-40100D01*
X-36236Y-51732D02*
X-35234D01*
X-39027Y-51831D02*
X-35242D01*
X-38886Y-51932D02*
X-35247D01*
X-39168Y-51732D02*
X-37424D01*
X-38746Y-52031D02*
X-35250D01*
X-38182Y-52432D02*
X-35231D01*
X-38323Y-52332D02*
X-35240D01*
X-38041Y-52531D02*
X-35219D01*
X-38605Y-52132D02*
X-35250D01*
X-38464Y-52231D02*
X-35246D01*
X-40014Y-51132D02*
X-38863D01*
X-40155Y-51031D02*
X-38996D01*
X-39873Y-51231D02*
X-38715D01*
X-40437Y-50831D02*
X-39228D01*
X-40296Y-50932D02*
X-39117D01*
X-39450Y-51532D02*
X-38131D01*
X-39309Y-51631D02*
X-37846D01*
X-39732Y-51332D02*
X-38548D01*
X-39591Y-51431D02*
X-38357D01*
X-46153Y-30831D02*
X-11000D01*
X-46182Y-30731D02*
X-11000D01*
X-46127Y-30931D02*
X-11000D01*
X-46249Y-30531D02*
X-11000D01*
X-46213Y-30631D02*
X-11000D01*
X-46170Y-32731D02*
X-11000D01*
X-46201Y-32831D02*
X-11000D01*
X-46235Y-32931D02*
X-11000D01*
X-46118Y-32531D02*
X-11000D01*
X-46143Y-32631D02*
X-11000D01*
X-46427Y-30131D02*
X-11000D01*
X-46481Y-30031D02*
X-11000D01*
X-46377Y-30231D02*
X-11000D01*
X-46603Y-29832D02*
X-11000D01*
X-46540Y-29931D02*
X-11000D01*
X-46273Y-33031D02*
X-11000D01*
X-46314Y-33131D02*
X-11000D01*
X-46330Y-30331D02*
X-11000D01*
X-46288Y-30431D02*
X-11000D01*
X-46460Y-33431D02*
X-11000D01*
X-46517Y-33531D02*
X-11000D01*
X-46579Y-33631D02*
X-11000D01*
X-46359Y-33231D02*
X-11000D01*
X-46408Y-33331D02*
X-11000D01*
X-46645Y-33732D02*
X-11000D01*
X-46716Y-33832D02*
X-11000D01*
X-46793Y-33932D02*
X-45581D01*
X-46876Y-34032D02*
X-46092D01*
X-54950Y-34632D02*
X-51517D01*
X-55293Y-34032D02*
X-52184D01*
X-55349Y-33932D02*
X-52267D01*
X-55238Y-34132D02*
X-52095D01*
X-55459Y-33732D02*
X-52415D01*
X-55404Y-33832D02*
X-52344D01*
X-55072Y-34432D02*
X-51779D01*
X-55017Y-34532D02*
X-51654D01*
X-55183Y-34232D02*
X-51998D01*
X-55128Y-34332D02*
X-51893D01*
X-57007Y-30931D02*
X-52933D01*
X-57062Y-30831D02*
X-52907D01*
X-56951Y-31031D02*
X-52955D01*
X-56896Y-31131D02*
X-52975D01*
X-56841Y-31232D02*
X-52991D01*
X-56730Y-31432D02*
X-53015D01*
X-56786Y-31332D02*
X-53005D01*
X-56675Y-31532D02*
X-53023D01*
X-56620Y-31632D02*
X-53028D01*
X-56565Y-31732D02*
X-53030D01*
X-57504Y-30031D02*
X-52579D01*
X-57559Y-29931D02*
X-52520D01*
X-57449Y-30131D02*
X-52633D01*
X-57394Y-30231D02*
X-52683D01*
X-57338Y-30331D02*
X-52730D01*
X-57283Y-30431D02*
X-52772D01*
X-57228Y-30531D02*
X-52811D01*
X-57172Y-30631D02*
X-52846D01*
X-57117Y-30731D02*
X-52878D01*
X-55846Y-33031D02*
X-52787D01*
X-55901Y-32931D02*
X-52825D01*
X-55791Y-33131D02*
X-52746D01*
X-56012Y-32731D02*
X-52890D01*
X-55957Y-32831D02*
X-52859D01*
X-55570Y-33531D02*
X-52543D01*
X-55625Y-33431D02*
X-52600D01*
X-55514Y-33631D02*
X-52481D01*
X-55736Y-33231D02*
X-52701D01*
X-55680Y-33331D02*
X-52652D01*
X-56343Y-32132D02*
X-53009D01*
X-56399Y-32032D02*
X-53019D01*
X-56288Y-32232D02*
X-52997D01*
X-56509Y-31832D02*
X-53029D01*
X-56454Y-31932D02*
X-53025D01*
X-56122Y-32531D02*
X-52942D01*
X-56067Y-32631D02*
X-52917D01*
X-56233Y-32332D02*
X-52981D01*
X-56178Y-32431D02*
X-52963D01*
X-48627Y-35131D02*
X-47826D01*
X-49171Y-35231D02*
X-47908D01*
X-51474Y-39532D02*
X-47948D01*
X-51616Y-39332D02*
X-48089D01*
X-51545Y-39432D02*
X-48021D01*
X-51261Y-39832D02*
X-47690D01*
X-51190Y-39931D02*
X-47590D01*
X-51403Y-39632D02*
X-47868D01*
X-51332Y-39732D02*
X-47783D01*
X-54383Y-35431D02*
X-48056D01*
X-54454Y-35331D02*
X-47984D01*
X-54312Y-35531D02*
X-48121D01*
X-54241Y-35631D02*
X-48183D01*
X-54170Y-35731D02*
X-48239D01*
X-51758Y-39132D02*
X-48212D01*
X-51687Y-39232D02*
X-48153D01*
X-54099Y-35831D02*
X-48292D01*
X-51828Y-39032D02*
X-48266D01*
X-46827Y-44932D02*
X-37841D01*
X-46916Y-44832D02*
X-37415D01*
X-46737Y-45031D02*
X-38127D01*
X-50490Y-40831D02*
X-45888D01*
X-46648Y-45132D02*
X-38354D01*
X-46469Y-45332D02*
X-38712D01*
X-46558Y-45231D02*
X-38545D01*
X-46380Y-45431D02*
X-38860D01*
X-46290Y-45532D02*
X-38994D01*
X-46201Y-45631D02*
X-39115D01*
X-50906Y-40332D02*
X-47089D01*
X-50977Y-40231D02*
X-47233D01*
X-50835Y-40431D02*
X-46927D01*
X-51119Y-40031D02*
X-47482D01*
X-51048Y-40132D02*
X-47363D01*
X-50786Y-40500D02*
X-45932Y-45932D01*
X-50580Y-40732D02*
X-46260D01*
X-50759Y-40532D02*
X-46743D01*
X-50669Y-40631D02*
X-46527D01*
X-53815Y-36232D02*
X-48463D01*
X-53886Y-36131D02*
X-48426D01*
X-53744Y-36332D02*
X-48497D01*
X-53673Y-36432D02*
X-48528D01*
X-53602Y-36532D02*
X-48555D01*
X-53460Y-36732D02*
X-48600D01*
X-53531Y-36632D02*
X-48579D01*
X-53390Y-36832D02*
X-48619D01*
X-53319Y-36932D02*
X-48634D01*
X-53248Y-37032D02*
X-48646D01*
X-54667Y-35031D02*
X-50747D01*
X-54738Y-34931D02*
X-50989D01*
X-54596Y-35131D02*
X-50433D01*
X-54880Y-34732D02*
X-51363D01*
X-54809Y-34832D02*
X-51190D01*
X-54028Y-35931D02*
X-48340D01*
X-53957Y-36031D02*
X-48385D01*
X-55001Y-34560D02*
X-50786Y-40500D01*
X-54525Y-35231D02*
X-49889D01*
X-52325Y-38331D02*
X-48542D01*
X-52396Y-38231D02*
X-48568D01*
X-52254Y-38431D02*
X-48513D01*
X-52538Y-38031D02*
X-48610D01*
X-52467Y-38131D02*
X-48590D01*
X-51971Y-38832D02*
X-48363D01*
X-52041Y-38732D02*
X-48406D01*
X-51899Y-38932D02*
X-48317D01*
X-52183Y-38531D02*
X-48481D01*
X-52112Y-38631D02*
X-48445D01*
X-53106Y-37232D02*
X-48662D01*
X-53177Y-37132D02*
X-48655D01*
X-52893Y-37531D02*
X-48664D01*
X-53035Y-37332D02*
X-48665D01*
X-52964Y-37431D02*
X-48666D01*
X-52680Y-37831D02*
X-48640D01*
X-52609Y-37931D02*
X-48627D01*
X-52822Y-37631D02*
X-48659D01*
X-52751Y-37731D02*
X-48651D01*
X12693Y58885D02*
X17780Y53798D01*
Y48260D02*
Y53798D01*
Y48260D02*
X25400Y40640D01*
X34290D01*
X-7620Y40770D02*
X-1500Y34650D01*
X-7620Y40770D02*
Y59690D01*
X7620Y40770D02*
Y53340D01*
X1270Y26609D02*
Y34420D01*
X7620Y40770D01*
X-1500Y26550D02*
Y34650D01*
X25430Y10570D02*
X30000Y6000D01*
X-1500Y26550D02*
X14481Y10570D01*
X30070Y17570D02*
X30500Y18000D01*
X14481Y10570D02*
X25430D01*
X1270Y26609D02*
X10309Y17570D01*
X30070D01*
X12693Y58885D02*
Y59697D01*
X2540Y58420D02*
X7620Y53340D01*
X30000Y6000D02*
X30500D01*
X6000Y30500D02*
Y31000D01*
X8500Y33500D02*
X9000D01*
X12330Y36830D01*
X20320D01*
X24130Y33020D01*
X6000Y31000D02*
X8500Y33500D01*
X24130Y27940D02*
Y33020D01*
X-6000Y21940D02*
Y30500D01*
X-17780Y16510D02*
X-11430D01*
X-6000Y21940D01*
X-24130Y10160D02*
X-17780Y16510D01*
X34290Y40640D02*
X38100Y36830D01*
X-22860Y21590D02*
Y21819D01*
X-20500Y24179D02*
Y28000D01*
X-22860Y21819D02*
X-20500Y24179D01*
Y28000D02*
X-18000Y30500D01*
X18000D02*
X19050Y29450D01*
Y22905D02*
Y29450D01*
D25*
X30500Y18000D02*
D03*
D26*
X1100Y-38100D02*
X13100D01*
X-6000Y-31000D02*
Y-30500D01*
Y-31000D02*
X1100Y-38100D01*
X-35369Y22369D02*
Y26479D01*
X-35560Y26670D02*
X-35369Y26479D01*
Y22369D02*
X-31000Y18000D01*
X-30500D01*
X-23131Y1270D02*
X-22860D01*
Y1140D02*
Y1270D01*
X-26361Y4500D02*
X-23131Y1270D01*
X-30000Y-6000D02*
X-22860Y1140D01*
X-30500Y6000D02*
X-29000Y4500D01*
X-26361D01*
X-30500Y-6000D02*
X-30000D01*
X18000Y-30000D02*
X23870Y-24130D01*
X24130D01*
X6000Y-31000D02*
X13100Y-38100D01*
X22860D02*
X26670Y-34290D01*
X13100Y-38100D02*
X22860D01*
X26670Y-34290D02*
Y-30480D01*
X18000Y-30500D02*
Y-30000D01*
X6000Y-31000D02*
Y-30500D01*
D27*
X-13970Y1270D02*
D03*
X-20320Y-22860D02*
D03*
X-43796Y-15350D02*
D03*
X-33020Y-13970D02*
D03*
X-60960Y-6350D02*
D03*
X-16510Y58420D02*
D03*
X21785Y54084D02*
D03*
X17944Y58584D02*
D03*
X34346Y49139D02*
D03*
X37311Y45113D02*
D03*
X40914Y41646D02*
D03*
X0Y38100D02*
D03*
X-35560D02*
D03*
X47926Y-35560D02*
D03*
X49530Y8715D02*
D03*
X13924Y6068D02*
D03*
X16208Y1620D02*
D03*
X21590Y14070D02*
D03*
X-49495Y34676D02*
D03*
X-54030Y28534D02*
D03*
X-45140Y37133D02*
D03*
X-27440Y53792D02*
D03*
X-23218Y56470D02*
D03*
X51290Y-31563D02*
D03*
X45000Y-39920D02*
D03*
X37177Y-10507D02*
D03*
X-60960Y1270D02*
D03*
X-39370Y-14660D02*
D03*
X-45166Y-37407D02*
D03*
X60960Y0D02*
D03*
X12693Y59697D02*
D03*
X-2540Y59690D02*
D03*
X-7620D02*
D03*
X2540Y58420D02*
D03*
X-24130Y10160D02*
D03*
X38100Y36830D02*
D03*
X-35560Y31670D02*
D03*
X-36830Y-48282D02*
D03*
X-31750Y-52070D02*
D03*
X-43180Y11430D02*
D03*
X44038Y37688D02*
D03*
X34290Y-49530D02*
D03*
X-35560Y26670D02*
D03*
X-40640Y41910D02*
D03*
X-22860Y21590D02*
D03*
Y1270D02*
D03*
X24130Y27940D02*
D03*
X19050Y22905D02*
D03*
X24130Y-24130D02*
D03*
X-191Y-21399D02*
D03*
X26670Y-30480D02*
D03*
X-16510Y-76200D02*
D03*
X-25400Y-73660D02*
D03*
X-34290Y-69850D02*
D03*
X-49530Y-31750D02*
D03*
M02*
