G04*
G04 #@! TF.GenerationSoftware,Altium Limited,Altium Designer,22.11.1 (43)*
G04*
G04 Layer_Color=8388736*
%FSLAX44Y44*%
%MOMM*%
G71*
G04*
G04 #@! TF.SameCoordinates,BDA14645-3F24-47FE-B4C7-F524B08D16E3*
G04*
G04*
G04 #@! TF.FilePolarity,Negative*
G04*
G01*
G75*
%ADD18C,0.8032*%
%ADD19R,1.0032X0.6032*%
%ADD20R,0.6032X1.0032*%
%ADD21R,0.8032X0.8032*%
%ADD22R,0.9032X0.8032*%
%ADD23R,0.8032X0.9032*%
G36*
X16777Y80820D02*
X16816Y80820D01*
X18053Y80725D01*
X18054D01*
X18055Y80725D01*
X18059Y80724D01*
X18078Y80722D01*
X18098Y80721D01*
X18106Y80719D01*
X18115Y80719D01*
X18151Y80712D01*
X18186Y80707D01*
X18189Y80706D01*
X18191Y80706D01*
X18209Y80701D01*
X18229Y80697D01*
X23989Y79254D01*
X24037Y79239D01*
X24085Y79225D01*
X31642Y76521D01*
X31688Y76501D01*
X31734Y76483D01*
X38990Y73051D01*
X39034Y73027D01*
X39078Y73004D01*
X45963Y68878D01*
X46004Y68849D01*
X46046Y68822D01*
X52492Y64041D01*
X52530Y64009D01*
X52570Y63978D01*
X58517Y58587D01*
X58552Y58552D01*
X58587Y58517D01*
X63978Y52570D01*
X64009Y52530D01*
X64041Y52492D01*
X68822Y46046D01*
X68849Y46003D01*
X68878Y45963D01*
X73004Y39078D01*
X73027Y39034D01*
X73051Y38990D01*
X76483Y31734D01*
X76501Y31688D01*
X76521Y31642D01*
X79225Y24085D01*
X79239Y24037D01*
X79254Y23989D01*
X81204Y16204D01*
X81213Y16154D01*
X81224Y16106D01*
X82402Y8166D01*
X82406Y8116D01*
X82411Y8067D01*
X82805Y50D01*
X82804Y0D01*
X82805Y-50D01*
X82411Y-8067D01*
X82406Y-8116D01*
X82402Y-8166D01*
X81224Y-16106D01*
X81213Y-16154D01*
X81204Y-16204D01*
X79254Y-23989D01*
X79239Y-24037D01*
X79225Y-24085D01*
X76521Y-31642D01*
X76501Y-31688D01*
X76483Y-31734D01*
X73051Y-38990D01*
X73027Y-39034D01*
X73004Y-39078D01*
X68878Y-45963D01*
X68849Y-46004D01*
X68822Y-46046D01*
X64041Y-52492D01*
X64009Y-52530D01*
X63978Y-52570D01*
X58587Y-58517D01*
X58552Y-58552D01*
X58517Y-58587D01*
X52570Y-63978D01*
X52530Y-64009D01*
X52492Y-64041D01*
X46046Y-68822D01*
X46003Y-68849D01*
X45963Y-68878D01*
X39078Y-73004D01*
X39034Y-73027D01*
X38990Y-73051D01*
X31734Y-76483D01*
X31688Y-76501D01*
X31642Y-76521D01*
X24085Y-79225D01*
X24037Y-79239D01*
X23989Y-79254D01*
X18229Y-80697D01*
X18209Y-80701D01*
X18190Y-80706D01*
X18188Y-80706D01*
X18186Y-80707D01*
X18150Y-80712D01*
X18115Y-80719D01*
X18106Y-80719D01*
X18098Y-80721D01*
X18077Y-80722D01*
X18058Y-80724D01*
X18055Y-80725D01*
X18054Y-80725D01*
X18053D01*
X16792Y-80820D01*
X16754Y-80820D01*
X16716Y-80822D01*
X-16672D01*
X-16711Y-80820D01*
X-16750Y-80820D01*
X-17987Y-80725D01*
X-17988D01*
X-17988Y-80725D01*
X-17993Y-80724D01*
X-18011Y-80722D01*
X-18032Y-80721D01*
X-18040Y-80719D01*
X-18048Y-80719D01*
X-18084Y-80712D01*
X-18119Y-80707D01*
X-18123Y-80706D01*
X-18125Y-80706D01*
X-18142Y-80701D01*
X-18163Y-80697D01*
X-23923Y-79254D01*
X-23971Y-79239D01*
X-24018Y-79225D01*
X-31576Y-76521D01*
X-31622Y-76501D01*
X-31668Y-76483D01*
X-38924Y-73051D01*
X-38967Y-73027D01*
X-39012Y-73004D01*
X-45896Y-68878D01*
X-45938Y-68849D01*
X-45979Y-68822D01*
X-52426Y-64041D01*
X-52464Y-64009D01*
X-52503Y-63978D01*
X-58450Y-58587D01*
X-58485Y-58552D01*
X-58521Y-58517D01*
X-63911Y-52570D01*
X-63942Y-52530D01*
X-63975Y-52492D01*
X-68756Y-46046D01*
X-68783Y-46003D01*
X-68811Y-45963D01*
X-72938Y-39078D01*
X-72961Y-39034D01*
X-72985Y-38990D01*
X-76417Y-31734D01*
X-76435Y-31688D01*
X-76455Y-31642D01*
X-79159Y-24085D01*
X-79172Y-24037D01*
X-79188Y-23989D01*
X-81138Y-16204D01*
X-81147Y-16154D01*
X-81158Y-16106D01*
X-82335Y-8166D01*
X-82339Y-8116D01*
X-82345Y-8067D01*
X-82739Y-50D01*
X-82738Y0D01*
X-82739Y50D01*
X-82345Y8067D01*
X-82339Y8116D01*
X-82335Y8166D01*
X-81158Y16106D01*
X-81147Y16154D01*
X-81138Y16204D01*
X-79188Y23989D01*
X-79172Y24037D01*
X-79159Y24085D01*
X-76455Y31642D01*
X-76435Y31688D01*
X-76417Y31734D01*
X-72985Y38990D01*
X-72961Y39034D01*
X-72938Y39078D01*
X-68811Y45963D01*
X-68783Y46004D01*
X-68756Y46046D01*
X-63975Y52492D01*
X-63942Y52530D01*
X-63911Y52570D01*
X-58521Y58517D01*
X-58485Y58552D01*
X-58450Y58587D01*
X-52503Y63978D01*
X-52464Y64009D01*
X-52426Y64041D01*
X-45979Y68822D01*
X-45937Y68850D01*
X-45896Y68878D01*
X-39012Y73004D01*
X-38967Y73027D01*
X-38924Y73051D01*
X-31668Y76483D01*
X-31622Y76501D01*
X-31576Y76521D01*
X-24018Y79225D01*
X-23971Y79239D01*
X-23923Y79254D01*
X-18163Y80697D01*
X-18142Y80701D01*
X-18124Y80706D01*
X-18122Y80706D01*
X-18119Y80707D01*
X-18084Y80712D01*
X-18048Y80719D01*
X-18040Y80719D01*
X-18032Y80721D01*
X-18011Y80722D01*
X-17992Y80725D01*
X-17988Y80725D01*
X-17988Y80725D01*
X-17987D01*
X-16725Y80820D01*
X-16687Y80820D01*
X-16649Y80822D01*
X16739D01*
X16777Y80820D01*
D02*
G37*
%LPC*%
G36*
X0Y69555D02*
X-7788Y69117D01*
X-15478Y67811D01*
X-22972Y65652D01*
X-30179Y62667D01*
X-37005Y58894D01*
X-43367Y54380D01*
X-49183Y49183D01*
X-54380Y43367D01*
X-58894Y37005D01*
X-62667Y30179D01*
X-65652Y22972D01*
X-67811Y15478D01*
X-69117Y7788D01*
X-69555Y0D01*
X-69117Y-7788D01*
X-67811Y-15478D01*
X-65652Y-22972D01*
X-62667Y-30179D01*
X-58894Y-37005D01*
X-54380Y-43367D01*
X-49183Y-49183D01*
X-43367Y-54380D01*
X-37005Y-58894D01*
X-30179Y-62667D01*
X-22972Y-65652D01*
X-15478Y-67811D01*
X-7788Y-69117D01*
X0Y-69555D01*
X7788Y-69117D01*
X15478Y-67811D01*
X22972Y-65652D01*
X30179Y-62667D01*
X37005Y-58894D01*
X43367Y-54380D01*
X49183Y-49183D01*
X54380Y-43367D01*
X58894Y-37005D01*
X62667Y-30179D01*
X65652Y-22972D01*
X67811Y-15478D01*
X69117Y-7788D01*
X69555Y0D01*
X69117Y7788D01*
X67811Y15478D01*
X65652Y22972D01*
X62667Y30179D01*
X58894Y37005D01*
X54380Y43367D01*
X49183Y49183D01*
X43367Y54380D01*
X37005Y58894D01*
X30179Y62667D01*
X22972Y65652D01*
X15478Y67811D01*
X7788Y69117D01*
X0Y69555D01*
D02*
G37*
%LPD*%
G36*
X31633Y22009D02*
X31764Y21983D01*
X31890Y21941D01*
X32010Y21882D01*
X32120Y21808D01*
X32220Y21720D01*
X34720Y19220D01*
X34808Y19120D01*
X34882Y19009D01*
X34941Y18890D01*
X34984Y18764D01*
X35010Y18633D01*
X35019Y18500D01*
Y15000D01*
X35010Y14867D01*
X34984Y14736D01*
X34941Y14610D01*
X34882Y14491D01*
X34808Y14380D01*
X34720Y14280D01*
X34620Y14192D01*
X34510Y14118D01*
X34390Y14059D01*
X34264Y14016D01*
X34133Y13990D01*
X34000Y13982D01*
X27001D01*
X26868Y13990D01*
X26737Y14016D01*
X26611Y14059D01*
X26491Y14118D01*
X26381Y14192D01*
X26281Y14280D01*
X26193Y14380D01*
X26119Y14491D01*
X26060Y14610D01*
X26017Y14736D01*
X25991Y14867D01*
X25982Y15000D01*
Y21000D01*
X25991Y21133D01*
X26017Y21264D01*
X26060Y21390D01*
X26119Y21509D01*
X26193Y21620D01*
X26281Y21720D01*
X26381Y21808D01*
X26491Y21882D01*
X26611Y21941D01*
X26737Y21983D01*
X26868Y22009D01*
X27001Y22018D01*
X31500D01*
X31633Y22009D01*
D02*
G37*
D18*
X30157Y-69801D02*
D03*
D19*
X0Y-43300D02*
D03*
X0Y43300D02*
D03*
D20*
X-43300Y0D02*
D03*
X43300D02*
D03*
D21*
X5000Y5000D02*
D03*
Y-5000D02*
D03*
X-4999Y5000D02*
D03*
Y-5000D02*
D03*
D22*
X30500Y-6000D02*
D03*
Y-18000D02*
D03*
Y6000D02*
D03*
X-30500Y-6000D02*
D03*
Y6000D02*
D03*
Y18000D02*
D03*
Y-18000D02*
D03*
D23*
X6000Y-30500D02*
D03*
X-6000D02*
D03*
X-18000D02*
D03*
X18000D02*
D03*
X-6000Y30500D02*
D03*
X6000D02*
D03*
X18000D02*
D03*
X-18000D02*
D03*
M02*
