G04*
G04 #@! TF.GenerationSoftware,Altium Limited,Altium Designer,22.11.1 (43)*
G04*
G04 Layer_Color=255*
%FSLAX44Y44*%
%MOMM*%
G71*
G04*
G04 #@! TF.SameCoordinates,BDA14645-3F24-47FE-B4C7-F524B08D16E3*
G04*
G04*
G04 #@! TF.FilePolarity,Positive*
G04*
G01*
G75*
%ADD12C,0.6000*%
%ADD13R,0.8000X0.4000*%
%ADD14R,0.4000X0.8000*%
%ADD15R,0.6000X0.6000*%
%ADD16R,0.7000X0.6000*%
%ADD17R,0.6000X0.7000*%
%AMCUSTOMSHAPE25*
4,1,5,-0.3500,-0.3000,-0.3500,0.3000,0.1000,0.3000,0.3500,0.0500,0.3500,-0.3000,-0.3500,-0.3000,0.0*%
%ADD25CUSTOMSHAPE25*%

D12*
X30157Y-69801D02*
D03*
D13*
X0Y-43300D02*
D03*
X0Y43300D02*
D03*
D14*
X-43300Y0D02*
D03*
X43300D02*
D03*
D15*
X5000Y5000D02*
D03*
Y-5000D02*
D03*
X-4999Y5000D02*
D03*
Y-5000D02*
D03*
D16*
X30500Y-6000D02*
D03*
Y-18000D02*
D03*
Y6000D02*
D03*
X-30500Y-6000D02*
D03*
Y6000D02*
D03*
Y18000D02*
D03*
Y-18000D02*
D03*
D17*
X6000Y-30500D02*
D03*
X-6000D02*
D03*
X-18000D02*
D03*
X18000D02*
D03*
X-6000Y30500D02*
D03*
X6000D02*
D03*
X18000D02*
D03*
X-18000D02*
D03*
D25*
X30500Y18000D02*
D03*
M02*
