G04*
G04 #@! TF.GenerationSoftware,Altium Limited,Altium Designer,22.11.1 (43)*
G04*
G04 Layer_Physical_Order=2*
G04 Layer_Color=36540*
%FSLAX44Y44*%
%MOMM*%
G71*
G04*
G04 #@! TF.SameCoordinates,BDA14645-3F24-47FE-B4C7-F524B08D16E3*
G04*
G04*
G04 #@! TF.FilePolarity,Positive*
G04*
G01*
G75*
%ADD24C,0.1000*%
%ADD26C,0.3000*%
%ADD27C,0.4000*%
D24*
X70310Y27940D02*
G03*
X69431Y30061I-3000J0D01*
G01*
X70310Y27940D02*
G03*
X69425Y30068I-3000J0D01*
G01*
X21944Y58584D02*
G03*
X15517Y61764I-4000J0D01*
G01*
X47848Y51645D02*
G03*
X45720Y52530I-2128J-2115D01*
G01*
X47841Y51651D02*
G03*
X45720Y52530I-2121J-2121D01*
G01*
X20772Y55756D02*
G03*
X21944Y58584I-2828J2828D01*
G01*
X15517Y61764D02*
G03*
X10106Y57340I-2824J-2067D01*
G01*
X37414Y41615D02*
G03*
X37681Y40305I3500J32D01*
G01*
X33856Y45673D02*
G03*
X37414Y41615I3455J-560D01*
G01*
X37681Y40305D02*
G03*
X35008Y38471I419J-3475D01*
G01*
X35213Y52530D02*
G03*
X33479Y52530I-867J-3391D01*
G01*
X32013Y46530D02*
G03*
X33856Y45673I2333J2609D01*
G01*
X5869Y57340D02*
G03*
X6040Y58420I-3329J1080D01*
G01*
D02*
G03*
X-789Y57340I-3500J0D01*
G01*
X38363Y33340D02*
G03*
X41081Y34995I-263J3490D01*
G01*
X35380Y31600D02*
G03*
X37502Y32479I0J3000D01*
G01*
X35380Y31600D02*
G03*
X37508Y32485I0J3000D01*
G01*
X27630Y27940D02*
G03*
X27630Y27940I-3500J0D01*
G01*
X-5026Y57340D02*
G03*
X-4120Y59690I-2594J2350D01*
G01*
D02*
G03*
X-10214Y57340I-3500J0D01*
G01*
X-20010Y37600D02*
G03*
X-22131Y36721I0J-3000D01*
G01*
X-20010Y37600D02*
G03*
X-22138Y36715I0J-3000D01*
G01*
X31420Y21200D02*
G03*
X28591Y20028I0J-4000D01*
G01*
X31420Y21200D02*
G03*
X28586Y20023I0J-4000D01*
G01*
X24891Y16329D02*
G03*
X21590Y18070I-3301J-2259D01*
G01*
X22550Y22905D02*
G03*
X22550Y22905I-3500J0D01*
G01*
X-10060Y18070D02*
G03*
X-12888Y16898I0J-4000D01*
G01*
X-10060Y18070D02*
G03*
X-12893Y16893I0J-4000D01*
G01*
X-20851Y8936D02*
G03*
X-20630Y10160I-3279J1224D01*
G01*
X69431Y-14821D02*
G03*
X70310Y-12700I-2121J2121D01*
G01*
X69425Y-14828D02*
G03*
X70310Y-12700I-2115J2128D01*
G01*
X81799Y-1D02*
G03*
X17938Y79872I-81880J0D01*
G01*
Y-79874D02*
G03*
X81799Y-1I-18019J79873D01*
G01*
X41177Y-10507D02*
G03*
X37177Y-6507I-4000J0D01*
G01*
Y-14507D02*
G03*
X41177Y-10507I0J4000D01*
G01*
X26093Y-27028D02*
G03*
X27630Y-24130I-1963J2898D01*
G01*
X30170Y-30480D02*
G03*
X26093Y-27028I-3500J0D01*
G01*
X13384Y4724D02*
G03*
X12208Y1891I2823J-2833D01*
G01*
X13379Y4719D02*
G03*
X12208Y1891I2828J-2828D01*
G01*
X27593Y-6507D02*
G03*
X24765Y-7678I0J-4000D01*
G01*
X12208Y1620D02*
G03*
X19791Y-158I4000J0D01*
G01*
X27593Y-6507D02*
G03*
X24760Y-7683I0J-4000D01*
G01*
X27630Y-24130D02*
G03*
X22906Y-20851I-3500J0D01*
G01*
X-191Y-17399D02*
G03*
X-191Y-25399I0J-4000D01*
G01*
X20851Y-22906D02*
G03*
X24707Y-27582I3279J-1224D01*
G01*
D02*
G03*
X30170Y-30480I1963J-2898D01*
G01*
X16701Y-25399D02*
G03*
X19530Y-24227I0J4000D01*
G01*
X16701Y-25399D02*
G03*
X19535Y-24222I0J4000D01*
G01*
X54426Y-33117D02*
G03*
X54790Y-31563I-3136J1554D01*
G01*
D02*
G03*
X54364Y-29889I-3500J0D01*
G01*
X53547Y-54835D02*
G03*
X54426Y-52714I-2121J2121D01*
G01*
X53541Y-54842D02*
G03*
X54426Y-52714I-2115J2128D01*
G01*
X31462Y-29182D02*
G03*
X30290Y-32011I2828J-2828D01*
G01*
X31467Y-29177D02*
G03*
X30290Y-32011I2823J-2833D01*
G01*
X38100Y-69040D02*
G03*
X40221Y-68161I0J3000D01*
G01*
X38100Y-69040D02*
G03*
X40228Y-68155I0J3000D01*
G01*
X-19908D02*
G03*
X-17780Y-69040I2128J2115D01*
G01*
X-19901Y-68161D02*
G03*
X-17780Y-69040I2121J2121D01*
G01*
X-13010Y-76200D02*
G03*
X-13010Y-76200I-3500J0D01*
G01*
X-19828Y57340D02*
G03*
X-23367Y59967I-3390J-870D01*
G01*
D02*
G03*
X-25030Y60470I-1663J-2497D01*
G01*
X-23367Y59967D02*
G03*
X-25030Y60470I-1663J-2497D01*
G01*
X-32858D02*
G03*
X-34980Y59591I0J-3000D01*
G01*
X-32858Y60470D02*
G03*
X-34986Y59585I0J-3000D01*
G01*
X-33110Y29170D02*
G03*
X-32164Y30824I-2449J2500D01*
G01*
X-32062Y26790D02*
G03*
X-33110Y29170I-3498J-121D01*
G01*
X-19360Y21590D02*
G03*
X-19360Y21590I-3500J0D01*
G01*
X-20630Y10160D02*
G03*
X-22906Y6881I-3500J0D01*
G01*
X-37259Y23610D02*
G03*
X-35680Y23172I1699J3060D01*
G01*
X-37812Y22918D02*
G03*
X-37259Y23610I-2828J2828D01*
G01*
X-37817Y22913D02*
G03*
X-37259Y23610I-2823J2833D01*
G01*
X-51335Y43236D02*
G03*
X-52220Y41108I2115J-2128D01*
G01*
X-51341Y43229D02*
G03*
X-52220Y41108I2121J-2121D01*
G01*
Y36872D02*
G03*
X-52495Y32873I2725J-2196D01*
G01*
Y31679D02*
G03*
X-57426Y29381I-1535J-3145D01*
G01*
X-44026Y14826D02*
G03*
X-39784Y10583I847J-3396D01*
G01*
X-69431Y17375D02*
G03*
X-70310Y15254I2121J-2121D01*
G01*
X-69425Y17382D02*
G03*
X-70310Y15254I2115J-2128D01*
G01*
X-25688Y4098D02*
G03*
X-20032Y-1558I2828J-2828D01*
G01*
X-32732Y-28922D02*
G03*
X-35560Y-27750I-2828J-2828D01*
G01*
X-32727Y-28927D02*
G03*
X-35560Y-27750I-2833J-2823D01*
G01*
X-18033Y79872D02*
G03*
X-18033Y-79874I18019J-79873D01*
G01*
X-33553Y-55070D02*
G03*
X-32596Y-55466I1803J3000D01*
G01*
X-21900Y-73660D02*
G03*
X-21900Y-73660I-3500J0D01*
G01*
X-30790Y-69850D02*
G03*
X-30790Y-69850I-3500J0D01*
G01*
X-50381Y-54191D02*
G03*
X-48260Y-55070I2121J2121D01*
G01*
X-50388Y-54185D02*
G03*
X-48260Y-55070I2128J2115D01*
G01*
X-70310Y-33020D02*
G03*
X-69425Y-35148I3000J0D01*
G01*
X-70310Y-33020D02*
G03*
X-69431Y-35141I3000J0D01*
G01*
X66724Y32768D02*
X74956D01*
X66624Y32868D02*
X74913D01*
X66924Y32568D02*
X75043D01*
X66824Y32668D02*
X75000D01*
X66424Y33068D02*
X74825D01*
X66324Y33168D02*
X74780D01*
X66524Y32968D02*
X74869D01*
X67424Y32068D02*
X75258D01*
X67324Y32168D02*
X75215D01*
X67524Y31968D02*
X75300D01*
X67124Y32368D02*
X75130D01*
X67024Y32468D02*
X75086D01*
X67224Y32268D02*
X75173D01*
X65524Y33968D02*
X74421D01*
X65424Y34068D02*
X74375D01*
X65624Y33868D02*
X74466D01*
X65224Y34268D02*
X74283D01*
X65124Y34368D02*
X74237D01*
X65324Y34168D02*
X74329D01*
X66124Y33368D02*
X74691D01*
X66024Y33468D02*
X74647D01*
X66224Y33268D02*
X74736D01*
X65824Y33668D02*
X74557D01*
X65724Y33768D02*
X74511D01*
X65924Y33568D02*
X74602D01*
X69224Y30268D02*
X75999D01*
X69124Y30368D02*
X75959D01*
X69324Y30168D02*
X76039D01*
X68924Y30568D02*
X75879D01*
X68824Y30668D02*
X75839D01*
X69024Y30468D02*
X75919D01*
X69762Y29668D02*
X76235D01*
X69689Y29768D02*
X76196D01*
X69830Y29568D02*
X76274D01*
X69520Y29968D02*
X76118D01*
X69424Y30068D02*
X76078D01*
X69608Y29868D02*
X76157D01*
X68024Y31468D02*
X75511D01*
X67924Y31568D02*
X75469D01*
X68124Y31368D02*
X75552D01*
X67724Y31768D02*
X75385D01*
X67624Y31868D02*
X75343D01*
X67824Y31668D02*
X75427D01*
X68624Y30868D02*
X75758D01*
X68524Y30968D02*
X75717D01*
X68724Y30768D02*
X75798D01*
X68324Y31168D02*
X75635D01*
X68224Y31268D02*
X75594D01*
X68424Y31068D02*
X75676D01*
X61824Y37668D02*
X72620D01*
X61724Y37768D02*
X72568D01*
X62024Y37468D02*
X72723D01*
X61924Y37568D02*
X72672D01*
X61524Y37968D02*
X72464D01*
X61424Y38068D02*
X72411D01*
X61624Y37868D02*
X72516D01*
X62524Y36968D02*
X72978D01*
X62424Y37068D02*
X72928D01*
X62624Y36868D02*
X73029D01*
X62224Y37268D02*
X72826D01*
X62124Y37368D02*
X72775D01*
X62324Y37168D02*
X72877D01*
X60624Y38868D02*
X71986D01*
X60524Y38968D02*
X71932D01*
X60724Y38768D02*
X72039D01*
X60324Y39168D02*
X71823D01*
X60224Y39268D02*
X71768D01*
X60424Y39068D02*
X71877D01*
X61224Y38268D02*
X72306D01*
X61124Y38368D02*
X72253D01*
X61324Y38168D02*
X72359D01*
X60924Y38568D02*
X72147D01*
X60824Y38668D02*
X72093D01*
X61024Y38468D02*
X72200D01*
X64324Y35168D02*
X73862D01*
X64224Y35268D02*
X73814D01*
X64424Y35068D02*
X73909D01*
X64024Y35468D02*
X73718D01*
X63924Y35568D02*
X73670D01*
X64124Y35368D02*
X73766D01*
X64924Y34568D02*
X74144D01*
X64824Y34668D02*
X74097D01*
X65024Y34468D02*
X74191D01*
X64624Y34868D02*
X74004D01*
X64524Y34968D02*
X73956D01*
X64724Y34768D02*
X74051D01*
X63124Y36368D02*
X73279D01*
X63024Y36468D02*
X73229D01*
X63224Y36268D02*
X73328D01*
X62824Y36668D02*
X73130D01*
X62724Y36768D02*
X73079D01*
X62924Y36568D02*
X73179D01*
X63724Y35768D02*
X73573D01*
X63624Y35868D02*
X73525D01*
X63824Y35668D02*
X73622D01*
X63424Y36068D02*
X73427D01*
X63324Y36168D02*
X73378D01*
X63524Y35968D02*
X73476D01*
X70310Y26668D02*
X77334D01*
X70310Y26768D02*
X77300D01*
X70310Y26468D02*
X77403D01*
X70310Y26568D02*
X77369D01*
X70310Y26968D02*
X77231D01*
X70310Y27068D02*
X77196D01*
X70310Y26868D02*
X77265D01*
X70310Y25968D02*
X77572D01*
X70310Y26068D02*
X77539D01*
X70310Y25868D02*
X77606D01*
X70310Y26268D02*
X77471D01*
X70310Y26368D02*
X77437D01*
X70310Y26168D02*
X77505D01*
X70310Y27868D02*
X76911D01*
X70310Y27968D02*
X76874D01*
X70310Y27768D02*
X76947D01*
X70301Y28168D02*
X76801D01*
X70292Y28268D02*
X76765D01*
X70307Y28068D02*
X76838D01*
X70310Y27268D02*
X77125D01*
X70310Y27368D02*
X77090D01*
X70310Y27168D02*
X77160D01*
X70310Y27568D02*
X77019D01*
X70310Y27668D02*
X76983D01*
X70310Y27468D02*
X77054D01*
X70310Y24168D02*
X78151D01*
X70310Y24268D02*
X78120D01*
X70310Y24068D02*
X78182D01*
X70310Y24468D02*
X78058D01*
X70310Y24568D02*
X78026D01*
X70310Y24368D02*
X78089D01*
X70310Y23568D02*
X78334D01*
X70310Y23668D02*
X78304D01*
X70310Y23468D02*
X78364D01*
X70310Y23868D02*
X78243D01*
X70310Y23968D02*
X78212D01*
X70310Y23768D02*
X78274D01*
X70310Y25368D02*
X77770D01*
X70310Y25468D02*
X77737D01*
X70310Y25268D02*
X77803D01*
X70310Y25668D02*
X77672D01*
X70310Y25768D02*
X77639D01*
X70310Y25568D02*
X77705D01*
X70310Y24768D02*
X77963D01*
X70310Y24868D02*
X77931D01*
X70310Y24668D02*
X77995D01*
X70310Y25068D02*
X77867D01*
X70310Y25168D02*
X77835D01*
X70310Y24968D02*
X77899D01*
X70090Y29068D02*
X76466D01*
X70047Y29168D02*
X76428D01*
X70163Y28868D02*
X76541D01*
X70128Y28968D02*
X76504D01*
X69948Y29368D02*
X76351D01*
X69892Y29468D02*
X76312D01*
X70000Y29268D02*
X76389D01*
X70263Y28468D02*
X76691D01*
X70243Y28568D02*
X76654D01*
X70279Y28368D02*
X76728D01*
X70193Y28768D02*
X76579D01*
X70220Y28668D02*
X76616D01*
X60150Y26368D02*
X61225D01*
X60150Y26268D02*
X61325D01*
X60150Y26568D02*
X61025D01*
X60150Y26668D02*
X60925D01*
X60150Y26468D02*
X61125D01*
X60150Y25868D02*
X61725D01*
X60150Y27443D02*
X61770Y25823D01*
X60150Y25768D02*
X61770D01*
X60150Y26068D02*
X61525D01*
X60150Y26168D02*
X61425D01*
X60150Y25968D02*
X61625D01*
X60150Y24068D02*
X61770D01*
X60150Y24168D02*
X61770D01*
X60150Y23968D02*
X61770D01*
X60150Y24368D02*
X61770D01*
X60150Y24468D02*
X61770D01*
X60150Y24268D02*
X61770D01*
X60150Y23468D02*
X61770D01*
X60150Y23568D02*
X61770D01*
X60150Y23368D02*
X61770D01*
X60150Y23768D02*
X61770D01*
X60150Y23868D02*
X61770D01*
X60150Y23668D02*
X61770D01*
X60150Y25268D02*
X61770D01*
X60150Y25368D02*
X61770D01*
X60150Y25168D02*
X61770D01*
X60150Y25568D02*
X61770D01*
X60150Y25668D02*
X61770D01*
X60150Y25468D02*
X61770D01*
X60150Y24668D02*
X61770D01*
X60150Y24768D02*
X61770D01*
X60150Y24568D02*
X61770D01*
X60150Y24968D02*
X61770D01*
X60150Y25068D02*
X61770D01*
X60150Y24868D02*
X61770D01*
X46945Y52268D02*
X62945D01*
X46692Y52368D02*
X62862D01*
X47319Y52068D02*
X63111D01*
X47148Y52168D02*
X63028D01*
X35046Y52568D02*
X62695D01*
X18885Y53868D02*
X61583D01*
X46325Y52468D02*
X62779D01*
X47924Y51568D02*
X63520D01*
X47824Y51668D02*
X63438D01*
X48024Y51468D02*
X63601D01*
X47599Y51868D02*
X63275D01*
X47468Y51968D02*
X63193D01*
X47717Y51768D02*
X63357D01*
X18485Y53468D02*
X61931D01*
X18385Y53368D02*
X62017D01*
X18285Y53268D02*
X62103D01*
X18785Y53768D02*
X61671D01*
X18685Y53668D02*
X61758D01*
X18585Y53568D02*
X61844D01*
X17885Y52868D02*
X62443D01*
X17785Y52768D02*
X62527D01*
X17685Y52668D02*
X62612D01*
X18185Y53168D02*
X62188D01*
X18085Y53068D02*
X62273D01*
X17985Y52968D02*
X62358D01*
X49724Y49768D02*
X64938D01*
X49624Y49868D02*
X64861D01*
X49824Y49668D02*
X65014D01*
X49424Y50068D02*
X64707D01*
X49324Y50168D02*
X64630D01*
X49524Y49968D02*
X64784D01*
X50324Y49168D02*
X65393D01*
X50224Y49268D02*
X65317D01*
X50424Y49068D02*
X65468D01*
X50024Y49468D02*
X65166D01*
X49924Y49568D02*
X65090D01*
X50124Y49368D02*
X65242D01*
X48524Y50968D02*
X64001D01*
X48424Y51068D02*
X63922D01*
X48624Y50868D02*
X64081D01*
X48224Y51268D02*
X63762D01*
X48124Y51368D02*
X63681D01*
X48324Y51168D02*
X63842D01*
X49124Y50368D02*
X64474D01*
X49024Y50468D02*
X64396D01*
X49224Y50268D02*
X64552D01*
X48824Y50668D02*
X64239D01*
X48724Y50768D02*
X64160D01*
X48924Y50568D02*
X64317D01*
X21942Y58468D02*
X57241D01*
X21938Y58368D02*
X57342D01*
X21932Y58268D02*
X57444D01*
X21922Y58168D02*
X57545D01*
X21943Y58668D02*
X57036D01*
X21940Y58768D02*
X56933D01*
X21944Y58568D02*
X57138D01*
X21860Y57768D02*
X57946D01*
X21838Y57668D02*
X58045D01*
X21813Y57568D02*
X58144D01*
X21911Y58068D02*
X57646D01*
X21896Y57968D02*
X57746D01*
X21879Y57868D02*
X57846D01*
X21685Y57168D02*
X58537D01*
X21646Y57068D02*
X58635D01*
X21603Y56968D02*
X58732D01*
X21785Y57468D02*
X58243D01*
X21755Y57368D02*
X58341D01*
X21721Y57268D02*
X58439D01*
X21399Y56568D02*
X59116D01*
X21339Y56468D02*
X59212D01*
X21274Y56368D02*
X59307D01*
X21557Y56868D02*
X58828D01*
X21508Y56768D02*
X58925D01*
X21455Y56668D02*
X59021D01*
X20970Y55968D02*
X59684D01*
X20881Y55868D02*
X59777D01*
X20785Y55768D02*
X59871D01*
X21205Y56268D02*
X59402D01*
X21132Y56168D02*
X59496D01*
X21054Y56068D02*
X59590D01*
X20385Y55368D02*
X60240D01*
X20285Y55268D02*
X60332D01*
X20185Y55168D02*
X60423D01*
X20685Y55668D02*
X59963D01*
X20585Y55568D02*
X60056D01*
X20485Y55468D02*
X60148D01*
X19785Y54768D02*
X60786D01*
X19685Y54668D02*
X60875D01*
X19585Y54568D02*
X60965D01*
X20085Y55068D02*
X60514D01*
X19985Y54968D02*
X60605D01*
X19885Y54868D02*
X60696D01*
X19185Y54168D02*
X61320D01*
X19085Y54068D02*
X61408D01*
X18985Y53968D02*
X61496D01*
X19485Y54468D02*
X61054D01*
X19385Y54368D02*
X61143D01*
X19285Y54268D02*
X61232D01*
X56924Y42568D02*
X69864D01*
X56824Y42668D02*
X69803D01*
X57124Y42368D02*
X69985D01*
X57024Y42468D02*
X69925D01*
X56624Y42868D02*
X69680D01*
X56524Y42968D02*
X69619D01*
X56724Y42768D02*
X69742D01*
X57624Y41868D02*
X70285D01*
X57524Y41968D02*
X70225D01*
X57724Y41768D02*
X70344D01*
X57324Y42168D02*
X70106D01*
X57224Y42268D02*
X70045D01*
X57424Y42068D02*
X70166D01*
X55824Y43668D02*
X69182D01*
X55724Y43768D02*
X69119D01*
X55924Y43568D02*
X69245D01*
X55524Y43968D02*
X68992D01*
X55424Y44068D02*
X68928D01*
X55624Y43868D02*
X69056D01*
X56324Y43168D02*
X69495D01*
X56224Y43268D02*
X69433D01*
X56424Y43068D02*
X69557D01*
X56024Y43468D02*
X69308D01*
X47848Y51645D02*
X69425Y30068D01*
X56124Y43368D02*
X69370D01*
X59424Y40068D02*
X71325D01*
X59324Y40168D02*
X71269D01*
X59524Y39968D02*
X71381D01*
X59124Y40368D02*
X71156D01*
X59024Y40468D02*
X71099D01*
X59224Y40268D02*
X71213D01*
X60024Y39468D02*
X71659D01*
X59924Y39568D02*
X71604D01*
X60124Y39368D02*
X71714D01*
X59724Y39768D02*
X71493D01*
X59624Y39868D02*
X71437D01*
X59824Y39668D02*
X71548D01*
X58224Y41268D02*
X70639D01*
X58124Y41368D02*
X70580D01*
X58324Y41168D02*
X70697D01*
X57924Y41568D02*
X70463D01*
X57824Y41668D02*
X70404D01*
X58024Y41468D02*
X70521D01*
X58824Y40668D02*
X70985D01*
X58724Y40768D02*
X70928D01*
X58924Y40568D02*
X71042D01*
X58524Y40968D02*
X70813D01*
X58424Y41068D02*
X70755D01*
X58624Y40868D02*
X70870D01*
X52124Y47368D02*
X66707D01*
X52024Y47468D02*
X66635D01*
X52324Y47168D02*
X66848D01*
X52224Y47268D02*
X66777D01*
X51824Y47668D02*
X66493D01*
X51724Y47768D02*
X66421D01*
X51924Y47568D02*
X66564D01*
X52824Y46668D02*
X67197D01*
X52724Y46768D02*
X67128D01*
X52924Y46568D02*
X67267D01*
X52524Y46968D02*
X66988D01*
X52424Y47068D02*
X66918D01*
X52624Y46868D02*
X67058D01*
X50924Y48568D02*
X65839D01*
X50824Y48668D02*
X65765D01*
X51024Y48468D02*
X65912D01*
X50624Y48868D02*
X65617D01*
X50524Y48968D02*
X65542D01*
X50724Y48768D02*
X65691D01*
X51524Y47968D02*
X66277D01*
X51424Y48068D02*
X66204D01*
X51624Y47868D02*
X66349D01*
X51224Y48268D02*
X66059D01*
X51124Y48368D02*
X65986D01*
X51324Y48168D02*
X66132D01*
X54624Y44868D02*
X68411D01*
X54524Y44968D02*
X68345D01*
X54724Y44768D02*
X68476D01*
X54324Y45168D02*
X68214D01*
X54224Y45268D02*
X68147D01*
X54424Y45068D02*
X68280D01*
X55224Y44268D02*
X68800D01*
X55124Y44368D02*
X68736D01*
X55324Y44168D02*
X68864D01*
X54924Y44568D02*
X68607D01*
X54824Y44668D02*
X68542D01*
X55024Y44468D02*
X68671D01*
X53424Y46068D02*
X67610D01*
X53324Y46168D02*
X67542D01*
X53524Y45968D02*
X67678D01*
X53124Y46368D02*
X67405D01*
X53024Y46468D02*
X67336D01*
X53224Y46268D02*
X67473D01*
X54024Y45468D02*
X68014D01*
X53924Y45568D02*
X67947D01*
X54124Y45368D02*
X68081D01*
X53724Y45768D02*
X67813D01*
X53624Y45868D02*
X67745D01*
X53824Y45668D02*
X67880D01*
X70310Y16868D02*
X80043D01*
X70310Y16968D02*
X80022D01*
X70310Y16668D02*
X80085D01*
X70310Y16768D02*
X80064D01*
X70310Y17168D02*
X79979D01*
X70310Y17268D02*
X79958D01*
X70310Y17068D02*
X80000D01*
X70310Y16168D02*
X80187D01*
X70310Y16268D02*
X80167D01*
X70310Y16068D02*
X80207D01*
X70310Y16468D02*
X80126D01*
X70310Y16568D02*
X80105D01*
X70310Y16368D02*
X80147D01*
X70310Y18068D02*
X79781D01*
X70310Y18168D02*
X79758D01*
X70310Y17968D02*
X79803D01*
X70310Y18368D02*
X79712D01*
X70310Y18468D02*
X79689D01*
X70310Y18268D02*
X79735D01*
X70310Y17468D02*
X79914D01*
X70310Y17568D02*
X79892D01*
X70310Y17368D02*
X79936D01*
X70310Y17768D02*
X79848D01*
X70310Y17868D02*
X79826D01*
X70310Y17668D02*
X79870D01*
X70310Y14368D02*
X80529D01*
X70310Y14468D02*
X80511D01*
X70310Y14268D02*
X80547D01*
X70310Y14668D02*
X80475D01*
X70310Y14768D02*
X80456D01*
X70310Y14568D02*
X80493D01*
X70310Y13768D02*
X80633D01*
X70310Y13868D02*
X80616D01*
X70310Y13668D02*
X80650D01*
X70310Y14068D02*
X80582D01*
X70310Y14168D02*
X80564D01*
X70310Y13968D02*
X80599D01*
X70310Y15568D02*
X80306D01*
X70310Y15668D02*
X80286D01*
X70310Y15468D02*
X80325D01*
X70310Y15868D02*
X80247D01*
X70310Y15968D02*
X80227D01*
X70310Y15768D02*
X80267D01*
X70310Y14968D02*
X80420D01*
X70310Y15068D02*
X80401D01*
X70310Y14868D02*
X80438D01*
X70310Y15268D02*
X80363D01*
X70310Y15368D02*
X80344D01*
X70310Y15168D02*
X80382D01*
X70310Y21768D02*
X78853D01*
X70310Y21868D02*
X78825D01*
X70310Y21568D02*
X78907D01*
X70310Y21668D02*
X78880D01*
X70310Y22068D02*
X78769D01*
X70310Y22168D02*
X78741D01*
X70310Y21968D02*
X78797D01*
X70310Y21068D02*
X79042D01*
X70310Y21168D02*
X79016D01*
X70310Y20968D02*
X79069D01*
X70310Y21368D02*
X78962D01*
X70310Y21468D02*
X78935D01*
X70310Y21268D02*
X78989D01*
X70310Y22968D02*
X78512D01*
X70310Y23068D02*
X78482D01*
X70310Y22868D02*
X78541D01*
X70310Y23268D02*
X78423D01*
X70310Y23368D02*
X78394D01*
X70310Y23168D02*
X78453D01*
X70310Y22368D02*
X78685D01*
X70310Y22468D02*
X78656D01*
X70310Y22268D02*
X78713D01*
X70310Y22668D02*
X78599D01*
X70310Y22768D02*
X78570D01*
X70310Y22568D02*
X78628D01*
X70310Y19268D02*
X79500D01*
X70310Y19368D02*
X79475D01*
X70310Y19168D02*
X79524D01*
X70310Y19568D02*
X79426D01*
X70310Y19668D02*
X79402D01*
X70310Y19468D02*
X79451D01*
X70310Y18668D02*
X79643D01*
X70310Y18768D02*
X79619D01*
X70310Y18568D02*
X79666D01*
X70310Y18968D02*
X79572D01*
X70310Y19068D02*
X79548D01*
X70310Y18868D02*
X79596D01*
X70310Y20468D02*
X79200D01*
X70310Y20568D02*
X79174D01*
X70310Y20368D02*
X79225D01*
X70310Y20768D02*
X79121D01*
X70310Y20868D02*
X79095D01*
X70310Y20668D02*
X79148D01*
X70310Y19868D02*
X79352D01*
X70310Y19968D02*
X79327D01*
X70310Y19768D02*
X79377D01*
X70310Y20168D02*
X79276D01*
X70310Y20268D02*
X79251D01*
X70310Y20068D02*
X79302D01*
X70310Y7068D02*
X81494D01*
X70310Y7168D02*
X81485D01*
X70310Y6868D02*
X81511D01*
X70310Y6968D02*
X81502D01*
X70310Y7368D02*
X81467D01*
X70310Y7468D02*
X81458D01*
X70310Y7268D02*
X81476D01*
X70310Y6368D02*
X81551D01*
X70310Y6468D02*
X81543D01*
X70310Y6268D02*
X81559D01*
X70310Y6668D02*
X81527D01*
X70310Y6768D02*
X81519D01*
X70310Y6568D02*
X81536D01*
X70310Y8268D02*
X81381D01*
X70310Y8368D02*
X81371D01*
X70310Y8168D02*
X81391D01*
X70310Y8568D02*
X81350D01*
X70310Y8668D02*
X81339D01*
X70310Y8468D02*
X81360D01*
X70310Y7668D02*
X81440D01*
X70310Y7768D02*
X81430D01*
X70310Y7568D02*
X81449D01*
X70310Y7968D02*
X81411D01*
X70310Y8068D02*
X81401D01*
X70310Y7868D02*
X81420D01*
X70310Y4568D02*
X81672D01*
X70310Y4668D02*
X81666D01*
X70310Y4468D02*
X81677D01*
X70310Y4868D02*
X81655D01*
X70310Y4968D02*
X81649D01*
X70310Y4768D02*
X81660D01*
X70310Y3968D02*
X81703D01*
X70310Y4068D02*
X81698D01*
X70310Y3868D02*
X81708D01*
X70310Y4268D02*
X81688D01*
X70310Y4368D02*
X81683D01*
X70310Y4168D02*
X81693D01*
X70310Y5768D02*
X81596D01*
X70310Y5868D02*
X81589D01*
X70310Y5668D02*
X81603D01*
X70310Y6068D02*
X81574D01*
X70310Y6168D02*
X81567D01*
X70310Y5968D02*
X81581D01*
X70310Y5168D02*
X81636D01*
X70310Y5268D02*
X81630D01*
X70310Y5068D02*
X81642D01*
X70310Y5468D02*
X81616D01*
X70310Y5568D02*
X81610D01*
X70310Y5368D02*
X81623D01*
X70310Y11968D02*
X80920D01*
X70310Y12068D02*
X80905D01*
X70310Y11768D02*
X80949D01*
X70310Y11868D02*
X80935D01*
X70310Y12268D02*
X80875D01*
X70310Y12368D02*
X80860D01*
X70310Y12168D02*
X80890D01*
X70310Y11268D02*
X81020D01*
X70310Y11368D02*
X81006D01*
X70310Y11168D02*
X81034D01*
X70310Y11568D02*
X80978D01*
X70310Y11668D02*
X80964D01*
X70310Y11468D02*
X80992D01*
X70310Y13168D02*
X80733D01*
X70310Y13268D02*
X80717D01*
X70310Y13068D02*
X80750D01*
X70310Y13468D02*
X80684D01*
X70310Y13568D02*
X80667D01*
X70310Y13368D02*
X80701D01*
X70310Y12568D02*
X80829D01*
X70310Y12668D02*
X80813D01*
X70310Y12468D02*
X80844D01*
X70310Y12868D02*
X80782D01*
X70310Y12968D02*
X80766D01*
X70310Y12768D02*
X80798D01*
X70310Y9468D02*
X81250D01*
X70310Y9568D02*
X81238D01*
X70310Y9368D02*
X81262D01*
X70310Y9768D02*
X81215D01*
X70310Y9868D02*
X81202D01*
X70310Y9668D02*
X81227D01*
X70310Y8868D02*
X81318D01*
X70310Y8968D02*
X81307D01*
X70310Y8768D02*
X81328D01*
X70310Y9168D02*
X81284D01*
X70310Y9268D02*
X81273D01*
X70310Y9068D02*
X81296D01*
X70310Y10668D02*
X81101D01*
X70310Y10768D02*
X81088D01*
X70310Y10568D02*
X81114D01*
X70310Y10968D02*
X81061D01*
X70310Y11068D02*
X81048D01*
X70310Y10868D02*
X81075D01*
X70310Y10068D02*
X81178D01*
X70310Y10168D02*
X81166D01*
X70310Y9968D02*
X81190D01*
X70310Y10368D02*
X81140D01*
X70310Y10468D02*
X81127D01*
X70310Y10268D02*
X81153D01*
X60150Y16768D02*
X61770D01*
X60150Y16868D02*
X61770D01*
X60150Y16568D02*
X61770D01*
X60150Y16668D02*
X61770D01*
X60150Y17068D02*
X61770D01*
X60150Y17168D02*
X61770D01*
X60150Y16968D02*
X61770D01*
X60150Y16068D02*
X61770D01*
X60150Y16168D02*
X61770D01*
X60150Y15968D02*
X61770D01*
X60150Y16368D02*
X61770D01*
X60150Y16468D02*
X61770D01*
X60150Y16268D02*
X61770D01*
X60150Y17968D02*
X61770D01*
X60150Y18068D02*
X61770D01*
X60150Y17868D02*
X61770D01*
X60150Y18268D02*
X61770D01*
X60150Y18368D02*
X61770D01*
X60150Y18168D02*
X61770D01*
X60150Y17368D02*
X61770D01*
X60150Y17468D02*
X61770D01*
X60150Y17268D02*
X61770D01*
X60150Y17668D02*
X61770D01*
X60150Y17768D02*
X61770D01*
X60150Y17568D02*
X61770D01*
X60150Y14268D02*
X61770D01*
X60150Y14368D02*
X61770D01*
X60150Y14168D02*
X61770D01*
X60150Y14568D02*
X61770D01*
X60150Y14668D02*
X61770D01*
X60150Y14468D02*
X61770D01*
X60150Y13668D02*
X61770D01*
X60150Y13768D02*
X61770D01*
X60150Y13568D02*
X61770D01*
X60150Y13968D02*
X61770D01*
X60150Y14068D02*
X61770D01*
X60150Y13868D02*
X61770D01*
X60150Y15468D02*
X61770D01*
X60150Y15568D02*
X61770D01*
X60150Y15368D02*
X61770D01*
X60150Y15768D02*
X61770D01*
X60150Y15868D02*
X61770D01*
X60150Y15668D02*
X61770D01*
X60150Y14868D02*
X61770D01*
X60150Y14968D02*
X61770D01*
X60150Y14768D02*
X61770D01*
X60150Y15168D02*
X61770D01*
X60150Y15268D02*
X61770D01*
X60150Y15068D02*
X61770D01*
X60150Y21668D02*
X61770D01*
X60150Y21768D02*
X61770D01*
X60150Y21468D02*
X61770D01*
X60150Y21568D02*
X61770D01*
X60150Y21968D02*
X61770D01*
X60150Y22068D02*
X61770D01*
X60150Y21868D02*
X61770D01*
X60150Y20968D02*
X61770D01*
X60150Y21068D02*
X61770D01*
X60150Y20868D02*
X61770D01*
X60150Y21268D02*
X61770D01*
X60150Y21368D02*
X61770D01*
X60150Y21168D02*
X61770D01*
X60150Y22868D02*
X61770D01*
X60150Y22968D02*
X61770D01*
X60150Y22768D02*
X61770D01*
X60150Y23168D02*
X61770D01*
X60150Y23268D02*
X61770D01*
X60150Y23068D02*
X61770D01*
X60150Y22268D02*
X61770D01*
X60150Y22368D02*
X61770D01*
X60150Y22168D02*
X61770D01*
X60150Y22568D02*
X61770D01*
X60150Y22668D02*
X61770D01*
X60150Y22468D02*
X61770D01*
X60150Y19168D02*
X61770D01*
X60150Y19268D02*
X61770D01*
X60150Y19068D02*
X61770D01*
X60150Y19468D02*
X61770D01*
X60150Y19568D02*
X61770D01*
X60150Y19368D02*
X61770D01*
X60150Y18568D02*
X61770D01*
X60150Y18668D02*
X61770D01*
X60150Y18468D02*
X61770D01*
X60150Y18868D02*
X61770D01*
X60150Y18968D02*
X61770D01*
X60150Y18768D02*
X61770D01*
X60150Y20368D02*
X61770D01*
X60150Y20468D02*
X61770D01*
X60150Y20268D02*
X61770D01*
X60150Y20668D02*
X61770D01*
X60150Y20768D02*
X61770D01*
X60150Y20568D02*
X61770D01*
X60150Y19768D02*
X61770D01*
X60150Y19868D02*
X61770D01*
X60150Y19668D02*
X61770D01*
X60150Y20068D02*
X61770D01*
X60150Y20168D02*
X61770D01*
X60150Y19968D02*
X61770D01*
X60150Y7068D02*
X61770D01*
X60150Y7168D02*
X61770D01*
X60150Y6868D02*
X61770D01*
X60150Y6968D02*
X61770D01*
X60150Y7368D02*
X61770D01*
X60150Y7468D02*
X61770D01*
X60150Y7268D02*
X61770D01*
X60150Y6368D02*
X61770D01*
X60150Y6468D02*
X61770D01*
X60150Y6268D02*
X61770D01*
X60150Y6668D02*
X61770D01*
X60150Y6768D02*
X61770D01*
X60150Y6568D02*
X61770D01*
X60150Y8268D02*
X61770D01*
X60150Y8368D02*
X61770D01*
X60150Y8168D02*
X61770D01*
X60150Y8568D02*
X61770D01*
X60150Y8668D02*
X61770D01*
X60150Y8468D02*
X61770D01*
X60150Y7668D02*
X61770D01*
X60150Y7768D02*
X61770D01*
X60150Y7568D02*
X61770D01*
X60150Y7968D02*
X61770D01*
X60150Y8068D02*
X61770D01*
X60150Y7868D02*
X61770D01*
X60150Y4568D02*
X61770D01*
X60150Y4668D02*
X61770D01*
X60150Y4468D02*
X61770D01*
X60150Y4868D02*
X61770D01*
X60150Y4968D02*
X61770D01*
X60150Y4768D02*
X61770D01*
X60150Y3968D02*
X61770D01*
X60150Y4068D02*
X61770D01*
X60150Y3868D02*
X61770D01*
X60150Y4268D02*
X61770D01*
X60150Y4368D02*
X61770D01*
X60150Y4168D02*
X61770D01*
X60150Y5768D02*
X61770D01*
X60150Y5868D02*
X61770D01*
X60150Y5668D02*
X61770D01*
X60150Y6068D02*
X61770D01*
X60150Y6168D02*
X61770D01*
X60150Y5968D02*
X61770D01*
X60150Y5168D02*
X61770D01*
X60150Y5268D02*
X61770D01*
X60150Y5068D02*
X61770D01*
X60150Y5468D02*
X61770D01*
X60150Y5568D02*
X61770D01*
X60150Y5368D02*
X61770D01*
X60150Y11868D02*
X61770D01*
X60150Y11968D02*
X61770D01*
X60150Y11768D02*
X61770D01*
X60150Y12168D02*
X61770D01*
X60150Y12268D02*
X61770D01*
X60150Y12068D02*
X61770D01*
X60150Y11268D02*
X61770D01*
X60150Y11368D02*
X61770D01*
X60150Y11168D02*
X61770D01*
X60150Y11568D02*
X61770D01*
X60150Y11668D02*
X61770D01*
X60150Y11468D02*
X61770D01*
X60150Y13068D02*
X61770D01*
X60150Y13168D02*
X61770D01*
X60150Y12968D02*
X61770D01*
X60150Y13368D02*
X61770D01*
X60150Y13468D02*
X61770D01*
X60150Y13268D02*
X61770D01*
X60150Y12468D02*
X61770D01*
X60150Y12568D02*
X61770D01*
X60150Y12368D02*
X61770D01*
X60150Y12768D02*
X61770D01*
X60150Y12868D02*
X61770D01*
X60150Y12668D02*
X61770D01*
X60150Y9468D02*
X61770D01*
X60150Y9568D02*
X61770D01*
X60150Y9368D02*
X61770D01*
X60150Y9768D02*
X61770D01*
X60150Y9868D02*
X61770D01*
X60150Y9668D02*
X61770D01*
X60150Y8868D02*
X61770D01*
X60150Y8968D02*
X61770D01*
X60150Y8768D02*
X61770D01*
X60150Y9168D02*
X61770D01*
X60150Y9268D02*
X61770D01*
X60150Y9068D02*
X61770D01*
X60150Y10668D02*
X61770D01*
X60150Y10768D02*
X61770D01*
X60150Y10568D02*
X61770D01*
X60150Y10968D02*
X61770D01*
X60150Y11068D02*
X61770D01*
X60150Y10868D02*
X61770D01*
X60150Y10068D02*
X61770D01*
X60150Y10168D02*
X61770D01*
X60150Y9968D02*
X61770D01*
X60150Y10368D02*
X61770D01*
X60150Y10468D02*
X61770D01*
X60150Y10268D02*
X61770D01*
X19908Y62068D02*
X53321D01*
X19720Y62168D02*
X53205D01*
X20227Y61868D02*
X53553D01*
X20076Y61968D02*
X53438D01*
X19240Y62368D02*
X52971D01*
X18899Y62468D02*
X52853D01*
X19501Y62268D02*
X53088D01*
X20816Y61368D02*
X54124D01*
X20715Y61468D02*
X54011D01*
X20910Y61268D02*
X54237D01*
X20491Y61668D02*
X53783D01*
X20365Y61768D02*
X53668D01*
X20607Y61568D02*
X53897D01*
X14371Y62768D02*
X52497D01*
X14174Y62868D02*
X52377D01*
X14543Y62668D02*
X52616D01*
X13633Y63068D02*
X52137D01*
X13140Y63168D02*
X52016D01*
X13937Y62968D02*
X52257D01*
X14694Y62568D02*
X17590D01*
X18298D02*
X52735D01*
X14954Y62368D02*
X16648D01*
X14831Y62468D02*
X16989D01*
X15067Y62268D02*
X16386D01*
X21821Y59568D02*
X56097D01*
X21794Y59668D02*
X55990D01*
X21845Y59468D02*
X56202D01*
X21732Y59868D02*
X55777D01*
X21697Y59968D02*
X55669D01*
X21765Y59768D02*
X55884D01*
X21925Y58968D02*
X56726D01*
X21915Y59068D02*
X56622D01*
X21934Y58868D02*
X56830D01*
X21885Y59268D02*
X56413D01*
X21866Y59368D02*
X56308D01*
X21901Y59168D02*
X56518D01*
X21295Y60768D02*
X54796D01*
X21228Y60868D02*
X54685D01*
X21358Y60668D02*
X54907D01*
X21079Y61068D02*
X54462D01*
X20997Y61168D02*
X54350D01*
X21156Y60968D02*
X54574D01*
X21617Y60168D02*
X55454D01*
X21572Y60268D02*
X55345D01*
X21658Y60068D02*
X55562D01*
X21472Y60468D02*
X55127D01*
X21417Y60568D02*
X55017D01*
X21524Y60368D02*
X55236D01*
X15171Y62168D02*
X16168D01*
X4707Y61168D02*
X9517D01*
X4939Y60968D02*
X9432D01*
X4828Y61068D02*
X9473D01*
X5135Y60768D02*
X9361D01*
X5041Y60868D02*
X9395D01*
X5222Y60668D02*
X9330D01*
X5378Y60468D02*
X9279D01*
X5303Y60568D02*
X9303D01*
X5448Y60368D02*
X9258D01*
X5572Y60168D02*
X9225D01*
X5512Y60268D02*
X9240D01*
X5628Y60068D02*
X9213D01*
X3559Y61768D02*
X9872D01*
X3139Y61868D02*
X9948D01*
X3843Y61668D02*
X9801D01*
X4260Y61468D02*
X9674D01*
X4069Y61568D02*
X9735D01*
X4426Y61368D02*
X9618D01*
X4574Y61268D02*
X9566D01*
X-4186Y60368D02*
X-368D01*
X-4168Y60268D02*
X-432D01*
X-4141Y60068D02*
X-548D01*
X-4153Y60168D02*
X-492D01*
X-4131Y59968D02*
X-599D01*
X5936Y59268D02*
X9219D01*
X5909Y59368D02*
X9208D01*
X5959Y59168D02*
X9233D01*
X5846Y59568D02*
X9195D01*
X5810Y59668D02*
X9193D01*
X5879Y59468D02*
X9201D01*
X6031Y58668D02*
X9348D01*
X6023Y58768D02*
X9319D01*
X6037Y58568D02*
X9380D01*
X5997Y58968D02*
X9270D01*
X5979Y59068D02*
X9250D01*
X6011Y58868D02*
X9293D01*
X5726Y59868D02*
X9197D01*
X5679Y59968D02*
X9204D01*
X5770Y59768D02*
X9194D01*
X-4121D02*
X-690D01*
X-4125Y59868D02*
X-646D01*
X-4120Y59668D02*
X-730D01*
X-4122Y59568D02*
X-766D01*
X-4127Y59468D02*
X-799D01*
X-4135Y59368D02*
X-829D01*
X-4146Y59268D02*
X-856D01*
X-4159Y59168D02*
X-879D01*
X-4176Y59068D02*
X-899D01*
X37385Y32368D02*
X43701D01*
X37268Y32268D02*
X43801D01*
X37691Y32668D02*
X43401D01*
X37591Y32568D02*
X43501D01*
X37491Y32468D02*
X43601D01*
X41210Y34860D02*
X49340Y26730D01*
X36620Y31868D02*
X44201D01*
X36371Y31768D02*
X44301D01*
X37137Y32168D02*
X43901D01*
X36990Y32068D02*
X44001D01*
X36820Y31968D02*
X44101D01*
X35213Y52530D02*
X45720D01*
X25482Y31168D02*
X44901D01*
X25700Y31068D02*
X45001D01*
X36017Y31668D02*
X44401D01*
X24835Y31368D02*
X44701D01*
X25213Y31268D02*
X44801D01*
X26441Y30568D02*
X45501D01*
X26322Y30668D02*
X45401D01*
X26550Y30468D02*
X45601D01*
X26047Y30868D02*
X45201D01*
X25885Y30968D02*
X45101D01*
X26192Y30768D02*
X45301D01*
X27531Y28768D02*
X47301D01*
X27505Y28868D02*
X47201D01*
X27553Y28668D02*
X47401D01*
X27443Y29068D02*
X47001D01*
X27407Y29168D02*
X46901D01*
X27476Y28968D02*
X47101D01*
X27622Y28168D02*
X47901D01*
X27615Y28268D02*
X47801D01*
X27628Y28068D02*
X48001D01*
X27590Y28468D02*
X47601D01*
X27573Y28568D02*
X47501D01*
X27604Y28368D02*
X47701D01*
X26982Y29968D02*
X46101D01*
X26909Y30068D02*
X46001D01*
X27051Y29868D02*
X46201D01*
X26743Y30268D02*
X45801D01*
X26651Y30368D02*
X45701D01*
X26829Y30168D02*
X45901D01*
X27325Y29368D02*
X46701D01*
X27279Y29468D02*
X46601D01*
X27368Y29268D02*
X46801D01*
X27174Y29668D02*
X46401D01*
X27115Y29768D02*
X46301D01*
X27228Y29568D02*
X46501D01*
X17585Y52568D02*
X33645D01*
X17547Y52530D02*
X20772Y55756D01*
X6040Y58468D02*
X9416D01*
X6040Y58368D02*
X9455D01*
X6037Y58268D02*
X9498D01*
X17547Y52530D02*
X33479D01*
X5996Y57868D02*
X9709D01*
X5979Y57768D02*
X9772D01*
X5958Y57668D02*
X9841D01*
X6031Y58168D02*
X9545D01*
X6022Y58068D02*
X9595D01*
X6011Y57968D02*
X9650D01*
X5908Y57468D02*
X9994D01*
X5878Y57368D02*
X10080D01*
X5869Y57340D02*
X10106D01*
X5935Y57568D02*
X9915D01*
X40373Y34168D02*
X41901D01*
X40250Y34068D02*
X42001D01*
X40115Y33968D02*
X42101D01*
X40683Y34468D02*
X41601D01*
X40588Y34368D02*
X41701D01*
X40485Y34268D02*
X41801D01*
X39369Y33568D02*
X42501D01*
X39074Y33468D02*
X42601D01*
X38617Y33368D02*
X42701D01*
X39965Y33868D02*
X42201D01*
X39796Y33768D02*
X42301D01*
X39601Y33668D02*
X42401D01*
X38191Y33168D02*
X42901D01*
X38091Y33068D02*
X43001D01*
X37991Y32968D02*
X43101D01*
X34138Y37600D02*
X35008Y38471D01*
X38291Y33268D02*
X42801D01*
X37891Y32868D02*
X43201D01*
X37508Y32485D02*
X38363Y33340D01*
X37791Y32768D02*
X43301D01*
X-18033Y79872D02*
X17938D01*
X-18051Y79868D02*
X17955D01*
X-6705Y63068D02*
X11753D01*
X-7231Y63168D02*
X12246D01*
X-6154Y62868D02*
X11212D01*
X-6394Y62968D02*
X11449D01*
X-5954Y62768D02*
X11015D01*
X-5629Y62568D02*
X10692D01*
X-5782Y62668D02*
X10843D01*
X-5491Y62468D02*
X10555D01*
X-5253Y62268D02*
X10318D01*
X-5367Y62368D02*
X10432D01*
X-5149Y62168D02*
X10215D01*
X-19739Y79468D02*
X19643D01*
X-20137Y79368D02*
X20042D01*
X-20528Y79268D02*
X20432D01*
X-18488Y79768D02*
X18393D01*
X-18915Y79668D02*
X18819D01*
X-19331Y79568D02*
X19236D01*
X-22016Y78868D02*
X21920D01*
X-22371Y78768D02*
X22276D01*
X-22720Y78668D02*
X22625D01*
X-20910Y79168D02*
X20815D01*
X-21286Y79068D02*
X21190D01*
X-21654Y78968D02*
X21558D01*
X-4733Y61668D02*
X1237D01*
X-4804Y61768D02*
X1521D01*
X-4667Y61568D02*
X1011D01*
X-4549Y61368D02*
X654D01*
X-4605Y61468D02*
X820D01*
X-4496Y61268D02*
X506D01*
X-4403Y61068D02*
X252D01*
X-4448Y61168D02*
X373D01*
X-4362Y60968D02*
X141D01*
X-4290Y60768D02*
X-55D01*
X-4324Y60868D02*
X39D01*
X-4259Y60668D02*
X-142D01*
X-16457Y46530D02*
X32013D01*
X-16519Y46468D02*
X32084D01*
X-16619Y46368D02*
X32207D01*
X-4963Y61968D02*
X10030D01*
X-5052Y62068D02*
X10119D01*
X-4881Y61868D02*
X1941D01*
X-17019Y45968D02*
X32864D01*
X-17119Y45868D02*
X33100D01*
X-17219Y45768D02*
X33403D01*
X-16719Y46268D02*
X32344D01*
X-16819Y46168D02*
X32495D01*
X-16919Y46068D02*
X32666D01*
X-4208Y60468D02*
X-298D01*
X-4232Y60568D02*
X-223D01*
X-4195Y58968D02*
X-917D01*
X-4218Y58868D02*
X-931D01*
X-4244Y58768D02*
X-943D01*
X-20495Y58668D02*
X-10968D01*
X-4272D02*
X-951D01*
X-4305Y58568D02*
X-957D01*
X-4340Y58468D02*
X-960D01*
X-20417Y58568D02*
X-10935D01*
X-20345Y58468D02*
X-10900D01*
X-21413Y59468D02*
X-11113D01*
X-22381Y59868D02*
X-11115D01*
X-21256Y59368D02*
X-11105D01*
X-21797Y59668D02*
X-11120D01*
X-22048Y59768D02*
X-11119D01*
X-21590Y59568D02*
X-11118D01*
X-20669Y58868D02*
X-11022D01*
X-20767Y58968D02*
X-11045D01*
X-20579Y58768D02*
X-10996D01*
X-20989Y59168D02*
X-11081D01*
X-21116Y59268D02*
X-11094D01*
X-20873Y59068D02*
X-11064D01*
X-4518Y58068D02*
X-942D01*
X-4573Y57968D02*
X-931D01*
X-4631Y57868D02*
X-916D01*
X-4379Y58368D02*
X-960D01*
X-4422Y58268D02*
X-957D01*
X-4468Y58168D02*
X-951D01*
X-4916Y57468D02*
X-828D01*
X-5001Y57368D02*
X-798D01*
X-5026Y57340D02*
X-789D01*
X-4695Y57768D02*
X-899D01*
X-4763Y57668D02*
X-878D01*
X-4836Y57568D02*
X-855D01*
X-20055Y57968D02*
X-10667D01*
X-20104Y58068D02*
X-10722D01*
X-20010Y57868D02*
X-10609D01*
X-20216Y58268D02*
X-10818D01*
X-20278Y58368D02*
X-10861D01*
X-20158Y58168D02*
X-10772D01*
X-19835Y57368D02*
X-10239D01*
X-19864Y57468D02*
X-10324D01*
X-19828Y57340D02*
X-10214D01*
X-19930Y57668D02*
X-10477D01*
X-19968Y57768D02*
X-10545D01*
X-19895Y57568D02*
X-10404D01*
X-18919Y44068D02*
X33971D01*
X-19019Y43968D02*
X34004D01*
X-19119Y43868D02*
X34040D01*
X-19219Y43768D02*
X34080D01*
X-18619Y44368D02*
X33891D01*
X-18719Y44268D02*
X33915D01*
X-18819Y44168D02*
X33941D01*
X-19619Y43368D02*
X34277D01*
X-19719Y43268D02*
X34337D01*
X-19819Y43168D02*
X34401D01*
X-19319Y43668D02*
X34123D01*
X-19419Y43568D02*
X34170D01*
X-19519Y43468D02*
X34222D01*
X-20219Y42768D02*
X34713D01*
X-20319Y42668D02*
X34807D01*
X-20419Y42568D02*
X34908D01*
X-19919Y43068D02*
X34471D01*
X-20019Y42968D02*
X34545D01*
X-20119Y42868D02*
X34626D01*
X-20819Y42168D02*
X35420D01*
X-20919Y42068D02*
X35585D01*
X-21019Y41968D02*
X35775D01*
X-20519Y42468D02*
X35019D01*
X-20619Y42368D02*
X35140D01*
X-20719Y42268D02*
X35273D01*
X-21419Y41568D02*
X37415D01*
X-21519Y41468D02*
X37418D01*
X-21619Y41368D02*
X37425D01*
X-21119Y41868D02*
X36000D01*
X-21219Y41768D02*
X36281D01*
X-21319Y41668D02*
X36693D01*
X-18799Y31568D02*
X44501D01*
X-21819Y41168D02*
X37447D01*
X-18899Y31468D02*
X44601D01*
X-20010Y37600D02*
X34138D01*
X-21719Y41268D02*
X37434D01*
X-18767Y31600D02*
X35380D01*
X-22219Y40768D02*
X37526D01*
X-22319Y40668D02*
X37553D01*
X-22419Y40568D02*
X37584D01*
X-21919Y41068D02*
X37462D01*
X-22019Y40968D02*
X37480D01*
X-22119Y40868D02*
X37501D01*
X-22519Y40468D02*
X37618D01*
X-22619Y40368D02*
X37656D01*
X-22719Y40268D02*
X37446D01*
X-22819Y40168D02*
X37048D01*
X-22919Y40068D02*
X36772D01*
X-23019Y39968D02*
X36551D01*
X-17319Y45668D02*
X33855D01*
X-17419Y45568D02*
X33841D01*
X-17519Y45468D02*
X33829D01*
X-17619Y45368D02*
X33820D01*
X-17719Y45268D02*
X33814D01*
X-17819Y45168D02*
X33811D01*
X-17919Y45068D02*
X33811D01*
X-18319Y44668D02*
X33839D01*
X-18419Y44568D02*
X33854D01*
X-18519Y44468D02*
X33871D01*
X-18019Y44968D02*
X33814D01*
X-18119Y44868D02*
X33820D01*
X-18219Y44768D02*
X33828D01*
X-18999Y31368D02*
X23425D01*
X-19099Y31268D02*
X23047D01*
X-19199Y31168D02*
X22778D01*
X-19299Y31068D02*
X22561D01*
X-19399Y30968D02*
X22375D01*
X-19499Y30868D02*
X22213D01*
X-19599Y30768D02*
X22068D01*
X-19699Y30668D02*
X21938D01*
X-19799Y30568D02*
X21819D01*
X-19899Y30468D02*
X21710D01*
X-19999Y30368D02*
X21609D01*
X-20099Y30268D02*
X21517D01*
X-20199Y30168D02*
X21431D01*
X-20299Y30068D02*
X21351D01*
X-20399Y29968D02*
X21278D01*
X-20499Y29868D02*
X21209D01*
X-20599Y29768D02*
X21146D01*
X-20699Y29668D02*
X21086D01*
X-20799Y29568D02*
X21032D01*
X-20899Y29468D02*
X20981D01*
X-20999Y29368D02*
X20935D01*
X-21099Y29268D02*
X20892D01*
X-21199Y29168D02*
X20853D01*
X-21299Y29068D02*
X20817D01*
X-21399Y28968D02*
X20784D01*
X-21499Y28868D02*
X20755D01*
X-21599Y28768D02*
X20729D01*
X-21699Y28668D02*
X20707D01*
X-21799Y28568D02*
X20687D01*
X-21899Y28468D02*
X20670D01*
X-21999Y28368D02*
X20656D01*
X-22099Y28268D02*
X20645D01*
X-22199Y28168D02*
X20638D01*
X-22299Y28068D02*
X20632D01*
X26704Y25568D02*
X49340D01*
X26608Y25468D02*
X49340D01*
X26504Y25368D02*
X49340D01*
X26391Y25268D02*
X49340D01*
X26951Y25868D02*
X49340D01*
X26875Y25768D02*
X49340D01*
X26793Y25668D02*
X49340D01*
Y21200D02*
Y26730D01*
X25808Y24868D02*
X49340D01*
X25610Y24768D02*
X49340D01*
X26267Y25168D02*
X49340D01*
X26131Y25068D02*
X49340D01*
X25979Y24968D02*
X49340D01*
X22273Y24268D02*
X49340D01*
X22229Y24368D02*
X49340D01*
X22314Y24168D02*
X49340D01*
X25373Y24668D02*
X49340D01*
X25069Y24568D02*
X49340D01*
X24575Y24468D02*
X49340D01*
X22466Y23668D02*
X49340D01*
X22442Y23768D02*
X49340D01*
X22487Y23568D02*
X49340D01*
X22385Y23968D02*
X49340D01*
X22351Y24068D02*
X49340D01*
X22415Y23868D02*
X49340D01*
X22549Y22968D02*
X49340D01*
X22546Y23068D02*
X49340D01*
X22550Y22868D02*
X49340D01*
X22531Y23268D02*
X49340D01*
X22519Y23368D02*
X49340D01*
X22540Y23168D02*
X49340D01*
X22523Y22468D02*
X49340D01*
X22509Y22368D02*
X49340D01*
X31420Y21200D02*
X49340D01*
X22547Y22768D02*
X49340D01*
X22542Y22668D02*
X49340D01*
X22534Y22568D02*
X49340D01*
X22448Y22068D02*
X49340D01*
X22422Y21968D02*
X49340D01*
X22393Y21868D02*
X49340D01*
X22504Y23468D02*
X49340D01*
X22492Y22268D02*
X49340D01*
X22472Y22168D02*
X49340D01*
X22242Y21468D02*
X49340D01*
X22195Y21368D02*
X49340D01*
X22144Y21268D02*
X49340D01*
X22360Y21768D02*
X49340D01*
X22324Y21668D02*
X49340D01*
X22285Y21568D02*
X49340D01*
X27619Y27668D02*
X48401D01*
X27610Y27568D02*
X48501D01*
X27598Y27468D02*
X48601D01*
X27583Y27368D02*
X48701D01*
X27630Y27968D02*
X48101D01*
X27629Y27868D02*
X48201D01*
X27626Y27768D02*
X48301D01*
X27520Y27068D02*
X49001D01*
X27492Y26968D02*
X49101D01*
X27462Y26868D02*
X49201D01*
X27565Y27268D02*
X48801D01*
X27544Y27168D02*
X48901D01*
X27306Y26468D02*
X49340D01*
X27257Y26368D02*
X49340D01*
X27205Y26268D02*
X49340D01*
X27428Y26768D02*
X49301D01*
X27391Y26668D02*
X49340D01*
X27350Y26568D02*
X49340D01*
X27148Y26168D02*
X49340D01*
X27088Y26068D02*
X49340D01*
X27022Y25968D02*
X49340D01*
X22129Y24568D02*
X23191D01*
X22073Y24668D02*
X22887D01*
X22181Y24468D02*
X23685D01*
X22844Y17868D02*
X26431D01*
X23114Y17768D02*
X26331D01*
X23529Y17568D02*
X26131D01*
X23337Y17668D02*
X26231D01*
X23700Y17468D02*
X26031D01*
X23992Y17268D02*
X25831D01*
X23853Y17368D02*
X25931D01*
X24120Y17168D02*
X25731D01*
X24347Y16968D02*
X25531D01*
X24238Y17068D02*
X25631D01*
X24448Y16868D02*
X25431D01*
X22089Y21168D02*
X30918D01*
X22029Y21068D02*
X30402D01*
X21965Y20968D02*
X30078D01*
X21896Y20868D02*
X29825D01*
X21822Y20768D02*
X29612D01*
X21742Y20668D02*
X29427D01*
X21656Y20568D02*
X29262D01*
X21562Y20468D02*
X29114D01*
X21462Y20368D02*
X28978D01*
X21704Y18068D02*
X26631D01*
X21352Y20268D02*
X28853D01*
X22486Y17968D02*
X26531D01*
X28245Y8368D02*
X50030D01*
X28145Y8268D02*
X50030D01*
X28045Y8168D02*
X50030D01*
X27945Y8068D02*
X50030D01*
X28545Y8668D02*
X50030D01*
X28445Y8568D02*
X50030D01*
X28345Y8468D02*
X50030D01*
X27545Y7668D02*
X50030D01*
X27445Y7568D02*
X50030D01*
X27345Y7468D02*
X50030D01*
X27845Y7968D02*
X50030D01*
X27745Y7868D02*
X50030D01*
X27645Y7768D02*
X50030D01*
X26945Y7068D02*
X50030D01*
X26845Y6968D02*
X50030D01*
X26745Y6868D02*
X50030D01*
X27245Y7368D02*
X50030D01*
X27145Y7268D02*
X50030D01*
X27045Y7168D02*
X50030D01*
X26345Y6468D02*
X50030D01*
X26245Y6368D02*
X50030D01*
X26145Y6268D02*
X50030D01*
X26645Y6768D02*
X50030D01*
X26545Y6668D02*
X50030D01*
X26445Y6568D02*
X50030D01*
X25745Y5868D02*
X50030D01*
X25645Y5768D02*
X50030D01*
X25545Y5668D02*
X50030D01*
X26045Y6168D02*
X50030D01*
X25945Y6068D02*
X50030D01*
X25845Y5968D02*
X50030D01*
X25145Y5268D02*
X50030D01*
X25045Y5168D02*
X50030D01*
X24945Y5068D02*
X50030D01*
X25445Y5568D02*
X50030D01*
X25345Y5468D02*
X50030D01*
X25245Y5368D02*
X50030D01*
X24545Y4668D02*
X50030D01*
X24445Y4568D02*
X50030D01*
X24345Y4468D02*
X50030D01*
X24845Y4968D02*
X50030D01*
X24745Y4868D02*
X50030D01*
X24645Y4768D02*
X50030D01*
X23945Y4068D02*
X50030D01*
X23845Y3968D02*
X50030D01*
X23745Y3868D02*
X50030D01*
X24245Y4368D02*
X50030D01*
X24145Y4268D02*
X50030D01*
X24045Y4168D02*
X50030D01*
X32845Y12968D02*
X50030D01*
X32745Y12868D02*
X50030D01*
X32645Y12768D02*
X50030D01*
X32545Y12668D02*
X50030D01*
X33077Y13200D02*
X50030D01*
X33045Y13168D02*
X50030D01*
X32945Y13068D02*
X50030D01*
X32145Y12268D02*
X50030D01*
X32045Y12168D02*
X50030D01*
X31945Y12068D02*
X50030D01*
X32445Y12568D02*
X50030D01*
X32345Y12468D02*
X50030D01*
X32245Y12368D02*
X50030D01*
X31845Y11968D02*
X50030D01*
X31745Y11868D02*
X50030D01*
X31645Y11768D02*
X50030D01*
X24891Y16329D02*
X28586Y20023D01*
X24543Y16768D02*
X25331D01*
X31245Y11368D02*
X50030D01*
X31145Y11268D02*
X50030D01*
X31045Y11168D02*
X50030D01*
X31545Y11668D02*
X50030D01*
X31445Y11568D02*
X50030D01*
X31345Y11468D02*
X50030D01*
X30645Y10768D02*
X50030D01*
X30545Y10668D02*
X50030D01*
X30445Y10568D02*
X50030D01*
X30945Y11068D02*
X50030D01*
X30845Y10968D02*
X50030D01*
X30745Y10868D02*
X50030D01*
X30045Y10168D02*
X50030D01*
X29945Y10068D02*
X50030D01*
X29845Y9968D02*
X50030D01*
X30345Y10468D02*
X50030D01*
X30245Y10368D02*
X50030D01*
X30145Y10268D02*
X50030D01*
X29445Y9568D02*
X50030D01*
X29345Y9468D02*
X50030D01*
X29245Y9368D02*
X50030D01*
X29745Y9868D02*
X50030D01*
X29645Y9768D02*
X50030D01*
X29545Y9668D02*
X50030D01*
X28845Y8968D02*
X50030D01*
X28745Y8868D02*
X50030D01*
X28645Y8768D02*
X50030D01*
X29145Y9268D02*
X50030D01*
X29045Y9168D02*
X50030D01*
X28945Y9068D02*
X50030D01*
X20018Y26268D02*
X21055D01*
X19555Y26368D02*
X21003D01*
X20315Y26168D02*
X21112D01*
X-19545Y20468D02*
X16537D01*
X-19458Y20768D02*
X16278D01*
X-19483Y20668D02*
X16358D01*
X-19512Y20568D02*
X16444D01*
X21232Y20168D02*
X28739D01*
X21100Y20068D02*
X28632D01*
X20954Y19968D02*
X28531D01*
X-19580Y20368D02*
X16638D01*
X-19619Y20268D02*
X16748D01*
X-22699Y27668D02*
X20641D01*
X-22799Y27568D02*
X20650D01*
X-22899Y27468D02*
X20662D01*
X-22399Y27968D02*
X20630D01*
X-22499Y27868D02*
X20631D01*
X-22599Y27768D02*
X20634D01*
X-19708Y20068D02*
X17000D01*
X-22999Y27368D02*
X20677D01*
X-19758Y19968D02*
X17146D01*
X-21945Y24968D02*
X16223D01*
X-22471Y25068D02*
X16299D01*
X-19662Y20168D02*
X16868D01*
X20790Y19868D02*
X28431D01*
X20603Y19768D02*
X28331D01*
X20382Y19668D02*
X28231D01*
X-19813Y19868D02*
X17310D01*
X-19871Y19768D02*
X17497D01*
X-19935Y19668D02*
X17718D01*
X20107Y19568D02*
X28131D01*
X19713Y19468D02*
X28031D01*
X-20155Y19368D02*
X27931D01*
X-20003Y19568D02*
X17993D01*
X-20076Y19468D02*
X18387D01*
X-10060Y18070D02*
X21590D01*
X-20241Y19268D02*
X27831D01*
X-20333Y19168D02*
X27731D01*
X-20433Y19068D02*
X27631D01*
X-20541Y18968D02*
X27531D01*
X-20659Y18868D02*
X27431D01*
X-20789Y18768D02*
X27331D01*
X-20933Y18668D02*
X27231D01*
X-21094Y18568D02*
X27131D01*
X-21277Y18468D02*
X27031D01*
X-21492Y18368D02*
X26931D01*
X-21757Y18268D02*
X26831D01*
X-22124Y18168D02*
X26731D01*
X-19973Y23568D02*
X15613D01*
X-20044Y23668D02*
X15634D01*
X-19845Y23368D02*
X15581D01*
X-19907Y23468D02*
X15596D01*
X-19736Y23168D02*
X15560D01*
X-19789Y23268D02*
X15569D01*
X-19688Y23068D02*
X15554D01*
X-19499Y22568D02*
X15566D01*
X-19530Y22668D02*
X15558D01*
X-19472Y22468D02*
X15577D01*
X-19602Y22868D02*
X15550D01*
X-19643Y22968D02*
X15551D01*
X-19564Y22768D02*
X15553D01*
X-21394Y24768D02*
X16087D01*
X-21634Y24868D02*
X16152D01*
X-21195Y24668D02*
X16027D01*
X-20869Y24468D02*
X15919D01*
X-21022Y24568D02*
X15970D01*
X-20731Y24368D02*
X15871D01*
X-20493Y24168D02*
X15786D01*
X-20607Y24268D02*
X15826D01*
X-20389Y24068D02*
X15749D01*
X-20203Y23868D02*
X15685D01*
X-20292Y23968D02*
X15715D01*
X-20120Y23768D02*
X15658D01*
X-19361Y21668D02*
X15776D01*
X-19365Y21768D02*
X15740D01*
X-19360Y21568D02*
X15815D01*
X-19381Y21968D02*
X15678D01*
X-19393Y22068D02*
X15652D01*
X-19371Y21868D02*
X15707D01*
X-19367Y21368D02*
X15905D01*
X-19375Y21268D02*
X15956D01*
X-19385Y21168D02*
X16011D01*
X-19362Y21468D02*
X15858D01*
X-19399Y21068D02*
X16071D01*
X-19416Y20968D02*
X16135D01*
X-19435Y20868D02*
X16204D01*
X-19426Y22268D02*
X15608D01*
X-19448Y22368D02*
X15591D01*
X-19408Y22168D02*
X15628D01*
X-22731Y13368D02*
X-16418D01*
X-22988Y13468D02*
X-16319D01*
X-22521Y13268D02*
X-16518D01*
X-22183Y13068D02*
X-16718D01*
X-22341Y13168D02*
X-16618D01*
X-22041Y12968D02*
X-16818D01*
X-8403Y10070D02*
X18633D01*
X-8405Y10068D02*
X18631D01*
X-8505Y9968D02*
X18531D01*
X-8605Y9868D02*
X18431D01*
X-8705Y9768D02*
X18331D01*
X-8805Y9668D02*
X18231D01*
X-8905Y9568D02*
X18131D01*
X13884Y5321D02*
X18633Y10070D01*
X-9005Y9468D02*
X18031D01*
X-9105Y9368D02*
X17931D01*
X-9205Y9268D02*
X17831D01*
X-9305Y9168D02*
X17731D01*
X-9405Y9068D02*
X17631D01*
X-9505Y8968D02*
X17531D01*
X-9605Y8868D02*
X17431D01*
X-9705Y8768D02*
X17331D01*
X-9805Y8668D02*
X17231D01*
X-9905Y8568D02*
X17131D01*
X-10005Y8468D02*
X17031D01*
X-10105Y8368D02*
X16931D01*
X-10205Y8268D02*
X16831D01*
X-10305Y8168D02*
X16731D01*
X-10405Y8068D02*
X16631D01*
X-10505Y7968D02*
X16531D01*
X-10605Y7868D02*
X16431D01*
X-10705Y7768D02*
X16331D01*
X-10805Y7668D02*
X16231D01*
X-10905Y7568D02*
X16131D01*
X-11005Y7468D02*
X16031D01*
X-11105Y7368D02*
X15931D01*
X-11205Y7268D02*
X15831D01*
X-11305Y7168D02*
X15731D01*
X-11405Y7068D02*
X15631D01*
X-11505Y6968D02*
X15531D01*
X-11605Y6868D02*
X15431D01*
X-11705Y6768D02*
X15331D01*
X-11805Y6668D02*
X15231D01*
X-11905Y6568D02*
X15131D01*
X-12005Y6468D02*
X15031D01*
X-12105Y6368D02*
X14931D01*
X-12205Y6268D02*
X14831D01*
X-12305Y6168D02*
X14731D01*
X-12405Y6068D02*
X14631D01*
X-12505Y5968D02*
X14531D01*
X-12605Y5868D02*
X14431D01*
X-12705Y5768D02*
X14331D01*
X-12805Y5668D02*
X14231D01*
X-12905Y5568D02*
X14131D01*
X-13005Y5468D02*
X14031D01*
X-20926Y11568D02*
X-18218D01*
X-20972Y11668D02*
X-18118D01*
X-20884Y11468D02*
X-18319D01*
X-20810Y11268D02*
X-18519D01*
X-20845Y11368D02*
X-18419D01*
X-20778Y11168D02*
X-18619D01*
X-20750Y11068D02*
X-18719D01*
X-20851Y8936D02*
X-12893Y16893D01*
X-20725Y10968D02*
X-18819D01*
X-20683Y10768D02*
X-19018D01*
X-20702Y10868D02*
X-18918D01*
X-20667Y10668D02*
X-19118D01*
X-21796Y12768D02*
X-17019D01*
X-21913Y12868D02*
X-16918D01*
X-21689Y12668D02*
X-17119D01*
X-21499Y12468D02*
X-17319D01*
X-21590Y12568D02*
X-17219D01*
X-21415Y12368D02*
X-17419D01*
X-21264Y12168D02*
X-17618D01*
X-21336Y12268D02*
X-17519D01*
X-21196Y12068D02*
X-17718D01*
X-21075Y11868D02*
X-17918D01*
X-21133Y11968D02*
X-17818D01*
X-21021Y11768D02*
X-18018D01*
X-13105Y5368D02*
X13931D01*
X-13205Y5268D02*
X13832D01*
X-13305Y5168D02*
X13739D01*
X-13405Y5068D02*
X13651D01*
X-13505Y4968D02*
X13570D01*
X-13605Y4868D02*
X13493D01*
X-13705Y4768D02*
X13421D01*
X-13805Y4668D02*
X13329D01*
X-13905Y4568D02*
X13236D01*
X-14005Y4468D02*
X13149D01*
X-14105Y4368D02*
X13067D01*
X-14205Y4268D02*
X12991D01*
X-20644Y10468D02*
X-19318D01*
X-20654Y10568D02*
X-19218D01*
X-20636Y10368D02*
X-19418D01*
X-20630Y10168D02*
X-19619D01*
X-20632Y10268D02*
X-19519D01*
X-20631Y10068D02*
X-19719D01*
X-14305Y4168D02*
X12919D01*
X-14405Y4068D02*
X12852D01*
X-14505Y3968D02*
X12790D01*
X-20635Y9968D02*
X-19819D01*
X-14605Y3868D02*
X12731D01*
X70310Y768D02*
X81796D01*
X70310Y868D02*
X81795D01*
X70310Y568D02*
X81797D01*
X70310Y668D02*
X81797D01*
X70310Y1068D02*
X81792D01*
X70310Y1168D02*
X81791D01*
X70310Y968D02*
X81794D01*
X70310Y68D02*
X81799D01*
X70310Y168D02*
X81799D01*
X70310Y-32D02*
X81799D01*
X70310Y368D02*
X81799D01*
X70310Y468D02*
X81798D01*
X70310Y268D02*
X81799D01*
X70310Y1968D02*
X81776D01*
X70310Y2068D02*
X81773D01*
X70310Y1868D02*
X81778D01*
X70310Y2268D02*
X81768D01*
X70310Y2368D02*
X81765D01*
X70310Y2168D02*
X81771D01*
X70310Y1368D02*
X81788D01*
X70310Y1468D02*
X81786D01*
X70310Y1268D02*
X81790D01*
X70310Y1668D02*
X81782D01*
X70310Y1768D02*
X81780D01*
X70310Y1568D02*
X81784D01*
X70310Y-1432D02*
X81787D01*
X70310Y-1332D02*
X81789D01*
X70310Y-1532D02*
X81785D01*
X70310Y-1732D02*
X81781D01*
X70310Y-1632D02*
X81783D01*
X70310Y-1832D02*
X81779D01*
X70310Y-2032D02*
X81774D01*
X70310Y-1932D02*
X81777D01*
X70310Y-2132D02*
X81772D01*
X70310Y-2332D02*
X81766D01*
X70310Y-2232D02*
X81769D01*
X70310Y-2432D02*
X81763D01*
X70310Y-232D02*
X81799D01*
X70310Y-132D02*
X81799D01*
X70310Y-332D02*
X81799D01*
X70310Y-532D02*
X81798D01*
X70310Y-432D02*
X81798D01*
X70310Y-632D02*
X81797D01*
X70310Y-832D02*
X81795D01*
X70310Y-732D02*
X81796D01*
X70310Y-932D02*
X81794D01*
X70310Y-1132D02*
X81792D01*
X70310Y-1032D02*
X81793D01*
X70310Y-1232D02*
X81790D01*
X70310Y2468D02*
X81762D01*
X70310Y2568D02*
X81759D01*
X70310Y-2632D02*
X81757D01*
X70310Y-2532D02*
X81760D01*
X70310Y-2832D02*
X81750D01*
X70310Y-2732D02*
X81754D01*
X70310Y-2932D02*
X81747D01*
X70310Y-3132D02*
X81740D01*
X70310Y-3032D02*
X81743D01*
X70310Y-3232D02*
X81736D01*
X70310Y-3432D02*
X81728D01*
X70310Y-3332D02*
X81732D01*
X70310Y-3532D02*
X81723D01*
X70310Y3368D02*
X81730D01*
X70310Y3468D02*
X81726D01*
X70310Y3268D02*
X81734D01*
X70310Y3668D02*
X81717D01*
X70310Y3768D02*
X81713D01*
X70310Y3568D02*
X81722D01*
X70310Y2768D02*
X81753D01*
X70310Y2868D02*
X81749D01*
X70310Y2668D02*
X81756D01*
X70310Y3068D02*
X81742D01*
X70310Y3168D02*
X81738D01*
X70310Y2968D02*
X81746D01*
X70310Y-4932D02*
X81651D01*
X70310Y-4832D02*
X81657D01*
X70310Y-5032D02*
X81645D01*
X70310Y-5232D02*
X81632D01*
X70310Y-5132D02*
X81638D01*
X70310Y-5332D02*
X81626D01*
X70310Y-5532D02*
X81612D01*
X70310Y-5432D02*
X81619D01*
X70310Y-5632D02*
X81606D01*
X70310Y-5832D02*
X81592D01*
X70310Y-5732D02*
X81599D01*
X70310Y-5932D02*
X81584D01*
X70310Y-3732D02*
X81714D01*
X70310Y-3632D02*
X81719D01*
X70310Y-3832D02*
X81710D01*
X70310Y-4032D02*
X81700D01*
X70310Y-3932D02*
X81705D01*
X70310Y-4132D02*
X81695D01*
X70310Y-4332D02*
X81685D01*
X70310Y-4232D02*
X81690D01*
X70310Y-4432D02*
X81679D01*
X70310Y-4632D02*
X81668D01*
X70310Y-4532D02*
X81674D01*
X70310Y-4732D02*
X81663D01*
X70310Y-7332D02*
X81471D01*
X70310Y-7232D02*
X81480D01*
X70310Y-7532D02*
X81452D01*
X70310Y-7432D02*
X81461D01*
X70310Y-7732D02*
X81434D01*
X70310Y-7632D02*
X81443D01*
X70310Y-7832D02*
X81424D01*
X70310Y-8032D02*
X81405D01*
X70310Y-7932D02*
X81414D01*
X70310Y-8132D02*
X81395D01*
X70310Y-8332D02*
X81375D01*
X70310Y-8232D02*
X81385D01*
X70310Y-8432D02*
X81364D01*
X70310Y-6132D02*
X81570D01*
X70310Y-6032D02*
X81577D01*
X70310Y-6232D02*
X81562D01*
X70310Y-6432D02*
X81546D01*
X70310Y-6332D02*
X81554D01*
X70310Y-6532D02*
X81538D01*
X70310Y-6732D02*
X81522D01*
X70310Y-6632D02*
X81531D01*
X70310Y-6832D02*
X81514D01*
X70310Y-7032D02*
X81497D01*
X70310Y-6932D02*
X81506D01*
X70310Y-7132D02*
X81488D01*
X70310Y-9832D02*
X81207D01*
X70310Y-9732D02*
X81219D01*
X70310Y-9932D02*
X81195D01*
X70310Y-10132D02*
X81170D01*
X70310Y-10032D02*
X81183D01*
X70310Y-10232D02*
X81158D01*
X70310Y-10432D02*
X81132D01*
X70310Y-10332D02*
X81145D01*
X70310Y-10532D02*
X81119D01*
X70310Y-10732D02*
X81093D01*
X70310Y-10632D02*
X81106D01*
X70310Y-10832D02*
X81080D01*
X70310Y-8632D02*
X81343D01*
X70310Y-8532D02*
X81354D01*
X70310Y-8732D02*
X81333D01*
X70310Y-8932D02*
X81311D01*
X70310Y-8832D02*
X81322D01*
X70310Y-9032D02*
X81300D01*
X70310Y-9232D02*
X81277D01*
X70310Y-9132D02*
X81289D01*
X70310Y-9332D02*
X81266D01*
X70310Y-9532D02*
X81243D01*
X70310Y-9432D02*
X81255D01*
X70310Y-9632D02*
X81231D01*
X70310Y-11532D02*
X80983D01*
X70310Y-11432D02*
X80998D01*
X70310Y-11732D02*
X80955D01*
X70310Y-11632D02*
X80969D01*
X70310Y-11932D02*
X80926D01*
X70310Y-11832D02*
X80940D01*
X70310Y-12032D02*
X80911D01*
X70310Y-12232D02*
X80881D01*
X70310Y-12132D02*
X80896D01*
X70310Y-12332D02*
X80866D01*
X70310Y-12532D02*
X80835D01*
X70310Y-12432D02*
X80850D01*
X70310Y-12632D02*
X80819D01*
X70310Y-11032D02*
X81053D01*
X70310Y-10932D02*
X81067D01*
X70310Y-11132D02*
X81039D01*
X70310Y-11232D02*
X81025D01*
X70310Y-12700D02*
Y27940D01*
Y-11332D02*
X81012D01*
X70310Y-12732D02*
X80804D01*
X70307Y-12832D02*
X80788D01*
X70301Y-12932D02*
X80772D01*
X70292Y-13032D02*
X80756D01*
X70279Y-13132D02*
X80740D01*
X70262Y-13232D02*
X80723D01*
X70243Y-13332D02*
X80707D01*
X70219Y-13432D02*
X80690D01*
X70192Y-13532D02*
X80674D01*
X70162Y-13632D02*
X80657D01*
X70127Y-13732D02*
X80640D01*
X70088Y-13832D02*
X80623D01*
X70046Y-13932D02*
X80606D01*
X69998Y-14032D02*
X80588D01*
X69946Y-14132D02*
X80571D01*
X69890Y-14232D02*
X80553D01*
X69827Y-14332D02*
X80536D01*
X69760Y-14432D02*
X80518D01*
X69686Y-14532D02*
X80500D01*
X69605Y-14632D02*
X80482D01*
X69517Y-14732D02*
X80463D01*
X69421Y-14832D02*
X80445D01*
X69321Y-14932D02*
X80427D01*
X69221Y-15032D02*
X80408D01*
X69121Y-15132D02*
X80389D01*
X69021Y-15232D02*
X80370D01*
X68921Y-15332D02*
X80351D01*
X68821Y-15432D02*
X80332D01*
X60150Y-2532D02*
X61770D01*
X60150Y-2432D02*
X61770D01*
X60150Y-2732D02*
X61770D01*
X60150Y-2632D02*
X61770D01*
X60150Y-2232D02*
X61770D01*
X60150Y-2132D02*
X61770D01*
X60150Y-2332D02*
X61770D01*
X60150Y-3232D02*
X61770D01*
X60150Y-3132D02*
X61770D01*
X60150Y-3332D02*
X61770D01*
X60150Y-2932D02*
X61770D01*
X60150Y-2832D02*
X61770D01*
X60150Y-3032D02*
X61770D01*
X60150Y-1332D02*
X61770D01*
X60150Y-1432D02*
X61770D01*
X60150Y-1132D02*
X61770D01*
X60150Y-1032D02*
X61770D01*
X60150Y-1232D02*
X61770D01*
X60150Y-1932D02*
X61770D01*
X60150Y-1832D02*
X61770D01*
X60150Y-2032D02*
X61770D01*
X60150Y-1632D02*
X61770D01*
X60150Y-1532D02*
X61770D01*
X60150Y-1732D02*
X61770D01*
X60150Y-5032D02*
X61770D01*
X60150Y-4932D02*
X61770D01*
X60150Y-5132D02*
X61770D01*
X60150Y-4732D02*
X61770D01*
X60150Y-4632D02*
X61770D01*
X60150Y-4832D02*
X61770D01*
X60150Y-5632D02*
X61770D01*
X60150Y-5532D02*
X61770D01*
X60150Y-5732D02*
X61770D01*
X60150Y-5332D02*
X61770D01*
X60150Y-5232D02*
X61770D01*
X60150Y-5432D02*
X61770D01*
X60150Y-3832D02*
X61770D01*
X60150Y-3732D02*
X61770D01*
X60150Y-3932D02*
X61770D01*
X60150Y-3532D02*
X61770D01*
X60150Y-3432D02*
X61770D01*
X60150Y-3632D02*
X61770D01*
X60150Y-4432D02*
X61770D01*
X60150Y-4332D02*
X61770D01*
X60150Y-4532D02*
X61770D01*
X60150Y-4132D02*
X61770D01*
X60150Y-4032D02*
X61770D01*
X60150Y-4232D02*
X61770D01*
X60150Y2168D02*
X61770D01*
X60150Y2268D02*
X61770D01*
X60150Y1968D02*
X61770D01*
X60150Y2068D02*
X61770D01*
X60150Y2468D02*
X61770D01*
X60150Y2568D02*
X61770D01*
X60150Y2368D02*
X61770D01*
X60150Y1468D02*
X61770D01*
X60150Y1568D02*
X61770D01*
X60150Y1368D02*
X61770D01*
X60150Y1768D02*
X61770D01*
X60150Y1868D02*
X61770D01*
X60150Y1668D02*
X61770D01*
X60150Y3368D02*
X61770D01*
X60150Y3468D02*
X61770D01*
X60150Y3268D02*
X61770D01*
X60150Y3668D02*
X61770D01*
X60150Y3768D02*
X61770D01*
X60150Y3568D02*
X61770D01*
X60150Y2768D02*
X61770D01*
X60150Y2868D02*
X61770D01*
X60150Y2668D02*
X61770D01*
X60150Y3068D02*
X61770D01*
X60150Y3168D02*
X61770D01*
X60150Y2968D02*
X61770D01*
X60150Y-332D02*
X61770D01*
X60150Y-232D02*
X61770D01*
X60150Y-432D02*
X61770D01*
X60150Y-32D02*
X61770D01*
X60150Y68D02*
X61770D01*
X60150Y-132D02*
X61770D01*
X60150Y-932D02*
X61770D01*
X60150Y-832D02*
X61770D01*
X60150Y-5832D02*
X61770D01*
X60150Y-632D02*
X61770D01*
X60150Y-532D02*
X61770D01*
X60150Y-732D02*
X61770D01*
X60150Y868D02*
X61770D01*
X60150Y968D02*
X61770D01*
X60150Y768D02*
X61770D01*
X60150Y1168D02*
X61770D01*
X60150Y1268D02*
X61770D01*
X60150Y1068D02*
X61770D01*
X60150Y268D02*
X61770D01*
X60150Y368D02*
X61770D01*
X60150Y168D02*
X61770D01*
X60150Y568D02*
X61770D01*
X60150Y668D02*
X61770D01*
X60150Y468D02*
X61770D01*
X68721Y-15532D02*
X80313D01*
X68621Y-15632D02*
X80294D01*
X68521Y-15732D02*
X80274D01*
X68421Y-15832D02*
X80254D01*
X68321Y-15932D02*
X80235D01*
X68221Y-16032D02*
X80215D01*
X68121Y-16132D02*
X80195D01*
X68021Y-16232D02*
X80175D01*
X67921Y-16332D02*
X80154D01*
X67821Y-16432D02*
X80134D01*
X67721Y-16532D02*
X80113D01*
X67621Y-16632D02*
X80093D01*
X67521Y-16732D02*
X80072D01*
X60150Y-9632D02*
X61770D01*
X60150Y-6232D02*
X61770D01*
X60150Y-11807D02*
X61770Y-10187D01*
X60150Y-6032D02*
X61770D01*
X60150Y-5932D02*
X61770D01*
X60150Y-6132D02*
X61770D01*
X67421Y-16832D02*
X80051D01*
X67321Y-16932D02*
X80030D01*
X67221Y-17032D02*
X80009D01*
X54364Y-29889D02*
X69425Y-14828D01*
X67121Y-17132D02*
X79987D01*
X67021Y-17232D02*
X79966D01*
X66921Y-17332D02*
X79944D01*
X66821Y-17432D02*
X79922D01*
X66721Y-17532D02*
X79901D01*
X66621Y-17632D02*
X79879D01*
X66521Y-17732D02*
X79857D01*
X66421Y-17832D02*
X79834D01*
X66321Y-17932D02*
X79812D01*
X66221Y-18032D02*
X79790D01*
X66121Y-18132D02*
X79767D01*
X66021Y-18232D02*
X79744D01*
X65921Y-18332D02*
X79721D01*
X65821Y-18432D02*
X79698D01*
X65721Y-18532D02*
X79675D01*
X65621Y-18632D02*
X79652D01*
X65521Y-18732D02*
X79628D01*
X65421Y-18832D02*
X79605D01*
X65321Y-18932D02*
X79581D01*
X65221Y-19032D02*
X79557D01*
X65121Y-19132D02*
X79533D01*
X65021Y-19232D02*
X79509D01*
X64921Y-19332D02*
X79485D01*
X64821Y-19432D02*
X79461D01*
X64721Y-19532D02*
X79436D01*
X60150Y-7832D02*
X61770D01*
X60150Y-7732D02*
X61770D01*
X60150Y-8032D02*
X61770D01*
X60150Y-7932D02*
X61770D01*
X60150Y-7532D02*
X61770D01*
X60150Y-7432D02*
X61770D01*
X60150Y-7632D02*
X61770D01*
Y-10187D02*
Y25823D01*
X60150Y-8432D02*
X61770D01*
X60150Y-8532D02*
X61770D01*
X60150Y-8232D02*
X61770D01*
X60150Y-8132D02*
X61770D01*
X60150Y-8332D02*
X61770D01*
X60150Y-6732D02*
X61770D01*
X60150Y-6632D02*
X61770D01*
X60150Y-6832D02*
X61770D01*
X60150Y-6432D02*
X61770D01*
X60150Y-6332D02*
X61770D01*
X60150Y-6532D02*
X61770D01*
X60150Y-7232D02*
X61770D01*
X60150Y-7132D02*
X61770D01*
X60150Y-7332D02*
X61770D01*
X60150Y-6932D02*
X61770D01*
X60150Y-11807D02*
Y27443D01*
Y-7032D02*
X61770D01*
X60150Y-10032D02*
X61770D01*
X60150Y-9932D02*
X61770D01*
X60150Y-10132D02*
X61770D01*
X60150Y-10332D02*
X61626D01*
X60150Y-10232D02*
X61726D01*
X60150Y-10432D02*
X61526D01*
X60150Y-10632D02*
X61326D01*
X60150Y-10532D02*
X61426D01*
X60150Y-10732D02*
X61226D01*
X60150Y-10932D02*
X61026D01*
X60150Y-10832D02*
X61126D01*
X60150Y-11032D02*
X60926D01*
X60150Y-9032D02*
X61770D01*
X60150Y-8932D02*
X61770D01*
X60150Y-9132D02*
X61770D01*
X60150Y-8732D02*
X61770D01*
X60150Y-8632D02*
X61770D01*
X60150Y-8832D02*
X61770D01*
X60150Y-9732D02*
X61770D01*
X60150Y-9532D02*
X61770D01*
X60150Y-9832D02*
X61770D01*
X60150Y-9332D02*
X61770D01*
X60150Y-9232D02*
X61770D01*
X60150Y-9432D02*
X61770D01*
X64621Y-19632D02*
X79411D01*
X64521Y-19732D02*
X79387D01*
X64421Y-19832D02*
X79362D01*
X64321Y-19932D02*
X79337D01*
X64221Y-20032D02*
X79311D01*
X64121Y-20132D02*
X79286D01*
X64021Y-20232D02*
X79261D01*
X63921Y-20332D02*
X79235D01*
X63821Y-20432D02*
X79209D01*
X63721Y-20532D02*
X79184D01*
X63621Y-20632D02*
X79158D01*
X63521Y-20732D02*
X79132D01*
X63421Y-20832D02*
X79105D01*
X63321Y-20932D02*
X79079D01*
X63221Y-21032D02*
X79053D01*
X63121Y-21132D02*
X79026D01*
X63021Y-21232D02*
X78999D01*
X62921Y-21332D02*
X78972D01*
X62821Y-21432D02*
X78945D01*
X62721Y-21532D02*
X78918D01*
X62621Y-21632D02*
X78891D01*
X62521Y-21732D02*
X78863D01*
X62421Y-21832D02*
X78836D01*
X62321Y-21932D02*
X78808D01*
X62221Y-22032D02*
X78780D01*
X62121Y-22132D02*
X78752D01*
X62021Y-22232D02*
X78724D01*
X61921Y-22332D02*
X78696D01*
X61821Y-22432D02*
X78667D01*
X61721Y-22532D02*
X78639D01*
X61621Y-22632D02*
X78610D01*
X61521Y-22732D02*
X78581D01*
X61421Y-22832D02*
X78552D01*
X61321Y-22932D02*
X78523D01*
X61221Y-23032D02*
X78494D01*
X61121Y-23132D02*
X78464D01*
X61021Y-23232D02*
X78435D01*
X60921Y-23332D02*
X78405D01*
X60821Y-23432D02*
X78375D01*
X60721Y-23532D02*
X78345D01*
X60621Y-23632D02*
X78315D01*
X60521Y-23732D02*
X78285D01*
X60421Y-23832D02*
X78255D01*
X60321Y-23932D02*
X78224D01*
X60221Y-24032D02*
X78194D01*
X60121Y-24132D02*
X78163D01*
X60021Y-24232D02*
X78132D01*
X59921Y-24332D02*
X78101D01*
X59821Y-24432D02*
X78070D01*
X59721Y-24532D02*
X78038D01*
X59621Y-24632D02*
X78007D01*
X59521Y-24732D02*
X77975D01*
X59421Y-24832D02*
X77944D01*
X59321Y-24931D02*
X77912D01*
X59221Y-25031D02*
X77880D01*
X59121Y-25131D02*
X77847D01*
X59021Y-25231D02*
X77815D01*
X58921Y-25331D02*
X77783D01*
X58821Y-25431D02*
X77750D01*
X58721Y-25531D02*
X77717D01*
X58621Y-25631D02*
X77684D01*
X58521Y-25731D02*
X77651D01*
X58421Y-25831D02*
X77618D01*
X58321Y-25931D02*
X77585D01*
X58221Y-26031D02*
X77551D01*
X58121Y-26131D02*
X77518D01*
X58021Y-26232D02*
X77484D01*
X57921Y-26332D02*
X77450D01*
X57821Y-26432D02*
X77416D01*
X57721Y-26532D02*
X77382D01*
X57621Y-26632D02*
X77348D01*
X57521Y-26732D02*
X77313D01*
X57421Y-26832D02*
X77279D01*
X57321Y-26932D02*
X77244D01*
X57221Y-27032D02*
X77209D01*
X57121Y-27132D02*
X77174D01*
X57021Y-27232D02*
X77139D01*
X56921Y-27332D02*
X77103D01*
X56821Y-27431D02*
X77068D01*
X56721Y-27531D02*
X77032D01*
X56621Y-27631D02*
X76996D01*
X56521Y-27731D02*
X76961D01*
X56421Y-27831D02*
X76925D01*
X56321Y-27931D02*
X76888D01*
X56221Y-28031D02*
X76852D01*
X56121Y-28131D02*
X76815D01*
X56021Y-28231D02*
X76779D01*
X55921Y-28331D02*
X76742D01*
X55821Y-28431D02*
X76705D01*
X55721Y-28531D02*
X76668D01*
X55621Y-28631D02*
X76631D01*
X55521Y-28732D02*
X76593D01*
X55421Y-28832D02*
X76556D01*
X55321Y-28932D02*
X76518D01*
X55221Y-29032D02*
X76480D01*
X55121Y-29132D02*
X76442D01*
X55021Y-29232D02*
X76404D01*
X54921Y-29332D02*
X76366D01*
X54821Y-29432D02*
X76327D01*
X54733Y-30931D02*
X75732D01*
X54763Y-31131D02*
X75651D01*
X54749Y-31031D02*
X75692D01*
X54782Y-31332D02*
X75568D01*
X54774Y-31232D02*
X75609D01*
X54788Y-31432D02*
X75527D01*
X54790Y-31532D02*
X75485D01*
X54789Y-31632D02*
X75443D01*
X54786Y-31732D02*
X75401D01*
X54780Y-31832D02*
X75359D01*
X54771Y-31932D02*
X75317D01*
X54759Y-32032D02*
X75274D01*
X54721Y-29532D02*
X76289D01*
X54621Y-29632D02*
X76250D01*
X54521Y-29732D02*
X76211D01*
X54484Y-30131D02*
X76054D01*
X54437Y-30031D02*
X76094D01*
X54527Y-30231D02*
X76014D01*
X54602Y-30431D02*
X75935D01*
X54566Y-30331D02*
X75974D01*
X54634Y-30531D02*
X75894D01*
X54690Y-30731D02*
X75814D01*
X54664Y-30631D02*
X75854D01*
X54713Y-30831D02*
X75773D01*
X54744Y-32132D02*
X75232D01*
X54726Y-32232D02*
X75189D01*
X54705Y-32332D02*
X75146D01*
X54681Y-32431D02*
X75103D01*
X54653Y-32531D02*
X75060D01*
X54623Y-32631D02*
X75016D01*
X54589Y-32731D02*
X74973D01*
X54552Y-32831D02*
X74929D01*
X54511Y-32931D02*
X74885D01*
X54467Y-33031D02*
X74841D01*
X54426Y-40332D02*
X71178D01*
X54426Y-40431D02*
X71121D01*
X54426Y-39232D02*
X71789D01*
X54426Y-39132D02*
X71844D01*
X54426Y-39332D02*
X71735D01*
X54426Y-39532D02*
X71625D01*
X54426Y-39432D02*
X71680D01*
X54426Y-39632D02*
X71569D01*
X54426Y-39832D02*
X71459D01*
X54426Y-39732D02*
X71514D01*
X54426Y-39931D02*
X71403D01*
X54426Y-40132D02*
X71291D01*
X54426Y-40031D02*
X71347D01*
X54426Y-40231D02*
X71234D01*
X54426Y-41831D02*
X70308D01*
X54426Y-41732D02*
X70367D01*
X54426Y-42031D02*
X70189D01*
X54426Y-41932D02*
X70248D01*
X54426Y-42231D02*
X70068D01*
X54426Y-42132D02*
X70129D01*
X54426Y-42332D02*
X70008D01*
X54426Y-42531D02*
X69887D01*
X54426Y-42432D02*
X69948D01*
X54426Y-42632D02*
X69826D01*
X54426Y-42832D02*
X69704D01*
X54426Y-42731D02*
X69765D01*
X54426Y-42931D02*
X69642D01*
X54426Y-40631D02*
X71007D01*
X54426Y-40532D02*
X71064D01*
X54426Y-40732D02*
X70950D01*
X54426Y-40932D02*
X70835D01*
X54426Y-40831D02*
X70893D01*
X54426Y-41031D02*
X70777D01*
X54426Y-41231D02*
X70661D01*
X54426Y-41132D02*
X70719D01*
X54426Y-41332D02*
X70603D01*
X54426Y-41532D02*
X70485D01*
X54426Y-41431D02*
X70544D01*
X54426Y-41631D02*
X70426D01*
X54426Y-44331D02*
X68761D01*
X54426Y-44232D02*
X68825D01*
X54426Y-44432D02*
X68696D01*
X54426Y-44632D02*
X68567D01*
X54426Y-44531D02*
X68632D01*
X54426Y-44731D02*
X68502D01*
X54426Y-44932D02*
X68371D01*
X54426Y-44832D02*
X68436D01*
X54426Y-45031D02*
X68305D01*
X54426Y-45231D02*
X68173D01*
X54426Y-45132D02*
X68239D01*
X54426Y-45332D02*
X68106D01*
X54426Y-43131D02*
X69519D01*
X54426Y-43032D02*
X69581D01*
X54426Y-43232D02*
X69457D01*
X54426Y-43432D02*
X69332D01*
X54426Y-43331D02*
X69394D01*
X54426Y-43531D02*
X69269D01*
X54426Y-43731D02*
X69143D01*
X54426Y-43632D02*
X69207D01*
X54426Y-43832D02*
X69080D01*
X54426Y-44032D02*
X68953D01*
X54426Y-43931D02*
X69017D01*
X54426Y-44131D02*
X68889D01*
X54426Y-34232D02*
X74301D01*
X54426Y-34132D02*
X74347D01*
X54426Y-34432D02*
X74208D01*
X54426Y-34332D02*
X74255D01*
X54426Y-34632D02*
X74115D01*
X54426Y-34532D02*
X74162D01*
X54426Y-34732D02*
X74069D01*
X54426Y-34931D02*
X73975D01*
X54426Y-34832D02*
X74022D01*
X54426Y-35031D02*
X73927D01*
X54426Y-35231D02*
X73832D01*
X54426Y-35131D02*
X73880D01*
X54426Y-35331D02*
X73785D01*
X54421Y-29832D02*
X76172D01*
X54387Y-29931D02*
X76133D01*
X54426Y-33131D02*
X74797D01*
X54426Y-33331D02*
X74708D01*
X54426Y-33231D02*
X74753D01*
X54426Y-33431D02*
X74664D01*
X54426Y-33631D02*
X74574D01*
X54426Y-33531D02*
X74619D01*
X54426Y-33732D02*
X74529D01*
X54426Y-33932D02*
X74438D01*
X54426Y-33832D02*
X74484D01*
X54426Y-34032D02*
X74392D01*
X54426Y-36732D02*
X73099D01*
X54426Y-36632D02*
X73149D01*
X54426Y-36832D02*
X73048D01*
X54426Y-37032D02*
X72947D01*
X54426Y-36932D02*
X72998D01*
X54426Y-37132D02*
X72896D01*
X54426Y-37332D02*
X72794D01*
X54426Y-37232D02*
X72845D01*
X54426Y-37431D02*
X72743D01*
X54426Y-37631D02*
X72640D01*
X54426Y-37531D02*
X72691D01*
X54426Y-37731D02*
X72588D01*
X54426Y-35531D02*
X73689D01*
X54426Y-35431D02*
X73737D01*
X54426Y-35631D02*
X73640D01*
X54426Y-35831D02*
X73543D01*
X54426Y-35731D02*
X73592D01*
X54426Y-35931D02*
X73495D01*
X54426Y-36131D02*
X73397D01*
X54426Y-36031D02*
X73446D01*
X54426Y-36232D02*
X73347D01*
X54426Y-36432D02*
X73248D01*
X54426Y-36332D02*
X73298D01*
X54426Y-36532D02*
X73199D01*
X54426Y-45431D02*
X68040D01*
X54426Y-39032D02*
X71898D01*
X54426Y-45631D02*
X67906D01*
X54426Y-45532D02*
X67973D01*
X54426Y-45831D02*
X67771D01*
X54426Y-45732D02*
X67839D01*
X54426Y-45932D02*
X67704D01*
X54426Y-46132D02*
X67568D01*
X54426Y-46031D02*
X67636D01*
X54426Y-46231D02*
X67499D01*
X54426Y-46431D02*
X67362D01*
X54426Y-46332D02*
X67431D01*
X54426Y-46532D02*
X67293D01*
X54426Y-37931D02*
X72484D01*
X54426Y-37831D02*
X72536D01*
X54426Y-38031D02*
X72432D01*
X54426Y-38231D02*
X72326D01*
X54426Y-38131D02*
X72379D01*
X54426Y-38331D02*
X72273D01*
X54426Y-38531D02*
X72167D01*
X54426Y-38431D02*
X72220D01*
X54426Y-38631D02*
X72114D01*
X54426Y-38832D02*
X72006D01*
X54426Y-38732D02*
X72060D01*
X54426Y-38932D02*
X71952D01*
X54426Y-47931D02*
X66304D01*
X54426Y-47832D02*
X66377D01*
X54426Y-48032D02*
X66232D01*
X54426Y-48232D02*
X66087D01*
X54426Y-48131D02*
X66160D01*
X54426Y-48331D02*
X66014D01*
X54426Y-48531D02*
X65867D01*
X54426Y-48432D02*
X65941D01*
X54426Y-48632D02*
X65793D01*
X54426Y-48832D02*
X65645D01*
X54426Y-48731D02*
X65719D01*
X54426Y-48931D02*
X65571D01*
X54426Y-46732D02*
X67155D01*
X54426Y-46631D02*
X67224D01*
X54426Y-46831D02*
X67085D01*
X54426Y-47031D02*
X66945D01*
X54426Y-46932D02*
X67015D01*
X54426Y-47132D02*
X66875D01*
X54426Y-47332D02*
X66734D01*
X54426Y-47231D02*
X66804D01*
X54426Y-47432D02*
X66663D01*
X54426Y-47632D02*
X66520D01*
X54426Y-47531D02*
X66592D01*
X54426Y-47731D02*
X66448D01*
X54426Y-50332D02*
X64504D01*
X54426Y-50231D02*
X64582D01*
X54426Y-50532D02*
X64348D01*
X54426Y-50431D02*
X64426D01*
X54426Y-50732D02*
X64190D01*
X54426Y-50631D02*
X64269D01*
X54426Y-50831D02*
X64111D01*
X54426Y-51031D02*
X63952D01*
X54426Y-50932D02*
X64032D01*
X54426Y-51132D02*
X63872D01*
X54426Y-51332D02*
X63712D01*
X54426Y-51231D02*
X63792D01*
X54426Y-51431D02*
X63631D01*
X54426Y-49131D02*
X65421D01*
X54426Y-49032D02*
X65496D01*
X54426Y-49232D02*
X65346D01*
X54426Y-49432D02*
X65195D01*
X54426Y-49331D02*
X65271D01*
X54426Y-49531D02*
X65120D01*
X54426Y-49731D02*
X64967D01*
X54426Y-49632D02*
X65043D01*
X54426Y-49832D02*
X64890D01*
X54426Y-50031D02*
X64737D01*
X54426Y-49932D02*
X64814D01*
X54426Y-50132D02*
X64659D01*
X54426Y-51631D02*
X63469D01*
X54426Y-51532D02*
X63551D01*
X54426Y-51732D02*
X63388D01*
X54426Y-51932D02*
X63225D01*
X54426Y-51831D02*
X63306D01*
X54426Y-52031D02*
X63142D01*
X54426Y-52231D02*
X62977D01*
X54426Y-52132D02*
X63060D01*
X54426Y-52332D02*
X62894D01*
X54426Y-52531D02*
X62728D01*
X54426Y-52432D02*
X62811D01*
X54426Y-52632D02*
X62644D01*
X54426Y-52731D02*
X62560D01*
X54424Y-52832D02*
X62475D01*
X54418Y-52931D02*
X62391D01*
X54409Y-53032D02*
X62306D01*
X54397Y-53131D02*
X62221D01*
X54381Y-53232D02*
X62135D01*
X54362Y-53331D02*
X62050D01*
X54339Y-53432D02*
X61964D01*
X54312Y-53531D02*
X61877D01*
X54282Y-53632D02*
X61791D01*
X54248Y-53731D02*
X61704D01*
X54210Y-53832D02*
X61617D01*
X54168Y-53931D02*
X61530D01*
X54121Y-54032D02*
X61442D01*
X54070Y-54131D02*
X61354D01*
X54014Y-54232D02*
X61266D01*
X53953Y-54331D02*
X61177D01*
X53886Y-54432D02*
X61088D01*
X53813Y-54531D02*
X60999D01*
X53733Y-54632D02*
X60910D01*
X53646Y-54731D02*
X60820D01*
X53551Y-54832D02*
X60730D01*
X53451Y-54932D02*
X60640D01*
X53351Y-55031D02*
X60549D01*
X53251Y-55132D02*
X60458D01*
X53151Y-55231D02*
X60367D01*
X53051Y-55332D02*
X60275D01*
X52951Y-55431D02*
X60184D01*
X52851Y-55532D02*
X60092D01*
X52751Y-55631D02*
X59999D01*
X52651Y-55732D02*
X59906D01*
X52551Y-55831D02*
X59813D01*
X52451Y-55932D02*
X59720D01*
X52351Y-56031D02*
X59626D01*
X52251Y-56132D02*
X59532D01*
X52151Y-56231D02*
X59438D01*
X52051Y-56332D02*
X59343D01*
X51951Y-56431D02*
X59248D01*
X51851Y-56532D02*
X59153D01*
X51751Y-56631D02*
X59057D01*
X51651Y-56732D02*
X58962D01*
X51551Y-56831D02*
X58865D01*
X51451Y-56932D02*
X58769D01*
X51351Y-57031D02*
X58672D01*
X51251Y-57132D02*
X58575D01*
X51151Y-57231D02*
X58477D01*
X51051Y-57332D02*
X58379D01*
X50951Y-57432D02*
X58281D01*
X50851Y-57531D02*
X58182D01*
X50751Y-57632D02*
X58083D01*
X50651Y-57731D02*
X57984D01*
X50551Y-57832D02*
X57884D01*
X50451Y-57931D02*
X57785D01*
X50351Y-58032D02*
X57684D01*
X50251Y-58131D02*
X57584D01*
X50151Y-58232D02*
X57483D01*
X50051Y-58331D02*
X57381D01*
X49951Y-58432D02*
X57280D01*
X49851Y-58531D02*
X57178D01*
X49751Y-58632D02*
X57075D01*
X40395Y-8132D02*
X50030D01*
X40319Y-8032D02*
X50030D01*
X40533Y-8332D02*
X50030D01*
X40467Y-8232D02*
X50030D01*
X40150Y-7832D02*
X50030D01*
X40057Y-7732D02*
X50030D01*
X40237Y-7932D02*
X50030D01*
Y-10614D02*
Y13200D01*
X40761Y-8732D02*
X50030D01*
X40809Y-8832D02*
X50030D01*
X40655Y-8532D02*
X50030D01*
X40596Y-8432D02*
X50030D01*
X40710Y-8632D02*
X50030D01*
X38971Y-6932D02*
X50030D01*
X38756Y-6832D02*
X50030D01*
X39158Y-7032D02*
X50030D01*
X38169Y-6632D02*
X50030D01*
X37623Y-6532D02*
X50030D01*
X38499Y-6732D02*
X50030D01*
X39850Y-7532D02*
X50030D01*
X39735Y-7432D02*
X50030D01*
X39958Y-7632D02*
X50030D01*
X39473Y-7232D02*
X50030D01*
X39323Y-7132D02*
X50030D01*
X39609Y-7332D02*
X50030D01*
X41173Y-10332D02*
X50030D01*
X41167Y-10232D02*
X50030D01*
X41176Y-10432D02*
X50030D01*
X41148Y-10032D02*
X50030D01*
X41135Y-9932D02*
X50030D01*
X41159Y-10132D02*
X50030D01*
X41177Y-10532D02*
X50030D01*
X41175Y-10632D02*
X50012D01*
X41170Y-10732D02*
X49912D01*
X41163Y-10832D02*
X49812D01*
X41154Y-10932D02*
X49712D01*
X41142Y-11032D02*
X49612D01*
X41000Y-9332D02*
X50030D01*
X40968Y-9232D02*
X50030D01*
X41029Y-9432D02*
X50030D01*
X40895Y-9032D02*
X50030D01*
X40853Y-8932D02*
X50030D01*
X40933Y-9132D02*
X50030D01*
X41101Y-9732D02*
X50030D01*
X41080Y-9632D02*
X50030D01*
X41119Y-9832D02*
X50030D01*
X41128Y-11132D02*
X49512D01*
X41056Y-9532D02*
X50030D01*
X41110Y-11232D02*
X49412D01*
X41091Y-11332D02*
X49312D01*
X41068Y-11432D02*
X49212D01*
X41043Y-11532D02*
X49112D01*
X41015Y-11632D02*
X49012D01*
X40984Y-11732D02*
X48912D01*
X40951Y-11832D02*
X48812D01*
X40914Y-11932D02*
X48712D01*
X40875Y-12032D02*
X48612D01*
X40832Y-12132D02*
X48512D01*
X40785Y-12232D02*
X48412D01*
X40736Y-12332D02*
X48312D01*
X40683Y-12432D02*
X48212D01*
X40626Y-12532D02*
X48112D01*
X40566Y-12632D02*
X48012D01*
X40501Y-12732D02*
X47912D01*
X40431Y-12832D02*
X47812D01*
X27593Y-6507D02*
X37177D01*
X40358Y-12932D02*
X47712D01*
X40279Y-13032D02*
X47612D01*
X40195Y-13132D02*
X47512D01*
X40105Y-13232D02*
X47412D01*
X40008Y-13332D02*
X47312D01*
X39905Y-13432D02*
X47212D01*
X39794Y-13532D02*
X47112D01*
X39674Y-13632D02*
X47012D01*
X39543Y-13732D02*
X46912D01*
X39400Y-13832D02*
X46812D01*
X39243Y-13932D02*
X46712D01*
X39067Y-14032D02*
X46612D01*
X38868Y-14132D02*
X46512D01*
X38634Y-14232D02*
X46412D01*
X38347Y-14332D02*
X46312D01*
X37948Y-14432D02*
X46212D01*
X29250Y-14507D02*
X37177D01*
X29225Y-14532D02*
X46112D01*
X29125Y-14632D02*
X46012D01*
X29025Y-14732D02*
X45912D01*
X28925Y-14832D02*
X45812D01*
X28825Y-14932D02*
X45712D01*
X28725Y-15032D02*
X45612D01*
X28625Y-15132D02*
X45512D01*
X28525Y-15232D02*
X45412D01*
X28425Y-15332D02*
X45312D01*
X28325Y-15432D02*
X45212D01*
X28225Y-15532D02*
X45112D01*
X28125Y-15632D02*
X45012D01*
X28025Y-15732D02*
X44912D01*
X27925Y-15832D02*
X44812D01*
X27825Y-15932D02*
X44712D01*
X27725Y-16032D02*
X44612D01*
X27625Y-16132D02*
X44512D01*
X27525Y-16232D02*
X44412D01*
X27425Y-16332D02*
X44312D01*
X27325Y-16432D02*
X44212D01*
X31467Y-29177D02*
X50030Y-10614D01*
X27225Y-16532D02*
X44112D01*
X27125Y-16632D02*
X44012D01*
X27025Y-16732D02*
X43912D01*
X26925Y-16832D02*
X43812D01*
X26825Y-16932D02*
X43712D01*
X26725Y-17032D02*
X43612D01*
X26625Y-17132D02*
X43512D01*
X26525Y-17232D02*
X43412D01*
X26425Y-17332D02*
X43312D01*
X26325Y-17432D02*
X43212D01*
X26225Y-17532D02*
X43112D01*
X26125Y-17632D02*
X43012D01*
X26092Y-21232D02*
X39412D01*
X26232Y-21332D02*
X39312D01*
X26475Y-21532D02*
X39112D01*
X26359Y-21432D02*
X39212D01*
X26581Y-21632D02*
X39012D01*
X27453Y-23032D02*
X37612D01*
X27418Y-22932D02*
X37712D01*
X27485Y-23132D02*
X37512D01*
X27538Y-23332D02*
X37312D01*
X27513Y-23232D02*
X37412D01*
X27560Y-23432D02*
X37212D01*
X27594Y-23632D02*
X37012D01*
X27578Y-23532D02*
X37112D01*
X27607Y-23732D02*
X36912D01*
X27624Y-23932D02*
X36712D01*
X27617Y-23832D02*
X36812D01*
X27629Y-24032D02*
X36612D01*
X26769Y-21832D02*
X38812D01*
X26679Y-21732D02*
X38912D01*
X26853Y-21932D02*
X38712D01*
X27003Y-22132D02*
X38512D01*
X26931Y-22032D02*
X38612D01*
X27070Y-22232D02*
X38412D01*
X27190Y-22432D02*
X38212D01*
X27133Y-22332D02*
X38312D01*
X27244Y-22532D02*
X38112D01*
X27339Y-22732D02*
X37912D01*
X27293Y-22632D02*
X38012D01*
X27380Y-22832D02*
X37812D01*
X27630Y-24132D02*
X36512D01*
X27629Y-24232D02*
X36412D01*
X27624Y-24332D02*
X36312D01*
X27617Y-24432D02*
X36212D01*
X27607Y-24532D02*
X36112D01*
X27594Y-24632D02*
X36012D01*
X27578Y-24732D02*
X35912D01*
X27559Y-24832D02*
X35812D01*
X27537Y-24931D02*
X35712D01*
X27512Y-25031D02*
X35612D01*
X27484Y-25131D02*
X35512D01*
X27452Y-25231D02*
X35412D01*
X27417Y-25331D02*
X35312D01*
X27379Y-25431D02*
X35212D01*
X27337Y-25531D02*
X35112D01*
X27292Y-25631D02*
X35012D01*
X27242Y-25731D02*
X34912D01*
X27188Y-25831D02*
X34812D01*
X27131Y-25931D02*
X34712D01*
X27068Y-26031D02*
X34612D01*
X27001Y-26131D02*
X34512D01*
X26929Y-26232D02*
X34412D01*
X26851Y-26332D02*
X34312D01*
X26767Y-26432D02*
X34212D01*
X28837Y-27731D02*
X32912D01*
X28704Y-27631D02*
X33012D01*
X28958Y-27831D02*
X32812D01*
X29171Y-28031D02*
X32612D01*
X29069Y-27931D02*
X32712D01*
X29265Y-28131D02*
X32512D01*
X29433Y-28331D02*
X32312D01*
X29352Y-28231D02*
X32412D01*
X29508Y-28431D02*
X32212D01*
X29642Y-28631D02*
X32012D01*
X29578Y-28531D02*
X32112D01*
X29702Y-28732D02*
X31912D01*
X26676Y-26532D02*
X34112D01*
X26578Y-26632D02*
X34012D01*
X26471Y-26732D02*
X33912D01*
X26355Y-26832D02*
X33812D01*
X26228Y-26932D02*
X33712D01*
X27268Y-27032D02*
X33612D01*
X27973Y-27232D02*
X33412D01*
X27689Y-27132D02*
X33512D01*
X28199Y-27332D02*
X33312D01*
X28390Y-27431D02*
X33212D01*
X28556Y-27531D02*
X33112D01*
X23345Y3468D02*
X50030D01*
X23245Y3368D02*
X50030D01*
X23145Y3268D02*
X50030D01*
X23045Y3168D02*
X50030D01*
X23645Y3768D02*
X50030D01*
X23545Y3668D02*
X50030D01*
X23445Y3568D02*
X50030D01*
X22645Y2768D02*
X50030D01*
X22545Y2668D02*
X50030D01*
X22445Y2568D02*
X50030D01*
X22945Y3068D02*
X50030D01*
X22845Y2968D02*
X50030D01*
X22745Y2868D02*
X50030D01*
X22045Y2168D02*
X50030D01*
X21945Y2068D02*
X50030D01*
X21845Y1968D02*
X50030D01*
X22345Y2468D02*
X50030D01*
X22245Y2368D02*
X50030D01*
X22145Y2268D02*
X50030D01*
X21645Y1768D02*
X50030D01*
X21545Y1668D02*
X50030D01*
X21445Y1568D02*
X50030D01*
X20010Y133D02*
X33077Y13200D01*
X21745Y1868D02*
X50030D01*
X21045Y1168D02*
X50030D01*
X20945Y1068D02*
X50030D01*
X20845Y968D02*
X50030D01*
X21345Y1468D02*
X50030D01*
X21245Y1368D02*
X50030D01*
X21145Y1268D02*
X50030D01*
X20445Y568D02*
X50030D01*
X20345Y468D02*
X50030D01*
X20245Y368D02*
X50030D01*
X20745Y868D02*
X50030D01*
X20645Y768D02*
X50030D01*
X20545Y668D02*
X50030D01*
X19891Y-32D02*
X50030D01*
X19812Y-132D02*
X50030D01*
X19753Y-232D02*
X50030D01*
X20145Y268D02*
X50030D01*
X20045Y168D02*
X50030D01*
X19964Y68D02*
X50030D01*
X19514Y-632D02*
X50030D01*
X19443Y-732D02*
X50030D01*
X19368Y-832D02*
X50030D01*
X19699Y-332D02*
X50030D01*
X19641Y-432D02*
X50030D01*
X19580Y-532D02*
X50030D01*
X-14705Y3768D02*
X12676D01*
X-14805Y3668D02*
X12624D01*
X-14905Y3568D02*
X12577D01*
X-15005Y3468D02*
X12532D01*
X-15105Y3368D02*
X12491D01*
X-15205Y3268D02*
X12452D01*
X-15305Y3168D02*
X12417D01*
X-15405Y3068D02*
X12385D01*
X-15505Y2968D02*
X12356D01*
X-15605Y2868D02*
X12329D01*
X-15705Y2768D02*
X12305D01*
X-15805Y2668D02*
X12284D01*
X-15905Y2568D02*
X12265D01*
X-16005Y2468D02*
X12249D01*
X-16105Y2368D02*
X12236D01*
X-16205Y2268D02*
X12226D01*
X-16305Y2168D02*
X12217D01*
X-16405Y2068D02*
X12212D01*
X-16505Y1968D02*
X12208D01*
X-16905Y1568D02*
X12208D01*
X-17005Y1468D02*
X12211D01*
X-16605Y1868D02*
X12208D01*
X-16705Y1768D02*
X12208D01*
X-16805Y1668D02*
X12208D01*
X-17405Y1068D02*
X12246D01*
X-17505Y968D02*
X12261D01*
X-17605Y868D02*
X12279D01*
X-17105Y1368D02*
X12215D01*
X-17205Y1268D02*
X12223D01*
X-17305Y1168D02*
X12233D01*
X-18005Y468D02*
X12377D01*
X-18105Y368D02*
X12408D01*
X-18205Y268D02*
X12443D01*
X-17705Y768D02*
X12299D01*
X-17805Y668D02*
X12322D01*
X-17905Y568D02*
X12348D01*
X-18605Y-132D02*
X12612D01*
X-18705Y-232D02*
X12662D01*
X-18805Y-332D02*
X12716D01*
X-18305Y168D02*
X12480D01*
X-18405Y68D02*
X12521D01*
X-18505Y-32D02*
X12565D01*
X-19205Y-732D02*
X12972D01*
X-19305Y-832D02*
X13047D01*
X-19405Y-932D02*
X13127D01*
X-18905Y-432D02*
X12774D01*
X-19005Y-532D02*
X12836D01*
X-19105Y-632D02*
X12902D01*
X19111Y-1132D02*
X50030D01*
X19013Y-1232D02*
X50030D01*
X18907Y-1332D02*
X50030D01*
X18794Y-1432D02*
X50030D01*
X19288Y-932D02*
X50030D01*
X19202Y-1032D02*
X50030D01*
X26025Y-17732D02*
X42912D01*
X25925Y-17832D02*
X42812D01*
X25825Y-17932D02*
X42712D01*
X25725Y-18032D02*
X42612D01*
X25625Y-18132D02*
X42512D01*
X25525Y-18232D02*
X42412D01*
X25425Y-18332D02*
X42312D01*
X18229Y-1832D02*
X50030D01*
X18048Y-1932D02*
X50030D01*
X17840Y-2032D02*
X50030D01*
X18671Y-1532D02*
X50030D01*
X18537Y-1632D02*
X50030D01*
X18391Y-1732D02*
X50030D01*
X-21344Y-2432D02*
X50030D01*
X-21616Y-2532D02*
X50030D01*
X-21978Y-2632D02*
X50030D01*
X17595Y-2132D02*
X50030D01*
X17287Y-2232D02*
X50030D01*
X16828Y-2332D02*
X50030D01*
X25325Y-18432D02*
X42212D01*
X25225Y-18532D02*
X42112D01*
X25125Y-18632D02*
X42012D01*
X25025Y-18732D02*
X41912D01*
X24925Y-18832D02*
X41812D01*
X24825Y-18932D02*
X41712D01*
X24725Y-19032D02*
X41612D01*
X24625Y-19132D02*
X41512D01*
X24525Y-19232D02*
X41412D01*
X24425Y-19332D02*
X41312D01*
X24325Y-19432D02*
X41212D01*
X24967Y-20732D02*
X39912D01*
X24225Y-19532D02*
X41112D01*
X24125Y-19632D02*
X41012D01*
X24025Y-19732D02*
X40912D01*
X23925Y-19832D02*
X40812D01*
X23825Y-19932D02*
X40712D01*
X23725Y-20032D02*
X40612D01*
X23625Y-20132D02*
X40512D01*
X23525Y-20232D02*
X40412D01*
X23425Y-20332D02*
X40312D01*
X23325Y-20432D02*
X40212D01*
X23225Y-20532D02*
X40112D01*
X24234Y-20632D02*
X40012D01*
X-191Y-17399D02*
X15044D01*
X-19505Y-1032D02*
X13213D01*
X-19605Y-1132D02*
X13304D01*
X-19705Y-1232D02*
X13403D01*
X22906Y-20851D02*
X29250Y-14507D01*
X25301Y-20832D02*
X39812D01*
X15044Y-17399D02*
X24760Y-7683D01*
X23125Y-20632D02*
X24026D01*
X-20005Y-1532D02*
X13744D01*
X-20107Y-1632D02*
X13878D01*
X-20216Y-1732D02*
X14024D01*
X-19805Y-1332D02*
X13508D01*
X-20032Y-1558D02*
X-8403Y10070D01*
X-19905Y-1432D02*
X13621D01*
X-20756Y-2132D02*
X14820D01*
X-20926Y-2232D02*
X15128D01*
X-21120Y-2332D02*
X15587D01*
X-20334Y-1832D02*
X14186D01*
X-20462Y-1932D02*
X14368D01*
X-20602Y-2032D02*
X14575D01*
X25758Y-21032D02*
X39612D01*
X25551Y-20932D02*
X39712D01*
X25935Y-21132D02*
X39512D01*
X19825Y-23932D02*
X20636D01*
X19725Y-24032D02*
X20631D01*
X19625Y-24132D02*
X20630D01*
X19535Y-24222D02*
X20851Y-22906D01*
X19525Y-24232D02*
X20631D01*
X19421Y-24332D02*
X20636D01*
X19309Y-24432D02*
X20643D01*
X18754Y-24832D02*
X20701D01*
X18577Y-24931D02*
X20723D01*
X18375Y-25031D02*
X20748D01*
X19188Y-24532D02*
X20653D01*
X19057Y-24632D02*
X20666D01*
X18913Y-24732D02*
X20682D01*
X18139Y-25131D02*
X20776D01*
X17845Y-25231D02*
X20808D01*
X17431Y-25331D02*
X20843D01*
X-191Y-25399D02*
X16701D01*
X49651Y-58731D02*
X56972D01*
X49551Y-58832D02*
X56869D01*
X54426Y-52714D02*
Y-33117D01*
X49451Y-58931D02*
X56766D01*
X49351Y-59032D02*
X56662D01*
X49251Y-59131D02*
X56558D01*
X49151Y-59232D02*
X56453D01*
X49051Y-59331D02*
X56348D01*
X48951Y-59432D02*
X56243D01*
X48851Y-59531D02*
X56137D01*
X48751Y-59632D02*
X56031D01*
X48651Y-59731D02*
X55925D01*
X48551Y-59832D02*
X55818D01*
X48451Y-59932D02*
X55711D01*
X48351Y-60031D02*
X55603D01*
X48251Y-60132D02*
X55495D01*
X48151Y-60231D02*
X55387D01*
X48051Y-60332D02*
X55278D01*
X47951Y-60431D02*
X55169D01*
X47851Y-60532D02*
X55059D01*
X47751Y-60631D02*
X54949D01*
X47651Y-60732D02*
X54839D01*
X47551Y-60831D02*
X54728D01*
X47451Y-60932D02*
X54617D01*
X47351Y-61031D02*
X54505D01*
X47251Y-61132D02*
X54393D01*
X47151Y-61231D02*
X54281D01*
X47051Y-61332D02*
X54168D01*
X46951Y-61431D02*
X54054D01*
X46851Y-61532D02*
X53941D01*
X46751Y-61631D02*
X53827D01*
X46651Y-61732D02*
X53712D01*
X46551Y-61831D02*
X53597D01*
X46451Y-61932D02*
X53482D01*
X46351Y-62031D02*
X53366D01*
X46251Y-62132D02*
X53250D01*
X46151Y-62231D02*
X53133D01*
X46051Y-62332D02*
X53016D01*
X45951Y-62432D02*
X52898D01*
X45851Y-62531D02*
X52780D01*
X45751Y-62632D02*
X52662D01*
X45651Y-62731D02*
X52543D01*
X45551Y-62832D02*
X52423D01*
X45451Y-62931D02*
X52303D01*
X45351Y-63032D02*
X52183D01*
X29856Y-29032D02*
X31612D01*
X29809Y-28932D02*
X31712D01*
X29940Y-29232D02*
X31413D01*
X29900Y-29132D02*
X31512D01*
X30009Y-29432D02*
X31232D01*
X29976Y-29332D02*
X31320D01*
X30039Y-29532D02*
X31151D01*
X30066Y-29632D02*
X31074D01*
X30109Y-29832D02*
X30936D01*
X30089Y-29732D02*
X31003D01*
X30290Y-47603D02*
Y-32011D01*
X29757Y-28832D02*
X31812D01*
X29262Y-32831D02*
X30290D01*
X29168Y-32931D02*
X30290D01*
X29506Y-32531D02*
X30290D01*
X29431Y-32631D02*
X30290D01*
X29350Y-32731D02*
X30290D01*
X28700Y-33331D02*
X30290D01*
X28551Y-33431D02*
X30290D01*
X28384Y-33531D02*
X30290D01*
X29066Y-33031D02*
X30290D01*
X28955Y-33131D02*
X30290D01*
X28833Y-33231D02*
X30290D01*
X27965Y-33732D02*
X30290D01*
X27679Y-33832D02*
X30290D01*
X27250Y-33932D02*
X30290D01*
X28192Y-33631D02*
X30290D01*
X-12322Y-49331D02*
X28561D01*
X-12313Y-49340D02*
X28552D01*
X45251Y-63131D02*
X52062D01*
X45151Y-63232D02*
X51941D01*
X45051Y-63331D02*
X51819D01*
X44951Y-63432D02*
X51697D01*
X28552Y-49340D02*
X30290Y-47603D01*
X44851Y-63531D02*
X51574D01*
X-13422Y-48232D02*
X29661D01*
X-13522Y-48131D02*
X29761D01*
X-13322Y-48331D02*
X29561D01*
X-13122Y-48531D02*
X29361D01*
X-13222Y-48432D02*
X29461D01*
X-13022Y-48632D02*
X29261D01*
X-12822Y-48832D02*
X29061D01*
X-12922Y-48731D02*
X29161D01*
X-12722Y-48931D02*
X28961D01*
X-12522Y-49131D02*
X28761D01*
X-12622Y-49032D02*
X28861D01*
X-12422Y-49232D02*
X28661D01*
X44751Y-63632D02*
X51451D01*
X44651Y-63731D02*
X51327D01*
X44551Y-63832D02*
X51203D01*
X44451Y-63931D02*
X51078D01*
X44351Y-64032D02*
X50953D01*
X44251Y-64131D02*
X50827D01*
X44151Y-64232D02*
X50701D01*
X44051Y-64331D02*
X50574D01*
X43951Y-64432D02*
X50447D01*
X43851Y-64531D02*
X50319D01*
X43751Y-64632D02*
X50191D01*
X43651Y-64731D02*
X50062D01*
X43551Y-64832D02*
X49933D01*
X43451Y-64932D02*
X49803D01*
X43351Y-65031D02*
X49672D01*
X43251Y-65132D02*
X49541D01*
X43151Y-65231D02*
X49410D01*
X43051Y-65332D02*
X49278D01*
X42951Y-65431D02*
X49145D01*
X42851Y-65532D02*
X49012D01*
X40228Y-68155D02*
X53541Y-54842D01*
X42751Y-65631D02*
X48878D01*
X42651Y-65732D02*
X48744D01*
X42551Y-65831D02*
X48609D01*
X42451Y-65932D02*
X48473D01*
X42351Y-66031D02*
X48337D01*
X42251Y-66132D02*
X48201D01*
X42151Y-66231D02*
X48063D01*
X42051Y-66332D02*
X47926D01*
X41951Y-66431D02*
X47787D01*
X41851Y-66532D02*
X47648D01*
X41751Y-66631D02*
X47508D01*
X41651Y-66732D02*
X47368D01*
X41551Y-66831D02*
X47227D01*
X41451Y-66932D02*
X47085D01*
X41351Y-67031D02*
X46943D01*
X41251Y-67132D02*
X46800D01*
X41151Y-67231D02*
X46657D01*
X41051Y-67332D02*
X46513D01*
X40951Y-67432D02*
X46368D01*
X40851Y-67531D02*
X46222D01*
X40751Y-67632D02*
X46076D01*
X40651Y-67731D02*
X45929D01*
X40551Y-67832D02*
X45782D01*
X40451Y-67931D02*
X45633D01*
X40351Y-68032D02*
X45484D01*
X40251Y-68131D02*
X45335D01*
X40149Y-68232D02*
X45184D01*
X40036Y-68331D02*
X45033D01*
X39911Y-68432D02*
X44882D01*
X39771Y-68531D02*
X44729D01*
X39611Y-68632D02*
X44576D01*
X39425Y-68731D02*
X44422D01*
X39199Y-68832D02*
X44267D01*
X38900Y-68931D02*
X44111D01*
X38326Y-69032D02*
X43955D01*
X-13095Y-75431D02*
X31772D01*
X-13056Y-75631D02*
X31294D01*
X-13074Y-75531D02*
X31534D01*
X-13041Y-75731D02*
X31052D01*
X-13550Y-74331D02*
X34260D01*
X-13616Y-74231D02*
X34476D01*
X-13490Y-74431D02*
X34043D01*
X-13381Y-74631D02*
X33603D01*
X-13433Y-74531D02*
X33824D01*
X-13333Y-74731D02*
X33381D01*
X-13248Y-74931D02*
X32931D01*
X-13289Y-74831D02*
X33157D01*
X-13211Y-75031D02*
X32703D01*
X-13147Y-75231D02*
X32241D01*
X-13177Y-75131D02*
X32473D01*
X-13119Y-75331D02*
X32007D01*
X-13020Y-75931D02*
X30561D01*
X-13030Y-75831D02*
X30807D01*
X-13014Y-76031D02*
X30312D01*
X-13010Y-76231D02*
X29806D01*
X-13011Y-76131D02*
X30060D01*
X-13012Y-76331D02*
X29550D01*
X-13018Y-76431D02*
X29291D01*
X-13026Y-76531D02*
X29030D01*
X-13037Y-76631D02*
X28765D01*
X-13051Y-76731D02*
X28498D01*
X-13067Y-76831D02*
X28228D01*
X-13087Y-76931D02*
X27956D01*
X-13110Y-77031D02*
X27680D01*
X-13136Y-77131D02*
X27401D01*
X-13165Y-77231D02*
X27118D01*
X-13198Y-77331D02*
X26833D01*
X-13234Y-77431D02*
X26544D01*
X-13273Y-77531D02*
X26251D01*
X-13316Y-77631D02*
X25955D01*
X-13363Y-77731D02*
X25654D01*
X-13413Y-77831D02*
X25350D01*
X-13468Y-77931D02*
X25042D01*
X-13527Y-78031D02*
X24730D01*
X-13591Y-78131D02*
X24413D01*
X-17222Y-44432D02*
X30290D01*
X-17322Y-44331D02*
X30290D01*
X-17022Y-44632D02*
X30290D01*
X-17122Y-44531D02*
X30290D01*
X-17522Y-44131D02*
X30290D01*
X-17622Y-44032D02*
X30290D01*
X-17422Y-44232D02*
X30290D01*
X-16522Y-45132D02*
X30290D01*
X-16622Y-45031D02*
X30290D01*
X-16422Y-45231D02*
X30290D01*
X-16822Y-44832D02*
X30290D01*
X-16922Y-44731D02*
X30290D01*
X-16722Y-44932D02*
X30290D01*
X-22622Y-39032D02*
X30290D01*
X-22722Y-38932D02*
X30290D01*
X-22522Y-39132D02*
X30290D01*
X-22922Y-38732D02*
X30290D01*
X-23022Y-38631D02*
X30290D01*
X-22822Y-38832D02*
X30290D01*
X-17822Y-43832D02*
X30290D01*
X-17922Y-43731D02*
X30290D01*
X-17722Y-43931D02*
X30290D01*
X-18122Y-43531D02*
X30290D01*
X-22422Y-39232D02*
X30290D01*
X-18022Y-43632D02*
X30290D01*
X-14822Y-46831D02*
X30290D01*
X-14922Y-46732D02*
X30290D01*
X-14722Y-46932D02*
X30290D01*
X-15122Y-46532D02*
X30290D01*
X-15222Y-46431D02*
X30290D01*
X-15022Y-46631D02*
X30290D01*
X-14222Y-47432D02*
X30290D01*
X-14322Y-47332D02*
X30290D01*
X-14122Y-47531D02*
X30290D01*
X-14522Y-47132D02*
X30290D01*
X-14622Y-47031D02*
X30290D01*
X-14422Y-47231D02*
X30290D01*
X-15922Y-45732D02*
X30290D01*
X-16022Y-45631D02*
X30290D01*
X-15822Y-45831D02*
X30290D01*
X-16222Y-45431D02*
X30290D01*
X-16322Y-45332D02*
X30290D01*
X-16122Y-45532D02*
X30290D01*
X-15322Y-46332D02*
X30290D01*
X-15422Y-46231D02*
X30290D01*
X-17780Y-69040D02*
X38100D01*
X-15622Y-46031D02*
X30290D01*
X-15722Y-45932D02*
X30290D01*
X-15522Y-46132D02*
X30290D01*
X-20722Y-40932D02*
X30290D01*
X-20822Y-40831D02*
X30290D01*
X-20522Y-41132D02*
X30290D01*
X-20622Y-41031D02*
X30290D01*
X-21022Y-40631D02*
X30290D01*
X-21122Y-40532D02*
X30290D01*
X-20922Y-40732D02*
X30290D01*
X-20022Y-41631D02*
X30290D01*
X-20122Y-41532D02*
X30290D01*
X-19922Y-41732D02*
X30290D01*
X-20322Y-41332D02*
X30290D01*
X-20422Y-41231D02*
X30290D01*
X-20222Y-41431D02*
X30290D01*
X-21922Y-39732D02*
X30290D01*
X-22022Y-39632D02*
X30290D01*
X-21822Y-39832D02*
X30290D01*
X-22222Y-39432D02*
X30290D01*
X-22322Y-39332D02*
X30290D01*
X-22122Y-39532D02*
X30290D01*
X-21322Y-40332D02*
X30290D01*
X-21422Y-40231D02*
X30290D01*
X-21222Y-40431D02*
X30290D01*
X-21622Y-40031D02*
X30290D01*
X-21722Y-39931D02*
X30290D01*
X-21522Y-40132D02*
X30290D01*
X-18422Y-43232D02*
X30290D01*
X-18522Y-43131D02*
X30290D01*
X-18322Y-43331D02*
X30290D01*
X-18722Y-42931D02*
X30290D01*
X-18822Y-42832D02*
X30290D01*
X-18622Y-43032D02*
X30290D01*
X-14022Y-47632D02*
X30261D01*
X-18222Y-43432D02*
X30290D01*
X-13922Y-47731D02*
X30161D01*
X-13722Y-47931D02*
X29961D01*
X-13822Y-47832D02*
X30061D01*
X-13622Y-48032D02*
X29861D01*
X-19422Y-42231D02*
X30290D01*
X-19522Y-42132D02*
X30290D01*
X-19322Y-42332D02*
X30290D01*
X-19722Y-41932D02*
X30290D01*
X-19822Y-41831D02*
X30290D01*
X-19622Y-42031D02*
X30290D01*
X-19022Y-42632D02*
X30290D01*
X-19122Y-42531D02*
X30290D01*
X-18922Y-42731D02*
X30290D01*
X-19222Y-42432D02*
X30290D01*
X-22123Y-72432D02*
X38105D01*
X-22162Y-72332D02*
X38294D01*
X-22055Y-72632D02*
X37723D01*
X-22087Y-72531D02*
X37915D01*
X-15560Y-72832D02*
X37336D01*
X-16042Y-72731D02*
X37531D01*
X-15258Y-72931D02*
X37141D01*
X-14827Y-73131D02*
X36747D01*
X-15023Y-73032D02*
X36945D01*
X-14656Y-73232D02*
X36548D01*
X-14369Y-73432D02*
X36145D01*
X-14505Y-73331D02*
X36347D01*
X-14245Y-73531D02*
X35942D01*
X-22880Y-71231D02*
X40299D01*
X-22980Y-71132D02*
X40475D01*
X-22787Y-71332D02*
X40122D01*
X-22622Y-71532D02*
X39766D01*
X-22701Y-71431D02*
X39945D01*
X-22548Y-71631D02*
X39585D01*
X-22416Y-71831D02*
X39222D01*
X-22479Y-71732D02*
X39404D01*
X-22357Y-71932D02*
X39039D01*
X-22251Y-72132D02*
X38669D01*
X-22302Y-72031D02*
X38854D01*
X-22205Y-72231D02*
X38482D01*
X-14029Y-73731D02*
X35530D01*
X-14132Y-73632D02*
X35737D01*
X-13933Y-73831D02*
X35322D01*
X-13763Y-74031D02*
X34902D01*
X-13845Y-73931D02*
X35113D01*
X-13687Y-74131D02*
X34690D01*
X-13660Y-78231D02*
X24092D01*
X-13734Y-78331D02*
X23766D01*
X-13814Y-78431D02*
X23435D01*
X-13900Y-78531D02*
X23099D01*
X-13993Y-78631D02*
X22757D01*
X-14093Y-78731D02*
X22410D01*
X-14202Y-78831D02*
X22057D01*
X-14322Y-78931D02*
X21698D01*
X-14453Y-79031D02*
X21332D01*
X-14598Y-79131D02*
X20960D01*
X-14761Y-79231D02*
X20580D01*
X-14947Y-79331D02*
X20192D01*
X-15165Y-79431D02*
X19797D01*
X-15437Y-79531D02*
X19393D01*
X-15821Y-79631D02*
X18980D01*
X-18219Y-79831D02*
X18124D01*
X-18652Y-79731D02*
X18557D01*
X-18033Y-79874D02*
X17938D01*
X-21926Y-73232D02*
X-18364D01*
X-21940Y-73131D02*
X-18193D01*
X-21916Y-73331D02*
X-18515D01*
X-21902Y-73531D02*
X-18775D01*
X-21907Y-73432D02*
X-18651D01*
X-21900Y-73632D02*
X-18887D01*
X-21901Y-73731D02*
X-18991D01*
X-21904Y-73831D02*
X-19087D01*
X-21911Y-73931D02*
X-19175D01*
X-21920Y-74031D02*
X-19257D01*
X-21932Y-74131D02*
X-19333D01*
X-21999Y-72832D02*
X-17460D01*
X-22025Y-72731D02*
X-16978D01*
X-21977Y-72931D02*
X-17762D01*
X-21947Y-74231D02*
X-19404D01*
X-21957Y-73032D02*
X-17997D01*
X-21965Y-74331D02*
X-19469D01*
X-21986Y-74431D02*
X-19530D01*
X-22010Y-74531D02*
X-19587D01*
X-22037Y-74631D02*
X-19639D01*
X-22068Y-74731D02*
X-19687D01*
X-22102Y-74831D02*
X-19731D01*
X-22139Y-74931D02*
X-19772D01*
X-21793Y-78931D02*
X-18698D01*
X-22152Y-78831D02*
X-18818D01*
X-21427Y-79031D02*
X-18567D01*
X-22180Y-75031D02*
X-19809D01*
X-22224Y-75131D02*
X-19843D01*
X-22273Y-75231D02*
X-19873D01*
X-19488Y-79531D02*
X-17583D01*
X-19892Y-79431D02*
X-17854D01*
X-19075Y-79631D02*
X-17199D01*
X-20675Y-79231D02*
X-18259D01*
X-21055Y-79131D02*
X-18422D01*
X-20288Y-79331D02*
X-18073D01*
X-22325Y-75331D02*
X-19900D01*
X-22381Y-75431D02*
X-19925D01*
X-22442Y-75531D02*
X-19946D01*
X-22508Y-75631D02*
X-19964D01*
X-22579Y-75731D02*
X-19978D01*
X-22655Y-75831D02*
X-19991D01*
X-22737Y-75931D02*
X-20000D01*
X-22852Y-78631D02*
X-19028D01*
X-22505Y-78731D02*
X-18927D01*
X-22826Y-76031D02*
X-20006D01*
X-22922Y-76131D02*
X-20009D01*
X-23026Y-76231D02*
X-20010D01*
X-26233Y77568D02*
X26138D01*
X-26527Y77468D02*
X26432D01*
X-26817Y77368D02*
X26722D01*
X-27104Y77268D02*
X27009D01*
X-25328Y77868D02*
X25233D01*
X-25634Y77768D02*
X25538D01*
X-25935Y77668D02*
X25840D01*
X-28219Y76868D02*
X28124D01*
X-28491Y76768D02*
X28395D01*
X-28759Y76668D02*
X28663D01*
X-27388Y77168D02*
X27293D01*
X-27668Y77068D02*
X27573D01*
X-27945Y76968D02*
X27850D01*
X-29804Y76268D02*
X29708D01*
X-30059Y76168D02*
X29963D01*
X-30311Y76068D02*
X30216D01*
X-29024Y76568D02*
X28929D01*
X-29286Y76468D02*
X29191D01*
X-29546Y76368D02*
X29451D01*
X-31297Y75668D02*
X31201D01*
X-31537Y75568D02*
X31442D01*
X-31776Y75468D02*
X31681D01*
X-30561Y75968D02*
X30466D01*
X-30808Y75868D02*
X30713D01*
X-31054Y75768D02*
X30958D01*
X-32710Y75068D02*
X32615D01*
X-32939Y74968D02*
X32843D01*
X-33166Y74868D02*
X33070D01*
X-32013Y75368D02*
X31917D01*
X-32247Y75268D02*
X32152D01*
X-32480Y75168D02*
X32384D01*
X-23119Y39868D02*
X36363D01*
X-34055Y74468D02*
X33959D01*
X-23219Y39768D02*
X36198D01*
X-33391Y74768D02*
X33295D01*
X-33614Y74668D02*
X33518D01*
X-33835Y74568D02*
X33740D01*
X-34916Y74068D02*
X34821D01*
X-35128Y73968D02*
X35033D01*
X-35338Y73868D02*
X35243D01*
X-34272Y74368D02*
X34177D01*
X-34489Y74268D02*
X34393D01*
X-34703Y74168D02*
X34608D01*
X-36162Y73468D02*
X36067D01*
X-36365Y73368D02*
X36270D01*
X-36566Y73268D02*
X36471D01*
X-35546Y73768D02*
X35451D01*
X-35753Y73668D02*
X35658D01*
X-35958Y73568D02*
X35863D01*
X-23735Y78368D02*
X23640D01*
X-24063Y78268D02*
X23968D01*
X-24386Y78168D02*
X24291D01*
X-24704Y78068D02*
X24609D01*
X-23064Y78568D02*
X22969D01*
X-23402Y78468D02*
X23307D01*
X-24929Y60468D02*
X-11032D01*
X-23949Y60268D02*
X-11072D01*
X-24256Y60368D02*
X-11054D01*
X-23719Y60168D02*
X-11087D01*
X-23530Y60068D02*
X-11099D01*
X-23117Y59968D02*
X-11109D01*
X-25018Y77968D02*
X24923D01*
X-32858Y60470D02*
X-25030D01*
X-33903Y42990D02*
X-28483D01*
X-33925Y42968D02*
X-28504D01*
X-34025Y42868D02*
X-28604D01*
X-34125Y42768D02*
X-28704D01*
X-34225Y42668D02*
X-28804D01*
X-34325Y42568D02*
X-28904D01*
X-34425Y42468D02*
X-29004D01*
X-34525Y42368D02*
X-29104D01*
X-34625Y42268D02*
X-29204D01*
X-34725Y42168D02*
X-29304D01*
X-34825Y42068D02*
X-29404D01*
X-34925Y41968D02*
X-29504D01*
X-35025Y41868D02*
X-29604D01*
X-35125Y41768D02*
X-29704D01*
X-35225Y41668D02*
X-29804D01*
X-35325Y41568D02*
X-29904D01*
X-35425Y41468D02*
X-30004D01*
X-35525Y41368D02*
X-30104D01*
X-35625Y41268D02*
X-30204D01*
X-35725Y41168D02*
X-30304D01*
X-35825Y41068D02*
X-30404D01*
X-35925Y40968D02*
X-30504D01*
X-36025Y40868D02*
X-30604D01*
X-36125Y40768D02*
X-30704D01*
X-36225Y40668D02*
X-30804D01*
X-36325Y40568D02*
X-30904D01*
X-36425Y40468D02*
X-31004D01*
X-36525Y40368D02*
X-31104D01*
X-36625Y40268D02*
X-31204D01*
X-36640Y39768D02*
X-31704D01*
X-23319Y39668D02*
X36052D01*
X-23419Y39568D02*
X35920D01*
X-23519Y39468D02*
X35800D01*
X-23619Y39368D02*
X35690D01*
X-23719Y39268D02*
X35589D01*
X-23819Y39168D02*
X35496D01*
X-23919Y39068D02*
X35409D01*
X-24019Y38968D02*
X35329D01*
X-24119Y38868D02*
X35255D01*
X-24219Y38768D02*
X35186D01*
X-24319Y38668D02*
X35122D01*
X-24419Y38568D02*
X35062D01*
X-24519Y38468D02*
X35006D01*
X-24619Y38368D02*
X34906D01*
X-24719Y38268D02*
X34806D01*
X-24819Y38168D02*
X34706D01*
X-24919Y38068D02*
X34606D01*
X-25019Y37968D02*
X34506D01*
X-25119Y37868D02*
X34406D01*
X-25219Y37768D02*
X34306D01*
X-32164Y30824D02*
X-16457Y46530D01*
X-25319Y37668D02*
X34206D01*
X-25419Y37568D02*
X-20445D01*
X-25519Y37468D02*
X-20889D01*
X-25619Y37368D02*
X-21166D01*
X-25719Y37268D02*
X-21381D01*
X-25819Y37168D02*
X-21560D01*
X-25919Y37068D02*
X-21715D01*
X-26019Y36968D02*
X-21851D01*
X-26119Y36868D02*
X-21973D01*
X-26219Y36768D02*
X-22083D01*
X-26319Y36668D02*
X-22184D01*
X-26419Y36568D02*
X-22284D01*
X-26519Y36468D02*
X-22384D01*
X-26619Y36368D02*
X-22484D01*
X-26719Y36268D02*
X-22584D01*
X-26819Y36168D02*
X-22684D01*
X-26919Y36068D02*
X-22784D01*
X-27019Y35968D02*
X-22884D01*
X-27119Y35868D02*
X-22984D01*
X-27219Y35768D02*
X-23084D01*
X-27319Y35668D02*
X-23184D01*
X-27419Y35568D02*
X-23284D01*
X-27519Y35468D02*
X-23384D01*
X-32062Y26790D02*
X-22138Y36715D01*
X-27619Y35368D02*
X-23484D01*
X-27719Y35268D02*
X-23584D01*
X-27819Y35168D02*
X-23684D01*
X-27919Y35068D02*
X-23784D01*
X-36640Y38268D02*
X-33204D01*
X-36640Y38368D02*
X-33104D01*
X-36640Y38068D02*
X-33404D01*
X-36640Y38168D02*
X-33304D01*
X-36640Y37868D02*
X-33604D01*
X-36640Y37968D02*
X-33504D01*
X-36640Y37768D02*
X-33704D01*
X-36407Y35066D02*
X-28483Y42990D01*
X-36640Y37668D02*
X-33804D01*
X-36640Y37568D02*
X-33904D01*
X-36640Y37368D02*
X-34104D01*
X-36640Y37468D02*
X-34004D01*
X-36640Y37268D02*
X-34204D01*
X-36640Y39468D02*
X-32004D01*
X-36640Y39668D02*
X-31804D01*
X-36640Y39368D02*
X-32104D01*
X-36640Y39168D02*
X-32304D01*
X-36640Y39268D02*
X-32204D01*
X-36640Y39068D02*
X-32404D01*
X-36640Y38868D02*
X-32604D01*
X-36640Y38968D02*
X-32504D01*
X-36640Y38768D02*
X-32704D01*
X-36640Y38568D02*
X-32904D01*
X-36640Y38668D02*
X-32804D01*
X-36640Y38468D02*
X-33004D01*
X-28019Y34968D02*
X-23884D01*
X-28119Y34868D02*
X-23984D01*
X-28219Y34768D02*
X-24084D01*
X-28319Y34668D02*
X-24184D01*
X-28419Y34568D02*
X-24284D01*
X-28519Y34468D02*
X-24384D01*
X-28619Y34368D02*
X-24484D01*
X-28719Y34268D02*
X-24584D01*
X-28819Y34168D02*
X-24684D01*
X-28919Y34068D02*
X-24784D01*
X-29019Y33968D02*
X-24884D01*
X-29119Y33868D02*
X-24984D01*
X-36640Y37068D02*
X-34404D01*
X-36640Y37168D02*
X-34304D01*
X-36640Y36968D02*
X-34504D01*
X-36640Y36768D02*
X-34704D01*
X-36640Y36868D02*
X-34604D01*
X-36640Y36668D02*
X-34804D01*
X-29219Y33768D02*
X-25084D01*
X-29319Y33668D02*
X-25184D01*
X-29419Y33568D02*
X-25284D01*
X-36640Y36468D02*
X-35004D01*
X-36640Y36568D02*
X-34904D01*
X-29519Y33468D02*
X-25384D01*
X-45672Y67968D02*
X45576D01*
X-45820Y67868D02*
X45725D01*
X-45968Y67768D02*
X45873D01*
X-46115Y67668D02*
X46020D01*
X-45222Y68268D02*
X45127D01*
X-45372Y68168D02*
X45277D01*
X-45522Y68068D02*
X45427D01*
X-46697Y67268D02*
X46602D01*
X-46841Y67168D02*
X46745D01*
X-46984Y67068D02*
X46888D01*
X-46262Y67568D02*
X46166D01*
X-46407Y67468D02*
X46312D01*
X-46552Y67368D02*
X46457D01*
X-47550Y66668D02*
X47455D01*
X-47690Y66568D02*
X47594D01*
X-47829Y66468D02*
X47734D01*
X-47126Y66968D02*
X47031D01*
X-47268Y66868D02*
X47173D01*
X-47409Y66768D02*
X47314D01*
X-48380Y66068D02*
X48285D01*
X-48517Y65968D02*
X48421D01*
X-48652Y65868D02*
X48557D01*
X-47968Y66368D02*
X47873D01*
X-48106Y66268D02*
X48011D01*
X-48243Y66168D02*
X48148D01*
X-49189Y65468D02*
X49094D01*
X-49322Y65368D02*
X49227D01*
X-49454Y65268D02*
X49359D01*
X-48787Y65768D02*
X48692D01*
X-48922Y65668D02*
X48827D01*
X-49056Y65568D02*
X48961D01*
X-49978Y64868D02*
X49883D01*
X-50108Y64768D02*
X50012D01*
X-50237Y64668D02*
X50142D01*
X-49586Y65168D02*
X49491D01*
X-49717Y65068D02*
X49622D01*
X-49848Y64968D02*
X49753D01*
X-50748Y64268D02*
X50652D01*
X-50874Y64168D02*
X50779D01*
X-51000Y64068D02*
X50905D01*
X-50365Y64568D02*
X50270D01*
X-50493Y64468D02*
X50398D01*
X-50621Y64368D02*
X50525D01*
X-51499Y63668D02*
X51403D01*
X-51622Y63568D02*
X51527D01*
X-51745Y63468D02*
X51650D01*
X-51125Y63968D02*
X51030D01*
X-51250Y63868D02*
X51155D01*
X-51375Y63768D02*
X51280D01*
X-37357Y72868D02*
X37262D01*
X-37552Y72768D02*
X37456D01*
X-37745Y72668D02*
X37650D01*
X-37937Y72568D02*
X37841D01*
X-36766Y73168D02*
X36670D01*
X-36964Y73068D02*
X36869D01*
X-37161Y72968D02*
X37066D01*
X-38693Y72168D02*
X38597D01*
X-38879Y72068D02*
X38783D01*
X-39063Y71968D02*
X38968D01*
X-38128Y72468D02*
X38032D01*
X-38317Y72368D02*
X38222D01*
X-38505Y72268D02*
X38410D01*
X-39792Y71568D02*
X39697D01*
X-39971Y71468D02*
X39876D01*
X-40150Y71368D02*
X40054D01*
X-39247Y71868D02*
X39152D01*
X-39430Y71768D02*
X39335D01*
X-39611Y71668D02*
X39516D01*
X-40853Y70968D02*
X40757D01*
X-41026Y70868D02*
X40931D01*
X-41198Y70768D02*
X41103D01*
X-40327Y71268D02*
X40232D01*
X-40503Y71168D02*
X40408D01*
X-40678Y71068D02*
X40583D01*
X-41878Y70368D02*
X41783D01*
X-42046Y70268D02*
X41950D01*
X-42212Y70168D02*
X42117D01*
X-41370Y70668D02*
X41274D01*
X-41540Y70568D02*
X41445D01*
X-41709Y70468D02*
X41614D01*
X-42871Y69768D02*
X42775D01*
X-43033Y69668D02*
X42938D01*
X-43194Y69568D02*
X43099D01*
X-42378Y70068D02*
X42283D01*
X-42543Y69968D02*
X42448D01*
X-42707Y69868D02*
X42612D01*
X-43832Y69168D02*
X43737D01*
X-43990Y69068D02*
X43895D01*
X-44146Y68968D02*
X44051D01*
X-43355Y69468D02*
X43260D01*
X-43515Y69368D02*
X43420D01*
X-43674Y69268D02*
X43579D01*
X-44765Y68568D02*
X44670D01*
X-44918Y68468D02*
X44823D01*
X-45070Y68368D02*
X44975D01*
X-44302Y68868D02*
X44207D01*
X-44458Y68768D02*
X44362D01*
X-44612Y68668D02*
X44517D01*
X-51867Y63368D02*
X51772D01*
X-51989Y63268D02*
X51894D01*
X-52111Y63168D02*
X-8009D01*
X-52232Y63068D02*
X-8535D01*
X-52352Y62968D02*
X-8846D01*
X-52473Y62868D02*
X-9086D01*
X-52592Y62768D02*
X-9286D01*
X-52711Y62668D02*
X-9458D01*
X-52830Y62568D02*
X-9611D01*
X-52948Y62468D02*
X-9749D01*
X-53066Y62368D02*
X-9873D01*
X-53183Y62268D02*
X-9987D01*
X-53300Y62168D02*
X-10091D01*
X-53417Y62068D02*
X-10188D01*
X-53533Y61968D02*
X-10277D01*
X-53648Y61868D02*
X-10359D01*
X-53763Y61768D02*
X-10436D01*
X-53878Y61668D02*
X-10507D01*
X-53992Y61568D02*
X-10573D01*
X-54106Y61468D02*
X-10635D01*
X-54220Y61368D02*
X-10691D01*
X-54333Y61268D02*
X-10744D01*
X-54445Y61168D02*
X-10792D01*
X-54557Y61068D02*
X-10837D01*
X-54669Y60968D02*
X-10878D01*
X-54781Y60868D02*
X-10916D01*
X-54892Y60768D02*
X-10950D01*
X-55002Y60668D02*
X-10980D01*
X-51335Y43236D02*
X-34986Y59585D01*
X-55112Y60568D02*
X-11008D01*
X-36640Y40253D02*
X-33903Y42990D01*
X-36640Y40068D02*
X-31404D01*
X-36640Y40168D02*
X-31304D01*
X-36640Y39968D02*
X-31504D01*
X-36640Y39568D02*
X-31904D01*
X-36640Y39868D02*
X-31604D01*
X-36640Y36368D02*
X-35104D01*
X-55222Y60468D02*
X-32959D01*
X-55331Y60368D02*
X-33633D01*
X-55440Y60268D02*
X-33940D01*
X-55549Y60168D02*
X-34169D01*
X-55657Y60068D02*
X-34358D01*
X-55765Y59968D02*
X-34519D01*
X-55872Y59868D02*
X-34660D01*
X-55979Y59768D02*
X-34786D01*
X-56086Y59668D02*
X-34900D01*
X-56192Y59568D02*
X-35003D01*
X-56298Y59468D02*
X-35103D01*
X-56403Y59368D02*
X-35203D01*
X-56508Y59268D02*
X-35303D01*
X-56613Y59168D02*
X-35403D01*
X-56717Y59068D02*
X-35503D01*
X-56821Y58968D02*
X-35603D01*
X-56925Y58868D02*
X-35703D01*
X-57028Y58768D02*
X-35803D01*
X-57131Y58668D02*
X-35903D01*
X-57234Y58568D02*
X-36003D01*
X-57336Y58468D02*
X-36102D01*
X-57438Y58368D02*
X-36202D01*
X-57539Y58268D02*
X-36302D01*
X-57640Y58168D02*
X-36402D01*
X-57741Y58068D02*
X-36502D01*
X-57841Y57968D02*
X-36602D01*
X-57941Y57868D02*
X-36702D01*
X-58041Y57768D02*
X-36802D01*
X-58141Y57668D02*
X-36902D01*
X-58240Y57568D02*
X-37002D01*
X-58338Y57468D02*
X-37102D01*
X-58437Y57368D02*
X-37202D01*
X-58535Y57268D02*
X-37302D01*
X-58632Y57168D02*
X-37403D01*
X-58730Y57068D02*
X-37503D01*
X-58827Y56968D02*
X-37603D01*
X-58924Y56868D02*
X-37703D01*
X-36640Y36268D02*
X-35204D01*
X-59020Y56768D02*
X-37803D01*
X-36640Y36168D02*
X-35304D01*
X-59116Y56668D02*
X-37903D01*
X-59212Y56568D02*
X-38003D01*
X-59307Y56468D02*
X-38103D01*
X-36640Y35968D02*
X-35504D01*
X-36640Y36068D02*
X-35404D01*
X-36640Y35868D02*
X-35604D01*
X-36640Y35768D02*
X-35704D01*
X-36640Y34999D02*
Y40253D01*
Y35668D02*
X-35804D01*
X-59402Y56368D02*
X-38203D01*
X-59497Y56268D02*
X-38303D01*
X-59591Y56168D02*
X-38403D01*
X-59685Y56068D02*
X-38503D01*
X-59779Y55968D02*
X-38602D01*
X-59873Y55868D02*
X-38702D01*
X-59966Y55768D02*
X-38802D01*
X-60059Y55668D02*
X-38902D01*
X-60151Y55568D02*
X-39002D01*
X-60244Y55468D02*
X-39102D01*
X-60335Y55368D02*
X-39202D01*
X-60427Y55268D02*
X-39302D01*
X-23299Y27068D02*
X20740D01*
X-23399Y26968D02*
X20768D01*
X-23499Y26868D02*
X20798D01*
X-23599Y26768D02*
X20832D01*
X-23099Y27268D02*
X20695D01*
X-29619Y33368D02*
X-25484D01*
X-23199Y27168D02*
X20716D01*
X-23699Y26668D02*
X20869D01*
X-23799Y26568D02*
X20910D01*
X-23899Y26468D02*
X20954D01*
X-23999Y26368D02*
X18545D01*
X-24099Y26268D02*
X18082D01*
X-24199Y26168D02*
X17785D01*
X-29719Y33268D02*
X-25584D01*
X-29819Y33168D02*
X-25684D01*
X-29919Y33068D02*
X-25784D01*
X-30019Y32968D02*
X-25884D01*
X-30119Y32868D02*
X-25984D01*
X-30219Y32768D02*
X-26084D01*
X-30319Y32668D02*
X-26184D01*
X-30419Y32568D02*
X-26284D01*
X-30519Y32468D02*
X-26384D01*
X-30619Y32368D02*
X-26484D01*
X-30719Y32268D02*
X-26584D01*
X-30819Y32168D02*
X-26684D01*
X-24299Y26068D02*
X17552D01*
X-24399Y25968D02*
X17357D01*
X-24499Y25868D02*
X17188D01*
X-24599Y25768D02*
X17037D01*
X-24699Y25668D02*
X16902D01*
X-24799Y25568D02*
X16779D01*
X-24899Y25468D02*
X16667D01*
X-24999Y25368D02*
X16564D01*
X-25099Y25268D02*
X16468D01*
X-25199Y25168D02*
X16380D01*
X-25299Y25068D02*
X-23249D01*
X-25399Y24968D02*
X-23775D01*
X-25499Y24868D02*
X-24086D01*
X-25599Y24768D02*
X-24326D01*
X-25699Y24668D02*
X-24525D01*
X-25799Y24568D02*
X-24698D01*
X-25899Y24468D02*
X-24851D01*
X-25999Y24368D02*
X-24989D01*
X-26099Y24268D02*
X-25113D01*
X-26199Y24168D02*
X-25227D01*
X-26299Y24068D02*
X-25331D01*
X-26399Y23968D02*
X-25428D01*
X-26499Y23868D02*
X-25517D01*
X-26599Y23768D02*
X-25600D01*
X-30919Y32068D02*
X-26784D01*
X-31019Y31968D02*
X-26884D01*
X-31119Y31868D02*
X-26984D01*
X-31219Y31768D02*
X-27084D01*
X-31319Y31668D02*
X-27184D01*
X-31419Y31568D02*
X-27284D01*
X-31519Y31468D02*
X-27384D01*
X-31619Y31368D02*
X-27484D01*
X-31719Y31268D02*
X-27584D01*
X-31819Y31168D02*
X-27684D01*
X-31919Y31068D02*
X-27784D01*
X-32019Y30968D02*
X-27884D01*
X-32119Y30868D02*
X-27984D01*
X-32178Y30768D02*
X-28084D01*
X-32206Y30668D02*
X-28184D01*
X-32238Y30568D02*
X-28284D01*
X-32273Y30468D02*
X-28384D01*
X-32311Y30368D02*
X-28484D01*
X-32353Y30268D02*
X-28584D01*
X-32399Y30168D02*
X-28684D01*
X-32448Y30068D02*
X-28784D01*
X-32501Y29968D02*
X-28884D01*
X-32559Y29868D02*
X-28984D01*
X-32622Y29768D02*
X-29084D01*
X-32557Y28468D02*
X-30384D01*
X-32620Y28568D02*
X-30284D01*
X-32500Y28368D02*
X-30484D01*
X-32397Y28168D02*
X-30684D01*
X-32446Y28268D02*
X-30584D01*
X-32352Y28068D02*
X-30784D01*
X-32271Y27868D02*
X-30984D01*
X-32310Y27968D02*
X-30884D01*
X-32237Y27768D02*
X-31084D01*
X-32177Y27568D02*
X-31284D01*
X-32205Y27668D02*
X-31184D01*
X-32152Y27468D02*
X-31384D01*
X-32689Y29668D02*
X-29184D01*
X-32761Y29568D02*
X-29284D01*
X-32839Y29468D02*
X-29384D01*
X-32923Y29368D02*
X-29484D01*
X-33014Y29268D02*
X-29584D01*
X-33109Y29168D02*
X-29684D01*
X-32920Y28968D02*
X-29884D01*
X-33011Y29068D02*
X-29784D01*
X-32836Y28868D02*
X-29984D01*
X-32759Y28768D02*
X-30084D01*
X-32687Y28668D02*
X-30184D01*
X-31899Y18468D02*
X-24443D01*
X-31999Y18368D02*
X-24228D01*
X-32099Y18268D02*
X-23963D01*
X-32199Y18168D02*
X-23596D01*
X-31599Y18768D02*
X-24931D01*
X-31699Y18668D02*
X-24787D01*
X-31799Y18568D02*
X-24626D01*
X-32299Y18068D02*
X-10174D01*
X-32399Y17968D02*
X-10956D01*
X-32499Y17868D02*
X-11314D01*
X-32599Y17768D02*
X-11584D01*
X-32699Y17668D02*
X-11807D01*
X-32799Y17568D02*
X-11999D01*
X-32899Y17468D02*
X-12170D01*
X-32999Y17368D02*
X-12323D01*
X-33099Y17268D02*
X-12462D01*
X-33199Y17168D02*
X-12590D01*
X-33299Y17068D02*
X-12708D01*
X-33399Y16968D02*
X-12817D01*
X-33499Y16868D02*
X-12918D01*
X-33599Y16768D02*
X-13018D01*
X-33699Y16668D02*
X-13118D01*
X-33799Y16568D02*
X-13218D01*
X-33899Y16468D02*
X-13319D01*
X-33999Y16368D02*
X-13419D01*
X-34099Y16268D02*
X-13519D01*
X-34199Y16168D02*
X-13619D01*
X-34299Y16068D02*
X-13719D01*
X-34399Y15968D02*
X-13819D01*
X-34499Y15868D02*
X-13918D01*
X-34599Y15768D02*
X-14018D01*
X-34699Y15668D02*
X-14118D01*
X-23334Y13568D02*
X-16219D01*
X-25688Y4098D02*
X-22906Y6881D01*
X-23888Y6668D02*
X-23118D01*
X-34799Y15568D02*
X-14218D01*
X-34899Y15468D02*
X-14318D01*
X-34999Y15368D02*
X-14418D01*
X-35099Y15268D02*
X-14519D01*
X-35199Y15168D02*
X-14619D01*
X-35299Y15068D02*
X-14719D01*
X-35399Y14968D02*
X-14819D01*
X-35499Y14868D02*
X-14919D01*
X-35599Y14768D02*
X-15019D01*
X-35699Y14668D02*
X-15118D01*
X-35799Y14568D02*
X-15218D01*
X-35899Y14468D02*
X-15318D01*
X-26699Y23668D02*
X-25676D01*
X-26799Y23568D02*
X-25747D01*
X-26899Y23468D02*
X-25813D01*
X-26999Y23368D02*
X-25875D01*
X-27099Y23268D02*
X-25931D01*
X-27199Y23168D02*
X-25984D01*
X-27299Y23068D02*
X-26032D01*
X-27399Y22968D02*
X-26077D01*
X-27499Y22868D02*
X-26118D01*
X-27599Y22768D02*
X-26156D01*
X-27699Y22668D02*
X-26190D01*
X-27799Y22568D02*
X-26221D01*
X-27899Y22468D02*
X-26248D01*
X-27999Y22368D02*
X-26272D01*
X-28099Y22268D02*
X-26294D01*
X-28199Y22168D02*
X-26312D01*
X-28299Y22068D02*
X-26327D01*
X-28399Y21968D02*
X-26339D01*
X-28499Y21868D02*
X-26349D01*
X-28599Y21768D02*
X-26355D01*
X-28999Y21368D02*
X-26353D01*
X-29099Y21268D02*
X-26345D01*
X-28699Y21668D02*
X-26359D01*
X-28799Y21568D02*
X-26360D01*
X-28899Y21468D02*
X-26358D01*
X-29499Y20868D02*
X-26285D01*
X-29599Y20768D02*
X-26262D01*
X-29699Y20668D02*
X-26237D01*
X-29199Y21168D02*
X-26335D01*
X-29299Y21068D02*
X-26321D01*
X-29399Y20968D02*
X-26304D01*
X-30099Y20268D02*
X-26101D01*
X-30199Y20168D02*
X-26058D01*
X-30299Y20068D02*
X-26012D01*
X-29799Y20568D02*
X-26208D01*
X-29899Y20468D02*
X-26175D01*
X-29999Y20368D02*
X-26140D01*
X-30699Y19668D02*
X-25785D01*
X-30799Y19568D02*
X-25717D01*
X-30899Y19468D02*
X-25644D01*
X-30399Y19968D02*
X-25962D01*
X-30499Y19868D02*
X-25907D01*
X-30599Y19768D02*
X-25849D01*
X-31299Y19068D02*
X-25287D01*
X-31399Y18968D02*
X-25179D01*
X-31499Y18868D02*
X-25061D01*
X-30999Y19368D02*
X-25564D01*
X-31099Y19268D02*
X-25479D01*
X-31199Y19168D02*
X-25387D01*
X-35999Y14368D02*
X-15418D01*
X-36099Y14268D02*
X-15518D01*
X-36199Y14168D02*
X-15618D01*
X-36299Y14068D02*
X-15718D01*
X-36399Y13968D02*
X-15819D01*
X-36499Y13868D02*
X-15919D01*
X-36599Y13768D02*
X-16019D01*
X-36699Y13668D02*
X-16119D01*
X-36799Y13568D02*
X-24926D01*
X-36899Y13468D02*
X-25272D01*
X-36999Y13368D02*
X-25529D01*
X-37099Y13268D02*
X-25739D01*
X-37199Y13168D02*
X-25919D01*
X-37299Y13068D02*
X-26077D01*
X-37399Y12968D02*
X-26219D01*
X-37499Y12868D02*
X-26347D01*
X-37599Y12768D02*
X-26464D01*
X-37699Y12668D02*
X-26571D01*
X-37799Y12568D02*
X-26670D01*
X-37899Y12468D02*
X-26761D01*
X-39784Y10583D02*
X-18767Y31600D01*
X-37999Y12368D02*
X-26845D01*
X-38099Y12268D02*
X-26924D01*
X-38199Y12168D02*
X-26996D01*
X-38299Y12068D02*
X-27064D01*
X-38399Y11968D02*
X-27127D01*
X-38499Y11868D02*
X-27185D01*
X-38599Y11768D02*
X-27239D01*
X-38699Y11668D02*
X-27288D01*
X-38799Y11568D02*
X-27334D01*
X-38899Y11468D02*
X-27376D01*
X-38999Y11368D02*
X-27415D01*
X-39099Y11268D02*
X-27450D01*
X-39199Y11168D02*
X-27482D01*
X-39299Y11068D02*
X-27510D01*
X-39399Y10968D02*
X-27535D01*
X-39499Y10868D02*
X-27558D01*
X-39599Y10768D02*
X-27577D01*
X-39699Y10668D02*
X-27593D01*
X-39788Y10568D02*
X-27606D01*
X-39815Y10468D02*
X-27616D01*
X-40048Y9868D02*
X-27618D01*
X-40100Y9768D02*
X-27608D01*
X-40352Y9368D02*
X-27539D01*
X-40427Y9268D02*
X-27515D01*
X-40509Y9168D02*
X-27487D01*
X-40156Y9668D02*
X-27595D01*
X-40216Y9568D02*
X-27580D01*
X-40281Y9468D02*
X-27561D01*
X-37582Y23168D02*
X-35684D01*
X-37669Y23068D02*
X-35784D01*
X-37762Y22968D02*
X-35884D01*
X-37500Y23268D02*
X-36384D01*
X-37861Y22868D02*
X-35984D01*
X-37961Y22768D02*
X-36084D01*
X-38061Y22668D02*
X-36184D01*
X-38161Y22568D02*
X-36284D01*
X-38261Y22468D02*
X-36384D01*
X-38361Y22368D02*
X-36484D01*
X-38461Y22268D02*
X-36584D01*
X-38561Y22168D02*
X-36684D01*
X-38661Y22068D02*
X-36784D01*
X-38761Y21968D02*
X-36884D01*
X-38861Y21868D02*
X-36984D01*
X-38961Y21768D02*
X-37084D01*
X-39061Y21668D02*
X-37184D01*
X-44026Y14826D02*
X-35680Y23172D01*
X-39161Y21568D02*
X-37284D01*
X-39261Y21468D02*
X-37384D01*
X-48070Y12660D02*
X-37817Y22913D01*
X-39361Y21368D02*
X-37484D01*
X-39461Y21268D02*
X-37584D01*
X-39561Y21168D02*
X-37684D01*
X-39661Y21068D02*
X-37784D01*
X-39761Y20968D02*
X-37884D01*
X-39861Y20868D02*
X-37984D01*
X-39961Y20768D02*
X-38084D01*
X-39845Y10368D02*
X-27624D01*
X-39878Y10268D02*
X-27628D01*
X-40000Y9968D02*
X-27625D01*
X-39915Y10168D02*
X-27630D01*
X-40061Y20668D02*
X-38184D01*
X-39956Y10068D02*
X-27629D01*
X-40161Y20568D02*
X-38284D01*
X-40261Y20468D02*
X-38384D01*
X-40361Y20368D02*
X-38484D01*
X-40461Y20268D02*
X-38584D01*
X-40561Y20168D02*
X-38684D01*
X-40661Y20068D02*
X-38784D01*
X-40761Y19968D02*
X-38884D01*
X-40861Y19868D02*
X-38984D01*
X-40961Y19768D02*
X-39084D01*
X-41061Y19668D02*
X-39184D01*
X-41161Y19568D02*
X-39284D01*
X-41261Y19468D02*
X-39384D01*
X-48070Y6268D02*
X-23518D01*
X-48070Y6368D02*
X-23418D01*
X-48070Y6068D02*
X-23718D01*
X-48070Y6168D02*
X-23618D01*
X-48070Y5868D02*
X-23918D01*
X-48070Y5968D02*
X-23818D01*
X-48070Y5768D02*
X-24018D01*
X-48070Y5568D02*
X-24218D01*
X-48070Y5668D02*
X-24118D01*
X-48070Y5468D02*
X-24318D01*
X-48070Y5268D02*
X-24518D01*
X-48070Y5368D02*
X-24418D01*
X-48070Y5168D02*
X-24618D01*
X-48070Y7168D02*
X-25947D01*
X-48070Y7268D02*
X-26102D01*
X-48070Y7068D02*
X-25771D01*
X-48070Y7468D02*
X-26367D01*
X-48070Y7568D02*
X-26482D01*
X-48070Y7368D02*
X-26241D01*
X-48070Y6568D02*
X-23218D01*
X-48070Y6668D02*
X-24372D01*
X-48070Y6468D02*
X-23318D01*
X-48070Y6868D02*
X-25320D01*
X-48070Y6968D02*
X-25566D01*
X-48070Y6768D02*
X-24994D01*
X-48070Y3768D02*
X-25984D01*
X-48070Y3868D02*
X-25901D01*
X-48070Y3668D02*
X-26061D01*
X-48070Y3468D02*
X-26202D01*
X-48070Y3568D02*
X-26134D01*
X-48070Y3368D02*
X-26265D01*
X-48070Y3168D02*
X-26381D01*
X-48070Y3268D02*
X-26325D01*
X-48070Y-532D02*
X-26431D01*
X-48070Y2968D02*
X-26481D01*
X-48070Y3068D02*
X-26433D01*
X-48070Y-432D02*
X-26480D01*
X-48070Y4968D02*
X-24818D01*
X-48070Y5068D02*
X-24718D01*
X-48070Y4868D02*
X-24918D01*
X-48070Y4668D02*
X-25118D01*
X-48070Y4768D02*
X-25018D01*
X-48070Y4568D02*
X-25218D01*
X-48070Y4368D02*
X-25418D01*
X-48070Y4468D02*
X-25318D01*
X-48070Y4268D02*
X-25518D01*
X-48070Y4068D02*
X-25718D01*
X-48070Y4168D02*
X-25618D01*
X-48070Y3968D02*
X-25813D01*
X-40907Y8768D02*
X-27341D01*
X-41030Y8668D02*
X-27296D01*
X-41165Y8568D02*
X-27247D01*
X-40597Y9068D02*
X-27455D01*
X-40692Y8968D02*
X-27421D01*
X-40795Y8868D02*
X-27383D01*
X-41910Y8168D02*
X-27008D01*
X-42206Y8068D02*
X-26936D01*
X-42663Y7968D02*
X-26859D01*
X-41315Y8468D02*
X-27194D01*
X-41484Y8368D02*
X-27137D01*
X-41679Y8268D02*
X-27075D01*
X-48070Y2868D02*
X-26527D01*
X-48070Y7668D02*
X-26588D01*
X-48070Y2768D02*
X-26569D01*
X-48070Y7768D02*
X-26685D01*
X-48070Y7868D02*
X-26776D01*
X-48070Y2668D02*
X-26608D01*
X-48070Y2468D02*
X-26676D01*
X-48070Y2568D02*
X-26643D01*
X-48070Y2368D02*
X-26706D01*
X-48070Y2168D02*
X-26758D01*
X-48070Y2268D02*
X-26733D01*
X-48070Y2068D02*
X-26779D01*
X-48070Y368D02*
X-26757D01*
X-48070Y468D02*
X-26779D01*
X-48070Y268D02*
X-26733D01*
X-48070Y668D02*
X-26814D01*
X-48070Y768D02*
X-26828D01*
X-48070Y568D02*
X-26798D01*
X-48070Y-232D02*
X-26567D01*
X-48070Y-132D02*
X-26606D01*
X-48070Y-332D02*
X-26525D01*
X-48070Y68D02*
X-26675D01*
X-48070Y168D02*
X-26705D01*
X-48070Y-32D02*
X-26642D01*
X-48070Y1868D02*
X-26815D01*
X-48070Y1968D02*
X-26799D01*
X-48070Y1768D02*
X-26829D01*
X-48070Y1568D02*
X-26849D01*
X-48070Y1668D02*
X-26840D01*
X-48070Y1468D02*
X-26855D01*
X-48070Y968D02*
X-26849D01*
X-48070Y1068D02*
X-26855D01*
X-48070Y868D02*
X-26840D01*
X-48070Y1268D02*
X-26860D01*
X-48070Y1368D02*
X-26859D01*
X-48070Y1168D02*
X-26859D01*
X-60518Y55168D02*
X-39402D01*
X-60609Y55068D02*
X-39502D01*
X-60700Y54968D02*
X-39602D01*
X-60791Y54868D02*
X-39702D01*
X-60881Y54768D02*
X-39802D01*
X-60971Y54668D02*
X-39903D01*
X-61060Y54568D02*
X-40002D01*
X-61149Y54468D02*
X-40103D01*
X-61238Y54368D02*
X-40202D01*
X-61327Y54268D02*
X-40303D01*
X-61415Y54168D02*
X-40402D01*
X-61504Y54068D02*
X-40503D01*
X-61591Y53968D02*
X-40602D01*
X-61679Y53868D02*
X-40703D01*
X-61766Y53768D02*
X-40802D01*
X-61853Y53668D02*
X-40903D01*
X-61940Y53568D02*
X-41002D01*
X-62026Y53468D02*
X-41102D01*
X-62112Y53368D02*
X-41203D01*
X-62198Y53268D02*
X-41302D01*
X-62283Y53168D02*
X-41403D01*
X-62369Y53068D02*
X-41502D01*
X-62453Y52968D02*
X-41603D01*
X-62538Y52868D02*
X-41702D01*
X-62623Y52768D02*
X-41803D01*
X-62707Y52668D02*
X-41902D01*
X-62791Y52568D02*
X-42003D01*
X-62874Y52468D02*
X-42102D01*
X-62958Y52368D02*
X-42203D01*
X-63041Y52268D02*
X-42302D01*
X-63123Y52168D02*
X-42403D01*
X-63206Y52068D02*
X-42502D01*
X-63288Y51968D02*
X-42603D01*
X-63370Y51868D02*
X-42702D01*
X-63452Y51768D02*
X-42803D01*
X-63534Y51668D02*
X-42902D01*
X-63615Y51568D02*
X-43003D01*
X-63696Y51468D02*
X-43102D01*
X-63776Y51368D02*
X-43203D01*
X-63857Y51268D02*
X-43302D01*
X-63937Y51168D02*
X-43403D01*
X-64017Y51068D02*
X-43502D01*
X-64096Y50968D02*
X-43602D01*
X-64176Y50868D02*
X-43703D01*
X-64255Y50768D02*
X-43802D01*
X-64334Y50668D02*
X-43903D01*
X-64413Y50568D02*
X-44002D01*
X-64491Y50468D02*
X-44103D01*
X-64569Y50368D02*
X-44202D01*
X-64647Y50268D02*
X-44303D01*
X-64725Y50168D02*
X-44402D01*
X-64802Y50068D02*
X-44503D01*
X-64879Y49968D02*
X-44602D01*
X-64956Y49868D02*
X-44703D01*
X-65033Y49768D02*
X-44802D01*
X-65109Y49668D02*
X-44903D01*
X-65185Y49568D02*
X-45002D01*
X-65261Y49468D02*
X-45102D01*
X-65337Y49368D02*
X-45202D01*
X-65413Y49268D02*
X-45302D01*
X-65488Y49168D02*
X-45402D01*
X-65563Y49068D02*
X-45502D01*
X-65637Y48968D02*
X-45602D01*
X-65712Y48868D02*
X-45702D01*
X-65786Y48768D02*
X-45802D01*
X-65860Y48668D02*
X-45902D01*
X-65934Y48568D02*
X-46002D01*
X-66008Y48468D02*
X-46102D01*
X-66081Y48368D02*
X-46202D01*
X-66154Y48268D02*
X-46302D01*
X-66227Y48168D02*
X-46402D01*
X-66300Y48068D02*
X-46502D01*
X-66372Y47968D02*
X-46602D01*
X-66444Y47868D02*
X-46702D01*
X-66516Y47768D02*
X-46802D01*
X-66588Y47668D02*
X-46902D01*
X-66659Y47568D02*
X-47002D01*
X-66731Y47468D02*
X-47102D01*
X-66802Y47368D02*
X-47202D01*
X-66873Y47268D02*
X-47302D01*
X-66943Y47168D02*
X-47402D01*
X-67013Y47068D02*
X-47502D01*
X-67084Y46968D02*
X-47602D01*
X-67154Y46868D02*
X-47702D01*
X-67223Y46768D02*
X-47802D01*
X-67293Y46668D02*
X-47902D01*
X-67362Y46568D02*
X-48002D01*
X-67431Y46468D02*
X-48102D01*
X-67500Y46368D02*
X-48202D01*
X-67568Y46268D02*
X-48302D01*
X-67637Y46168D02*
X-48402D01*
X-67705Y46068D02*
X-48502D01*
X-67773Y45968D02*
X-48602D01*
X-67841Y45868D02*
X-48702D01*
X-67908Y45768D02*
X-48802D01*
X-67975Y45668D02*
X-48902D01*
X-68042Y45568D02*
X-49002D01*
X-68109Y45468D02*
X-49102D01*
X-68176Y45368D02*
X-49202D01*
X-68243Y45268D02*
X-49302D01*
X-68309Y45168D02*
X-49402D01*
X-68375Y45068D02*
X-49502D01*
X-68441Y44968D02*
X-49602D01*
X-68506Y44868D02*
X-49702D01*
X-68572Y44768D02*
X-49802D01*
X-68637Y44668D02*
X-49902D01*
X-68702Y44568D02*
X-50002D01*
X-68767Y44468D02*
X-50102D01*
X-68831Y44368D02*
X-50202D01*
X-68896Y44268D02*
X-50302D01*
X-68960Y44168D02*
X-50402D01*
X-69024Y44068D02*
X-50502D01*
X-69087Y43968D02*
X-50602D01*
X-69151Y43868D02*
X-50702D01*
X-69214Y43768D02*
X-50802D01*
X-69278Y43668D02*
X-50902D01*
X-69341Y43568D02*
X-51002D01*
X-69403Y43468D02*
X-51102D01*
X-69466Y43368D02*
X-51202D01*
X-69528Y43268D02*
X-51302D01*
X-69590Y43168D02*
X-51401D01*
X-41361Y19368D02*
X-39484D01*
X-41461Y19268D02*
X-39584D01*
X-41561Y19168D02*
X-39684D01*
X-41661Y19068D02*
X-39784D01*
X-41761Y18968D02*
X-39884D01*
X-41861Y18868D02*
X-39984D01*
X-41961Y18768D02*
X-40084D01*
X-42061Y18668D02*
X-40184D01*
X-42161Y18568D02*
X-40284D01*
X-42261Y18468D02*
X-40384D01*
X-42361Y18368D02*
X-40484D01*
X-42461Y18268D02*
X-40584D01*
X-69652Y43068D02*
X-51491D01*
X-69714Y42968D02*
X-51574D01*
X-69776Y42868D02*
X-51649D01*
X-69837Y42768D02*
X-51719D01*
X-69898Y42668D02*
X-51782D01*
X-69959Y42568D02*
X-51841D01*
X-70020Y42468D02*
X-51894D01*
X-70080Y42368D02*
X-51943D01*
X-42561Y18168D02*
X-40684D01*
X-70141Y42268D02*
X-51987D01*
X-70201Y42168D02*
X-52026D01*
X-70261Y42068D02*
X-52062D01*
X-70321Y41968D02*
X-52094D01*
X-70380Y41868D02*
X-52122D01*
X-70440Y41768D02*
X-52147D01*
X-70499Y41668D02*
X-52167D01*
X-70558Y41568D02*
X-52185D01*
X-70617Y41468D02*
X-52198D01*
X-70675Y41368D02*
X-52209D01*
X-70734Y41268D02*
X-52216D01*
X-70792Y41168D02*
X-52219D01*
X-52220Y36872D02*
Y41108D01*
X-70850Y41068D02*
X-52220D01*
X-70908Y40968D02*
X-52220D01*
X-70966Y40868D02*
X-52220D01*
X-71195Y40468D02*
X-52220D01*
X-71251Y40368D02*
X-52220D01*
X-71308Y40268D02*
X-52220D01*
X-71023Y40768D02*
X-52220D01*
X-71080Y40668D02*
X-52220D01*
X-71138Y40568D02*
X-52220D01*
X-71532Y39868D02*
X-52220D01*
X-71588Y39768D02*
X-52220D01*
X-71644Y39668D02*
X-52220D01*
X-71364Y40168D02*
X-52220D01*
X-71420Y40068D02*
X-52220D01*
X-71476Y39968D02*
X-52220D01*
X-71864Y39268D02*
X-52220D01*
X-71918Y39168D02*
X-52220D01*
X-71972Y39068D02*
X-52220D01*
X-71699Y39568D02*
X-52220D01*
X-71754Y39468D02*
X-52220D01*
X-71809Y39368D02*
X-52220D01*
X-72027Y38968D02*
X-52220D01*
X-52495Y31679D02*
Y32873D01*
X-53355Y31968D02*
X-52495D01*
X-69425Y17382D02*
X-57426Y29381D01*
X-72242Y38568D02*
X-52220D01*
X-72295Y38468D02*
X-52220D01*
X-72348Y38368D02*
X-52220D01*
X-72081Y38868D02*
X-52220D01*
X-72135Y38768D02*
X-52220D01*
X-72188Y38668D02*
X-52220D01*
X-72559Y37968D02*
X-52220D01*
X-72611Y37868D02*
X-52220D01*
X-72663Y37768D02*
X-52220D01*
X-72401Y38268D02*
X-52220D01*
X-72454Y38168D02*
X-52220D01*
X-72506Y38068D02*
X-52220D01*
X-72870Y37368D02*
X-52220D01*
X-72921Y37268D02*
X-52220D01*
X-72972Y37168D02*
X-52220D01*
X-73023Y37068D02*
X-52220D01*
X-72715Y37668D02*
X-52220D01*
X-72767Y37568D02*
X-52220D01*
X-72818Y37468D02*
X-52220D01*
X-73074Y36968D02*
X-52220D01*
X-73124Y36868D02*
X-52223D01*
X-73175Y36768D02*
X-52301D01*
X-73225Y36668D02*
X-52373D01*
X-73275Y36568D02*
X-52439D01*
X-73324Y36468D02*
X-52501D01*
X-73374Y36368D02*
X-52559D01*
X-73424Y36268D02*
X-52612D01*
X-73473Y36168D02*
X-52661D01*
X-73522Y36068D02*
X-52706D01*
X-73571Y35968D02*
X-52748D01*
X-73620Y35868D02*
X-52786D01*
X-73669Y35768D02*
X-52820D01*
X-73717Y35668D02*
X-52851D01*
X-73765Y35568D02*
X-52879D01*
X-73814Y35468D02*
X-52904D01*
X-73861Y35368D02*
X-52926D01*
X-73909Y35268D02*
X-52944D01*
X-74470Y34068D02*
X-52942D01*
X-74516Y33968D02*
X-52922D01*
X-74561Y33868D02*
X-52900D01*
X-73957Y35168D02*
X-52960D01*
X-74378Y34268D02*
X-52971D01*
X-74424Y34168D02*
X-52958D01*
X-74742Y33468D02*
X-52780D01*
X-74787Y33368D02*
X-52741D01*
X-74831Y33268D02*
X-52699D01*
X-74607Y33768D02*
X-52875D01*
X-74652Y33668D02*
X-52846D01*
X-74697Y33568D02*
X-52815D01*
X-75008Y32868D02*
X-52495D01*
X-75051Y32768D02*
X-52495D01*
X-75095Y32668D02*
X-52495D01*
X-74875Y33168D02*
X-52653D01*
X-74920Y33068D02*
X-52604D01*
X-74964Y32968D02*
X-52550D01*
X-75268Y32268D02*
X-52495D01*
X-75311Y32168D02*
X-52495D01*
X-75353Y32068D02*
X-52495D01*
X-75138Y32568D02*
X-52495D01*
X-75182Y32468D02*
X-52495D01*
X-75225Y32368D02*
X-52495D01*
X-74004Y35068D02*
X-52973D01*
X-74052Y34968D02*
X-52983D01*
X-74099Y34868D02*
X-52990D01*
X-74286Y34468D02*
X-52989D01*
X-74146Y34768D02*
X-52994D01*
X-74193Y34668D02*
X-52995D01*
X-74239Y34568D02*
X-52993D01*
X-74332Y34368D02*
X-52981D01*
X-75396Y31968D02*
X-54704D01*
X-75438Y31868D02*
X-55094D01*
X-75480Y31768D02*
X-55367D01*
X-75522Y31668D02*
X-55587D01*
X-75564Y31568D02*
X-55774D01*
X-75606Y31468D02*
X-55938D01*
X-75647Y31368D02*
X-56083D01*
X-75689Y31268D02*
X-56215D01*
X-75730Y31168D02*
X-56334D01*
X-75771Y31068D02*
X-56444D01*
X-75812Y30968D02*
X-56545D01*
X-75853Y30868D02*
X-56638D01*
X-75893Y30768D02*
X-56724D01*
X-75934Y30668D02*
X-56804D01*
X-75974Y30568D02*
X-56878D01*
X-76014Y30468D02*
X-56947D01*
X-76054Y30368D02*
X-57011D01*
X-76094Y30268D02*
X-57070D01*
X-76134Y30168D02*
X-57125D01*
X-76174Y30068D02*
X-57176D01*
X-76213Y29968D02*
X-57223D01*
X-76252Y29868D02*
X-57266D01*
X-76291Y29768D02*
X-57305D01*
X-76330Y29668D02*
X-57341D01*
X-76369Y29568D02*
X-57374D01*
X-76408Y29468D02*
X-57403D01*
X-76446Y29368D02*
X-57438D01*
X-76485Y29268D02*
X-57538D01*
X-76523Y29168D02*
X-57638D01*
X-76561Y29068D02*
X-57738D01*
X-76599Y28968D02*
X-57838D01*
X-76636Y28868D02*
X-57938D01*
X-76674Y28768D02*
X-58038D01*
X-76712Y28668D02*
X-58138D01*
X-76749Y28568D02*
X-58238D01*
X-76786Y28468D02*
X-58338D01*
X-76823Y28368D02*
X-58438D01*
X-76860Y28268D02*
X-58538D01*
X-76897Y28168D02*
X-58638D01*
X-76933Y28068D02*
X-58738D01*
X-76969Y27968D02*
X-58838D01*
X-77006Y27868D02*
X-58938D01*
X-77042Y27768D02*
X-59038D01*
X-77078Y27668D02*
X-59138D01*
X-77114Y27568D02*
X-59238D01*
X-77149Y27468D02*
X-59338D01*
X-77185Y27368D02*
X-59438D01*
X-77220Y27268D02*
X-59538D01*
X-77256Y27168D02*
X-59638D01*
X-77291Y27068D02*
X-59738D01*
X-77326Y26968D02*
X-59838D01*
X-77361Y26868D02*
X-59938D01*
X-77395Y26768D02*
X-60038D01*
X-77430Y26668D02*
X-60138D01*
X-77464Y26568D02*
X-60238D01*
X-77498Y26468D02*
X-60338D01*
X-77532Y26368D02*
X-60438D01*
X-77566Y26268D02*
X-60538D01*
X-77600Y26168D02*
X-60638D01*
X-77634Y26068D02*
X-60738D01*
X-77667Y25968D02*
X-60838D01*
X-77701Y25868D02*
X-60938D01*
X-77734Y25768D02*
X-61038D01*
X-77767Y25668D02*
X-61138D01*
X-77800Y25568D02*
X-61238D01*
X-77833Y25468D02*
X-61338D01*
X-77865Y25368D02*
X-61438D01*
X-77898Y25268D02*
X-61538D01*
X-77930Y25168D02*
X-61638D01*
X-77962Y25068D02*
X-61738D01*
X-77995Y24968D02*
X-61838D01*
X-78026Y24868D02*
X-61938D01*
X-78058Y24768D02*
X-62038D01*
X-78090Y24668D02*
X-62138D01*
X-78122Y24568D02*
X-62238D01*
X-78153Y24468D02*
X-62338D01*
X-78184Y24368D02*
X-62438D01*
X-78215Y24268D02*
X-62538D01*
X-78246Y24168D02*
X-62638D01*
X-78277Y24068D02*
X-62738D01*
X-78308Y23968D02*
X-62838D01*
X-78338Y23868D02*
X-62938D01*
X-78369Y23768D02*
X-63038D01*
X-78399Y23668D02*
X-63138D01*
X-78429Y23568D02*
X-63238D01*
X-78459Y23468D02*
X-63338D01*
X-78489Y23368D02*
X-63438D01*
X-78519Y23268D02*
X-63538D01*
X-78548Y23168D02*
X-63638D01*
X-78578Y23068D02*
X-63738D01*
X-78607Y22968D02*
X-63838D01*
X-78636Y22868D02*
X-63938D01*
X-78665Y22768D02*
X-64038D01*
X-78694Y22668D02*
X-64138D01*
X-78723Y22568D02*
X-64238D01*
X-78751Y22468D02*
X-64338D01*
X-78780Y22368D02*
X-64438D01*
X-78808Y22268D02*
X-64538D01*
X-78836Y22168D02*
X-64638D01*
X-78864Y22068D02*
X-64738D01*
X-78892Y21968D02*
X-64838D01*
X-78920Y21868D02*
X-64938D01*
X-78948Y21768D02*
X-65038D01*
X-78975Y21668D02*
X-65138D01*
X-79003Y21568D02*
X-65238D01*
X-79030Y21468D02*
X-65338D01*
X-79057Y21368D02*
X-65438D01*
X-79084Y21268D02*
X-65538D01*
X-79111Y21168D02*
X-65638D01*
X-79138Y21068D02*
X-65738D01*
X-79164Y20968D02*
X-65838D01*
X-79190Y20868D02*
X-65938D01*
X-79217Y20768D02*
X-66038D01*
X-79243Y20668D02*
X-66138D01*
X-79269Y20568D02*
X-66238D01*
X-79295Y20468D02*
X-66338D01*
X-79321Y20368D02*
X-66438D01*
X-79346Y20268D02*
X-66538D01*
X-79372Y20168D02*
X-66638D01*
X-79397Y20068D02*
X-66738D01*
X-79422Y19968D02*
X-66838D01*
X-79447Y19868D02*
X-66938D01*
X-79472Y19768D02*
X-67038D01*
X-79497Y19668D02*
X-67138D01*
X-79522Y19568D02*
X-67238D01*
X-79546Y19468D02*
X-67338D01*
X-79571Y19368D02*
X-67438D01*
X-79595Y19268D02*
X-67538D01*
X-79619Y19168D02*
X-67638D01*
X-79643Y19068D02*
X-67738D01*
X-79667Y18968D02*
X-67838D01*
X-79691Y18868D02*
X-67938D01*
X-79714Y18768D02*
X-68038D01*
X-79738Y18668D02*
X-68138D01*
X-79761Y18568D02*
X-68238D01*
X-79784Y18468D02*
X-68338D01*
X-79808Y18368D02*
X-68438D01*
X-79830Y18268D02*
X-68538D01*
X-79853Y18168D02*
X-68638D01*
X-42661Y18068D02*
X-40784D01*
X-42761Y17968D02*
X-40884D01*
X-42861Y17868D02*
X-40984D01*
X-42961Y17768D02*
X-41084D01*
X-43061Y17668D02*
X-41184D01*
X-43161Y17568D02*
X-41284D01*
X-43261Y17468D02*
X-41384D01*
X-43361Y17368D02*
X-41484D01*
X-43461Y17268D02*
X-41584D01*
X-43561Y17168D02*
X-41684D01*
X-43661Y17068D02*
X-41784D01*
X-43761Y16968D02*
X-41884D01*
X-43861Y16868D02*
X-41984D01*
X-43961Y16768D02*
X-42084D01*
X-44061Y16668D02*
X-42184D01*
X-44161Y16568D02*
X-42284D01*
X-44261Y16468D02*
X-42384D01*
X-44361Y16368D02*
X-42484D01*
X-44461Y16268D02*
X-42584D01*
X-44561Y16168D02*
X-42684D01*
X-44661Y16068D02*
X-42784D01*
X-44761Y15968D02*
X-42884D01*
X-44861Y15868D02*
X-42984D01*
X-44961Y15768D02*
X-43084D01*
X-45061Y15668D02*
X-43184D01*
X-45161Y15568D02*
X-43284D01*
X-45261Y15468D02*
X-43384D01*
X-45361Y15368D02*
X-43484D01*
X-45461Y15268D02*
X-43584D01*
X-45561Y15168D02*
X-43684D01*
X-45661Y15068D02*
X-43784D01*
X-45761Y14968D02*
X-43884D01*
X-45861Y14868D02*
X-43984D01*
X-45961Y14768D02*
X-44231D01*
X-46061Y14668D02*
X-44508D01*
X-46161Y14568D02*
X-44729D01*
X-46261Y14468D02*
X-44917D01*
X-46361Y14368D02*
X-45082D01*
X-46461Y14268D02*
X-45228D01*
X-46561Y14168D02*
X-45360D01*
X-46661Y14068D02*
X-45480D01*
X-46761Y13968D02*
X-45590D01*
X-46861Y13868D02*
X-45691D01*
X-48070Y8968D02*
X-45668D01*
X-48070Y9068D02*
X-45763D01*
X-48070Y8868D02*
X-45565D01*
X-46961Y13768D02*
X-45784D01*
X-47061Y13668D02*
X-45871D01*
X-48070Y9168D02*
X-45851D01*
X-47161Y13568D02*
X-45951D01*
X-47261Y13468D02*
X-46025D01*
X-47361Y13368D02*
X-46094D01*
X-47461Y13268D02*
X-46158D01*
X-47561Y13168D02*
X-46218D01*
X-47661Y13068D02*
X-46273D01*
X-47761Y12968D02*
X-46324D01*
X-47861Y12868D02*
X-46371D01*
X-47961Y12768D02*
X-46414D01*
X-48061Y12668D02*
X-46454D01*
X-48070Y11268D02*
X-46676D01*
X-48070Y11368D02*
X-46680D01*
X-48070Y11168D02*
X-46670D01*
X-48070Y12468D02*
X-46522D01*
X-48070Y12568D02*
X-46490D01*
X-48070Y12368D02*
X-46552D01*
X-48070Y12168D02*
X-46601D01*
X-48070Y12268D02*
X-46578D01*
X-48070Y12068D02*
X-46621D01*
X-48070Y11868D02*
X-46652D01*
X-48070Y11968D02*
X-46638D01*
X-48070Y11768D02*
X-46664D01*
X-48070Y11568D02*
X-46677D01*
X-48070Y11668D02*
X-46672D01*
X-48070Y11468D02*
X-46680D01*
X-48070Y9968D02*
X-46360D01*
X-48070Y10068D02*
X-46404D01*
X-48070Y9868D02*
X-46312D01*
X-48070Y10268D02*
X-46482D01*
X-48070Y10368D02*
X-46515D01*
X-48070Y10168D02*
X-46445D01*
X-48070Y9368D02*
X-46008D01*
X-48070Y9468D02*
X-46079D01*
X-48070Y9268D02*
X-45933D01*
X-48070Y9668D02*
X-46204D01*
X-48070Y9768D02*
X-46260D01*
X-48070Y9568D02*
X-46144D01*
X-48070Y10668D02*
X-46596D01*
X-48070Y10768D02*
X-46617D01*
X-48070Y10568D02*
X-46572D01*
X-48070Y10968D02*
X-46649D01*
X-48070Y11068D02*
X-46661D01*
X-48070Y10868D02*
X-46635D01*
X-48070Y10468D02*
X-46545D01*
X-61278Y8968D02*
X-60150D01*
X-61378Y8868D02*
X-60150D01*
X-60978Y9268D02*
X-60150D01*
X-61078Y9168D02*
X-60150D01*
X-61178Y9068D02*
X-60150D01*
X-48070Y8368D02*
X-44876D01*
X-48070Y8468D02*
X-45045D01*
X-48070Y8168D02*
X-44450D01*
X-48070Y8268D02*
X-44681D01*
X-48070Y8668D02*
X-45330D01*
X-48070Y8768D02*
X-45453D01*
X-48070Y8568D02*
X-45195D01*
X-48070Y8068D02*
X-44154D01*
X-48070Y7968D02*
X-43697D01*
X-61770Y3068D02*
X-60150D01*
X-61770Y3768D02*
X-60150D01*
X-61770Y2968D02*
X-60150D01*
X-61770Y4568D02*
X-60150D01*
X-61770Y4668D02*
X-60150D01*
X-61770Y4468D02*
X-60150D01*
X-61770Y4868D02*
X-60150D01*
X-61770Y4968D02*
X-60150D01*
X-61770Y4768D02*
X-60150D01*
X-61770Y3968D02*
X-60150D01*
X-61770Y4068D02*
X-60150D01*
X-61770Y3868D02*
X-60150D01*
X-61770Y4268D02*
X-60150D01*
X-61770Y4368D02*
X-60150D01*
X-61770Y4168D02*
X-60150D01*
X-61770Y1268D02*
X-60150D01*
X-61770Y1368D02*
X-60150D01*
X-61770Y1168D02*
X-60150D01*
X-61770Y1568D02*
X-60150D01*
X-61770Y1668D02*
X-60150D01*
X-61770Y1468D02*
X-60150D01*
X-61770Y668D02*
X-60150D01*
X-61770Y768D02*
X-60150D01*
X-61770Y568D02*
X-60150D01*
X-61770Y968D02*
X-60150D01*
X-61770Y1068D02*
X-60150D01*
X-61770Y868D02*
X-60150D01*
X-61770Y2468D02*
X-60150D01*
X-61770Y2568D02*
X-60150D01*
X-61770Y2368D02*
X-60150D01*
X-61770Y2768D02*
X-60150D01*
X-61770Y2868D02*
X-60150D01*
X-61770Y2668D02*
X-60150D01*
X-61770Y1868D02*
X-60150D01*
X-61770Y1968D02*
X-60150D01*
X-61770Y1768D02*
X-60150D01*
X-61770Y2168D02*
X-60150D01*
X-61770Y2268D02*
X-60150D01*
X-61770Y2068D02*
X-60150D01*
X-61770Y7268D02*
X-60150D01*
X-61770Y7368D02*
X-60150D01*
X-61770Y7068D02*
X-60150D01*
X-61770Y7168D02*
X-60150D01*
X-61478Y8768D02*
X-60150D01*
X-61578Y8668D02*
X-60150D01*
X-61678Y8568D02*
X-60150D01*
X-61770Y6568D02*
X-60150D01*
X-61770Y6668D02*
X-60150D01*
X-61770Y6468D02*
X-60150D01*
X-61770Y6868D02*
X-60150D01*
X-61770Y6968D02*
X-60150D01*
X-61770Y6768D02*
X-60150D01*
X-61770Y8168D02*
X-60150D01*
X-61770Y8268D02*
X-60150D01*
X-61770Y8068D02*
X-60150D01*
X-61770Y8468D02*
X-60150D01*
X-61770Y8477D02*
X-60150Y10097D01*
X-61770Y8368D02*
X-60150D01*
X-61770Y7568D02*
X-60150D01*
X-61770Y7668D02*
X-60150D01*
X-61770Y7468D02*
X-60150D01*
X-61770Y7868D02*
X-60150D01*
X-61770Y7968D02*
X-60150D01*
X-61770Y7768D02*
X-60150D01*
X-61770Y268D02*
X-60150D01*
X-61770Y368D02*
X-60150D01*
X-61770Y168D02*
X-60150D01*
X-61770Y5068D02*
X-60150D01*
X-61770Y5168D02*
X-60150D01*
X-61770Y468D02*
X-60150D01*
X-61770Y-332D02*
X-60150D01*
X-61770Y-232D02*
X-60150D01*
X-61770Y-432D02*
X-60150D01*
X-61770Y-32D02*
X-60150D01*
X-61770Y68D02*
X-60150D01*
X-61770Y-132D02*
X-60150D01*
X-61770Y5968D02*
X-60150D01*
X-61770Y6068D02*
X-60150D01*
X-61770Y5868D02*
X-60150D01*
X-61770Y6268D02*
X-60150D01*
X-61770Y6368D02*
X-60150D01*
X-61770Y6168D02*
X-60150D01*
X-61770Y5368D02*
X-60150D01*
X-61770Y5468D02*
X-60150D01*
X-61770Y5268D02*
X-60150D01*
X-61770Y5668D02*
X-60150D01*
X-61770Y5768D02*
X-60150D01*
X-61770Y5568D02*
X-60150D01*
X-79876Y18068D02*
X-68738D01*
X-79899Y17968D02*
X-68838D01*
X-79921Y17868D02*
X-68938D01*
X-79943Y17768D02*
X-69038D01*
X-79965Y17668D02*
X-69138D01*
X-79988Y17568D02*
X-69238D01*
X-80009Y17468D02*
X-69338D01*
X-80031Y17368D02*
X-69438D01*
X-80053Y17268D02*
X-69533D01*
X-80074Y17168D02*
X-69620D01*
X-80096Y17068D02*
X-69699D01*
X-80117Y16968D02*
X-69772D01*
X-80138Y16868D02*
X-69839D01*
X-80159Y16768D02*
X-69900D01*
X-80180Y16668D02*
X-69956D01*
X-80201Y16568D02*
X-70007D01*
X-80221Y16468D02*
X-70053D01*
X-80242Y16368D02*
X-70095D01*
X-80262Y16268D02*
X-70133D01*
X-80282Y16168D02*
X-70167D01*
X-80302Y16068D02*
X-70197D01*
X-80322Y15968D02*
X-70224D01*
X-80342Y15868D02*
X-70246D01*
X-80362Y15768D02*
X-70266D01*
X-80381Y15668D02*
X-70281D01*
X-80401Y15568D02*
X-70293D01*
X-80420Y15468D02*
X-70302D01*
X-80439Y15368D02*
X-70308D01*
X-80458Y15268D02*
X-70310D01*
X-80861Y12968D02*
X-70310D01*
X-80877Y12868D02*
X-70310D01*
X-80893Y12768D02*
X-70310D01*
X-80812Y13268D02*
X-70310D01*
X-80829Y13168D02*
X-70310D01*
X-80845Y13068D02*
X-70310D01*
X-80955Y12368D02*
X-70310D01*
X-80970Y12268D02*
X-70310D01*
X-80985Y12168D02*
X-70310D01*
X-80908Y12668D02*
X-70310D01*
X-80924Y12568D02*
X-70310D01*
X-80940Y12468D02*
X-70310D01*
X-81044Y11768D02*
X-70310D01*
X-81059Y11668D02*
X-70310D01*
X-81310Y9768D02*
X-70310D01*
X-81000Y12068D02*
X-70310D01*
X-81015Y11968D02*
X-70310D01*
X-81030Y11868D02*
X-70310D01*
X-80533Y14868D02*
X-70310D01*
X-80552Y14768D02*
X-70310D01*
X-80570Y14668D02*
X-70310D01*
X-80588Y14568D02*
X-70310D01*
X-80477Y15168D02*
X-70310D01*
X-80496Y15068D02*
X-70310D01*
X-80515Y14968D02*
X-70310D01*
X-80659Y14168D02*
X-70310D01*
X-80677Y14068D02*
X-70310D01*
X-80694Y13968D02*
X-70310D01*
X-80606Y14468D02*
X-70310D01*
X-80624Y14368D02*
X-70310D01*
X-80642Y14268D02*
X-70310D01*
X-80762Y13568D02*
X-70310D01*
X-80779Y13468D02*
X-70310D01*
X-80796Y13368D02*
X-70310D01*
X-80711Y13868D02*
X-70310D01*
X-80729Y13768D02*
X-70310D01*
X-80746Y13668D02*
X-70310D01*
X-81115Y11268D02*
X-70310D01*
X-81129Y11168D02*
X-70310D01*
X-81143Y11068D02*
X-70310D01*
X-81073Y11568D02*
X-70310D01*
X-81087Y11468D02*
X-70310D01*
X-81101Y11368D02*
X-70310D01*
X-81196Y10668D02*
X-70310D01*
X-81210Y10568D02*
X-70310D01*
X-81222Y10468D02*
X-70310D01*
X-81157Y10968D02*
X-70310D01*
X-81170Y10868D02*
X-70310D01*
X-81183Y10768D02*
X-70310D01*
X-81273Y10068D02*
X-70310D01*
X-81285Y9968D02*
X-70310D01*
X-81298Y9868D02*
X-70310D01*
X-81235Y10368D02*
X-70310D01*
X-81248Y10268D02*
X-70310D01*
X-81261Y10168D02*
X-70310D01*
X-81357Y9368D02*
X-70310D01*
X-81368Y9268D02*
X-70310D01*
X-81380Y9168D02*
X-70310D01*
X-81322Y9668D02*
X-70310D01*
X-81334Y9568D02*
X-70310D01*
X-81345Y9468D02*
X-70310D01*
X-81424Y8768D02*
X-70310D01*
X-81434Y8668D02*
X-70310D01*
X-81445Y8568D02*
X-70310D01*
X-81391Y9068D02*
X-70310D01*
X-81402Y8968D02*
X-70310D01*
X-81413Y8868D02*
X-70310D01*
X-61770Y3568D02*
X-60150D01*
X-61770Y3668D02*
X-60150D01*
X-61770Y3468D02*
X-60150D01*
X-81825Y3368D02*
X-70310D01*
X-81812Y3668D02*
X-70310D01*
X-81817Y3568D02*
X-70310D01*
X-81821Y3468D02*
X-70310D01*
X-61770Y3268D02*
X-60150D01*
X-61770Y3368D02*
X-60150D01*
X-61770Y3168D02*
X-60150D01*
X-81829Y3268D02*
X-70310D01*
X-81833Y3168D02*
X-70310D01*
X-81837Y3068D02*
X-70310D01*
X-81851Y2668D02*
X-70310D01*
X-81854Y2568D02*
X-70310D01*
X-81857Y2468D02*
X-70310D01*
X-81841Y2968D02*
X-70310D01*
X-81844Y2868D02*
X-70310D01*
X-81848Y2768D02*
X-70310D01*
X-81868Y2068D02*
X-70310D01*
X-81871Y1968D02*
X-70310D01*
X-81873Y1868D02*
X-70310D01*
X-81860Y2368D02*
X-70310D01*
X-81863Y2268D02*
X-70310D01*
X-81866Y2168D02*
X-70310D01*
X-81881Y1468D02*
X-70310D01*
X-81883Y1368D02*
X-70310D01*
X-81885Y1268D02*
X-70310D01*
X-81875Y1768D02*
X-70310D01*
X-81878Y1668D02*
X-70310D01*
X-81880Y1568D02*
X-70310D01*
X-81890Y868D02*
X-70310D01*
X-81891Y768D02*
X-70310D01*
X-81892Y668D02*
X-70310D01*
X-81886Y1168D02*
X-70310D01*
X-81888Y1068D02*
X-70310D01*
X-81889Y968D02*
X-70310D01*
X-81894Y268D02*
X-70310D01*
X-81894Y168D02*
X-70310D01*
X-81895Y68D02*
X-70310D01*
X-81893Y568D02*
X-70310D01*
X-81893Y468D02*
X-70310D01*
X-81894Y368D02*
X-70310D01*
X-81893Y-432D02*
X-70310D01*
X-81894Y-332D02*
X-70310D01*
X-81893Y-532D02*
X-70310D01*
X-81895Y-132D02*
X-70310D01*
X-81895Y-32D02*
X-70310D01*
X-81894Y-232D02*
X-70310D01*
X-81486Y8168D02*
X-70310D01*
X-81496Y8068D02*
X-70310D01*
X-81506Y7968D02*
X-70310D01*
X-81455Y8468D02*
X-70310D01*
X-81466Y8368D02*
X-70310D01*
X-81476Y8268D02*
X-70310D01*
X-81544Y7568D02*
X-70310D01*
X-81553Y7468D02*
X-70310D01*
X-81562Y7368D02*
X-70310D01*
X-81516Y7868D02*
X-70310D01*
X-81525Y7768D02*
X-70310D01*
X-81535Y7668D02*
X-70310D01*
X-81597Y6968D02*
X-70310D01*
X-81606Y6868D02*
X-70310D01*
X-81614Y6768D02*
X-70310D01*
X-81571Y7268D02*
X-70310D01*
X-81580Y7168D02*
X-70310D01*
X-81589Y7068D02*
X-70310D01*
X-81646Y6368D02*
X-70310D01*
X-81654Y6268D02*
X-70310D01*
X-81662Y6168D02*
X-70310D01*
X-81622Y6668D02*
X-70310D01*
X-81631Y6568D02*
X-70310D01*
X-81639Y6468D02*
X-70310D01*
X-81691Y5768D02*
X-70310D01*
X-81698Y5668D02*
X-70310D01*
X-81705Y5568D02*
X-70310D01*
X-81669Y6068D02*
X-70310D01*
X-81677Y5968D02*
X-70310D01*
X-81684Y5868D02*
X-70310D01*
X-81731Y5168D02*
X-70310D01*
X-81737Y5068D02*
X-70310D01*
X-81744Y4968D02*
X-70310D01*
X-81712Y5468D02*
X-70310D01*
X-81718Y5368D02*
X-70310D01*
X-81725Y5268D02*
X-70310D01*
X-81767Y4568D02*
X-70310D01*
X-81772Y4468D02*
X-70310D01*
X-81778Y4368D02*
X-70310D01*
X-81750Y4868D02*
X-70310D01*
X-81756Y4768D02*
X-70310D01*
X-81761Y4668D02*
X-70310D01*
X-81798Y3968D02*
X-70310D01*
X-81803Y3868D02*
X-70310D01*
X-81808Y3768D02*
X-70310D01*
X-81783Y4268D02*
X-70310D01*
X-81788Y4168D02*
X-70310D01*
X-81793Y4068D02*
X-70310D01*
X-48070Y-25631D02*
X20968D01*
X-48070Y-25531D02*
X20923D01*
X-48070Y-25831D02*
X21072D01*
X-48070Y-25731D02*
X21018D01*
X-48070Y-25331D02*
X-921D01*
X-48070Y-25231D02*
X-1336D01*
X-48070Y-25431D02*
X20881D01*
X-48070Y-26332D02*
X21409D01*
X-48070Y-26232D02*
X21331D01*
X-48070Y-26432D02*
X21493D01*
X-48070Y-26031D02*
X21192D01*
X-48070Y-25931D02*
X21129D01*
X-48070Y-26131D02*
X21259D01*
X-48070Y-24432D02*
X-2799D01*
X-48070Y-24332D02*
X-2911D01*
X-48070Y-24532D02*
X-2678D01*
X-48070Y-24132D02*
X-3112D01*
X-48070Y-24032D02*
X-3203D01*
X-48070Y-24232D02*
X-3015D01*
X-48070Y-25031D02*
X-1865D01*
X-48070Y-24931D02*
X-2067D01*
X-48070Y-25131D02*
X-1629D01*
X-48070Y-24732D02*
X-2403D01*
X-48070Y-24632D02*
X-2547D01*
X-48070Y-24832D02*
X-2244D01*
X-34757Y-27831D02*
X24382D01*
X-47892Y-27731D02*
X24503D01*
X-34369Y-27931D02*
X24271D01*
X-33855Y-28131D02*
X24075D01*
X-34086Y-28031D02*
X24169D01*
X-33657Y-28231D02*
X23988D01*
X-33327Y-28431D02*
X23832D01*
X-33483Y-28331D02*
X23907D01*
X-33185Y-28531D02*
X23763D01*
X-32935Y-28732D02*
X23638D01*
X-33055Y-28631D02*
X23698D01*
X-32825Y-28832D02*
X23582D01*
X-48070Y-26932D02*
X22032D01*
X-48070Y-26832D02*
X21905D01*
X-48070Y-27032D02*
X22173D01*
X-48070Y-26632D02*
X21682D01*
X-48070Y-26532D02*
X21584D01*
X-48070Y-26732D02*
X21789D01*
X-48070Y-27531D02*
X23306D01*
X-48070Y-27431D02*
X22968D01*
X-47992Y-27631D02*
X24636D01*
X-48070Y-27232D02*
X22508D01*
X-48070Y-27132D02*
X22330D01*
X-48070Y-27332D02*
X22716D01*
X-48070Y-20832D02*
X-4151D01*
X-48070Y-20732D02*
X-4135D01*
X-48070Y-21032D02*
X-4174D01*
X-48070Y-20932D02*
X-4164D01*
X-48070Y-21132D02*
X-4182D01*
X-48070Y-21232D02*
X-4188D01*
X-48070Y-21732D02*
X-4177D01*
X-48070Y-21632D02*
X-4184D01*
X-48070Y-21832D02*
X-4168D01*
X-48070Y-21432D02*
X-4191D01*
X-48070Y-21332D02*
X-4191D01*
X-48070Y-21532D02*
X-4189D01*
X-48070Y-20032D02*
X-3950D01*
X-48070Y-19932D02*
X-3913D01*
X-48070Y-20132D02*
X-3985D01*
X-48070Y-732D02*
X-26323D01*
X-48070Y-632D02*
X-26379D01*
X-48070Y-832D02*
X-26263D01*
X-48070Y-20332D02*
X-4046D01*
X-48070Y-20232D02*
X-4017D01*
X-48070Y-20432D02*
X-4073D01*
X-48070Y-20532D02*
X-4096D01*
X-48070Y-27553D02*
Y12660D01*
Y-20632D02*
X-4117D01*
X-48070Y-23532D02*
X-3575D01*
X-48070Y-23432D02*
X-3636D01*
X-48070Y-23632D02*
X-3510D01*
X-48070Y-23232D02*
X-3747D01*
X-48070Y-23132D02*
X-3796D01*
X-48070Y-23332D02*
X-3693D01*
X-48070Y-23832D02*
X-3366D01*
X-48070Y-23732D02*
X-3441D01*
X-48070Y-23932D02*
X-3287D01*
X-47873Y-27750D02*
X-35560D01*
X-48070Y-22332D02*
X-4081D01*
X-48070Y-22232D02*
X-4104D01*
X-48070Y-22432D02*
X-4056D01*
X-48070Y-22032D02*
X-4141D01*
X-48070Y-21932D02*
X-4156D01*
X-48070Y-22132D02*
X-4124D01*
X-48070Y-22932D02*
X-3886D01*
X-48070Y-22832D02*
X-3926D01*
X-48070Y-23032D02*
X-3843D01*
X-48070Y-22632D02*
X-3997D01*
X-48070Y-22532D02*
X-4027D01*
X-48070Y-22732D02*
X-3963D01*
X-26322Y-35331D02*
X30290D01*
X-26422Y-35231D02*
X30290D01*
X-26122Y-35531D02*
X30290D01*
X-26222Y-35431D02*
X30290D01*
X-26622Y-35031D02*
X30290D01*
X-26722Y-34931D02*
X30290D01*
X-26522Y-35131D02*
X30290D01*
X-25622Y-36031D02*
X30290D01*
X-25722Y-35931D02*
X30290D01*
X-25522Y-36131D02*
X30290D01*
X-25922Y-35731D02*
X30290D01*
X-26022Y-35631D02*
X30290D01*
X-25822Y-35831D02*
X30290D01*
X-27522Y-34132D02*
X30290D01*
X-27622Y-34032D02*
X30290D01*
X-27422Y-34232D02*
X30290D01*
X-27822Y-33832D02*
X25661D01*
X-27922Y-33732D02*
X25375D01*
X-27722Y-33932D02*
X26090D01*
X-26922Y-34732D02*
X30290D01*
X-27022Y-34632D02*
X30290D01*
X-26822Y-34832D02*
X30290D01*
X-27222Y-34432D02*
X30290D01*
X-27322Y-34332D02*
X30290D01*
X-27122Y-34532D02*
X30290D01*
X-23822Y-37831D02*
X30290D01*
X-23922Y-37731D02*
X30290D01*
X-23722Y-37931D02*
X30290D01*
X-24122Y-37531D02*
X30290D01*
X-24222Y-37431D02*
X30290D01*
X-24022Y-37631D02*
X30290D01*
X-23222Y-38431D02*
X30290D01*
X-23322Y-38331D02*
X30290D01*
X-23122Y-38531D02*
X30290D01*
X-23522Y-38131D02*
X30290D01*
X-23622Y-38031D02*
X30290D01*
X-23422Y-38231D02*
X30290D01*
X-25022Y-36632D02*
X30290D01*
X-25122Y-36532D02*
X30290D01*
X-24922Y-36732D02*
X30290D01*
X-25322Y-36332D02*
X30290D01*
X-25422Y-36232D02*
X30290D01*
X-25222Y-36432D02*
X30290D01*
X-24422Y-37232D02*
X30290D01*
X-24522Y-37132D02*
X30290D01*
X-24322Y-37332D02*
X30290D01*
X-24722Y-36932D02*
X30290D01*
X-24822Y-36832D02*
X30290D01*
X-24622Y-37032D02*
X30290D01*
X-31522Y-30131D02*
X23187D01*
X-31622Y-30031D02*
X23199D01*
X-31022Y-30631D02*
X23173D01*
X-31422Y-30231D02*
X23179D01*
X-31222Y-30431D02*
X23170D01*
X-31322Y-30331D02*
X23173D01*
X-31122Y-30531D02*
X23170D01*
X-30522Y-31131D02*
X23231D01*
X-30622Y-31031D02*
X23214D01*
X-30422Y-31232D02*
X23252D01*
X-30822Y-30831D02*
X23188D01*
X-30922Y-30731D02*
X23179D01*
X-30722Y-30931D02*
X23199D01*
X-32622Y-29032D02*
X23484D01*
X-32722Y-28932D02*
X23531D01*
X-32522Y-29132D02*
X23440D01*
X-32322Y-29332D02*
X23364D01*
X-32422Y-29232D02*
X23400D01*
X-32222Y-29432D02*
X23331D01*
X-32022Y-29632D02*
X23274D01*
X-32122Y-29532D02*
X23301D01*
X-31922Y-29732D02*
X23251D01*
X-31822Y-29832D02*
X23231D01*
X-32727Y-28927D02*
X-12313Y-49340D01*
X-31722Y-29931D02*
X23213D01*
X-28722Y-32931D02*
X24172D01*
X-28822Y-32831D02*
X24078D01*
X-28622Y-33031D02*
X24274D01*
X-29022Y-32631D02*
X23909D01*
X-29122Y-32531D02*
X23834D01*
X-28922Y-32731D02*
X23990D01*
X-28122Y-33531D02*
X24956D01*
X-28222Y-33431D02*
X24789D01*
X-28022Y-33631D02*
X25148D01*
X-28422Y-33231D02*
X24507D01*
X-28522Y-33131D02*
X24385D01*
X-28322Y-33331D02*
X24641D01*
X-29922Y-31732D02*
X23401D01*
X-30022Y-31632D02*
X23365D01*
X-29822Y-31832D02*
X23442D01*
X-30222Y-31432D02*
X23302D01*
X-30322Y-31332D02*
X23275D01*
X-30122Y-31532D02*
X23332D01*
X-29322Y-32332D02*
X23700D01*
X-29422Y-32232D02*
X23640D01*
X-29222Y-32431D02*
X23765D01*
X-29622Y-32032D02*
X23533D01*
X-29722Y-31932D02*
X23485D01*
X-29522Y-32132D02*
X23584D01*
X-48070Y-4332D02*
X50030D01*
X-48070Y-4232D02*
X50030D01*
X-48070Y-4532D02*
X50030D01*
X-48070Y-4432D02*
X50030D01*
X-48070Y-4032D02*
X50030D01*
X-48070Y-3932D02*
X50030D01*
X-48070Y-4132D02*
X50030D01*
X-48070Y-5032D02*
X50030D01*
X-48070Y-4932D02*
X50030D01*
X-48070Y-5132D02*
X50030D01*
X-48070Y-4732D02*
X50030D01*
X-48070Y-4632D02*
X50030D01*
X-48070Y-4832D02*
X50030D01*
X-48070Y-3132D02*
X50030D01*
X-48070Y-3032D02*
X50030D01*
X-48070Y-3232D02*
X50030D01*
X-48070Y-2832D02*
X50030D01*
X-48070Y-2732D02*
X50030D01*
X-48070Y-2932D02*
X50030D01*
X-48070Y-3732D02*
X50030D01*
X-48070Y-3632D02*
X50030D01*
X-48070Y-3832D02*
X50030D01*
X-48070Y-3432D02*
X50030D01*
X-48070Y-3332D02*
X50030D01*
X-48070Y-3532D02*
X50030D01*
X-48070Y-6532D02*
X27147D01*
X-48070Y-6432D02*
X50030D01*
X-48070Y-6632D02*
X26601D01*
X-48070Y-6832D02*
X26014D01*
X-48070Y-6732D02*
X26271D01*
X-48070Y-6932D02*
X25799D01*
X-48070Y-7132D02*
X25447D01*
X-48070Y-7032D02*
X25612D01*
X-48070Y-7232D02*
X25297D01*
X-48070Y-7432D02*
X25035D01*
X-48070Y-7332D02*
X25161D01*
X-48070Y-7532D02*
X24920D01*
X-48070Y-5632D02*
X50030D01*
X-48070Y-5532D02*
X50030D01*
X-48070Y-5732D02*
X50030D01*
X-48070Y-5332D02*
X50030D01*
X-48070Y-5232D02*
X50030D01*
X-48070Y-5432D02*
X50030D01*
X-48070Y-6232D02*
X50030D01*
X-48070Y-6132D02*
X50030D01*
X-48070Y-6332D02*
X50030D01*
X-48070Y-5932D02*
X50030D01*
X-48070Y-5832D02*
X50030D01*
X-48070Y-6032D02*
X50030D01*
X-48070Y-2532D02*
X-24104D01*
X-48070Y-2432D02*
X-24376D01*
X-48070Y-7632D02*
X24812D01*
X-48070Y-2632D02*
X-23742D01*
X-48070Y-2232D02*
X-24794D01*
X-48070Y-2132D02*
X-24964D01*
X-48070Y-2332D02*
X-24600D01*
X-48070Y-7832D02*
X24612D01*
X-48070Y-7732D02*
X24712D01*
X-48070Y-7932D02*
X24512D01*
X-48070Y-8132D02*
X24312D01*
X-48070Y-8032D02*
X24412D01*
X-48070Y-8232D02*
X24212D01*
X-48070Y-1332D02*
X-25898D01*
X-48070Y-1232D02*
X-25981D01*
X-48070Y-1432D02*
X-25810D01*
X-48070Y-1032D02*
X-26131D01*
X-48070Y-932D02*
X-26200D01*
X-48070Y-1132D02*
X-26059D01*
X-48070Y-1932D02*
X-25258D01*
X-48070Y-1832D02*
X-25386D01*
X-48070Y-2032D02*
X-25118D01*
X-48070Y-1632D02*
X-25613D01*
X-48070Y-1532D02*
X-25715D01*
X-48070Y-1732D02*
X-25504D01*
X-48070Y-9632D02*
X22812D01*
X-48070Y-9532D02*
X22912D01*
X-48070Y-9732D02*
X22712D01*
X-48070Y-9932D02*
X22512D01*
X-48070Y-9832D02*
X22612D01*
X-48070Y-10032D02*
X22412D01*
X-48070Y-10232D02*
X22212D01*
X-48070Y-10132D02*
X22312D01*
X-48070Y-10332D02*
X22112D01*
X-48070Y-10532D02*
X21912D01*
X-48070Y-10432D02*
X22012D01*
X-48070Y-10632D02*
X21812D01*
X-48070Y-8432D02*
X24012D01*
X-48070Y-8332D02*
X24112D01*
X-48070Y-8532D02*
X23912D01*
X-48070Y-8732D02*
X23712D01*
X-48070Y-8632D02*
X23812D01*
X-48070Y-8832D02*
X23612D01*
X-48070Y-9032D02*
X23412D01*
X-48070Y-8932D02*
X23512D01*
X-48070Y-9132D02*
X23312D01*
X-48070Y-9332D02*
X23112D01*
X-48070Y-9232D02*
X23212D01*
X-48070Y-9432D02*
X23012D01*
X-48070Y-12032D02*
X20412D01*
X-48070Y-11932D02*
X20512D01*
X-48070Y-12232D02*
X20212D01*
X-48070Y-12132D02*
X20312D01*
X-48070Y-12432D02*
X20012D01*
X-48070Y-12332D02*
X20112D01*
X-48070Y-12532D02*
X19912D01*
X-48070Y-12732D02*
X19712D01*
X-48070Y-12632D02*
X19812D01*
X-48070Y-12832D02*
X19612D01*
X-48070Y-13032D02*
X19412D01*
X-48070Y-12932D02*
X19512D01*
X-48070Y-13132D02*
X19312D01*
X-48070Y-10832D02*
X21612D01*
X-48070Y-10732D02*
X21712D01*
X-48070Y-10932D02*
X21512D01*
X-48070Y-11132D02*
X21312D01*
X-48070Y-11032D02*
X21412D01*
X-48070Y-11232D02*
X21212D01*
X-48070Y-11432D02*
X21012D01*
X-48070Y-11332D02*
X21112D01*
X-48070Y-11532D02*
X20912D01*
X-48070Y-11732D02*
X20712D01*
X-48070Y-11632D02*
X20812D01*
X-48070Y-11832D02*
X20612D01*
X-48070Y-14532D02*
X17912D01*
X-48070Y-14432D02*
X18012D01*
X-48070Y-14632D02*
X17812D01*
X-48070Y-14832D02*
X17612D01*
X-48070Y-14732D02*
X17712D01*
X-48070Y-14932D02*
X17512D01*
X-48070Y-15132D02*
X17312D01*
X-48070Y-15032D02*
X17412D01*
X-48070Y-15232D02*
X17212D01*
X-48070Y-15432D02*
X17012D01*
X-48070Y-15332D02*
X17112D01*
X-48070Y-15532D02*
X16912D01*
X-48070Y-13332D02*
X19112D01*
X-48070Y-13232D02*
X19212D01*
X-48070Y-13432D02*
X19012D01*
X-48070Y-13632D02*
X18812D01*
X-48070Y-13532D02*
X18912D01*
X-48070Y-13732D02*
X18712D01*
X-48070Y-13932D02*
X18512D01*
X-48070Y-13832D02*
X18612D01*
X-48070Y-14032D02*
X18412D01*
X-48070Y-14232D02*
X18212D01*
X-48070Y-14132D02*
X18312D01*
X-48070Y-14332D02*
X18112D01*
X-48070Y-16832D02*
X15612D01*
X-48070Y-16732D02*
X15712D01*
X-48070Y-17032D02*
X15412D01*
X-48070Y-16932D02*
X15512D01*
X-48070Y-17232D02*
X15212D01*
X-48070Y-17132D02*
X15312D01*
X-48070Y-17332D02*
X15112D01*
X-48070Y-17532D02*
X-1214D01*
X-48070Y-17432D02*
X-703D01*
X-48070Y-17632D02*
X-1536D01*
X-48070Y-17832D02*
X-2001D01*
X-48070Y-17732D02*
X-1789D01*
X-48070Y-17932D02*
X-2186D01*
X-48070Y-15732D02*
X16712D01*
X-48070Y-15632D02*
X16812D01*
X-48070Y-15832D02*
X16612D01*
X-48070Y-16032D02*
X16412D01*
X-48070Y-15932D02*
X16512D01*
X-48070Y-16132D02*
X16312D01*
X-48070Y-16332D02*
X16112D01*
X-48070Y-16232D02*
X16212D01*
X-48070Y-16432D02*
X16012D01*
X-48070Y-16532D02*
X15912D01*
X-48070Y-16632D02*
X15812D01*
X-48070Y-18832D02*
X-3259D01*
X-48070Y-18732D02*
X-3172D01*
X-48070Y-18932D02*
X-3340D01*
X-48070Y-19132D02*
X-3487D01*
X-48070Y-19032D02*
X-3416D01*
X-48070Y-19232D02*
X-3553D01*
X-48070Y-19432D02*
X-3674D01*
X-48070Y-19332D02*
X-3616D01*
X-48070Y-19532D02*
X-3729D01*
X-48070Y-19732D02*
X-3827D01*
X-48070Y-19632D02*
X-3780D01*
X-48070Y-19832D02*
X-3871D01*
X-48070Y-18132D02*
X-2499D01*
X-48070Y-18032D02*
X-2351D01*
X-48070Y-18232D02*
X-2634D01*
X-48070Y-18432D02*
X-2874D01*
X-48070Y-18332D02*
X-2759D01*
X-48070Y-18532D02*
X-2980D01*
X-48070Y-18632D02*
X-3080D01*
X-69425Y-35148D02*
X-50388Y-54185D01*
X-65666Y-48931D02*
X-55641D01*
X-65815Y-48731D02*
X-55841D01*
X-65889Y-48632D02*
X-55941D01*
X-65740Y-48832D02*
X-55741D01*
X-31363Y-67931D02*
X-20131D01*
X-31431Y-67832D02*
X-20231D01*
X-31241Y-68131D02*
X-19931D01*
X-31300Y-68032D02*
X-20031D01*
X-31583Y-67632D02*
X-20431D01*
X-31668Y-67531D02*
X-20531D01*
X-31504Y-67731D02*
X-20331D01*
X-31009Y-68632D02*
X-19291D01*
X-31048Y-68531D02*
X-19451D01*
X-30973Y-68731D02*
X-19105D01*
X-31137Y-68331D02*
X-19716D01*
X-31187Y-68232D02*
X-19829D01*
X-31090Y-68432D02*
X-19591D01*
X-32518Y-66831D02*
X-21231D01*
X-32701Y-66732D02*
X-21331D01*
X-32358Y-66932D02*
X-21131D01*
X-33178Y-66532D02*
X-21531D01*
X-33539Y-66431D02*
X-21631D01*
X-32915Y-66631D02*
X-21431D01*
X-31860Y-67332D02*
X-20731D01*
X-32596Y-55466D02*
X-19908Y-68155D01*
X-31760Y-67432D02*
X-20631D01*
X-32086Y-67132D02*
X-20931D01*
X-32215Y-67031D02*
X-21031D01*
X-31968Y-67231D02*
X-20831D01*
X-30790Y-69832D02*
X42675D01*
X-30792Y-69731D02*
X42838D01*
X-30791Y-69932D02*
X42511D01*
X-24318Y-70332D02*
X41847D01*
X-24696Y-70231D02*
X42014D01*
X-24049Y-70431D02*
X41679D01*
X-23646Y-70631D02*
X41340D01*
X-23831Y-70532D02*
X41510D01*
X-23483Y-70732D02*
X41169D01*
X-23208Y-70932D02*
X40824D01*
X-23339Y-70831D02*
X40997D01*
X-23089Y-71031D02*
X40650D01*
X-30845Y-69232D02*
X43640D01*
X-30865Y-69131D02*
X43798D01*
X-30829Y-69331D02*
X43481D01*
X-30913Y-68931D02*
X-18580D01*
X-30942Y-68832D02*
X-18879D01*
X-30887Y-69032D02*
X-18006D01*
X-30805Y-69531D02*
X43161D01*
X-30815Y-69432D02*
X43321D01*
X-30797Y-69632D02*
X43000D01*
X-30795Y-70031D02*
X42346D01*
X-30801Y-70132D02*
X42181D01*
X-30811Y-70231D02*
X-26104D01*
X-43416Y-69432D02*
X-37765D01*
X-43095Y-69632D02*
X-37783D01*
X-43256Y-69531D02*
X-37775D01*
X-42770Y-69832D02*
X-37790D01*
X-42933Y-69731D02*
X-37788D01*
X-42606Y-69932D02*
X-37789D01*
X-30823Y-70332D02*
X-26482D01*
X-41942D02*
X-37757D01*
X-41774Y-70431D02*
X-37741D01*
X-42276Y-70132D02*
X-37779D01*
X-42442Y-70031D02*
X-37785D01*
X-42110Y-70231D02*
X-37769D01*
X-45128Y-68331D02*
X-37443D01*
X-45279Y-68232D02*
X-37393D01*
X-44977Y-68432D02*
X-37490D01*
X-44671Y-68632D02*
X-37571D01*
X-44824Y-68531D02*
X-37532D01*
X-44517Y-68731D02*
X-37606D01*
X-44206Y-68931D02*
X-37667D01*
X-44362Y-68832D02*
X-37638D01*
X-44050Y-69032D02*
X-37693D01*
X-43735Y-69232D02*
X-37735D01*
X-43893Y-69131D02*
X-37715D01*
X-43576Y-69331D02*
X-37751D01*
X-30839Y-70431D02*
X-26751D01*
X-30857Y-70532D02*
X-26969D01*
X-30878Y-70631D02*
X-27154D01*
X-30903Y-70732D02*
X-27317D01*
X-30930Y-70831D02*
X-27461D01*
X-30961Y-70932D02*
X-27592D01*
X-30995Y-71031D02*
X-27711D01*
X-31033Y-71132D02*
X-27820D01*
X-31074Y-71231D02*
X-27920D01*
X-31119Y-71332D02*
X-28013D01*
X-31168Y-71431D02*
X-28099D01*
X-31220Y-71532D02*
X-28178D01*
X-40919Y-70932D02*
X-37619D01*
X-41092Y-70831D02*
X-37650D01*
X-40745Y-71031D02*
X-37585D01*
X-41435Y-70631D02*
X-37702D01*
X-41605Y-70532D02*
X-37723D01*
X-41264Y-70732D02*
X-37677D01*
X-39861Y-71532D02*
X-37360D01*
X-40040Y-71431D02*
X-37412D01*
X-39681Y-71631D02*
X-37303D01*
X-40395Y-71231D02*
X-37506D01*
X-40570Y-71132D02*
X-37547D01*
X-40217Y-71332D02*
X-37461D01*
X-29645Y-76331D02*
X-27661D01*
X-29902Y-76231D02*
X-27774D01*
X-23139Y-76331D02*
X-20008D01*
X-29386Y-76431D02*
X-27538D01*
X-30407Y-76031D02*
X-27974D01*
X-30656Y-75931D02*
X-28063D01*
X-30155Y-76131D02*
X-27878D01*
X-23263Y-76431D02*
X-20002D01*
X-23399Y-76531D02*
X-19994D01*
X-23551Y-76631D02*
X-19983D01*
X-29125Y-76531D02*
X-27401D01*
X-28860Y-76631D02*
X-27250D01*
X-31277Y-71631D02*
X-28252D01*
X-31339Y-71732D02*
X-28321D01*
X-31405Y-71831D02*
X-28384D01*
X-31476Y-71932D02*
X-28443D01*
X-31553Y-72031D02*
X-28498D01*
X-32336Y-75231D02*
X-28527D01*
X-31147Y-75731D02*
X-28221D01*
X-31389Y-75631D02*
X-28292D01*
X-30902Y-75831D02*
X-28145D01*
X-31867Y-75431D02*
X-28419D01*
X-32102Y-75331D02*
X-28475D01*
X-31629Y-75531D02*
X-28358D01*
X-24460Y-77031D02*
X-19910D01*
X-24954Y-77131D02*
X-19884D01*
X-25138Y-77931D02*
X-19552D01*
X-23722Y-76731D02*
X-19969D01*
X-23919Y-76831D02*
X-19953D01*
X-24156Y-76931D02*
X-19933D01*
X-23530Y-78431D02*
X-19206D01*
X-23861Y-78331D02*
X-19286D01*
X-23194Y-78531D02*
X-19120D01*
X-24508Y-78131D02*
X-19429D01*
X-24825Y-78031D02*
X-19493D01*
X-24187Y-78231D02*
X-19360D01*
X-27496Y-77131D02*
X-25846D01*
X-27775Y-77031D02*
X-26340D01*
X-27213Y-77231D02*
X-19855D01*
X-28324Y-76831D02*
X-26881D01*
X-28593Y-76731D02*
X-27078D01*
X-28051Y-76931D02*
X-26644D01*
X-25750Y-77731D02*
X-19657D01*
X-26050Y-77631D02*
X-19704D01*
X-25446Y-77831D02*
X-19606D01*
X-26639Y-77431D02*
X-19786D01*
X-26928Y-77331D02*
X-19822D01*
X-26346Y-77531D02*
X-19747D01*
X-31636Y-72132D02*
X-28549D01*
X-31725Y-72231D02*
X-28595D01*
X-31822Y-72332D02*
X-28638D01*
X-31927Y-72432D02*
X-28677D01*
X-32041Y-72531D02*
X-28713D01*
X-32166Y-72632D02*
X-28746D01*
X-32303Y-72731D02*
X-28775D01*
X-32457Y-72832D02*
X-28800D01*
X-32630Y-72931D02*
X-28823D01*
X-32831Y-73032D02*
X-28843D01*
X-37236Y-72931D02*
X-35950D01*
X-37432Y-72832D02*
X-36123D01*
X-37040Y-73032D02*
X-35749D01*
X-38764Y-72132D02*
X-36944D01*
X-38949Y-72031D02*
X-37027D01*
X-38577Y-72231D02*
X-36855D01*
X-39317Y-71831D02*
X-37175D01*
X-39499Y-71732D02*
X-37241D01*
X-39134Y-71932D02*
X-37104D01*
X-37818Y-72632D02*
X-36414D01*
X-37626Y-72731D02*
X-36277D01*
X-38200Y-72432D02*
X-36653D01*
X-38389Y-72332D02*
X-36758D01*
X-38010Y-72531D02*
X-36539D01*
X-34138Y-74431D02*
X-28814D01*
X-34355Y-74331D02*
X-28835D01*
X-33919Y-74531D02*
X-28790D01*
X-33073Y-73131D02*
X-28860D01*
X-33387Y-73232D02*
X-28874D01*
X-33930Y-73331D02*
X-28884D01*
X-32798Y-75031D02*
X-28620D01*
X-33026Y-74931D02*
X-28661D01*
X-32568Y-75131D02*
X-28576D01*
X-33476Y-74731D02*
X-28732D01*
X-33698Y-74631D02*
X-28763D01*
X-33252Y-74831D02*
X-28698D01*
X-36037Y-73531D02*
X-28898D01*
X-36240Y-73432D02*
X-28893D01*
X-35832Y-73632D02*
X-28900D01*
X-36643Y-73232D02*
X-35193D01*
X-36842Y-73131D02*
X-35507D01*
X-36442Y-73331D02*
X-34650D01*
X-34785Y-74131D02*
X-28868D01*
X-34997Y-74031D02*
X-28880D01*
X-34571Y-74231D02*
X-28853D01*
X-35418Y-73831D02*
X-28896D01*
X-35625Y-73731D02*
X-28899D01*
X-35208Y-73931D02*
X-28890D01*
X-60462Y-55231D02*
X-33252D01*
X-60553Y-55132D02*
X-33446D01*
X-60279Y-55431D02*
X-32725D01*
X-60371Y-55332D02*
X-33020D01*
X-48260Y-55070D02*
X-33553D01*
X-59815Y-55932D02*
X-32131D01*
X-59908Y-55831D02*
X-32231D01*
X-59721Y-56031D02*
X-32031D01*
X-60094Y-55631D02*
X-32431D01*
X-60187Y-55532D02*
X-32531D01*
X-60002Y-55732D02*
X-32331D01*
X-61272Y-54331D02*
X-50231D01*
X-61361Y-54232D02*
X-50340D01*
X-61184Y-54432D02*
X-50110D01*
X-61537Y-54032D02*
X-50541D01*
X-61625Y-53931D02*
X-50641D01*
X-61449Y-54131D02*
X-50441D01*
X-60735Y-54932D02*
X-49161D01*
X-60825Y-54832D02*
X-49432D01*
X-60644Y-55031D02*
X-48739D01*
X-61005Y-54632D02*
X-49822D01*
X-61094Y-54531D02*
X-49975D01*
X-60915Y-54731D02*
X-49644D01*
X-58079Y-57731D02*
X-30331D01*
X-58179Y-57632D02*
X-30431D01*
X-57980Y-57832D02*
X-30231D01*
X-58376Y-57432D02*
X-30631D01*
X-58474Y-57332D02*
X-30731D01*
X-58277Y-57531D02*
X-30531D01*
X-57477Y-58331D02*
X-29731D01*
X-57578Y-58232D02*
X-29831D01*
X-57375Y-58432D02*
X-29631D01*
X-57779Y-58032D02*
X-30031D01*
X-57880Y-57931D02*
X-30131D01*
X-57679Y-58131D02*
X-29931D01*
X-59248Y-56532D02*
X-31531D01*
X-59343Y-56431D02*
X-31631D01*
X-59153Y-56631D02*
X-31431D01*
X-59533Y-56231D02*
X-31831D01*
X-59627Y-56132D02*
X-31931D01*
X-59438Y-56332D02*
X-31731D01*
X-58670Y-57132D02*
X-30931D01*
X-58767Y-57031D02*
X-31031D01*
X-58572Y-57231D02*
X-30831D01*
X-58960Y-56831D02*
X-31231D01*
X-59057Y-56732D02*
X-31331D01*
X-58864Y-56932D02*
X-31131D01*
X-64364Y-50631D02*
X-53941D01*
X-64443Y-50532D02*
X-54041D01*
X-64206Y-50831D02*
X-53741D01*
X-64285Y-50732D02*
X-53841D01*
X-64599Y-50332D02*
X-54241D01*
X-64677Y-50231D02*
X-54341D01*
X-64521Y-50431D02*
X-54141D01*
X-63807Y-51332D02*
X-53241D01*
X-63888Y-51231D02*
X-53341D01*
X-63727Y-51431D02*
X-53141D01*
X-64047Y-51031D02*
X-53541D01*
X-64127Y-50932D02*
X-53641D01*
X-63968Y-51132D02*
X-53441D01*
X-65290Y-49432D02*
X-55141D01*
X-65366Y-49331D02*
X-55241D01*
X-65215Y-49531D02*
X-55041D01*
X-65517Y-49131D02*
X-55441D01*
X-65591Y-49032D02*
X-55541D01*
X-65441Y-49232D02*
X-55341D01*
X-64832Y-50031D02*
X-54541D01*
X-64909Y-49932D02*
X-54641D01*
X-64754Y-50132D02*
X-54441D01*
X-65062Y-49731D02*
X-54841D01*
X-65139Y-49632D02*
X-54941D01*
X-64986Y-49832D02*
X-54741D01*
X-62316Y-53131D02*
X-51441D01*
X-62401Y-53032D02*
X-51541D01*
X-62231Y-53232D02*
X-51341D01*
X-62571Y-52832D02*
X-51741D01*
X-62655Y-52731D02*
X-51841D01*
X-62486Y-52931D02*
X-51641D01*
X-61799Y-53731D02*
X-50841D01*
X-61886Y-53632D02*
X-50941D01*
X-61712Y-53832D02*
X-50741D01*
X-62059Y-53432D02*
X-51141D01*
X-62145Y-53331D02*
X-51241D01*
X-61973Y-53531D02*
X-51041D01*
X-63320Y-51932D02*
X-52641D01*
X-63402Y-51831D02*
X-52741D01*
X-63238Y-52031D02*
X-52541D01*
X-63565Y-51631D02*
X-52941D01*
X-63646Y-51532D02*
X-53041D01*
X-63483Y-51732D02*
X-52841D01*
X-62823Y-52531D02*
X-52041D01*
X-62906Y-52432D02*
X-52141D01*
X-62739Y-52632D02*
X-51941D01*
X-63072Y-52231D02*
X-52341D01*
X-63155Y-52132D02*
X-52441D01*
X-62989Y-52332D02*
X-52241D01*
X-52157Y-63131D02*
X-24931D01*
X-52278Y-63032D02*
X-25031D01*
X-51914Y-63331D02*
X-24731D01*
X-52036Y-63232D02*
X-24831D01*
X-52518Y-62832D02*
X-25231D01*
X-52638Y-62731D02*
X-25331D01*
X-52398Y-62931D02*
X-25131D01*
X-51298Y-63832D02*
X-24231D01*
X-51422Y-63731D02*
X-24331D01*
X-51173Y-63931D02*
X-24131D01*
X-51669Y-63531D02*
X-24531D01*
X-51792Y-63432D02*
X-24631D01*
X-51546Y-63632D02*
X-24431D01*
X-53577Y-61932D02*
X-26131D01*
X-53692Y-61831D02*
X-26231D01*
X-53461Y-62031D02*
X-26031D01*
X-53922Y-61631D02*
X-26431D01*
X-54036Y-61532D02*
X-26531D01*
X-53807Y-61732D02*
X-26331D01*
X-52875Y-62531D02*
X-25531D01*
X-52993Y-62432D02*
X-25631D01*
X-52757Y-62632D02*
X-25431D01*
X-53228Y-62231D02*
X-25831D01*
X-53345Y-62132D02*
X-25931D01*
X-53111Y-62332D02*
X-25731D01*
X-48973Y-65631D02*
X-22431D01*
X-49107Y-65532D02*
X-22531D01*
X-48839Y-65732D02*
X-22331D01*
X-49373Y-65332D02*
X-22731D01*
X-49505Y-65231D02*
X-22831D01*
X-49240Y-65431D02*
X-22631D01*
X-48158Y-66231D02*
X-21831D01*
X-48296Y-66132D02*
X-21931D01*
X-48021Y-66332D02*
X-21731D01*
X-48569Y-65932D02*
X-22131D01*
X-48704Y-65831D02*
X-22231D01*
X-48432Y-66031D02*
X-22031D01*
X-50542Y-64432D02*
X-23631D01*
X-50669Y-64331D02*
X-23731D01*
X-50414Y-64531D02*
X-23531D01*
X-50922Y-64131D02*
X-23931D01*
X-51048Y-64032D02*
X-24031D01*
X-50796Y-64232D02*
X-23831D01*
X-49767Y-65031D02*
X-23031D01*
X-49898Y-64932D02*
X-23131D01*
X-49637Y-65132D02*
X-22931D01*
X-50157Y-64731D02*
X-23331D01*
X-50286Y-64632D02*
X-23431D01*
X-50028Y-64832D02*
X-23231D01*
X-55590Y-60132D02*
X-27931D01*
X-55698Y-60031D02*
X-28031D01*
X-55482Y-60231D02*
X-27831D01*
X-55913Y-59832D02*
X-28231D01*
X-56020Y-59731D02*
X-28331D01*
X-55806Y-59932D02*
X-28131D01*
X-54934Y-60732D02*
X-27331D01*
X-55044Y-60631D02*
X-27431D01*
X-54823Y-60831D02*
X-27231D01*
X-55264Y-60431D02*
X-27631D01*
X-55373Y-60332D02*
X-27731D01*
X-55154Y-60532D02*
X-27531D01*
X-56861Y-58931D02*
X-29131D01*
X-56965Y-58832D02*
X-29231D01*
X-56757Y-59032D02*
X-29031D01*
X-57170Y-58632D02*
X-29431D01*
X-57273Y-58531D02*
X-29531D01*
X-57068Y-58731D02*
X-29331D01*
X-56232Y-59531D02*
X-28531D01*
X-56338Y-59432D02*
X-28631D01*
X-56126Y-59632D02*
X-28431D01*
X-56548Y-59232D02*
X-28831D01*
X-56653Y-59131D02*
X-28931D01*
X-56443Y-59331D02*
X-28731D01*
X-46895Y-67132D02*
X-36494D01*
X-47038Y-67031D02*
X-36365D01*
X-46752Y-67231D02*
X-36612D01*
X-46463Y-67432D02*
X-36820D01*
X-46608Y-67332D02*
X-36720D01*
X-46317Y-67531D02*
X-36912D01*
X-46024Y-67731D02*
X-37076D01*
X-46171Y-67632D02*
X-36997D01*
X-45877Y-67832D02*
X-37149D01*
X-45580Y-68032D02*
X-37280D01*
X-45729Y-67931D02*
X-37217D01*
X-45430Y-68131D02*
X-37339D01*
X-54263Y-61332D02*
X-26731D01*
X-54376Y-61231D02*
X-26831D01*
X-54150Y-61431D02*
X-26631D01*
X-54600Y-61031D02*
X-27031D01*
X-54712Y-60932D02*
X-27131D01*
X-54488Y-61132D02*
X-26931D01*
X-47743Y-66532D02*
X-35402D01*
X-47882Y-66431D02*
X-35041D01*
X-47603Y-66631D02*
X-35665D01*
X-47322Y-66831D02*
X-36061D01*
X-47463Y-66732D02*
X-35879D01*
X-47181Y-66932D02*
X-36222D01*
X-61770Y-7032D02*
X-60150D01*
X-61770Y-6932D02*
X-60150D01*
X-61770Y-7232D02*
X-60150D01*
X-61770Y-7132D02*
X-60150D01*
X-61770Y-6732D02*
X-60150D01*
X-61770Y-6632D02*
X-60150D01*
X-61770Y-6832D02*
X-60150D01*
X-61770Y-7732D02*
X-60150D01*
X-61770Y-7632D02*
X-60150D01*
X-61770Y-7832D02*
X-60150D01*
X-61770Y-7432D02*
X-60150D01*
X-61770Y-7332D02*
X-60150D01*
X-61770Y-7532D02*
X-60150D01*
X-61770Y-5832D02*
X-60150D01*
X-61770Y-5732D02*
X-60150D01*
X-61770Y-5932D02*
X-60150D01*
X-61770Y-5532D02*
X-60150D01*
X-61770Y-5432D02*
X-60150D01*
X-61770Y-5632D02*
X-60150D01*
X-61770Y-6432D02*
X-60150D01*
X-61770Y-6332D02*
X-60150D01*
X-61770Y-6532D02*
X-60150D01*
X-61770Y-6132D02*
X-60150D01*
X-61770Y-6032D02*
X-60150D01*
X-61770Y-6232D02*
X-60150D01*
X-61770Y-9532D02*
X-60150D01*
X-61770Y-9432D02*
X-60150D01*
X-61770Y-9632D02*
X-60150D01*
X-61770Y-9232D02*
X-60150D01*
X-61770Y-9132D02*
X-60150D01*
X-61770Y-9332D02*
X-60150D01*
X-61770Y-10232D02*
X-60150D01*
X-61770Y-10032D02*
X-60150D01*
X-61770Y-10332D02*
X-60150D01*
X-61770Y-9832D02*
X-60150D01*
X-61770Y-9732D02*
X-60150D01*
X-61770Y-9932D02*
X-60150D01*
X-61770Y-8332D02*
X-60150D01*
X-61770Y-8232D02*
X-60150D01*
X-61770Y-8432D02*
X-60150D01*
X-61770Y-8032D02*
X-60150D01*
X-61770Y-7932D02*
X-60150D01*
X-61770Y-8132D02*
X-60150D01*
X-61770Y-8932D02*
X-60150D01*
X-61770Y-8832D02*
X-60150D01*
X-61770Y-9032D02*
X-60150D01*
X-61770Y-8632D02*
X-60150D01*
X-61770Y-8532D02*
X-60150D01*
X-61770Y-8732D02*
X-60150D01*
X-61770Y-2132D02*
X-60150D01*
X-61770Y-2032D02*
X-60150D01*
X-61770Y-2332D02*
X-60150D01*
X-61770Y-2232D02*
X-60150D01*
X-61770Y-1832D02*
X-60150D01*
X-61770Y-1732D02*
X-60150D01*
X-61770Y-1932D02*
X-60150D01*
X-61770Y-2832D02*
X-60150D01*
X-61770Y-2732D02*
X-60150D01*
X-61770Y-2932D02*
X-60150D01*
X-61770Y-2532D02*
X-60150D01*
X-61770Y-2432D02*
X-60150D01*
X-61770Y-2632D02*
X-60150D01*
X-61770Y-932D02*
X-60150D01*
X-61770Y-832D02*
X-60150D01*
X-61770Y-1032D02*
X-60150D01*
X-61770Y-632D02*
X-60150D01*
X-61770Y-532D02*
X-60150D01*
X-61770Y-732D02*
X-60150D01*
X-61770Y-1532D02*
X-60150D01*
X-61770Y-1432D02*
X-60150D01*
X-61770Y-1632D02*
X-60150D01*
X-61770Y-1232D02*
X-60150D01*
X-61770Y-1132D02*
X-60150D01*
X-61770Y-1332D02*
X-60150D01*
X-61770Y-4632D02*
X-60150D01*
X-61770Y-4532D02*
X-60150D01*
X-61770Y-4732D02*
X-60150D01*
X-61770Y-4332D02*
X-60150D01*
X-61770Y-4232D02*
X-60150D01*
X-61770Y-4432D02*
X-60150D01*
X-61770Y-5232D02*
X-60150D01*
X-61770Y-5132D02*
X-60150D01*
X-61770Y-5332D02*
X-60150D01*
X-61770Y-4932D02*
X-60150D01*
X-61770Y-4832D02*
X-60150D01*
X-61770Y-5032D02*
X-60150D01*
X-61770Y-3432D02*
X-60150D01*
X-61770Y-3332D02*
X-60150D01*
X-61770Y-3532D02*
X-60150D01*
X-61770Y-3132D02*
X-60150D01*
X-61770Y-3032D02*
X-60150D01*
X-61770Y-3232D02*
X-60150D01*
X-61770Y-4032D02*
X-60150D01*
X-61770Y-3932D02*
X-60150D01*
X-61770Y-4132D02*
X-60150D01*
X-61770Y-3732D02*
X-60150D01*
X-61770Y-3632D02*
X-60150D01*
X-61770Y-3832D02*
X-60150D01*
X-61770Y-16832D02*
X-60150D01*
X-61770Y-16732D02*
X-60150D01*
X-61770Y-17032D02*
X-60150D01*
X-61770Y-16932D02*
X-60150D01*
X-61770Y-16532D02*
X-60150D01*
X-61770Y-16432D02*
X-60150D01*
X-61770Y-16632D02*
X-60150D01*
Y-30857D02*
Y10097D01*
X-61770Y-17432D02*
X-60150D01*
X-61770Y-17532D02*
X-60150D01*
X-61770Y-17232D02*
X-60150D01*
X-61770Y-17132D02*
X-60150D01*
X-61770Y-17332D02*
X-60150D01*
X-61770Y-15632D02*
X-60150D01*
X-61770Y-15532D02*
X-60150D01*
X-61770Y-15732D02*
X-60150D01*
X-61770Y-15332D02*
X-60150D01*
X-61770Y-10432D02*
X-60150D01*
X-61770Y-15432D02*
X-60150D01*
X-61770Y-16232D02*
X-60150D01*
X-61770Y-16132D02*
X-60150D01*
X-61770Y-16332D02*
X-60150D01*
X-61770Y-15932D02*
X-60150D01*
X-61770Y-15832D02*
X-60150D01*
X-61770Y-16032D02*
X-60150D01*
X-61770Y-19232D02*
X-60150D01*
X-61770Y-19132D02*
X-60150D01*
X-61770Y-19332D02*
X-60150D01*
X-61770Y-18932D02*
X-60150D01*
X-61770Y-18832D02*
X-60150D01*
X-61770Y-19032D02*
X-60150D01*
X-61770Y-19832D02*
X-60150D01*
X-61770Y-19732D02*
X-60150D01*
X-61770Y-19932D02*
X-60150D01*
X-61770Y-19532D02*
X-60150D01*
X-61770Y-19432D02*
X-60150D01*
X-61770Y-19632D02*
X-60150D01*
X-61770Y-18032D02*
X-60150D01*
X-61770Y-17932D02*
X-60150D01*
X-61770Y-18132D02*
X-60150D01*
X-61770Y-17732D02*
X-60150D01*
X-61770Y-17632D02*
X-60150D01*
X-61770Y-17832D02*
X-60150D01*
X-61770Y-18632D02*
X-60150D01*
X-61770Y-18532D02*
X-60150D01*
X-61770Y-18732D02*
X-60150D01*
X-61770Y-18332D02*
X-60150D01*
X-61770Y-18232D02*
X-60150D01*
X-61770Y-18432D02*
X-60150D01*
X-61770Y-12032D02*
X-60150D01*
X-61770Y-11932D02*
X-60150D01*
X-61770Y-12232D02*
X-60150D01*
X-61770Y-12132D02*
X-60150D01*
X-61770Y-11732D02*
X-60150D01*
X-61770Y-11632D02*
X-60150D01*
X-61770Y-11832D02*
X-60150D01*
X-61770Y-12732D02*
X-60150D01*
X-61770Y-12632D02*
X-60150D01*
X-61770Y-12832D02*
X-60150D01*
X-61770Y-12432D02*
X-60150D01*
X-61770Y-12332D02*
X-60150D01*
X-61770Y-12532D02*
X-60150D01*
X-61770Y-10932D02*
X-60150D01*
X-61770Y-10832D02*
X-60150D01*
X-61770Y-11032D02*
X-60150D01*
X-61770Y-10632D02*
X-60150D01*
X-61770Y-10532D02*
X-60150D01*
X-61770Y-10732D02*
X-60150D01*
X-61770Y-11432D02*
X-60150D01*
X-61770Y-11332D02*
X-60150D01*
X-61770Y-11532D02*
X-60150D01*
X-61770Y-11132D02*
X-60150D01*
X-61770Y-29237D02*
Y8477D01*
Y-11232D02*
X-60150D01*
X-61770Y-14532D02*
X-60150D01*
X-61770Y-14432D02*
X-60150D01*
X-61770Y-14632D02*
X-60150D01*
X-61770Y-14232D02*
X-60150D01*
X-61770Y-14132D02*
X-60150D01*
X-61770Y-14332D02*
X-60150D01*
X-61770Y-15132D02*
X-60150D01*
X-61770Y-15032D02*
X-60150D01*
X-61770Y-15232D02*
X-60150D01*
X-61770Y-14832D02*
X-60150D01*
X-61770Y-14732D02*
X-60150D01*
X-61770Y-14932D02*
X-60150D01*
X-61770Y-13332D02*
X-60150D01*
X-61770Y-13232D02*
X-60150D01*
X-61770Y-13432D02*
X-60150D01*
X-61770Y-13032D02*
X-60150D01*
X-61770Y-12932D02*
X-60150D01*
X-61770Y-13132D02*
X-60150D01*
X-61770Y-13932D02*
X-60150D01*
X-61770Y-13832D02*
X-60150D01*
X-61770Y-14032D02*
X-60150D01*
X-61770Y-13632D02*
X-60150D01*
X-61770Y-13532D02*
X-60150D01*
X-61770Y-13732D02*
X-60150D01*
X-81583Y-7132D02*
X-70310D01*
X-81592Y-7032D02*
X-70310D01*
X-81566Y-7332D02*
X-70310D01*
X-81575Y-7232D02*
X-70310D01*
X-81609Y-6832D02*
X-70310D01*
X-81617Y-6732D02*
X-70310D01*
X-81601Y-6932D02*
X-70310D01*
X-81519Y-7832D02*
X-70310D01*
X-81529Y-7732D02*
X-70310D01*
X-81510Y-7932D02*
X-70310D01*
X-81547Y-7532D02*
X-70310D01*
X-81557Y-7432D02*
X-70310D01*
X-81538Y-7632D02*
X-70310D01*
X-81679Y-5932D02*
X-70310D01*
X-81687Y-5832D02*
X-70310D01*
X-81672Y-6032D02*
X-70310D01*
X-81701Y-5632D02*
X-70310D01*
X-81708Y-5532D02*
X-70310D01*
X-81694Y-5732D02*
X-70310D01*
X-81634Y-6532D02*
X-70310D01*
X-81642Y-6432D02*
X-70310D01*
X-81626Y-6632D02*
X-70310D01*
X-81657Y-6232D02*
X-70310D01*
X-81665Y-6132D02*
X-70310D01*
X-81650Y-6332D02*
X-70310D01*
X-81326Y-9632D02*
X-70310D01*
X-81338Y-9532D02*
X-70310D01*
X-81314Y-9732D02*
X-70310D01*
X-81361Y-9332D02*
X-70310D01*
X-81373Y-9232D02*
X-70310D01*
X-81350Y-9432D02*
X-70310D01*
X-61770Y-10132D02*
X-60150D01*
X-81265D02*
X-70310D01*
X-81253Y-10232D02*
X-70310D01*
X-81290Y-9932D02*
X-70310D01*
X-81302Y-9832D02*
X-70310D01*
X-81278Y-10032D02*
X-70310D01*
X-81459Y-8432D02*
X-70310D01*
X-81470Y-8332D02*
X-70310D01*
X-81449Y-8532D02*
X-70310D01*
X-81490Y-8132D02*
X-70310D01*
X-81500Y-8032D02*
X-70310D01*
X-81480Y-8232D02*
X-70310D01*
X-81395Y-9032D02*
X-70310D01*
X-81406Y-8932D02*
X-70310D01*
X-81384Y-9132D02*
X-70310D01*
X-81428Y-8732D02*
X-70310D01*
X-81438Y-8632D02*
X-70310D01*
X-81417Y-8832D02*
X-70310D01*
X-81864Y-2232D02*
X-70310D01*
X-81867Y-2132D02*
X-70310D01*
X-81859Y-2432D02*
X-70310D01*
X-81861Y-2332D02*
X-70310D01*
X-81872Y-1932D02*
X-70310D01*
X-81874Y-1832D02*
X-70310D01*
X-81869Y-2032D02*
X-70310D01*
X-81842Y-2932D02*
X-70310D01*
X-81846Y-2832D02*
X-70310D01*
X-81839Y-3032D02*
X-70310D01*
X-81852Y-2632D02*
X-70310D01*
X-81855Y-2532D02*
X-70310D01*
X-81849Y-2732D02*
X-70310D01*
X-81888Y-1032D02*
X-70310D01*
X-81889Y-932D02*
X-70310D01*
X-81887Y-1132D02*
X-70310D01*
X-81891Y-732D02*
X-70310D01*
X-81892Y-632D02*
X-70310D01*
X-81890Y-832D02*
X-70310D01*
X-81878Y-1632D02*
X-70310D01*
X-81880Y-1532D02*
X-70310D01*
X-81876Y-1732D02*
X-70310D01*
X-81884Y-1332D02*
X-70310D01*
X-81885Y-1232D02*
X-70310D01*
X-81882Y-1432D02*
X-70310D01*
X-81758Y-4732D02*
X-70310D01*
X-81763Y-4632D02*
X-70310D01*
X-81752Y-4832D02*
X-70310D01*
X-81775Y-4432D02*
X-70310D01*
X-81780Y-4332D02*
X-70310D01*
X-81769Y-4532D02*
X-70310D01*
X-81721Y-5332D02*
X-70310D01*
X-81727Y-5232D02*
X-70310D01*
X-81714Y-5432D02*
X-70310D01*
X-81740Y-5032D02*
X-70310D01*
X-81746Y-4932D02*
X-70310D01*
X-81734Y-5132D02*
X-70310D01*
X-81818Y-3532D02*
X-70310D01*
X-81823Y-3432D02*
X-70310D01*
X-81814Y-3632D02*
X-70310D01*
X-81831Y-3232D02*
X-70310D01*
X-81835Y-3132D02*
X-70310D01*
X-81827Y-3332D02*
X-70310D01*
X-81790Y-4132D02*
X-70310D01*
X-81795Y-4032D02*
X-70310D01*
X-81785Y-4232D02*
X-70310D01*
X-81805Y-3832D02*
X-70310D01*
X-81810Y-3732D02*
X-70310D01*
X-81800Y-3932D02*
X-70310D01*
X-80167Y-16732D02*
X-70310D01*
X-80188Y-16632D02*
X-70310D01*
X-80125Y-16932D02*
X-70310D01*
X-80146Y-16832D02*
X-70310D01*
X-80229Y-16432D02*
X-70310D01*
X-80250Y-16332D02*
X-70310D01*
X-80209Y-16532D02*
X-70310D01*
Y-33020D02*
Y15254D01*
X-80039Y-17332D02*
X-70310D01*
X-80018Y-17432D02*
X-70310D01*
X-80083Y-17132D02*
X-70310D01*
X-80104Y-17032D02*
X-70310D01*
X-80061Y-17232D02*
X-70310D01*
X-80408Y-15532D02*
X-70310D01*
X-80427Y-15432D02*
X-70310D01*
X-80389Y-15632D02*
X-70310D01*
X-80465Y-15232D02*
X-70310D01*
X-80484Y-15132D02*
X-70310D01*
X-80447Y-15332D02*
X-70310D01*
X-80290Y-16132D02*
X-70310D01*
X-80310Y-16032D02*
X-70310D01*
X-80270Y-16232D02*
X-70310D01*
X-80350Y-15832D02*
X-70310D01*
X-80369Y-15732D02*
X-70310D01*
X-80330Y-15932D02*
X-70310D01*
X-79628Y-19132D02*
X-70310D01*
X-79652Y-19032D02*
X-70310D01*
X-79604Y-19232D02*
X-70310D01*
X-79700Y-18832D02*
X-70310D01*
X-79723Y-18732D02*
X-70310D01*
X-79676Y-18932D02*
X-70310D01*
X-79482Y-19732D02*
X-70310D01*
X-79507Y-19632D02*
X-70310D01*
X-79457Y-19832D02*
X-70310D01*
X-79556Y-19432D02*
X-70310D01*
X-79580Y-19332D02*
X-70310D01*
X-79531Y-19532D02*
X-70310D01*
X-79907Y-17932D02*
X-70310D01*
X-79929Y-17832D02*
X-70310D01*
X-79885Y-18032D02*
X-70310D01*
X-79974Y-17632D02*
X-70310D01*
X-79996Y-17532D02*
X-70310D01*
X-79952Y-17732D02*
X-70310D01*
X-79770Y-18532D02*
X-70310D01*
X-79793Y-18432D02*
X-70310D01*
X-79747Y-18632D02*
X-70310D01*
X-79839Y-18232D02*
X-70310D01*
X-79862Y-18132D02*
X-70310D01*
X-79816Y-18332D02*
X-70310D01*
X-81021Y-11932D02*
X-70310D01*
X-81035Y-11832D02*
X-70310D01*
X-81006Y-12032D02*
X-70310D01*
X-81064Y-11632D02*
X-70310D01*
X-81079Y-11532D02*
X-70310D01*
X-81050Y-11732D02*
X-70310D01*
X-80930Y-12532D02*
X-70310D01*
X-80946Y-12432D02*
X-70310D01*
X-80914Y-12632D02*
X-70310D01*
X-80976Y-12232D02*
X-70310D01*
X-80991Y-12132D02*
X-70310D01*
X-80961Y-12332D02*
X-70310D01*
X-81188Y-10732D02*
X-70310D01*
X-81201Y-10632D02*
X-70310D01*
X-81175Y-10832D02*
X-70310D01*
X-81228Y-10432D02*
X-70310D01*
X-81240Y-10332D02*
X-70310D01*
X-81215Y-10532D02*
X-70310D01*
X-81107Y-11332D02*
X-70310D01*
X-81121Y-11232D02*
X-70310D01*
X-81093Y-11432D02*
X-70310D01*
X-81148Y-11032D02*
X-70310D01*
X-81162Y-10932D02*
X-70310D01*
X-81135Y-11132D02*
X-70310D01*
X-80631Y-14332D02*
X-70310D01*
X-80648Y-14232D02*
X-70310D01*
X-80613Y-14432D02*
X-70310D01*
X-80683Y-14032D02*
X-70310D01*
X-80701Y-13932D02*
X-70310D01*
X-80666Y-14132D02*
X-70310D01*
X-80522Y-14932D02*
X-70310D01*
X-80540Y-14832D02*
X-70310D01*
X-80503Y-15032D02*
X-70310D01*
X-80577Y-14632D02*
X-70310D01*
X-80595Y-14532D02*
X-70310D01*
X-80559Y-14732D02*
X-70310D01*
X-80835Y-13132D02*
X-70310D01*
X-80851Y-13032D02*
X-70310D01*
X-80819Y-13232D02*
X-70310D01*
X-80883Y-12832D02*
X-70310D01*
X-80899Y-12732D02*
X-70310D01*
X-80867Y-12932D02*
X-70310D01*
X-80735Y-13732D02*
X-70310D01*
X-80752Y-13632D02*
X-70310D01*
X-80718Y-13832D02*
X-70310D01*
X-80786Y-13432D02*
X-70310D01*
X-80802Y-13332D02*
X-70310D01*
X-80769Y-13532D02*
X-70310D01*
X-61770Y-26532D02*
X-60150D01*
X-61770Y-26432D02*
X-60150D01*
X-61770Y-26732D02*
X-60150D01*
X-61770Y-26632D02*
X-60150D01*
X-61770Y-26232D02*
X-60150D01*
X-61770Y-26131D02*
X-60150D01*
X-61770Y-26332D02*
X-60150D01*
X-61770Y-27232D02*
X-60150D01*
X-61770Y-27132D02*
X-60150D01*
X-61770Y-27332D02*
X-60150D01*
X-61770Y-26932D02*
X-60150D01*
X-61770Y-26832D02*
X-60150D01*
X-61770Y-27032D02*
X-60150D01*
X-61770Y-25331D02*
X-60150D01*
X-61770Y-25231D02*
X-60150D01*
X-61770Y-25431D02*
X-60150D01*
X-61770Y-25031D02*
X-60150D01*
X-61770Y-24931D02*
X-60150D01*
X-61770Y-25131D02*
X-60150D01*
X-61770Y-25931D02*
X-60150D01*
X-61770Y-25831D02*
X-60150D01*
X-61770Y-26031D02*
X-60150D01*
X-61770Y-25631D02*
X-60150D01*
X-61770Y-25531D02*
X-60150D01*
X-61770Y-25731D02*
X-60150D01*
X-61770Y-29032D02*
X-60150D01*
X-61770Y-28932D02*
X-60150D01*
X-61770Y-29132D02*
X-60150D01*
X-61770Y-28732D02*
X-60150D01*
X-61770Y-28631D02*
X-60150D01*
X-61770Y-28832D02*
X-60150D01*
X-61376Y-29632D02*
X-60150D01*
X-61476Y-29532D02*
X-60150D01*
X-61276Y-29732D02*
X-60150D01*
X-61676Y-29332D02*
X-60150D01*
X-61770Y-29232D02*
X-60150D01*
X-61576Y-29432D02*
X-60150D01*
X-61770Y-27831D02*
X-60150D01*
X-61770Y-27731D02*
X-60150D01*
X-61770Y-27931D02*
X-60150D01*
X-61770Y-27531D02*
X-60150D01*
X-61770Y-27431D02*
X-60150D01*
X-61770Y-27631D02*
X-60150D01*
X-61770Y-28431D02*
X-60150D01*
X-61770Y-28331D02*
X-60150D01*
X-61770Y-28531D02*
X-60150D01*
X-61770Y-28131D02*
X-60150D01*
X-61770Y-28031D02*
X-60150D01*
X-61770Y-28231D02*
X-60150D01*
X-61770Y-21632D02*
X-60150D01*
X-61770Y-21532D02*
X-60150D01*
X-61770Y-21832D02*
X-60150D01*
X-61770Y-21732D02*
X-60150D01*
X-61770Y-21332D02*
X-60150D01*
X-61770Y-21232D02*
X-60150D01*
X-61770Y-21432D02*
X-60150D01*
X-61770Y-22332D02*
X-60150D01*
X-61770Y-22232D02*
X-60150D01*
X-61770Y-22432D02*
X-60150D01*
X-61770Y-22032D02*
X-60150D01*
X-61770Y-21932D02*
X-60150D01*
X-61770Y-22132D02*
X-60150D01*
X-61770Y-20432D02*
X-60150D01*
X-61770Y-20332D02*
X-60150D01*
X-61770Y-20532D02*
X-60150D01*
X-61770Y-20132D02*
X-60150D01*
X-61770Y-20032D02*
X-60150D01*
X-61770Y-20232D02*
X-60150D01*
X-61770Y-21032D02*
X-60150D01*
X-61770Y-20932D02*
X-60150D01*
X-61770Y-21132D02*
X-60150D01*
X-61770Y-20732D02*
X-60150D01*
X-61770Y-20632D02*
X-60150D01*
X-61770Y-20832D02*
X-60150D01*
X-61770Y-24132D02*
X-60150D01*
X-61770Y-24032D02*
X-60150D01*
X-61770Y-24232D02*
X-60150D01*
X-61770Y-23832D02*
X-60150D01*
X-61770Y-23732D02*
X-60150D01*
X-61770Y-23932D02*
X-60150D01*
X-61770Y-24732D02*
X-60150D01*
X-61770Y-24632D02*
X-60150D01*
X-61770Y-24832D02*
X-60150D01*
X-61770Y-24432D02*
X-60150D01*
X-61770Y-24332D02*
X-60150D01*
X-61770Y-24532D02*
X-60150D01*
X-61770Y-22932D02*
X-60150D01*
X-61770Y-22832D02*
X-60150D01*
X-61770Y-23032D02*
X-60150D01*
X-61770Y-22632D02*
X-60150D01*
X-61770Y-22532D02*
X-60150D01*
X-61770Y-22732D02*
X-60150D01*
X-61770Y-23532D02*
X-60150D01*
X-61770Y-23432D02*
X-60150D01*
X-61770Y-23632D02*
X-60150D01*
X-61770Y-23232D02*
X-60150D01*
X-61770Y-23132D02*
X-60150D01*
X-61770Y-23332D02*
X-60150D01*
X-61770Y-29237D02*
X-60150Y-30857D01*
X-68201Y-45332D02*
X-59241D01*
X-68068Y-45532D02*
X-59041D01*
X-68135Y-45431D02*
X-59141D01*
X-61076Y-29931D02*
X-60150D01*
X-61176Y-29832D02*
X-60150D01*
X-60976Y-30031D02*
X-60150D01*
X-67731Y-46031D02*
X-58541D01*
X-67799Y-45932D02*
X-58641D01*
X-67663Y-46132D02*
X-58441D01*
X-67934Y-45732D02*
X-58841D01*
X-68001Y-45631D02*
X-58941D01*
X-67867Y-45831D02*
X-58741D01*
X-68727Y-44531D02*
X-60041D01*
X-68791Y-44432D02*
X-60141D01*
X-68662Y-44632D02*
X-59941D01*
X-68920Y-44232D02*
X-60341D01*
X-68984Y-44131D02*
X-60441D01*
X-68856Y-44331D02*
X-60241D01*
X-68334Y-45132D02*
X-59441D01*
X-68400Y-45031D02*
X-59541D01*
X-68268Y-45231D02*
X-59341D01*
X-68531Y-44832D02*
X-59741D01*
X-68597Y-44731D02*
X-59841D01*
X-68466Y-44932D02*
X-59641D01*
X-66472Y-47832D02*
X-56741D01*
X-66544Y-47731D02*
X-56841D01*
X-66400Y-47931D02*
X-56641D01*
X-66687Y-47531D02*
X-57041D01*
X-66758Y-47432D02*
X-57141D01*
X-66615Y-47632D02*
X-56941D01*
X-66036Y-48432D02*
X-56141D01*
X-66109Y-48331D02*
X-56241D01*
X-65962Y-48531D02*
X-56041D01*
X-66255Y-48131D02*
X-56441D01*
X-66327Y-48032D02*
X-56541D01*
X-66182Y-48232D02*
X-56341D01*
X-67319Y-46631D02*
X-57941D01*
X-67388Y-46532D02*
X-58041D01*
X-67250Y-46732D02*
X-57841D01*
X-67526Y-46332D02*
X-58241D01*
X-67595Y-46231D02*
X-58341D01*
X-67457Y-46431D02*
X-58141D01*
X-66899Y-47231D02*
X-57341D01*
X-66970Y-47132D02*
X-57441D01*
X-66829Y-47332D02*
X-57241D01*
X-67110Y-46932D02*
X-57641D01*
X-67180Y-46831D02*
X-57741D01*
X-67040Y-47031D02*
X-57541D01*
X-70988Y-40831D02*
X-63741D01*
X-71045Y-40732D02*
X-63841D01*
X-70872Y-41031D02*
X-63541D01*
X-70930Y-40932D02*
X-63641D01*
X-71102Y-40631D02*
X-63941D01*
X-70580Y-41532D02*
X-63041D01*
X-70639Y-41431D02*
X-63141D01*
X-70521Y-41631D02*
X-62941D01*
X-70756Y-41231D02*
X-63341D01*
X-70814Y-41132D02*
X-63441D01*
X-70698Y-41332D02*
X-63241D01*
X-71554Y-39832D02*
X-64741D01*
X-71609Y-39732D02*
X-64841D01*
X-71498Y-39931D02*
X-64641D01*
X-71720Y-39532D02*
X-65041D01*
X-71775Y-39432D02*
X-65141D01*
X-71665Y-39632D02*
X-64941D01*
X-71216Y-40431D02*
X-64141D01*
X-71273Y-40332D02*
X-64241D01*
X-71160Y-40532D02*
X-64041D01*
X-71386Y-40132D02*
X-64441D01*
X-71442Y-40031D02*
X-64541D01*
X-71329Y-40231D02*
X-64341D01*
X-69490Y-43331D02*
X-61241D01*
X-69552Y-43232D02*
X-61341D01*
X-69427Y-43432D02*
X-61141D01*
X-69676Y-43032D02*
X-61541D01*
X-69738Y-42931D02*
X-61641D01*
X-69614Y-43131D02*
X-61441D01*
X-69112Y-43931D02*
X-60641D01*
X-69175Y-43832D02*
X-60741D01*
X-69048Y-44032D02*
X-60541D01*
X-69302Y-43632D02*
X-60941D01*
X-69365Y-43531D02*
X-61041D01*
X-69239Y-43731D02*
X-60841D01*
X-70224Y-42132D02*
X-62441D01*
X-70284Y-42031D02*
X-62541D01*
X-70164Y-42231D02*
X-62341D01*
X-70403Y-41831D02*
X-62741D01*
X-70462Y-41732D02*
X-62841D01*
X-70343Y-41932D02*
X-62641D01*
X-69860Y-42731D02*
X-61841D01*
X-69921Y-42632D02*
X-61941D01*
X-69799Y-42832D02*
X-61741D01*
X-70043Y-42432D02*
X-62141D01*
X-70103Y-42332D02*
X-62241D01*
X-69982Y-42531D02*
X-62041D01*
X-77511Y-26432D02*
X-70310D01*
X-77545Y-26332D02*
X-70310D01*
X-77443Y-26632D02*
X-70310D01*
X-77477Y-26532D02*
X-70310D01*
X-77613Y-26131D02*
X-70310D01*
X-77647Y-26031D02*
X-70310D01*
X-77579Y-26232D02*
X-70310D01*
X-77269Y-27132D02*
X-70310D01*
X-77304Y-27032D02*
X-70310D01*
X-77234Y-27232D02*
X-70310D01*
X-77374Y-26832D02*
X-70310D01*
X-77408Y-26732D02*
X-70310D01*
X-77339Y-26932D02*
X-70310D01*
X-77910Y-25231D02*
X-70310D01*
X-77943Y-25131D02*
X-70310D01*
X-77878Y-25331D02*
X-70310D01*
X-78007Y-24931D02*
X-70310D01*
X-78039Y-24832D02*
X-70310D01*
X-77975Y-25031D02*
X-70310D01*
X-77713Y-25831D02*
X-70310D01*
X-77747Y-25731D02*
X-70310D01*
X-77680Y-25931D02*
X-70310D01*
X-77812Y-25531D02*
X-70310D01*
X-77845Y-25431D02*
X-70310D01*
X-77780Y-25631D02*
X-70310D01*
X-76613Y-28932D02*
X-70310D01*
X-76651Y-28832D02*
X-70310D01*
X-76575Y-29032D02*
X-70310D01*
X-76726Y-28631D02*
X-70310D01*
X-76763Y-28531D02*
X-70310D01*
X-76688Y-28732D02*
X-70310D01*
X-76384Y-29532D02*
X-70310D01*
X-76423Y-29432D02*
X-70310D01*
X-76345Y-29632D02*
X-70310D01*
X-76499Y-29232D02*
X-70310D01*
X-76537Y-29132D02*
X-70310D01*
X-76461Y-29332D02*
X-70310D01*
X-77056Y-27731D02*
X-70310D01*
X-77092Y-27631D02*
X-70310D01*
X-77020Y-27831D02*
X-70310D01*
X-77163Y-27431D02*
X-70310D01*
X-77199Y-27332D02*
X-70310D01*
X-77127Y-27531D02*
X-70310D01*
X-76837Y-28331D02*
X-70310D01*
X-76874Y-28231D02*
X-70310D01*
X-76800Y-28431D02*
X-70310D01*
X-76947Y-28031D02*
X-70310D01*
X-76983Y-27931D02*
X-70310D01*
X-76911Y-28131D02*
X-70310D01*
X-79013Y-21532D02*
X-70310D01*
X-79040Y-21432D02*
X-70310D01*
X-78958Y-21732D02*
X-70310D01*
X-78986Y-21632D02*
X-70310D01*
X-79094Y-21232D02*
X-70310D01*
X-79121Y-21132D02*
X-70310D01*
X-79067Y-21332D02*
X-70310D01*
X-78819Y-22232D02*
X-70310D01*
X-78847Y-22132D02*
X-70310D01*
X-78791Y-22332D02*
X-70310D01*
X-78903Y-21932D02*
X-70310D01*
X-78931Y-21832D02*
X-70310D01*
X-78875Y-22032D02*
X-70310D01*
X-79330Y-20332D02*
X-70310D01*
X-79356Y-20232D02*
X-70310D01*
X-79305Y-20432D02*
X-70310D01*
X-79407Y-20032D02*
X-70310D01*
X-79432Y-19932D02*
X-70310D01*
X-79381Y-20132D02*
X-70310D01*
X-79174Y-20932D02*
X-70310D01*
X-79201Y-20832D02*
X-70310D01*
X-79148Y-21032D02*
X-70310D01*
X-79253Y-20632D02*
X-70310D01*
X-79279Y-20532D02*
X-70310D01*
X-79227Y-20732D02*
X-70310D01*
X-78289Y-24032D02*
X-70310D01*
X-78320Y-23932D02*
X-70310D01*
X-78258Y-24132D02*
X-70310D01*
X-78380Y-23732D02*
X-70310D01*
X-78411Y-23632D02*
X-70310D01*
X-78350Y-23832D02*
X-70310D01*
X-78102Y-24632D02*
X-70310D01*
X-78134Y-24532D02*
X-70310D01*
X-78071Y-24732D02*
X-70310D01*
X-78196Y-24332D02*
X-70310D01*
X-78227Y-24232D02*
X-70310D01*
X-78165Y-24432D02*
X-70310D01*
X-78647Y-22832D02*
X-70310D01*
X-78676Y-22732D02*
X-70310D01*
X-78618Y-22932D02*
X-70310D01*
X-78734Y-22532D02*
X-70310D01*
X-78762Y-22432D02*
X-70310D01*
X-78705Y-22632D02*
X-70310D01*
X-78471Y-23432D02*
X-70310D01*
X-78500Y-23332D02*
X-70310D01*
X-78441Y-23532D02*
X-70310D01*
X-78559Y-23132D02*
X-70310D01*
X-78589Y-23032D02*
X-70310D01*
X-78530Y-23232D02*
X-70310D01*
X-73492Y-36131D02*
X-68441D01*
X-73541Y-36031D02*
X-68541D01*
X-73393Y-36332D02*
X-68241D01*
X-73443Y-36232D02*
X-68341D01*
X-73639Y-35831D02*
X-68741D01*
X-73687Y-35731D02*
X-68841D01*
X-73590Y-35931D02*
X-68641D01*
X-73143Y-36832D02*
X-67741D01*
X-73194Y-36732D02*
X-67841D01*
X-73093Y-36932D02*
X-67641D01*
X-73294Y-36532D02*
X-68041D01*
X-73344Y-36432D02*
X-68141D01*
X-73244Y-36632D02*
X-67941D01*
X-74070Y-34931D02*
X-69622D01*
X-74117Y-34832D02*
X-69701D01*
X-74023Y-35031D02*
X-69536D01*
X-74211Y-34632D02*
X-69840D01*
X-74257Y-34532D02*
X-69901D01*
X-74164Y-34732D02*
X-69774D01*
X-73784Y-35531D02*
X-69041D01*
X-73832Y-35431D02*
X-69141D01*
X-73736Y-35631D02*
X-68941D01*
X-73928Y-35231D02*
X-69341D01*
X-73975Y-35131D02*
X-69441D01*
X-73880Y-35331D02*
X-69241D01*
X-72209Y-38631D02*
X-65941D01*
X-72262Y-38531D02*
X-66041D01*
X-72155Y-38732D02*
X-65841D01*
X-72368Y-38331D02*
X-66241D01*
X-72421Y-38231D02*
X-66341D01*
X-72315Y-38431D02*
X-66141D01*
X-71884Y-39232D02*
X-65341D01*
X-71939Y-39132D02*
X-65441D01*
X-71830Y-39332D02*
X-65241D01*
X-72047Y-38932D02*
X-65641D01*
X-72101Y-38832D02*
X-65741D01*
X-71993Y-39032D02*
X-65541D01*
X-72838Y-37431D02*
X-67141D01*
X-72889Y-37332D02*
X-67241D01*
X-72787Y-37531D02*
X-67041D01*
X-72992Y-37132D02*
X-67441D01*
X-73042Y-37032D02*
X-67541D01*
X-72941Y-37232D02*
X-67341D01*
X-72527Y-38031D02*
X-66541D01*
X-72579Y-37931D02*
X-66641D01*
X-72474Y-38131D02*
X-66441D01*
X-72683Y-37731D02*
X-66841D01*
X-72735Y-37631D02*
X-66941D01*
X-72631Y-37831D02*
X-66741D01*
X-75663Y-31332D02*
X-70310D01*
X-75705Y-31232D02*
X-70310D01*
X-75622Y-31432D02*
X-70310D01*
X-75787Y-31031D02*
X-70310D01*
X-75828Y-30931D02*
X-70310D01*
X-75746Y-31131D02*
X-70310D01*
X-75412Y-31932D02*
X-70310D01*
X-75454Y-31832D02*
X-70310D01*
X-75370Y-32032D02*
X-70310D01*
X-75538Y-31632D02*
X-70310D01*
X-75580Y-31532D02*
X-70310D01*
X-75496Y-31732D02*
X-70310D01*
X-76149Y-30131D02*
X-70310D01*
X-76189Y-30031D02*
X-70310D01*
X-76109Y-30231D02*
X-70310D01*
X-76267Y-29832D02*
X-70310D01*
X-76306Y-29732D02*
X-70310D01*
X-76228Y-29931D02*
X-70310D01*
X-75909Y-30731D02*
X-70310D01*
X-75949Y-30631D02*
X-70310D01*
X-75868Y-30831D02*
X-70310D01*
X-76030Y-30431D02*
X-70310D01*
X-76070Y-30331D02*
X-70310D01*
X-75990Y-30531D02*
X-70310D01*
X-74624Y-33732D02*
X-70224D01*
X-74669Y-33631D02*
X-70247D01*
X-74579Y-33832D02*
X-70198D01*
X-74759Y-33431D02*
X-70282D01*
X-74804Y-33331D02*
X-70294D01*
X-74714Y-33531D02*
X-70266D01*
X-74350Y-34332D02*
X-70008D01*
X-74396Y-34232D02*
X-70054D01*
X-74304Y-34432D02*
X-69957D01*
X-74488Y-34032D02*
X-70134D01*
X-74533Y-33932D02*
X-70168D01*
X-74442Y-34132D02*
X-70097D01*
X-75155Y-32531D02*
X-70310D01*
X-75198Y-32431D02*
X-70310D01*
X-75112Y-32631D02*
X-70310D01*
X-75284Y-32232D02*
X-70310D01*
X-75327Y-32132D02*
X-70310D01*
X-75241Y-32332D02*
X-70310D01*
X-74892Y-33131D02*
X-70308D01*
X-74937Y-33031D02*
X-70310D01*
X-74848Y-33231D02*
X-70303D01*
X-75024Y-32831D02*
X-70310D01*
X-75068Y-32731D02*
X-70310D01*
X-74981Y-32931D02*
X-70310D01*
X41488Y42221D02*
X43929D01*
X37311Y45389D02*
X38768Y46846D01*
X33955Y49530D02*
X34346Y49139D01*
X40914Y41646D02*
X41488Y42221D01*
X34346Y49530D02*
X45720D01*
X43929Y42221D02*
X44192Y42484D01*
X37311Y45113D02*
Y45389D01*
X-17700Y49530D02*
X33955D01*
X-35560Y31670D02*
X-17700Y49530D01*
X45720D02*
X67310Y27940D01*
X35380Y34600D02*
X37610Y36830D01*
X38100D01*
X-20010Y34600D02*
X35380D01*
X-43180Y11430D02*
X-20010Y34600D01*
X51426Y-52714D02*
Y-31699D01*
X38100Y-66040D02*
X51426Y-52714D01*
X47790Y-35424D02*
Y-28410D01*
X51290Y-31563D02*
X51426Y-31699D01*
X-49220Y34676D02*
Y41108D01*
X47790Y-35424D02*
X47926Y-35560D01*
X-49495Y24994D02*
Y34676D01*
X-64770Y9719D02*
X-49495Y24994D01*
X-67310Y15254D02*
X-54030Y28534D01*
X-67310Y-33020D02*
Y15254D01*
X-64770Y-30480D02*
Y9719D01*
X-57150Y13479D02*
X-44760Y25869D01*
X-57150Y-31750D02*
Y13479D01*
X-44760Y25869D02*
Y36753D01*
X-49220Y41108D02*
X-32858Y57470D01*
X-45140Y37133D02*
X-44760Y36753D01*
X-25030Y57470D02*
X-24030Y56470D01*
X-32858Y57470D02*
X-25030D01*
X-24030Y56470D02*
X-23218D01*
X-27712Y53520D02*
X-27440Y53792D01*
X-33980Y53520D02*
X-27712D01*
X-44760Y42740D02*
X-33980Y53520D01*
X47790Y-28410D02*
X64770Y-11430D01*
Y27066D01*
X51343Y-28667D02*
X67310Y-12700D01*
X51343Y-31510D02*
Y-28667D01*
X51290Y-31563D02*
X51343Y-31510D01*
X67310Y-12700D02*
Y27940D01*
X44426Y-27906D02*
X57150Y-15182D01*
Y29526D01*
X44426Y-39346D02*
Y-27906D01*
X47790Y-35090D02*
X48800Y-36100D01*
Y-50260D02*
Y-36100D01*
X36830Y-62230D02*
X48800Y-50260D01*
X44725Y-39645D02*
X45000Y-39920D01*
X44426Y-39346D02*
X44725Y-39645D01*
X44450Y-49530D02*
Y-39920D01*
X35560Y-58420D02*
X44450Y-49530D01*
X-38559Y-43991D02*
X-29669D01*
X-45155Y-37395D02*
X-38559Y-43991D01*
X-29669D02*
X-15240Y-58420D01*
X-57150Y-31750D02*
X-51496Y-37404D01*
X-64770Y-30480D02*
X-46968Y-48282D01*
X-51496Y-37404D02*
X-45169D01*
X-45166Y-37407D01*
X44990Y46846D02*
X64770Y27066D01*
X44192Y42484D02*
X57150Y29526D01*
X-16510Y-62230D02*
X36830D01*
X-46968Y-48282D02*
X-36830D01*
X-48260Y-52070D02*
X-31750D01*
X-15240Y-58420D02*
X35560D01*
X-36830Y-48282D02*
X-30458D01*
X-16510Y-62230D01*
X38768Y46846D02*
X44990D01*
X-44760Y37133D02*
Y42740D01*
X-67310Y-33020D02*
X-48260Y-52070D01*
X-17780Y-66040D02*
X38100D01*
X-31750Y-52070D02*
X-17780Y-66040D01*
D26*
X12700Y53340D02*
X17944Y58584D01*
X-19984Y53340D02*
X12700D01*
X34290Y-32011D02*
X54030Y-12271D01*
X53340Y18686D02*
X54030Y17996D01*
Y-12271D02*
Y17996D01*
X16708Y2488D02*
X31420Y17200D01*
X53340D01*
X44038Y37688D02*
X53340Y28386D01*
Y18686D02*
Y28386D01*
X16208Y1620D02*
Y1891D01*
X16708Y2391D02*
Y2488D01*
X16208Y1891D02*
X16708Y2391D01*
X-10060Y14070D02*
X21590D01*
X-22860Y1270D02*
X-10060Y14070D01*
X-52070Y-29210D02*
Y14317D01*
X-40640Y25747D01*
Y41910D01*
X-26334Y46990D02*
X-19984Y53340D01*
X-35560Y46990D02*
X-26334D01*
X16701Y-21399D02*
X27593Y-10507D01*
X37177D01*
X34290Y-49530D02*
Y-32011D01*
X-52070Y-29210D02*
X-49530Y-31750D01*
X-40640Y41910D02*
X-35560Y46990D01*
X34019Y-49530D02*
X34290D01*
X30209Y-53340D02*
X34019Y-49530D01*
X-13970Y-53340D02*
X30209D01*
X-35560Y-31750D02*
X-13970Y-53340D01*
X-49530Y-31750D02*
X-35560D01*
X-191Y-21399D02*
X16701D01*
D27*
X-13970Y1270D02*
D03*
X-20320Y-22860D02*
D03*
X-43796Y-15350D02*
D03*
X-33020Y-13970D02*
D03*
X-60960Y-6350D02*
D03*
X-16510Y58420D02*
D03*
X21785Y54084D02*
D03*
X17944Y58584D02*
D03*
X34346Y49139D02*
D03*
X37311Y45113D02*
D03*
X40914Y41646D02*
D03*
X0Y38100D02*
D03*
X-35560D02*
D03*
X47926Y-35560D02*
D03*
X49530Y8715D02*
D03*
X13924Y6068D02*
D03*
X16208Y1620D02*
D03*
X21590Y14070D02*
D03*
X-49495Y34676D02*
D03*
X-54030Y28534D02*
D03*
X-45140Y37133D02*
D03*
X-27440Y53792D02*
D03*
X-23218Y56470D02*
D03*
X51290Y-31563D02*
D03*
X45000Y-39920D02*
D03*
X37177Y-10507D02*
D03*
X-60960Y1270D02*
D03*
X-39370Y-14660D02*
D03*
X-45166Y-37407D02*
D03*
X60960Y0D02*
D03*
X12693Y59697D02*
D03*
X-2540Y59690D02*
D03*
X-7620D02*
D03*
X2540Y58420D02*
D03*
X-24130Y10160D02*
D03*
X38100Y36830D02*
D03*
X-35560Y31670D02*
D03*
X-36830Y-48282D02*
D03*
X-31750Y-52070D02*
D03*
X-43180Y11430D02*
D03*
X44038Y37688D02*
D03*
X34290Y-49530D02*
D03*
X-35560Y26670D02*
D03*
X-40640Y41910D02*
D03*
X-22860Y21590D02*
D03*
Y1270D02*
D03*
X24130Y27940D02*
D03*
X19050Y22905D02*
D03*
X24130Y-24130D02*
D03*
X-191Y-21399D02*
D03*
X26670Y-30480D02*
D03*
X-16510Y-76200D02*
D03*
X-25400Y-73660D02*
D03*
X-34290Y-69850D02*
D03*
X-49530Y-31750D02*
D03*
M02*
