G04*
G04 #@! TF.GenerationSoftware,Altium Limited,Altium Designer,22.11.1 (43)*
G04*
G04 Layer_Color=16711935*
%FSLAX44Y44*%
%MOMM*%
G71*
G04*
G04 #@! TF.SameCoordinates,BDA14645-3F24-47FE-B4C7-F524B08D16E3*
G04*
G04*
G04 #@! TF.FilePolarity,Negative*
G04*
G01*
G75*
%ADD48R,0.8032X0.4032*%
%ADD49R,0.4032X0.8032*%
%ADD50R,1.2032X1.3032*%
%ADD51R,0.4020X0.4020*%
%ADD52R,0.4020X0.4020*%
%ADD53R,0.5020X0.5020*%
%ADD54R,0.7020X1.4020*%
%ADD55R,1.1020X1.7020*%
%ADD56R,0.2520X0.3520*%
%ADD57R,0.6120X0.6020*%
%ADD58R,0.3520X0.2520*%
G04:AMPARAMS|DCode=59|XSize=0.902mm|YSize=0.652mm|CornerRadius=0mm|HoleSize=0mm|Usage=FLASHONLY|Rotation=135.000|XOffset=0mm|YOffset=0mm|HoleType=Round|Shape=Rectangle|*
%AMROTATEDRECTD59*
4,1,4,0.5494,-0.0884,0.0884,-0.5494,-0.5494,0.0884,-0.0884,0.5494,0.5494,-0.0884,0.0*
%
%ADD59ROTATEDRECTD59*%

G04:AMPARAMS|DCode=60|XSize=0.902mm|YSize=0.652mm|CornerRadius=0mm|HoleSize=0mm|Usage=FLASHONLY|Rotation=225.000|XOffset=0mm|YOffset=0mm|HoleType=Round|Shape=Rectangle|*
%AMROTATEDRECTD60*
4,1,4,0.0884,0.5494,0.5494,0.0884,-0.0884,-0.5494,-0.5494,-0.0884,0.0884,0.5494,0.0*
%
%ADD60ROTATEDRECTD60*%

%ADD61C,0.7032*%
%ADD62R,0.3520X0.4020*%
G36*
X46360Y5503D02*
X46456Y5473D01*
X46545Y5426D01*
X46622Y5362D01*
X46686Y5285D01*
X46733Y5196D01*
X46763Y5100D01*
X46772Y5000D01*
Y2500D01*
X46763Y2400D01*
X46733Y2304D01*
X46686Y2215D01*
X46622Y2138D01*
X46545Y2074D01*
X46456Y2026D01*
X46360Y1997D01*
X46260Y1988D01*
X44926D01*
X44925Y1988D01*
X44825Y1997D01*
X44729Y2026D01*
X44641Y2074D01*
X44563Y2138D01*
X43698Y3003D01*
X43634Y3081D01*
X43587Y3169D01*
X43557Y3265D01*
X43548Y3365D01*
X43548Y3366D01*
Y5000D01*
X43557Y5100D01*
X43587Y5196D01*
X43634Y5285D01*
X43698Y5362D01*
X43775Y5426D01*
X43864Y5473D01*
X43960Y5503D01*
X44060Y5512D01*
X46260D01*
X46360Y5503D01*
D02*
G37*
G36*
X39860D02*
X39956Y5473D01*
X40045Y5426D01*
X40122Y5362D01*
X40186Y5285D01*
X40233Y5196D01*
X40263Y5100D01*
X40272Y5000D01*
Y3366D01*
X40272Y3365D01*
X40263Y3265D01*
X40233Y3169D01*
X40186Y3081D01*
X40122Y3003D01*
X39257Y2138D01*
X39179Y2074D01*
X39091Y2026D01*
X38995Y1997D01*
X38895Y1988D01*
X38894Y1988D01*
X37560D01*
X37460Y1997D01*
X37364Y2026D01*
X37275Y2074D01*
X37198Y2138D01*
X37134Y2215D01*
X37087Y2304D01*
X37057Y2400D01*
X37048Y2500D01*
Y5000D01*
X37057Y5100D01*
X37087Y5196D01*
X37134Y5285D01*
X37198Y5362D01*
X37275Y5426D01*
X37364Y5473D01*
X37460Y5503D01*
X37560Y5512D01*
X39760D01*
X39860Y5503D01*
D02*
G37*
G36*
X41062Y3058D02*
X42758D01*
X42859Y3048D01*
X42955Y3019D01*
X43043Y2972D01*
X43121Y2908D01*
X43121Y2908D01*
X45666Y362D01*
X45730Y285D01*
X45778Y196D01*
X45807Y100D01*
X45817Y-0D01*
X45808Y-91D01*
X45807Y-100D01*
X45778Y-196D01*
X45730Y-285D01*
X45666Y-362D01*
X45666Y-362D01*
X42272Y-3756D01*
X42195Y-3820D01*
X42106Y-3868D01*
X42010Y-3897D01*
X41910Y-3907D01*
X41810Y-3897D01*
X41714Y-3868D01*
X41625Y-3820D01*
X41583Y-3785D01*
X41548Y-3756D01*
X41547Y-3756D01*
X38154Y-362D01*
X38090Y-285D01*
X38042Y-196D01*
X38013Y-100D01*
X38003Y-0D01*
X38012Y91D01*
X38013Y100D01*
X38042Y196D01*
X38090Y285D01*
X38154Y362D01*
X38154Y362D01*
X40699Y2908D01*
X40777Y2972D01*
X40865Y3019D01*
X40961Y3048D01*
X41062Y3058D01*
X41062Y3058D01*
D02*
G37*
G36*
X44926Y-1988D02*
X46260D01*
X46360Y-1997D01*
X46456Y-2027D01*
X46545Y-2074D01*
X46622Y-2138D01*
X46686Y-2215D01*
X46733Y-2304D01*
X46763Y-2400D01*
X46772Y-2500D01*
Y-5000D01*
X46763Y-5100D01*
X46733Y-5196D01*
X46686Y-5285D01*
X46622Y-5362D01*
X46545Y-5426D01*
X46456Y-5473D01*
X46360Y-5503D01*
X46260Y-5512D01*
X44060D01*
X43960Y-5503D01*
X43864Y-5473D01*
X43775Y-5426D01*
X43698Y-5362D01*
X43634Y-5285D01*
X43587Y-5196D01*
X43557Y-5100D01*
X43548Y-5000D01*
Y-3366D01*
X43548Y-3365D01*
X43557Y-3265D01*
X43587Y-3169D01*
X43634Y-3081D01*
X43698Y-3003D01*
X44563Y-2138D01*
X44641Y-2074D01*
X44729Y-2027D01*
X44826Y-1997D01*
X44925Y-1988D01*
X44926Y-1988D01*
D02*
G37*
G36*
X38995Y-1997D02*
X39091Y-2027D01*
X39179Y-2074D01*
X39257Y-2138D01*
X40122Y-3003D01*
X40186Y-3081D01*
X40233Y-3169D01*
X40263Y-3265D01*
X40272Y-3365D01*
X40272Y-3366D01*
Y-5000D01*
X40263Y-5100D01*
X40233Y-5196D01*
X40186Y-5285D01*
X40122Y-5362D01*
X40045Y-5426D01*
X39956Y-5473D01*
X39860Y-5503D01*
X39760Y-5512D01*
X37560D01*
X37460Y-5503D01*
X37364Y-5473D01*
X37275Y-5426D01*
X37198Y-5362D01*
X37134Y-5285D01*
X37087Y-5196D01*
X37057Y-5100D01*
X37048Y-5000D01*
Y-2500D01*
X37057Y-2400D01*
X37087Y-2304D01*
X37134Y-2215D01*
X37198Y-2138D01*
X37275Y-2074D01*
X37364Y-2027D01*
X37460Y-1997D01*
X37560Y-1988D01*
X38894D01*
X38895Y-1988D01*
X38995Y-1997D01*
D02*
G37*
D48*
X-14000Y42000D02*
D03*
Y38000D02*
D03*
Y34000D02*
D03*
Y30000D02*
D03*
Y26000D02*
D03*
X14000Y26000D02*
D03*
Y30000D02*
D03*
Y34000D02*
D03*
Y38000D02*
D03*
Y42000D02*
D03*
D49*
X-8000Y20000D02*
D03*
X-4000D02*
D03*
X0D02*
D03*
X4000D02*
D03*
X8000D02*
D03*
X8000Y48000D02*
D03*
X4000D02*
D03*
X0D02*
D03*
X-4000D02*
D03*
X-8000D02*
D03*
D50*
X0Y34000D02*
D03*
D51*
X13970Y47340D02*
D03*
Y53340D02*
D03*
X-19050Y-56340D02*
D03*
Y-50340D02*
D03*
X-11430Y12700D02*
D03*
Y6700D02*
D03*
X21590Y7620D02*
D03*
Y1620D02*
D03*
X33020Y-3460D02*
D03*
Y2540D02*
D03*
X-19050Y16160D02*
D03*
Y10160D02*
D03*
X-31750Y2540D02*
D03*
Y8540D02*
D03*
X55880Y20320D02*
D03*
Y26320D02*
D03*
X-25400Y-56340D02*
D03*
Y-50340D02*
D03*
X-5080Y12350D02*
D03*
Y6350D02*
D03*
X-38100Y-3810D02*
D03*
Y2190D02*
D03*
X7620Y60610D02*
D03*
Y54610D02*
D03*
X27940Y8890D02*
D03*
Y14890D02*
D03*
X24130Y64770D02*
D03*
Y58770D02*
D03*
X1270Y7160D02*
D03*
Y13160D02*
D03*
D52*
X31750Y40640D02*
D03*
X25750D02*
D03*
X35560Y27940D02*
D03*
X29560D02*
D03*
X-12700Y46990D02*
D03*
X-18700D02*
D03*
Y53340D02*
D03*
X-12700D02*
D03*
X-47910Y21590D02*
D03*
X-41910D02*
D03*
X-25750Y34290D02*
D03*
X-31750D02*
D03*
X-30940Y15240D02*
D03*
X-24940D02*
D03*
X36830Y8890D02*
D03*
X42830D02*
D03*
X-51720Y-22860D02*
D03*
X-45720D02*
D03*
X49880Y3810D02*
D03*
X55880D02*
D03*
X31750Y35560D02*
D03*
X25750D02*
D03*
X35560Y21590D02*
D03*
X29560D02*
D03*
X48689Y33037D02*
D03*
X42689D02*
D03*
X-53800Y2540D02*
D03*
X-47800D02*
D03*
X27590Y46990D02*
D03*
X21590D02*
D03*
X-31750Y40640D02*
D03*
X-25750D02*
D03*
D53*
X40719Y22857D02*
D03*
X50721Y26860D02*
D03*
Y18860D02*
D03*
X-38179Y11432D02*
D03*
X-48181Y7430D02*
D03*
Y15430D02*
D03*
D54*
X25000Y-9500D02*
D03*
X15000D02*
D03*
X5000D02*
D03*
X-5000D02*
D03*
X-15000D02*
D03*
X-25000D02*
D03*
D55*
X37000Y-37000D02*
D03*
X-37000D02*
D03*
D56*
X-31750Y20320D02*
D03*
X-35750D02*
D03*
X-20510Y5080D02*
D03*
X-16510D02*
D03*
X33020Y15240D02*
D03*
X37020D02*
D03*
X-45910Y26670D02*
D03*
X-41910D02*
D03*
X-26480Y45720D02*
D03*
X-30480D02*
D03*
X-9970Y1270D02*
D03*
X-13970D02*
D03*
D57*
X-46990Y-6350D02*
D03*
Y-15350D02*
D03*
X46990Y-22970D02*
D03*
Y-13970D02*
D03*
D58*
X-53340Y-8890D02*
D03*
Y-12890D02*
D03*
X53340Y-16700D02*
D03*
Y-12700D02*
D03*
Y-23050D02*
D03*
Y-19050D02*
D03*
X11430Y1080D02*
D03*
Y5080D02*
D03*
D59*
X-41257Y-52709D02*
D03*
X-51439Y-42527D02*
D03*
X-47621Y-59073D02*
D03*
X-57803Y-48891D02*
D03*
X41257Y51439D02*
D03*
X51439Y41257D02*
D03*
X47621Y57803D02*
D03*
X57803Y47621D02*
D03*
D60*
X52709Y-42527D02*
D03*
X42527Y-52709D02*
D03*
X59073Y-48891D02*
D03*
X48891Y-59073D02*
D03*
X-51439Y41257D02*
D03*
X-41257Y51439D02*
D03*
X-57803Y47621D02*
D03*
X-47621Y57803D02*
D03*
D61*
X-11430Y-50800D02*
D03*
X-54610Y21590D02*
D03*
X-55880Y10160D02*
D03*
X-2222Y-50800D02*
D03*
X25400D02*
D03*
X16193D02*
D03*
X12700Y11430D02*
D03*
X6985Y-50800D02*
D03*
X14318Y18890D02*
D03*
X-29210Y26670D02*
D03*
D62*
X50410Y-5080D02*
D03*
X54610D02*
D03*
M02*
