G04*
G04 #@! TF.GenerationSoftware,Altium Limited,Altium Designer,22.11.1 (43)*
G04*
G04 Layer_Color=128*
%FSLAX44Y44*%
%MOMM*%
G71*
G04*
G04 #@! TF.SameCoordinates,BDA14645-3F24-47FE-B4C7-F524B08D16E3*
G04*
G04*
G04 #@! TF.FilePolarity,Positive*
G04*
G01*
G75*
%ADD65C,0.1270*%
D65*
X-14970Y1270D02*
X-12970D01*
X-13970Y270D02*
Y2270D01*
X-21320Y-22860D02*
X-19320D01*
X-20320Y-23860D02*
Y-21860D01*
X-44796Y-15350D02*
X-42796D01*
X-43796Y-16350D02*
Y-14350D01*
X-34020Y-13970D02*
X-32020D01*
X-33020Y-14970D02*
Y-12970D01*
X-61960Y-6350D02*
X-59960D01*
X-60960Y-7350D02*
Y-5350D01*
X-17510Y58420D02*
X-15510D01*
X-16510Y57420D02*
Y59420D01*
X20784Y54084D02*
X22785D01*
X21785Y53084D02*
Y55084D01*
X16944Y58584D02*
X18944D01*
X17944Y57584D02*
Y59584D01*
X33346Y49139D02*
X35346D01*
X34346Y48139D02*
Y50139D01*
X36311Y45113D02*
X38311D01*
X37311Y44113D02*
Y46113D01*
X39914Y41646D02*
X41914D01*
X40914Y40647D02*
Y42646D01*
X-1000Y38100D02*
X1000D01*
X0Y37100D02*
Y39100D01*
X-36560Y38100D02*
X-34560D01*
X-35560Y37100D02*
Y39100D01*
X46926Y-35560D02*
X48926D01*
X47926Y-36560D02*
Y-34560D01*
X48530Y8715D02*
X50530D01*
X49530Y7715D02*
Y9715D01*
X12924Y6068D02*
X14924D01*
X13924Y5068D02*
Y7068D01*
X15208Y1620D02*
X17208D01*
X16208Y620D02*
Y2620D01*
X20590Y14070D02*
X22590D01*
X21590Y13070D02*
Y15070D01*
X-50495Y34676D02*
X-48495D01*
X-49495Y33676D02*
Y35676D01*
X-55030Y28534D02*
X-53030D01*
X-54030Y27534D02*
Y29534D01*
X-46140Y37133D02*
X-44140D01*
X-45140Y36133D02*
Y38133D01*
X-28440Y53792D02*
X-26440D01*
X-27440Y52792D02*
Y54792D01*
X-24218Y56470D02*
X-22218D01*
X-23218Y55470D02*
Y57470D01*
X50290Y-31563D02*
X52290D01*
X51290Y-32563D02*
Y-30563D01*
X44000Y-39920D02*
X46000D01*
X45000Y-40920D02*
Y-38920D01*
X36177Y-10507D02*
X38177D01*
X37177Y-11507D02*
Y-9507D01*
X-61960Y1270D02*
X-59960D01*
X-60960Y270D02*
Y2270D01*
X-40370Y-14660D02*
X-38370D01*
X-39370Y-15660D02*
Y-13660D01*
X-46166Y-37407D02*
X-44166D01*
X-45166Y-38407D02*
Y-36407D01*
X59960Y0D02*
X61960D01*
X60960Y-1000D02*
Y1000D01*
X11693Y59697D02*
X13693D01*
X12693Y58697D02*
Y60697D01*
X-3540Y59690D02*
X-1540D01*
X-2540Y58690D02*
Y60690D01*
X-8620Y59690D02*
X-6620D01*
X-7620Y58690D02*
Y60690D01*
X1540Y58420D02*
X3540D01*
X2540Y57420D02*
Y59420D01*
X-25130Y10160D02*
X-23130D01*
X-24130Y9160D02*
Y11160D01*
X37100Y36830D02*
X39100D01*
X38100Y35830D02*
Y37830D01*
X-36560Y31670D02*
X-34560D01*
X-35560Y30670D02*
Y32670D01*
X-37830Y-48282D02*
X-35830D01*
X-36830Y-49282D02*
Y-47282D01*
X-32750Y-52070D02*
X-30750D01*
X-31750Y-53070D02*
Y-51070D01*
X-44180Y11430D02*
X-42180D01*
X-43180Y10430D02*
Y12430D01*
X43038Y37688D02*
X45038D01*
X44038Y36688D02*
Y38688D01*
X33290Y-49530D02*
X35290D01*
X34290Y-50530D02*
Y-48530D01*
X-36560Y26670D02*
X-34560D01*
X-35560Y25670D02*
Y27670D01*
X-41640Y41910D02*
X-39640D01*
X-40640Y40910D02*
Y42910D01*
X-23860Y21590D02*
X-21860D01*
X-22860Y20590D02*
Y22590D01*
X-23860Y1270D02*
X-21860D01*
X-22860Y270D02*
Y2270D01*
X23130Y27940D02*
X25130D01*
X24130Y26940D02*
Y28940D01*
X18050Y22905D02*
X20050D01*
X19050Y21905D02*
Y23905D01*
X23130Y-24130D02*
X25130D01*
X24130Y-25130D02*
Y-23130D01*
X-1191Y-21399D02*
X809D01*
X-191Y-22399D02*
Y-20399D01*
X25670Y-30480D02*
X27670D01*
X26670Y-31480D02*
Y-29480D01*
X-17510Y-76200D02*
X-15510D01*
X-16510Y-77200D02*
Y-75200D01*
X-26400Y-73660D02*
X-24400D01*
X-25400Y-74660D02*
Y-72660D01*
X-35290Y-69850D02*
X-33290D01*
X-34290Y-70850D02*
Y-68850D01*
X-50530Y-31750D02*
X-48530D01*
X-49530Y-32750D02*
Y-30750D01*
M02*
