G04*
G04 #@! TF.GenerationSoftware,Altium Limited,Altium Designer,22.11.1 (43)*
G04*
G04 Layer_Color=65535*
%FSLAX44Y44*%
%MOMM*%
G71*
G04*
G04 #@! TF.SameCoordinates,BDA14645-3F24-47FE-B4C7-F524B08D16E3*
G04*
G04*
G04 #@! TF.FilePolarity,Positive*
G04*
G01*
G75*
%ADD10C,0.2000*%
%ADD11C,0.1300*%
G36*
X-27Y-193D02*
Y-197D01*
Y-209D01*
Y-228D01*
Y-256D01*
X-31Y-291D01*
Y-326D01*
X-34Y-368D01*
X-38Y-415D01*
X-50Y-512D01*
X-66Y-613D01*
X-85Y-714D01*
X-116Y-804D01*
Y-808D01*
X-120Y-815D01*
X-124Y-827D01*
X-132Y-843D01*
X-155Y-881D01*
X-186Y-936D01*
X-229Y-994D01*
X-283Y-1056D01*
X-353Y-1115D01*
X-431Y-1173D01*
X-435D01*
X-443Y-1181D01*
X-454Y-1185D01*
X-474Y-1196D01*
X-493Y-1204D01*
X-520Y-1216D01*
X-555Y-1231D01*
X-590Y-1243D01*
X-629Y-1255D01*
X-676Y-1270D01*
X-722Y-1282D01*
X-777Y-1289D01*
X-893Y-1305D01*
X-1025Y-1313D01*
X-1060D01*
X-1084Y-1309D01*
X-1115D01*
X-1150Y-1305D01*
X-1189Y-1301D01*
X-1231Y-1297D01*
X-1325Y-1282D01*
X-1422Y-1262D01*
X-1523Y-1231D01*
X-1612Y-1192D01*
X-1616D01*
X-1624Y-1185D01*
X-1632Y-1181D01*
X-1647Y-1169D01*
X-1690Y-1142D01*
X-1737Y-1099D01*
X-1791Y-1049D01*
X-1842Y-990D01*
X-1892Y-916D01*
X-1935Y-835D01*
Y-831D01*
X-1939Y-823D01*
X-1943Y-811D01*
X-1950Y-792D01*
X-1958Y-769D01*
X-1966Y-738D01*
X-1974Y-703D01*
X-1981Y-664D01*
X-1993Y-621D01*
X-2001Y-574D01*
X-2009Y-520D01*
X-2016Y-466D01*
X-2024Y-403D01*
X-2028Y-337D01*
X-2032Y-267D01*
Y-193D01*
Y1283D01*
X-1694D01*
Y-193D01*
Y-197D01*
Y-209D01*
Y-225D01*
Y-248D01*
Y-275D01*
X-1690Y-306D01*
X-1686Y-380D01*
X-1678Y-458D01*
X-1671Y-539D01*
X-1655Y-617D01*
X-1647Y-652D01*
X-1636Y-683D01*
X-1632Y-691D01*
X-1624Y-710D01*
X-1608Y-738D01*
X-1585Y-773D01*
X-1558Y-811D01*
X-1519Y-854D01*
X-1476Y-893D01*
X-1422Y-928D01*
X-1414Y-932D01*
X-1395Y-940D01*
X-1364Y-955D01*
X-1321Y-967D01*
X-1266Y-982D01*
X-1204Y-998D01*
X-1134Y-1006D01*
X-1057Y-1010D01*
X-1022D01*
X-994Y-1006D01*
X-963D01*
X-928Y-1002D01*
X-851Y-990D01*
X-761Y-967D01*
X-676Y-940D01*
X-594Y-897D01*
X-555Y-874D01*
X-524Y-843D01*
Y-839D01*
X-516Y-835D01*
X-509Y-823D01*
X-501Y-808D01*
X-485Y-788D01*
X-474Y-765D01*
X-458Y-734D01*
X-443Y-699D01*
X-431Y-656D01*
X-415Y-609D01*
X-400Y-559D01*
X-388Y-497D01*
X-380Y-431D01*
X-373Y-361D01*
X-365Y-279D01*
Y-193D01*
Y1283D01*
X-27D01*
Y-193D01*
D02*
G37*
G36*
X1314Y1291D02*
X1345Y1287D01*
X1380Y1283D01*
X1419Y1279D01*
X1462Y1268D01*
X1555Y1244D01*
X1652Y1209D01*
X1703Y1186D01*
X1749Y1159D01*
X1792Y1124D01*
X1835Y1089D01*
X1839Y1085D01*
X1842Y1081D01*
X1854Y1069D01*
X1870Y1054D01*
X1885Y1031D01*
X1905Y1007D01*
X1944Y949D01*
X1982Y875D01*
X2017Y790D01*
X2045Y693D01*
X2049Y638D01*
X2052Y584D01*
Y576D01*
Y556D01*
X2049Y525D01*
X2045Y487D01*
X2037Y440D01*
X2025Y389D01*
X2010Y335D01*
X1986Y281D01*
X1982Y273D01*
X1975Y253D01*
X1959Y226D01*
X1936Y187D01*
X1909Y141D01*
X1874Y86D01*
X1827Y32D01*
X1777Y-30D01*
X1769Y-38D01*
X1749Y-61D01*
X1714Y-96D01*
X1691Y-120D01*
X1664Y-147D01*
X1633Y-178D01*
X1594Y-213D01*
X1555Y-248D01*
X1512Y-291D01*
X1466Y-333D01*
X1411Y-380D01*
X1357Y-427D01*
X1295Y-481D01*
X1291Y-485D01*
X1283Y-493D01*
X1267Y-504D01*
X1248Y-520D01*
X1201Y-559D01*
X1143Y-609D01*
X1085Y-664D01*
X1023Y-718D01*
X972Y-765D01*
X953Y-784D01*
X933Y-804D01*
X929Y-808D01*
X922Y-819D01*
X906Y-835D01*
X887Y-858D01*
X844Y-909D01*
X801Y-971D01*
X2056D01*
Y-1270D01*
X366D01*
Y-1266D01*
Y-1251D01*
Y-1227D01*
X370Y-1200D01*
X374Y-1169D01*
X377Y-1134D01*
X389Y-1095D01*
X401Y-1056D01*
Y-1052D01*
X405Y-1049D01*
X412Y-1025D01*
X428Y-994D01*
X451Y-947D01*
X479Y-897D01*
X517Y-839D01*
X556Y-780D01*
X607Y-718D01*
Y-714D01*
X615Y-710D01*
X634Y-687D01*
X665Y-652D01*
X712Y-606D01*
X770Y-551D01*
X840Y-485D01*
X925Y-411D01*
X1019Y-329D01*
X1023Y-326D01*
X1038Y-314D01*
X1058Y-298D01*
X1085Y-271D01*
X1120Y-244D01*
X1159Y-209D01*
X1244Y-135D01*
X1337Y-46D01*
X1431Y44D01*
X1477Y86D01*
X1516Y129D01*
X1551Y172D01*
X1582Y211D01*
Y214D01*
X1590Y218D01*
X1598Y230D01*
X1605Y246D01*
X1629Y284D01*
X1656Y335D01*
X1683Y393D01*
X1707Y455D01*
X1722Y525D01*
X1730Y591D01*
Y595D01*
Y599D01*
X1726Y623D01*
X1722Y658D01*
X1714Y700D01*
X1695Y751D01*
X1672Y801D01*
X1640Y856D01*
X1594Y906D01*
X1586Y910D01*
X1570Y926D01*
X1539Y945D01*
X1501Y972D01*
X1450Y996D01*
X1392Y1015D01*
X1322Y1031D01*
X1244Y1035D01*
X1221D01*
X1205Y1031D01*
X1166Y1027D01*
X1116Y1019D01*
X1058Y1000D01*
X995Y976D01*
X937Y941D01*
X883Y895D01*
X879Y887D01*
X863Y871D01*
X840Y840D01*
X817Y798D01*
X789Y743D01*
X770Y681D01*
X754Y607D01*
X747Y521D01*
X424Y556D01*
Y560D01*
Y572D01*
X428Y591D01*
X432Y615D01*
X440Y646D01*
X443Y681D01*
X467Y759D01*
X498Y848D01*
X541Y937D01*
X599Y1027D01*
X630Y1066D01*
X669Y1104D01*
X673Y1108D01*
X681Y1112D01*
X692Y1124D01*
X708Y1136D01*
X731Y1147D01*
X758Y1167D01*
X789Y1182D01*
X824Y1202D01*
X863Y1217D01*
X906Y1237D01*
X957Y1252D01*
X1007Y1264D01*
X1124Y1287D01*
X1186Y1291D01*
X1252Y1295D01*
X1287D01*
X1314Y1291D01*
D02*
G37*
D10*
X65002Y3D02*
G03*
X65002Y3I-65000J0D01*
G01*
D11*
X27619Y31459D02*
X31619Y27459D01*
X27619Y31459D02*
X31619D01*
Y27459D02*
Y31459D01*
M02*
