G04*
G04 #@! TF.GenerationSoftware,Altium Limited,Altium Designer,22.11.1 (43)*
G04*
G04 Layer_Color=128*
%FSLAX44Y44*%
%MOMM*%
G71*
G04*
G04 #@! TF.SameCoordinates,BDA14645-3F24-47FE-B4C7-F524B08D16E3*
G04*
G04*
G04 #@! TF.FilePolarity,Positive*
G04*
G01*
G75*
%ADD28R,0.6000X0.2000*%
%ADD29R,0.2000X0.6000*%
%ADD30R,1.0000X1.1000*%
%ADD31R,0.3000X0.3000*%
%ADD32R,0.3000X0.3000*%
%ADD33R,0.4000X0.4000*%
%ADD34R,0.6000X1.3000*%
%ADD35R,1.0000X1.6000*%
%ADD36R,0.1500X0.2500*%
%ADD37R,0.5100X0.5000*%
%ADD38R,0.2500X0.1500*%
G04:AMPARAMS|DCode=39|XSize=0.8mm|YSize=0.55mm|CornerRadius=0mm|HoleSize=0mm|Usage=FLASHONLY|Rotation=135.000|XOffset=0mm|YOffset=0mm|HoleType=Round|Shape=Rectangle|*
%AMROTATEDRECTD39*
4,1,4,0.4773,-0.0884,0.0884,-0.4773,-0.4773,0.0884,-0.0884,0.4773,0.4773,-0.0884,0.0*
%
%ADD39ROTATEDRECTD39*%

G04:AMPARAMS|DCode=40|XSize=0.8mm|YSize=0.55mm|CornerRadius=0mm|HoleSize=0mm|Usage=FLASHONLY|Rotation=225.000|XOffset=0mm|YOffset=0mm|HoleType=Round|Shape=Rectangle|*
%AMROTATEDRECTD40*
4,1,4,0.0884,0.4773,0.4773,0.0884,-0.0884,-0.4773,-0.4773,-0.0884,0.0884,0.4773,0.0*
%
%ADD40ROTATEDRECTD40*%

%ADD41C,0.5000*%
%ADD47R,0.2500X0.3000*%
G36*
X46260Y2500D02*
X44925D01*
X44060Y3365D01*
Y5000D01*
X46260D01*
Y2500D01*
D02*
G37*
G36*
X39760Y3365D02*
X38895Y2500D01*
X37560D01*
Y5000D01*
X39760D01*
Y3365D01*
D02*
G37*
G36*
X45304Y-0D02*
X41910Y-3394D01*
X38516Y-0D01*
X41062Y2546D01*
X42758D01*
X45304Y-0D01*
D02*
G37*
G36*
X46260Y-5000D02*
X44060D01*
Y-3365D01*
X44925Y-2500D01*
X46260D01*
Y-5000D01*
D02*
G37*
G36*
X39760Y-3365D02*
Y-5000D01*
X37560D01*
Y-2500D01*
X38895D01*
X39760Y-3365D01*
D02*
G37*
D28*
X-14000Y42000D02*
D03*
Y38000D02*
D03*
Y34000D02*
D03*
Y30000D02*
D03*
Y26000D02*
D03*
X14000Y26000D02*
D03*
Y30000D02*
D03*
Y34000D02*
D03*
Y38000D02*
D03*
Y42000D02*
D03*
D29*
X-8000Y20000D02*
D03*
X-4000D02*
D03*
X0D02*
D03*
X4000D02*
D03*
X8000D02*
D03*
X8000Y48000D02*
D03*
X4000D02*
D03*
X0D02*
D03*
X-4000D02*
D03*
X-8000D02*
D03*
D30*
X0Y34000D02*
D03*
D31*
X13970Y47340D02*
D03*
Y53340D02*
D03*
X-19050Y-56340D02*
D03*
Y-50340D02*
D03*
X-11430Y12700D02*
D03*
Y6700D02*
D03*
X21590Y7620D02*
D03*
Y1620D02*
D03*
X33020Y-3460D02*
D03*
Y2540D02*
D03*
X-19050Y16160D02*
D03*
Y10160D02*
D03*
X-31750Y2540D02*
D03*
Y8540D02*
D03*
X55880Y20320D02*
D03*
Y26320D02*
D03*
X-25400Y-56340D02*
D03*
Y-50340D02*
D03*
X-5080Y12350D02*
D03*
Y6350D02*
D03*
X-38100Y-3810D02*
D03*
Y2190D02*
D03*
X7620Y60610D02*
D03*
Y54610D02*
D03*
X27940Y8890D02*
D03*
Y14890D02*
D03*
X24130Y64770D02*
D03*
Y58770D02*
D03*
X1270Y7160D02*
D03*
Y13160D02*
D03*
D32*
X31750Y40640D02*
D03*
X25750D02*
D03*
X35560Y27940D02*
D03*
X29560D02*
D03*
X-12700Y46990D02*
D03*
X-18700D02*
D03*
Y53340D02*
D03*
X-12700D02*
D03*
X-47910Y21590D02*
D03*
X-41910D02*
D03*
X-25750Y34290D02*
D03*
X-31750D02*
D03*
X-30940Y15240D02*
D03*
X-24940D02*
D03*
X36830Y8890D02*
D03*
X42830D02*
D03*
X-51720Y-22860D02*
D03*
X-45720D02*
D03*
X49880Y3810D02*
D03*
X55880D02*
D03*
X31750Y35560D02*
D03*
X25750D02*
D03*
X35560Y21590D02*
D03*
X29560D02*
D03*
X48689Y33037D02*
D03*
X42689D02*
D03*
X-53800Y2540D02*
D03*
X-47800D02*
D03*
X27590Y46990D02*
D03*
X21590D02*
D03*
X-31750Y40640D02*
D03*
X-25750D02*
D03*
D33*
X40719Y22857D02*
D03*
X50721Y26860D02*
D03*
Y18860D02*
D03*
X-38179Y11432D02*
D03*
X-48181Y7430D02*
D03*
Y15430D02*
D03*
D34*
X25000Y-9500D02*
D03*
X15000D02*
D03*
X5000D02*
D03*
X-5000D02*
D03*
X-15000D02*
D03*
X-25000D02*
D03*
D35*
X37000Y-37000D02*
D03*
X-37000D02*
D03*
D36*
X-31750Y20320D02*
D03*
X-35750D02*
D03*
X-20510Y5080D02*
D03*
X-16510D02*
D03*
X33020Y15240D02*
D03*
X37020D02*
D03*
X-45910Y26670D02*
D03*
X-41910D02*
D03*
X-26480Y45720D02*
D03*
X-30480D02*
D03*
X-9970Y1270D02*
D03*
X-13970D02*
D03*
D37*
X-46990Y-6350D02*
D03*
Y-15350D02*
D03*
X46990Y-22970D02*
D03*
Y-13970D02*
D03*
D38*
X-53340Y-8890D02*
D03*
Y-12890D02*
D03*
X53340Y-16700D02*
D03*
Y-12700D02*
D03*
Y-23050D02*
D03*
Y-19050D02*
D03*
X11430Y1080D02*
D03*
Y5080D02*
D03*
D39*
X-41257Y-52709D02*
D03*
X-51439Y-42527D02*
D03*
X-47621Y-59073D02*
D03*
X-57803Y-48891D02*
D03*
X41257Y51439D02*
D03*
X51439Y41257D02*
D03*
X47621Y57803D02*
D03*
X57803Y47621D02*
D03*
D40*
X52709Y-42527D02*
D03*
X42527Y-52709D02*
D03*
X59073Y-48891D02*
D03*
X48891Y-59073D02*
D03*
X-51439Y41257D02*
D03*
X-41257Y51439D02*
D03*
X-57803Y47621D02*
D03*
X-47621Y57803D02*
D03*
D41*
X-11430Y-50800D02*
D03*
X-54610Y21590D02*
D03*
X-55880Y10160D02*
D03*
X-2222Y-50800D02*
D03*
X25400D02*
D03*
X16193D02*
D03*
X12700Y11430D02*
D03*
X6985Y-50800D02*
D03*
X14318Y18890D02*
D03*
X-29210Y26670D02*
D03*
D47*
X50410Y-5080D02*
D03*
X54610D02*
D03*
M02*
