G04*
G04 #@! TF.GenerationSoftware,Altium Limited,Altium Designer,22.11.1 (43)*
G04*
G04 Layer_Color=32768*
%FSLAX44Y44*%
%MOMM*%
G71*
G04*
G04 #@! TF.SameCoordinates,CE2BE6CF-A1CA-4722-B298-AB64FA6D62B8*
G04*
G04*
G04 #@! TF.FilePolarity,Positive*
G04*
G01*
G75*
%ADD12C,0.0500*%
%ADD14C,0.1000*%
%ADD69C,0.1000*%
%ADD70C,0.0500*%
%ADD71C,0.0300*%
%ADD72C,0.1500*%
%ADD73C,0.0200*%
D12*
X-12500Y-18000D02*
Y-6000D01*
X-24500Y-18000D02*
X-12500D01*
Y-6000D02*
X-11086Y-7414D01*
X-13914D02*
X-12500Y-6000D01*
X-24500Y-18000D02*
X-23086Y-16586D01*
X-24500Y-18000D02*
X-23086Y-19414D01*
D14*
X-29500Y25500D02*
X26500D01*
Y-22500D02*
Y25500D01*
X-29500Y-22500D02*
X26500D01*
X-29500D02*
Y25500D01*
D69*
X0Y0D02*
D03*
Y0D02*
D03*
X1250Y28500D02*
D03*
X-21367Y3633D02*
D03*
X-15500Y-36000D02*
D03*
X500Y55750D02*
D03*
X36247Y-17251D02*
D03*
X22250Y37751D02*
D03*
X-44250Y-39250D02*
D03*
X6500Y-38250D02*
D03*
X14750D02*
D03*
X-32250Y3000D02*
D03*
X-5250Y-36000D02*
D03*
X10250Y28750D02*
D03*
D70*
X21250Y-28000D02*
D03*
X-48250Y-23826D02*
D03*
X-39750Y-23826D02*
D03*
X-51000Y11000D02*
D03*
X-51000Y-3000D02*
D03*
X-41500Y250D02*
D03*
X-29250Y-18250D02*
D03*
X-28500Y-38500D02*
D03*
X35750Y40500D02*
D03*
X38500Y31500D02*
D03*
X29750Y-38750D02*
D03*
X-6500Y27750D02*
D03*
X49750Y-26000D02*
D03*
X29750Y-32500D02*
D03*
X21500Y21000D02*
D03*
Y27250D02*
D03*
X47000Y-16750D02*
D03*
X-22250Y-17000D02*
D03*
X36250Y-3000D02*
D03*
X-21750Y16250D02*
D03*
X26250Y-9000D02*
D03*
X21750Y-14500D02*
D03*
X26250Y-1500D02*
D03*
X11500Y42750D02*
D03*
X-2000Y-26750D02*
D03*
X46750Y-40250D02*
D03*
X-15000Y-29250D02*
D03*
X10250Y-31250D02*
D03*
X46500Y-46250D02*
D03*
X-16500Y-19000D02*
D03*
X52750Y-15500D02*
D03*
X50000Y-7750D02*
D03*
X51250Y14000D02*
D03*
X45250Y1000D02*
D03*
X32500Y33250D02*
D03*
X-51000Y4000D02*
D03*
X-41500Y13750D02*
D03*
X-12750Y27750D02*
D03*
X-19250D02*
D03*
D71*
X-31751Y-25898D02*
D03*
D72*
X0Y-62000D02*
D03*
D73*
X-22333Y-14133D02*
X-22499Y-14300D01*
Y-14633D01*
X-22333Y-14800D01*
X-22166D01*
X-21999Y-14633D01*
Y-14300D01*
X-21833Y-14133D01*
X-21666D01*
X-21500Y-14300D01*
Y-14633D01*
X-21666Y-14800D01*
X-22499Y-13800D02*
Y-13467D01*
Y-13634D01*
X-21500D01*
Y-13800D01*
Y-13467D01*
X-22499Y-12967D02*
Y-12301D01*
X-22333D01*
X-21666Y-12967D01*
X-21500D01*
Y-12301D01*
X-22499Y-11301D02*
Y-11968D01*
X-21500D01*
Y-11301D01*
X-21999Y-11968D02*
Y-11634D01*
X-21500Y-9468D02*
X-22499D01*
X-21999Y-9968D01*
Y-9302D01*
X-21500Y-8969D02*
X-21666D01*
Y-8802D01*
X-21500D01*
Y-8969D01*
X-22333Y-8135D02*
X-22499Y-7969D01*
Y-7636D01*
X-22333Y-7469D01*
X-22166D01*
X-21999Y-7636D01*
X-21833Y-7469D01*
X-21666D01*
X-21500Y-7636D01*
Y-7969D01*
X-21666Y-8135D01*
X-21833D01*
X-21999Y-7969D01*
X-22166Y-8135D01*
X-22333D01*
X-21999Y-7969D02*
Y-7636D01*
X-22333Y-7136D02*
X-21666Y-6469D01*
Y-7136D02*
X-22333Y-6469D01*
X-21999Y-7136D02*
Y-6469D01*
X-21666Y-6803D02*
X-22333D01*
X-22499Y-5470D02*
Y-6136D01*
X-21999D01*
X-22166Y-5803D01*
Y-5636D01*
X-21999Y-5470D01*
X-21666D01*
X-21500Y-5636D01*
Y-5969D01*
X-21666Y-6136D01*
X-21500Y-5137D02*
X-21666D01*
Y-4970D01*
X-21500D01*
Y-5137D01*
X-22499Y-3637D02*
X-22333Y-3970D01*
X-21999Y-4303D01*
X-21666D01*
X-21500Y-4137D01*
Y-3804D01*
X-21666Y-3637D01*
X-21833D01*
X-21999Y-3804D01*
Y-4303D01*
X-16666Y-14800D02*
X-15667D01*
Y-14300D01*
X-15833Y-14134D01*
X-16000D01*
X-16167Y-14300D01*
Y-14800D01*
Y-14300D01*
X-16333Y-14134D01*
X-16500D01*
X-16666Y-14300D01*
Y-14800D01*
Y-13134D02*
Y-13800D01*
X-16167D01*
Y-13467D01*
Y-13800D01*
X-15667D01*
X-16500Y-12801D02*
X-16666Y-12634D01*
Y-12301D01*
X-16500Y-12134D01*
X-16333D01*
X-16167Y-12301D01*
X-16000Y-12134D01*
X-15833D01*
X-15667Y-12301D01*
Y-12634D01*
X-15833Y-12801D01*
X-16000D01*
X-16167Y-12634D01*
X-16333Y-12801D01*
X-16500D01*
X-16167Y-12634D02*
Y-12301D01*
X-16500Y-11801D02*
X-16666Y-11634D01*
Y-11301D01*
X-16500Y-11135D01*
X-16333D01*
X-16167Y-11301D01*
Y-11468D01*
Y-11301D01*
X-16000Y-11135D01*
X-15833D01*
X-15667Y-11301D01*
Y-11634D01*
X-15833Y-11801D01*
X-15667Y-10801D02*
Y-10468D01*
Y-10635D01*
X-16666D01*
X-16500Y-10801D01*
X-15667Y-9968D02*
Y-9635D01*
Y-9802D01*
X-16666D01*
X-16500Y-9968D01*
X-15667Y-8469D02*
Y-9135D01*
X-16333Y-8469D01*
X-16500D01*
X-16666Y-8635D01*
Y-8969D01*
X-16500Y-9135D01*
X-16666Y-8135D02*
X-15667D01*
Y-7636D01*
X-15833Y-7469D01*
X-16500D01*
X-16666Y-7636D01*
Y-8135D01*
X-15500Y-7136D02*
Y-6469D01*
X-16666Y-6136D02*
Y-5470D01*
X-16500D01*
X-15833Y-6136D01*
X-15667D01*
Y-5137D02*
X-16333Y-4470D01*
X-16666Y-4137D02*
X-15667D01*
Y-3637D01*
X-15833Y-3470D01*
X-16500D01*
X-16666Y-3637D01*
Y-4137D01*
Y-3137D02*
X-15667D01*
X-16000Y-2804D01*
X-15667Y-2471D01*
X-16666D01*
Y-2138D02*
Y-1471D01*
X-16500D01*
X-15833Y-2138D01*
X-15667D01*
Y-138D02*
X-16666D01*
Y362D01*
X-16500Y528D01*
X-16167D01*
X-16000Y362D01*
Y-138D01*
X-16666Y861D02*
Y1195D01*
Y1028D01*
X-15667D01*
Y861D01*
Y1195D01*
X-16666Y1694D02*
X-15667Y2361D01*
X-16666D02*
X-15667Y1694D01*
X-16666Y3361D02*
Y2694D01*
X-15667D01*
Y3361D01*
X-16167Y2694D02*
Y3027D01*
X-16666Y3694D02*
X-15667D01*
Y4360D01*
Y5693D02*
X-16333D01*
X-16666Y6026D01*
X-16333Y6360D01*
X-15667D01*
X-16167D01*
Y5693D01*
X-15667Y6693D02*
X-16666D01*
Y7193D01*
X-16500Y7359D01*
X-16167D01*
X-16000Y7193D01*
Y6693D01*
Y7026D02*
X-15667Y7359D01*
X-16666Y8359D02*
Y7692D01*
X-15667D01*
Y8359D01*
X-16167Y7692D02*
Y8026D01*
X-15667Y8692D02*
X-16333D01*
X-16666Y9025D01*
X-16333Y9359D01*
X-15667D01*
X-16167D01*
Y8692D01*
X-16500Y10691D02*
X-16666Y10858D01*
Y11191D01*
X-16500Y11358D01*
X-15833D01*
X-15667Y11191D01*
Y10858D01*
X-15833Y10691D01*
X-16500D01*
X-15667Y11691D02*
X-15833D01*
Y11858D01*
X-15667D01*
Y11691D01*
X-16500Y12524D02*
X-16666Y12691D01*
Y13024D01*
X-16500Y13191D01*
X-15833D01*
X-15667Y13024D01*
Y12691D01*
X-15833Y12524D01*
X-16500D01*
Y13524D02*
X-16666Y13691D01*
Y14024D01*
X-16500Y14190D01*
X-15833D01*
X-15667Y14024D01*
Y13691D01*
X-15833Y13524D01*
X-16500D01*
X-15500Y14690D02*
X-15667Y14857D01*
X-15833D01*
Y14690D01*
X-15667D01*
Y14857D01*
X-15500Y14690D01*
X-15333Y14524D01*
X-16500Y15523D02*
X-16666Y15690D01*
Y16023D01*
X-16500Y16190D01*
X-15833D01*
X-15667Y16023D01*
Y15690D01*
X-15833Y15523D01*
X-16500D01*
X-15667Y16523D02*
X-15833D01*
Y16690D01*
X-15667D01*
Y16523D01*
Y18023D02*
Y17356D01*
X-16333Y18023D01*
X-16500D01*
X-16666Y17856D01*
Y17523D01*
X-16500Y17356D01*
Y18356D02*
X-16666Y18522D01*
Y18856D01*
X-16500Y19022D01*
X-15833D01*
X-15667Y18856D01*
Y18522D01*
X-15833Y18356D01*
X-16500D01*
X-19666Y-14799D02*
X-18667D01*
Y-14299D01*
X-18833Y-14133D01*
X-19000D01*
X-19167Y-14299D01*
Y-14799D01*
Y-14299D01*
X-19333Y-14133D01*
X-19500D01*
X-19666Y-14299D01*
Y-14799D01*
Y-13133D02*
Y-13800D01*
X-19167D01*
Y-13467D01*
Y-13800D01*
X-18667D01*
X-19500Y-12800D02*
X-19666Y-12633D01*
Y-12300D01*
X-19500Y-12134D01*
X-19333D01*
X-19167Y-12300D01*
X-19000Y-12134D01*
X-18833D01*
X-18667Y-12300D01*
Y-12633D01*
X-18833Y-12800D01*
X-19000D01*
X-19167Y-12633D01*
X-19333Y-12800D01*
X-19500D01*
X-19167Y-12633D02*
Y-12300D01*
X-19500Y-11800D02*
X-19666Y-11634D01*
Y-11300D01*
X-19500Y-11134D01*
X-19333D01*
X-19167Y-11300D01*
Y-11467D01*
Y-11300D01*
X-19000Y-11134D01*
X-18833D01*
X-18667Y-11300D01*
Y-11634D01*
X-18833Y-11800D01*
X-18667Y-10801D02*
Y-10467D01*
Y-10634D01*
X-19666D01*
X-19500Y-10801D01*
X-18667Y-9968D02*
Y-9634D01*
Y-9801D01*
X-19666D01*
X-19500Y-9968D01*
X-18667Y-8468D02*
Y-9135D01*
X-19333Y-8468D01*
X-19500D01*
X-19666Y-8635D01*
Y-8968D01*
X-19500Y-9135D01*
X-19666Y-7468D02*
Y-8135D01*
X-19167D01*
Y-7802D01*
Y-8135D01*
X-18667D01*
X-18500Y-7135D02*
Y-6469D01*
X-18667Y-5636D02*
X-19666D01*
X-19167Y-6136D01*
Y-5469D01*
X-18667Y-4136D02*
X-19666D01*
Y-3636D01*
X-19500Y-3470D01*
X-19167D01*
X-19000Y-3636D01*
Y-4136D01*
X-19666Y-3137D02*
Y-2803D01*
Y-2970D01*
X-18667D01*
Y-3137D01*
Y-2803D01*
X-19666Y-2304D02*
X-18667Y-1637D01*
X-19666D02*
X-18667Y-2304D01*
X-19666Y-637D02*
Y-1304D01*
X-18667D01*
Y-637D01*
X-19167Y-1304D02*
Y-971D01*
X-19666Y-304D02*
X-18667D01*
Y362D01*
Y1695D02*
X-19333D01*
X-19666Y2028D01*
X-19333Y2362D01*
X-18667D01*
X-19167D01*
Y1695D01*
X-18667Y2695D02*
X-19666D01*
Y3195D01*
X-19500Y3361D01*
X-19167D01*
X-19000Y3195D01*
Y2695D01*
Y3028D02*
X-18667Y3361D01*
X-19666Y4361D02*
Y3695D01*
X-18667D01*
Y4361D01*
X-19167Y3695D02*
Y4028D01*
X-18667Y4694D02*
X-19333D01*
X-19666Y5027D01*
X-19333Y5361D01*
X-18667D01*
X-19167D01*
Y4694D01*
X-19500Y6694D02*
X-19666Y6860D01*
Y7193D01*
X-19500Y7360D01*
X-18833D01*
X-18667Y7193D01*
Y6860D01*
X-18833Y6694D01*
X-19500D01*
X-18667Y7693D02*
X-18833D01*
Y7860D01*
X-18667D01*
Y7693D01*
Y8526D02*
Y8860D01*
Y8693D01*
X-19666D01*
X-19500Y8526D01*
X-19666Y10026D02*
Y9359D01*
X-19167D01*
X-19333Y9693D01*
Y9859D01*
X-19167Y10026D01*
X-18833D01*
X-18667Y9859D01*
Y9526D01*
X-18833Y9359D01*
X-18500Y10526D02*
X-18667Y10692D01*
X-18833D01*
Y10526D01*
X-18667D01*
Y10692D01*
X-18500Y10526D01*
X-18333Y10359D01*
X-19500Y11359D02*
X-19666Y11525D01*
Y11859D01*
X-19500Y12025D01*
X-18833D01*
X-18667Y11859D01*
Y11525D01*
X-18833Y11359D01*
X-19500D01*
X-18667Y12358D02*
X-18833D01*
Y12525D01*
X-18667D01*
Y12358D01*
Y13191D02*
Y13525D01*
Y13358D01*
X-19666D01*
X-19500Y13191D01*
X-19666Y14691D02*
Y14024D01*
X-19167D01*
X-19333Y14358D01*
Y14524D01*
X-19167Y14691D01*
X-18833D01*
X-18667Y14524D01*
Y14191D01*
X-18833Y14024D01*
X-10499Y-16919D02*
X-9499Y-16252D01*
X-10499D02*
X-9499Y-16919D01*
X-16499Y-20333D02*
X-16333D01*
X-15999Y-20000D01*
X-16333Y-19667D01*
X-16499D01*
X-15999Y-20000D02*
X-15500D01*
M02*
