G04*
G04 #@! TF.GenerationSoftware,Altium Limited,Altium Designer,22.11.1 (43)*
G04*
G04 Layer_Physical_Order=1*
G04 Layer_Color=255*
%FSLAX44Y44*%
%MOMM*%
G71*
G04*
G04 #@! TF.SameCoordinates,CE2BE6CF-A1CA-4722-B298-AB64FA6D62B8*
G04*
G04*
G04 #@! TF.FilePolarity,Positive*
G04*
G01*
G75*
%ADD14C,0.1000*%
%ADD15R,0.1500X0.2500*%
%ADD16R,1.0000X1.1000*%
%ADD17R,0.6000X0.2000*%
%ADD18R,0.2000X0.6000*%
%ADD19R,0.5000X0.5100*%
%ADD20R,0.3000X0.3000*%
%ADD21R,0.3000X0.3000*%
%ADD22C,0.4000*%
%ADD23R,0.3000X0.2300*%
%ADD24R,0.6000X1.8000*%
%ADD25R,0.5500X1.6000*%
%ADD26R,0.5500X1.1500*%
%ADD27C,0.5000*%
%ADD28R,0.4000X0.4000*%
%ADD29R,0.5100X0.5000*%
%ADD30R,0.2500X0.1500*%
%AMCUSTOMSHAPE47*
4,1,5,0.0849,0.2970,0.3394,0.0424,0.0000,-0.2970,-0.3394,0.0424,-0.0849,0.2970,0.0849,0.2970,0.0*%
%ADD47CUSTOMSHAPE47*%

%AMCUSTOMSHAPE48*
4,1,5,0.1100,0.1250,0.1100,-0.0385,0.0235,-0.1250,-0.1100,-0.1250,-0.1100,0.1250,0.1100,0.1250,0.0*%
%ADD48CUSTOMSHAPE48*%

%AMCUSTOMSHAPE49*
4,1,5,0.1100,0.1250,-0.0235,0.1250,-0.1100,0.0385,-0.1100,-0.1250,0.1100,-0.1250,0.1100,0.1250,0.0*%
%ADD49CUSTOMSHAPE49*%

%AMCUSTOMSHAPE50*
4,1,5,0.1100,0.1250,-0.1100,0.1250,-0.1100,-0.0385,-0.0235,-0.1250,0.1100,-0.1250,0.1100,0.1250,0.0*%
%ADD50CUSTOMSHAPE50*%

%AMCUSTOMSHAPE51*
4,1,5,0.0235,0.1250,0.1100,0.0385,0.1100,-0.1250,-0.1100,-0.1250,-0.1100,0.1250,0.0235,0.1250,0.0*%
%ADD51CUSTOMSHAPE51*%

%ADD52C,0.3810*%
%ADD53C,0.5000*%
%ADD54C,0.3000*%
%ADD55C,0.2000*%
%ADD56C,0.1500*%
G36*
X20000Y86000D02*
X27492Y85579D01*
X34891Y84322D01*
X42102Y82245D01*
X49035Y79373D01*
X55603Y75743D01*
X61723Y71400D01*
X67318Y66400D01*
X72319Y60805D01*
X76661Y54684D01*
X80291Y48116D01*
X83163Y41183D01*
X85240Y33972D01*
X86497Y26574D01*
X86918Y19082D01*
X86935D01*
Y-20918D01*
X86918D01*
X86497Y-28411D01*
X85240Y-35809D01*
X83163Y-43020D01*
X80291Y-49953D01*
X76661Y-56521D01*
X72319Y-62641D01*
X67318Y-68237D01*
X61723Y-73237D01*
X55603Y-77580D01*
X49035Y-81210D01*
X42102Y-84081D01*
X34891Y-86159D01*
X27492Y-87416D01*
X20000Y-87837D01*
Y-87853D01*
X-20000D01*
Y-87837D01*
X-27492Y-87416D01*
X-34891Y-86159D01*
X-42102Y-84081D01*
X-49035Y-81210D01*
X-55603Y-77580D01*
X-61723Y-73237D01*
X-67318Y-68237D01*
X-72319Y-62641D01*
X-76661Y-56521D01*
X-80291Y-49953D01*
X-83163Y-43020D01*
X-85240Y-35809D01*
X-86497Y-28411D01*
X-86918Y-20918D01*
X-86935D01*
Y19082D01*
X-86918D01*
X-86497Y26574D01*
X-85240Y33972D01*
X-83163Y41183D01*
X-80291Y48116D01*
X-76661Y54684D01*
X-72319Y60805D01*
X-67318Y66400D01*
X-61723Y71400D01*
X-55603Y75743D01*
X-49035Y79373D01*
X-42102Y82245D01*
X-34891Y84322D01*
X-27492Y85579D01*
X-20000Y86000D01*
X-20000Y86017D01*
X20000D01*
Y86000D01*
D02*
G37*
%LPC*%
G36*
Y74260D02*
Y74147D01*
X-20000D01*
Y74260D01*
X-27202Y73788D01*
X-34281Y72380D01*
X-41116Y70060D01*
X-47589Y66867D01*
X-53590Y62857D01*
X-59017Y58099D01*
X-63776Y52672D01*
X-67786Y46671D01*
X-70978Y40198D01*
X-73298Y33363D01*
X-74706Y26284D01*
X-75178Y19082D01*
X-75065D01*
Y-20918D01*
X-75065Y-20918D01*
X-75178D01*
X-74706Y-28121D01*
X-73298Y-35199D01*
X-70978Y-42034D01*
X-67786Y-48507D01*
X-63776Y-54509D01*
X-59017Y-59935D01*
X-53590Y-64694D01*
X-49211Y-67621D01*
Y-78465D01*
X-49191Y-78511D01*
X-49176Y-78552D01*
X-49178Y-78556D01*
X-48056Y-79177D01*
X-41356Y-81951D01*
X-34389Y-83959D01*
X-27240Y-85173D01*
X-20000Y-85580D01*
Y-85483D01*
X20000D01*
X20000Y-85580D01*
X27240Y-85173D01*
X34389Y-83959D01*
X41357Y-81951D01*
X48056Y-79177D01*
X52286Y-76839D01*
X52286D01*
X52296Y-76830D01*
X52315Y-76784D01*
X52315Y-76784D01*
X52315Y-75664D01*
Y-65546D01*
X53590Y-64694D01*
X59017Y-59935D01*
X63776Y-54509D01*
X67786Y-48507D01*
X70978Y-42034D01*
X73298Y-35199D01*
X74706Y-28121D01*
X75178Y-20918D01*
X75065D01*
X75065Y-20918D01*
Y19082D01*
X75178D01*
X74706Y26284D01*
X73298Y33363D01*
X70978Y40198D01*
X67786Y46671D01*
X63776Y52672D01*
X59017Y58099D01*
X53590Y62857D01*
X47589Y66867D01*
X41116Y70060D01*
X34281Y72380D01*
X27202Y73788D01*
X20000Y74260D01*
D02*
G37*
G36*
X69816Y-62639D02*
X69766Y-62640D01*
X69759Y-62644D01*
X69725Y-62680D01*
X69727Y-62730D01*
X69763Y-62764D01*
X69813Y-62762D01*
X69820Y-62759D01*
X69854Y-62722D01*
X69852Y-62672D01*
X69816Y-62639D01*
D02*
G37*
%LPD*%
D14*
X57000Y-4311D02*
G03*
X57500Y-2250I-4000J2061D01*
G01*
X58450Y-11521D02*
G03*
X57000Y-10718I-2121J-2121D01*
G01*
X58456Y-11527D02*
G03*
X57000Y-10718I-2128J-2115D01*
G01*
X55000Y17392D02*
G03*
X54078Y18828I-3750J-1392D01*
G01*
X55250Y16000D02*
G03*
X55000Y17392I-4000J0D01*
G01*
X55250Y12000D02*
G03*
X55000Y13392I-4000J0D01*
G01*
Y14608D02*
G03*
X55250Y16000I-3750J1392D01*
G01*
X55000Y10608D02*
G03*
X55250Y12000I-3750J1392D01*
G01*
X54078Y9172D02*
G03*
X55000Y10608I-2828J2828D01*
G01*
X57500Y-2250D02*
G03*
X49000Y-189I-4500J0D01*
G01*
X42750Y44300D02*
G03*
X41500Y44500I-1250J-3800D01*
G01*
X42750Y44300D02*
G03*
X41500Y44500I-1250J-3800D01*
G01*
X49000Y37500D02*
G03*
X45871Y41786I-4500J0D01*
G01*
X42500Y33469D02*
G03*
X49000Y37500I2000J4031D01*
G01*
X44328Y43328D02*
G03*
X42750Y44300I-2828J-2828D01*
G01*
X44334Y43323D02*
G03*
X42750Y44300I-2833J-2823D01*
G01*
X32619Y44874D02*
G03*
X30497Y45753I-2121J-2121D01*
G01*
X32625Y44867D02*
G03*
X30497Y45753I-2128J-2115D01*
G01*
X52833Y20073D02*
G03*
X50000Y21250I-2833J-2823D01*
G01*
X52828Y20078D02*
G03*
X50000Y21250I-2828J-2828D01*
G01*
X49550Y6250D02*
G03*
X52333Y7427I-50J4000D01*
G01*
X49550Y6250D02*
G03*
X52328Y7422I-50J4000D01*
G01*
X38138Y21941D02*
G03*
X36493Y22250I-1638J-4191D01*
G01*
X10378Y51115D02*
G03*
X8312Y51999I-2128J-2115D01*
G01*
X10371Y51121D02*
G03*
X8312Y51999I-2121J-2121D01*
G01*
D02*
G03*
X7397Y45611I-3562J-2749D01*
G01*
X13750Y32321D02*
G03*
X5690Y30800I-3500J-3571D01*
G01*
X5690D02*
G03*
X-3744Y28750I-4440J-2300D01*
G01*
X104Y4771D02*
G03*
X2465Y4000I2361J3229D01*
G01*
X-2257D02*
G03*
X104Y4771I0J4000D01*
G01*
X104D02*
G03*
X2465Y4000I2361J3229D01*
G01*
X-2257D02*
G03*
X104Y4771I0J4000D01*
G01*
X49000Y1608D02*
G03*
X49250Y3000I-3750J1392D01*
G01*
X47582Y-250D02*
G03*
X49000Y1608I-2332J3250D01*
G01*
X41500D02*
G03*
X42918Y-250I3750J1392D01*
G01*
X41250Y3000D02*
G03*
X41500Y1608I4000J0D01*
G01*
X42918Y-250D02*
G03*
X47582Y-250I2332J3250D01*
G01*
X48969D02*
G03*
X48757Y-3750I4031J-2000D01*
G01*
X32250Y-3443D02*
G03*
X34286Y-4000I2035J3443D01*
G01*
X31452Y-2823D02*
G03*
X32250Y-3443I2833J2823D01*
G01*
X31457Y-2828D02*
G03*
X32250Y-3443I2828J2828D01*
G01*
D02*
G03*
X34286Y-4000I2035J3443D01*
G01*
X7631Y-6823D02*
G03*
X8500Y-7484I2833J2823D01*
G01*
X7636Y-6828D02*
G03*
X8500Y-7484I2828J2828D01*
G01*
X4250Y-1786D02*
G03*
X5427Y-4619I4000J0D01*
G01*
X4250Y-1786D02*
G03*
X5422Y-4614I4000J0D01*
G01*
X60500Y-14813D02*
G03*
X59615Y-12686I-3000J0D01*
G01*
X60500Y-14813D02*
G03*
X59621Y-12692I-3000J0D01*
G01*
Y-23371D02*
G03*
X60500Y-21250I-2121J2121D01*
G01*
X59615Y-23378D02*
G03*
X60500Y-21250I-2115J2128D01*
G01*
X51595Y-36250D02*
G03*
X49442Y-35856I-1845J-4000D01*
G01*
Y-35856D02*
G03*
X51250Y-32250I-2692J3606D01*
G01*
D02*
G03*
X50750Y-30189I-4500J0D01*
G01*
X42750Y-30188D02*
G03*
X45750Y-36637I4000J-2062D01*
G01*
X54155Y-40250D02*
G03*
X53750Y-38405I-4405J0D01*
G01*
X45750D02*
G03*
X45345Y-40250I4000J-1845D01*
G01*
X53987Y-47206D02*
G03*
X54155Y-46000I-4237J1206D01*
G01*
X53987Y-47206D02*
G03*
X54155Y-46000I-4237J1206D01*
G01*
X48648Y-54326D02*
G03*
X53579Y-56369I3852J2326D01*
G01*
X45095Y-48949D02*
G03*
X46385Y-52063I4405J0D01*
G01*
X45095Y-48949D02*
G03*
X46385Y-52063I4405J0D01*
G01*
X27747Y-22757D02*
G03*
X23677Y-28500I253J-4493D01*
G01*
X5929Y-22168D02*
G03*
X9250Y-24687I4071J1918D01*
G01*
X23250Y-28000D02*
G03*
X22500Y-25668I-4000J0D01*
G01*
X23250Y-28000D02*
G03*
X22500Y-25668I-4000J0D01*
G01*
X-924Y-24119D02*
G03*
X5929Y-22168I2674J3619D01*
G01*
X-2578Y-24834D02*
G03*
X-924Y-24119I-922J4405D01*
G01*
X25250Y-38750D02*
G03*
X24647Y-36500I-4500J0D01*
G01*
X45345Y-44787D02*
G03*
X45095Y-46250I4155J-1463D01*
G01*
X45345Y-44787D02*
G03*
X45095Y-46250I4155J-1463D01*
G01*
X4756Y-32635D02*
G03*
X2629Y-31750I-2128J-2115D01*
G01*
X4750Y-32629D02*
G03*
X2629Y-31750I-2121J-2121D01*
G01*
X20250Y-43222D02*
G03*
X25250Y-38750I500J4472D01*
G01*
X10300Y-35000D02*
G03*
X9000Y-33920I-3800J-3250D01*
G01*
D02*
G03*
X5477Y-33356I-2500J-4330D01*
G01*
X-4000Y41250D02*
G03*
X-12983Y41637I-4500J0D01*
G01*
X-10767Y37363D02*
G03*
X-4000Y41250I2267J3887D01*
G01*
X-12983Y41637D02*
G03*
X-19494Y39247I-2267J-3887D01*
G01*
X-22396Y39250D02*
G03*
X-29181Y33338I-3354J-3000D01*
G01*
X-11896Y34750D02*
G03*
X-10767Y37363I-3354J3000D01*
G01*
X-5172Y-5071D02*
G03*
X-4000Y-2243I-2828J2828D01*
G01*
X-5177Y-5076D02*
G03*
X-4000Y-2243I-2823J2833D01*
G01*
X-29181Y33338D02*
G03*
X-23250Y26853I3681J-2588D01*
G01*
X-26646Y12250D02*
G03*
X-25171Y6878I4146J-1750D01*
G01*
D02*
G03*
X-26276Y2683I3803J-3246D01*
G01*
X-27300Y3707D02*
G03*
X-34884Y7250I-4950J-707D01*
G01*
X-31000Y24000D02*
G03*
X-39053Y26761I-4500J0D01*
G01*
X-36947Y19739D02*
G03*
X-31000Y24000I1447J4261D01*
G01*
X-39053Y26761D02*
G03*
X-36947Y19739I-1447J-4261D01*
G01*
X-35557Y-750D02*
G03*
X-32957Y-1950I3307J3750D01*
G01*
X-55000Y-1873D02*
G03*
X-53172Y-828I-1000J3873D01*
G01*
X-58000Y5860D02*
G03*
X-59778Y4828I1050J-3860D01*
G01*
X-58000Y5860D02*
G03*
X-59783Y4823I1050J-3860D01*
G01*
X-61823Y2783D02*
G03*
X-63000Y-50I2823J-2833D01*
G01*
X-55000Y-1873D02*
G03*
X-53167Y-823I-1000J3873D01*
G01*
X-61828Y2778D02*
G03*
X-63000Y-50I2828J-2828D01*
G01*
X-8500Y-7797D02*
G03*
X-6929Y-6828I-1257J3797D01*
G01*
X-8500Y-7797D02*
G03*
X-6924Y-6823I-1257J3797D01*
G01*
X-11500Y-16127D02*
G03*
X-14314Y-17650I595J-4460D01*
G01*
X-14314Y-17650D02*
G03*
X-17892Y-17250I-2186J-3350D01*
G01*
X-13750Y-26314D02*
G03*
X-12904Y-27994I2967J441D01*
G01*
X-13750Y-26314D02*
G03*
X-12897Y-28001I2967J441D01*
G01*
X-12790Y-31798D02*
G03*
X-13750Y-31316I-2710J-4202D01*
G01*
X-16750Y-25250D02*
G03*
X-14104Y-24250I0J4000D01*
G01*
X-16750Y-25250D02*
G03*
X-14104Y-24250I0J4000D01*
G01*
X-20250Y-33168D02*
G03*
X-20112Y-34068I3000J0D01*
G01*
X-20250Y-33168D02*
G03*
X-20112Y-34068I3000J0D01*
G01*
D02*
G03*
X-18500Y-40000I4612J-1932D01*
G01*
X-34078Y-7171D02*
G03*
X-35250Y-10000I2828J-2828D01*
G01*
X-34073Y-7167D02*
G03*
X-35250Y-10000I2823J-2833D01*
G01*
X-26574Y-18668D02*
G03*
X-27751Y-21501I2823J-2833D01*
G01*
X-26580Y-18673D02*
G03*
X-27751Y-21501I2828J-2828D01*
G01*
X-27752Y-30812D02*
G03*
X-20250Y-31578I4000J2061D01*
G01*
X-28000Y-20582D02*
G03*
X-27250Y-18250I-3250J2332D01*
G01*
X-28000Y-20582D02*
G03*
X-27250Y-18250I-3250J2332D01*
G01*
X-27714Y-33011D02*
G03*
X-27995Y-31448I-4500J0D01*
G01*
X-27968Y-34500D02*
G03*
X-27714Y-33011I-4247J1489D01*
G01*
X-31356Y-23687D02*
G03*
X-30242Y-22899I-1720J3611D01*
G01*
X-29967Y-24147D02*
G03*
X-31356Y-23687I-1932J-3503D01*
G01*
D02*
G03*
X-30247Y-22904I-1720J3611D01*
G01*
X-29967Y-24147D02*
G03*
X-31356Y-23687I-1932J-3503D01*
G01*
X-21000Y-39000D02*
G03*
X-21500Y-37064I-4000J0D01*
G01*
X-21000Y-39000D02*
G03*
X-21500Y-37064I-4000J0D01*
G01*
X-37700Y-6750D02*
G03*
X-37500Y-5500I-3800J1250D01*
G01*
X-37700Y-6750D02*
G03*
X-37500Y-5500I-3800J1250D01*
G01*
X-48317Y-7000D02*
G03*
X-48693Y-8693I3624J-1693D01*
G01*
X-48317Y-7000D02*
G03*
X-48693Y-8693I3624J-1693D01*
G01*
X-35693Y-10557D02*
G03*
X-37717Y-6799I-4500J0D01*
G01*
X-48693Y-12831D02*
G03*
X-48516Y-14007I4000J0D01*
G01*
X-48693Y-12831D02*
G03*
X-48516Y-14007I4000J0D01*
G01*
X-39701Y-15030D02*
G03*
X-35693Y-10557I-492J4473D01*
G01*
X-36500Y-16076D02*
G03*
X-37943Y-16345I0J-4000D01*
G01*
X-48516Y-14008D02*
G03*
X-39702Y-15030I4494J235D01*
G01*
X-63000Y-18025D02*
G03*
X-61823Y-20859I4000J0D01*
G01*
X-63000Y-18025D02*
G03*
X-61828Y-20854I4000J0D01*
G01*
X-46749Y-30826D02*
G03*
X-45828Y-32260I3749J1394D01*
G01*
X-46749Y-30826D02*
G03*
X-45823Y-32265I3749J1394D01*
G01*
X-52250Y-30260D02*
G03*
X-50200Y-30826I2050J3435D01*
G01*
X-53033Y-29649D02*
G03*
X-52250Y-30260I2833J2823D01*
G01*
X-53028Y-29654D02*
G03*
X-52250Y-30260I2828J2828D01*
G01*
D02*
G03*
X-50200Y-30826I2050J3435D01*
G01*
X-43820Y-34269D02*
G03*
X-45260Y-44147I-430J-4981D01*
G01*
X-42047Y-47360D02*
G03*
X-39219Y-48531I2828J2828D01*
G01*
X-42052Y-47355D02*
G03*
X-39219Y-48531I2833J2823D01*
G01*
X48793Y38849D02*
X65390D01*
X48760Y38949D02*
X65341D01*
X48823Y38749D02*
X65440D01*
X48687Y39149D02*
X65243D01*
X48646Y39249D02*
X65193D01*
X48725Y39049D02*
X65292D01*
X62919Y43861D02*
X65786Y38047D01*
X48919Y38349D02*
X65637D01*
X48937Y38249D02*
X65686D01*
X48876Y38549D02*
X65538D01*
X48851Y38649D02*
X65489D01*
X48899Y38449D02*
X65588D01*
X48275Y39949D02*
X64848D01*
X48208Y40049D02*
X64799D01*
X48338Y39849D02*
X64897D01*
X48063Y40249D02*
X64700D01*
X47983Y40349D02*
X64651D01*
X48138Y40149D02*
X64749D01*
X48556Y39449D02*
X65094D01*
X48506Y39549D02*
X65045D01*
X48603Y39349D02*
X65144D01*
X48398Y39749D02*
X64947D01*
X48454Y39649D02*
X64996D01*
X48998Y37649D02*
X65921D01*
X48993Y37749D02*
X65887D01*
X49000Y37549D02*
X65955D01*
X48977Y37949D02*
X65819D01*
X48966Y38049D02*
X65785D01*
X48986Y37849D02*
X65853D01*
X48993Y37249D02*
X66057D01*
X48986Y37149D02*
X66091D01*
X48977Y37049D02*
X66125D01*
X49000Y37449D02*
X65989D01*
X48998Y37349D02*
X66023D01*
X48937Y36749D02*
X66227D01*
X48919Y36649D02*
X66260D01*
X48898Y36549D02*
X66294D01*
X48966Y36949D02*
X66159D01*
X48953Y38149D02*
X65736D01*
X48953Y36849D02*
X66193D01*
X48823Y36249D02*
X66396D01*
X48792Y36149D02*
X66430D01*
X48760Y36049D02*
X66464D01*
X48875Y36449D02*
X66328D01*
X48850Y36349D02*
X66362D01*
X44408Y43249D02*
X63221D01*
X44308Y43349D02*
X63171D01*
X44508Y43149D02*
X63270D01*
X55043Y54125D02*
X59317Y49251D01*
X50169Y58399D02*
X55043Y54125D01*
X59317Y49251D02*
X62919Y43861D01*
X44908Y42749D02*
X63467D01*
X44808Y42849D02*
X63418D01*
X45008Y42649D02*
X63517D01*
X44608Y43049D02*
X63319D01*
X44708Y42949D02*
X63369D01*
X43345Y44049D02*
X62793D01*
X43139Y44149D02*
X62726D01*
X43526Y43949D02*
X62860D01*
X42750Y44349D02*
X62593D01*
X42750Y44449D02*
X62526D01*
X42895Y44249D02*
X62660D01*
X44089Y43549D02*
X63073D01*
X43967Y43649D02*
X63023D01*
X44202Y43449D02*
X63122D01*
X43687Y43849D02*
X62925D01*
X43833Y43749D02*
X62974D01*
X47267Y41049D02*
X64306D01*
X47133Y41149D02*
X64256D01*
X47390Y40949D02*
X64355D01*
X46831Y41349D02*
X64158D01*
X46658Y41449D02*
X64108D01*
X46989Y41249D02*
X64207D01*
X47810Y40549D02*
X64552D01*
X47715Y40649D02*
X64503D01*
X47899Y40449D02*
X64601D01*
X47506Y40849D02*
X64404D01*
X47614Y40749D02*
X64453D01*
X45508Y42149D02*
X63763D01*
X45408Y42249D02*
X63714D01*
X45608Y42049D02*
X63812D01*
X45208Y42449D02*
X63615D01*
X45108Y42549D02*
X63566D01*
X45308Y42349D02*
X63664D01*
X46242Y41649D02*
X64010D01*
X45982Y41749D02*
X63960D01*
X46464Y41549D02*
X64059D01*
X45708Y41949D02*
X63862D01*
X45808Y41849D02*
X63911D01*
X49550Y22049D02*
X69364D01*
X49550Y22149D02*
X69357D01*
X49550Y21949D02*
X69370D01*
X67870Y31909D02*
X69134Y25550D01*
X49550Y22349D02*
X69344D01*
X49550Y22249D02*
X69351D01*
X69134Y25550D02*
X69533Y19464D01*
X49550Y21649D02*
X69390D01*
X49550Y21549D02*
X69397D01*
X49550Y21849D02*
X69377D01*
X49550Y21749D02*
X69384D01*
X49550Y23049D02*
X69298D01*
X49550Y23149D02*
X69292D01*
X49550Y22949D02*
X69305D01*
X42500Y27949D02*
X68657D01*
X42500Y31649D02*
X67921D01*
X49550Y23249D02*
X69285D01*
X49550Y22549D02*
X69331D01*
X49550Y22649D02*
X69325D01*
X49550Y22449D02*
X69338D01*
X49550Y22849D02*
X69311D01*
X49550Y22749D02*
X69318D01*
X52958Y19949D02*
X69502D01*
X52858Y20049D02*
X69495D01*
X53058Y19849D02*
X69508D01*
X52647Y20249D02*
X69482D01*
X52529Y20349D02*
X69475D01*
X52756Y20149D02*
X69488D01*
X53358Y19549D02*
X69528D01*
X53258Y19649D02*
X69521D01*
X53458Y19449D02*
X69530D01*
X53158Y19749D02*
X69515D01*
X53558Y19349D02*
X69510D01*
X51252Y21049D02*
X69429D01*
X50893Y21149D02*
X69423D01*
X51522Y20949D02*
X69436D01*
X49550Y21349D02*
X69410D01*
X49550Y21449D02*
X69403D01*
X50089Y21249D02*
X69416D01*
X52262Y20549D02*
X69462D01*
X52109Y20649D02*
X69456D01*
X52401Y20449D02*
X69469D01*
X51746Y20849D02*
X69443D01*
X51938Y20749D02*
X69449D01*
X48602Y35649D02*
X66600D01*
X48555Y35549D02*
X66634D01*
X48505Y35449D02*
X66668D01*
X48724Y35949D02*
X66498D01*
X48686Y35849D02*
X66532D01*
X48645Y35749D02*
X66566D01*
X65786Y38047D02*
X67870Y31909D01*
X48337Y35149D02*
X66770D01*
X48274Y35049D02*
X66804D01*
X48453Y35349D02*
X66702D01*
X48397Y35249D02*
X66736D01*
X47982Y34649D02*
X66939D01*
X47897Y34549D02*
X66973D01*
X47808Y34449D02*
X67007D01*
X48207Y34949D02*
X66838D01*
X48136Y34849D02*
X66872D01*
X48061Y34749D02*
X66905D01*
X47503Y34149D02*
X67109D01*
X47388Y34049D02*
X67143D01*
X47264Y33949D02*
X67177D01*
X47713Y34349D02*
X67041D01*
X47611Y34249D02*
X67075D01*
X46654Y33549D02*
X67313D01*
X46459Y33449D02*
X67347D01*
X46238Y33349D02*
X67381D01*
X47131Y33849D02*
X67211D01*
X46986Y33749D02*
X67245D01*
X46828Y33649D02*
X67279D01*
X45648Y33149D02*
X67449D01*
X45162Y33049D02*
X67483D01*
X42500Y31749D02*
X67901D01*
X45976Y33249D02*
X67415D01*
X52833Y20073D02*
X53657Y19250D01*
X42500Y32549D02*
X67652D01*
X42500Y32649D02*
X67618D01*
X42500Y32449D02*
X67686D01*
X42500Y32849D02*
X67550D01*
X42500Y32949D02*
X67516D01*
X42500Y32749D02*
X67584D01*
X42500Y31949D02*
X67856D01*
X42500Y32049D02*
X67822D01*
X42500Y31849D02*
X67881D01*
X42500Y32349D02*
X67720D01*
X42500Y32149D02*
X67788D01*
X15500Y47849D02*
X60254D01*
X15500Y47949D02*
X60187D01*
X15500Y47749D02*
X60321D01*
X15500Y48149D02*
X60054D01*
X15500Y48249D02*
X59987D01*
X15500Y48049D02*
X60121D01*
X15500Y47349D02*
X60588D01*
X15500Y47449D02*
X60521D01*
X26753Y47249D02*
X60655D01*
X15500Y47649D02*
X60388D01*
X15500Y47549D02*
X60455D01*
X15500Y48949D02*
X59519D01*
X15500Y49049D02*
X59452D01*
X15500Y48849D02*
X59586D01*
X15500Y49249D02*
X59319D01*
X15500Y49349D02*
X59231D01*
X15500Y49149D02*
X59385D01*
X15500Y48449D02*
X59853D01*
X15500Y48549D02*
X59786D01*
X15500Y48349D02*
X59920D01*
X15500Y48749D02*
X59653D01*
X15500Y48649D02*
X59720D01*
X31279Y45649D02*
X61724D01*
X30644Y45749D02*
X61657D01*
X31584Y45549D02*
X61791D01*
X26753Y45949D02*
X61524D01*
X26753Y46049D02*
X61457D01*
X26753Y45849D02*
X61590D01*
X32302Y45149D02*
X62058D01*
X32161Y45249D02*
X61991D01*
X32428Y45049D02*
X62125D01*
X31813Y45449D02*
X61858D01*
X32000Y45349D02*
X61925D01*
X26753Y46749D02*
X60989D01*
X26753Y46849D02*
X60922D01*
X26753Y46649D02*
X61056D01*
X26753Y47049D02*
X60789D01*
X26753Y47149D02*
X60722D01*
X26753Y46949D02*
X60855D01*
X26753Y46249D02*
X61323D01*
X26753Y46349D02*
X61256D01*
X26753Y46149D02*
X61390D01*
X26753Y46549D02*
X61123D01*
X26753Y46449D02*
X61189D01*
X8105Y52249D02*
X56688D01*
X8013Y52349D02*
X56600D01*
X8192Y52149D02*
X56776D01*
X7811Y52549D02*
X56425D01*
X7699Y52649D02*
X56337D01*
X7915Y52449D02*
X56513D01*
X9451Y51749D02*
X57127D01*
X9190Y51849D02*
X57039D01*
X9658Y51649D02*
X57214D01*
X8274Y52049D02*
X56863D01*
X8801Y51949D02*
X56951D01*
X6607Y53349D02*
X55723D01*
X6368Y53449D02*
X55636D01*
X6814Y53249D02*
X55811D01*
X5698Y53649D02*
X55460D01*
X4847Y53749D02*
X55373D01*
X6080Y53549D02*
X55548D01*
X7451Y52849D02*
X56162D01*
X7313Y52949D02*
X56074D01*
X7580Y52749D02*
X56250D01*
X6997Y53149D02*
X55899D01*
X7162Y53049D02*
X55986D01*
X11444Y50049D02*
X58618D01*
X11344Y50149D02*
X58530D01*
X11544Y49949D02*
X58705D01*
X11144Y50349D02*
X58354D01*
X11044Y50449D02*
X58267D01*
X11244Y50249D02*
X58442D01*
X15500Y49549D02*
X59056D01*
X15500Y49649D02*
X58968D01*
X15500Y49449D02*
X59144D01*
X11644Y49849D02*
X58793D01*
X15500Y49749D02*
X58881D01*
X10343Y51149D02*
X57653D01*
X10236Y51249D02*
X57565D01*
X10444Y51049D02*
X57741D01*
X9983Y51449D02*
X57390D01*
X9832Y51549D02*
X57302D01*
X10116Y51349D02*
X57477D01*
X10844Y50649D02*
X58091D01*
X10744Y50749D02*
X58004D01*
X10944Y50549D02*
X58179D01*
X10544Y50949D02*
X57828D01*
X10644Y50849D02*
X57916D01*
X42500Y26149D02*
X69015D01*
X42500Y26249D02*
X68995D01*
X42500Y26049D02*
X69035D01*
X42500Y26449D02*
X68956D01*
X42500Y26549D02*
X68936D01*
X42500Y26349D02*
X68976D01*
X42500Y25649D02*
X69115D01*
X42500Y25749D02*
X69095D01*
X42500Y25549D02*
X69134D01*
X42500Y25949D02*
X69055D01*
X42500Y25849D02*
X69075D01*
X42500Y27249D02*
X68797D01*
X42500Y27349D02*
X68777D01*
X42500Y27149D02*
X68816D01*
X42500Y27549D02*
X68737D01*
X42500Y27649D02*
X68717D01*
X42500Y27449D02*
X68757D01*
X42500Y26749D02*
X68896D01*
X42500Y26849D02*
X68876D01*
X42500Y26649D02*
X68916D01*
X42500Y27049D02*
X68836D01*
X42500Y26949D02*
X68856D01*
X42500Y25049D02*
X69167D01*
X42500Y25149D02*
X69161D01*
X42500Y24949D02*
X69174D01*
X42500Y25349D02*
X69148D01*
X42500Y25449D02*
X69141D01*
X42500Y25249D02*
X69154D01*
X42500Y24549D02*
X69200D01*
X42500Y24649D02*
X69194D01*
X38692Y24449D02*
X69207D01*
X42500Y24849D02*
X69180D01*
X42500Y24749D02*
X69187D01*
X38292Y24049D02*
X69233D01*
X38192Y23949D02*
X69239D01*
X38092Y23849D02*
X69246D01*
X38592Y24349D02*
X69213D01*
X38492Y24249D02*
X69220D01*
X38392Y24149D02*
X69226D01*
X37792Y23549D02*
X69266D01*
X37692Y23449D02*
X69272D01*
X37592Y23349D02*
X69279D01*
X37992Y23749D02*
X69253D01*
X37892Y23649D02*
X69259D01*
X42500Y30649D02*
X68120D01*
X42500Y30749D02*
X68100D01*
X42500Y30549D02*
X68140D01*
X42500Y30949D02*
X68060D01*
X42500Y31049D02*
X68041D01*
X42500Y30849D02*
X68080D01*
X42500Y30149D02*
X68220D01*
X42500Y30249D02*
X68200D01*
X42500Y30049D02*
X68240D01*
X42500Y30449D02*
X68160D01*
X42500Y30349D02*
X68180D01*
X32944Y44549D02*
X62459D01*
X32844Y44649D02*
X62392D01*
X42500Y32249D02*
X67754D01*
X32644Y44849D02*
X62259D01*
X32541Y44949D02*
X62192D01*
X32744Y44749D02*
X62325D01*
X42500Y31249D02*
X68001D01*
X42500Y31349D02*
X67981D01*
X42500Y31149D02*
X68021D01*
X42500Y31549D02*
X67941D01*
X42500Y31449D02*
X67961D01*
X42500Y28449D02*
X68558D01*
X42500Y28549D02*
X68538D01*
X42500Y28349D02*
X68578D01*
X42500Y28749D02*
X68498D01*
X42500Y28849D02*
X68478D01*
X42500Y28649D02*
X68518D01*
X42500Y27849D02*
X68677D01*
X42500Y28049D02*
X68637D01*
X42500Y27749D02*
X68697D01*
X42500Y28249D02*
X68598D01*
X42500Y28149D02*
X68618D01*
X42500Y29549D02*
X68339D01*
X42500Y29649D02*
X68319D01*
X42500Y29449D02*
X68359D01*
X42500Y29849D02*
X68279D01*
X42500Y29949D02*
X68260D01*
X42500Y29749D02*
X68299D01*
X42500Y29049D02*
X68439D01*
X42500Y29149D02*
X68419D01*
X42500Y28949D02*
X68458D01*
X42500Y29349D02*
X68379D01*
X42500Y29249D02*
X68399D01*
X57445Y-1551D02*
X69457D01*
X57428Y-1451D02*
X69457D01*
X57460Y-1651D02*
X69457D01*
X57388Y-1251D02*
X69457D01*
X57364Y-1151D02*
X69457D01*
X57409Y-1351D02*
X69457D01*
X57496Y-2051D02*
X69457D01*
X57490Y-1951D02*
X69457D01*
X57499Y-2151D02*
X69457D01*
X57472Y-1751D02*
X69457D01*
X57482Y-1851D02*
X69457D01*
X57125Y-451D02*
X69457D01*
X57080Y-351D02*
X69457D01*
X57167Y-551D02*
X69457D01*
X56980Y-151D02*
X69457D01*
X55197Y16649D02*
X69457D01*
X57032Y-251D02*
X69457D01*
X57308Y-951D02*
X69457D01*
X57277Y-851D02*
X69457D01*
X57337Y-1051D02*
X69457D01*
X57206Y-651D02*
X69457D01*
X57243Y-751D02*
X69457D01*
X57490Y-2551D02*
X69457D01*
X57482Y-2651D02*
X69457D01*
X57472Y-2751D02*
X69457D01*
X57500Y-2251D02*
X69457D01*
X57499Y-2351D02*
X69457D01*
X57495Y-2451D02*
X69457D01*
X57428Y-3051D02*
X69457D01*
X57409Y-3151D02*
X69457D01*
X57387Y-3251D02*
X69457D01*
X57460Y-2851D02*
X69457D01*
X57445Y-2951D02*
X69457D01*
X57276Y-3651D02*
X69457D01*
X57242Y-3751D02*
X69457D01*
X57206Y-3851D02*
X69457D01*
X57363Y-3351D02*
X69457D01*
X57337Y-3451D02*
X69457D01*
X57308Y-3551D02*
X69457D01*
X57079Y-4151D02*
X69457D01*
X57031Y-4251D02*
X69457D01*
X57000Y-4351D02*
X69457D01*
X57166Y-3951D02*
X69457D01*
X57124Y-4051D02*
X69457D01*
X55250Y15949D02*
X69457D01*
X55247Y15849D02*
X69457D01*
X55242Y12249D02*
X69457D01*
X55247Y16149D02*
X69457D01*
X55242Y16249D02*
X69457D01*
X55250Y16049D02*
X69457D01*
X55250Y11949D02*
X69457D01*
X55247Y11849D02*
X69457D01*
X55242Y11749D02*
X69457D01*
X55247Y12149D02*
X69457D01*
X55250Y12049D02*
X69457D01*
X55242Y15749D02*
X69457D01*
X55235Y15649D02*
X69457D01*
X55224Y15549D02*
X69457D01*
X55225Y16449D02*
X69457D01*
X55212Y16549D02*
X69457D01*
X55235Y16349D02*
X69457D01*
X55225Y12449D02*
X69457D01*
X55212Y12549D02*
X69457D01*
X55235Y12349D02*
X69457D01*
X55212Y15449D02*
X69457D01*
X55197Y12649D02*
X69457D01*
X56601Y449D02*
X69457D01*
X56523Y549D02*
X69457D01*
X56673Y349D02*
X69457D01*
X56355Y749D02*
X69457D01*
X56263Y849D02*
X69457D01*
X56442Y649D02*
X69457D01*
X56868Y49D02*
X69457D01*
X56807Y149D02*
X69457D01*
X56926Y-51D02*
X69457D01*
X56742Y249D02*
X69457D01*
X55412Y1549D02*
X69457D01*
X55247Y1649D02*
X69457D01*
X55563Y1449D02*
X69457D01*
X55235Y11649D02*
X69457D01*
X55224Y11549D02*
X69457D01*
X55212Y11449D02*
X69457D01*
X56060Y1049D02*
X69457D01*
X55949Y1149D02*
X69457D01*
X56165Y949D02*
X69457D01*
X55701Y1349D02*
X69457D01*
X55830Y1249D02*
X69457D01*
X57000Y-9951D02*
X69457D01*
X57000Y-9851D02*
X69457D01*
X57000Y-10051D02*
X69457D01*
X57000Y-9651D02*
X69457D01*
X57000Y-9551D02*
X69457D01*
X57000Y-9751D02*
X69457D01*
X57000Y-10451D02*
X69457D01*
X57000Y-10351D02*
X69457D01*
X57000Y-10551D02*
X69457D01*
X57000Y-10151D02*
X69457D01*
X57000Y-10251D02*
X69457D01*
X57000Y-8851D02*
X69457D01*
X57000Y-4751D02*
X69457D01*
X57000Y-8951D02*
X69457D01*
X57000Y-4551D02*
X69457D01*
X57000Y-4451D02*
X69457D01*
X57000Y-4651D02*
X69457D01*
X57000Y-9351D02*
X69457D01*
X57000Y-9251D02*
X69457D01*
X57000Y-9451D02*
X69457D01*
X57000Y-9051D02*
X69457D01*
X57000Y-9151D02*
X69457D01*
X59080Y-12151D02*
X69457D01*
X58980Y-12051D02*
X69457D01*
X59180Y-12251D02*
X69457D01*
X58780Y-11851D02*
X69457D01*
X58680Y-11751D02*
X69457D01*
X58880Y-11951D02*
X69457D01*
X59580Y-12651D02*
X69457D01*
X59480Y-12551D02*
X69457D01*
X59679Y-12751D02*
X69457D01*
X59280Y-12351D02*
X69457D01*
X59380Y-12451D02*
X69457D01*
X57841Y-11051D02*
X69457D01*
X57655Y-10951D02*
X69457D01*
X58000Y-11151D02*
X69457D01*
X57130Y-10751D02*
X69457D01*
X57000Y-10651D02*
X69457D01*
X57429Y-10851D02*
X69457D01*
X58480Y-11551D02*
X69457D01*
X58378Y-11451D02*
X69457D01*
X58580Y-11651D02*
X69457D01*
X58141Y-11251D02*
X69457D01*
X58265Y-11351D02*
X69457D01*
X57000Y-6251D02*
X69457D01*
X57000Y-6151D02*
X69457D01*
X57000Y-6351D02*
X69457D01*
X57000Y-5951D02*
X69457D01*
X57000Y-5851D02*
X69457D01*
X57000Y-6051D02*
X69457D01*
X57000Y-6751D02*
X69457D01*
X57000Y-6651D02*
X69457D01*
X57000Y-6851D02*
X69457D01*
X57000Y-6451D02*
X69457D01*
X57000Y-6551D02*
X69457D01*
X57000Y-5251D02*
X69457D01*
X57000Y-5151D02*
X69457D01*
X57000Y-5351D02*
X69457D01*
X57000Y-4951D02*
X69457D01*
X57000Y-4851D02*
X69457D01*
X57000Y-5051D02*
X69457D01*
X57000Y-5651D02*
X69457D01*
X57000Y-5551D02*
X69457D01*
X57000Y-5751D02*
X69457D01*
X57000Y-10718D02*
Y-4311D01*
Y-5451D02*
X69457D01*
X57000Y-8451D02*
X69457D01*
X57000Y-8351D02*
X69457D01*
X57000Y-8551D02*
X69457D01*
X57000Y-8151D02*
X69457D01*
X57000Y-8051D02*
X69457D01*
X57000Y-8251D02*
X69457D01*
X57000Y-8751D02*
X69457D01*
X57000Y-8651D02*
X69457D01*
X58456Y-11527D02*
X59615Y-12686D01*
X57000Y-7351D02*
X69457D01*
X57000Y-7251D02*
X69457D01*
X57000Y-7451D02*
X69457D01*
X57000Y-7051D02*
X69457D01*
X57000Y-6951D02*
X69457D01*
X57000Y-7151D02*
X69457D01*
X57000Y-7851D02*
X69457D01*
X57000Y-7751D02*
X69457D01*
X57000Y-7951D02*
X69457D01*
X57000Y-7551D02*
X69457D01*
X57000Y-7651D02*
X69457D01*
X55000Y13549D02*
X69457D01*
X55000Y13649D02*
X69457D01*
X55000Y13449D02*
X69457D01*
X55159Y16849D02*
X69457D01*
X55000Y13849D02*
X69457D01*
X55000Y13749D02*
X69457D01*
X55110Y13049D02*
X69457D01*
X55081Y13149D02*
X69457D01*
X55136Y12949D02*
X69457D01*
X55016Y13349D02*
X69457D01*
X55050Y13249D02*
X69457D01*
X55000Y19149D02*
X69471D01*
X55000Y19249D02*
X69490D01*
X55000Y14449D02*
X69457D01*
X55000Y18949D02*
X69457D01*
X55000Y19049D02*
X69457D01*
X55000Y14549D02*
X69457D01*
X55000Y14049D02*
X69457D01*
X55000Y14149D02*
X69457D01*
X55000Y13949D02*
X69457D01*
X55000Y14349D02*
X69457D01*
X55000Y14249D02*
X69457D01*
X55179Y11249D02*
X69457D01*
X55158Y11149D02*
X69457D01*
X55135Y11049D02*
X69457D01*
X55179Y12749D02*
X69457D01*
X55159Y12849D02*
X69457D01*
X55197Y11349D02*
X69457D01*
X55049Y10749D02*
X69457D01*
X55015Y10649D02*
X69457D01*
X55000Y9449D02*
X69457D01*
X55110Y10949D02*
X69457D01*
X55081Y10849D02*
X69457D01*
X55000Y10149D02*
X69457D01*
X55000Y10249D02*
X69457D01*
X55000Y10049D02*
X69457D01*
X55000Y10449D02*
X69457D01*
X55000Y10549D02*
X69457D01*
X55000Y10349D02*
X69457D01*
X55000Y9649D02*
X69457D01*
X55000Y9749D02*
X69457D01*
X55000Y9549D02*
X69457D01*
X55000Y9949D02*
X69457D01*
X55000Y9849D02*
X69457D01*
X55000Y18249D02*
X69457D01*
X55000Y18349D02*
X69457D01*
X55000Y18149D02*
X69457D01*
X55000Y18549D02*
X69457D01*
X55000Y18649D02*
X69457D01*
X55000Y18449D02*
X69457D01*
X55000Y17749D02*
X69457D01*
X55000Y17849D02*
X69457D01*
X55000Y17649D02*
X69457D01*
X55000Y18049D02*
X69457D01*
X55000Y17949D02*
X69457D01*
X53958Y18949D02*
X55000D01*
X53858Y19049D02*
X55000D01*
X54058Y18849D02*
X55000D01*
X53658Y19249D02*
X55000D01*
X53657Y19250D02*
X55000D01*
X53758Y19149D02*
X55000D01*
Y18849D02*
X69457D01*
X55000Y17392D02*
Y19250D01*
Y18749D02*
X69457D01*
X54156D02*
X55000D01*
X55179Y16749D02*
X69457D01*
X55136Y16949D02*
X69457D01*
X55197Y15349D02*
X69457D01*
X55081Y17149D02*
X69457D01*
X55050Y17249D02*
X69457D01*
X55110Y17049D02*
X69457D01*
X55135Y15049D02*
X69457D01*
X55110Y14949D02*
X69457D01*
X55081Y14849D02*
X69457D01*
X55179Y15249D02*
X69457D01*
X55158Y15149D02*
X69457D01*
X55049Y14749D02*
X69457D01*
X55016Y17349D02*
X69457D01*
X55015Y14649D02*
X69457D01*
X55000Y17449D02*
X69457D01*
X55000Y17549D02*
X69457D01*
X55000Y13392D02*
Y14608D01*
Y13392D02*
Y14608D01*
X49550Y4949D02*
X69457D01*
X49550Y5049D02*
X69457D01*
X49550Y4849D02*
X69457D01*
X55000Y9249D02*
X69457D01*
X55000Y9349D02*
X69457D01*
X49550Y5149D02*
X69457D01*
X49550Y4449D02*
X69457D01*
X49550Y4549D02*
X69457D01*
X49550Y4349D02*
X69457D01*
X49550Y4749D02*
X69457D01*
X49550Y4649D02*
X69457D01*
X49550Y5449D02*
X69457D01*
X49550Y5549D02*
X69457D01*
X49550Y5349D02*
X69457D01*
X49550Y5749D02*
X69457D01*
X49550Y5849D02*
X69457D01*
X49550Y5649D02*
X69457D01*
X49250Y4049D02*
X69457D01*
X49250Y4149D02*
X69457D01*
X49250Y3949D02*
X69457D01*
X49550Y5249D02*
X69457D01*
X49250Y4249D02*
X69457D01*
X49250Y3049D02*
X69457D01*
X49250Y3149D02*
X69457D01*
X53092Y2249D02*
X69457D01*
X49250Y3349D02*
X69457D01*
X49250Y3449D02*
X69457D01*
X49250Y3249D02*
X69457D01*
X54857Y1849D02*
X69457D01*
X54618Y1949D02*
X69457D01*
X55063Y1749D02*
X69457D01*
X53948Y2149D02*
X69457D01*
X54330Y2049D02*
X69457D01*
X49250Y3549D02*
X69457D01*
X49250Y2949D02*
X69457D01*
X49247Y2849D02*
X69457D01*
X49250Y3749D02*
X69457D01*
X49250Y3849D02*
X69457D01*
X49250Y3649D02*
X69457D01*
X49225Y2549D02*
X69457D01*
X49212Y2449D02*
X69457D01*
X49197Y2349D02*
X69457D01*
X49242Y2749D02*
X69457D01*
X49235Y2649D02*
X69457D01*
X55000Y9149D02*
X69457D01*
X53956Y9049D02*
X55000D01*
X69457D01*
X54154Y9249D02*
X55000D01*
X54056Y9149D02*
X55000D01*
Y8949D02*
X69457D01*
X55000Y8750D02*
Y10608D01*
Y8849D02*
X69457D01*
X53856Y8949D02*
X55000D01*
X53756Y8849D02*
X55000D01*
X53456Y8549D02*
X69457D01*
X53356Y8449D02*
X69457D01*
X53256Y8349D02*
X69457D01*
X53657Y8750D02*
X55000D01*
X53656Y8749D02*
X69457D01*
X53556Y8649D02*
X69457D01*
X53056Y8149D02*
X69457D01*
X52956Y8049D02*
X69457D01*
X52856Y7949D02*
X69457D01*
X52333Y7427D02*
X53657Y8750D01*
X53156Y8249D02*
X69457D01*
X52456Y7549D02*
X69457D01*
X52356Y7449D02*
X69457D01*
X52254Y7349D02*
X69457D01*
X52756Y7849D02*
X69457D01*
X52656Y7749D02*
X69457D01*
X52556Y7649D02*
X69457D01*
X51899Y7049D02*
X69457D01*
X51759Y6949D02*
X69457D01*
X51606Y6849D02*
X69457D01*
X52145Y7249D02*
X69457D01*
X52027Y7149D02*
X69457D01*
X50746Y6449D02*
X69457D01*
X50384Y6349D02*
X69457D01*
X49550Y6249D02*
X69457D01*
X51435Y6749D02*
X69457D01*
X51241Y6649D02*
X69457D01*
X51017Y6549D02*
X69457D01*
X49550Y6049D02*
X69457D01*
X49550Y6149D02*
X69457D01*
X49550Y5949D02*
X69457D01*
X49179Y2249D02*
X52908D01*
X44779Y62001D02*
X50169Y58399D01*
X38965Y64868D02*
X44779Y62001D01*
X41500Y44500D02*
X42750D01*
X38750D02*
X41500D01*
X44334Y43323D02*
X45871Y41786D01*
X32827Y66951D02*
X38965Y64868D01*
X26469Y68216D02*
X32827Y66951D01*
X32993Y44500D02*
X34750D01*
X26753Y45753D02*
X30497D01*
X36750Y44500D02*
X38750D01*
X34750D02*
X36750D01*
X38750D02*
X41500D01*
X34750D02*
X36750D01*
X22750Y35149D02*
X28750D01*
X42500Y33149D02*
X43352D01*
X42500Y32500D02*
Y33469D01*
Y33049D02*
X43838D01*
X22750Y32249D02*
X28750D01*
X22750Y32349D02*
X28750D01*
X22750Y32149D02*
X28750D01*
X22750Y31749D02*
X34500D01*
X22750Y31849D02*
X34500D01*
X22750Y31649D02*
X34500D01*
X28750Y32000D02*
X34500D01*
X22750Y31949D02*
X34500D01*
X22750Y33049D02*
X28750D01*
X22750Y33149D02*
X28750D01*
X22750Y32949D02*
X28750D01*
X22750Y34949D02*
X28750D01*
X22750Y35049D02*
X28750D01*
X22750Y34849D02*
X28750D01*
X22750Y32549D02*
X28750D01*
X22750Y32649D02*
X28750D01*
X22750Y32449D02*
X28750D01*
X22750Y32849D02*
X28750D01*
X22750Y32749D02*
X28750D01*
X26753Y38649D02*
X28750D01*
X26753Y38749D02*
X28750D01*
X26753Y38549D02*
X28750D01*
X26753Y38949D02*
X28750D01*
X26753Y39049D02*
X28750D01*
X26753Y38849D02*
X28750D01*
Y36500D02*
Y38500D01*
Y36500D02*
Y38500D01*
X26753Y38349D02*
X28750D01*
Y38500D02*
Y39753D01*
X26753Y38449D02*
X28750D01*
X26753Y39549D02*
X28750D01*
X26753Y39649D02*
X28750D01*
X26753Y39449D02*
X28750D01*
X26753Y39753D02*
X28750D01*
X26753Y45753D02*
Y47252D01*
Y39749D02*
X28750D01*
X26753Y39149D02*
X28750D01*
X26753Y39249D02*
X28750D01*
X22750Y37249D02*
X28750D01*
X26753Y38253D02*
Y39753D01*
Y39349D02*
X28750D01*
X22750Y35649D02*
X28750D01*
X22750Y35749D02*
X28750D01*
X22750Y35549D02*
X28750D01*
X22750Y35949D02*
X28750D01*
X22750Y36049D02*
X28750D01*
X22750Y35849D02*
X28750D01*
Y32000D02*
Y36500D01*
X22750Y35249D02*
X28750D01*
X22750Y32049D02*
X28750D01*
X22750Y35449D02*
X28750D01*
X22750Y35349D02*
X28750D01*
X22750Y36749D02*
X28750D01*
X22750Y36849D02*
X28750D01*
X22750Y36649D02*
X28750D01*
X22750Y37049D02*
X28750D01*
X22750Y37149D02*
X28750D01*
X22750Y36949D02*
X28750D01*
X22750Y36249D02*
X28750D01*
X22750Y36349D02*
X28750D01*
X22750Y36149D02*
X28750D01*
X22750Y36549D02*
X28750D01*
X22750Y36449D02*
X28750D01*
X42500Y24500D02*
Y30500D01*
X38743Y24500D02*
X42500D01*
X39450Y23250D02*
X49550D01*
X42500Y30500D02*
Y32500D01*
Y30500D02*
Y32500D01*
X37492Y23249D02*
X39450D01*
X49550Y21250D02*
Y23250D01*
X39450Y21941D02*
Y23250D01*
X37192Y22949D02*
X39450D01*
X37392Y23149D02*
X39450D01*
X37292Y23049D02*
X39450D01*
X22750Y31149D02*
X34500D01*
X22750Y31249D02*
X34500D01*
X22750Y31049D02*
X34500D01*
X22750Y31449D02*
X34500D01*
X22750Y31549D02*
X34500D01*
X22750Y31349D02*
X34500D01*
X37092Y22849D02*
X39450D01*
X36992Y22749D02*
X39450D01*
X36892Y22649D02*
X39450D01*
X34500Y28743D02*
Y30500D01*
X36493Y22250D02*
X38743Y24500D01*
X40062Y4250D02*
X41250D01*
X40062D02*
X41250D01*
X49550D02*
Y6250D01*
X41250Y3000D02*
Y4250D01*
X49250Y3000D02*
Y4250D01*
X40061Y4249D02*
X41250D01*
X40250Y0D02*
Y4000D01*
X37448Y22149D02*
X39450D01*
X36594Y22249D02*
X39450D01*
X37830Y22049D02*
X39450D01*
X36792Y22549D02*
X39450D01*
X36692Y22449D02*
X39450D01*
X36592Y22349D02*
X39450D01*
X39982Y4149D02*
X41250D01*
X38138Y21941D02*
X39450D01*
X39897Y4049D02*
X41250D01*
X38118Y21949D02*
X39450D01*
X22750Y29749D02*
X34500D01*
X22750Y29849D02*
X34500D01*
X22750Y29649D02*
X34500D01*
Y30500D02*
Y32000D01*
Y30500D02*
Y32000D01*
X22750Y29949D02*
X34500D01*
X22750Y29249D02*
X34500D01*
X22750Y29349D02*
X34500D01*
X22750Y29149D02*
X34500D01*
X22750Y29549D02*
X34500D01*
X22750Y29449D02*
X34500D01*
X22750Y30549D02*
X34500D01*
X22750Y30649D02*
X34500D01*
X22750Y30449D02*
X34500D01*
X22750Y30849D02*
X34500D01*
X22750Y30949D02*
X34500D01*
X22750Y30749D02*
X34500D01*
X22750Y30149D02*
X34500D01*
X22750Y30249D02*
X34500D01*
X22750Y30049D02*
X34500D01*
X22750Y28250D02*
Y37250D01*
Y30349D02*
X34500D01*
X30885Y25128D02*
X34500Y28743D01*
X28500Y24749D02*
X30506D01*
X28500Y24649D02*
X30406D01*
X28500Y24449D02*
X30206D01*
X28500Y24549D02*
X30306D01*
X28500Y24349D02*
X30106D01*
X29757Y24000D02*
X30872Y25115D01*
X28500Y24249D02*
X30006D01*
X28500Y24149D02*
X29906D01*
X28500Y24049D02*
X29806D01*
X28500Y24000D02*
X29757D01*
X22750Y28849D02*
X34500D01*
X22750Y28949D02*
X34500D01*
X22750Y28749D02*
X34500D01*
X22750Y28649D02*
X34406D01*
X22750Y29049D02*
X34500D01*
X22750Y28549D02*
X34306D01*
X22750Y28349D02*
X34106D01*
X22750Y28449D02*
X34206D01*
X28500Y24949D02*
X30706D01*
X28500Y24000D02*
Y25000D01*
Y24849D02*
X30606D01*
X20382Y68615D02*
X26469Y68216D01*
X20050Y68549D02*
X21391D01*
X17752Y47252D02*
X26753D01*
X15500Y43349D02*
X17752D01*
X15500Y43449D02*
X17752D01*
X15500Y43249D02*
X17752D01*
Y42750D02*
Y47252D01*
X15500Y42949D02*
X17752D01*
X15500Y42849D02*
X17752D01*
X15500Y43149D02*
X17752D01*
X15500Y43049D02*
X17752D01*
X15500Y46849D02*
X17752D01*
X15500Y46949D02*
X17752D01*
X15500Y44049D02*
X17752D01*
X15500Y47149D02*
X17752D01*
X15500Y47249D02*
X17752D01*
X15500Y47049D02*
X17752D01*
X15500Y43649D02*
X17752D01*
X15500Y43749D02*
X17752D01*
X15500Y43549D02*
X17752D01*
X15500Y43949D02*
X17752D01*
X15500Y43849D02*
X17752D01*
X22750Y34649D02*
X28750D01*
X22750Y34749D02*
X28750D01*
X22750Y34549D02*
X28750D01*
X21995Y38253D02*
X26753D01*
X21992Y38249D02*
X28750D01*
X21892Y38149D02*
X28750D01*
X22750Y34149D02*
X28750D01*
X22750Y34249D02*
X28750D01*
X22750Y34049D02*
X28750D01*
X22750Y34449D02*
X28750D01*
X22750Y34349D02*
X28750D01*
X21592Y37849D02*
X28750D01*
X21492Y37749D02*
X28750D01*
X21392Y37649D02*
X28750D01*
X21792Y38049D02*
X28750D01*
X15500Y42750D02*
X17752D01*
X21692Y37949D02*
X28750D01*
X21288Y37549D02*
X28750D01*
X21175Y37449D02*
X28750D01*
X21049Y37349D02*
X28750D01*
X21378Y37635D02*
X21995Y38253D01*
X20908Y37250D02*
X22750D01*
X15500Y45949D02*
X17752D01*
X15500Y46049D02*
X17752D01*
X15500Y45849D02*
X17752D01*
X15500Y46249D02*
X17752D01*
X15500Y46349D02*
X17752D01*
X15500Y46149D02*
X17752D01*
X15500Y45449D02*
X17752D01*
X15500Y45549D02*
X17752D01*
X15500Y45349D02*
X17752D01*
X15500Y45749D02*
X17752D01*
X15500Y45649D02*
X17752D01*
X15500Y46749D02*
X17752D01*
X11743Y49750D02*
X15500D01*
Y46649D02*
X17752D01*
X10378Y51115D02*
X11743Y49750D01*
X15500Y46549D02*
X17752D01*
X15500Y43750D02*
Y49750D01*
Y46449D02*
X17752D01*
X7500Y43750D02*
Y45507D01*
X15500Y44549D02*
X17752D01*
X15500Y44649D02*
X17752D01*
X15500Y44449D02*
X17752D01*
X15500Y44849D02*
X17752D01*
X15500Y44949D02*
X17752D01*
X15500Y44749D02*
X17752D01*
X15500Y44249D02*
X17752D01*
X15500Y44349D02*
X17752D01*
X15500Y44149D02*
X17752D01*
X15500Y42750D02*
Y43750D01*
Y42750D02*
Y43750D01*
Y45149D02*
X17752D01*
X15500Y45249D02*
X17752D01*
X15500Y45049D02*
X17752D01*
X6602Y45149D02*
X7500D01*
X6363Y45049D02*
X7500D01*
X6073Y44949D02*
X7500D01*
Y35750D02*
Y41750D01*
Y43750D01*
Y35750D02*
X13750D01*
X5688Y44849D02*
X7500D01*
Y41750D02*
Y43750D01*
X22750Y33549D02*
X28750D01*
X22750Y33649D02*
X28750D01*
X22750Y33449D02*
X28750D01*
X22750Y33849D02*
X28750D01*
X22750Y33949D02*
X28750D01*
X22750Y33749D02*
X28750D01*
X22500Y27249D02*
X33006D01*
X22500Y27349D02*
X33106D01*
X22500Y27149D02*
X32906D01*
X22750Y33349D02*
X28750D01*
X22750Y33249D02*
X28750D01*
X22500Y28149D02*
X33906D01*
X22500Y28249D02*
X34006D01*
X22500Y28049D02*
X33806D01*
X22500Y27949D02*
X33706D01*
X12627Y33149D02*
X13750D01*
X22500Y27849D02*
X33606D01*
X22500Y27649D02*
X33406D01*
X22500Y27749D02*
X33506D01*
X22500Y27549D02*
X33306D01*
X22500Y25000D02*
Y28250D01*
Y27449D02*
X33206D01*
X22500Y25849D02*
X31606D01*
X22500Y25949D02*
X31706D01*
X22500Y25749D02*
X31506D01*
X22500Y25549D02*
X31306D01*
X22500Y25649D02*
X31406D01*
X22500Y25449D02*
X31206D01*
X22500Y25249D02*
X31006D01*
X22500Y25349D02*
X31106D01*
X22500Y25149D02*
X30906D01*
X22500Y25049D02*
X30806D01*
X22500Y25000D02*
X28500D01*
X22500Y26949D02*
X32706D01*
X22500Y27049D02*
X32806D01*
X22500Y26849D02*
X32606D01*
X22500Y26649D02*
X32406D01*
X22500Y26749D02*
X32506D01*
X22500Y26549D02*
X32306D01*
X22500Y26349D02*
X32106D01*
X22500Y26449D02*
X32206D01*
X22500Y26249D02*
X32006D01*
X22500Y26149D02*
X31906D01*
X22500Y26049D02*
X31806D01*
X12212Y33349D02*
X13750D01*
X11959Y33449D02*
X13750D01*
X12431Y33249D02*
X13750D01*
X11250Y33649D02*
X13750D01*
X10351Y33749D02*
X13750D01*
X11653Y33549D02*
X13750D01*
Y32321D02*
Y35750D01*
X12965Y32949D02*
X13750D01*
X12803Y33049D02*
X13750D01*
X4317Y32449D02*
X6886D01*
X2470Y33349D02*
X8288D01*
X1962Y33449D02*
X8541D01*
X2814Y33249D02*
X8069D01*
X3325Y33049D02*
X7697D01*
X3090Y33149D02*
X7873D01*
X3532Y32949D02*
X7535D01*
X3886Y32749D02*
X7249D01*
X3717Y32849D02*
X7387D01*
X4040Y32649D02*
X7120D01*
X4184Y32549D02*
X6999D01*
X4558Y32249D02*
X6678D01*
X4441Y32349D02*
X6779D01*
X4668Y32149D02*
X6583D01*
X4870Y31949D02*
X6407D01*
X4772Y32049D02*
X6493D01*
X4963Y31849D02*
X6326D01*
X5134Y31649D02*
X6176D01*
X5051Y31749D02*
X6249D01*
X5213Y31549D02*
X6107D01*
X2465Y4000D02*
X4250D01*
Y-1786D02*
Y4000D01*
X-868Y4249D02*
X1075D01*
X-1176Y4149D02*
X1383D01*
X-1633Y4049D02*
X1840D01*
X-416Y4449D02*
X623D01*
X-623Y4349D02*
X830D01*
X-4000Y4000D02*
X-2257D01*
X-4000Y-2243D02*
Y4000D01*
X49158Y2149D02*
X52052D01*
X49135Y2049D02*
X51670D01*
X49110Y1949D02*
X51382D01*
X49081Y1849D02*
X51143D01*
X49049Y1749D02*
X50937D01*
X49015Y1649D02*
X50753D01*
X49000Y1249D02*
X50170D01*
X49000Y1349D02*
X50299D01*
X49000Y1149D02*
X50051D01*
X49000Y1049D02*
X49940D01*
X49000Y949D02*
X49835D01*
X49000Y1549D02*
X50588D01*
X49000Y1449D02*
X50437D01*
X48154Y249D02*
X49000D01*
X41500D02*
X42346D01*
X41500Y149D02*
X42444D01*
X49000Y-189D02*
Y1608D01*
X48056Y149D02*
X49000D01*
X41500Y49D02*
X42550D01*
X47950D02*
X49000D01*
X47837Y-51D02*
X49000D01*
X47714Y-151D02*
X49000D01*
X47582Y-250D02*
X48969D01*
X47580Y-251D02*
X48968D01*
X47434Y-351D02*
X48920D01*
X47273Y-451D02*
X48875D01*
X47091Y-551D02*
X48833D01*
X46884Y-651D02*
X48794D01*
X46639Y-751D02*
X48757D01*
X46332Y-851D02*
X48723D01*
X40250Y-351D02*
X43066D01*
X40250Y-251D02*
X42920D01*
X40250Y-451D02*
X43227D01*
X41500Y-151D02*
X42786D01*
X41500Y-51D02*
X42663D01*
X41500Y-250D02*
X42918D01*
X40250Y-851D02*
X44168D01*
X40250Y-751D02*
X43861D01*
X40250Y-951D02*
X44626D01*
X40250Y-551D02*
X43409D01*
X40250Y-651D02*
X43616D01*
X40250Y2449D02*
X41288D01*
X40250Y2549D02*
X41276D01*
X40250Y2349D02*
X41303D01*
X40250Y2749D02*
X41258D01*
X40250Y2849D02*
X41253D01*
X40250Y2649D02*
X41265D01*
X40250Y2049D02*
X41365D01*
X40250Y1949D02*
X41391D01*
X40250Y2249D02*
X41321D01*
X40250Y2149D02*
X41342D01*
X40250Y3549D02*
X41250D01*
X40250Y3649D02*
X41250D01*
X40250Y3449D02*
X41250D01*
X40250Y3849D02*
X41250D01*
X40250Y3949D02*
X41250D01*
X40250Y3749D02*
X41250D01*
X40250Y3049D02*
X41250D01*
X40250Y3149D02*
X41250D01*
X40250Y2949D02*
X41250D01*
X40250Y3349D02*
X41250D01*
X40250Y3249D02*
X41250D01*
X40250Y349D02*
X41500D01*
X40250Y449D02*
X41500D01*
X40250Y249D02*
X41500D01*
X40250Y649D02*
X41500D01*
X40250Y749D02*
X41500D01*
X40250Y549D02*
X41500D01*
Y-250D02*
Y1608D01*
X40250Y-51D02*
X41500D01*
X40250Y-151D02*
X41500D01*
X40250Y149D02*
X41500D01*
X40250Y49D02*
X41500D01*
X40250Y1449D02*
X41500D01*
X40250Y1549D02*
X41500D01*
X40250Y1349D02*
X41500D01*
X40250Y1749D02*
X41451D01*
X40250Y1849D02*
X41419D01*
X40250Y1649D02*
X41485D01*
X40250Y949D02*
X41500D01*
X40250Y1049D02*
X41500D01*
X40250Y849D02*
X41500D01*
X40250Y1249D02*
X41500D01*
X40250Y1149D02*
X41500D01*
X45875Y-951D02*
X48692D01*
X40250Y-2351D02*
X48501D01*
X40250Y-2451D02*
X48505D01*
X40250Y-2151D02*
X48501D01*
X40250Y-2251D02*
X48500D01*
X40250Y-2751D02*
X48528D01*
X40250Y-2851D02*
X48540D01*
X40250Y-2551D02*
X48510D01*
X40250Y-2651D02*
X48518D01*
X40250Y-1151D02*
X48636D01*
X40250Y-1051D02*
X48663D01*
X40250Y-1251D02*
X48612D01*
X40250Y-1451D02*
X48572D01*
X40250Y-1351D02*
X48591D01*
X40250Y-1551D02*
X48555D01*
X40250Y-1751D02*
X48528D01*
X40250Y-1651D02*
X48540D01*
X40250Y-1851D02*
X48518D01*
X40250Y-1951D02*
X48510D01*
X40250Y-2051D02*
X48504D01*
X43000Y-3750D02*
X48757D01*
X40750Y-8351D02*
X43000D01*
X40750Y-8451D02*
X43000D01*
X40750Y-8151D02*
X43000D01*
X40750Y-8051D02*
X43000D01*
X40750Y-8251D02*
X43000D01*
X40750Y-8851D02*
X43000D01*
X40750Y-8751D02*
X43000D01*
X40750Y-8951D02*
X43000D01*
X40750Y-8551D02*
X43000D01*
X40750Y-8651D02*
X43000D01*
X40250Y-3351D02*
X48637D01*
X40250Y-3251D02*
X48613D01*
X40250Y-3451D02*
X48663D01*
X40250Y-3051D02*
X48572D01*
X40250Y-2951D02*
X48555D01*
X40250Y-3151D02*
X48591D01*
X40250Y-3651D02*
X48724D01*
X40250Y-3551D02*
X48692D01*
X40750Y-7951D02*
X43000D01*
X40750Y-7751D02*
X43000D01*
X40750Y-7851D02*
X43000D01*
X40250Y-3951D02*
X43000D01*
X40250Y-3851D02*
X43000D01*
X40750Y-9051D02*
X43000D01*
X40250Y-3751D02*
X43000D01*
X40250Y-4000D02*
Y0D01*
X36250Y-4000D02*
X40250D01*
X43000Y-9750D02*
Y-3750D01*
X40750Y-9251D02*
X43000D01*
X40750Y-9351D02*
X43000D01*
X40750Y-10000D02*
Y-7750D01*
Y-9151D02*
X43000D01*
X32250Y-3851D02*
X33204D01*
X32250Y-3951D02*
X33661D01*
X30129Y-1500D02*
X31452Y-2823D01*
X34286Y-4000D02*
X36250D01*
X34286D02*
X36250D01*
X31750Y-7750D02*
X40750D01*
X32250Y-4000D02*
X34286D01*
X40750Y-9851D02*
X43000D01*
X40750Y-9751D02*
X43000D01*
X40750Y-9951D02*
X43000D01*
X40750Y-9551D02*
X43000D01*
X40750Y-9451D02*
X43000D01*
X40750Y-9651D02*
X43000D01*
X40750Y-10000D02*
X43000D01*
X27250Y-11751D02*
X31750D01*
X27250Y-11851D02*
X31750D01*
X27250Y-11551D02*
X31750D01*
X27250Y-11651D02*
X31750D01*
X27250Y-10851D02*
X31750D01*
X27250Y-10751D02*
X31750D01*
X27250Y-10951D02*
X31750D01*
X27250Y-10551D02*
X31750D01*
X27250Y-10451D02*
X31750D01*
X27250Y-10651D02*
X31750D01*
X27250Y-11351D02*
X31750D01*
X27250Y-11251D02*
X31750D01*
X27250Y-11451D02*
X31750D01*
X27250Y-11051D02*
X31750D01*
X27250Y-11151D02*
X31750D01*
X27250Y-1651D02*
X30280D01*
X27250Y-1551D02*
X30180D01*
X27250Y-1751D02*
X30380D01*
X27250Y-1500D02*
X30129D01*
X-4000Y-1651D02*
X4250D01*
X-4000Y-1751D02*
X4250D01*
X27250Y-1951D02*
X30580D01*
X27250Y-1851D02*
X30480D01*
X27250Y-2051D02*
X30680D01*
X-4000Y-1851D02*
X4250D01*
X-4000Y-2051D02*
X4259D01*
X-4000Y-951D02*
X4250D01*
X-4000Y-851D02*
X4250D01*
X-4000Y-1051D02*
X4250D01*
X-4000Y-651D02*
X4250D01*
X-4000Y-551D02*
X4250D01*
X-4000Y-751D02*
X4250D01*
X-4000Y-1451D02*
X4250D01*
X-4000Y-1351D02*
X4250D01*
X-4000Y-1551D02*
X4250D01*
X-4000Y-1151D02*
X4250D01*
X-4000Y-1251D02*
X4250D01*
X27250Y-3451D02*
X32250D01*
X27250Y-3351D02*
X32101D01*
X27250Y-3551D02*
X32250D01*
X27250Y-3151D02*
X31821D01*
X27250Y-3051D02*
X31699D01*
X27250Y-3251D02*
X31955D01*
X27250Y-3951D02*
X32250D01*
X27250Y-3851D02*
X32250D01*
X27250Y-4051D02*
X43000D01*
X27250Y-3651D02*
X32250D01*
X27250Y-3751D02*
X32250D01*
X27250Y-2351D02*
X30980D01*
X27250Y-2251D02*
X30880D01*
X27250Y-2451D02*
X31080D01*
X27250Y-2151D02*
X30780D01*
X-4000D02*
X4267D01*
X-4000Y-2251D02*
X4277D01*
X27250Y-2851D02*
X31480D01*
X27250Y-2751D02*
X31380D01*
X27250Y-2951D02*
X31585D01*
X27250Y-2551D02*
X31180D01*
X27250Y-2651D02*
X31280D01*
X-4000Y2449D02*
X4250D01*
X-4000Y2549D02*
X4250D01*
X-4000Y2349D02*
X4250D01*
X-4000Y2749D02*
X4250D01*
X-4000Y2849D02*
X4250D01*
X-4000Y2649D02*
X4250D01*
X-4000Y1949D02*
X4250D01*
X-4000Y2049D02*
X4250D01*
X-4000Y1849D02*
X4250D01*
X-4000Y2249D02*
X4250D01*
X-4000Y2149D02*
X4250D01*
X-4000Y3549D02*
X4250D01*
X-4000Y3649D02*
X4250D01*
X-4000Y3449D02*
X4250D01*
X-4000Y3849D02*
X4250D01*
X-4000Y3949D02*
X4250D01*
X-4000Y3749D02*
X4250D01*
X-4000Y3049D02*
X4250D01*
X-4000Y3149D02*
X4250D01*
X-4000Y2949D02*
X4250D01*
X-4000Y3349D02*
X4250D01*
X-4000Y3249D02*
X4250D01*
X-4000Y149D02*
X4250D01*
X-4000Y249D02*
X4250D01*
X-4000Y49D02*
X4250D01*
X-4000Y449D02*
X4250D01*
X-4000Y549D02*
X4250D01*
X-4000Y349D02*
X4250D01*
X-4000Y-351D02*
X4250D01*
X-4000Y-251D02*
X4250D01*
X-4000Y-451D02*
X4250D01*
X-4000Y-51D02*
X4250D01*
X-4000Y-151D02*
X4250D01*
X-4000Y1349D02*
X4250D01*
X-4000Y1449D02*
X4250D01*
X-4000Y1249D02*
X4250D01*
X-4000Y1649D02*
X4250D01*
X-4000Y1749D02*
X4250D01*
X-4000Y1549D02*
X4250D01*
X-4000Y849D02*
X4250D01*
X-4000Y949D02*
X4250D01*
X-4000Y649D02*
X4250D01*
X-4000Y1149D02*
X4250D01*
X-4000Y1049D02*
X4250D01*
X27250Y-5651D02*
X43000D01*
X27250Y-5551D02*
X43000D01*
X27250Y-5751D02*
X43000D01*
X27250Y-5351D02*
X43000D01*
X27250Y-5251D02*
X43000D01*
X27250Y-5451D02*
X43000D01*
X27250Y-6151D02*
X43000D01*
X27250Y-6051D02*
X43000D01*
X27250Y-6251D02*
X43000D01*
X27250Y-5851D02*
X43000D01*
X27250Y-5951D02*
X43000D01*
X27250Y-4551D02*
X43000D01*
X27250Y-4451D02*
X43000D01*
X27250Y-4651D02*
X43000D01*
X27250Y-4251D02*
X43000D01*
X27250Y-4151D02*
X43000D01*
X27250Y-4351D02*
X43000D01*
X27250Y-5051D02*
X43000D01*
X27250Y-4951D02*
X43000D01*
X27250Y-5151D02*
X43000D01*
X27250Y-4751D02*
X43000D01*
X27250Y-4851D02*
X43000D01*
X27250Y-7551D02*
X43000D01*
X27250Y-7451D02*
X43000D01*
X27250Y-7651D02*
X43000D01*
X27250Y-8151D02*
X31750D01*
X27250Y-8051D02*
X31750D01*
X27250Y-8251D02*
X31750D01*
X27250Y-8651D02*
X31750D01*
X27250Y-8551D02*
X31750D01*
X27250Y-10051D02*
X31750D01*
X27250Y-8351D02*
X31750D01*
X27250Y-8451D02*
X31750D01*
X27250Y-6751D02*
X43000D01*
X27250Y-6651D02*
X43000D01*
X27250Y-6851D02*
X43000D01*
X27250Y-6451D02*
X43000D01*
X27250Y-6351D02*
X43000D01*
X27250Y-6551D02*
X43000D01*
X27250Y-7251D02*
X43000D01*
X27250Y-7151D02*
X43000D01*
X27250Y-7351D02*
X43000D01*
X27250Y-6951D02*
X43000D01*
X27250Y-7051D02*
X43000D01*
X27250Y-7851D02*
X31750D01*
X27250Y-7751D02*
X31750D01*
X27250Y-7951D02*
X31750D01*
X27250Y-5000D02*
Y-1500D01*
X27250Y-8751D02*
X31750D01*
X27250Y-8410D02*
Y-5000D01*
Y-8851D02*
X31750D01*
X8500Y-8500D02*
Y-7500D01*
X7500Y-8500D02*
X8500D01*
X5427Y-4619D02*
X7631Y-6823D01*
X-3500Y-8500D02*
X-500D01*
X-3500D02*
X-500D01*
X500D01*
X4500D02*
X7500D01*
X3500D02*
X4500D01*
X7500D01*
X500D02*
X3500D01*
X500D02*
X3500D01*
X27250Y-12051D02*
X31750D01*
X27250Y-11951D02*
X31750D01*
X27250Y-12151D02*
X31750D01*
X27250Y-10251D02*
X31750D01*
X27250Y-10151D02*
X31750D01*
X27250Y-10351D02*
X31750D01*
X27250Y-12551D02*
X31750D01*
X27250Y-12451D02*
X31750D01*
X27250Y-12651D02*
X31750D01*
X27250Y-12251D02*
X31750D01*
X27250Y-12351D02*
X31750D01*
X27250Y-9351D02*
X31750D01*
X27250Y-9251D02*
X31750D01*
X27250Y-9451D02*
X31750D01*
X27250Y-9051D02*
X31750D01*
X27250Y-8951D02*
X31750D01*
X27250Y-9151D02*
X31750D01*
X27250Y-9851D02*
X31750D01*
X27250Y-9751D02*
X31750D01*
X27250Y-9951D02*
X31750D01*
X27250Y-9551D02*
X31750D01*
X27250Y-9651D02*
X31750D01*
X60500Y-18451D02*
X69457D01*
X60500Y-18351D02*
X69457D01*
X60500Y-18551D02*
X69457D01*
X60500Y-18151D02*
X69457D01*
X60500Y-18051D02*
X69457D01*
X60500Y-18251D02*
X69457D01*
Y-20918D02*
Y19082D01*
X60500Y-18951D02*
X69457D01*
X60500Y-19051D02*
X69457D01*
X60500Y-18751D02*
X69457D01*
X60500Y-18651D02*
X69457D01*
X60500Y-18851D02*
X69457D01*
X60500Y-17351D02*
X69457D01*
X60500Y-17251D02*
X69457D01*
X60500Y-17451D02*
X69457D01*
X60500Y-17051D02*
X69457D01*
X59769Y-12851D02*
X69457D01*
X60500Y-17151D02*
X69457D01*
X60500Y-17851D02*
X69457D01*
X60500Y-17751D02*
X69457D01*
X60500Y-17951D02*
X69457D01*
X60500Y-17551D02*
X69457D01*
X60500Y-17651D02*
X69457D01*
X60500Y-20651D02*
X69457D01*
X60500Y-20551D02*
X69457D01*
X60500Y-20751D02*
X69457D01*
X60500Y-20351D02*
X69457D01*
X60500Y-20251D02*
X69457D01*
X60500Y-20451D02*
X69457D01*
X60500Y-21151D02*
X69503D01*
X60500Y-21051D02*
X69484D01*
X60500Y-21251D02*
X69523D01*
X60500Y-20851D02*
X69457D01*
X60500Y-20951D02*
X69464D01*
X60500Y-19551D02*
X69457D01*
X60500Y-19451D02*
X69457D01*
X60500Y-19651D02*
X69457D01*
X60500Y-19251D02*
X69457D01*
X60500Y-19151D02*
X69457D01*
X60500Y-19351D02*
X69457D01*
X60500Y-20051D02*
X69457D01*
X60500Y-19951D02*
X69457D01*
X60500Y-20151D02*
X69457D01*
X60500Y-19751D02*
X69457D01*
X60500Y-19851D02*
X69457D01*
X60447Y-14251D02*
X69457D01*
X60426Y-14151D02*
X69457D01*
X60464Y-14351D02*
X69457D01*
X60373Y-13951D02*
X69457D01*
X60341Y-13851D02*
X69457D01*
X60402Y-14051D02*
X69457D01*
X60496Y-14651D02*
X69457D01*
X60489Y-14551D02*
X69457D01*
X60499Y-14751D02*
X69457D01*
X60478Y-14451D02*
X69457D01*
X60500Y-21250D02*
Y-14813D01*
X60119Y-13351D02*
X69457D01*
X60061Y-13251D02*
X69457D01*
X60173Y-13451D02*
X69457D01*
X59928Y-13051D02*
X69457D01*
X59852Y-12951D02*
X69457D01*
X59997Y-13151D02*
X69457D01*
X60266Y-13651D02*
X69457D01*
X60221Y-13551D02*
X69457D01*
X60306Y-13751D02*
X69457D01*
X60500Y-16351D02*
X69457D01*
X60500Y-16251D02*
X69457D01*
X60500Y-16451D02*
X69457D01*
X60500Y-16051D02*
X69457D01*
X60500Y-15951D02*
X69457D01*
X60500Y-16151D02*
X69457D01*
X60500Y-16851D02*
X69457D01*
X60500Y-16751D02*
X69457D01*
X60500Y-16951D02*
X69457D01*
X60500Y-16551D02*
X69457D01*
X60500Y-16651D02*
X69457D01*
X60500Y-15251D02*
X69457D01*
X60500Y-15151D02*
X69457D01*
X60500Y-15351D02*
X69457D01*
X60500Y-14951D02*
X69457D01*
X60500Y-14851D02*
X69457D01*
X60500Y-15051D02*
X69457D01*
X60500Y-15751D02*
X69457D01*
X60500Y-15651D02*
X69457D01*
X60500Y-15851D02*
X69457D01*
X60500Y-15451D02*
X69457D01*
X60500Y-15551D02*
X69457D01*
X60498Y-21351D02*
X69530D01*
X60493Y-21451D02*
X69524D01*
X60485Y-21551D02*
X69517D01*
X60473Y-21651D02*
X69510D01*
X60458Y-21751D02*
X69504D01*
X60439Y-21851D02*
X69497D01*
X69134Y-27387D02*
X69533Y-21301D01*
X60417Y-21951D02*
X69491D01*
X60391Y-22051D02*
X69484D01*
X60361Y-22151D02*
X69478D01*
X60328Y-22251D02*
X69471D01*
X60291Y-22351D02*
X69465D01*
X60249Y-22451D02*
X69458D01*
X60203Y-22551D02*
X69451D01*
X60153Y-22651D02*
X69445D01*
X60097Y-22751D02*
X69438D01*
X60037Y-22851D02*
X69432D01*
X59971Y-22951D02*
X69425D01*
X59899Y-23051D02*
X69419D01*
X59821Y-23151D02*
X69412D01*
X59735Y-23251D02*
X69405D01*
X59641Y-23351D02*
X69399D01*
X59542Y-23451D02*
X69392D01*
X59442Y-23551D02*
X69386D01*
X59342Y-23651D02*
X69379D01*
X59242Y-23751D02*
X69373D01*
X59142Y-23851D02*
X69366D01*
X59042Y-23951D02*
X69360D01*
X58942Y-24051D02*
X69353D01*
X58842Y-24151D02*
X69346D01*
X58742Y-24251D02*
X69340D01*
X58642Y-24351D02*
X69333D01*
X58542Y-24451D02*
X69327D01*
X58442Y-24551D02*
X69320D01*
X58342Y-24651D02*
X69314D01*
X58242Y-24751D02*
X69307D01*
X58142Y-24851D02*
X69301D01*
X58042Y-24951D02*
X69294D01*
X57942Y-25051D02*
X69288D01*
X57842Y-25151D02*
X69281D01*
X57742Y-25251D02*
X69275D01*
X57642Y-25351D02*
X69268D01*
X57542Y-25451D02*
X69261D01*
X57442Y-25551D02*
X69255D01*
X57342Y-25651D02*
X69248D01*
X57242Y-25751D02*
X69242D01*
X57142Y-25851D02*
X69235D01*
X57042Y-25951D02*
X69229D01*
X56942Y-26051D02*
X69222D01*
X56842Y-26151D02*
X69215D01*
X56750Y-27151D02*
X69150D01*
X56750Y-27251D02*
X69143D01*
X56750Y-27351D02*
X69137D01*
X56750Y-26351D02*
X69202D01*
X56750Y-26251D02*
X69209D01*
X56750Y-26451D02*
X69196D01*
X56750Y-26551D02*
X69189D01*
X56750Y-26243D02*
X59615Y-23378D01*
X56750Y-26651D02*
X69183D01*
X56750Y-26851D02*
X69170D01*
X56750Y-26751D02*
X69176D01*
X56750Y-26951D02*
X69163D01*
X56750Y-30000D02*
Y-26243D01*
Y-27051D02*
X69156D01*
X56750Y-28651D02*
X68883D01*
X56750Y-28551D02*
X68903D01*
X56750Y-28751D02*
X68863D01*
X56750Y-28951D02*
X68823D01*
X56750Y-28851D02*
X68843D01*
X56750Y-29051D02*
X68804D01*
X67870Y-33745D02*
X69134Y-27387D01*
X56750Y-29751D02*
X68664D01*
X56750Y-29851D02*
X68644D01*
X56750Y-29951D02*
X68624D01*
X65786Y-39883D02*
X67870Y-33745D01*
X56750Y-27551D02*
X69102D01*
X56750Y-27451D02*
X69122D01*
X56750Y-27651D02*
X69082D01*
X56750Y-27851D02*
X69042D01*
X56750Y-27751D02*
X69062D01*
X56750Y-27951D02*
X69022D01*
X56750Y-28151D02*
X68983D01*
X56750Y-28051D02*
X69002D01*
X56750Y-28251D02*
X68963D01*
X56750Y-28351D02*
X68943D01*
X56750Y-28451D02*
X68923D01*
X51000Y-17251D02*
X54500D01*
X51000Y-17151D02*
X54500D01*
X51000Y-17351D02*
X54500D01*
X52500Y-16750D02*
X54500D01*
X51000Y-16951D02*
X54500D01*
X51000Y-17051D02*
X54500D01*
X52507Y-22000D02*
X54500Y-20007D01*
X51000Y-17651D02*
X54500D01*
X56750Y-29151D02*
X68784D01*
X51000Y-17451D02*
X54500D01*
X51000Y-17551D02*
X54500D01*
X36747Y-17951D02*
X54500D01*
X36747Y-17851D02*
X54500D01*
X36747Y-18051D02*
X54500D01*
X51000Y-16851D02*
X54500D01*
X51000Y-16751D02*
X54500D01*
X22750Y-17751D02*
X54500D01*
X36747Y-18451D02*
X54500D01*
X36747Y-18351D02*
X54500D01*
X36747Y-19551D02*
X54500D01*
X36747Y-18151D02*
X54500D01*
X36747Y-18251D02*
X54500D01*
X56750Y-29351D02*
X68744D01*
X56750Y-29251D02*
X68764D01*
X56750Y-29451D02*
X68724D01*
X56750Y-29651D02*
X68684D01*
X56750Y-29551D02*
X68704D01*
X51087Y-31051D02*
X68406D01*
X51138Y-31251D02*
X68366D01*
X51114Y-31151D02*
X68386D01*
X51159Y-31351D02*
X68346D01*
X51178Y-31451D02*
X68326D01*
X51195Y-31551D02*
X68306D01*
X50750Y-30151D02*
X68585D01*
X50750Y-30051D02*
X68604D01*
X50782Y-30251D02*
X68565D01*
X50830Y-30351D02*
X68545D01*
X50750Y-30000D02*
X56750D01*
X50875Y-30451D02*
X68525D01*
X50956Y-30651D02*
X68485D01*
X50917Y-30551D02*
X68505D01*
X50993Y-30751D02*
X68465D01*
X51027Y-30851D02*
X68445D01*
X51058Y-30951D02*
X68425D01*
X51000Y-16750D02*
X52500D01*
X36747Y-19751D02*
X54500D01*
X36747Y-19851D02*
X54500D01*
X51000Y-16750D02*
X52500D01*
X51000Y-17750D02*
Y-16750D01*
X43000Y-17750D02*
X51000D01*
X54500Y-20007D02*
Y-16750D01*
X36747Y-19951D02*
X54500D01*
X36747Y-20051D02*
X54457D01*
X36747Y-20151D02*
X54356D01*
X36747Y-20251D02*
X54257D01*
X36747Y-18951D02*
X54500D01*
X36747Y-18851D02*
X54500D01*
X36747Y-19051D02*
X54500D01*
X36747Y-18651D02*
X54500D01*
X36747Y-18551D02*
X54500D01*
X36747Y-18751D02*
X54500D01*
X36747Y-19451D02*
X54500D01*
X36747Y-19351D02*
X54500D01*
X36747Y-19651D02*
X54500D01*
X36747Y-19151D02*
X54500D01*
X36747Y-19251D02*
X54500D01*
X36747Y-21551D02*
X52957D01*
X36747Y-21451D02*
X53057D01*
X36747Y-21651D02*
X52856D01*
X36747Y-21851D02*
X52656D01*
X36747Y-21751D02*
X52757D01*
X36747Y-21951D02*
X52557D01*
X48750Y-22000D02*
X50750D01*
X48750D02*
X50750D01*
X52507D01*
X42750D02*
X46750D01*
X48750D01*
X36747Y-20451D02*
X54057D01*
X36747Y-20351D02*
X54156D01*
X36747Y-20551D02*
X53956D01*
X36747Y-20751D02*
X53756D01*
X36747Y-20651D02*
X53857D01*
X36747Y-20851D02*
X53657D01*
X36747Y-21051D02*
X53457D01*
X36747Y-20951D02*
X53556D01*
X36747Y-21151D02*
X53356D01*
X36747Y-21251D02*
X53257D01*
X36747Y-21351D02*
X53156D01*
X51232Y-31851D02*
X68246D01*
X51222Y-31751D02*
X68266D01*
X51240Y-31951D02*
X68227D01*
X51249Y-32151D02*
X68187D01*
X51246Y-32051D02*
X68207D01*
X51250Y-32251D02*
X68167D01*
X51249Y-32351D02*
X68147D01*
X51245Y-32451D02*
X68127D01*
X51240Y-32551D02*
X68107D01*
X51232Y-32651D02*
X68087D01*
X51222Y-32751D02*
X68067D01*
X51210Y-31651D02*
X68286D01*
X51210Y-32851D02*
X68048D01*
X51195Y-32951D02*
X68028D01*
X51178Y-33051D02*
X68008D01*
X51159Y-33151D02*
X67988D01*
X51137Y-33251D02*
X67968D01*
X51113Y-33351D02*
X67948D01*
X51087Y-33451D02*
X67928D01*
X51058Y-33551D02*
X67908D01*
X51026Y-33651D02*
X67888D01*
X50992Y-33751D02*
X67868D01*
X50956Y-33851D02*
X67834D01*
X50916Y-33951D02*
X67800D01*
X50874Y-34051D02*
X67766D01*
X50829Y-34151D02*
X67732D01*
X50781Y-34251D02*
X67698D01*
X50729Y-34351D02*
X67664D01*
X50675Y-34451D02*
X67630D01*
X50617Y-34551D02*
X67596D01*
X50556Y-34651D02*
X67562D01*
X50491Y-34751D02*
X67528D01*
X50710Y-35951D02*
X67121D01*
X50422Y-34851D02*
X67494D01*
X50349Y-34951D02*
X67460D01*
X50272Y-35051D02*
X67427D01*
X50190Y-35151D02*
X67393D01*
X50103Y-35251D02*
X67359D01*
X50011Y-35351D02*
X67325D01*
X49913Y-35451D02*
X67291D01*
X49808Y-35551D02*
X67257D01*
X49697Y-35651D02*
X67223D01*
X49577Y-35751D02*
X67189D01*
X49977Y-35851D02*
X67155D01*
X53750Y-36251D02*
X67019D01*
X51363Y-36151D02*
X67053D01*
X53750Y-36351D02*
X66985D01*
X53750Y-36451D02*
X66951D01*
X51595Y-36250D02*
X53750D01*
Y-36551D02*
X66917D01*
X53750Y-36751D02*
X66849D01*
X53750Y-36651D02*
X66883D01*
X53750Y-36851D02*
X66815D01*
X53750Y-38405D02*
Y-36250D01*
Y-36951D02*
X66782D01*
X51081Y-36051D02*
X67087D01*
X36750Y-36651D02*
X45750D01*
Y-38405D02*
Y-36637D01*
X36750Y-36951D02*
X45750D01*
X36750Y-37051D02*
X45750D01*
X36750Y-36751D02*
X45750D01*
X36750Y-36851D02*
X45750D01*
X53750Y-37251D02*
X66680D01*
X53750Y-37151D02*
X66714D01*
X53750Y-37351D02*
X66646D01*
X53750Y-37551D02*
X66578D01*
X53750Y-37451D02*
X66612D01*
X53750Y-37651D02*
X66544D01*
X53750Y-37851D02*
X66476D01*
X53750Y-37751D02*
X66510D01*
X53750Y-37951D02*
X66442D01*
X53750Y-38051D02*
X66408D01*
X53750Y-38151D02*
X66374D01*
X53750Y-37051D02*
X66747D01*
X36750Y-37451D02*
X45750D01*
X36750Y-37551D02*
X45750D01*
X36750Y-37251D02*
X45750D01*
X36750Y-37151D02*
X45750D01*
X36750Y-37351D02*
X45750D01*
X36750Y-37951D02*
X45750D01*
X36750Y-37851D02*
X45750D01*
X36750Y-38051D02*
X45750D01*
X36750Y-37651D02*
X45750D01*
X36750Y-37751D02*
X45750D01*
X54082Y-39451D02*
X65933D01*
X54062Y-39351D02*
X65967D01*
X54099Y-39551D02*
X65899D01*
X54127Y-39751D02*
X65831D01*
X54114Y-39651D02*
X65865D01*
X54137Y-39851D02*
X65797D01*
X62919Y-45697D02*
X65786Y-39883D01*
X54145Y-39951D02*
X65753D01*
X54151Y-40051D02*
X65703D01*
X54154Y-40151D02*
X65654D01*
X54155Y-40251D02*
X65605D01*
X53750Y-38351D02*
X66306D01*
X53750Y-38251D02*
X66340D01*
X53771Y-38451D02*
X66272D01*
X53854Y-38651D02*
X66204D01*
X53814Y-38551D02*
X66238D01*
X53892Y-38751D02*
X66171D01*
X53959Y-38951D02*
X66103D01*
X53927Y-38851D02*
X66136D01*
X53989Y-39051D02*
X66069D01*
X54016Y-39151D02*
X66035D01*
X54040Y-39251D02*
X66001D01*
X54155Y-41551D02*
X64964D01*
X54155Y-41451D02*
X65013D01*
X54155Y-41651D02*
X64914D01*
X54155Y-41851D02*
X64816D01*
X54155Y-41751D02*
X64865D01*
X54155Y-41951D02*
X64767D01*
X54155Y-42151D02*
X64668D01*
X54155Y-42051D02*
X64717D01*
X54155Y-42251D02*
X64619D01*
X54155Y-42351D02*
X64569D01*
X54155Y-42451D02*
X64520D01*
X54155Y-40451D02*
X65506D01*
X54155Y-40351D02*
X65556D01*
X54155Y-40551D02*
X65457D01*
X54155Y-40751D02*
X65358D01*
X54155Y-40651D02*
X65408D01*
X54155Y-40851D02*
X65309D01*
X54155Y-41051D02*
X65210D01*
X54155Y-40951D02*
X65260D01*
X54155Y-41151D02*
X65161D01*
X54155Y-41251D02*
X65112D01*
X54155Y-41351D02*
X65062D01*
X54155Y-42851D02*
X64323D01*
X54155Y-42751D02*
X64372D01*
X54155Y-42951D02*
X64273D01*
X54155Y-43151D02*
X64175D01*
X54155Y-43051D02*
X64224D01*
X54155Y-43251D02*
X64125D01*
X54155Y-43451D02*
X64027D01*
X54155Y-43351D02*
X64076D01*
X54155Y-43551D02*
X63977D01*
X54155Y-43651D02*
X63928D01*
X54155Y-43751D02*
X63879D01*
X36750Y-38251D02*
X45750D01*
X36750Y-38151D02*
X45750D01*
X36750Y-38351D02*
X45750D01*
X36750Y-38551D02*
X45686D01*
X36750Y-38451D02*
X45729D01*
X36750Y-38651D02*
X45645D01*
X54155Y-42551D02*
X64471D01*
X54155Y-42651D02*
X64421D01*
X36750Y-38751D02*
X45608D01*
X54155Y-45051D02*
X63238D01*
X54155Y-44951D02*
X63287D01*
X54155Y-45151D02*
X63188D01*
X54155Y-45351D02*
X63090D01*
X54155Y-45251D02*
X63139D01*
X54155Y-45451D02*
X63040D01*
X54155Y-45651D02*
X62942D01*
X54155Y-45551D02*
X62991D01*
X54155Y-45751D02*
X62883D01*
X54155Y-45851D02*
X62816D01*
X54155Y-45951D02*
X62750D01*
X54155Y-43951D02*
X63780D01*
X54155Y-43851D02*
X63829D01*
X54155Y-44051D02*
X63731D01*
X54155Y-44251D02*
X63632D01*
X54155Y-44151D02*
X63682D01*
X54155Y-44351D02*
X63583D01*
X54155Y-44551D02*
X63484D01*
X54155Y-44451D02*
X63534D01*
X54155Y-44651D02*
X63435D01*
X54155Y-44751D02*
X63386D01*
X54155Y-44851D02*
X63336D01*
X54155Y-46051D02*
X62683D01*
X54152Y-46151D02*
X62616D01*
X54148Y-46251D02*
X62549D01*
X54155Y-46000D02*
Y-40250D01*
X54141Y-46351D02*
X62482D01*
X54132Y-46451D02*
X62415D01*
X61675Y-47559D02*
X62919Y-45697D01*
X54132Y-47351D02*
X61814D01*
X54232Y-47451D02*
X61747D01*
X54332Y-47551D02*
X61680D01*
X54340Y-47559D02*
X61675D01*
X54120Y-46551D02*
X62349D01*
X54107Y-46651D02*
X62282D01*
X54090Y-46751D02*
X62215D01*
X54072Y-46851D02*
X62148D01*
X54051Y-46951D02*
X62081D01*
X54028Y-47051D02*
X62014D01*
X54002Y-47151D02*
X61948D01*
X54032Y-47251D02*
X61881D01*
X46385Y-52063D02*
X48648Y-54326D01*
X53579Y-56369D02*
X54579D01*
X50169Y-60236D02*
X54579Y-56369D01*
X53163Y-56451D02*
X54485D01*
X49200Y-60884D02*
X50169Y-60236D01*
X20250Y-71251D02*
X46707D01*
X20250Y-71651D02*
X46707D01*
X20250Y-71551D02*
X46707D01*
X20250Y-72151D02*
X46707D01*
X20250Y-71351D02*
X46707D01*
X20250Y-71451D02*
X46707D01*
X20250Y-70551D02*
X46707D01*
X20250Y-70451D02*
X46707D01*
X20250Y-70651D02*
X46707D01*
X20250Y-70251D02*
X46707D01*
X20250Y-70151D02*
X46707D01*
X20250Y-70351D02*
X46707D01*
X20250Y-71051D02*
X46707D01*
X20250Y-70951D02*
X46707D01*
X20250Y-71151D02*
X46707D01*
X20250Y-70751D02*
X46707D01*
X20250Y-70851D02*
X46707D01*
X20250Y-69751D02*
X46707D01*
X20250Y-69651D02*
X46707D01*
X20250Y-69951D02*
X46707D01*
X20250Y-69551D02*
X46707D01*
Y-73515D02*
Y-65546D01*
X20250Y-71851D02*
X46707D01*
X20250Y-71951D02*
X46707D01*
X20250Y-70051D02*
X46707D01*
X20250Y-71751D02*
X46707D01*
X20250Y-68851D02*
X46707D01*
X20250Y-68751D02*
X46707D01*
X20250Y-68951D02*
X46707D01*
X20250Y-68551D02*
X46707D01*
X20250Y-68451D02*
X46707D01*
X20250Y-68651D02*
X46707D01*
X20250Y-69351D02*
X46707D01*
X20250Y-69251D02*
X46707D01*
X20250Y-69451D02*
X46707D01*
X20250Y-69051D02*
X46707D01*
X20250Y-69151D02*
X46707D01*
X20250Y-73351D02*
X46707D01*
X20250Y-73251D02*
X46707D01*
X20250Y-73451D02*
X46707D01*
X20250Y-73651D02*
X46461D01*
X20250Y-73551D02*
X46642D01*
X20250Y-73751D02*
X46280D01*
X45619Y-74116D02*
X46707Y-73515D01*
X20250Y-73851D02*
X46099D01*
X20250Y-73951D02*
X45918D01*
X20250Y-74051D02*
X45737D01*
X39501Y-76650D02*
X45619Y-74116D01*
X20250Y-72551D02*
X46707D01*
X20250Y-72451D02*
X46707D01*
X20250Y-72651D02*
X46707D01*
X20250Y-72251D02*
X46707D01*
X20250Y-72051D02*
X46707D01*
X20250Y-72351D02*
X46707D01*
X20250Y-73051D02*
X46707D01*
X20250Y-72951D02*
X46707D01*
X20250Y-73151D02*
X46707D01*
X20250Y-72751D02*
X46707D01*
X20250Y-72851D02*
X46707D01*
X20250Y-56651D02*
X54257D01*
X20250Y-56551D02*
X54371D01*
X20250Y-56751D02*
X54143D01*
X20250Y-56851D02*
X54029D01*
X20250Y-56451D02*
X51837D01*
X20250Y-56951D02*
X53915D01*
X20250Y-57151D02*
X53687D01*
X20250Y-57051D02*
X53801D01*
X20250Y-57251D02*
X53573D01*
X20250Y-57351D02*
X53459D01*
X20250Y-57451D02*
X53345D01*
X20250Y-55751D02*
X50014D01*
X20250Y-55651D02*
X49869D01*
X20250Y-55851D02*
X50172D01*
X20250Y-55451D02*
X49612D01*
X20250Y-55351D02*
X49496D01*
X20250Y-55551D02*
X49736D01*
X20250Y-56251D02*
X51023D01*
X20250Y-56151D02*
X50762D01*
X20250Y-56351D02*
X51351D01*
X20250Y-55951D02*
X50346D01*
X20250Y-56051D02*
X50540D01*
X20250Y-58751D02*
X51862D01*
X20250Y-58651D02*
X51976D01*
X20250Y-58851D02*
X51748D01*
X20250Y-59051D02*
X51520D01*
X20250Y-58951D02*
X51634D01*
X20250Y-59151D02*
X51406D01*
X20250Y-59351D02*
X51178D01*
X20250Y-59251D02*
X51292D01*
X20250Y-59451D02*
X51064D01*
X20250Y-59551D02*
X50950D01*
X20250Y-59651D02*
X50836D01*
X20250Y-57651D02*
X53117D01*
X20250Y-57551D02*
X53231D01*
X20250Y-57751D02*
X53003D01*
X20250Y-57951D02*
X52775D01*
X20250Y-57851D02*
X52888D01*
X20250Y-58051D02*
X52660D01*
X20250Y-58251D02*
X52432D01*
X20250Y-58151D02*
X52547D01*
X20250Y-58351D02*
X52318D01*
X20250Y-58451D02*
X52204D01*
X20250Y-58551D02*
X52090D01*
X20250Y-52451D02*
X46773D01*
X20250Y-52351D02*
X46673D01*
X20250Y-52551D02*
X46873D01*
X20250Y-52151D02*
X46473D01*
X20250Y-52051D02*
X46373D01*
X20250Y-52251D02*
X46573D01*
X20250Y-52951D02*
X47273D01*
X20250Y-52851D02*
X47173D01*
X20250Y-53051D02*
X47373D01*
X20250Y-52651D02*
X46973D01*
X20250Y-52751D02*
X47073D01*
X20250Y-51351D02*
X45808D01*
X20250Y-51251D02*
X45745D01*
X20250Y-51451D02*
X45875D01*
X20250Y-51051D02*
X45629D01*
X20250Y-50951D02*
X45576D01*
X20250Y-51151D02*
X45685D01*
X20250Y-51851D02*
X46186D01*
X20250Y-51751D02*
X46101D01*
X20250Y-51951D02*
X46277D01*
X20250Y-51551D02*
X45946D01*
X20250Y-51651D02*
X46021D01*
X20250Y-54651D02*
X48864D01*
X20250Y-54551D02*
X48793D01*
X20250Y-54751D02*
X48939D01*
X20250Y-54351D02*
X48663D01*
X20250Y-54251D02*
X48573D01*
X20250Y-54451D02*
X48726D01*
X20250Y-55151D02*
X49287D01*
X20250Y-55051D02*
X49192D01*
X20250Y-55251D02*
X49388D01*
X20250Y-54851D02*
X49018D01*
X20250Y-54951D02*
X49103D01*
X20250Y-53551D02*
X47873D01*
X20250Y-53451D02*
X47773D01*
X20250Y-53651D02*
X47973D01*
X20250Y-53251D02*
X47573D01*
X20250Y-53151D02*
X47473D01*
X20250Y-53351D02*
X47673D01*
X20250Y-54051D02*
X48373D01*
X20250Y-53951D02*
X48273D01*
X20250Y-54151D02*
X48473D01*
X20250Y-53751D02*
X48073D01*
X20250Y-53851D02*
X48173D01*
X20250Y-60551D02*
X49697D01*
X20250Y-60451D02*
X49847D01*
X20250Y-60651D02*
X49548D01*
X20250Y-60851D02*
X49248D01*
X20250Y-60751D02*
X49398D01*
X20250Y-60951D02*
X49132D01*
X20250Y-61151D02*
X48932D01*
X20250Y-61051D02*
X49032D01*
X20250Y-61251D02*
X48832D01*
X20250Y-61351D02*
X48694D01*
X20250Y-61451D02*
X48545D01*
X20250Y-59851D02*
X50608D01*
X20250Y-59751D02*
X50722D01*
X20250Y-59951D02*
X50494D01*
X20250Y-60151D02*
X50266D01*
X20250Y-60051D02*
X50380D01*
X20250Y-60251D02*
X50146D01*
X20250Y-60351D02*
X49997D01*
X18000Y-61551D02*
X48395D01*
X18000Y-61651D02*
X48303D01*
X18000Y-61751D02*
X48236D01*
X18000Y-61851D02*
X48169D01*
X18000Y-63151D02*
X47301D01*
X18000Y-63051D02*
X47368D01*
X18000Y-63251D02*
X47234D01*
X18000Y-63451D02*
X47124D01*
X18000Y-63351D02*
X47167D01*
X18000Y-63551D02*
X47104D01*
X18000Y-63751D02*
X47064D01*
X18000Y-63651D02*
X47084D01*
X18000Y-63851D02*
X47045D01*
X18000Y-63951D02*
X47023D01*
X20250Y-64051D02*
X46981D01*
X18000Y-62051D02*
X48032D01*
X18000Y-61951D02*
X48103D01*
X18000Y-62151D02*
X47932D01*
X18000Y-62351D02*
X47732D01*
X18000Y-62251D02*
X47832D01*
X18000Y-62451D02*
X47644D01*
X18000Y-62651D02*
X47561D01*
X18000Y-62551D02*
X47603D01*
X18000Y-62751D02*
X47520D01*
X18000Y-62851D02*
X47478D01*
X18000Y-62951D02*
X47434D01*
X20250Y-65351D02*
X46746D01*
X20250Y-65251D02*
X46766D01*
X20250Y-65451D02*
X46726D01*
X20250Y-65651D02*
X46707D01*
X20250Y-65551D02*
X46707D01*
X20250Y-65751D02*
X46707D01*
X20250Y-66151D02*
X46707D01*
X20250Y-66051D02*
X46707D01*
X20250Y-66251D02*
X46707D01*
X20250Y-65851D02*
X46707D01*
X20250Y-65951D02*
X46707D01*
X20250Y-64251D02*
X46898D01*
X20250Y-64151D02*
X46940D01*
X20250Y-64351D02*
X46857D01*
X20250Y-64551D02*
X46815D01*
X20250Y-64451D02*
X46816D01*
X20250Y-64651D02*
X46815D01*
X20250Y-64851D02*
X46815D01*
X20250Y-64751D02*
X46815D01*
X20250Y-64951D02*
X46815D01*
X20250Y-65051D02*
X46806D01*
X20250Y-65151D02*
X46786D01*
X20250Y-67851D02*
X46707D01*
X20250Y-67751D02*
X46707D01*
X20250Y-67951D02*
X46707D01*
X20250Y-67551D02*
X46707D01*
X20250Y-67451D02*
X46707D01*
X20250Y-67651D02*
X46707D01*
X20250Y-68351D02*
X46707D01*
X20250Y-68251D02*
X46707D01*
X20250Y-69851D02*
X46707D01*
X20250Y-68051D02*
X46707D01*
X20250Y-68151D02*
X46707D01*
X20250Y-66751D02*
X46707D01*
X20250Y-66651D02*
X46707D01*
X20250Y-66851D02*
X46707D01*
X20250Y-66451D02*
X46707D01*
X20250Y-66351D02*
X46707D01*
X20250Y-66551D02*
X46707D01*
X20250Y-67251D02*
X46707D01*
X20250Y-67151D02*
X46707D01*
X20250Y-67351D02*
X46707D01*
X20250Y-66951D02*
X46707D01*
X20250Y-67051D02*
X46707D01*
X40750Y-16351D02*
X43000D01*
X40750Y-16251D02*
X43000D01*
X40750Y-16451D02*
X43000D01*
X40750Y-16051D02*
X43000D01*
X40750Y-16000D02*
X43000D01*
X40750Y-16151D02*
X43000D01*
Y-17750D02*
Y-16000D01*
X40750Y-16551D02*
X43000D01*
X40750Y-16651D02*
X43000D01*
X31750Y-16750D02*
Y-7750D01*
Y-16750D02*
X40750D01*
X24856Y-13051D02*
X31750D01*
X22750Y-16351D02*
X31750D01*
X22750Y-16451D02*
X31750D01*
X27250Y-12851D02*
X31750D01*
X27250Y-12751D02*
X31750D01*
X27250Y-12951D02*
X31750D01*
X22750Y-16851D02*
X43000D01*
X22750Y-16751D02*
X43000D01*
X22750Y-16951D02*
X43000D01*
X22750Y-16551D02*
X31750D01*
X22750Y-16651D02*
X31750D01*
X36747Y-22751D02*
X42750D01*
X36747Y-22651D02*
X42750D01*
X36747Y-22851D02*
X42750D01*
X36747Y-22451D02*
X42750D01*
X36747Y-22351D02*
X42750D01*
X36747Y-22551D02*
X42750D01*
X36747Y-23251D02*
X42750D01*
X36747Y-23151D02*
X42750D01*
X36747Y-23351D02*
X42750D01*
X36747Y-22951D02*
X42750D01*
X36747Y-23051D02*
X42750D01*
X22750Y-17451D02*
X43000D01*
X22750Y-17351D02*
X43000D01*
X22750Y-17551D02*
X43000D01*
X22750Y-17151D02*
X43000D01*
X22750Y-17051D02*
X43000D01*
X22750Y-17251D02*
X43000D01*
X36747Y-22151D02*
X42750D01*
X22750Y-17651D02*
X43000D01*
X36747Y-22251D02*
X42750D01*
X27747Y-17752D02*
X36747D01*
Y-22051D02*
X42750D01*
X24656Y-13251D02*
X31750D01*
X24556Y-13351D02*
X31750D01*
X24456Y-13451D02*
X31750D01*
X27250Y-13000D02*
Y-9000D01*
X24907Y-13000D02*
X27250D01*
X24756Y-13151D02*
X31750D01*
X24156Y-13751D02*
X31750D01*
X24056Y-13851D02*
X31750D01*
X23956Y-13951D02*
X31750D01*
X24356Y-13551D02*
X31750D01*
X24256Y-13651D02*
X31750D01*
X23556Y-14351D02*
X31750D01*
X23456Y-14451D02*
X31750D01*
X23356Y-14551D02*
X31750D01*
X23856Y-14051D02*
X31750D01*
X23756Y-14151D02*
X31750D01*
X23656Y-14251D02*
X31750D01*
X23156Y-14751D02*
X31750D01*
X23056Y-14851D02*
X31750D01*
X22956Y-14951D02*
X31750D01*
X22750Y-15157D02*
X24907Y-13000D01*
X23256Y-14651D02*
X31750D01*
X22856Y-15051D02*
X31750D01*
X22756Y-15151D02*
X31750D01*
X22750Y-16251D02*
X31750D01*
X22750Y-17951D02*
X27747D01*
X22750Y-17851D02*
X27747D01*
X22750Y-18051D02*
X27747D01*
Y-22757D02*
Y-17752D01*
X22750Y-18351D02*
X27747D01*
X22750Y-18451D02*
X27747D01*
X22750Y-18151D02*
X27747D01*
X22750Y-18251D02*
X27747D01*
X22750Y-15651D02*
X31750D01*
X22750Y-15551D02*
X31750D01*
X22750Y-15751D02*
X31750D01*
X22750Y-15351D02*
X31750D01*
X22750Y-15251D02*
X31750D01*
X22750Y-15451D02*
X31750D01*
X22750Y-16051D02*
X31750D01*
X22750Y-15951D02*
X31750D01*
X22750Y-16151D02*
X31750D01*
X22750Y-18500D02*
Y-15157D01*
Y-15851D02*
X31750D01*
X36747Y-24151D02*
X42750D01*
X36747Y-24051D02*
X42750D01*
X36747Y-24251D02*
X42750D01*
X36747Y-23851D02*
X42750D01*
X36747Y-23751D02*
X42750D01*
X36747Y-23951D02*
X42750D01*
Y-30000D02*
Y-26000D01*
X36747Y-24551D02*
X42750D01*
Y-30000D02*
Y-26000D01*
X36747Y-24351D02*
X42750D01*
X36747Y-24451D02*
X42750D01*
X35247Y-27351D02*
X42750D01*
X35247Y-27251D02*
X42750D01*
X35247Y-27451D02*
X42750D01*
X36747Y-23551D02*
X42750D01*
X36747Y-23451D02*
X42750D01*
X36747Y-23651D02*
X42750D01*
X35247Y-27851D02*
X42750D01*
X35247Y-27751D02*
X42750D01*
X35247Y-27951D02*
X42750D01*
X35247Y-27551D02*
X42750D01*
X35247Y-27651D02*
X42750D01*
X36750Y-29551D02*
X42750D01*
X36750Y-29451D02*
X42750D01*
X36750Y-29651D02*
X42750D01*
X36750Y-29251D02*
X42750D01*
X36750Y-29151D02*
X42750D01*
X36750Y-29351D02*
X42750D01*
X36750Y-30051D02*
X42750D01*
X36750Y-29951D02*
X42750D01*
X36750Y-30151D02*
X42750D01*
X36750Y-29751D02*
X42750D01*
X36750Y-29851D02*
X42750D01*
X35247Y-28451D02*
X42750D01*
X35247Y-28351D02*
X42750D01*
X36750Y-28551D02*
X42750D01*
X35247Y-28151D02*
X42750D01*
X35247Y-28051D02*
X42750D01*
X35247Y-28251D02*
X42750D01*
X36750Y-28951D02*
X42750D01*
X36750Y-28851D02*
X42750D01*
X36750Y-29051D02*
X42750D01*
X36750Y-28651D02*
X42750D01*
X36750Y-28751D02*
X42750D01*
X36747Y-25651D02*
X42750D01*
X36747Y-25551D02*
X42750D01*
X36747Y-25751D02*
X42750D01*
X36747Y-25351D02*
X42750D01*
X36747Y-25251D02*
X42750D01*
X36747Y-25451D02*
X42750D01*
Y-26000D02*
Y-22000D01*
X36747Y-26051D02*
X42750D01*
X36747Y-26151D02*
X42750D01*
X36747Y-25851D02*
X42750D01*
X36747Y-25951D02*
X42750D01*
X36747Y-25051D02*
X42750D01*
X36747Y-24951D02*
X42750D01*
X36747Y-25151D02*
X42750D01*
X36747Y-24751D02*
X42750D01*
X36747Y-24651D02*
X42750D01*
X36747Y-24851D02*
X42750D01*
X36747Y-26753D02*
Y-17752D01*
X22743Y-26051D02*
X23663D01*
X22797Y-26151D02*
X23636D01*
X22847Y-26251D02*
X23612D01*
X36747Y-26651D02*
X42750D01*
X36747Y-26551D02*
X42750D01*
X36747Y-26751D02*
X42750D01*
X36750Y-30351D02*
X42670D01*
X36750Y-30251D02*
X42718D01*
X36750Y-30451D02*
X42625D01*
X36750Y-30651D02*
X42544D01*
X36750Y-30551D02*
X42583D01*
X36750Y-30751D02*
X42507D01*
X36750Y-34750D02*
Y-28500D01*
Y-30851D02*
X42473D01*
X36747Y-26451D02*
X42750D01*
X35247Y-26851D02*
X42750D01*
X35247Y-26951D02*
X42750D01*
X36747Y-26351D02*
X42750D01*
X36747Y-26251D02*
X42750D01*
X35247Y-26753D02*
X36747D01*
X35247Y-27151D02*
X42750D01*
X35247Y-27051D02*
X42750D01*
X35247Y-28500D02*
X36750D01*
X35247D02*
Y-26753D01*
X23250Y-29323D02*
Y-28500D01*
X22000Y-20051D02*
X27747D01*
X22000Y-19951D02*
X27747D01*
X22000Y-20151D02*
X27747D01*
X22000Y-19751D02*
X27747D01*
X22000Y-19651D02*
X27747D01*
X22000Y-19851D02*
X27747D01*
X22000Y-20551D02*
X27747D01*
X22000Y-20451D02*
X27747D01*
X22000Y-20651D02*
X27747D01*
X22000Y-20251D02*
X27747D01*
X22000Y-20351D02*
X27747D01*
X22000Y-18951D02*
X27747D01*
X22000Y-18851D02*
X27747D01*
X22000Y-19051D02*
X27747D01*
X22000Y-18651D02*
X27747D01*
X22000Y-18551D02*
X27747D01*
X22000Y-18751D02*
X27747D01*
X22000Y-19451D02*
X27747D01*
X22000Y-19351D02*
X27747D01*
X22000Y-19551D02*
X27747D01*
X22000Y-19151D02*
X27747D01*
X22000Y-19251D02*
X27747D01*
X22000Y-22251D02*
X27747D01*
X22000Y-22151D02*
X27747D01*
X22000Y-22351D02*
X27747D01*
X22000Y-21951D02*
X27747D01*
X22000Y-21851D02*
X27747D01*
X22000Y-22051D02*
X27747D01*
X22000Y-22651D02*
X27747D01*
X22000Y-22551D02*
X27747D01*
X22000Y-22751D02*
X27747D01*
X22000Y-22451D02*
X27747D01*
X22000Y-22851D02*
X27053D01*
X22000Y-21151D02*
X27747D01*
X22000Y-21051D02*
X27747D01*
X22000Y-21251D02*
X27747D01*
X22000Y-20851D02*
X27747D01*
X22000Y-20751D02*
X27747D01*
X22000Y-20951D02*
X27747D01*
X22000Y-21651D02*
X27747D01*
X22000Y-21551D02*
X27747D01*
X22000Y-21751D02*
X27747D01*
X22000Y-21351D02*
X27747D01*
X22000Y-21451D02*
X27747D01*
X22000Y-23051D02*
X26382D01*
X22000Y-22951D02*
X26670D01*
X22000Y-23151D02*
X26143D01*
X22000Y-23351D02*
X25754D01*
X22000Y-23251D02*
X25937D01*
X22000Y-23451D02*
X25588D01*
X22000Y-23651D02*
X25299D01*
X22000Y-23551D02*
X25438D01*
X22000Y-23751D02*
X25171D01*
X22000Y-24250D02*
Y-22500D01*
Y-24250D02*
Y-22500D01*
Y-18500D01*
X5311Y-23251D02*
X6647D01*
X5232Y-23351D02*
X6739D01*
X5524Y-22951D02*
X6401D01*
X5457Y-23051D02*
X6478D01*
X5386Y-23151D02*
X6560D01*
X4963Y-23651D02*
X7053D01*
X4861Y-23751D02*
X7173D01*
X5147Y-23451D02*
X6837D01*
X5058Y-23551D02*
X6942D01*
X22000Y-23951D02*
X24940D01*
X22000Y-23851D02*
X25051D01*
X22000Y-24051D02*
X24835D01*
X4754Y-23851D02*
X7301D01*
X4638Y-23951D02*
X7440D01*
X22000Y-24151D02*
X24737D01*
X22500Y-24351D02*
X24558D01*
X22500Y-24251D02*
X24645D01*
X22500Y-24451D02*
X24476D01*
X22500Y-24551D02*
X24399D01*
X22500Y-24651D02*
X24327D01*
X4236Y-24251D02*
X7940D01*
X4078Y-24351D02*
X8147D01*
X3904Y-24451D02*
X8387D01*
X4514Y-24051D02*
X7591D01*
X4381Y-24151D02*
X7757D01*
X-1481Y-24451D02*
X-404D01*
X3710Y-24551D02*
X8676D01*
X3488Y-24651D02*
X9061D01*
X-2246Y-24751D02*
X274D01*
X-1694Y-24551D02*
X-210D01*
X-1943Y-24651D02*
X12D01*
X22500Y-24851D02*
X24193D01*
X22500Y-24751D02*
X24258D01*
X22500Y-24951D02*
X24132D01*
X22500Y-25051D02*
X24074D01*
X22000Y-25093D02*
Y-24250D01*
X22500Y-25151D02*
X24020D01*
X22500Y-25351D02*
X23920D01*
X22500Y-25251D02*
X23968D01*
X22500Y-25451D02*
X23875D01*
X22500Y-25668D02*
Y-24250D01*
Y-25551D02*
X23833D01*
X22000Y-25093D02*
Y-24250D01*
X-2625Y-25051D02*
X9250D01*
X-2650Y-25151D02*
X9250D01*
X3226Y-24751D02*
X9250D01*
X2899Y-24851D02*
X9250D01*
X2413Y-24951D02*
X9250D01*
Y-27500D02*
Y-24687D01*
X-2740Y-25451D02*
X9250D01*
X1750Y-25551D02*
X9250D01*
X-2677Y-25251D02*
X9250D01*
X-2708Y-25351D02*
X9250D01*
X22558Y-25751D02*
X23757D01*
X22500Y-25651D02*
X23794D01*
X22624Y-25851D02*
X23723D01*
X22685Y-25951D02*
X23692D01*
X1750Y-27051D02*
X9250D01*
X1750Y-27151D02*
X9250D01*
X1750Y-27451D02*
X9250D01*
X1750Y-27251D02*
X9250D01*
X1750Y-27351D02*
X9250D01*
X1750Y-26051D02*
X9250D01*
X1750Y-25951D02*
X9250D01*
X1750Y-26151D02*
X9250D01*
X1750Y-25751D02*
X9250D01*
X1750Y-25651D02*
X9250D01*
X1750Y-25851D02*
X9250D01*
X1750Y-26551D02*
X9250D01*
X1750Y-26451D02*
X9250D01*
X1750Y-26651D02*
X9250D01*
X1750Y-26251D02*
X9250D01*
X1750Y-26351D02*
X9250D01*
X1750Y-28151D02*
X9000D01*
X1750Y-28051D02*
X9000D01*
X1750Y-28251D02*
X9000D01*
X1750Y-27851D02*
X9000D01*
X1750Y-27751D02*
X9000D01*
X1750Y-27951D02*
X9000D01*
Y-33920D02*
Y-27500D01*
X1750Y-28551D02*
X9000D01*
X1750Y-28651D02*
X9000D01*
X1750Y-28351D02*
X9000D01*
X1750Y-28451D02*
X9000D01*
X-2757Y-25500D02*
X1750D01*
Y-26751D02*
X9250D01*
X-2581Y-24851D02*
X601D01*
X-2602Y-24951D02*
X1087D01*
X1750Y-26951D02*
X9250D01*
X1750Y-26851D02*
X9250D01*
X1750Y-27651D02*
X9000D01*
X1750Y-31750D02*
Y-25500D01*
Y-27551D02*
X9000D01*
X1750Y-30251D02*
X9000D01*
X1750Y-30151D02*
X9000D01*
X1750Y-30351D02*
X9000D01*
X1750Y-29951D02*
X9000D01*
X1750Y-29851D02*
X9000D01*
X1750Y-30051D02*
X9000D01*
X1750Y-30751D02*
X9000D01*
X1750Y-30651D02*
X9000D01*
X1750Y-30851D02*
X9000D01*
X1750Y-30451D02*
X9000D01*
X1750Y-30551D02*
X9000D01*
X1750Y-29151D02*
X9000D01*
X1750Y-29051D02*
X9000D01*
X1750Y-29251D02*
X9000D01*
X1750Y-28851D02*
X9000D01*
X1750Y-28751D02*
X9000D01*
X1750Y-28951D02*
X9000D01*
X1750Y-29651D02*
X9000D01*
X1750Y-29551D02*
X9000D01*
X1750Y-29751D02*
X9000D01*
X1750Y-29351D02*
X9000D01*
X1750Y-29451D02*
X9000D01*
X36750Y-33951D02*
X42584D01*
X36750Y-33851D02*
X42544D01*
X36750Y-34051D02*
X42626D01*
X36750Y-33651D02*
X42474D01*
X36750Y-33551D02*
X42442D01*
X36750Y-33751D02*
X42508D01*
X36750Y-34451D02*
X42825D01*
X36750Y-34351D02*
X42771D01*
X36750Y-34551D02*
X42883D01*
X36750Y-34151D02*
X42671D01*
X36750Y-34251D02*
X42719D01*
X36750Y-31051D02*
X42413D01*
X36750Y-30951D02*
X42442D01*
X36750Y-31151D02*
X42386D01*
X36750Y-31351D02*
X42341D01*
X36750Y-31251D02*
X42362D01*
X36750Y-31451D02*
X42322D01*
X36750Y-33351D02*
X42387D01*
X36750Y-33251D02*
X42363D01*
X36750Y-33451D02*
X42413D01*
X36750Y-33051D02*
X42322D01*
X36750Y-33151D02*
X42341D01*
X36750Y-36151D02*
X44507D01*
X36750Y-36051D02*
X44341D01*
X36750Y-36251D02*
X44690D01*
X36750Y-35851D02*
X44051D01*
X36750Y-35751D02*
X43923D01*
X36750Y-35951D02*
X44190D01*
X36750Y-38851D02*
X45573D01*
X36750Y-36551D02*
X45426D01*
X36750Y-38951D02*
X45541D01*
X36750Y-36351D02*
X44897D01*
X36750Y-36451D02*
X45137D01*
X36750Y-35051D02*
X43228D01*
X36750Y-34951D02*
X43151D01*
X36750Y-35151D02*
X43310D01*
X36750Y-34751D02*
X43009D01*
X36750Y-34651D02*
X42944D01*
X36750Y-34851D02*
X43078D01*
X36750Y-35551D02*
X43692D01*
X36750Y-35451D02*
X43587D01*
X36750Y-35651D02*
X43803D01*
X36750Y-35251D02*
X43397D01*
X36750Y-35351D02*
X43489D01*
X36750Y-32551D02*
X42260D01*
X36750Y-32451D02*
X42255D01*
X36750Y-32651D02*
X42268D01*
X36750Y-32251D02*
X42250D01*
X36750Y-32151D02*
X42251D01*
X36750Y-32351D02*
X42251D01*
X36750Y-32851D02*
X42290D01*
X36750Y-32751D02*
X42278D01*
X36750Y-32951D02*
X42305D01*
X36750Y-36500D02*
Y-34750D01*
Y-36500D02*
Y-34750D01*
Y-31651D02*
X42290D01*
X36750Y-31551D02*
X42305D01*
X36750Y-31751D02*
X42278D01*
X36750Y-31951D02*
X42260D01*
X36750Y-31851D02*
X42268D01*
X36750Y-32051D02*
X42254D01*
X24730Y-36651D02*
X28750D01*
X24676Y-36551D02*
X28750D01*
X24781Y-36751D02*
X28750D01*
X24647Y-36500D02*
X28750D01*
X25232Y-38351D02*
X28750D01*
X25222Y-38251D02*
X28750D01*
X25240Y-38451D02*
X28750D01*
X25195Y-38051D02*
X28750D01*
X25178Y-37951D02*
X28750D01*
X25210Y-38151D02*
X28750D01*
X25250Y-38751D02*
X28750D01*
X25249Y-38851D02*
X28750D01*
X25245Y-38951D02*
X28750D01*
X25246Y-38551D02*
X28750D01*
X25249Y-38651D02*
X28750D01*
X24993Y-37251D02*
X28750D01*
X24956Y-37151D02*
X28750D01*
X25027Y-37351D02*
X28750D01*
X24875Y-36951D02*
X28750D01*
X24830Y-36851D02*
X28750D01*
X24917Y-37051D02*
X28750D01*
X25138Y-37751D02*
X28750D01*
X25114Y-37651D02*
X28750D01*
X25159Y-37851D02*
X28750D01*
X25058Y-37451D02*
X28750D01*
X25087Y-37551D02*
X28750D01*
X36750Y-40551D02*
X45345D01*
X36750Y-40151D02*
X45346D01*
X36750Y-40651D02*
X45345D01*
X36750Y-40351D02*
X45345D01*
X36750Y-40251D02*
X45345D01*
X36750Y-40451D02*
X45345D01*
Y-44787D02*
Y-40250D01*
X36750Y-40951D02*
X45345D01*
X36750Y-41051D02*
X45345D01*
X36750Y-40751D02*
X45345D01*
X36750Y-40851D02*
X45345D01*
X36750Y-39151D02*
X45484D01*
X36750Y-39051D02*
X45511D01*
X36750Y-39251D02*
X45460D01*
X36750Y-39451D02*
X45418D01*
X36750Y-39351D02*
X45438D01*
X36750Y-39551D02*
X45401D01*
X36750Y-39751D02*
X45373D01*
X36750Y-39651D02*
X45386D01*
X36750Y-39851D02*
X45363D01*
X36750Y-39951D02*
X45355D01*
X36750Y-40051D02*
X45349D01*
X36750Y-42251D02*
X45345D01*
X36750Y-42151D02*
X45345D01*
X36750Y-42351D02*
X45345D01*
X36750Y-41951D02*
X45345D01*
X36750Y-41851D02*
X45345D01*
X36750Y-42051D02*
X45345D01*
X36750Y-42651D02*
X45345D01*
X36750Y-42451D02*
X45345D01*
X36750Y-42551D02*
X45345D01*
X36750Y-41651D02*
X45345D01*
X36750Y-41551D02*
X45345D01*
X36750Y-41751D02*
X45345D01*
X36750Y-41351D02*
X45345D01*
X36750Y-41251D02*
X45345D01*
X36750Y-41451D02*
X45345D01*
X22363Y-42951D02*
X45345D01*
X22074Y-43051D02*
X45345D01*
X21689Y-43151D02*
X45345D01*
X22810Y-42751D02*
X45345D01*
X22603Y-42851D02*
X45345D01*
X25210Y-39351D02*
X28750D01*
X25195Y-39451D02*
X28750D01*
X25178Y-39551D02*
X28750D01*
X25240Y-39051D02*
X28750D01*
X25232Y-39151D02*
X28750D01*
X25222Y-39251D02*
X28750D01*
X36750Y-42750D02*
Y-36500D01*
X28750Y-42750D02*
Y-36500D01*
X25113Y-39851D02*
X28750D01*
X25159Y-39651D02*
X28750D01*
X25137Y-39751D02*
X28750D01*
X24992Y-40251D02*
X28750D01*
X24956Y-40351D02*
X28750D01*
X24916Y-40451D02*
X28750D01*
X25087Y-39951D02*
X28750D01*
X25058Y-40051D02*
X28750D01*
X25026Y-40151D02*
X28750D01*
X24781Y-40751D02*
X28750D01*
X24729Y-40851D02*
X28750D01*
X24675Y-40951D02*
X28750D01*
X24874Y-40551D02*
X28750D01*
X24829Y-40651D02*
X28750D01*
X36750Y-41151D02*
X45345D01*
X24422Y-41351D02*
X28750D01*
X24349Y-41451D02*
X28750D01*
X24617Y-41051D02*
X28750D01*
X24556Y-41151D02*
X28750D01*
X24491Y-41251D02*
X28750D01*
X45095Y-48949D02*
Y-46250D01*
X28750Y-42750D02*
X36750D01*
X33139Y-78483D02*
X39501Y-76650D01*
X24272Y-41551D02*
X28750D01*
X26611Y-79592D02*
X33139Y-78483D01*
X23913Y-41951D02*
X28750D01*
X23809Y-42051D02*
X28750D01*
X23697Y-42151D02*
X28750D01*
X24190Y-41651D02*
X28750D01*
X24103Y-41751D02*
X28750D01*
X24011Y-41851D02*
X28750D01*
X23310Y-42451D02*
X28750D01*
X23159Y-42551D02*
X28750D01*
X22994Y-42651D02*
X28750D01*
X23577Y-42251D02*
X28750D01*
X23449Y-42351D02*
X28750D01*
X20250Y-44651D02*
X45345D01*
X20250Y-44551D02*
X45345D01*
X20250Y-44751D02*
X45345D01*
X20250Y-44451D02*
X45345D01*
X20250Y-44351D02*
X45345D01*
X20250Y-44851D02*
X45323D01*
X20250Y-45051D02*
X45261D01*
X20250Y-44951D02*
X45291D01*
X20250Y-45151D02*
X45234D01*
X20250Y-45251D02*
X45210D01*
X20250Y-45351D02*
X45188D01*
X20250Y-43651D02*
X45345D01*
X20250Y-43551D02*
X45345D01*
X20250Y-43751D02*
X45345D01*
X20250Y-43351D02*
X45345D01*
X20250Y-43251D02*
X45345D01*
X20250Y-43451D02*
X45345D01*
X20250Y-44151D02*
X45345D01*
X20250Y-44051D02*
X45345D01*
X20250Y-44251D02*
X45345D01*
X20250Y-43851D02*
X45345D01*
X20250Y-43951D02*
X45345D01*
X20250Y-46951D02*
X45095D01*
X20250Y-46851D02*
X45095D01*
X20250Y-47051D02*
X45095D01*
X20250Y-46651D02*
X45095D01*
X20250Y-46551D02*
X45095D01*
X20250Y-46751D02*
X45095D01*
X20250Y-47451D02*
X45095D01*
X20250Y-47351D02*
X45095D01*
X20250Y-47551D02*
X45095D01*
X20250Y-47151D02*
X45095D01*
X20250Y-47251D02*
X45095D01*
X20250Y-45551D02*
X45151D01*
X20250Y-45451D02*
X45168D01*
X20250Y-45651D02*
X45136D01*
X20250Y-45851D02*
X45113D01*
X20250Y-45751D02*
X45123D01*
X20250Y-45951D02*
X45105D01*
X20250Y-46151D02*
X45096D01*
X20250Y-46051D02*
X45100D01*
X20250Y-46451D02*
X45095D01*
X20250Y-46251D02*
X45095D01*
X20250Y-46351D02*
X45095D01*
X4127Y-32151D02*
X9000D01*
X3938Y-32051D02*
X9000D01*
X4288Y-32251D02*
X9000D01*
X3400Y-31851D02*
X9000D01*
X2702Y-31751D02*
X9000D01*
X3708Y-31951D02*
X9000D01*
X4669Y-32551D02*
X9000D01*
X4556Y-32451D02*
X9000D01*
X4772Y-32651D02*
X9000D01*
X4430Y-32351D02*
X9000D01*
X4756Y-32635D02*
X5477Y-33356D01*
X1750Y-31351D02*
X9000D01*
X1750Y-31251D02*
X9000D01*
X1750Y-31451D02*
X9000D01*
X1750Y-31051D02*
X9000D01*
X1750Y-30951D02*
X9000D01*
X1750Y-31151D02*
X9000D01*
X1750Y-31651D02*
X9000D01*
X1750Y-31551D02*
X9000D01*
X1750Y-31750D02*
X2629D01*
X20250Y-47851D02*
X45095D01*
X20250Y-47751D02*
X45095D01*
X20250Y-47951D02*
X45095D01*
X20250Y-47651D02*
X45095D01*
X20250Y-48351D02*
X45095D01*
X20250Y-48251D02*
X45095D01*
X20250Y-48451D02*
X45095D01*
X20250Y-48051D02*
X45095D01*
X20250Y-48151D02*
X45095D01*
X5172Y-33051D02*
X9000D01*
X5072Y-32951D02*
X9000D01*
X5272Y-33151D02*
X9000D01*
X4972Y-32851D02*
X9000D01*
X4872Y-32751D02*
X9000D01*
X5372Y-33251D02*
X6407D01*
X7903Y-33451D02*
X9000D01*
X8208Y-33551D02*
X9000D01*
X6593Y-33251D02*
X9000D01*
X7499Y-33351D02*
X9000D01*
X20250Y-50051D02*
X45235D01*
X20250Y-49951D02*
X45211D01*
X20250Y-50151D02*
X45262D01*
X20250Y-49751D02*
X45169D01*
X20250Y-49651D02*
X45151D01*
X20250Y-49851D02*
X45188D01*
X20250Y-50551D02*
X45397D01*
X20250Y-50451D02*
X45359D01*
X20250Y-50651D02*
X45437D01*
X20250Y-50251D02*
X45292D01*
X20250Y-50351D02*
X45324D01*
X20250Y-48951D02*
X45095D01*
X20250Y-48851D02*
X45095D01*
X20250Y-49051D02*
X45096D01*
X20250Y-48651D02*
X45095D01*
X20250Y-48551D02*
X45095D01*
X20250Y-48751D02*
X45095D01*
X20250Y-49451D02*
X45124D01*
X20250Y-49351D02*
X45113D01*
X20250Y-49551D02*
X45136D01*
X20250Y-49151D02*
X45100D01*
X20250Y-49251D02*
X45105D01*
X20250Y-75151D02*
X43121D01*
X20250Y-75051D02*
X43362D01*
X20250Y-75251D02*
X42880D01*
X20250Y-75451D02*
X42397D01*
X20250Y-75351D02*
X42638D01*
X20250Y-75551D02*
X42155D01*
X20250Y-75751D02*
X41672D01*
X20250Y-75651D02*
X41914D01*
X20250Y-75851D02*
X41431D01*
X20250Y-75951D02*
X41190D01*
X20250Y-76051D02*
X40948D01*
X20250Y-50851D02*
X45527D01*
X20250Y-50751D02*
X45481D01*
X20250Y-74151D02*
X45535D01*
X20250Y-74351D02*
X45052D01*
X20250Y-74251D02*
X45294D01*
X20250Y-74451D02*
X44811D01*
X20250Y-74651D02*
X44328D01*
X20250Y-74551D02*
X44570D01*
X20250Y-74751D02*
X44087D01*
X20250Y-74851D02*
X43845D01*
X20250Y-74951D02*
X43604D01*
X20250Y-76851D02*
X38805D01*
X20250Y-76751D02*
X39152D01*
X20250Y-76951D02*
X38458D01*
X20250Y-77151D02*
X37763D01*
X20250Y-77051D02*
X38110D01*
X20250Y-77251D02*
X37416D01*
X20250Y-77451D02*
X36722D01*
X20250Y-77351D02*
X37069D01*
X20250Y-77551D02*
X36375D01*
X20250Y-77651D02*
X36028D01*
X20250Y-77751D02*
X35681D01*
X20250Y-76151D02*
X40707D01*
X18000Y-64000D02*
X20250D01*
Y-76251D02*
X40465D01*
X20250Y-61500D02*
Y-43222D01*
X18000Y-64000D02*
Y-61500D01*
X20250D01*
X20250Y-76451D02*
X39983D01*
X20250Y-76351D02*
X40224D01*
X20250Y-76551D02*
X39741D01*
X20250Y-79925D02*
Y-64000D01*
Y-76651D02*
X39499D01*
X20250Y-79051D02*
X29797D01*
X20250Y-78951D02*
X30386D01*
X20250Y-79151D02*
X29209D01*
X20250Y-79351D02*
X28032D01*
X20250Y-79251D02*
X28620D01*
X20250Y-79451D02*
X27443D01*
X20345Y-79944D02*
X26611Y-79592D01*
X20250Y-79551D02*
X26855D01*
X20250Y-79651D02*
X25567D01*
X20250Y-79751D02*
X23786D01*
X20250Y-79851D02*
X22006D01*
X20250Y-77951D02*
X34986D01*
X20250Y-77851D02*
X35333D01*
X20250Y-78051D02*
X34639D01*
X20250Y-78251D02*
X33945D01*
X20250Y-78151D02*
X34292D01*
X20250Y-78351D02*
X33598D01*
X20250Y-78551D02*
X32740D01*
X20250Y-78451D02*
X33251D01*
X20250Y-78651D02*
X32152D01*
X20250Y-78751D02*
X31563D01*
X20250Y-78851D02*
X30974D01*
X-40220Y64249D02*
X40220D01*
X-40423Y64149D02*
X40423D01*
X-40625Y64049D02*
X40625D01*
X-39611Y64549D02*
X39611D01*
X-39814Y64449D02*
X39814D01*
X-40017Y64349D02*
X40017D01*
X-41437Y63649D02*
X41437D01*
X-41639Y63549D02*
X41639D01*
X-41842Y63449D02*
X41842D01*
X-40828Y63949D02*
X40828D01*
X-41031Y63849D02*
X41031D01*
X-41234Y63749D02*
X41234D01*
X-42653Y63049D02*
X42653D01*
X-42856Y62949D02*
X42856D01*
X-43059Y62849D02*
X43059D01*
X-42045Y63349D02*
X42045D01*
X-42248Y63249D02*
X42248D01*
X-42450Y63149D02*
X42450D01*
X-43667Y62549D02*
X43667D01*
X-43870Y62449D02*
X43870D01*
X-44073Y62349D02*
X44073D01*
X-43262Y62749D02*
X43262D01*
X-43464Y62649D02*
X43464D01*
X-44856Y61949D02*
X44856D01*
X-45006Y61849D02*
X45006D01*
X-45156Y61749D02*
X45156D01*
X-44275Y62249D02*
X44275D01*
X-44478Y62149D02*
X44478D01*
X-44681Y62049D02*
X44681D01*
X-45605Y61449D02*
X45605D01*
X-45754Y61349D02*
X45754D01*
X-45904Y61249D02*
X45904D01*
X-45305Y61649D02*
X45305D01*
X-45455Y61549D02*
X45455D01*
X-46503Y60849D02*
X46503D01*
X-46652Y60749D02*
X46652D01*
X-46802Y60649D02*
X46802D01*
X-46054Y61149D02*
X46054D01*
X-46203Y61049D02*
X46203D01*
X-46353Y60949D02*
X46353D01*
X-47251Y60349D02*
X47251D01*
X-47401Y60249D02*
X47401D01*
X-47550Y60149D02*
X47550D01*
X-46952Y60549D02*
X46952D01*
X-47101Y60449D02*
X47101D01*
X-22917Y68449D02*
X22917D01*
X-24443Y68349D02*
X24443D01*
X-25968Y68249D02*
X25968D01*
X-20050Y68549D02*
X20050D01*
X-21391D02*
X-20050D01*
X-20000Y68539D02*
X20000D01*
X-27309Y68049D02*
X27309D01*
X-27812Y67949D02*
X27812D01*
X-28315Y67849D02*
X28315D01*
X-26469Y68216D02*
X-20382Y68615D01*
X-26806Y68149D02*
X26806D01*
X-30326Y67449D02*
X30326D01*
X-30828Y67349D02*
X30828D01*
X-31331Y67249D02*
X31331D01*
X-28817Y67749D02*
X28817D01*
X-29320Y67649D02*
X29320D01*
X-29823Y67549D02*
X29823D01*
X-32336Y67049D02*
X32336D01*
X-32834Y66949D02*
X32834D01*
X-33129Y66849D02*
X33129D01*
X-32827Y66951D02*
X-26469Y68216D01*
X-31834Y67149D02*
X31834D01*
X-34307Y66449D02*
X34307D01*
X-34602Y66349D02*
X34602D01*
X-34896Y66249D02*
X34896D01*
X-33423Y66749D02*
X33423D01*
X-33718Y66649D02*
X33718D01*
X-34012Y66549D02*
X34012D01*
X-35780Y65949D02*
X35780D01*
X-36075Y65849D02*
X36075D01*
X-36369Y65749D02*
X36369D01*
X-35191Y66149D02*
X35191D01*
X-35485Y66049D02*
X35485D01*
X-37547Y65349D02*
X37548D01*
X-37842Y65249D02*
X37842D01*
X-38137Y65149D02*
X38137D01*
X-36664Y65649D02*
X36664D01*
X-36958Y65549D02*
X36958D01*
X-37253Y65449D02*
X37253D01*
X-39003Y64849D02*
X39003D01*
X-39206Y64749D02*
X39206D01*
X-39409Y64649D02*
X39409D01*
X-38431Y65049D02*
X38431D01*
X-38726Y64949D02*
X38726D01*
X-48149Y59749D02*
X48149D01*
X-48299Y59649D02*
X48299D01*
X-48448Y59549D02*
X48448D01*
X-47700Y60049D02*
X47700D01*
X-47850Y59949D02*
X47850D01*
X-47999Y59849D02*
X47999D01*
X-48748Y59349D02*
X48748D01*
X-48897Y59249D02*
X48897D01*
X-49047Y59149D02*
X49047D01*
X-48598Y59449D02*
X48598D01*
X-4520Y43349D02*
X7500D01*
X-49646Y58749D02*
X49646D01*
X-49795Y58649D02*
X49795D01*
X-49945Y58549D02*
X49945D01*
X-49197Y59049D02*
X49197D01*
X-49346Y58949D02*
X49346D01*
X-49496Y58849D02*
X49496D01*
X-50340Y58249D02*
X50340D01*
X-50454Y58149D02*
X50454D01*
X-50568Y58049D02*
X50568D01*
X-50094Y58449D02*
X50094D01*
X-50226Y58349D02*
X50226D01*
X-4028Y41749D02*
X7500D01*
X-4040Y41849D02*
X7500D01*
X-4018Y41649D02*
X7500D01*
X-4072Y42049D02*
X7500D01*
X-4091Y42149D02*
X7500D01*
X-4055Y41949D02*
X7500D01*
X-4000Y41249D02*
X7500D01*
X-4001Y41349D02*
X7500D01*
X-4001Y41149D02*
X7500D01*
X-4010Y41549D02*
X7500D01*
X-4004Y41449D02*
X7500D01*
X-4294Y42849D02*
X7500D01*
X-4333Y42949D02*
X7500D01*
X-4257Y42749D02*
X7500D01*
X-4420Y43149D02*
X7500D01*
X-4468Y43249D02*
X7500D01*
X-4375Y43049D02*
X7500D01*
X-4136Y42349D02*
X7500D01*
X-4163Y42449D02*
X7500D01*
X-4112Y42249D02*
X7500D01*
X-4223Y42649D02*
X7500D01*
X-4192Y42549D02*
X7500D01*
X-5237Y44349D02*
X7500D01*
X-5335Y44449D02*
X7500D01*
X-5145Y44249D02*
X7500D01*
X-5551Y44649D02*
X7500D01*
X-5670Y44749D02*
X7500D01*
X-5440Y44549D02*
X7500D01*
X-4826Y43849D02*
X7500D01*
X-4899Y43949D02*
X7500D01*
X-4758Y43749D02*
X7500D01*
X-5058Y44149D02*
X7500D01*
X-4976Y44049D02*
X7500D01*
X-6643Y45349D02*
X2507D01*
X-6882Y45449D02*
X2341D01*
X-6436Y45249D02*
X2691D01*
X-7552Y45649D02*
X2051D01*
X-8403Y45749D02*
X1923D01*
X-7170Y45549D02*
X2190D01*
X-5937Y44949D02*
X3427D01*
X-6088Y45049D02*
X3137D01*
X-5799Y44849D02*
X3812D01*
X-6253Y45149D02*
X2898D01*
X-4004Y41049D02*
X7500D01*
X-4010Y40949D02*
X7500D01*
X-4018Y40849D02*
X7500D01*
X-4632Y43549D02*
X7500D01*
X-4693Y43649D02*
X7500D01*
X-4574Y43449D02*
X7500D01*
X-4055Y40549D02*
X7500D01*
X-4072Y40449D02*
X7500D01*
X-4091Y40349D02*
X7500D01*
X-4028Y40749D02*
X7500D01*
X-4040Y40649D02*
X7500D01*
X-14302Y42149D02*
X-12909D01*
X-15154Y42249D02*
X-12888D01*
X-13920Y42049D02*
X-12929D01*
X-24802Y40649D02*
X-18692D01*
X-25654Y40749D02*
X-18605D01*
X-24420Y40549D02*
X-18774D01*
X-24132Y40449D02*
X-18851D01*
X-23893Y40349D02*
X-18924D01*
X-51024Y57649D02*
X51024D01*
X-51139Y57549D02*
X51139D01*
X-51253Y57449D02*
X51253D01*
X-50682Y57949D02*
X50682D01*
X-50796Y57849D02*
X50796D01*
X-50911Y57749D02*
X50911D01*
X-51595Y57149D02*
X51595D01*
X-51709Y57049D02*
X51709D01*
X-51823Y56949D02*
X51823D01*
X-51367Y57349D02*
X51367D01*
X-51481Y57249D02*
X51481D01*
X-52279Y56549D02*
X52279D01*
X-52393Y56449D02*
X52393D01*
X-52507Y56349D02*
X52507D01*
X-51937Y56849D02*
X51937D01*
X-52051Y56749D02*
X52051D01*
X-52165Y56649D02*
X52165D01*
X-52849Y56049D02*
X52849D01*
X-52963Y55949D02*
X52963D01*
X-53077Y55849D02*
X53077D01*
X-52621Y56249D02*
X52621D01*
X-52735Y56149D02*
X52735D01*
X-53533Y55449D02*
X53533D01*
X-53647Y55349D02*
X53647D01*
X-53761Y55249D02*
X53761D01*
X-53191Y55749D02*
X53191D01*
X-53305Y55649D02*
X53305D01*
X-53419Y55549D02*
X53419D01*
X-54103Y54949D02*
X54103D01*
X-54217Y54849D02*
X54217D01*
X-54331Y54749D02*
X54331D01*
X-53875Y55149D02*
X53875D01*
X-53989Y55049D02*
X53989D01*
X-54787Y54349D02*
X54787D01*
X-54901Y54249D02*
X54901D01*
X-55015Y54149D02*
X55016D01*
X-54445Y54649D02*
X54445D01*
X-54559Y54549D02*
X54559D01*
X-54673Y54449D02*
X54673D01*
X-55110Y54049D02*
X55110D01*
X-55197Y53949D02*
X55197D01*
X-55285Y53849D02*
X55285D01*
X-55373Y53749D02*
X4653D01*
X-55460Y53649D02*
X3802D01*
X-55548Y53549D02*
X3420D01*
X-55636Y53449D02*
X3132D01*
X-55723Y53349D02*
X2893D01*
X-55811Y53249D02*
X2686D01*
X-55899Y53149D02*
X2503D01*
X-55986Y53049D02*
X2338D01*
X-56074Y52949D02*
X2187D01*
X-56162Y52849D02*
X2049D01*
X-56250Y52749D02*
X1920D01*
X-56337Y52649D02*
X1801D01*
X-56425Y52549D02*
X1690D01*
X-56513Y52449D02*
X1585D01*
X-56600Y52349D02*
X1487D01*
X-56688Y52249D02*
X1395D01*
X-56776Y52149D02*
X1308D01*
X-56863Y52049D02*
X1226D01*
X-56951Y51949D02*
X1149D01*
X-57039Y51849D02*
X1076D01*
X-57127Y51749D02*
X1008D01*
X-57214Y51649D02*
X943D01*
X-57302Y51549D02*
X882D01*
X-57390Y51449D02*
X824D01*
X-57477Y51349D02*
X769D01*
X-57565Y51249D02*
X718D01*
X-57653Y51149D02*
X670D01*
X-57740Y51049D02*
X625D01*
X-57828Y50949D02*
X583D01*
X-57916Y50849D02*
X544D01*
X-58004Y50749D02*
X507D01*
X-58091Y50649D02*
X473D01*
X-58179Y50549D02*
X442D01*
X-58267Y50449D02*
X413D01*
X-58354Y50349D02*
X386D01*
X-58442Y50249D02*
X362D01*
X-58530Y50149D02*
X341D01*
X-58617Y50049D02*
X322D01*
X-58705Y49949D02*
X305D01*
X-58793Y49849D02*
X290D01*
X-58881Y49749D02*
X278D01*
X-58968Y49649D02*
X268D01*
X-59056Y49549D02*
X260D01*
X-59144Y49449D02*
X254D01*
X-59231Y49349D02*
X251D01*
X-59319Y49249D02*
X250D01*
X-59586Y48849D02*
X268D01*
X-59653Y48749D02*
X278D01*
X-59720Y48649D02*
X290D01*
X-59385Y49149D02*
X251D01*
X-59452Y49049D02*
X255D01*
X-59519Y48949D02*
X260D01*
X-59920Y48349D02*
X341D01*
X-59987Y48249D02*
X363D01*
X-60054Y48149D02*
X387D01*
X-59786Y48549D02*
X305D01*
X-59853Y48449D02*
X322D01*
X-60321Y47749D02*
X508D01*
X-60388Y47649D02*
X544D01*
X-60455Y47549D02*
X584D01*
X-60120Y48049D02*
X413D01*
X-60187Y47949D02*
X442D01*
X-60254Y47849D02*
X474D01*
X-60655Y47249D02*
X719D01*
X-60722Y47149D02*
X771D01*
X-60789Y47049D02*
X825D01*
X-60521Y47449D02*
X626D01*
X-60588Y47349D02*
X671D01*
X-61056Y46649D02*
X1078D01*
X-61123Y46549D02*
X1151D01*
X-61189Y46449D02*
X1228D01*
X-60855Y46949D02*
X883D01*
X-60922Y46849D02*
X944D01*
X-60989Y46749D02*
X1009D01*
X-61390Y46149D02*
X1489D01*
X-61457Y46049D02*
X1587D01*
X-61524Y45949D02*
X1692D01*
X-61256Y46349D02*
X1310D01*
X-61323Y46249D02*
X1397D01*
X-61590Y45849D02*
X1803D01*
X-61657Y45749D02*
X-8597D01*
X-61724Y45649D02*
X-9448D01*
X-61791Y45549D02*
X-9830D01*
X-61858Y45449D02*
X-10118D01*
X-61925Y45349D02*
X-10357D01*
X-61991Y45249D02*
X-10564D01*
X-62058Y45149D02*
X-10747D01*
X-62125Y45049D02*
X-10912D01*
X-62192Y44949D02*
X-11063D01*
X-62259Y44849D02*
X-11201D01*
X-62325Y44749D02*
X-11330D01*
X-62392Y44649D02*
X-11449D01*
X-62459Y44549D02*
X-11560D01*
X-62526Y44449D02*
X-11665D01*
X-62593Y44349D02*
X-11763D01*
X-62660Y44249D02*
X-11855D01*
X-62726Y44149D02*
X-11942D01*
X-62793Y44049D02*
X-12024D01*
X-62860Y43949D02*
X-12101D01*
X-62925Y43849D02*
X-12174D01*
X-62974Y43749D02*
X-12242D01*
X-63023Y43649D02*
X-12307D01*
X-63073Y43549D02*
X-12368D01*
X-63122Y43449D02*
X-12426D01*
X-63171Y43349D02*
X-12480D01*
X-63221Y43249D02*
X-12532D01*
X-63270Y43149D02*
X-12580D01*
X-63319Y43049D02*
X-12625D01*
X-63369Y42949D02*
X-12667D01*
X-63418Y42849D02*
X-12706D01*
X-63467Y42749D02*
X-12743D01*
X-63516Y42649D02*
X-12777D01*
X-63566Y42549D02*
X-12809D01*
X-63615Y42449D02*
X-12837D01*
X-63664Y42349D02*
X-12864D01*
X-63714Y42249D02*
X-15346D01*
X-63763Y42149D02*
X-16198D01*
X-63812Y42049D02*
X-16580D01*
X-63862Y41949D02*
X-16868D01*
X-63911Y41849D02*
X-17107D01*
X-63960Y41749D02*
X-17314D01*
X-64010Y41649D02*
X-17497D01*
X-64059Y41549D02*
X-17662D01*
X-64108Y41449D02*
X-17813D01*
X-64158Y41349D02*
X-17951D01*
X-64207Y41249D02*
X-18080D01*
X-64256Y41149D02*
X-18199D01*
X-64306Y41049D02*
X-18311D01*
X-64355Y40949D02*
X-18415D01*
X-64404Y40849D02*
X-18513D01*
X-64453Y40749D02*
X-25846D01*
X-64503Y40649D02*
X-26698D01*
X-64552Y40549D02*
X-27080D01*
X-64601Y40449D02*
X-27368D01*
X-4192Y39949D02*
X7500D01*
X-4224Y39849D02*
X7500D01*
X-4258Y39749D02*
X7500D01*
X-4113Y40249D02*
X7500D01*
X-4137Y40149D02*
X7500D01*
X-4163Y40049D02*
X7500D01*
X-4376Y39449D02*
X7500D01*
X-4421Y39349D02*
X7500D01*
X-4469Y39249D02*
X7500D01*
X-4295Y39649D02*
X7500D01*
X-4334Y39549D02*
X7500D01*
X-10942Y36449D02*
X7500D01*
X-10974Y36349D02*
X7500D01*
X-11008Y36249D02*
X7500D01*
X-4521Y39149D02*
X7500D01*
X-4575Y39049D02*
X7500D01*
X-4633Y38949D02*
X7500D01*
X-11126Y35949D02*
X7500D01*
X-11171Y35849D02*
X7500D01*
X-11219Y35749D02*
X13750D01*
X-11044Y36149D02*
X7500D01*
X-11084Y36049D02*
X7500D01*
X-8750Y34149D02*
X13750D01*
X-8750Y34249D02*
X13750D01*
X-8750Y34049D02*
X13750D01*
X-8750Y34449D02*
X13750D01*
X-8750Y34549D02*
X13750D01*
X-8750Y34349D02*
X13750D01*
X-8750Y33849D02*
X13750D01*
X-8750Y33949D02*
X13750D01*
X-8750Y33749D02*
X10149D01*
X-8750Y33649D02*
X9250D01*
X-8750Y33549D02*
X8846D01*
X-11444Y35349D02*
X13750D01*
X-11509Y35249D02*
X13750D01*
X-11578Y35149D02*
X13750D01*
X-11271Y35649D02*
X13750D01*
X-11325Y35549D02*
X13750D01*
X-11383Y35449D02*
X13750D01*
X-8750Y34749D02*
X13750D01*
X-11810Y34849D02*
X13750D01*
X-8750Y34649D02*
X13750D01*
X-11651Y35049D02*
X13750D01*
X-11728Y34949D02*
X13750D01*
X-4901Y38549D02*
X7500D01*
X-4978Y38449D02*
X7500D01*
X-5060Y38349D02*
X7500D01*
X-4694Y38849D02*
X7500D01*
X-4759Y38749D02*
X7500D01*
X-4828Y38649D02*
X7500D01*
X-5337Y38049D02*
X7500D01*
X-5442Y37949D02*
X7500D01*
X-5553Y37849D02*
X7500D01*
X-5147Y38249D02*
X7500D01*
X-5239Y38149D02*
X7500D01*
X-5673Y37749D02*
X7500D01*
X-22689Y39549D02*
X-19375D01*
X-5801Y37649D02*
X7500D01*
X-22487Y39349D02*
X-19456D01*
X-22585Y39449D02*
X-19417D01*
X-22396Y39250D02*
X-19629D01*
X-6091Y37449D02*
X7500D01*
X-6257Y37349D02*
X7500D01*
X-6441Y37249D02*
X7500D01*
X-5940Y37549D02*
X7500D01*
X-6887Y37049D02*
X7500D01*
X-7177Y36949D02*
X7500D01*
X-7562Y36849D02*
X7500D01*
X-6648Y37149D02*
X7500D01*
X-8750Y32949D02*
X-1032D01*
X-8750Y32849D02*
X-1217D01*
X-8750Y32649D02*
X-1540D01*
X-8750Y32749D02*
X-1385D01*
X-8750Y32549D02*
X-1683D01*
X-8750Y32449D02*
X-1817D01*
X-8750Y32349D02*
X-1941D01*
X-10863Y36749D02*
X7500D01*
X-10887Y36649D02*
X7500D01*
X-10913Y36549D02*
X7500D01*
X-10822Y36949D02*
X-9823D01*
X-10841Y36849D02*
X-9438D01*
X-11896Y34750D02*
X-8750D01*
Y33349D02*
X30D01*
X-8750Y33449D02*
X538D01*
X-8750Y33249D02*
X-314D01*
X-8750Y33149D02*
X-590D01*
X-8750Y33049D02*
X-825D01*
X-4005Y-2451D02*
X4306D01*
X-4012Y-2551D02*
X4324D01*
X-4021Y-2651D02*
X4345D01*
X-4000Y-1951D02*
X4253D01*
X-4000Y749D02*
X4250D01*
X-4002Y-2351D02*
X4290D01*
X-4063Y-2951D02*
X4424D01*
X-4083Y-3051D02*
X4455D01*
X-4105Y-3151D02*
X4490D01*
X-4032Y-2751D02*
X4368D01*
X-4047Y-2851D02*
X4394D01*
X-4220Y-3551D02*
X4661D01*
X-4256Y-3651D02*
X4712D01*
X-4295Y-3751D02*
X4766D01*
X-4129Y-3251D02*
X4528D01*
X-4157Y-3351D02*
X4569D01*
X-4187Y-3451D02*
X4613D01*
X-4432Y-4051D02*
X4953D01*
X-4484Y-4151D02*
X5024D01*
X-4541Y-4251D02*
X5100D01*
X-4338Y-3851D02*
X4825D01*
X-4383Y-3951D02*
X4887D01*
X-4806Y-4651D02*
X5459D01*
X-4884Y-4751D02*
X5559D01*
X-4967Y-4851D02*
X5659D01*
X-4601Y-4351D02*
X5181D01*
X-4665Y-4451D02*
X5268D01*
X-4733Y-4551D02*
X5360D01*
X-5252Y-5151D02*
X5959D01*
X-5351Y-5251D02*
X6059D01*
X-5451Y-5351D02*
X6159D01*
X-5056Y-4951D02*
X5759D01*
X-5152Y-5051D02*
X5859D01*
X-5852Y-5751D02*
X6559D01*
X-5951Y-5851D02*
X6659D01*
X-6051Y-5951D02*
X6759D01*
X-5551Y-5451D02*
X6259D01*
X-5652Y-5551D02*
X6359D01*
X-5752Y-5651D02*
X6459D01*
X-6352Y-6251D02*
X7059D01*
X-6452Y-6351D02*
X7159D01*
X-6551Y-6451D02*
X7259D01*
X-6151Y-6051D02*
X6859D01*
X-6252Y-6151D02*
X6959D01*
X-8750Y31149D02*
X-2991D01*
X-8750Y31249D02*
X-2927D01*
X-8750Y31049D02*
X-3052D01*
X-8750Y30849D02*
X-3164D01*
X-8750Y30949D02*
X-3109D01*
X-8750Y30749D02*
X-3216D01*
X-8750Y30549D02*
X-3311D01*
X-8750Y30649D02*
X-3265D01*
X-8750Y30449D02*
X-3354D01*
X-8750Y30349D02*
X-3395D01*
X-8750Y30249D02*
X-3434D01*
X-8750Y32149D02*
X-2168D01*
X-8750Y32249D02*
X-2058D01*
X-8750Y32049D02*
X-2272D01*
X-8750Y31849D02*
X-2463D01*
X-8750Y31949D02*
X-2370D01*
X-8750Y31749D02*
X-2551D01*
X-8750Y31549D02*
X-2713D01*
X-8750Y31649D02*
X-2634D01*
X-8750Y31449D02*
X-2788D01*
X-8750Y28750D02*
Y34750D01*
Y31349D02*
X-2859D01*
X-8750Y29149D02*
X-3708D01*
X-8750Y29249D02*
X-3694D01*
X-8750Y29049D02*
X-3720D01*
X-8750Y28849D02*
X-3738D01*
X-8750Y28949D02*
X-3730D01*
X-8750Y28750D02*
X-6500D01*
X-5250D02*
X-3744D01*
X-6500D02*
X-5250D01*
X-6500D02*
X-5250D01*
X-8750Y30049D02*
X-3504D01*
X-8750Y30149D02*
X-3470D01*
X-8750Y29949D02*
X-3535D01*
X-8750Y29749D02*
X-3591D01*
X-8750Y29849D02*
X-3565D01*
X-8750Y29649D02*
X-3616D01*
X-8750Y29449D02*
X-3659D01*
X-8750Y29549D02*
X-3639D01*
X-8750Y29349D02*
X-3677D01*
X-22750Y20250D02*
X-20750D01*
X-18993D01*
X-23503Y40149D02*
X-19057D01*
X-23686Y40249D02*
X-18992D01*
X-23338Y40049D02*
X-19118D01*
X-23049Y39849D02*
X-19231D01*
X-23187Y39949D02*
X-19176D01*
X-22920Y39749D02*
X-19282D01*
X-22801Y39649D02*
X-19330D01*
X-31023Y23549D02*
X-23250D01*
X-31034Y23449D02*
X-23250D01*
X-31007Y23749D02*
X-23250D01*
X-31014Y23649D02*
X-23250D01*
X-31102Y23049D02*
X-23250D01*
X-31124Y22949D02*
X-23250D01*
X-31150Y22849D02*
X-23250D01*
X-31047Y23349D02*
X-23250D01*
X-31063Y23249D02*
X-23250D01*
X-31081Y23149D02*
X-23250D01*
X-31240Y22549D02*
X-23250D01*
X-31276Y22449D02*
X-23250D01*
X-31314Y22349D02*
X-23250D01*
X-31177Y22749D02*
X-23250D01*
X-31208Y22649D02*
X-23250D01*
X-31495Y21949D02*
X-23250D01*
X-31547Y21849D02*
X-23250D01*
X-31604Y21749D02*
X-23250D01*
X-31355Y22249D02*
X-23250D01*
X-31398Y22149D02*
X-23250D01*
X-31445Y22049D02*
X-23250D01*
Y20750D02*
X-19493D01*
X-28750Y20250D02*
X-22750D01*
X-20750D01*
X-31726Y21549D02*
X-23250D01*
X-31793Y21449D02*
X-23250D01*
X-32103Y21049D02*
X-23250D01*
X-32192Y20949D02*
X-23250D01*
X-32287Y20849D02*
X-23250D01*
X-31864Y21349D02*
X-23250D01*
X-31939Y21249D02*
X-23250D01*
X-32018Y21149D02*
X-23250D01*
X-32612Y20549D02*
X-19292D01*
X-32736Y20449D02*
X-19192D01*
X-32869Y20349D02*
X-19092D01*
X-32389Y20749D02*
X-19492D01*
X-32497Y20649D02*
X-19392D01*
X-31444Y25949D02*
X-23250D01*
X-31494Y26049D02*
X-23250D01*
X-31397Y25849D02*
X-23250D01*
X-24177Y26449D02*
X-23250D01*
X-24561Y26349D02*
X-23250D01*
Y20750D02*
Y26750D01*
X-31275Y25549D02*
X-23250D01*
X-31240Y25449D02*
X-23250D01*
X-31354Y25749D02*
X-23250D01*
X-31313Y25649D02*
X-23250D01*
X-31937Y26749D02*
X-27560D01*
X-64651Y40349D02*
X-27607D01*
X-31862Y26649D02*
X-27352D01*
X-32101Y26949D02*
X-27909D01*
X-64700Y40249D02*
X-27813D01*
X-32017Y26849D02*
X-27743D01*
X-31602Y26249D02*
X-23250D01*
X-31662Y26349D02*
X-26439D01*
X-31546Y26149D02*
X-23250D01*
X-31792Y26549D02*
X-27113D01*
X-31725Y26449D02*
X-26823D01*
X-31014Y24349D02*
X-23250D01*
X-31023Y24449D02*
X-23250D01*
X-31007Y24249D02*
X-23250D01*
X-31047Y24649D02*
X-23250D01*
X-31063Y24749D02*
X-23250D01*
X-31034Y24549D02*
X-23250D01*
X-31000Y23949D02*
X-23250D01*
X-31000Y24049D02*
X-23250D01*
X-31003Y23849D02*
X-23250D01*
X-31003Y24149D02*
X-23250D01*
X-28750Y12250D02*
X-26646D01*
X-31101Y24949D02*
X-23250D01*
X-31124Y25049D02*
X-23250D01*
X-31081Y24849D02*
X-23250D01*
X-31177Y25249D02*
X-23250D01*
X-31207Y25349D02*
X-23250D01*
X-31149Y25149D02*
X-23250D01*
X-31663Y21649D02*
X-23250D01*
X-37500Y12249D02*
X-26646D01*
X-37500Y12149D02*
X-26687D01*
X-37500Y12049D02*
X-26725D01*
X-37500Y11949D02*
X-26760D01*
X-29183Y6949D02*
X-25264D01*
X-29059Y6849D02*
X-25196D01*
X-28942Y6749D02*
X-25277D01*
X-29317Y7049D02*
X-25388D01*
X-28832Y6649D02*
X-25355D01*
X-28728Y6549D02*
X-25429D01*
X-28630Y6449D02*
X-25499D01*
X-28537Y6349D02*
X-25565D01*
X-28449Y6249D02*
X-25628D01*
X-30686Y7749D02*
X-26061D01*
X-31031Y7849D02*
X-26136D01*
X-30410Y7649D02*
X-25982D01*
X-37500Y8049D02*
X-26274D01*
X-37500Y8149D02*
X-26337D01*
X-31538Y7949D02*
X-26207D01*
X-29615Y7249D02*
X-25611D01*
X-29783Y7349D02*
X-25713D01*
X-29460Y7149D02*
X-25503D01*
X-30175Y7549D02*
X-25897D01*
X-29968Y7449D02*
X-25808D01*
X-27645Y4949D02*
X-26191D01*
X-27689Y5049D02*
X-26163D01*
X-27604Y4849D02*
X-26217D01*
X-27530Y4649D02*
X-26263D01*
X-27566Y4749D02*
X-26241D01*
X-27496Y4549D02*
X-26283D01*
X-27435Y4349D02*
X-26316D01*
X-27465Y4449D02*
X-26300D01*
X-27300Y3707D02*
X-26276Y2683D01*
X-27408Y4249D02*
X-26329D01*
X-27384Y4149D02*
X-26341D01*
X-28287Y6049D02*
X-25745D01*
X-28366Y6149D02*
X-25688D01*
X-28212Y5949D02*
X-25798D01*
X-28074Y5749D02*
X-25897D01*
X-28141Y5849D02*
X-25849D01*
X-28009Y5649D02*
X-25943D01*
X-27891Y5449D02*
X-26026D01*
X-27949Y5549D02*
X-25986D01*
X-27836Y5349D02*
X-26063D01*
X-27784Y5249D02*
X-26099D01*
X-27735Y5149D02*
X-26132D01*
X-37500Y10349D02*
X-26997D01*
X-37500Y10749D02*
X-26993D01*
X-37500Y10249D02*
X-26993D01*
X-37500Y10549D02*
X-27000D01*
X-37500Y10649D02*
X-26997D01*
X-37500Y10449D02*
X-27000D01*
X-37500Y9849D02*
X-26953D01*
X-37500Y9949D02*
X-26966D01*
X-37500Y9749D02*
X-26937D01*
X-37500Y10149D02*
X-26986D01*
X-37500Y10049D02*
X-26977D01*
X-37500Y11749D02*
X-26823D01*
X-37500Y11849D02*
X-26793D01*
X-37500Y11649D02*
X-26851D01*
X-37500Y11449D02*
X-26899D01*
X-37500Y11549D02*
X-26876D01*
X-37500Y11349D02*
X-26919D01*
X-37500Y11149D02*
X-26953D01*
X-37500Y11249D02*
X-26937D01*
X-37500Y11049D02*
X-26966D01*
X-37500Y10949D02*
X-26978D01*
X-37500Y10849D02*
X-26986D01*
X-27361Y4049D02*
X-26350D01*
X-37500Y8249D02*
X-26397D01*
X-27341Y3949D02*
X-26357D01*
X-37500Y8449D02*
X-26505D01*
X-37500Y8549D02*
X-26555D01*
X-37500Y8349D02*
X-26453D01*
X-27306Y3749D02*
X-26366D01*
X-27323Y3849D02*
X-26363D01*
X-27142Y3549D02*
X-26367D01*
X-27242Y3649D02*
X-26367D01*
X-37500Y9249D02*
X-26823D01*
X-37500Y9349D02*
X-26850D01*
X-37500Y9149D02*
X-26792D01*
X-37500Y9549D02*
X-26898D01*
X-37500Y9649D02*
X-26919D01*
X-37500Y9449D02*
X-26876D01*
X-37500Y8749D02*
X-26645D01*
X-37500Y8849D02*
X-26686D01*
X-37500Y8649D02*
X-26602D01*
X-37500Y9049D02*
X-26760D01*
X-37500Y8949D02*
X-26724D01*
X-64749Y40149D02*
X-27997D01*
X-64799Y40049D02*
X-28162D01*
X-64848Y39949D02*
X-28313D01*
X-64897Y39849D02*
X-28451D01*
X-64947Y39749D02*
X-28580D01*
X-64996Y39649D02*
X-28699D01*
X-65045Y39549D02*
X-28811D01*
X-65094Y39449D02*
X-28915D01*
X-65144Y39349D02*
X-29013D01*
X-65193Y39249D02*
X-29105D01*
X-65242Y39149D02*
X-29192D01*
X-65292Y39049D02*
X-29274D01*
X-65341Y38949D02*
X-29351D01*
X-65390Y38849D02*
X-29424D01*
X-65440Y38749D02*
X-29492D01*
X-65489Y38649D02*
X-29557D01*
X-65538Y38549D02*
X-29618D01*
X-65588Y38449D02*
X-29676D01*
X-65637Y38349D02*
X-29731D01*
X-65686Y38249D02*
X-29782D01*
X-65736Y38149D02*
X-29830D01*
X-67041Y34349D02*
X-29829D01*
X-67177Y33949D02*
X-29617D01*
X-67211Y33849D02*
X-29556D01*
X-67245Y33749D02*
X-29491D01*
X-67075Y34249D02*
X-29781D01*
X-67109Y34149D02*
X-29729D01*
X-67143Y34049D02*
X-29675D01*
X-67347Y33449D02*
X-29272D01*
X-67381Y33349D02*
X-29190D01*
X-67415Y33249D02*
X-29242D01*
X-67279Y33649D02*
X-29422D01*
X-67313Y33549D02*
X-29349D01*
X-67449Y33149D02*
X-29307D01*
X-67483Y33049D02*
X-29368D01*
X-67516Y32949D02*
X-29426D01*
X-67550Y32849D02*
X-29481D01*
X-67584Y32749D02*
X-29532D01*
X-67618Y32649D02*
X-29580D01*
X-67652Y32549D02*
X-29625D01*
X-67686Y32449D02*
X-29667D01*
X-67720Y32349D02*
X-29706D01*
X-67754Y32249D02*
X-29743D01*
X-67788Y32149D02*
X-29777D01*
X-38965Y64868D02*
X-32827Y66951D01*
X-44779Y62000D02*
X-38965Y64868D01*
X-50169Y58399D02*
X-44779Y62000D01*
X-55043Y54125D02*
X-50169Y58399D01*
X-59317Y49251D02*
X-55043Y54125D01*
X-62919Y43861D02*
X-59317Y49251D01*
X-65785Y38049D02*
X-29875D01*
X-65819Y37949D02*
X-29917D01*
X-65853Y37849D02*
X-29956D01*
X-65786Y38047D02*
X-62919Y43861D01*
X-65887Y37749D02*
X-29993D01*
X-65921Y37649D02*
X-30027D01*
X-65955Y37549D02*
X-30058D01*
X-65989Y37449D02*
X-30087D01*
X-66023Y37349D02*
X-30114D01*
X-66057Y37249D02*
X-30138D01*
X-66091Y37149D02*
X-30159D01*
X-66125Y37049D02*
X-30178D01*
X-66159Y36949D02*
X-30195D01*
X-66193Y36849D02*
X-30210D01*
X-66227Y36749D02*
X-30222D01*
X-66260Y36649D02*
X-30232D01*
X-66294Y36549D02*
X-30240D01*
X-66328Y36449D02*
X-30246D01*
X-66464Y36049D02*
X-30245D01*
X-66362Y36349D02*
X-30249D01*
X-66396Y36249D02*
X-30250D01*
X-66430Y36149D02*
X-30249D01*
X-66566Y35749D02*
X-30222D01*
X-66600Y35649D02*
X-30210D01*
X-66634Y35549D02*
X-30195D01*
X-66498Y35949D02*
X-30240D01*
X-66532Y35849D02*
X-30232D01*
X-66770Y35149D02*
X-30113D01*
X-66804Y35049D02*
X-30087D01*
X-66838Y34949D02*
X-30058D01*
X-66668Y35449D02*
X-30178D01*
X-66702Y35349D02*
X-30159D01*
X-66736Y35249D02*
X-30137D01*
X-66939Y34649D02*
X-29956D01*
X-66973Y34549D02*
X-29916D01*
X-67007Y34449D02*
X-29874D01*
X-66872Y34849D02*
X-30026D01*
X-66905Y34749D02*
X-29992D01*
X-32285Y27149D02*
X-28199D01*
X-32387Y27249D02*
X-28327D01*
X-32190Y27049D02*
X-28060D01*
X-32610Y27449D02*
X-28558D01*
X-32733Y27549D02*
X-28663D01*
X-32494Y27349D02*
X-28447D01*
X-33762Y19849D02*
X-28750D01*
X-34024Y19749D02*
X-28750D01*
X-34352Y19649D02*
X-28750D01*
X-33172Y20149D02*
X-28750D01*
X-33541Y19949D02*
X-28750D01*
X-37389Y19249D02*
X-28750D01*
X-37497Y19149D02*
X-28750D01*
X-37612Y19049D02*
X-28750D01*
X-34838Y19549D02*
X-28750D01*
X-37192Y19449D02*
X-28750D01*
X-37287Y19349D02*
X-28750D01*
X-38172Y18649D02*
X-28750D01*
X-38346Y18549D02*
X-28750D01*
X-38541Y18449D02*
X-28750D01*
X-37869Y18849D02*
X-28750D01*
X-38014Y18749D02*
X-28750D01*
X-37500Y13749D02*
X-28750D01*
X-37500Y13949D02*
X-28750D01*
X-37500Y13649D02*
X-28750D01*
X-37500Y14149D02*
X-28750D01*
X-37500Y14249D02*
X-28750D01*
X-37500Y14049D02*
X-28750D01*
X-37500Y13249D02*
X-28750D01*
X-37500Y13349D02*
X-28750D01*
X-37500Y13149D02*
X-28750D01*
X-37500Y13549D02*
X-28750D01*
X-37500Y13449D02*
X-28750D01*
X-39838Y18049D02*
X-28750D01*
X-44000Y14949D02*
X-28750D01*
X-44000Y14849D02*
X-28750D01*
X-38762Y18349D02*
X-28750D01*
X-39024Y18249D02*
X-28750D01*
X-39352Y18149D02*
X-28750D01*
X-37500Y14449D02*
X-28750D01*
X-37500Y14549D02*
X-28750D01*
X-37500Y14349D02*
X-28750D01*
X-37500Y14749D02*
X-28750D01*
X-37500Y14649D02*
X-28750D01*
X-67822Y32049D02*
X-29808D01*
X-67856Y31949D02*
X-29837D01*
X-67881Y31849D02*
X-29864D01*
X-67870Y31909D02*
X-65786Y38047D01*
X-67901Y31749D02*
X-29888D01*
X-67921Y31649D02*
X-29909D01*
X-34344Y28349D02*
X-29306D01*
X-34824Y28449D02*
X-29367D01*
X-34018Y28249D02*
X-29241D01*
X-67941Y31549D02*
X-29929D01*
X-67961Y31449D02*
X-29945D01*
X-67981Y31349D02*
X-29960D01*
X-68001Y31249D02*
X-29972D01*
X-68021Y31149D02*
X-29982D01*
X-68041Y31049D02*
X-29990D01*
X-68060Y30949D02*
X-29996D01*
X-68120Y30649D02*
X-29999D01*
X-68140Y30549D02*
X-29996D01*
X-68160Y30449D02*
X-29990D01*
X-68080Y30849D02*
X-29999D01*
X-68100Y30749D02*
X-30000D01*
X-33011Y27749D02*
X-28853D01*
X-33169Y27849D02*
X-28940D01*
X-32867Y27649D02*
X-28761D01*
X-33536Y28049D02*
X-29099D01*
X-33758Y28149D02*
X-29172D01*
X-33342Y27949D02*
X-29022D01*
X-28750Y12250D02*
Y20250D01*
X-33014Y20249D02*
X-28750D01*
X-33346Y20049D02*
X-28750D01*
X-37103Y19549D02*
X-36162D01*
X-39824Y26949D02*
X-38899D01*
X-37736Y18949D02*
X-28750D01*
X-48000Y15000D02*
X-44000D01*
X-52000D02*
X-48000D01*
X-44000Y14750D02*
X-41500D01*
X-37500Y13849D02*
X-28750D01*
X-37500Y10750D02*
Y14750D01*
Y13049D02*
X-28750D01*
X-52000Y11000D02*
Y15000D01*
X-41500Y14750D02*
X-37500D01*
X-68239Y30049D02*
X-29945D01*
X-68259Y29949D02*
X-29928D01*
X-68279Y29849D02*
X-29909D01*
X-68180Y30349D02*
X-29982D01*
X-68200Y30249D02*
X-29972D01*
X-68220Y30149D02*
X-29960D01*
X-68339Y29549D02*
X-29837D01*
X-68359Y29449D02*
X-29808D01*
X-68379Y29349D02*
X-29776D01*
X-68299Y29749D02*
X-29887D01*
X-68319Y29649D02*
X-29863D01*
X-68458Y28949D02*
X-29624D01*
X-68478Y28849D02*
X-29579D01*
X-68498Y28749D02*
X-29531D01*
X-68399Y29249D02*
X-29742D01*
X-68419Y29149D02*
X-29706D01*
X-68438Y29049D02*
X-29666D01*
X-68518Y28649D02*
X-29479D01*
X-68538Y28549D02*
X-29425D01*
X-68558Y28449D02*
X-36176D01*
X-68578Y28349D02*
X-36656D01*
X-68598Y28249D02*
X-36982D01*
X-68618Y28149D02*
X-37242D01*
X-68637Y28049D02*
X-37464D01*
X-68657Y27949D02*
X-37658D01*
X-68677Y27849D02*
X-37831D01*
X-68697Y27749D02*
X-37989D01*
X-68717Y27649D02*
X-38133D01*
X-68737Y27549D02*
X-38267D01*
X-68757Y27449D02*
X-38390D01*
X-68777Y27349D02*
X-38506D01*
X-68797Y27249D02*
X-38614D01*
X-68816Y27149D02*
X-38715D01*
X-68836Y27049D02*
X-38810D01*
X-68856Y26949D02*
X-41176D01*
X-68876Y26849D02*
X-41656D01*
X-68896Y26749D02*
X-41982D01*
X-68916Y26649D02*
X-42242D01*
X-68936Y26549D02*
X-42464D01*
X-68956Y26449D02*
X-42658D01*
X-68976Y26349D02*
X-42831D01*
X-68995Y26249D02*
X-42989D01*
X-69015Y26149D02*
X-43133D01*
X-69035Y26049D02*
X-43267D01*
X-69055Y25949D02*
X-43390D01*
X-69075Y25849D02*
X-43506D01*
X-69095Y25749D02*
X-43614D01*
X-69115Y25649D02*
X-43715D01*
X-69134Y25550D02*
X-67870Y31909D01*
X-69134Y25549D02*
X-43810D01*
X-69141Y25449D02*
X-43899D01*
X-69148Y25349D02*
X-43983D01*
X-69154Y25249D02*
X-44063D01*
X-69161Y25149D02*
X-44138D01*
X-69167Y25049D02*
X-44208D01*
X-69174Y24949D02*
X-44275D01*
X-69180Y24849D02*
X-44338D01*
X-69187Y24749D02*
X-44398D01*
X-69194Y24649D02*
X-44454D01*
X-69200Y24549D02*
X-44506D01*
X-69207Y24449D02*
X-44556D01*
X-69213Y24349D02*
X-44603D01*
X-69220Y24249D02*
X-44646D01*
X-69226Y24149D02*
X-44687D01*
X-69233Y24049D02*
X-44725D01*
X-69239Y23949D02*
X-44760D01*
X-69246Y23849D02*
X-44793D01*
X-69252Y23749D02*
X-44823D01*
X-69259Y23649D02*
X-44851D01*
X-69265Y23549D02*
X-44876D01*
X-69272Y23449D02*
X-44899D01*
X-69279Y23349D02*
X-44919D01*
X-69285Y23249D02*
X-44937D01*
X-69292Y23149D02*
X-44953D01*
X-69298Y23049D02*
X-44966D01*
X-69305Y22949D02*
X-44977D01*
X-69311Y22849D02*
X-44986D01*
X-69318Y22749D02*
X-44993D01*
X-69344Y22349D02*
X-44997D01*
X-69351Y22249D02*
X-44993D01*
X-69325Y22649D02*
X-44998D01*
X-69331Y22549D02*
X-45000D01*
X-69338Y22449D02*
X-45000D01*
X-69370Y21949D02*
X-44966D01*
X-69377Y21849D02*
X-44953D01*
X-69384Y21749D02*
X-44937D01*
X-69357Y22149D02*
X-44986D01*
X-69364Y22049D02*
X-44977D01*
X-69457Y17849D02*
X-28750D01*
X-69457Y17949D02*
X-28750D01*
X-69457Y17749D02*
X-28750D01*
X-69457Y18149D02*
X-41648D01*
X-69457Y18249D02*
X-41976D01*
X-69457Y18049D02*
X-41162D01*
X-69457Y17349D02*
X-28750D01*
X-69457Y17449D02*
X-28750D01*
X-69457Y17249D02*
X-28750D01*
X-69457Y17649D02*
X-28750D01*
X-69457Y17549D02*
X-28750D01*
X-69457Y18949D02*
X-43264D01*
X-69457Y19049D02*
X-43388D01*
X-69457Y18849D02*
X-43131D01*
X-69490Y19249D02*
X-43611D01*
X-69510Y19349D02*
X-43713D01*
X-69471Y19149D02*
X-43503D01*
X-69457Y18449D02*
X-42459D01*
X-69457Y18549D02*
X-42654D01*
X-69457Y18349D02*
X-42238D01*
X-69457Y18749D02*
X-42986D01*
X-69457Y18649D02*
X-42828D01*
X-69457Y15649D02*
X-28750D01*
X-69457Y15749D02*
X-28750D01*
X-69457Y15549D02*
X-28750D01*
X-69457Y15949D02*
X-28750D01*
X-69457Y16049D02*
X-28750D01*
X-69457Y15849D02*
X-28750D01*
X-69457Y15149D02*
X-28750D01*
X-69457Y15249D02*
X-28750D01*
X-69457Y15049D02*
X-28750D01*
X-69457Y15449D02*
X-28750D01*
X-69457Y15349D02*
X-28750D01*
X-69457Y16749D02*
X-28750D01*
X-69457Y16849D02*
X-28750D01*
X-69457Y16649D02*
X-28750D01*
X-69457Y17049D02*
X-28750D01*
X-69457Y17149D02*
X-28750D01*
X-69457Y16949D02*
X-28750D01*
X-69457Y16249D02*
X-28750D01*
X-69457Y16349D02*
X-28750D01*
X-69457Y16149D02*
X-28750D01*
X-69457Y16549D02*
X-28750D01*
X-69457Y16449D02*
X-28750D01*
X-69410Y21349D02*
X-44850D01*
X-69416Y21249D02*
X-44823D01*
X-69423Y21149D02*
X-44792D01*
X-69390Y21649D02*
X-44919D01*
X-69397Y21549D02*
X-44898D01*
X-69403Y21449D02*
X-44875D01*
X-69443Y20849D02*
X-44686D01*
X-69449Y20749D02*
X-44645D01*
X-69456Y20649D02*
X-44602D01*
X-69429Y21049D02*
X-44760D01*
X-69436Y20949D02*
X-44724D01*
X-69482Y20249D02*
X-44397D01*
X-69488Y20149D02*
X-44337D01*
X-69495Y20049D02*
X-44274D01*
X-69462Y20549D02*
X-44555D01*
X-69469Y20449D02*
X-44505D01*
X-69475Y20349D02*
X-44453D01*
X-69508Y19849D02*
X-44136D01*
X-69515Y19749D02*
X-44061D01*
X-69521Y19649D02*
X-43982D01*
X-69533Y19464D02*
X-69134Y25550D01*
X-69502Y19949D02*
X-44207D01*
X-69457Y13649D02*
X-52000D01*
X-69457Y13749D02*
X-52000D01*
X-69457Y13549D02*
X-52000D01*
X-69457Y13949D02*
X-52000D01*
X-69457Y14049D02*
X-52000D01*
X-69457Y13849D02*
X-52000D01*
X-69457Y13149D02*
X-52000D01*
X-69457Y13249D02*
X-52000D01*
X-69457Y13049D02*
X-52000D01*
X-69457Y13449D02*
X-52000D01*
X-69457Y13349D02*
X-52000D01*
X-69528Y19549D02*
X-43897D01*
X-69530Y19449D02*
X-43808D01*
X-69457Y14649D02*
X-52000D01*
X-69457Y14849D02*
X-52000D01*
X-69457Y14949D02*
X-52000D01*
X-69457Y14749D02*
X-52000D01*
X-69457Y14249D02*
X-52000D01*
X-69457Y14349D02*
X-52000D01*
X-69457Y14149D02*
X-52000D01*
X-69457Y14549D02*
X-52000D01*
X-69457Y14449D02*
X-52000D01*
X-37500Y7649D02*
X-34090D01*
X-37500Y7749D02*
X-33814D01*
X-37500Y7549D02*
X-34325D01*
X-37500Y7349D02*
X-34717D01*
X-37500Y7449D02*
X-34532D01*
X-37500Y7250D02*
X-34884D01*
X-37500Y-851D02*
X-35439D01*
X-37500Y-951D02*
X-35314D01*
X-37500Y-750D02*
X-35557D01*
X-37500Y-751D02*
X-35556D01*
X-37500Y12549D02*
X-28750D01*
X-37500Y12649D02*
X-28750D01*
X-37500Y12449D02*
X-28750D01*
X-37500Y12849D02*
X-28750D01*
X-37500Y12949D02*
X-28750D01*
X-37500Y12749D02*
X-28750D01*
X-37500Y7949D02*
X-32962D01*
X-37500Y12349D02*
X-28750D01*
X-37500Y7849D02*
X-33469D01*
X-37500Y7250D02*
Y10750D01*
Y7250D02*
Y10750D01*
X-37500Y-1851D02*
X-33462D01*
X-37500Y-1751D02*
X-33808D01*
X-37500Y-1951D02*
X-32956D01*
X-37500Y-1551D02*
X-34321D01*
X-37500Y-1451D02*
X-34528D01*
X-37500Y-1651D02*
X-34085D01*
X-37500Y-2351D02*
X-32556D01*
X-37500Y-2251D02*
X-32656D01*
X-37500Y-2451D02*
X-32456D01*
X-37500Y-2051D02*
X-32856D01*
X-37500Y-2151D02*
X-32756D01*
X-37500Y-1251D02*
X-34882D01*
X-37500Y-1151D02*
X-35037D01*
X-37500Y-1351D02*
X-34714D01*
X-37500Y-1051D02*
X-35181D01*
X-53670Y-1251D02*
X-52000D01*
X-53816Y-1351D02*
X-52000D01*
X-55000Y-2351D02*
X-52000D01*
X-55000Y-2251D02*
X-52000D01*
X-55000Y-2451D02*
X-52000D01*
X-55000Y-2051D02*
X-52000D01*
X-55000Y-2151D02*
X-52000D01*
X-52794Y-451D02*
X-52000D01*
X-52894Y-551D02*
X-52000D01*
X-52994Y-651D02*
X-52000D01*
X-52000Y8000D02*
Y11000D01*
Y8000D02*
Y11000D01*
X-54000Y8000D02*
X-52000D01*
X-53094Y-751D02*
X-52000D01*
X-53194Y-851D02*
X-52000D01*
X-53300Y-951D02*
X-52000D01*
X-53167Y-823D02*
X-52343Y0D01*
X-58000Y8000D02*
X-54000D01*
X-58000Y5860D02*
Y8000D01*
X-61823Y2783D02*
X-59783Y4823D01*
X-69457Y-1051D02*
X-63000D01*
X-69457Y-851D02*
X-63000D01*
X-69457Y-951D02*
X-63000D01*
X-54159Y-1551D02*
X-52000D01*
X-54366Y-1651D02*
X-52000D01*
X-54611Y-1751D02*
X-52000D01*
X-53413Y-1051D02*
X-52000D01*
X-53536Y-1151D02*
X-52000D01*
X-53977Y-1451D02*
X-52000D01*
X-54918Y-1851D02*
X-52000D01*
X-55000Y-1951D02*
X-52000D01*
X-69457Y-2451D02*
X-63000D01*
X-69457Y-2251D02*
X-63000D01*
X-69457Y-2351D02*
X-63000D01*
X-69457Y-1551D02*
X-63000D01*
X-69457Y-1451D02*
X-63000D01*
X-69457Y-1651D02*
X-63000D01*
X-69457Y-1251D02*
X-63000D01*
X-69457Y-1151D02*
X-63000D01*
X-69457Y-1351D02*
X-63000D01*
X-69457Y-2051D02*
X-63000D01*
X-69457Y-1951D02*
X-63000D01*
X-69457Y-2151D02*
X-63000D01*
X-69457Y-1751D02*
X-63000D01*
X-69457Y-1851D02*
X-63000D01*
X-37500Y-3751D02*
X-31156D01*
X-37500Y-3651D02*
X-31256D01*
X-37500Y-3851D02*
X-31056D01*
X-37500Y-3451D02*
X-31456D01*
X-37500Y-3351D02*
X-31556D01*
X-37500Y-3551D02*
X-31356D01*
X-32957Y-1950D02*
X-30907Y-4000D01*
X-37500Y-3951D02*
X-30956D01*
X-37500Y-4051D02*
X-30958D01*
X-37500Y-4151D02*
X-31058D01*
X-37500Y-4251D02*
X-31158D01*
X-37500Y-2851D02*
X-32056D01*
X-37500Y-2751D02*
X-32156D01*
X-37500Y-2951D02*
X-31956D01*
X-37500Y-2551D02*
X-32356D01*
X-37500Y-2750D02*
Y-750D01*
Y-2651D02*
X-32256D01*
X-37500Y-3151D02*
X-31756D01*
X-37500Y-3051D02*
X-31856D01*
X-37500Y-3251D02*
X-31656D01*
X-37500Y-5500D02*
Y-2750D01*
Y-5500D02*
Y-2750D01*
Y-5551D02*
X-32458D01*
X-37500Y-5451D02*
X-32358D01*
X-37500Y-5651D02*
X-32558D01*
X-37500Y-5851D02*
X-32758D01*
X-37500Y-5751D02*
X-32658D01*
X-37500Y-5951D02*
X-32858D01*
X-37500Y-6151D02*
X-33058D01*
X-37500Y-6051D02*
X-32958D01*
X-37500Y-6251D02*
X-33158D01*
X-37500Y-6351D02*
X-33258D01*
X-37500Y-6451D02*
X-33358D01*
X-37500Y-4451D02*
X-31358D01*
X-37500Y-4351D02*
X-31258D01*
X-37500Y-4551D02*
X-31458D01*
X-37500Y-4751D02*
X-31658D01*
X-37500Y-4651D02*
X-31558D01*
X-37500Y-4851D02*
X-31758D01*
X-37500Y-5051D02*
X-31958D01*
X-37500Y-4951D02*
X-31858D01*
X-37500Y-5151D02*
X-32058D01*
X-37500Y-5251D02*
X-32158D01*
X-37500Y-5351D02*
X-32258D01*
X-55000Y-3651D02*
X-52000D01*
X-55000Y-3551D02*
X-52000D01*
X-55000Y-3751D02*
X-52000D01*
Y-3000D02*
Y0D01*
Y-3000D02*
Y0D01*
X-55000Y-3451D02*
X-52000D01*
X-55000Y-4151D02*
X-52000D01*
X-55000Y-4051D02*
X-52000D01*
X-55000Y-4251D02*
X-52000D01*
X-55000Y-3851D02*
X-52000D01*
X-55000Y-3951D02*
X-52000D01*
X-55000Y-2751D02*
X-52000D01*
X-55000Y-2651D02*
X-52000D01*
X-55000Y-2851D02*
X-52000D01*
X-55000Y-2551D02*
X-52000D01*
X-69457D02*
X-63000D01*
X-69457Y-2651D02*
X-63000D01*
X-55000Y-3251D02*
X-52000D01*
X-55000Y-3151D02*
X-52000D01*
X-55000Y-3351D02*
X-52000D01*
X-55000Y-2951D02*
X-52000D01*
X-55000Y-3051D02*
X-52000D01*
X-55000Y-5851D02*
X-52000D01*
X-55000Y-5751D02*
X-52000D01*
X-55000Y-5951D02*
X-52000D01*
X-55000Y-5551D02*
X-52000D01*
X-55000Y-5451D02*
X-52000D01*
X-55000Y-5651D02*
X-52000D01*
X-55000Y-6351D02*
X-52000D01*
X-55000Y-6251D02*
X-52000D01*
X-55000Y-6451D02*
X-52000D01*
X-55000Y-6051D02*
X-52000D01*
X-55000Y-6151D02*
X-52000D01*
X-55000Y-4751D02*
X-52000D01*
X-55000Y-4651D02*
X-52000D01*
X-55000Y-4851D02*
X-52000D01*
X-55000Y-4451D02*
X-52000D01*
X-55000Y-4351D02*
X-52000D01*
X-55000Y-4551D02*
X-52000D01*
X-55000Y-5251D02*
X-52000D01*
X-55000Y-5151D02*
X-52000D01*
X-55000Y-5351D02*
X-52000D01*
X-55000Y-4951D02*
X-52000D01*
X-55000Y-5051D02*
X-52000D01*
X-69457Y11449D02*
X-52000D01*
X-69457Y11549D02*
X-52000D01*
X-69457Y11349D02*
X-52000D01*
X-69457Y11749D02*
X-52000D01*
X-69457Y11849D02*
X-52000D01*
X-69457Y11649D02*
X-52000D01*
X-69457Y10949D02*
X-52000D01*
X-69457Y11049D02*
X-52000D01*
X-69457Y10849D02*
X-52000D01*
X-69457Y11249D02*
X-52000D01*
X-69457Y11149D02*
X-52000D01*
X-69457Y12549D02*
X-52000D01*
X-69457Y12649D02*
X-52000D01*
X-69457Y12449D02*
X-52000D01*
X-69457Y12849D02*
X-52000D01*
X-69457Y12949D02*
X-52000D01*
X-69457Y12749D02*
X-52000D01*
X-69457Y12049D02*
X-52000D01*
X-69457Y12149D02*
X-52000D01*
X-69457Y11949D02*
X-52000D01*
X-69457Y12349D02*
X-52000D01*
X-69457Y12249D02*
X-52000D01*
X-69457Y9249D02*
X-52000D01*
X-69457Y9349D02*
X-52000D01*
X-69457Y8549D02*
X-52000D01*
X-69457Y9549D02*
X-52000D01*
X-69457Y9649D02*
X-52000D01*
X-69457Y9449D02*
X-52000D01*
X-69457Y8149D02*
X-52000D01*
X-69457Y8249D02*
X-52000D01*
X-69457Y8049D02*
X-52000D01*
X-69457Y8449D02*
X-52000D01*
X-69457Y8349D02*
X-52000D01*
X-69457Y10349D02*
X-52000D01*
X-69457Y10449D02*
X-52000D01*
X-69457Y10249D02*
X-52000D01*
X-69457Y10649D02*
X-52000D01*
X-69457Y10749D02*
X-52000D01*
X-69457Y10549D02*
X-52000D01*
X-69457Y9849D02*
X-52000D01*
X-69457Y9949D02*
X-52000D01*
X-69457Y9749D02*
X-52000D01*
X-69457Y10149D02*
X-52000D01*
X-69457Y10049D02*
X-52000D01*
X-69457Y7049D02*
X-58000D01*
X-69457Y7149D02*
X-58000D01*
X-69457Y6949D02*
X-58000D01*
X-69457Y7349D02*
X-58000D01*
X-69457Y7449D02*
X-58000D01*
X-69457Y7249D02*
X-58000D01*
X-69457Y6549D02*
X-58000D01*
X-69457Y6649D02*
X-58000D01*
X-69457Y6449D02*
X-58000D01*
X-69457Y6849D02*
X-58000D01*
X-69457Y6749D02*
X-58000D01*
X-69457Y8749D02*
X-52000D01*
X-69457Y8849D02*
X-52000D01*
X-69457Y8649D02*
X-52000D01*
X-69457Y9049D02*
X-52000D01*
X-69457Y9149D02*
X-52000D01*
X-69457Y8949D02*
X-52000D01*
X-69457Y7649D02*
X-58000D01*
X-69457Y7749D02*
X-58000D01*
X-69457Y7549D02*
X-58000D01*
X-69457Y7949D02*
X-58000D01*
X-69457Y7849D02*
X-58000D01*
X-69457Y5149D02*
X-59416D01*
X-69457Y5249D02*
X-59283D01*
X-69457Y5049D02*
X-59539D01*
X-69457Y4849D02*
X-59757D01*
X-69457Y4949D02*
X-59652D01*
X-69457Y4749D02*
X-59858D01*
X-69457Y4549D02*
X-60058D01*
X-69457Y4649D02*
X-59957D01*
X-69457Y4449D02*
X-60157D01*
X-69457Y4349D02*
X-60258D01*
X-69457Y4249D02*
X-60357D01*
X-69457Y6049D02*
X-58000D01*
X-69457Y6149D02*
X-58000D01*
X-69457Y5949D02*
X-58000D01*
X-69457Y6249D02*
X-58000D01*
X-69457Y6349D02*
X-58000D01*
X-69457Y5849D02*
X-58038D01*
X-69457Y5649D02*
X-58588D01*
X-69457Y5749D02*
X-58344D01*
X-69457Y5549D02*
X-58795D01*
X-69457Y5449D02*
X-58976D01*
X-69457Y5349D02*
X-59137D01*
X-69457Y2949D02*
X-61658D01*
X-69457Y3049D02*
X-61557D01*
X-69457Y2849D02*
X-61757D01*
X-69457Y2649D02*
X-61952D01*
X-69457Y2749D02*
X-61857D01*
X-69457Y2549D02*
X-62040D01*
X-69457Y2349D02*
X-62200D01*
X-69457Y2449D02*
X-62123D01*
X-69457Y2249D02*
X-62273D01*
X-69457Y2149D02*
X-62341D01*
X-69457Y2049D02*
X-62405D01*
X-69457Y4049D02*
X-60557D01*
X-69457Y4149D02*
X-60458D01*
X-69457Y3949D02*
X-60658D01*
X-69457Y3749D02*
X-60858D01*
X-69457Y3849D02*
X-60757D01*
X-69457Y3649D02*
X-60957D01*
X-69457Y3449D02*
X-61157D01*
X-69457Y3549D02*
X-61058D01*
X-69457Y3349D02*
X-61258D01*
X-69457Y3249D02*
X-61357D01*
X-69457Y3149D02*
X-61458D01*
X-69457Y749D02*
X-62919D01*
X-69457Y849D02*
X-62898D01*
X-69457Y649D02*
X-62938D01*
X-69457Y449D02*
X-62969D01*
X-69457Y549D02*
X-62955D01*
X-69457Y349D02*
X-62980D01*
X-69457Y149D02*
X-62995D01*
X-69457Y249D02*
X-62989D01*
X-69457Y49D02*
X-62999D01*
X-69457Y-351D02*
X-63000D01*
X-69457Y-5351D02*
X-63000D01*
X-69457Y1849D02*
X-62520D01*
X-69457Y1949D02*
X-62464D01*
X-69457Y1749D02*
X-62572D01*
X-69457Y1549D02*
X-62666D01*
X-69457Y1649D02*
X-62621D01*
X-69457Y1449D02*
X-62708D01*
X-69457Y1249D02*
X-62783D01*
X-69457Y1349D02*
X-62747D01*
X-69457Y1149D02*
X-62816D01*
X-69457Y1049D02*
X-62846D01*
X-69457Y949D02*
X-62873D01*
X-69457Y-3551D02*
X-63000D01*
X-69457Y-3451D02*
X-63000D01*
X-69457Y-3651D02*
X-63000D01*
X-69457Y-3251D02*
X-63000D01*
X-69457Y-3151D02*
X-63000D01*
X-69457Y-3351D02*
X-63000D01*
X-69457Y-4051D02*
X-63000D01*
X-69457Y-3951D02*
X-63000D01*
X-69457Y-4151D02*
X-63000D01*
X-69457Y-3751D02*
X-63000D01*
X-69457Y-3851D02*
X-63000D01*
X-69457Y-551D02*
X-63000D01*
X-69457Y-451D02*
X-63000D01*
X-69457Y-651D02*
X-63000D01*
X-69457Y-151D02*
X-63000D01*
X-69457Y-51D02*
X-63000D01*
X-69457Y-251D02*
X-63000D01*
X-69457Y-2951D02*
X-63000D01*
X-69457Y-2851D02*
X-63000D01*
X-69457Y-3051D02*
X-63000D01*
X-69457Y-751D02*
X-63000D01*
X-69457Y-2751D02*
X-63000D01*
X-69457Y-5851D02*
X-63000D01*
X-69457Y-5751D02*
X-63000D01*
X-69457Y-5951D02*
X-63000D01*
X-69457Y-5551D02*
X-63000D01*
X-69457Y-5451D02*
X-63000D01*
X-69457Y-5651D02*
X-63000D01*
X-69457Y-6351D02*
X-63000D01*
X-69457Y-6251D02*
X-63000D01*
X-69457Y-6451D02*
X-63000D01*
X-69457Y-6051D02*
X-63000D01*
X-69457Y-6151D02*
X-63000D01*
X-69457Y-4651D02*
X-63000D01*
X-69457Y-4551D02*
X-63000D01*
X-69457Y-4751D02*
X-63000D01*
X-69457Y-4351D02*
X-63000D01*
X-69457Y-4251D02*
X-63000D01*
X-69457Y-4451D02*
X-63000D01*
X-69457Y-5151D02*
X-63000D01*
X-69457Y-5051D02*
X-63000D01*
X-69457Y-5251D02*
X-63000D01*
X-69457Y-4851D02*
X-63000D01*
X-69457Y-4951D02*
X-63000D01*
X-6852Y-6751D02*
X7559D01*
X-6952Y-6851D02*
X7659D01*
X-7057Y-6951D02*
X7764D01*
X-6651Y-6551D02*
X7359D01*
X-6924Y-6823D02*
X-5177Y-5076D01*
X-6751Y-6651D02*
X7459D01*
X-7573Y-7351D02*
X8280D01*
X-7735Y-7451D02*
X8442D01*
X-7916Y-7551D02*
X8500D01*
X-7171Y-7051D02*
X7878D01*
X-7293Y-7151D02*
X8001D01*
X-7427Y-7251D02*
X8134D01*
X-8368Y-7751D02*
X8500D01*
X-8500Y-7851D02*
X8500D01*
X-8500Y-7951D02*
X8500D01*
X-8123Y-7651D02*
X8500D01*
X-8500Y-8351D02*
X8500D01*
X-8500Y-8251D02*
X8500D01*
X-8500Y-8451D02*
X8500D01*
X-8500Y-8051D02*
X8500D01*
X-8500Y-8151D02*
X8500D01*
X-7500Y-8500D02*
X-4500D01*
X-7500D02*
X-4500D01*
X-3500D01*
X-8500D02*
X-7500D01*
X-11500Y-16127D02*
Y-11500D01*
X-15864Y-17051D02*
X-13687D01*
X-15008Y-24851D02*
X-13783D01*
X-15232Y-24951D02*
X-13783D01*
X-14644Y-24651D02*
X-13783D01*
X-14815Y-24751D02*
X-13783D01*
X-18250Y-16051D02*
X-11500D01*
X-19500Y-11500D02*
X-11500D01*
X-18250Y-16151D02*
X-11657D01*
X-18250Y-16351D02*
X-12422D01*
X-18250Y-16251D02*
X-12106D01*
X-18250Y-16451D02*
X-12676D01*
X-18250Y-16651D02*
X-13085D01*
X-18250Y-16551D02*
X-12894D01*
X-18250Y-16751D02*
X-13256D01*
X-18250Y-16851D02*
X-13412D01*
X-18250Y-16951D02*
X-13555D01*
X-23844Y-8251D02*
X-19500D01*
X-23944Y-8351D02*
X-19500D01*
X-24044Y-8451D02*
X-19500D01*
X-23593Y-8000D02*
X-19500D01*
X-23644Y-8051D02*
X-19500D01*
X-23744Y-8151D02*
X-19500D01*
Y-11500D02*
Y-8000D01*
X-24344Y-8751D02*
X-19500D01*
X-24444Y-8851D02*
X-19500D01*
X-24144Y-8551D02*
X-19500D01*
X-24244Y-8651D02*
X-19500D01*
X-24844Y-9251D02*
X-19500D01*
X-24944Y-9351D02*
X-19500D01*
X-25044Y-9451D02*
X-19500D01*
X-24544Y-8951D02*
X-19500D01*
X-24644Y-9051D02*
X-19500D01*
X-24744Y-9151D02*
X-19500D01*
X-25344Y-9751D02*
X-19500D01*
X-25444Y-9851D02*
X-19500D01*
X-25544Y-9951D02*
X-19500D01*
X-25144Y-9551D02*
X-19500D01*
X-25244Y-9651D02*
X-19500D01*
X-21000Y-16000D02*
X-18250D01*
X-25744Y-10151D02*
X-19500D01*
X-18250Y-17051D02*
X-17136D01*
X-22250Y-16000D02*
X-21000D01*
X-25644Y-10051D02*
X-19500D01*
X-22250Y-16000D02*
X-21000D01*
X-15106Y-17251D02*
X-13924D01*
X-15412Y-17151D02*
X-13810D01*
X-14862Y-17351D02*
X-14031D01*
X-18250Y-17095D02*
Y-16000D01*
X-26144Y-10551D02*
X-19500D01*
X-26244Y-10651D02*
X-19500D01*
X-26344Y-10751D02*
X-19500D01*
X-25844Y-10251D02*
X-19500D01*
X-25944Y-10351D02*
X-19500D01*
X-26044Y-10451D02*
X-19500D01*
X-26444Y-10851D02*
X-19500D01*
X-26544Y-10951D02*
X-19500D01*
X-26644Y-11051D02*
X-19500D01*
X-26250Y-18343D02*
Y-16000D01*
X-22250D01*
X-13750Y-28751D02*
X-12750D01*
X-13750Y-28651D02*
X-12750D01*
X-13750Y-28851D02*
X-12750D01*
X-13750Y-28451D02*
X-12750D01*
X-13750Y-28351D02*
X-12750D01*
X-13750Y-28551D02*
X-12750D01*
Y-31757D02*
Y-28148D01*
X-13750Y-29151D02*
X-12750D01*
X-13750Y-29251D02*
X-12750D01*
X-13750Y-28951D02*
X-12750D01*
X-13750Y-29051D02*
X-12750D01*
X-19751Y-25351D02*
X-13783D01*
X-13750Y-27951D02*
X-12947D01*
X-15504Y-25051D02*
X-13783D01*
X-15865Y-25151D02*
X-13783D01*
X-19751Y-25251D02*
X-13783D01*
X-13750Y-28151D02*
X-12750D01*
X-13750Y-28051D02*
X-12847D01*
X-13750Y-28251D02*
X-12750D01*
X-13750Y-31316D02*
Y-26314D01*
Y-30851D02*
X-12750D01*
X-13750Y-30751D02*
X-12750D01*
X-13750Y-30951D02*
X-12750D01*
X-13750Y-30551D02*
X-12750D01*
X-13750Y-30451D02*
X-12750D01*
X-13750Y-30651D02*
X-12750D01*
X-13750Y-31251D02*
X-12750D01*
X-13750Y-31151D02*
X-12750D01*
X-13660Y-31351D02*
X-12750D01*
X-13750Y-31051D02*
X-12750D01*
X-13750Y-29751D02*
X-12750D01*
X-13750Y-29651D02*
X-12750D01*
X-13750Y-29851D02*
X-12750D01*
X-13750Y-29451D02*
X-12750D01*
X-13750Y-29351D02*
X-12750D01*
X-13750Y-29551D02*
X-12750D01*
X-13750Y-30251D02*
X-12750D01*
X-13750Y-30151D02*
X-12750D01*
X-13750Y-30351D02*
X-12750D01*
X-13750Y-29951D02*
X-12750D01*
X-13750Y-30051D02*
X-12750D01*
X-13783Y-25500D02*
Y-24250D01*
X-19751Y-25451D02*
X-13783D01*
X-19751Y-25500D02*
X-13783D01*
X-19750Y-25250D02*
X-16750D01*
X-20250Y-33000D02*
Y-31578D01*
Y-33000D02*
Y-31578D01*
X-21505Y-32651D02*
X-20250D01*
X-21689Y-32751D02*
X-20250D01*
X-21895Y-32851D02*
X-20250D01*
X-21051Y-32351D02*
X-20250D01*
X-21189Y-32451D02*
X-20250D01*
X-21340Y-32551D02*
X-20250D01*
X-22423Y-33051D02*
X-20250D01*
X-22805Y-33151D02*
X-20250D01*
X-23684Y-33251D02*
X-20249D01*
X-22134Y-32951D02*
X-20250D01*
X-21500Y-37064D02*
Y-34500D01*
Y-35651D02*
X-20488D01*
X-21500Y-35551D02*
X-20480D01*
X-21500Y-35751D02*
X-20494D01*
X-21500Y-35951D02*
X-20500D01*
X-21500Y-35851D02*
X-20498D01*
X-21500Y-36051D02*
X-20500D01*
X-21500Y-36451D02*
X-20480D01*
X-21500Y-36351D02*
X-20488D01*
X-21500Y-36551D02*
X-20470D01*
X-21500Y-36151D02*
X-20498D01*
X-21500Y-36251D02*
X-20494D01*
X-21500Y-34651D02*
X-20315D01*
X-21500Y-34551D02*
X-20285D01*
X-21500Y-34751D02*
X-20341D01*
X-21500Y-34851D02*
X-20366D01*
X-25500Y-34500D02*
X-21500D01*
Y-34951D02*
X-20389D01*
X-21500Y-35151D02*
X-20427D01*
X-21500Y-35051D02*
X-20409D01*
X-21500Y-35251D02*
X-20443D01*
X-21500Y-35351D02*
X-20458D01*
X-21500Y-35451D02*
X-20470D01*
X-27250Y-13151D02*
X-11500D01*
X-27250Y-13051D02*
X-11500D01*
X-27250Y-13251D02*
X-11500D01*
X-27244Y-11651D02*
X-11500D01*
X-27250Y-12851D02*
X-11500D01*
X-27250Y-12951D02*
X-11500D01*
X-27250Y-13651D02*
X-11500D01*
X-27250Y-13551D02*
X-11500D01*
X-27250Y-13751D02*
X-11500D01*
X-27250Y-13351D02*
X-11500D01*
X-27250Y-13451D02*
X-11500D01*
X-27250Y-12151D02*
X-11500D01*
X-27250Y-12051D02*
X-11500D01*
X-27250Y-12251D02*
X-11500D01*
X-27250Y-11851D02*
X-11500D01*
X-27250Y-11751D02*
X-11500D01*
X-27250Y-11951D02*
X-11500D01*
X-27250Y-12651D02*
X-11500D01*
X-27250Y-12551D02*
X-11500D01*
X-27250Y-12751D02*
X-11500D01*
X-27250Y-12351D02*
X-11500D01*
X-27250Y-12451D02*
X-11500D01*
X-27250Y-15351D02*
X-11500D01*
X-27250Y-15251D02*
X-11500D01*
X-27250Y-15451D02*
X-11500D01*
X-27250Y-15051D02*
X-11500D01*
X-27250Y-14951D02*
X-11500D01*
X-27250Y-15151D02*
X-11500D01*
X-27250Y-15851D02*
X-11500D01*
X-27250Y-15751D02*
X-11500D01*
X-27250Y-15951D02*
X-11500D01*
X-27250Y-15551D02*
X-11500D01*
X-27250Y-15651D02*
X-11500D01*
X-27250Y-14251D02*
X-11500D01*
X-27250Y-14151D02*
X-11500D01*
X-27250Y-14351D02*
X-11500D01*
X-27250Y-13951D02*
X-11500D01*
X-27250Y-13851D02*
X-11500D01*
X-27250Y-14051D02*
X-11500D01*
X-27250Y-14751D02*
X-11500D01*
X-27250Y-14651D02*
X-11500D01*
X-27250Y-14851D02*
X-11500D01*
X-27250Y-14451D02*
X-11500D01*
X-27250Y-14551D02*
X-11500D01*
X-34073Y-7167D02*
X-30907Y-4000D01*
X-36757Y-7651D02*
X-34488D01*
X-36675Y-7751D02*
X-34558D01*
X-36525Y-7951D02*
X-34685D01*
X-36598Y-7851D02*
X-34624D01*
X-36455Y-8051D02*
X-34743D01*
X-27250Y-11657D02*
X-23593Y-8000D01*
X-36390Y-8151D02*
X-34797D01*
X-36329Y-8251D02*
X-34847D01*
X-37500Y-6651D02*
X-33558D01*
X-37500Y-6551D02*
X-33458D01*
X-37701Y-6751D02*
X-33658D01*
X-37501Y-6951D02*
X-33858D01*
X-37641Y-6851D02*
X-33758D01*
X-37372Y-7051D02*
X-33958D01*
X-37140Y-7251D02*
X-34156D01*
X-37252Y-7151D02*
X-34058D01*
X-37035Y-7351D02*
X-34247D01*
X-36937Y-7451D02*
X-34333D01*
X-36844Y-7551D02*
X-34413D01*
X-26944Y-11351D02*
X-19500D01*
X-27044Y-11451D02*
X-19500D01*
X-27144Y-11551D02*
X-11500D01*
X-26744Y-11151D02*
X-19500D01*
X-26844Y-11251D02*
X-19500D01*
X-27250Y-16751D02*
X-26250D01*
X-27250Y-17151D02*
X-26250D01*
X-27250Y-17051D02*
X-26250D01*
X-27250Y-17251D02*
X-26250D01*
X-27250Y-16851D02*
X-26250D01*
X-27250Y-16951D02*
X-26250D01*
X-27250Y-16051D02*
X-26250D01*
X-36271Y-8351D02*
X-34894D01*
X-27250Y-16151D02*
X-26250D01*
X-36165Y-8551D02*
X-34978D01*
X-36216Y-8451D02*
X-34938D01*
X-36117Y-8651D02*
X-35016D01*
X-27250Y-16551D02*
X-26250D01*
X-27250Y-16451D02*
X-26250D01*
X-27250Y-16651D02*
X-26250D01*
X-27250Y-16251D02*
X-26250D01*
X-27250Y-16351D02*
X-26250D01*
X-27250Y-17751D02*
X-26250D01*
X-27250Y-17651D02*
X-26250D01*
X-27250Y-17851D02*
X-26250D01*
X-27250Y-17451D02*
X-26250D01*
X-27250Y-17351D02*
X-26250D01*
X-27250Y-17551D02*
X-26250D01*
X-27250Y-18151D02*
X-26250D01*
X-27250Y-18051D02*
X-26250D01*
X-27250Y-18251D02*
X-26250D01*
X-27250Y-17951D02*
X-26250D01*
X-27251Y-18351D02*
X-26258D01*
X-27255Y-18451D02*
X-26358D01*
X-27261Y-18551D02*
X-26458D01*
X-27867Y-31851D02*
X-27013D01*
X-27841Y-31951D02*
X-26916D01*
X-27779Y-32251D02*
X-26580D01*
X-27763Y-32351D02*
X-26452D01*
X-27818Y-32051D02*
X-26811D01*
X-27798Y-32151D02*
X-26700D01*
X-27715Y-32951D02*
X-25368D01*
X-27717Y-32851D02*
X-25607D01*
X-27715Y-33051D02*
X-25080D01*
X-27729Y-32651D02*
X-25997D01*
X-27738Y-32551D02*
X-26162D01*
X-27722Y-32751D02*
X-25814D01*
X-27721Y-33251D02*
X-23819D01*
X-27727Y-33351D02*
X-20244D01*
X-27736Y-33451D02*
X-20237D01*
X-27717Y-33151D02*
X-24697D01*
X-27500Y-34500D02*
X-25500D01*
X-27776Y-33751D02*
X-20193D01*
X-27793Y-33851D02*
X-20171D01*
X-27814Y-33951D02*
X-20146D01*
X-27747Y-33551D02*
X-20225D01*
X-27750Y-32451D02*
X-26313D01*
X-27760Y-33651D02*
X-20211D01*
X-27836Y-34051D02*
X-20117D01*
X-27861Y-34151D02*
X-20145D01*
X-27889Y-34251D02*
X-20184D01*
X-27918Y-34351D02*
X-20220D01*
X-27951Y-34451D02*
X-20254D01*
X-27250Y-18250D02*
Y-11657D01*
X-28794Y-21451D02*
X-28000D01*
X-28894Y-21551D02*
X-28000D01*
X-28994Y-21651D02*
X-28000D01*
X-27751Y-26690D02*
Y-21501D01*
X-28000Y-22000D02*
Y-20582D01*
X-29294Y-21951D02*
X-28000D01*
X-29094Y-21751D02*
X-28000D01*
X-29194Y-21851D02*
X-28000D01*
X-29494Y-22151D02*
X-27751D01*
X-29594Y-22251D02*
X-27751D01*
X-29694Y-22351D02*
X-27751D01*
X-29343Y-22000D02*
X-28000D01*
X-29343D02*
X-28427Y-21083D01*
X-29394Y-22051D02*
X-27751D01*
X-29894Y-22551D02*
X-27751D01*
X-29994Y-22651D02*
X-27751D01*
X-30094Y-22751D02*
X-27751D01*
X-30242Y-22899D02*
X-29343Y-22000D01*
X-29794Y-22451D02*
X-27751D01*
X-30377Y-23951D02*
X-27751D01*
X-30518Y-23151D02*
X-27751D01*
X-30154Y-24051D02*
X-27751D01*
X-30194Y-22851D02*
X-27751D01*
X-30295Y-22951D02*
X-27751D01*
X-30402Y-23051D02*
X-27751D01*
X-27895Y-31751D02*
X-27106D01*
X-29967Y-24147D02*
X-27752D01*
Y-26691D02*
Y-24147D01*
X-30929Y-23451D02*
X-27751D01*
X-31095Y-23551D02*
X-27751D01*
X-31282Y-23651D02*
X-27751D01*
X-30643Y-23251D02*
X-27751D01*
X-30779Y-23351D02*
X-27751D01*
X-31006Y-23751D02*
X-27751D01*
X-30647Y-23851D02*
X-27751D01*
X-21140Y-37951D02*
X-20104D01*
X-21169Y-37851D02*
X-20145D01*
X-21114Y-38051D02*
X-20060D01*
X-21234Y-37651D02*
X-20220D01*
X-21272Y-37551D02*
X-20253D01*
X-21200Y-37751D02*
X-20183D01*
X-21038Y-38451D02*
X-19858D01*
X-21053Y-38351D02*
X-19913D01*
X-21025Y-38551D02*
X-19800D01*
X-21091Y-38151D02*
X-20014D01*
X-21071Y-38251D02*
X-19965D01*
X-21500Y-37051D02*
X-20388D01*
X-21500Y-36951D02*
X-20409D01*
X-21453Y-37151D02*
X-20366D01*
X-21500Y-36751D02*
X-20443D01*
X-21500Y-36651D02*
X-20457D01*
X-21500Y-36851D02*
X-20427D01*
X-21356Y-37351D02*
X-20314D01*
X-21403Y-37251D02*
X-20341D01*
X-21312Y-37451D02*
X-20285D01*
X-21000Y-39951D02*
X-18564D01*
X-21000Y-39851D02*
X-18689D01*
X-21000Y-40051D02*
X-18500D01*
X-21000Y-39651D02*
X-18916D01*
X-21000Y-39551D02*
X-19020D01*
X-21000Y-39751D02*
X-18806D01*
X-21000Y-40451D02*
X-18500D01*
X-21000Y-40351D02*
X-18500D01*
X-19750Y-40500D02*
X-18500D01*
X-21000Y-40151D02*
X-18500D01*
X-21000Y-40251D02*
X-18500D01*
X-21000Y-39051D02*
X-19461D01*
X-21000Y-38951D02*
X-19536D01*
X-21000Y-39151D02*
X-19382D01*
X-21008Y-38751D02*
X-19675D01*
X-21015Y-38651D02*
X-19739D01*
X-21003Y-38851D02*
X-19608D01*
X-21000Y-39351D02*
X-19211D01*
X-21000Y-39251D02*
X-19299D01*
X-21000Y-39451D02*
X-19118D01*
X-21000Y-40500D02*
Y-39000D01*
X-30000Y-64000D02*
Y-61500D01*
X-43636Y-67451D02*
X-30250D01*
X-43656Y-67351D02*
X-30250D01*
X-43617Y-67551D02*
X-30250D01*
X-30250Y-61500D02*
Y-48531D01*
X-39219D02*
X-30250D01*
X-43676Y-67251D02*
X-30250D01*
X-43603Y-67951D02*
X-30250D01*
X-43603Y-67851D02*
X-30250D01*
X-43603Y-68051D02*
X-30250D01*
X-43603Y-67651D02*
X-30250D01*
X-43603Y-67751D02*
X-30250D01*
X-43710Y-66551D02*
X-30250D01*
X-43742Y-66451D02*
X-30250D01*
X-43710Y-66651D02*
X-30250D01*
X-43825Y-66251D02*
X-30250D01*
X-43866Y-66151D02*
X-30250D01*
X-43783Y-66351D02*
X-30250D01*
X-43710Y-67051D02*
X-30250D01*
X-43710Y-66951D02*
X-30250D01*
X-43696Y-67151D02*
X-30250D01*
X-43710Y-66751D02*
X-30250D01*
X-43710Y-66851D02*
X-30250D01*
X-43603Y-69651D02*
X-30250D01*
X-43603Y-69551D02*
X-30250D01*
X-43603Y-69751D02*
X-30250D01*
X-43603Y-69351D02*
X-30250D01*
X-43603Y-69251D02*
X-30250D01*
X-43603Y-69451D02*
X-30250D01*
X-43603Y-70151D02*
X-30250D01*
X-43603Y-70051D02*
X-30250D01*
X-43603Y-70251D02*
X-30250D01*
X-43603Y-69851D02*
X-30250D01*
X-43603Y-69951D02*
X-30250D01*
X-43603Y-68551D02*
X-30250D01*
X-43603Y-68451D02*
X-30250D01*
X-43603Y-68651D02*
X-30250D01*
X-43603Y-68251D02*
X-30250D01*
X-43603Y-68151D02*
X-30250D01*
X-43603Y-68351D02*
X-30250D01*
X-43603Y-69051D02*
X-30250D01*
X-43603Y-68951D02*
X-30250D01*
X-43603Y-69151D02*
X-30250D01*
X-43603Y-68751D02*
X-30250D01*
X-43603Y-68851D02*
X-30250D01*
X-40707Y-76151D02*
X-30250D01*
X-40948Y-76051D02*
X-30250D01*
X-40465Y-76251D02*
X-30250D01*
X-41431Y-75851D02*
X-30250D01*
X-41672Y-75751D02*
X-30250D01*
X-41189Y-75951D02*
X-30250D01*
Y-78974D02*
Y-64000D01*
X-39741Y-76551D02*
X-30250D01*
X-39499Y-76651D02*
X-30250D01*
X-40224Y-76351D02*
X-30250D01*
X-39982Y-76451D02*
X-30250D01*
X-43362Y-75051D02*
X-30250D01*
X-43603Y-74951D02*
X-30250D01*
X-43121Y-75151D02*
X-30250D01*
X-43603Y-74751D02*
X-30250D01*
X-43603Y-70351D02*
X-30250D01*
X-43603Y-74851D02*
X-30250D01*
X-42155Y-75551D02*
X-30250D01*
X-42397Y-75451D02*
X-30250D01*
X-41914Y-75651D02*
X-30250D01*
X-42879Y-75251D02*
X-30250D01*
X-42638Y-75351D02*
X-30250D01*
X-33945Y-78251D02*
X-30250D01*
X-34292Y-78151D02*
X-30250D01*
X-33598Y-78351D02*
X-30250D01*
X-34986Y-77951D02*
X-30250D01*
X-35333Y-77851D02*
X-30250D01*
X-34639Y-78051D02*
X-30250D01*
X-32152Y-78651D02*
X-30250D01*
X-33139Y-78483D02*
X-30250Y-78974D01*
X-31563Y-78751D02*
X-30250D01*
X-33251Y-78451D02*
X-30250D01*
X-32740Y-78551D02*
X-30250D01*
X-37763Y-77151D02*
X-30250D01*
X-38110Y-77051D02*
X-30250D01*
X-37416Y-77251D02*
X-30250D01*
X-38804Y-76851D02*
X-30250D01*
X-39151Y-76751D02*
X-30250D01*
X-38457Y-76951D02*
X-30250D01*
X-36028Y-77651D02*
X-30250D01*
X-36375Y-77551D02*
X-30250D01*
X-35680Y-77751D02*
X-30250D01*
X-37069Y-77351D02*
X-30250D01*
X-36722Y-77451D02*
X-30250D01*
X-43603Y-71951D02*
X-30250D01*
X-43603Y-71851D02*
X-30250D01*
X-43603Y-72051D02*
X-30250D01*
X-43603Y-71651D02*
X-30250D01*
X-43603Y-71551D02*
X-30250D01*
X-43603Y-71751D02*
X-30250D01*
X-43603Y-72451D02*
X-30250D01*
X-43603Y-72351D02*
X-30250D01*
X-43603Y-72551D02*
X-30250D01*
X-43603Y-72151D02*
X-30250D01*
X-43603Y-72251D02*
X-30250D01*
X-43603Y-70851D02*
X-30250D01*
X-43603Y-70751D02*
X-30250D01*
X-43603Y-70951D02*
X-30250D01*
X-43603Y-70551D02*
X-30250D01*
X-43603Y-70451D02*
X-30250D01*
X-43603Y-70651D02*
X-30250D01*
X-43603Y-71351D02*
X-30250D01*
X-43603Y-71251D02*
X-30250D01*
X-43603Y-71451D02*
X-30250D01*
X-43603Y-71051D02*
X-30250D01*
X-43603Y-71151D02*
X-30250D01*
X-43603Y-74151D02*
X-30250D01*
X-43603Y-74051D02*
X-30250D01*
X-43603Y-74251D02*
X-30250D01*
X-43603Y-73851D02*
X-30250D01*
X-43603Y-73751D02*
X-30250D01*
X-43603Y-73951D02*
X-30250D01*
X-43603Y-74551D02*
X-30250D01*
X-43603Y-74451D02*
X-30250D01*
X-43603Y-74651D02*
X-30250D01*
X-43603Y-74351D02*
X-30250D01*
X-39502Y-76650D02*
X-33139Y-78483D01*
X-43603Y-73051D02*
X-30250D01*
X-43603Y-72951D02*
X-30250D01*
X-43603Y-73151D02*
X-30250D01*
X-43603Y-72751D02*
X-30250D01*
X-43603Y-72651D02*
X-30250D01*
X-43603Y-72851D02*
X-30250D01*
X-43603Y-73551D02*
X-30250D01*
X-43603Y-73451D02*
X-30250D01*
X-43603Y-73651D02*
X-30250D01*
X-43603Y-73251D02*
X-30250D01*
X-43603Y-73351D02*
X-30250D01*
X-56368Y-54451D02*
X-30250D01*
X-56455Y-54351D02*
X-30250D01*
X-56280Y-54551D02*
X-30250D01*
X-56631Y-54151D02*
X-30250D01*
X-56719Y-54051D02*
X-30250D01*
X-56543Y-54251D02*
X-30250D01*
X-55929Y-54951D02*
X-30250D01*
X-56017Y-54851D02*
X-30250D01*
X-55841Y-55051D02*
X-30250D01*
X-56192Y-54651D02*
X-30250D01*
X-56105Y-54751D02*
X-30250D01*
X-57332Y-53351D02*
X-30250D01*
X-57420Y-53251D02*
X-30250D01*
X-57245Y-53451D02*
X-30250D01*
X-57596Y-53051D02*
X-30250D01*
X-57683Y-52951D02*
X-30250D01*
X-57508Y-53151D02*
X-30250D01*
X-56894Y-53851D02*
X-30250D01*
X-56982Y-53751D02*
X-30250D01*
X-56806Y-53951D02*
X-30250D01*
X-57157Y-53551D02*
X-30250D01*
X-57069Y-53651D02*
X-30250D01*
X-54257Y-56651D02*
X-30250D01*
X-54371Y-56551D02*
X-30250D01*
X-54143Y-56751D02*
X-30250D01*
X-54599Y-56351D02*
X-30250D01*
X-54713Y-56251D02*
X-30250D01*
X-54485Y-56451D02*
X-30250D01*
X-53687Y-57151D02*
X-30250D01*
X-53801Y-57051D02*
X-30250D01*
X-53573Y-57251D02*
X-30250D01*
X-54029Y-56851D02*
X-30250D01*
X-53915Y-56951D02*
X-30250D01*
X-55403Y-55551D02*
X-30250D01*
X-55491Y-55451D02*
X-30250D01*
X-55315Y-55651D02*
X-30250D01*
X-55666Y-55251D02*
X-30250D01*
X-55754Y-55151D02*
X-30250D01*
X-55578Y-55351D02*
X-30250D01*
X-54941Y-56051D02*
X-30250D01*
X-55052Y-55951D02*
X-30250D01*
X-54827Y-56151D02*
X-30250D01*
X-55228Y-55751D02*
X-30250D01*
X-55140Y-55851D02*
X-30250D01*
X-60010Y-50051D02*
X-30250D01*
X-60077Y-49951D02*
X-30250D01*
X-59943Y-50151D02*
X-30250D01*
X-60210Y-49751D02*
X-30250D01*
X-60277Y-49651D02*
X-30250D01*
X-60144Y-49851D02*
X-30250D01*
X-59676Y-50551D02*
X-30250D01*
X-59743Y-50451D02*
X-30250D01*
X-59609Y-50651D02*
X-30250D01*
X-59876Y-50251D02*
X-30250D01*
X-59809Y-50351D02*
X-30250D01*
X-60745Y-48951D02*
X-30250D01*
X-60812Y-48851D02*
X-30250D01*
X-60678Y-49051D02*
X-30250D01*
X-60945Y-48651D02*
X-30250D01*
X-61012Y-48551D02*
X-30250D01*
X-60879Y-48751D02*
X-30250D01*
X-60411Y-49451D02*
X-30250D01*
X-60478Y-49351D02*
X-30250D01*
X-60344Y-49551D02*
X-30250D01*
X-60611Y-49151D02*
X-30250D01*
X-60545Y-49251D02*
X-30250D01*
X-58297Y-52251D02*
X-30250D01*
X-58385Y-52151D02*
X-30250D01*
X-58209Y-52351D02*
X-30250D01*
X-58560Y-51951D02*
X-30250D01*
X-58648Y-51851D02*
X-30250D01*
X-58472Y-52051D02*
X-30250D01*
X-57859Y-52751D02*
X-30250D01*
X-57946Y-52651D02*
X-30250D01*
X-57771Y-52851D02*
X-30250D01*
X-58122Y-52451D02*
X-30250D01*
X-58034Y-52551D02*
X-30250D01*
X-59262Y-51151D02*
X-30250D01*
X-59342Y-51051D02*
X-30250D01*
X-59174Y-51251D02*
X-30250D01*
X-59475Y-50851D02*
X-30250D01*
X-59542Y-50751D02*
X-30250D01*
X-59409Y-50951D02*
X-30250D01*
X-58823Y-51651D02*
X-30250D01*
X-58911Y-51551D02*
X-30250D01*
X-58735Y-51751D02*
X-30250D01*
X-59086Y-51351D02*
X-30250D01*
X-58999Y-51451D02*
X-30250D01*
X-46002Y-63051D02*
X-30000D01*
X-46106Y-62951D02*
X-30000D01*
X-45902Y-63151D02*
X-30000D01*
X-46405Y-62751D02*
X-30000D01*
X-46555Y-62651D02*
X-30000D01*
X-46255Y-62851D02*
X-30000D01*
X-45402Y-63551D02*
X-30000D01*
X-45551Y-63451D02*
X-30000D01*
X-45252Y-63651D02*
X-30000D01*
X-45802Y-63251D02*
X-30000D01*
X-45701Y-63351D02*
X-30000D01*
X-47602Y-61951D02*
X-30000D01*
X-47752Y-61851D02*
X-30000D01*
X-47453Y-62051D02*
X-30000D01*
X-48051Y-61651D02*
X-30000D01*
X-48201Y-61551D02*
X-30000D01*
X-47902Y-61751D02*
X-30000D01*
X-46854Y-62451D02*
X-30000D01*
X-47004Y-62351D02*
X-30000D01*
X-46704Y-62551D02*
X-30000D01*
X-47303Y-62151D02*
X-30000D01*
X-47153Y-62251D02*
X-30000D01*
X-44179Y-65251D02*
X-30250D01*
X-44246Y-65151D02*
X-30250D01*
X-44112Y-65351D02*
X-30250D01*
X-44363Y-64951D02*
X-30250D01*
X-44405Y-64851D02*
X-30250D01*
X-44313Y-65051D02*
X-30250D01*
X-43975Y-65751D02*
X-30250D01*
X-43995Y-65651D02*
X-30250D01*
X-43908Y-66051D02*
X-30250D01*
X-44046Y-65451D02*
X-30250D01*
X-44015Y-65551D02*
X-30250D01*
X-45115Y-63851D02*
X-30000D01*
X-45181Y-63751D02*
X-30000D01*
X-45048Y-63951D02*
X-30000D01*
X-44902Y-64151D02*
X-30250D01*
X-44981Y-64051D02*
X-30250D01*
X-44802Y-64251D02*
X-30250D01*
X-44488Y-64651D02*
X-30250D01*
X-44529Y-64551D02*
X-30250D01*
X-44446Y-64751D02*
X-30250D01*
X-44702Y-64351D02*
X-30250D01*
X-44602Y-64451D02*
X-30250D01*
X-51748Y-58851D02*
X-30250D01*
X-51862Y-58751D02*
X-30250D01*
X-51634Y-58951D02*
X-30250D01*
X-52090Y-58551D02*
X-30250D01*
X-52204Y-58451D02*
X-30250D01*
X-51976Y-58651D02*
X-30250D01*
X-51178Y-59351D02*
X-30250D01*
X-51292Y-59251D02*
X-30250D01*
X-51064Y-59451D02*
X-30250D01*
X-51520Y-59051D02*
X-30250D01*
X-51406Y-59151D02*
X-30250D01*
X-53003Y-57751D02*
X-30250D01*
X-53116Y-57651D02*
X-30250D01*
X-52888Y-57851D02*
X-30250D01*
X-53345Y-57451D02*
X-30250D01*
X-53459Y-57351D02*
X-30250D01*
X-53231Y-57551D02*
X-30250D01*
X-52432Y-58251D02*
X-30250D01*
X-52546Y-58151D02*
X-30250D01*
X-52318Y-58351D02*
X-30250D01*
X-52775Y-57951D02*
X-30250D01*
X-52660Y-58051D02*
X-30250D01*
X-48949Y-61051D02*
X-30250D01*
X-49099Y-60951D02*
X-30250D01*
X-48800Y-61151D02*
X-30250D01*
X-49398Y-60751D02*
X-30250D01*
X-49548Y-60651D02*
X-30250D01*
X-49248Y-60851D02*
X-30250D01*
X-43955Y-65851D02*
X-30250D01*
X-48351Y-61451D02*
X-30250D01*
X-43935Y-65951D02*
X-30250D01*
X-48650Y-61251D02*
X-30250D01*
X-48500Y-61351D02*
X-30250D01*
X-50494Y-59951D02*
X-30250D01*
X-50608Y-59851D02*
X-30250D01*
X-50380Y-60051D02*
X-30250D01*
X-50836Y-59651D02*
X-30250D01*
X-50950Y-59551D02*
X-30250D01*
X-50722Y-59751D02*
X-30250D01*
X-49847Y-60451D02*
X-30250D01*
X-49997Y-60351D02*
X-30250D01*
X-49697Y-60551D02*
X-30250D01*
X-50266Y-60151D02*
X-30250D01*
X-50146Y-60251D02*
X-30250D01*
X-36029Y-8851D02*
X-35081D01*
X-36071Y-8751D02*
X-35050D01*
X-35989Y-8951D02*
X-35110D01*
X-35953Y-9051D02*
X-35136D01*
X-36024Y-12251D02*
X-35250D01*
X-36066Y-12351D02*
X-35250D01*
X-36210Y-12651D02*
X-35250D01*
X-36264Y-12751D02*
X-35250D01*
X-36322Y-12851D02*
X-35250D01*
X-36111Y-12451D02*
X-35250D01*
X-36159Y-12551D02*
X-35250D01*
X-37500Y-6750D02*
Y-5500D01*
X-52000Y-7000D02*
X-48317D01*
X-36383Y-12951D02*
X-35250D01*
X-36447Y-13051D02*
X-35250D01*
X-36747Y-13451D02*
X-35250D01*
X-36834Y-13551D02*
X-35250D01*
X-36925Y-13651D02*
X-35250D01*
X-36516Y-13151D02*
X-35250D01*
X-36588Y-13251D02*
X-35250D01*
X-36665Y-13351D02*
X-35250D01*
X-37238Y-13951D02*
X-35250D01*
X-37357Y-14051D02*
X-35250D01*
X-37485Y-14151D02*
X-35250D01*
X-37023Y-13751D02*
X-35250D01*
X-37127Y-13851D02*
X-35250D01*
X-55000Y-14151D02*
X-48506D01*
X-55000Y-14051D02*
X-48513D01*
X-37623Y-14251D02*
X-35250D01*
X-55000Y-13751D02*
X-48586D01*
X-55000Y-13451D02*
X-48645D01*
X-55000Y-13951D02*
X-48533D01*
X-37938Y-14451D02*
X-35250D01*
X-38120Y-14551D02*
X-35250D01*
X-38325Y-14651D02*
X-35250D01*
X-37773Y-14351D02*
X-35250D01*
X-55000Y-14551D02*
X-48454D01*
X-55000Y-10651D02*
X-48693D01*
X-55000Y-10551D02*
X-48693D01*
X-55000Y-10751D02*
X-48693D01*
X-52000Y-7000D02*
Y-3000D01*
X-55000Y-10351D02*
X-48693D01*
X-55000Y-10451D02*
X-48693D01*
Y-12831D02*
Y-8693D01*
X-55000Y-11051D02*
X-48693D01*
X-55000Y-11151D02*
X-48693D01*
X-55000Y-10851D02*
X-48693D01*
X-55000Y-10951D02*
X-48693D01*
X-55000Y-9651D02*
X-48693D01*
X-55000Y-8151D02*
X-48656D01*
X-55000Y-9751D02*
X-48693D01*
X-55000Y-9451D02*
X-48693D01*
X-55000Y-9351D02*
X-48693D01*
X-55000Y-9551D02*
X-48693D01*
X-55000Y-10151D02*
X-48693D01*
X-55000Y-10051D02*
X-48693D01*
X-55000Y-10251D02*
X-48693D01*
X-55000Y-9851D02*
X-48693D01*
X-55000Y-9951D02*
X-48693D01*
X-55000Y-12751D02*
X-48693D01*
X-55000Y-12651D02*
X-48693D01*
X-55000Y-12851D02*
X-48693D01*
X-55000Y-12451D02*
X-48693D01*
X-55000Y-12351D02*
X-48693D01*
X-55000Y-12551D02*
X-48693D01*
X-55000Y-13251D02*
X-48671D01*
X-55000Y-13151D02*
X-48680D01*
X-55000Y-13351D02*
X-48659D01*
X-55000Y-12951D02*
X-48691D01*
X-55000Y-13051D02*
X-48687D01*
X-55000Y-11651D02*
X-48693D01*
X-55000Y-11551D02*
X-48693D01*
X-55000Y-11751D02*
X-48693D01*
X-55000Y-11351D02*
X-48693D01*
X-55000Y-11251D02*
X-48693D01*
X-55000Y-11451D02*
X-48693D01*
X-55000Y-12151D02*
X-48693D01*
X-55000Y-12051D02*
X-48693D01*
X-55000Y-12251D02*
X-48693D01*
X-55000Y-11851D02*
X-48693D01*
X-55000Y-11951D02*
X-48693D01*
X-39222Y-14951D02*
X-35250D01*
X-39708Y-15051D02*
X-35250D01*
X-39739Y-15151D02*
X-35250D01*
X-38562Y-14751D02*
X-35250D01*
X-38847Y-14851D02*
X-35250D01*
Y-16076D02*
Y-10000D01*
X-39808Y-15351D02*
X-35250D01*
X-36500Y-16076D02*
X-35250D01*
X-39772Y-15251D02*
X-35250D01*
X-39981Y-15751D02*
X-35250D01*
X-40031Y-15851D02*
X-35250D01*
X-40085Y-15951D02*
X-35250D01*
X-39847Y-15451D02*
X-35250D01*
X-39889Y-15551D02*
X-35250D01*
X-39933Y-15651D02*
X-35250D01*
X-40142Y-16051D02*
X-35250D01*
X-40202Y-16151D02*
X-37272D01*
X-40266Y-16251D02*
X-37671D01*
X-40334Y-16351D02*
X-37973D01*
X-40406Y-16451D02*
X-38475D01*
X-40483Y-16551D02*
X-38695D01*
X-40563Y-16651D02*
X-38845D01*
X-40649Y-16751D02*
X-38995D01*
X-40740Y-16851D02*
X-39144D01*
X-40837Y-16951D02*
X-39294D01*
X-39402Y-17023D02*
X-38575Y-16471D01*
X-39955Y-17850D02*
X-39402Y-17023D01*
X-40940Y-17051D02*
X-39421D01*
X-41050Y-17151D02*
X-39488D01*
X-41168Y-17251D02*
X-39554D01*
X-41294Y-17351D02*
X-39621D01*
X-41431Y-17451D02*
X-39688D01*
X-41579Y-17551D02*
X-39755D01*
X-41741Y-17651D02*
X-39822D01*
X-41920Y-17751D02*
X-39889D01*
X-42121Y-17851D02*
X-39955D01*
X-42352Y-17951D02*
X-39975D01*
X-42628Y-18051D02*
X-39995D01*
X-42984Y-18151D02*
X-40015D01*
X-43585Y-18251D02*
X-40059D01*
X-53018Y-18351D02*
X-40109D01*
X-54518Y-16851D02*
X-47304D01*
X-54618Y-16751D02*
X-47395D01*
X-54418Y-16951D02*
X-47207D01*
X-54818Y-16551D02*
X-47562D01*
X-54918Y-16451D02*
X-47638D01*
X-54718Y-16651D02*
X-47481D01*
X-54118Y-17251D02*
X-46877D01*
X-54218Y-17151D02*
X-46994D01*
X-54018Y-17351D02*
X-46750D01*
X-55000Y-16369D02*
X-48543Y-22826D01*
X-54318Y-17051D02*
X-47104D01*
X-55000Y-15051D02*
X-48337D01*
X-55000Y-14951D02*
X-48365D01*
X-55000Y-15151D02*
X-48306D01*
X-55000Y-14751D02*
X-48415D01*
X-55000Y-14651D02*
X-48436D01*
X-55000Y-14851D02*
X-48391D01*
X-55000Y-16251D02*
X-47778D01*
X-55000Y-16151D02*
X-47842D01*
X-55000Y-16351D02*
X-47710D01*
X-55000Y-15251D02*
X-48272D01*
X-55000Y-15351D02*
X-48236D01*
X-41574Y-18925D02*
X-40599Y-18731D01*
X-52718Y-18651D02*
X-40238D01*
X-52618Y-18751D02*
X-40698D01*
X-52418Y-18951D02*
X-41612D01*
X-52518Y-18851D02*
X-41200D01*
X-52318Y-19051D02*
X-41762D01*
X-52118Y-19251D02*
X-42061D01*
X-52218Y-19151D02*
X-41912D01*
X-52018Y-19351D02*
X-42211D01*
X-51918Y-19451D02*
X-42361D01*
X-44946Y-22023D02*
X-42401Y-19478D01*
X-53518Y-17851D02*
X-45923D01*
X-53618Y-17751D02*
X-46125D01*
X-53418Y-17951D02*
X-45692D01*
X-53818Y-17551D02*
X-46466D01*
X-53918Y-17451D02*
X-46614D01*
X-53718Y-17651D02*
X-46304D01*
X-52918Y-18451D02*
X-40155D01*
X-53118Y-18251D02*
X-44459D01*
X-52818Y-18551D02*
X-40198D01*
X-53318Y-18051D02*
X-45416D01*
X-53218Y-18151D02*
X-45060D01*
X-55000Y-7751D02*
X-48580D01*
X-55000Y-7651D02*
X-48555D01*
X-55000Y-7851D02*
X-48603D01*
X-55000Y-8051D02*
X-48641D01*
X-55000Y-7951D02*
X-48624D01*
X-55000Y-8251D02*
X-48668D01*
X-55000Y-8451D02*
X-48686D01*
X-55000Y-8351D02*
X-48678D01*
X-55000Y-8551D02*
X-48691D01*
X-55000Y-8651D02*
X-48693D01*
X-55000Y-8751D02*
X-48693D01*
X-55000Y-6951D02*
X-52000D01*
X-55000Y-6851D02*
X-52000D01*
X-55000Y-7051D02*
X-48340D01*
X-55000Y-6651D02*
X-52000D01*
X-55000Y-6551D02*
X-52000D01*
X-55000Y-6751D02*
X-52000D01*
X-55000Y-7251D02*
X-48424D01*
X-55000Y-7151D02*
X-48384D01*
X-55000Y-7351D02*
X-48461D01*
X-55000Y-7451D02*
X-48495D01*
X-55000Y-7551D02*
X-48527D01*
X-55000Y-9151D02*
X-48693D01*
X-55000Y-9051D02*
X-48693D01*
X-55000Y-9251D02*
X-48693D01*
X-55000Y-8951D02*
X-48693D01*
X-55000Y-8851D02*
X-48693D01*
X-69457Y-9951D02*
X-63000D01*
X-69457Y-10351D02*
X-63000D01*
X-69457Y-10251D02*
X-63000D01*
X-69457Y-11451D02*
X-63000D01*
X-69457Y-10051D02*
X-63000D01*
X-69457Y-10151D02*
X-63000D01*
X-69457Y-9251D02*
X-63000D01*
X-69457Y-9151D02*
X-63000D01*
X-69457Y-9351D02*
X-63000D01*
X-69457Y-8951D02*
X-63000D01*
X-69457Y-8851D02*
X-63000D01*
X-69457Y-9051D02*
X-63000D01*
X-69457Y-9751D02*
X-63000D01*
X-69457Y-9651D02*
X-63000D01*
X-69457Y-9851D02*
X-63000D01*
X-69457Y-9451D02*
X-63000D01*
X-69457Y-9551D02*
X-63000D01*
X-69457Y-8051D02*
X-63000D01*
X-69457Y-7951D02*
X-63000D01*
X-69457Y-8151D02*
X-63000D01*
X-69457Y-7751D02*
X-63000D01*
X-69457Y-7651D02*
X-63000D01*
X-69457Y-7851D02*
X-63000D01*
X-69457Y-8551D02*
X-63000D01*
X-69457Y-8451D02*
X-63000D01*
X-69457Y-8651D02*
X-63000D01*
X-69457Y-8251D02*
X-63000D01*
X-69457Y-8351D02*
X-63000D01*
X-69457Y-6951D02*
X-63000D01*
X-69457Y-6851D02*
X-63000D01*
X-69457Y-7051D02*
X-63000D01*
X-69457Y-6651D02*
X-63000D01*
X-69457Y-6551D02*
X-63000D01*
X-69457Y-6751D02*
X-63000D01*
X-69457Y-7451D02*
X-63000D01*
X-69457Y-7351D02*
X-63000D01*
X-69457Y-7551D02*
X-63000D01*
X-69457Y-7151D02*
X-63000D01*
X-69457Y-7251D02*
X-63000D01*
X-69457Y-11951D02*
X-63000D01*
X-69457Y-11851D02*
X-63000D01*
X-69457Y-12051D02*
X-63000D01*
X-69457Y-11651D02*
X-63000D01*
X-69457Y-11551D02*
X-63000D01*
X-69457Y-11751D02*
X-63000D01*
X-69457Y-12451D02*
X-63000D01*
X-69457Y-12351D02*
X-63000D01*
X-69457Y-12551D02*
X-63000D01*
X-69457Y-12151D02*
X-63000D01*
X-69457Y-12251D02*
X-63000D01*
X-69457Y-10751D02*
X-63000D01*
X-69457Y-10651D02*
X-63000D01*
X-69457Y-10851D02*
X-63000D01*
X-69457Y-10451D02*
X-63000D01*
X-69457Y-8751D02*
X-63000D01*
X-69457Y-10551D02*
X-63000D01*
X-69457Y-11251D02*
X-63000D01*
X-69457Y-11151D02*
X-63000D01*
X-69457Y-11351D02*
X-63000D01*
X-69457Y-10951D02*
X-63000D01*
X-69457Y-11051D02*
X-63000D01*
X-55000Y-15451D02*
X-48197D01*
X-55000Y-14451D02*
X-48471D01*
X-55000Y-15551D02*
X-48156D01*
X-55000Y-14251D02*
X-48497D01*
X-55000Y-13851D02*
X-48561D01*
X-55000Y-14351D02*
X-48485D01*
X-55000Y-15951D02*
X-47960D01*
X-55000Y-15851D02*
X-48013D01*
X-55000Y-16051D02*
X-47903D01*
X-55000Y-15651D02*
X-48111D01*
X-55000Y-15751D02*
X-48064D01*
X-55000Y-13651D02*
X-48608D01*
X-55000Y-13551D02*
X-48628D01*
X-69457Y-16251D02*
X-63000D01*
X-69457Y-16051D02*
X-63000D01*
X-69457Y-15951D02*
X-63000D01*
X-69457Y-16151D02*
X-63000D01*
X-55000Y-16369D02*
Y-1873D01*
X-69457Y-16551D02*
X-63000D01*
X-69457Y-16651D02*
X-63000D01*
X-69457Y-16351D02*
X-63000D01*
X-69457Y-16451D02*
X-63000D01*
X-69457Y-19151D02*
X-62838D01*
X-69457Y-19051D02*
X-62866D01*
X-69457Y-19251D02*
X-62808D01*
X-69457Y-18851D02*
X-62914D01*
X-69457Y-18751D02*
X-62934D01*
X-69457Y-18951D02*
X-62891D01*
X-69457Y-19551D02*
X-62698D01*
X-69457Y-19351D02*
X-62774D01*
X-69457Y-19451D02*
X-62737D01*
X-69457Y-18051D02*
X-63000D01*
X-69457Y-17751D02*
X-63000D01*
X-69457Y-18151D02*
X-62998D01*
X-69457Y-16951D02*
X-63000D01*
X-69457Y-16851D02*
X-63000D01*
X-69457Y-17051D02*
X-63000D01*
X-69457Y-18551D02*
X-62965D01*
X-69457Y-18451D02*
X-62977D01*
X-69457Y-18651D02*
X-62951D01*
X-69457Y-18251D02*
X-62994D01*
X-69457Y-18351D02*
X-62987D01*
X-69457Y-14051D02*
X-63000D01*
X-69457Y-13951D02*
X-63000D01*
X-69457Y-14151D02*
X-63000D01*
X-69457Y-13751D02*
X-63000D01*
X-69457Y-13651D02*
X-63000D01*
X-69457Y-13851D02*
X-63000D01*
Y-18025D02*
Y-50D01*
X-69457Y-14451D02*
X-63000D01*
X-69457Y-14551D02*
X-63000D01*
X-69457Y-14251D02*
X-63000D01*
X-69457Y-14351D02*
X-63000D01*
X-69457Y-13051D02*
X-63000D01*
X-69457Y-12951D02*
X-63000D01*
X-69457Y-13151D02*
X-63000D01*
X-69457Y-12751D02*
X-63000D01*
X-69457Y-12651D02*
X-63000D01*
X-69457Y-12851D02*
X-63000D01*
X-69457Y-13451D02*
X-63000D01*
X-69457Y-13351D02*
X-63000D01*
X-69457Y-13551D02*
X-63000D01*
X-69457Y-20918D02*
Y19082D01*
Y-13251D02*
X-63000D01*
X-69457Y-17251D02*
X-63000D01*
X-69457Y-17151D02*
X-63000D01*
X-69457Y-17351D02*
X-63000D01*
X-69457Y-15851D02*
X-63000D01*
X-69457Y-15751D02*
X-63000D01*
X-69457Y-16751D02*
X-63000D01*
X-69457Y-17851D02*
X-63000D01*
X-69457Y-17651D02*
X-63000D01*
X-69457Y-17951D02*
X-63000D01*
X-69457Y-17451D02*
X-63000D01*
X-69457Y-17551D02*
X-63000D01*
X-69457Y-15051D02*
X-63000D01*
X-69457Y-14951D02*
X-63000D01*
X-69457Y-15151D02*
X-63000D01*
X-69457Y-14751D02*
X-63000D01*
X-69457Y-14651D02*
X-63000D01*
X-69457Y-14851D02*
X-63000D01*
X-69457Y-15551D02*
X-63000D01*
X-69457Y-15451D02*
X-63000D01*
X-69457Y-15651D02*
X-63000D01*
X-69457Y-15251D02*
X-63000D01*
X-69457Y-15351D02*
X-63000D01*
X-50618Y-20751D02*
X-43674D01*
X-50718Y-20651D02*
X-43574D01*
X-50518Y-20851D02*
X-43774D01*
X-50318Y-21051D02*
X-43974D01*
X-50418Y-20951D02*
X-43874D01*
X-50218Y-21151D02*
X-44074D01*
X-50018Y-21351D02*
X-44274D01*
X-50118Y-21251D02*
X-44174D01*
X-49918Y-21451D02*
X-44374D01*
X-49818Y-21551D02*
X-44474D01*
X-49718Y-21651D02*
X-44574D01*
X-51718Y-19651D02*
X-42574D01*
X-51818Y-19551D02*
X-42474D01*
X-51618Y-19751D02*
X-42674D01*
X-51418Y-19951D02*
X-42874D01*
X-51518Y-19851D02*
X-42774D01*
X-51318Y-20051D02*
X-42974D01*
X-51118Y-20251D02*
X-43174D01*
X-51218Y-20151D02*
X-43074D01*
X-51018Y-20351D02*
X-43274D01*
X-50918Y-20451D02*
X-43374D01*
X-50818Y-20551D02*
X-43474D01*
X-48918Y-22451D02*
X-45232D01*
X-49018Y-22351D02*
X-45165D01*
X-48818Y-22551D02*
X-45299D01*
X-48618Y-22751D02*
X-45433D01*
X-48718Y-22651D02*
X-45366D01*
X-48543Y-22826D02*
X-45483D01*
X-44946Y-22023D01*
X-48543Y-22826D02*
X-45483D01*
X-45823Y-32265D02*
X-43820Y-34269D01*
X-49518Y-21851D02*
X-44774D01*
X-49618Y-21751D02*
X-44674D01*
X-49418Y-21951D02*
X-44874D01*
X-49218Y-22151D02*
X-45032D01*
X-49318Y-22051D02*
X-44965D01*
X-49118Y-22251D02*
X-45099D01*
X-50200Y-30826D02*
X-46749D01*
X-50200D02*
X-46749D01*
X-66782Y-36951D02*
X-48690D01*
X-66747Y-37051D02*
X-48740D01*
X-66714Y-37151D02*
X-48788D01*
X-52250Y-30651D02*
X-51369D01*
X-52250Y-30751D02*
X-50970D01*
X-61823Y-20859D02*
X-53033Y-29649D01*
X-66272Y-38451D02*
X-49186D01*
X-66306Y-38351D02*
X-49169D01*
X-66238Y-38551D02*
X-49201D01*
X-52250Y-30826D02*
X-50200D01*
X-66646Y-37351D02*
X-48875D01*
X-66680Y-37251D02*
X-48833D01*
X-66612Y-37451D02*
X-48915D01*
X-66544Y-37651D02*
X-48987D01*
X-66578Y-37551D02*
X-48952D01*
X-66510Y-37751D02*
X-49020D01*
X-66442Y-37951D02*
X-49078D01*
X-66476Y-37851D02*
X-49050D01*
X-66408Y-38051D02*
X-49104D01*
X-66374Y-38151D02*
X-49128D01*
X-66340Y-38251D02*
X-49149D01*
X-65654Y-40151D02*
X-49168D01*
X-65703Y-40051D02*
X-49185D01*
X-65605Y-40251D02*
X-49149D01*
X-65797Y-39851D02*
X-49214D01*
X-65831Y-39751D02*
X-49225D01*
X-65753Y-39951D02*
X-49201D01*
X-65408Y-40651D02*
X-49050D01*
X-65457Y-40551D02*
X-49078D01*
X-65358Y-40751D02*
X-49019D01*
X-65555Y-40351D02*
X-49127D01*
X-65506Y-40451D02*
X-49104D01*
X-66170Y-38751D02*
X-49225D01*
X-66204Y-38651D02*
X-49214D01*
X-66136Y-38851D02*
X-49234D01*
X-66069Y-39051D02*
X-49246D01*
X-66102Y-38951D02*
X-49241D01*
X-66035Y-39151D02*
X-49249D01*
X-65899Y-39551D02*
X-49241D01*
X-65933Y-39451D02*
X-49246D01*
X-65865Y-39651D02*
X-49234D01*
X-66001Y-39251D02*
X-49250D01*
X-65967Y-39351D02*
X-49249D01*
X-62616Y-46151D02*
X-43256D01*
X-62683Y-46051D02*
X-43356D01*
X-62549Y-46251D02*
X-43156D01*
X-62816Y-45851D02*
X-43556D01*
X-62750Y-45951D02*
X-43456D01*
X-45260Y-44147D02*
X-42052Y-47355D01*
X-62349Y-46551D02*
X-42856D01*
X-62282Y-46651D02*
X-42756D01*
X-62482Y-46351D02*
X-43056D01*
X-62415Y-46451D02*
X-42956D01*
X-63188Y-45151D02*
X-44256D01*
X-63238Y-45051D02*
X-44356D01*
X-63139Y-45251D02*
X-44156D01*
X-63336Y-44851D02*
X-44556D01*
X-63386Y-44751D02*
X-44656D01*
X-63287Y-44951D02*
X-44456D01*
X-62942Y-45651D02*
X-43756D01*
X-62991Y-45551D02*
X-43856D01*
X-62883Y-45751D02*
X-43656D01*
X-63090Y-45351D02*
X-44056D01*
X-63040Y-45451D02*
X-43956D01*
X-61213Y-48251D02*
X-40690D01*
X-61280Y-48151D02*
X-40921D01*
X-61146Y-48351D02*
X-40406D01*
X-61413Y-47951D02*
X-41294D01*
X-61480Y-47851D02*
X-41450D01*
X-61346Y-48051D02*
X-41119D01*
X-43603Y-74951D02*
X-39502Y-76650D01*
X-61079Y-48451D02*
X-40017D01*
X-43603Y-74951D02*
Y-67621D01*
X-61948Y-47151D02*
X-42256D01*
X-62014Y-47051D02*
X-42356D01*
X-61881Y-47251D02*
X-42156D01*
X-62148Y-46851D02*
X-42556D01*
X-62215Y-46751D02*
X-42656D01*
X-62081Y-46951D02*
X-42456D01*
X-61614Y-47651D02*
X-41722D01*
X-61680Y-47551D02*
X-41842D01*
X-61547Y-47751D02*
X-41592D01*
X-61814Y-47351D02*
X-42056D01*
X-61747Y-47451D02*
X-41953D01*
X-64619Y-42251D02*
X-48249D01*
X-64668Y-42151D02*
X-48323D01*
X-64569Y-42351D02*
X-48172D01*
X-64766Y-41951D02*
X-48458D01*
X-64816Y-41851D02*
X-48520D01*
X-64717Y-42051D02*
X-48392D01*
X-64372Y-42751D02*
X-47820D01*
X-64421Y-42651D02*
X-47915D01*
X-64323Y-42851D02*
X-47719D01*
X-64520Y-42451D02*
X-48091D01*
X-64471Y-42551D02*
X-48006D01*
X-65112Y-41251D02*
X-48832D01*
X-65161Y-41151D02*
X-48875D01*
X-65062Y-41351D02*
X-48787D01*
X-65260Y-40951D02*
X-48952D01*
X-65309Y-40851D02*
X-48987D01*
X-65210Y-41051D02*
X-48914D01*
X-64914Y-41651D02*
X-48636D01*
X-64964Y-41551D02*
X-48689D01*
X-64865Y-41751D02*
X-48580D01*
X-65786Y-39883D02*
X-62919Y-45697D01*
X-65013Y-41451D02*
X-48740D01*
X-63534Y-44451D02*
X-44956D01*
X-63583Y-44351D02*
X-45056D01*
X-63484Y-44551D02*
X-44856D01*
X-63682Y-44151D02*
X-45256D01*
X-63731Y-44051D02*
X-45647D01*
X-63632Y-44251D02*
X-45156D01*
X-55043Y-55961D02*
X-50169Y-60236D01*
X-63435Y-44651D02*
X-44756D01*
X-50169Y-60236D02*
X-46095Y-62958D01*
X-62919Y-45697D02*
X-59317Y-51087D01*
X-55043Y-55961D01*
X-64076Y-43351D02*
X-47111D01*
X-64125Y-43251D02*
X-47249D01*
X-64027Y-43451D02*
X-46962D01*
X-64224Y-43051D02*
X-47499D01*
X-64273Y-42951D02*
X-47612D01*
X-64175Y-43151D02*
X-47378D01*
X-63829Y-43851D02*
X-46208D01*
X-63879Y-43751D02*
X-46428D01*
X-63780Y-43951D02*
X-45953D01*
X-63977Y-43551D02*
X-46800D01*
X-63928Y-43651D02*
X-46623D01*
X-69261Y-25451D02*
X-57231D01*
X-69268Y-25351D02*
X-57331D01*
X-69255Y-25551D02*
X-57131D01*
X-69281Y-25151D02*
X-57531D01*
X-69288Y-25051D02*
X-57631D01*
X-69274Y-25251D02*
X-57431D01*
X-69229Y-25951D02*
X-56731D01*
X-69235Y-25851D02*
X-56831D01*
X-69222Y-26051D02*
X-56631D01*
X-69248Y-25651D02*
X-57031D01*
X-69242Y-25751D02*
X-56931D01*
X-69333Y-24351D02*
X-58331D01*
X-69340Y-24251D02*
X-58431D01*
X-69327Y-24451D02*
X-58231D01*
X-69353Y-24051D02*
X-58631D01*
X-69360Y-23951D02*
X-58731D01*
X-69346Y-24151D02*
X-58531D01*
X-69301Y-24851D02*
X-57831D01*
X-69307Y-24751D02*
X-57931D01*
X-69294Y-24951D02*
X-57731D01*
X-69320Y-24551D02*
X-58131D01*
X-69314Y-24651D02*
X-58031D01*
X-69082Y-27651D02*
X-55031D01*
X-69102Y-27551D02*
X-55131D01*
X-69062Y-27751D02*
X-54931D01*
X-69137Y-27351D02*
X-55331D01*
X-69143Y-27251D02*
X-55431D01*
X-69122Y-27451D02*
X-55231D01*
X-68982Y-28151D02*
X-54531D01*
X-69002Y-28051D02*
X-54631D01*
X-68962Y-28251D02*
X-54431D01*
X-69042Y-27851D02*
X-54831D01*
X-69022Y-27951D02*
X-54731D01*
X-69189Y-26551D02*
X-56131D01*
X-69196Y-26451D02*
X-56231D01*
X-69183Y-26651D02*
X-56031D01*
X-69209Y-26251D02*
X-56431D01*
X-69215Y-26151D02*
X-56531D01*
X-69202Y-26351D02*
X-56331D01*
X-69156Y-27051D02*
X-55631D01*
X-69163Y-26951D02*
X-55731D01*
X-69150Y-27151D02*
X-55531D01*
X-69176Y-26751D02*
X-55931D01*
X-69170Y-26851D02*
X-55831D01*
X-69457Y-20251D02*
X-62324D01*
X-69457Y-20151D02*
X-62389D01*
X-69457Y-20351D02*
X-62255D01*
X-69457Y-19951D02*
X-62506D01*
X-69457Y-19851D02*
X-62559D01*
X-69457Y-20051D02*
X-62449D01*
X-69457Y-20751D02*
X-61928D01*
X-69457Y-20651D02*
X-62018D01*
X-69457Y-20851D02*
X-61831D01*
X-69457Y-20451D02*
X-62181D01*
X-69457Y-20551D02*
X-62102D01*
X-69484Y-21051D02*
X-61631D01*
X-69492Y-21151D02*
X-61531D01*
X-69479Y-21251D02*
X-61431D01*
X-69457Y-19751D02*
X-62609D01*
X-69457Y-19651D02*
X-62655D01*
X-69464Y-20951D02*
X-61731D01*
X-69508Y-21451D02*
X-61231D01*
X-69517Y-21551D02*
X-61131D01*
X-69510Y-21651D02*
X-61031D01*
X-69481Y-21351D02*
X-61331D01*
X-69521Y-21495D02*
X-69134Y-27387D01*
X-69405Y-23251D02*
X-59431D01*
X-69412Y-23151D02*
X-59531D01*
X-69399Y-23351D02*
X-59331D01*
X-69425Y-22951D02*
X-59731D01*
X-69432Y-22851D02*
X-59831D01*
X-69419Y-23051D02*
X-59631D01*
X-69373Y-23751D02*
X-58931D01*
X-69379Y-23651D02*
X-59031D01*
X-69366Y-23851D02*
X-58831D01*
X-69392Y-23451D02*
X-59231D01*
X-69386Y-23551D02*
X-59131D01*
X-69478Y-22151D02*
X-60531D01*
X-69484Y-22051D02*
X-60631D01*
X-69471Y-22251D02*
X-60431D01*
X-69497Y-21851D02*
X-60831D01*
X-69504Y-21751D02*
X-60931D01*
X-69491Y-21951D02*
X-60731D01*
X-69445Y-22651D02*
X-60031D01*
X-69451Y-22551D02*
X-60131D01*
X-69438Y-22751D02*
X-59931D01*
X-69465Y-22351D02*
X-60331D01*
X-69458Y-22451D02*
X-60231D01*
X-68147Y-32351D02*
X-45738D01*
X-68167Y-32251D02*
X-45838D01*
X-68127Y-32451D02*
X-45638D01*
X-68207Y-32051D02*
X-46023D01*
X-68227Y-31951D02*
X-46107D01*
X-68187Y-32151D02*
X-45934D01*
X-68047Y-32851D02*
X-45238D01*
X-68067Y-32751D02*
X-45338D01*
X-68028Y-32951D02*
X-45138D01*
X-68107Y-32551D02*
X-45538D01*
X-68087Y-32651D02*
X-45438D01*
X-68366Y-31251D02*
X-46562D01*
X-68386Y-31151D02*
X-46612D01*
X-68346Y-31351D02*
X-46510D01*
X-68425Y-30951D02*
X-46700D01*
X-68445Y-30851D02*
X-46740D01*
X-68406Y-31051D02*
X-46658D01*
X-68266Y-31751D02*
X-46259D01*
X-68286Y-31651D02*
X-46328D01*
X-68246Y-31851D02*
X-46186D01*
X-68326Y-31451D02*
X-46453D01*
X-68306Y-31551D02*
X-46392D01*
X-67698Y-34251D02*
X-44343D01*
X-67732Y-34151D02*
X-43938D01*
X-67664Y-34351D02*
X-45249D01*
X-67596Y-34551D02*
X-45958D01*
X-67630Y-34451D02*
X-45653D01*
X-67562Y-34651D02*
X-46212D01*
X-67494Y-34851D02*
X-46627D01*
X-67528Y-34751D02*
X-46431D01*
X-67460Y-34951D02*
X-46803D01*
X-67426Y-35051D02*
X-46964D01*
X-67392Y-35151D02*
X-47113D01*
X-67928Y-33451D02*
X-44638D01*
X-67948Y-33351D02*
X-44738D01*
X-67908Y-33551D02*
X-44538D01*
X-67988Y-33151D02*
X-44938D01*
X-68008Y-33051D02*
X-45038D01*
X-67968Y-33251D02*
X-44838D01*
X-67800Y-33951D02*
X-44138D01*
X-67834Y-33851D02*
X-44238D01*
X-67766Y-34051D02*
X-44038D01*
X-67888Y-33651D02*
X-44438D01*
X-67868Y-33751D02*
X-44338D01*
X-68664Y-29751D02*
X-52928D01*
X-68684Y-29651D02*
X-53031D01*
X-68644Y-29851D02*
X-52817D01*
X-68724Y-29451D02*
X-53231D01*
X-68744Y-29351D02*
X-53331D01*
X-68704Y-29551D02*
X-53131D01*
X-68565Y-30251D02*
X-52266D01*
X-68585Y-30151D02*
X-52423D01*
X-68545Y-30351D02*
X-52250D01*
X-68624Y-29951D02*
X-52696D01*
X-68604Y-30051D02*
X-52566D01*
X-68863Y-28751D02*
X-53931D01*
X-68883Y-28651D02*
X-54031D01*
X-68843Y-28851D02*
X-53831D01*
X-68923Y-28451D02*
X-54231D01*
X-68943Y-28351D02*
X-54331D01*
X-68903Y-28551D02*
X-54131D01*
X-68783Y-29151D02*
X-53531D01*
X-68803Y-29051D02*
X-53631D01*
X-68764Y-29251D02*
X-53431D01*
X-69134Y-27387D02*
X-67870Y-33745D01*
X-68823Y-28951D02*
X-53731D01*
X-67121Y-35951D02*
X-48007D01*
X-67155Y-35851D02*
X-47917D01*
X-67087Y-36051D02*
X-48093D01*
X-67019Y-36251D02*
X-48251D01*
X-67053Y-36151D02*
X-48174D01*
X-66985Y-36351D02*
X-48324D01*
X-66917Y-36551D02*
X-48459D01*
X-66951Y-36451D02*
X-48393D01*
X-66883Y-36651D02*
X-48521D01*
X-66849Y-36751D02*
X-48581D01*
X-66815Y-36851D02*
X-48637D01*
X-67358Y-35251D02*
X-47251D01*
X-68465Y-30751D02*
X-52250D01*
X-67325Y-35351D02*
X-47380D01*
X-68505Y-30551D02*
X-52250D01*
X-68525Y-30451D02*
X-52250D01*
X-68485Y-30651D02*
X-52250D01*
X-67257Y-35551D02*
X-47614D01*
X-67291Y-35451D02*
X-47501D01*
X-67223Y-35651D02*
X-47721D01*
X-67870Y-33745D02*
X-65786Y-39883D01*
X-67189Y-35751D02*
X-47821D01*
X33000Y9750D02*
Y23000D01*
X31000Y21000D02*
X33000Y23000D01*
X21188Y9750D02*
X22000D01*
X23007Y5500D02*
X28750D01*
X33000Y23000D02*
X38500Y28500D01*
X28750Y5500D02*
X33000Y9750D01*
X21507Y4000D02*
X23007Y5500D01*
X24500Y21000D02*
X31000D01*
X12250Y-31750D02*
X14750Y-34250D01*
Y-50750D02*
X15000Y-51000D01*
X12250Y-31750D02*
Y-31250D01*
X10000Y-20700D02*
X12250Y-22950D01*
Y-31250D02*
Y-22950D01*
X15000Y-72250D02*
Y-51000D01*
X14750Y-38250D02*
Y-34250D01*
X10000Y-20700D02*
Y-20250D01*
X14750Y-50750D02*
Y-38250D01*
X15000Y-51000D02*
X15000Y-51000D01*
X28000Y-28062D02*
Y-27250D01*
X26750Y-29312D02*
X28000Y-28062D01*
X1500Y-20250D02*
Y-17500D01*
Y-20250D02*
X1750Y-20500D01*
X0Y-16000D02*
Y-14000D01*
Y-16000D02*
X1500Y-17500D01*
X-4000Y-14000D02*
X-3750Y-14250D01*
Y-20179D02*
X-3500Y-20429D01*
X-3750Y-20179D02*
Y-14250D01*
X-7000Y-28500D02*
X-2000Y-33500D01*
Y-28750D01*
Y-33500D02*
X-750Y-34750D01*
X2629D02*
X5597Y-37718D01*
X-750Y-34750D02*
X2629D01*
X5782Y-37532D02*
X6500Y-38250D01*
X8500Y-16500D02*
Y-16000D01*
X13000D01*
X8000D02*
Y-14000D01*
Y-16000D02*
X8500Y-16500D01*
X-7000Y-28500D02*
Y-24000D01*
X6500Y-49500D02*
Y-38250D01*
X5000Y-51000D02*
X6500Y-49500D01*
X-10905Y-20587D02*
X-10783Y-20710D01*
Y-25873D02*
Y-20710D01*
Y-25873D02*
X-9750Y-26906D01*
Y-33000D02*
Y-26906D01*
X-22336Y10664D02*
Y13836D01*
X-22500Y10500D02*
X-22336Y10664D01*
X-15500Y-36000D02*
Y-34918D01*
X-25500Y30750D02*
X-19250D01*
X-14184Y3816D02*
X-14000Y4000D01*
X-21184Y3816D02*
X-14184D01*
X-21367Y3633D02*
X-21184Y3816D01*
X-12297Y-35547D02*
X-9750Y-33000D01*
X-15047Y-35547D02*
X-12297D01*
X-15500Y-36000D02*
X-15047Y-35547D01*
X53000Y-7750D02*
Y-2250D01*
X19438Y8000D02*
X21188Y9750D01*
X14000Y8000D02*
X19438D01*
X5000Y-72250D02*
Y-51000D01*
Y-72250D02*
X5000Y-72250D01*
X-15000Y-51000D02*
X-15000Y-51000D01*
Y-72250D02*
Y-51000D01*
X36250Y-13000D02*
X46250D01*
X5000Y49000D02*
X8250D01*
X4750Y49250D02*
X5000Y49000D01*
X8250D02*
X11500Y45750D01*
X-17250Y-29500D02*
X-17000Y-29250D01*
X-25750Y36250D02*
X-19629D01*
X-16250Y32871D01*
Y31500D02*
Y32871D01*
Y31500D02*
X-15500Y30750D01*
X-12750D01*
X-16500Y8500D02*
Y14000D01*
X-18750Y16250D02*
X-16500Y14000D01*
X-24750Y16250D02*
X-22336Y13836D01*
X-17250Y-33168D02*
X-15500Y-34918D01*
X-17250Y-33168D02*
Y-29500D01*
X-16500Y8500D02*
X-16000Y8000D01*
X-14000D01*
X26750Y-32500D02*
Y-29312D01*
X32248Y-31997D02*
X32750Y-32500D01*
X32248Y-31997D02*
Y-22253D01*
X32750Y-38750D02*
Y-32500D01*
X-15500Y-50500D02*
Y-36000D01*
Y-50500D02*
X-15000Y-51000D01*
X-11750Y23750D02*
X-11601D01*
X-12750Y24750D02*
X-11750Y23750D01*
X-11601D02*
X-4500Y16650D01*
Y14500D02*
Y16650D01*
Y14500D02*
X-4000Y14000D01*
X-19250Y24750D02*
X-10414Y15914D01*
X-8500D01*
X-8000Y15414D01*
Y14000D02*
Y15414D01*
X4000Y14000D02*
Y21000D01*
X1250Y23750D02*
X4000Y21000D01*
X1250Y23750D02*
Y28500D01*
X9750Y23414D02*
Y28250D01*
X10250Y28750D01*
X8000Y21664D02*
X9750Y23414D01*
X8000Y14000D02*
Y21664D01*
X18500Y21000D02*
Y27250D01*
X18250Y32750D02*
X18500Y32500D01*
Y27250D02*
Y32500D01*
X11500Y39750D02*
X19250D01*
X22253Y42752D01*
X30497D01*
X32500Y40750D01*
Y35250D02*
Y40750D01*
X37750Y35250D02*
X38500Y34500D01*
X32500Y35250D02*
X37750D01*
X14000Y4000D02*
X21507D01*
X57500Y-21250D02*
Y-14813D01*
X56328Y-13642D02*
X57500Y-14813D01*
X52892Y-13642D02*
X56328D01*
X52750Y-13500D02*
X52892Y-13642D01*
X52750Y-26000D02*
X57500Y-21250D01*
X52500Y-13750D02*
X52750Y-13500D01*
X47000Y-13750D02*
X52500D01*
X47000D02*
Y-7750D01*
X46250Y-13000D02*
X47000Y-13750D01*
D15*
X23250Y-28000D02*
D03*
X19250D02*
D03*
X-31250Y-18250D02*
D03*
X-27250D02*
D03*
X-17000Y-29250D02*
D03*
X-13000D02*
D03*
X12250Y-31250D02*
D03*
X8250D02*
D03*
D16*
X0Y0D02*
D03*
D17*
X14000Y-8000D02*
D03*
Y-4000D02*
D03*
Y0D02*
D03*
Y4000D02*
D03*
Y8000D02*
D03*
X-14000Y8000D02*
D03*
Y4000D02*
D03*
Y0D02*
D03*
Y-4000D02*
D03*
Y-8000D02*
D03*
D18*
X-8000Y-14000D02*
D03*
X-4000D02*
D03*
X0D02*
D03*
X4000D02*
D03*
X8000D02*
D03*
X8000Y14000D02*
D03*
X4000D02*
D03*
X0D02*
D03*
X-4000D02*
D03*
X-8000D02*
D03*
D19*
X17000Y-21500D02*
D03*
X26000D02*
D03*
D20*
X-48250Y-20826D02*
D03*
Y-26826D02*
D03*
X-41500Y3250D02*
D03*
Y-2750D02*
D03*
X38500Y28500D02*
D03*
Y34500D02*
D03*
X-6500Y24750D02*
D03*
Y30750D02*
D03*
X47000Y-13750D02*
D03*
Y-19750D02*
D03*
X-22250Y-20000D02*
D03*
Y-14000D02*
D03*
X36250Y0D02*
D03*
Y-6000D02*
D03*
X11500Y45750D02*
D03*
Y39750D02*
D03*
X-41500Y10750D02*
D03*
Y16750D02*
D03*
X-12750Y30750D02*
D03*
Y24750D02*
D03*
X-19250Y30750D02*
D03*
Y24750D02*
D03*
D21*
X-54000Y11000D02*
D03*
X-48000D02*
D03*
X-54000Y-3000D02*
D03*
X-48000D02*
D03*
X-25500Y-38500D02*
D03*
X-31500D02*
D03*
X32750Y40500D02*
D03*
X38750D02*
D03*
X32750Y-38750D02*
D03*
X26750D02*
D03*
X52750Y-26000D02*
D03*
X46750D02*
D03*
X26750Y-32500D02*
D03*
X32750D02*
D03*
X24500Y21000D02*
D03*
X18500D02*
D03*
Y27250D02*
D03*
X24500D02*
D03*
X-24750Y16250D02*
D03*
X-18750D02*
D03*
X23250Y-9000D02*
D03*
X29250D02*
D03*
X18750Y-14500D02*
D03*
X24750D02*
D03*
X23250Y-1500D02*
D03*
X29250D02*
D03*
X43750Y-40250D02*
D03*
X49750D02*
D03*
X43500Y-46250D02*
D03*
X49500D02*
D03*
X53000Y-7750D02*
D03*
X47000D02*
D03*
X-54000Y4000D02*
D03*
X-48000D02*
D03*
D22*
X52500Y-52000D02*
D03*
X79000Y-36500D02*
D03*
X75000Y-45000D02*
D03*
X71750Y-52250D02*
D03*
X67250Y-60250D02*
D03*
X63250Y-66250D02*
D03*
X-32250Y-50250D02*
D03*
X22000Y9750D02*
D03*
X6000Y-23750D02*
D03*
X28000Y-27250D02*
D03*
X1750Y-20500D02*
D03*
X10000Y-20250D02*
D03*
X-3500Y-20429D02*
D03*
X13000Y-16000D02*
D03*
X2250Y-2000D02*
D03*
X-2000Y1500D02*
D03*
X-32214Y-33011D02*
D03*
X-23751Y-28751D02*
D03*
X-26446Y-33323D02*
D03*
X-7000Y-24000D02*
D03*
X-10905Y-20587D02*
D03*
X-22500Y10500D02*
D03*
X-25500Y30750D02*
D03*
X-8500Y41250D02*
D03*
X-15250Y37750D02*
D03*
X-49500Y-10500D02*
D03*
X-44022Y-13772D02*
D03*
X-48500Y22000D02*
D03*
X-40193Y-10557D02*
D03*
X53000Y-2250D02*
D03*
X53500Y3500D02*
D03*
X30000Y26000D02*
D03*
X6000Y38000D02*
D03*
X-7250Y54250D02*
D03*
X-10500Y-40000D02*
D03*
X-35500Y24000D02*
D03*
X44500Y37500D02*
D03*
X32500Y-51750D02*
D03*
X-40500Y22500D02*
D03*
X4750Y49250D02*
D03*
X20750Y-38750D02*
D03*
X-25750Y36250D02*
D03*
X-38500Y-33750D02*
D03*
X46750Y-32250D02*
D03*
X38182Y22459D02*
D03*
X36500Y7000D02*
D03*
Y17750D02*
D03*
D23*
X-31751Y-27798D02*
D03*
X-31750Y-24000D02*
D03*
D24*
X-35500Y-73000D02*
D03*
X35500D02*
D03*
D25*
X25000Y-51000D02*
D03*
X15000D02*
D03*
X5000D02*
D03*
X-5000D02*
D03*
X-15000D02*
D03*
X-25000D02*
D03*
D26*
X25000Y-72250D02*
D03*
X15000D02*
D03*
X5000D02*
D03*
X-5000D02*
D03*
X-15000D02*
D03*
X-25000D02*
D03*
D27*
X1250Y28500D02*
D03*
X-21367Y3633D02*
D03*
X-15500Y-36000D02*
D03*
X500Y55750D02*
D03*
X-44250Y-39250D02*
D03*
X6500Y-38250D02*
D03*
X14750D02*
D03*
X-32250Y3000D02*
D03*
X-5250Y-36000D02*
D03*
X10250Y28750D02*
D03*
D28*
X36250Y-12250D02*
D03*
X32248Y-22253D02*
D03*
X40247D02*
D03*
X22253Y42752D02*
D03*
X18250Y32750D02*
D03*
X26250D02*
D03*
D29*
X44500Y18250D02*
D03*
Y9250D02*
D03*
D30*
X-2000Y-28750D02*
D03*
Y-24750D02*
D03*
X-16500Y-17000D02*
D03*
Y-21000D02*
D03*
X52750Y-13500D02*
D03*
Y-17500D02*
D03*
X51250Y12000D02*
D03*
Y16000D02*
D03*
X45250Y-1000D02*
D03*
Y3000D02*
D03*
X32500Y35250D02*
D03*
Y31250D02*
D03*
D47*
X-39750Y-24250D02*
D03*
D48*
X-43000Y-20076D02*
D03*
D49*
X-36500Y-27576D02*
D03*
D50*
Y-20076D02*
D03*
D51*
X-43000Y-27576D02*
D03*
D52*
X65403Y-58973D02*
X68097Y-56279D01*
X71714Y-52214D02*
X71750Y-52250D01*
X65575Y-52214D02*
X71714D01*
X71750Y-52301D02*
Y-52250D01*
X65325Y-51964D02*
X65575Y-52214D01*
X52536Y-51964D02*
X65325D01*
X68097Y-56279D02*
Y-55955D01*
X71750Y-52301D01*
X64868Y-58973D02*
X65403D01*
X60000Y-63840D02*
X64868Y-58973D01*
X60000Y-69500D02*
Y-63840D01*
X52500Y-52000D02*
X52536Y-51964D01*
X31699Y-51000D02*
X32449Y-51750D01*
X32500D01*
X25000Y-51000D02*
X31699D01*
X26750Y-45345D02*
Y-38750D01*
X25845Y-46250D02*
X26750Y-45345D01*
X49500Y-46250D02*
X49750Y-46000D01*
Y-40250D01*
X25845Y-50155D02*
Y-46250D01*
X25000Y-51000D02*
X25845Y-50155D01*
Y-46250D02*
X43500D01*
Y-40500D01*
X43750Y-40250D01*
X49500Y-48949D02*
X52500Y-51949D01*
X49500Y-48949D02*
Y-46250D01*
X52500Y-52000D02*
Y-51949D01*
D53*
X-35500Y-73000D02*
Y-53179D01*
X-32571Y-50250D01*
X-32250D01*
X35500Y-73000D02*
Y-54750D01*
X32500Y-51750D02*
X35500Y-54750D01*
X25000Y-72250D02*
Y-51000D01*
Y-72250D02*
X25000Y-72250D01*
X-5000D02*
Y-51000D01*
X-5000Y-51000D02*
X-5000Y-51000D01*
X-25000Y-72250D02*
Y-51000D01*
D54*
X-59000Y-18025D02*
X-50200Y-26826D01*
X-43750D01*
X-59000Y-18025D02*
Y-50D01*
X-56950Y2000D02*
X-56000D01*
X-54000Y4000D01*
X-59000Y-50D02*
X-56950Y2000D01*
X18000Y-26750D02*
Y-22500D01*
Y-26750D02*
X19250Y-28000D01*
X17000Y-21500D02*
X18000Y-22500D01*
X20559Y-38559D02*
Y-32288D01*
Y-38559D02*
X20750Y-38750D01*
X19250Y-30979D02*
Y-28000D01*
Y-30979D02*
X20559Y-32288D01*
X-5125Y-50875D02*
X-5000Y-51000D01*
X-5184Y-40191D02*
X-5125Y-40250D01*
X-5250Y-36000D02*
X-5125Y-36125D01*
X-10309Y-40191D02*
X-5184D01*
X-5125Y-40250D02*
Y-36125D01*
Y-50875D02*
Y-40250D01*
X-32023Y-37977D02*
Y-33203D01*
Y-37977D02*
X-31500Y-38500D01*
X-38500Y-33750D02*
Y-33493D01*
X-36500Y-31493D02*
Y-27576D01*
X-38500Y-33493D02*
X-36500Y-31493D01*
X-32214Y-33011D02*
X-32023Y-33203D01*
X-43750Y-26826D02*
X-43000Y-27576D01*
Y-28325D02*
Y-27576D01*
Y-28325D02*
X-43000Y-28325D01*
Y-29432D02*
Y-28325D01*
Y-29432D02*
X-38682Y-33750D01*
X-23751Y-28481D02*
Y-21501D01*
X-22250Y-20000D01*
X-31899Y-27650D02*
X-31751Y-27798D01*
X-36500Y-27576D02*
X-34360D01*
X-34286Y-27650D01*
X-31899D01*
X-16750Y-21250D02*
X-16500Y-21000D01*
X-19750Y-21250D02*
X-16750D01*
X-21000Y-20000D02*
X-19750Y-21250D01*
X-22250Y-20000D02*
X-21000D01*
X-44022Y-13772D02*
Y-13502D01*
X-44693Y-12831D02*
X-44022Y-13502D01*
X-44693Y-12831D02*
Y-8693D01*
X-41500Y-5500D02*
Y-2750D01*
X-44693Y-8693D02*
X-41500Y-5500D01*
X-33076Y-20076D02*
X-31250Y-18250D01*
X-36500Y-20076D02*
X-33076D01*
X-31250Y-18250D02*
Y-10000D01*
X-25250Y-4000D01*
X-14000D02*
X-9757D01*
X-25250D02*
X-14000D01*
X-10500Y-40000D02*
X-10309Y-40191D01*
X-8000Y6036D02*
X-6036Y8000D01*
X-2257D02*
X0Y10257D01*
X-6036Y8000D02*
X-2257D01*
X-8000Y-2243D02*
Y6036D01*
X6036Y8000D02*
X8250Y5785D01*
Y-1786D02*
X10465Y-4000D01*
X2465Y8000D02*
X6036D01*
X8250Y-1786D02*
Y5785D01*
X-9757Y-4000D02*
X-8000Y-2243D01*
X207Y10257D02*
X2465Y8000D01*
X0Y10257D02*
X207D01*
X10465Y-4000D02*
X14000D01*
X14000Y-4000D01*
X0Y10257D02*
Y14000D01*
X-32250Y3000D02*
X-25250Y-4000D01*
X41500Y40500D02*
X44500Y37500D01*
X38750Y40500D02*
X41500D01*
X-25000Y-51000D02*
X-25000Y-51000D01*
X-44250Y-39500D02*
X-39219Y-44531D01*
X-25031D01*
X-25000Y-44500D01*
Y-39000D01*
X-44250Y-39500D02*
Y-39250D01*
X-48000Y4000D02*
Y11000D01*
Y4000D02*
X-48000Y4000D01*
X-42250D02*
X-41500Y3250D01*
X-48000Y4000D02*
X-42250D01*
X-48000Y-3000D02*
Y4000D01*
X-41500Y3250D02*
X-41500Y3250D01*
X-41500Y3250D02*
Y10750D01*
X-32500Y3250D02*
X-32250Y3000D01*
X-41500Y3250D02*
X-32500D01*
X-25000Y-51000D02*
Y-45750D01*
X-25500Y-38500D02*
X-25000Y-39000D01*
X46750Y-32250D02*
X46750Y-32250D01*
Y-26000D01*
X-6500Y24750D02*
X-5250D01*
X0Y19500D01*
Y14000D02*
Y19500D01*
X18750Y-14500D02*
Y-13500D01*
X23250Y-9000D01*
X21750Y0D02*
X24250Y2500D01*
X31786D02*
X34286Y0D01*
X36250D01*
X24250Y2500D02*
X31786D01*
X18840Y-4000D02*
X23250Y-8410D01*
X14000Y-4000D02*
X18840D01*
X14000Y0D02*
X21750D01*
X23250Y-9000D02*
Y-8410D01*
X50000Y17250D02*
X51250Y16000D01*
X45500Y17250D02*
X50000D01*
X45500Y10250D02*
X49500D01*
X51250Y12000D01*
X44500Y9250D02*
X45500Y10250D01*
X45250Y3000D02*
Y8500D01*
X44500Y9250D02*
X45250Y8500D01*
X44500Y18250D02*
X45500Y17250D01*
X36500Y17750D02*
X36691Y17941D01*
X44191D02*
X44500Y18250D01*
X36691Y17941D02*
X44191D01*
X38021Y8250D02*
X43500D01*
X44500Y9250D01*
X36771Y7000D02*
X38021Y8250D01*
X36500Y7000D02*
X36771D01*
D55*
X-48750Y-20826D02*
Y-17848D01*
X-53875Y-12723D02*
X-48750Y-17848D01*
X-53875Y-12723D02*
Y-9038D01*
X6000Y-24291D02*
Y-23750D01*
X8250Y-31250D02*
Y-26541D01*
X6000Y-24291D02*
X8250Y-26541D01*
X23250Y-24250D02*
X24450Y-23050D01*
X24500D01*
X26000Y-21550D01*
Y-21500D01*
X23250Y-28000D02*
Y-24250D01*
X29125Y-1625D02*
X29375D01*
X26250Y25500D02*
X26367Y25617D01*
X41252Y-18253D02*
X42750Y-19750D01*
X-27926Y-31301D02*
Y-26144D01*
X-29920Y-24150D02*
X-27926Y-26144D01*
Y-31301D02*
X-26446Y-32781D01*
Y-33323D02*
Y-32781D01*
X-13000Y-29250D02*
Y-28422D01*
X-15422Y-26000D02*
X-13000Y-28422D01*
X-25950Y-32751D02*
X-22094D01*
X-19750Y-30407D02*
Y-27172D01*
X-22094Y-32751D02*
X-19750Y-30407D01*
X-18578Y-26000D02*
X-15422D01*
X-19750Y-27172D02*
X-18578Y-26000D01*
X-31600Y-24150D02*
X-29920D01*
X-31750Y-24000D02*
X-31600Y-24150D01*
X-31750Y-24000D02*
X-31400D01*
X-27500Y-20100D01*
Y-18500D01*
X-27250Y-18250D01*
Y-18250D02*
X-23500Y-14500D01*
X-22750D01*
X-27250Y-18250D02*
Y-18250D01*
X-22750Y-14500D02*
X-22250Y-14000D01*
X-19000Y-14500D02*
X-16500Y-17000D01*
X-22250Y-14000D02*
X-21750Y-14500D01*
X-16500Y-17000D02*
X-16500D01*
X-21750Y-14500D02*
X-19000D01*
X40247Y-36747D02*
X43750Y-40250D01*
X40247Y-36747D02*
Y-22253D01*
X42750Y-19750D01*
X26000Y-21450D02*
X29197Y-18253D01*
X26000Y-21500D02*
Y-21450D01*
X29197Y-18253D02*
X41252D01*
X-53875Y-9038D02*
Y-3125D01*
X-52796Y-10117D02*
X-49883D01*
X-53875Y-9038D02*
X-52796Y-10117D01*
X-49883D02*
X-49500Y-10500D01*
X-46000Y16750D02*
X-41500D01*
X-50500D02*
X-46000D01*
X-48500Y22000D02*
X-46000Y19500D01*
Y16750D02*
Y19500D01*
X49250Y3525D02*
Y5000D01*
Y2050D02*
Y3525D01*
X53475D01*
X53500Y3500D01*
X-43750Y-20826D02*
X-43000Y-20076D01*
X-48250Y-20826D02*
X-43750D01*
X26367Y25617D02*
X29617D01*
X30000Y26000D01*
X24500Y27250D02*
X26250Y25500D01*
X30953Y29703D02*
X32250Y31000D01*
Y31000D01*
X32500Y31250D02*
X32500D01*
X32250Y31000D02*
X32500Y31250D01*
X29044Y29956D02*
X29044D01*
X29297Y29703D01*
X30953D01*
X26250Y32750D02*
X29044Y29956D01*
X24500Y27250D02*
X25000Y27750D01*
Y31500D01*
X26250Y32750D01*
X-6500Y30750D02*
X750Y38000D01*
X6000D01*
X-6709Y54250D02*
X-5209Y55750D01*
X-7250Y54250D02*
X-6709D01*
X-5209Y55750D02*
X500D01*
X47000Y-19750D02*
X50500D01*
X52500Y-17750D01*
X52750Y-17500D02*
X52750D01*
X42750Y-19750D02*
X47000D01*
X-54000Y-3000D02*
X-53875Y-3125D01*
X-52250Y15000D02*
X-50500Y16750D01*
X-52328Y15000D02*
X-52250D01*
X-53500Y11500D02*
Y13828D01*
X-52328Y15000D01*
X-54000Y11000D02*
X-53500Y11500D01*
X25250Y-20750D02*
Y-15000D01*
Y-20750D02*
X26000Y-21500D01*
X24750Y-14500D02*
X25250Y-15000D01*
X33250Y-5500D02*
X35750D01*
X29375Y-1625D02*
X33250Y-5500D01*
X35750D02*
X36250Y-6000D01*
X24750Y-14500D02*
X28750Y-10500D01*
Y-9500D01*
X29250Y-9000D01*
Y-1750D01*
X29125Y-1625D02*
X29250Y-1500D01*
X38564Y22841D02*
X39341D01*
X39750Y23250D02*
X48950D01*
X38182Y22459D02*
X38564Y22841D01*
X39341D02*
X39750Y23250D01*
X48950D02*
X55000Y17200D01*
Y10750D02*
Y17200D01*
X49250Y5000D02*
X55000Y10750D01*
X46450Y-750D02*
X49250Y2050D01*
X45250Y-1000D02*
X45500Y-750D01*
X46450D01*
X36250Y-6000D02*
X38750Y-3500D01*
X42750D02*
X45250Y-1000D01*
X45250D01*
X38750Y-3500D02*
X42750D01*
D56*
X-2000Y-24750D02*
X4324D01*
X5324Y-23750D01*
X6000D01*
M02*
