G04*
G04 #@! TF.GenerationSoftware,Altium Limited,Altium Designer,22.11.1 (43)*
G04*
G04 Layer_Color=128*
%FSLAX44Y44*%
%MOMM*%
G71*
G04*
G04 #@! TF.SameCoordinates,CE2BE6CF-A1CA-4722-B298-AB64FA6D62B8*
G04*
G04*
G04 #@! TF.FilePolarity,Positive*
G04*
G01*
G75*
%ADD74C,0.1270*%
D74*
X78000Y-36500D02*
X80000D01*
X79000Y-37500D02*
Y-35500D01*
X74000Y-45000D02*
X76000D01*
X75000Y-46000D02*
Y-44000D01*
X70750Y-52250D02*
X72750D01*
X71750Y-53250D02*
Y-51250D01*
X66250Y-60250D02*
X68250D01*
X67250Y-61250D02*
Y-59250D01*
X62250Y-66250D02*
X64250D01*
X63250Y-67250D02*
Y-65250D01*
X-33250Y-50250D02*
X-31250D01*
X-32250Y-51250D02*
Y-49250D01*
X21000Y9750D02*
X23000D01*
X22000Y8750D02*
Y10750D01*
X5000Y-23750D02*
X7000D01*
X6000Y-24750D02*
Y-22750D01*
X27000Y-27250D02*
X29000D01*
X28000Y-28250D02*
Y-26250D01*
X750Y-20500D02*
X2750D01*
X1750Y-21500D02*
Y-19500D01*
X9000Y-20250D02*
X11000D01*
X10000Y-21250D02*
Y-19250D01*
X-4500Y-20429D02*
X-2500D01*
X-3500Y-21429D02*
Y-19429D01*
X12000Y-16000D02*
X14000D01*
X13000Y-17000D02*
Y-15000D01*
X1250Y-2000D02*
X3250D01*
X2250Y-3000D02*
Y-1000D01*
X-3000Y1500D02*
X-1000D01*
X-2000Y500D02*
Y2500D01*
X-33214Y-33011D02*
X-31214D01*
X-32214Y-34011D02*
Y-32011D01*
X-24751Y-28751D02*
X-22751D01*
X-23751Y-29751D02*
Y-27751D01*
X-27446Y-33323D02*
X-25446D01*
X-26446Y-34323D02*
Y-32322D01*
X-8000Y-24000D02*
X-6000D01*
X-7000Y-25000D02*
Y-23000D01*
X-11905Y-20587D02*
X-9905D01*
X-10905Y-21588D02*
Y-19588D01*
X-23500Y10500D02*
X-21500D01*
X-22500Y9500D02*
Y11500D01*
X-26500Y30750D02*
X-24500D01*
X-25500Y29750D02*
Y31750D01*
X-9500Y41250D02*
X-7500D01*
X-8500Y40250D02*
Y42250D01*
X-16250Y37750D02*
X-14250D01*
X-15250Y36750D02*
Y38750D01*
X-50500Y-10500D02*
X-48500D01*
X-49500Y-11500D02*
Y-9500D01*
X-45022Y-13772D02*
X-43022D01*
X-44022Y-14772D02*
Y-12772D01*
X-49500Y22000D02*
X-47500D01*
X-48500Y21000D02*
Y23000D01*
X-41193Y-10557D02*
X-39193D01*
X-40193Y-11557D02*
Y-9557D01*
X52000Y-2250D02*
X54000D01*
X53000Y-3250D02*
Y-1250D01*
X52500Y3500D02*
X54500D01*
X53500Y2500D02*
Y4500D01*
X29000Y26000D02*
X31000D01*
X30000Y25000D02*
Y27000D01*
X5000Y38000D02*
X7000D01*
X6000Y37000D02*
Y39000D01*
X-8250Y54250D02*
X-6250D01*
X-7250Y53250D02*
Y55250D01*
X-11500Y-40000D02*
X-9500D01*
X-10500Y-41000D02*
Y-39000D01*
X-36500Y24000D02*
X-34500D01*
X-35500Y23000D02*
Y25000D01*
X43500Y37500D02*
X45500D01*
X44500Y36500D02*
Y38500D01*
X31500Y-51750D02*
X33500D01*
X32500Y-52750D02*
Y-50750D01*
X-41500Y22500D02*
X-39500D01*
X-40500Y21500D02*
Y23500D01*
X3750Y49250D02*
X5750D01*
X4750Y48250D02*
Y50250D01*
X19750Y-38750D02*
X21750D01*
X20750Y-39750D02*
Y-37750D01*
X-26750Y36250D02*
X-24750D01*
X-25750Y35250D02*
Y37250D01*
X-39500Y-33750D02*
X-37500D01*
X-38500Y-34750D02*
Y-32750D01*
X45750Y-32250D02*
X47750D01*
X46750Y-33250D02*
Y-31250D01*
X37182Y22459D02*
X39182D01*
X38182Y21459D02*
Y23459D01*
X35500Y7000D02*
X37500D01*
X36500Y6000D02*
Y8000D01*
X35500Y17750D02*
X37500D01*
X36500Y16750D02*
Y18750D01*
M02*
