G04*
G04 #@! TF.GenerationSoftware,Altium Limited,Altium Designer,22.11.1 (43)*
G04*
G04 Layer_Color=8388736*
%FSLAX44Y44*%
%MOMM*%
G71*
G04*
G04 #@! TF.SameCoordinates,CE2BE6CF-A1CA-4722-B298-AB64FA6D62B8*
G04*
G04*
G04 #@! TF.FilePolarity,Negative*
G04*
G01*
G75*
%ADD31R,0.3532X0.4532*%
%ADD32R,1.2032X1.3032*%
%ADD33R,0.8032X0.4032*%
%ADD34R,0.4032X0.8032*%
%ADD35R,0.6020X0.6120*%
%ADD36R,0.5032X0.5032*%
%ADD37R,0.5032X0.5032*%
%ADD38C,0.6032*%
%ADD39R,0.5032X0.4332*%
%ADD40R,0.8032X2.0032*%
%ADD41R,0.7532X1.8032*%
%ADD42R,0.7532X1.3532*%
%ADD43C,0.7032*%
%ADD44R,0.6032X0.6032*%
%ADD45R,0.6120X0.6020*%
%ADD46R,0.4532X0.3532*%
G36*
X20000Y86000D02*
X27492Y85579D01*
X34891Y84322D01*
X42102Y82245D01*
X49035Y79373D01*
X55603Y75743D01*
X61723Y71400D01*
X67318Y66400D01*
X72319Y60805D01*
X76661Y54684D01*
X80291Y48116D01*
X83163Y41183D01*
X85240Y33972D01*
X86497Y26574D01*
X86918Y19082D01*
X86935D01*
Y-20918D01*
X86918D01*
X86497Y-28411D01*
X85240Y-35809D01*
X83163Y-43020D01*
X80291Y-49953D01*
X76661Y-56521D01*
X72319Y-62641D01*
X67318Y-68237D01*
X61723Y-73237D01*
X55603Y-77580D01*
X49035Y-81210D01*
X42102Y-84081D01*
X34891Y-86159D01*
X27492Y-87416D01*
X20000Y-87837D01*
Y-87853D01*
X-20000D01*
Y-87837D01*
X-27492Y-87416D01*
X-34891Y-86159D01*
X-42102Y-84081D01*
X-49035Y-81210D01*
X-55603Y-77580D01*
X-61723Y-73237D01*
X-67318Y-68237D01*
X-72319Y-62641D01*
X-76661Y-56521D01*
X-80291Y-49953D01*
X-83163Y-43020D01*
X-85240Y-35809D01*
X-86497Y-28411D01*
X-86918Y-20918D01*
X-86935D01*
Y19082D01*
X-86918D01*
X-86497Y26574D01*
X-85240Y33972D01*
X-83163Y41183D01*
X-80291Y48116D01*
X-76661Y54684D01*
X-72319Y60805D01*
X-67318Y66400D01*
X-61723Y71400D01*
X-55603Y75743D01*
X-49035Y79373D01*
X-42102Y82245D01*
X-34891Y84322D01*
X-27492Y85579D01*
X-20000Y86000D01*
X-20000Y86017D01*
X20000D01*
Y86000D01*
D02*
G37*
%LPC*%
G36*
Y74260D02*
Y74147D01*
X-20000D01*
Y74260D01*
X-27202Y73788D01*
X-34281Y72380D01*
X-41116Y70060D01*
X-47589Y66867D01*
X-53590Y62857D01*
X-59017Y58099D01*
X-63776Y52672D01*
X-67786Y46671D01*
X-70978Y40198D01*
X-73298Y33363D01*
X-74706Y26284D01*
X-75178Y19082D01*
X-75065D01*
Y-20918D01*
X-75065Y-20918D01*
X-75178D01*
X-74706Y-28121D01*
X-73298Y-35199D01*
X-70978Y-42034D01*
X-67786Y-48507D01*
X-63776Y-54509D01*
X-59017Y-59935D01*
X-53590Y-64694D01*
X-49211Y-67621D01*
Y-78465D01*
X-49191Y-78511D01*
X-49176Y-78552D01*
X-49178Y-78556D01*
X-48056Y-79177D01*
X-41356Y-81951D01*
X-34389Y-83959D01*
X-27240Y-85173D01*
X-20000Y-85580D01*
Y-85483D01*
X20000D01*
X20000Y-85580D01*
X27240Y-85173D01*
X34389Y-83959D01*
X41357Y-81951D01*
X48056Y-79177D01*
X52286Y-76839D01*
X52286D01*
X52296Y-76830D01*
X52315Y-76784D01*
X52315Y-76784D01*
X52315Y-75664D01*
Y-65546D01*
X53590Y-64694D01*
X59017Y-59935D01*
X63776Y-54509D01*
X67786Y-48507D01*
X70978Y-42034D01*
X73298Y-35199D01*
X74706Y-28121D01*
X75178Y-20918D01*
X75065D01*
X75065Y-20918D01*
Y19082D01*
X75178D01*
X74706Y26284D01*
X73298Y33363D01*
X70978Y40198D01*
X67786Y46671D01*
X63776Y52672D01*
X59017Y58099D01*
X53590Y62857D01*
X47589Y66867D01*
X41116Y70060D01*
X34281Y72380D01*
X27202Y73788D01*
X20000Y74260D01*
D02*
G37*
G36*
X69816Y-62639D02*
X69766Y-62640D01*
X69759Y-62644D01*
X69725Y-62680D01*
X69727Y-62730D01*
X69763Y-62764D01*
X69813Y-62762D01*
X69820Y-62759D01*
X69854Y-62722D01*
X69852Y-62672D01*
X69816Y-62639D01*
D02*
G37*
%LPD*%
G36*
X-35267Y-17816D02*
X-35136Y-17842D01*
X-35010Y-17885D01*
X-34891Y-17944D01*
X-34780Y-18018D01*
X-34680Y-18106D01*
X-34592Y-18206D01*
X-34518Y-18317D01*
X-34459Y-18436D01*
X-34416Y-18562D01*
X-34390Y-18693D01*
X-34382Y-18826D01*
Y-21326D01*
X-34390Y-21459D01*
X-34416Y-21589D01*
X-34459Y-21715D01*
X-34518Y-21835D01*
X-34592Y-21946D01*
X-34680Y-22046D01*
X-34780Y-22134D01*
X-34891Y-22208D01*
X-35010Y-22266D01*
X-35136Y-22309D01*
X-35267Y-22335D01*
X-35400Y-22344D01*
X-36398D01*
X-35636Y-23106D01*
X-35548Y-23206D01*
X-35474Y-23317D01*
X-35415Y-23436D01*
X-35372Y-23562D01*
X-35346Y-23693D01*
X-35338Y-23826D01*
X-35346Y-23959D01*
X-35372Y-24089D01*
X-35415Y-24215D01*
X-35474Y-24335D01*
X-35548Y-24446D01*
X-35636Y-24546D01*
X-36398Y-25308D01*
X-35400D01*
X-35267Y-25316D01*
X-35136Y-25342D01*
X-35010Y-25385D01*
X-34891Y-25444D01*
X-34780Y-25518D01*
X-34680Y-25606D01*
X-34592Y-25706D01*
X-34518Y-25817D01*
X-34459Y-25936D01*
X-34416Y-26062D01*
X-34390Y-26193D01*
X-34382Y-26326D01*
Y-28826D01*
X-34390Y-28959D01*
X-34416Y-29089D01*
X-34459Y-29215D01*
X-34518Y-29335D01*
X-34592Y-29446D01*
X-34680Y-29546D01*
X-34780Y-29634D01*
X-34891Y-29708D01*
X-35010Y-29766D01*
X-35136Y-29809D01*
X-35267Y-29835D01*
X-35400Y-29844D01*
X-37600D01*
X-37733Y-29835D01*
X-37864Y-29809D01*
X-37990Y-29766D01*
X-38109Y-29708D01*
X-38220Y-29634D01*
X-38320Y-29546D01*
X-38408Y-29446D01*
X-38482Y-29335D01*
X-38541Y-29215D01*
X-38584Y-29089D01*
X-38609Y-28959D01*
X-38618Y-28826D01*
Y-27528D01*
X-39030Y-27940D01*
X-39130Y-28028D01*
X-39241Y-28102D01*
X-39321Y-28141D01*
X-39360Y-28161D01*
X-39486Y-28203D01*
X-39617Y-28229D01*
X-39750Y-28238D01*
X-39883Y-28229D01*
X-40013Y-28203D01*
X-40140Y-28161D01*
X-40259Y-28102D01*
X-40370Y-28028D01*
X-40470Y-27940D01*
X-40882Y-27528D01*
Y-28826D01*
X-40890Y-28959D01*
X-40917Y-29089D01*
X-40959Y-29215D01*
X-41018Y-29335D01*
X-41092Y-29446D01*
X-41180Y-29546D01*
X-41280Y-29634D01*
X-41391Y-29708D01*
X-41510Y-29766D01*
X-41637Y-29809D01*
X-41767Y-29835D01*
X-41900Y-29844D01*
X-44100D01*
X-44233Y-29835D01*
X-44363Y-29809D01*
X-44490Y-29766D01*
X-44609Y-29708D01*
X-44720Y-29634D01*
X-44820Y-29546D01*
X-44908Y-29446D01*
X-44982Y-29335D01*
X-45041Y-29215D01*
X-45083Y-29089D01*
X-45110Y-28959D01*
X-45118Y-28826D01*
Y-26326D01*
X-45110Y-26193D01*
X-45083Y-26062D01*
X-45041Y-25936D01*
X-44982Y-25817D01*
X-44908Y-25706D01*
X-44820Y-25606D01*
X-44720Y-25518D01*
X-44609Y-25444D01*
X-44490Y-25385D01*
X-44363Y-25342D01*
X-44233Y-25316D01*
X-44100Y-25308D01*
X-43102D01*
X-43864Y-24546D01*
X-43952Y-24446D01*
X-44026Y-24335D01*
X-44085Y-24215D01*
X-44128Y-24089D01*
X-44154Y-23959D01*
X-44162Y-23826D01*
X-44154Y-23693D01*
X-44128Y-23562D01*
X-44085Y-23436D01*
X-44026Y-23317D01*
X-43952Y-23206D01*
X-43864Y-23106D01*
X-43102Y-22344D01*
X-44100D01*
X-44233Y-22335D01*
X-44363Y-22309D01*
X-44490Y-22266D01*
X-44609Y-22208D01*
X-44720Y-22134D01*
X-44820Y-22046D01*
X-44908Y-21946D01*
X-44982Y-21835D01*
X-45041Y-21715D01*
X-45083Y-21589D01*
X-45110Y-21459D01*
X-45118Y-21326D01*
Y-18826D01*
X-45110Y-18693D01*
X-45083Y-18562D01*
X-45041Y-18436D01*
X-44982Y-18317D01*
X-44908Y-18206D01*
X-44820Y-18106D01*
X-44720Y-18018D01*
X-44609Y-17944D01*
X-44490Y-17885D01*
X-44363Y-17842D01*
X-44233Y-17816D01*
X-44100Y-17808D01*
X-41900D01*
X-41767Y-17816D01*
X-41637Y-17842D01*
X-41510Y-17885D01*
X-41391Y-17944D01*
X-41280Y-18018D01*
X-41180Y-18106D01*
X-41092Y-18206D01*
X-41018Y-18317D01*
X-40959Y-18436D01*
X-40917Y-18562D01*
X-40890Y-18693D01*
X-40882Y-18826D01*
Y-20303D01*
X-40862Y-20297D01*
X-40731Y-20271D01*
X-40599Y-20262D01*
X-38902D01*
X-38769Y-20271D01*
X-38638Y-20297D01*
X-38618Y-20303D01*
Y-18826D01*
X-38609Y-18693D01*
X-38584Y-18562D01*
X-38541Y-18436D01*
X-38482Y-18317D01*
X-38408Y-18206D01*
X-38320Y-18106D01*
X-38220Y-18018D01*
X-38109Y-17944D01*
X-37990Y-17885D01*
X-37864Y-17842D01*
X-37733Y-17816D01*
X-37600Y-17808D01*
X-35400D01*
X-35267Y-17816D01*
D02*
G37*
D31*
X23250Y-28000D02*
D03*
X19250D02*
D03*
X-31250Y-18250D02*
D03*
X-27250D02*
D03*
X-17000Y-29250D02*
D03*
X-13000D02*
D03*
X12250Y-31250D02*
D03*
X8250D02*
D03*
D32*
X0Y0D02*
D03*
D33*
X14000Y-8000D02*
D03*
Y-4000D02*
D03*
Y0D02*
D03*
Y4000D02*
D03*
Y8000D02*
D03*
X-14000Y8000D02*
D03*
Y4000D02*
D03*
Y0D02*
D03*
Y-4000D02*
D03*
Y-8000D02*
D03*
D34*
X-8000Y-14000D02*
D03*
X-4000D02*
D03*
X0D02*
D03*
X4000D02*
D03*
X8000D02*
D03*
X8000Y14000D02*
D03*
X4000D02*
D03*
X0D02*
D03*
X-4000D02*
D03*
X-8000D02*
D03*
D35*
X17000Y-21500D02*
D03*
X26000D02*
D03*
D36*
X-48250Y-20826D02*
D03*
Y-26826D02*
D03*
X-41500Y3250D02*
D03*
Y-2750D02*
D03*
X38500Y28500D02*
D03*
Y34500D02*
D03*
X-6500Y24750D02*
D03*
Y30750D02*
D03*
X47000Y-13750D02*
D03*
Y-19750D02*
D03*
X-22250Y-20000D02*
D03*
Y-14000D02*
D03*
X36250Y0D02*
D03*
Y-6000D02*
D03*
X11500Y45750D02*
D03*
Y39750D02*
D03*
X-41500Y10750D02*
D03*
Y16750D02*
D03*
X-12750Y30750D02*
D03*
Y24750D02*
D03*
X-19250Y30750D02*
D03*
Y24750D02*
D03*
D37*
X-54000Y11000D02*
D03*
X-48000D02*
D03*
X-54000Y-3000D02*
D03*
X-48000D02*
D03*
X-25500Y-38500D02*
D03*
X-31500D02*
D03*
X32750Y40500D02*
D03*
X38750D02*
D03*
X32750Y-38750D02*
D03*
X26750D02*
D03*
X52750Y-26000D02*
D03*
X46750D02*
D03*
X26750Y-32500D02*
D03*
X32750D02*
D03*
X24500Y21000D02*
D03*
X18500D02*
D03*
Y27250D02*
D03*
X24500D02*
D03*
X-24750Y16250D02*
D03*
X-18750D02*
D03*
X23250Y-9000D02*
D03*
X29250D02*
D03*
X18750Y-14500D02*
D03*
X24750D02*
D03*
X23250Y-1500D02*
D03*
X29250D02*
D03*
X43750Y-40250D02*
D03*
X49750D02*
D03*
X43500Y-46250D02*
D03*
X49500D02*
D03*
X53000Y-7750D02*
D03*
X47000D02*
D03*
X-54000Y4000D02*
D03*
X-48000D02*
D03*
D38*
X52500Y-52000D02*
D03*
D39*
X-31751Y-27798D02*
D03*
X-31750Y-24000D02*
D03*
D40*
X-35500Y-73000D02*
D03*
X35500D02*
D03*
D41*
X25000Y-51000D02*
D03*
X15000D02*
D03*
X5000D02*
D03*
X-5000D02*
D03*
X-15000D02*
D03*
X-25000D02*
D03*
D42*
X25000Y-72250D02*
D03*
X15000D02*
D03*
X5000D02*
D03*
X-5000D02*
D03*
X-15000D02*
D03*
X-25000D02*
D03*
D43*
X1250Y28500D02*
D03*
X-21367Y3633D02*
D03*
X-15500Y-36000D02*
D03*
X500Y55750D02*
D03*
X-44250Y-39250D02*
D03*
X6500Y-38250D02*
D03*
X14750D02*
D03*
X-32250Y3000D02*
D03*
X-5250Y-36000D02*
D03*
X10250Y28750D02*
D03*
D44*
X36250Y-12250D02*
D03*
X32248Y-22253D02*
D03*
X40247D02*
D03*
X22253Y42752D02*
D03*
X18250Y32750D02*
D03*
X26250D02*
D03*
D45*
X44500Y18250D02*
D03*
Y9250D02*
D03*
D46*
X-2000Y-28750D02*
D03*
Y-24750D02*
D03*
X-16500Y-17000D02*
D03*
Y-21000D02*
D03*
X52750Y-13500D02*
D03*
Y-17500D02*
D03*
X51250Y12000D02*
D03*
Y16000D02*
D03*
X45250Y-1000D02*
D03*
Y3000D02*
D03*
X32500Y35250D02*
D03*
Y31250D02*
D03*
M02*
