G04*
G04 #@! TF.GenerationSoftware,Altium Limited,Altium Designer,22.11.1 (43)*
G04*
G04 Layer_Color=2752767*
%FSLAX44Y44*%
%MOMM*%
G71*
G04*
G04 #@! TF.SameCoordinates,CE2BE6CF-A1CA-4722-B298-AB64FA6D62B8*
G04*
G04*
G04 #@! TF.FilePolarity,Positive*
G04*
G01*
G75*
%ADD74C,0.1270*%
D74*
X73920Y-41580D02*
Y-31420D01*
X84080D01*
Y-41580D01*
X73920D01*
X69920Y-50080D02*
Y-39920D01*
X80080D01*
Y-50080D01*
X69920D01*
X66670Y-57330D02*
Y-47170D01*
X76830D01*
Y-57330D01*
X66670D01*
X62170Y-65330D02*
Y-55170D01*
X72330D01*
Y-65330D01*
X62170D01*
X58170Y-71330D02*
Y-61170D01*
X68330D01*
Y-71330D01*
X58170D01*
X-37330Y-55330D02*
Y-45170D01*
X-27170D01*
Y-55330D01*
X-37330D01*
X16920Y4670D02*
Y14830D01*
X27080D01*
Y4670D01*
X16920D01*
X920Y-28830D02*
Y-18670D01*
X11080D01*
Y-28830D01*
X920D01*
X22920Y-32330D02*
Y-22170D01*
X33080D01*
Y-32330D01*
X22920D01*
X-3330Y-25580D02*
Y-15420D01*
X6830D01*
Y-25580D01*
X-3330D01*
X4920Y-25330D02*
Y-15170D01*
X15080D01*
Y-25330D01*
X4920D01*
X-8580Y-25509D02*
Y-15349D01*
X1580D01*
Y-25509D01*
X-8580D01*
X7920Y-21080D02*
Y-10920D01*
X18080D01*
Y-21080D01*
X7920D01*
X-2830Y-7080D02*
Y3080D01*
X7330D01*
Y-7080D01*
X-2830D01*
X-7080Y-3580D02*
Y6580D01*
X3080D01*
Y-3580D01*
X-7080D01*
X-37294Y-38091D02*
Y-27931D01*
X-27134D01*
Y-38091D01*
X-37294D01*
X-28831Y-33831D02*
Y-23671D01*
X-18671D01*
Y-33831D01*
X-28831D01*
X-31526Y-38403D02*
Y-28242D01*
X-21366D01*
Y-38403D01*
X-31526D01*
X-12080Y-29080D02*
Y-18920D01*
X-1920D01*
Y-29080D01*
X-12080D01*
X-15985Y-25668D02*
Y-15508D01*
X-5825D01*
Y-25668D01*
X-15985D01*
X-27580Y5420D02*
Y15580D01*
X-17420D01*
Y5420D01*
X-27580D01*
X-30580Y25670D02*
Y35830D01*
X-20420D01*
Y25670D01*
X-30580D01*
X-13580Y36170D02*
Y46330D01*
X-3420D01*
Y36170D01*
X-13580D01*
X-20330Y32670D02*
Y42830D01*
X-10170D01*
Y32670D01*
X-20330D01*
X-54580Y-15580D02*
Y-5420D01*
X-44420D01*
Y-15580D01*
X-54580D01*
X-49102Y-18852D02*
Y-8692D01*
X-38942D01*
Y-18852D01*
X-49102D01*
X-53580Y16920D02*
Y27080D01*
X-43420D01*
Y16920D01*
X-53580D01*
X-45273Y-15637D02*
Y-5477D01*
X-35113D01*
Y-15637D01*
X-45273D01*
X47920Y-7330D02*
Y2830D01*
X58080D01*
Y-7330D01*
X47920D01*
X48420Y-1580D02*
Y8580D01*
X58580D01*
Y-1580D01*
X48420D01*
X24920Y20920D02*
Y31080D01*
X35080D01*
Y20920D01*
X24920D01*
X920Y32920D02*
Y43080D01*
X11080D01*
Y32920D01*
X920D01*
X-12330Y49170D02*
Y59330D01*
X-2170D01*
Y49170D01*
X-12330D01*
X-15580Y-45080D02*
Y-34920D01*
X-5420D01*
Y-45080D01*
X-15580D01*
X-40580Y18920D02*
Y29080D01*
X-30420D01*
Y18920D01*
X-40580D01*
X39420Y32420D02*
Y42580D01*
X49580D01*
Y32420D01*
X39420D01*
X27420Y-56830D02*
Y-46670D01*
X37580D01*
Y-56830D01*
X27420D01*
X-45580Y17420D02*
Y27580D01*
X-35420D01*
Y17420D01*
X-45580D01*
X-330Y44170D02*
Y54330D01*
X9830D01*
Y44170D01*
X-330D01*
X15670Y-43830D02*
Y-33670D01*
X25830D01*
Y-43830D01*
X15670D01*
X-30830Y31170D02*
Y41330D01*
X-20670D01*
Y31170D01*
X-30830D01*
X-43580Y-38830D02*
Y-28670D01*
X-33420D01*
Y-38830D01*
X-43580D01*
X41670Y-37330D02*
Y-27170D01*
X51830D01*
Y-37330D01*
X41670D01*
X33102Y17379D02*
Y27539D01*
X43262D01*
Y17379D01*
X33102D01*
X31420Y1920D02*
Y12080D01*
X41580D01*
Y1920D01*
X31420D01*
Y12670D02*
Y22830D01*
X41580D01*
Y12670D01*
X31420D01*
M02*
