G04*
G04 #@! TF.GenerationSoftware,Altium Limited,Altium Designer,22.11.1 (43)*
G04*
G04 Layer_Physical_Order=3*
G04 Layer_Color=16440176*
%FSLAX44Y44*%
%MOMM*%
G71*
G04*
G04 #@! TF.SameCoordinates,CE2BE6CF-A1CA-4722-B298-AB64FA6D62B8*
G04*
G04*
G04 #@! TF.FilePolarity,Positive*
G04*
G01*
G75*
%ADD14C,0.1000*%
%ADD22C,0.4000*%
D14*
X89991Y20010D02*
G03*
X19991Y90010I-70000J0D01*
G01*
X9250Y49250D02*
G03*
X9250Y49250I-4500J0D01*
G01*
X49000Y37500D02*
G03*
X49000Y37500I-4500J0D01*
G01*
X-4000Y41250D02*
G03*
X-12983Y41637I-4500J0D01*
G01*
X-10767Y37363D02*
G03*
X-4000Y41250I2267J3887D01*
G01*
X-12983Y41637D02*
G03*
X-10767Y37363I-2267J-3887D01*
G01*
X-22069Y33662D02*
G03*
X-21250Y36250I-3681J2588D01*
G01*
X41000Y17750D02*
G03*
X41000Y17750I-4500J0D01*
G01*
Y7000D02*
G03*
X41000Y7000I-4500J0D01*
G01*
X26500Y9750D02*
G03*
X26500Y9750I-4500J0D01*
G01*
X57500Y-2250D02*
G03*
X57500Y-2250I-4500J0D01*
G01*
X17500Y-16000D02*
G03*
X8500Y-16007I-4500J0D01*
G01*
D02*
G03*
X5821Y-18582I1500J-4243D01*
G01*
D02*
G03*
X-826Y-16810I-4071J-1918D01*
G01*
X-826D02*
G03*
X-7257Y-17952I-2674J-3619D01*
G01*
X-21000Y30750D02*
G03*
X-22069Y33662I-4500J0D01*
G01*
X-18000Y10500D02*
G03*
X-18000Y10500I-4500J0D01*
G01*
X83500Y-36500D02*
G03*
X83500Y-36500I-4500J0D01*
G01*
X19991Y-89990D02*
G03*
X89991Y-19990I0J70000D01*
G01*
X79500Y-45000D02*
G03*
X71446Y-47760I-4500J0D01*
G01*
X75304Y-49490D02*
G03*
X79500Y-45000I-304J4490D01*
G01*
X71446Y-47760D02*
G03*
X76250Y-52250I304J-4490D01*
G01*
D02*
G03*
X75304Y-49490I-4500J0D01*
G01*
X14500Y-20243D02*
G03*
X17500Y-16000I-1500J4243D01*
G01*
X5929Y-22168D02*
G03*
X14500Y-20250I4071J1918D01*
G01*
X-924Y-24119D02*
G03*
X5929Y-22168I2674J3619D01*
G01*
X-2578Y-24834D02*
G03*
X-924Y-24119I-922J4405D01*
G01*
X51250Y-32250D02*
G03*
X51250Y-32250I-4500J0D01*
G01*
X32500Y-27250D02*
G03*
X32500Y-27250I-4500J0D01*
G01*
X25250Y-38750D02*
G03*
X25250Y-38750I-4500J0D01*
G01*
X-7257Y-17952D02*
G03*
X-11372Y-25063I-3648J-2635D01*
G01*
D02*
G03*
X-2578Y-24834I4372J1063D01*
G01*
X-19251Y-28751D02*
G03*
X-19251Y-28751I-4500J0D01*
G01*
X71750Y-60250D02*
G03*
X63010Y-61756I-4500J0D01*
G01*
X67490Y-64744D02*
G03*
X71750Y-60250I-240J4494D01*
G01*
X67750Y-66250D02*
G03*
X67490Y-64744I-4500J0D01*
G01*
X63010Y-61756D02*
G03*
X67750Y-66250I240J-4494D01*
G01*
X-6000Y-40000D02*
G03*
X-6000Y-40000I-4500J0D01*
G01*
X-21250Y36250D02*
G03*
X-29181Y33338I-4500J0D01*
G01*
Y33338D02*
G03*
X-21000Y30750I3681J-2588D01*
G01*
X-20009Y90010D02*
G03*
X-90009Y20010I0J-70000D01*
G01*
X-31000Y24000D02*
G03*
X-39053Y26761I-4500J0D01*
G01*
Y26761D02*
G03*
X-36947Y19739I-1447J-4261D01*
G01*
Y19739D02*
G03*
X-31000Y24000I1447J4261D01*
G01*
X-39701Y-15030D02*
G03*
X-35693Y-10557I-492J4473D01*
G01*
D02*
G03*
X-44514Y-9299I-4500J0D01*
G01*
X-44514Y-9299D02*
G03*
X-39702Y-15030I492J-4473D01*
G01*
X-90009Y-19990D02*
G03*
X-20009Y-89990I70000J0D01*
G01*
X-27714Y-33011D02*
G03*
X-35731Y-30203I-4500J0D01*
G01*
X-34984Y-36558D02*
G03*
X-27714Y-33011I2769J3547D01*
G01*
X-35731Y-30203D02*
G03*
X-34984Y-36558I-2769J-3547D01*
G01*
X48998Y37649D02*
X87732D01*
X48993Y37749D02*
X87706D01*
X49000Y37549D02*
X87759D01*
X48977Y37949D02*
X87654D01*
X48986Y37849D02*
X87680D01*
X48993Y37249D02*
X87835D01*
X48986Y37149D02*
X87861D01*
X49000Y37449D02*
X87784D01*
X48998Y37349D02*
X87810D01*
X48899Y38449D02*
X87519D01*
X48919Y38349D02*
X87546D01*
X48851Y38649D02*
X87464D01*
X48876Y38549D02*
X87492D01*
X48966Y38049D02*
X87627D01*
X48977Y37049D02*
X87886D01*
X48937Y38249D02*
X87573D01*
X48953Y38149D02*
X87600D01*
X48937Y36749D02*
X87961D01*
X48919Y36649D02*
X87985D01*
X48966Y36949D02*
X87911D01*
X48953Y36849D02*
X87936D01*
X48850Y36349D02*
X88058D01*
X48823Y36249D02*
X88082D01*
X48898Y36549D02*
X88010D01*
X48875Y36449D02*
X88034D01*
X48724Y35949D02*
X88153D01*
X48686Y35849D02*
X88176D01*
X48792Y36149D02*
X88105D01*
X48760Y36049D02*
X88129D01*
X48555Y35549D02*
X88245D01*
X48505Y35449D02*
X88268D01*
X48645Y35749D02*
X88199D01*
X48602Y35649D02*
X88222D01*
X47506Y40849D02*
X86818D01*
X47390Y40949D02*
X86786D01*
X47614Y40749D02*
X86849D01*
X47133Y41149D02*
X86723D01*
X47267Y41049D02*
X86755D01*
X47899Y40449D02*
X86941D01*
X47983Y40349D02*
X86971D01*
X47715Y40649D02*
X86880D01*
X47810Y40549D02*
X86910D01*
X45982Y41749D02*
X86530D01*
X46242Y41649D02*
X86563D01*
X45176Y41949D02*
X86465D01*
X45656Y41849D02*
X86497D01*
X46831Y41349D02*
X86660D01*
X46989Y41249D02*
X86692D01*
X46464Y41549D02*
X86595D01*
X46658Y41449D02*
X86628D01*
X48646Y39249D02*
X87296D01*
X48687Y39149D02*
X87324D01*
X48556Y39449D02*
X87238D01*
X48603Y39349D02*
X87267D01*
X48793Y38849D02*
X87409D01*
X48823Y38749D02*
X87437D01*
X48725Y39049D02*
X87353D01*
X48760Y38949D02*
X87381D01*
X48208Y40049D02*
X87062D01*
X48275Y39949D02*
X87092D01*
X48063Y40249D02*
X87002D01*
X48138Y40149D02*
X87032D01*
X48454Y39649D02*
X87180D01*
X48506Y39549D02*
X87209D01*
X48338Y39849D02*
X87121D01*
X48398Y39749D02*
X87151D01*
X40999Y17849D02*
X89991D01*
X40996Y17949D02*
X89991D01*
X41000Y17749D02*
X89991D01*
X40982Y18149D02*
X89991D01*
X40990Y18049D02*
X89991D01*
X40990Y17449D02*
X89991D01*
X40982Y17349D02*
X89991D01*
X40999Y17649D02*
X89991D01*
X40995Y17549D02*
X89991D01*
X40888Y18749D02*
X89991D01*
X40909Y18649D02*
X89991D01*
X40837Y18949D02*
X89991D01*
X40864Y18849D02*
X89991D01*
X40960Y18349D02*
X89991D01*
X40972Y18249D02*
X89991D01*
X40929Y18549D02*
X89991D01*
X40945Y18449D02*
X89991D01*
X40945Y17049D02*
X89991D01*
X40928Y16949D02*
X89991D01*
X40972Y17249D02*
X89991D01*
X40960Y17149D02*
X89991D01*
X40863Y16649D02*
X89991D01*
X40837Y16549D02*
X89991D01*
X40909Y16849D02*
X89991D01*
X40887Y16749D02*
X89991D01*
X40742Y16249D02*
X89991D01*
X40706Y16149D02*
X89991D01*
X40808Y16449D02*
X89991D01*
X40776Y16349D02*
X89991D01*
X40579Y15849D02*
X89991D01*
X40531Y15749D02*
X89991D01*
X40666Y16049D02*
X89991D01*
X40624Y15949D02*
X89991D01*
X48337Y35149D02*
X88335D01*
X48274Y35049D02*
X88357D01*
X48453Y35349D02*
X88290D01*
X48397Y35249D02*
X88313D01*
X48061Y34749D02*
X88422D01*
X47982Y34649D02*
X88443D01*
X48207Y34949D02*
X88379D01*
X48136Y34849D02*
X88400D01*
X47713Y34349D02*
X88507D01*
X47611Y34249D02*
X88528D01*
X47897Y34549D02*
X88465D01*
X47808Y34449D02*
X88486D01*
X47264Y33949D02*
X88589D01*
X47131Y33849D02*
X88610D01*
X47503Y34149D02*
X88549D01*
X47388Y34049D02*
X88569D01*
X46654Y33549D02*
X88670D01*
X46459Y33449D02*
X88689D01*
X46986Y33749D02*
X88630D01*
X46828Y33649D02*
X88650D01*
X45648Y33149D02*
X88747D01*
X45162Y33049D02*
X88766D01*
X46238Y33349D02*
X88709D01*
X45976Y33249D02*
X88728D01*
X40625Y19549D02*
X89991D01*
X40667Y19449D02*
X89991D01*
X40532Y19749D02*
X89991D01*
X40580Y19649D02*
X89991D01*
X40777Y19149D02*
X89991D01*
X40808Y19049D02*
X89991D01*
X40706Y19349D02*
X89991D01*
X40743Y19249D02*
X89991D01*
X-21091Y29849D02*
X89296D01*
X-21113Y29749D02*
X89311D01*
X-21137Y29649D02*
X89325D01*
X-21055Y30049D02*
X89268D01*
X-21072Y29949D02*
X89282D01*
X-21224Y29349D02*
X89366D01*
X-21258Y29249D02*
X89379D01*
X-21163Y29549D02*
X89338D01*
X-21192Y29449D02*
X89352D01*
X-21376Y28949D02*
X89418D01*
X-21421Y28849D02*
X89431D01*
X-21294Y29149D02*
X89392D01*
X-21334Y29049D02*
X89405D01*
X-21575Y28549D02*
X89469D01*
X-21633Y28449D02*
X89481D01*
X-21469Y28749D02*
X89444D01*
X-21521Y28649D02*
X89456D01*
X-21828Y28149D02*
X89517D01*
X-21901Y28049D02*
X89528D01*
X-21694Y28349D02*
X89493D01*
X-21759Y28249D02*
X89505D01*
X-22147Y27749D02*
X89562D01*
X-22239Y27649D02*
X89573D01*
X-21978Y27949D02*
X89540D01*
X-22060Y27849D02*
X89551D01*
X-22553Y27349D02*
X89606D01*
X-22673Y27249D02*
X89616D01*
X-22337Y27549D02*
X89584D01*
X-22442Y27449D02*
X89595D01*
X-23091Y26949D02*
X89647D01*
X-23257Y26849D02*
X89656D01*
X-22801Y27149D02*
X89626D01*
X-22940Y27049D02*
X89636D01*
X-4072Y42049D02*
X86432D01*
X-21223Y32149D02*
X88931D01*
X-4112Y42249D02*
X86365D01*
X-4091Y42149D02*
X86398D01*
X-21136Y31849D02*
X88983D01*
X-21112Y31749D02*
X89000D01*
X-21192Y32049D02*
X88948D01*
X-21163Y31949D02*
X88966D01*
X-21468Y32749D02*
X88822D01*
X-21420Y32649D02*
X88841D01*
X-21574Y32949D02*
X88785D01*
X-21519Y32849D02*
X88804D01*
X-21294Y32349D02*
X88895D01*
X-21257Y32249D02*
X88913D01*
X-21375Y32549D02*
X88859D01*
X-21333Y32449D02*
X88877D01*
X-21004Y30949D02*
X89131D01*
X-21001Y30849D02*
X89147D01*
X-21018Y31149D02*
X89099D01*
X-21010Y31049D02*
X89115D01*
X-21005Y30549D02*
X89193D01*
X-21010Y30449D02*
X89209D01*
X-21000Y30749D02*
X89163D01*
X-21001Y30649D02*
X89178D01*
X-21055Y31449D02*
X89050D01*
X-21040Y31349D02*
X89067D01*
X-21091Y31649D02*
X89017D01*
X-21072Y31549D02*
X89034D01*
X-21028Y30249D02*
X89239D01*
X-21040Y30149D02*
X89253D01*
X-21028Y31249D02*
X89083D01*
X-21018Y30349D02*
X89224D01*
X40306Y15349D02*
X89991D01*
X40241Y15249D02*
X89991D01*
X40172Y15149D02*
X89991D01*
X40425Y15549D02*
X89991D01*
X40367Y15449D02*
X89991D01*
X39940Y14849D02*
X89991D01*
X39853Y14749D02*
X89991D01*
X40099Y15049D02*
X89991D01*
X40022Y14949D02*
X89991D01*
X39558Y14449D02*
X89991D01*
X39447Y14349D02*
X89991D01*
X39761Y14649D02*
X89991D01*
X39663Y14549D02*
X89991D01*
X39060Y14049D02*
X89991D01*
X38909Y13949D02*
X89991D01*
X39327Y14249D02*
X89991D01*
X39199Y14149D02*
X89991D01*
X38352Y13649D02*
X89991D01*
X38113Y13549D02*
X89991D01*
X38743Y13849D02*
X89991D01*
X38560Y13749D02*
X89991D01*
X25601Y12449D02*
X89991D01*
X25674Y12349D02*
X89991D01*
X37823Y13449D02*
X89991D01*
X37439Y13349D02*
X89991D01*
X25061Y13049D02*
X89991D01*
X25165Y12949D02*
X89991D01*
X24830Y13249D02*
X89991D01*
X24949Y13149D02*
X89991D01*
X25442Y12649D02*
X89991D01*
X25524Y12549D02*
X89991D01*
X25263Y12849D02*
X89991D01*
X25355Y12749D02*
X89991D01*
X38357Y21849D02*
X89967D01*
X38563Y21749D02*
X89970D01*
X37830Y22049D02*
X89962D01*
X38118Y21949D02*
X89965D01*
X39063Y21449D02*
X89977D01*
X39201Y21349D02*
X89979D01*
X38747Y21649D02*
X89972D01*
X38912Y21549D02*
X89974D01*
X-23887Y26549D02*
X89685D01*
X-24177Y26449D02*
X89695D01*
X-23440Y26749D02*
X89666D01*
X-23647Y26649D02*
X89676D01*
X37448Y22149D02*
X89959D01*
X-24561Y26349D02*
X89704D01*
X36594Y22249D02*
X89956D01*
X40242Y20249D02*
X89991D01*
X40307Y20149D02*
X89991D01*
X40101Y20449D02*
X89990D01*
X40174Y20349D02*
X89991D01*
X40480Y19849D02*
X89991D01*
X40479Y15649D02*
X89991D01*
X40368Y20049D02*
X89991D01*
X40426Y19949D02*
X89991D01*
X39560Y21049D02*
X89984D01*
X39665Y20949D02*
X89985D01*
X39330Y21249D02*
X89980D01*
X39449Y21149D02*
X89982D01*
X39942Y20649D02*
X89988D01*
X40024Y20549D02*
X89989D01*
X39763Y20849D02*
X89986D01*
X39855Y20749D02*
X89987D01*
X54618Y1949D02*
X89991D01*
X54330Y2049D02*
X89991D01*
X54857Y1849D02*
X89991D01*
X53092Y2249D02*
X89991D01*
X53948Y2149D02*
X89991D01*
X55412Y1549D02*
X89991D01*
X55563Y1449D02*
X89991D01*
X55063Y1749D02*
X89991D01*
X55247Y1649D02*
X89991D01*
X40760Y5549D02*
X89991D01*
X40724Y5449D02*
X89991D01*
X40823Y5749D02*
X89991D01*
X40792Y5649D02*
X89991D01*
X40602Y5149D02*
X89991D01*
X40555Y5049D02*
X89991D01*
X40686Y5349D02*
X89991D01*
X40645Y5249D02*
X89991D01*
X56673Y349D02*
X89991D01*
X56742Y249D02*
X89991D01*
X56523Y549D02*
X89991D01*
X56601Y449D02*
X89991D01*
X56926Y-51D02*
X89991D01*
X56980Y-151D02*
X89991D01*
X56807Y149D02*
X89991D01*
X56868Y49D02*
X89991D01*
X55949Y1149D02*
X89991D01*
X56060Y1049D02*
X89991D01*
X55701Y1349D02*
X89991D01*
X55830Y1249D02*
X89991D01*
X56355Y749D02*
X89991D01*
X56442Y649D02*
X89991D01*
X56165Y949D02*
X89991D01*
X56263Y849D02*
X89991D01*
X40899Y7949D02*
X89991D01*
X40919Y7849D02*
X89991D01*
X40851Y8149D02*
X89991D01*
X40876Y8049D02*
X89991D01*
X40966Y7549D02*
X89991D01*
X40978Y7449D02*
X89991D01*
X40937Y7749D02*
X89991D01*
X40953Y7649D02*
X89991D01*
X40646Y8749D02*
X89991D01*
X40687Y8649D02*
X89991D01*
X40556Y8949D02*
X89991D01*
X40603Y8849D02*
X89991D01*
X40793Y8349D02*
X89991D01*
X40823Y8249D02*
X89991D01*
X40725Y8549D02*
X89991D01*
X40760Y8449D02*
X89991D01*
X40998Y7149D02*
X89991D01*
X41000Y7049D02*
X89991D01*
X40986Y7349D02*
X89991D01*
X40993Y7249D02*
X89991D01*
X40993Y6749D02*
X89991D01*
X40986Y6649D02*
X89991D01*
X41000Y6949D02*
X89991D01*
X40998Y6849D02*
X89991D01*
X40953Y6349D02*
X89991D01*
X40937Y6249D02*
X89991D01*
X40977Y6549D02*
X89991D01*
X40966Y6449D02*
X89991D01*
X40876Y5949D02*
X89991D01*
X40850Y5849D02*
X89991D01*
X40919Y6149D02*
X89991D01*
X40898Y6049D02*
X89991D01*
X57276Y-3651D02*
X89991D01*
X57242Y-3751D02*
X89991D01*
X57206Y-3851D02*
X89991D01*
X57337Y-3451D02*
X89991D01*
X57308Y-3551D02*
X89991D01*
X57079Y-4151D02*
X89991D01*
X57031Y-4251D02*
X89991D01*
X57166Y-3951D02*
X89991D01*
X57124Y-4051D02*
X89991D01*
X56867Y-4551D02*
X89991D01*
X56806Y-4651D02*
X89991D01*
X56979Y-4351D02*
X89991D01*
X56925Y-4451D02*
X89991D01*
X56599Y-4951D02*
X89991D01*
X56522Y-5051D02*
X89991D01*
X56741Y-4751D02*
X89991D01*
X56672Y-4851D02*
X89991D01*
X56261Y-5351D02*
X89991D01*
X56163Y-5451D02*
X89991D01*
X56440Y-5151D02*
X89991D01*
X56353Y-5251D02*
X89991D01*
X55827Y-5751D02*
X89991D01*
X55699Y-5851D02*
X89991D01*
X56058Y-5551D02*
X89991D01*
X55947Y-5651D02*
X89991D01*
X55243Y-6151D02*
X89991D01*
X55060Y-6251D02*
X89991D01*
X55560Y-5951D02*
X89991D01*
X55409Y-6051D02*
X89991D01*
X54324Y-6551D02*
X89991D01*
X53939Y-6651D02*
X89991D01*
X54853Y-6351D02*
X89991D01*
X54613Y-6451D02*
X89991D01*
X57388Y-1251D02*
X89991D01*
X57409Y-1351D02*
X89991D01*
X57337Y-1051D02*
X89991D01*
X57364Y-1151D02*
X89991D01*
X57460Y-1651D02*
X89991D01*
X57472Y-1751D02*
X89991D01*
X57428Y-1451D02*
X89991D01*
X57445Y-1551D02*
X89991D01*
X57125Y-451D02*
X89991D01*
X57167Y-551D02*
X89991D01*
X57032Y-251D02*
X89991D01*
X57080Y-351D02*
X89991D01*
X57277Y-851D02*
X89991D01*
X57308Y-951D02*
X89991D01*
X57206Y-651D02*
X89991D01*
X57243Y-751D02*
X89991D01*
X57496Y-2051D02*
X89991D01*
X57499Y-2151D02*
X89991D01*
X57482Y-1851D02*
X89991D01*
X57490Y-1951D02*
X89991D01*
X57495Y-2451D02*
X89991D01*
X57490Y-2551D02*
X89991D01*
X57500Y-2251D02*
X89991D01*
X57499Y-2351D02*
X89991D01*
X57460Y-2851D02*
X89991D01*
X57445Y-2951D02*
X89991D01*
X57482Y-2651D02*
X89991D01*
X57472Y-2751D02*
X89991D01*
X57387Y-3251D02*
X89991D01*
X57363Y-3351D02*
X89991D01*
X57428Y-3051D02*
X89991D01*
X57409Y-3151D02*
X89991D01*
X40453Y4849D02*
X89991D01*
X40396Y4749D02*
X89991D01*
X40337Y4649D02*
X89991D01*
X40506Y9049D02*
X89991D01*
X40505Y4949D02*
X89991D01*
X40136Y4349D02*
X89991D01*
X40061Y4249D02*
X89991D01*
X40274Y4549D02*
X89991D01*
X40207Y4449D02*
X89991D01*
X39808Y3949D02*
X89991D01*
X39713Y3849D02*
X89991D01*
X39982Y4149D02*
X89991D01*
X39897Y4049D02*
X89991D01*
X39388Y3549D02*
X89991D01*
X39264Y3449D02*
X89991D01*
X39611Y3749D02*
X89991D01*
X39504Y3649D02*
X89991D01*
X38828Y3149D02*
X89991D01*
X38654Y3049D02*
X89991D01*
X39131Y3349D02*
X89991D01*
X38986Y3249D02*
X89991D01*
X37976Y2749D02*
X89991D01*
X37648Y2649D02*
X89991D01*
X38459Y2949D02*
X89991D01*
X38238Y2849D02*
X89991D01*
X14156Y-11651D02*
X89991D01*
X14482Y-11751D02*
X89991D01*
X37162Y2549D02*
X89991D01*
X13675Y-11551D02*
X89991D01*
X15158Y-12051D02*
X89991D01*
X15331Y-12151D02*
X89991D01*
X14742Y-11851D02*
X89991D01*
X14963Y-11951D02*
X89991D01*
X37982Y11249D02*
X89991D01*
X38242Y11149D02*
X89991D01*
X37175Y11449D02*
X89991D01*
X37656Y11349D02*
X89991D01*
X38831Y10849D02*
X89991D01*
X38989Y10749D02*
X89991D01*
X38463Y11049D02*
X89991D01*
X38658Y10949D02*
X89991D01*
X25868Y12049D02*
X89991D01*
X25926Y11949D02*
X89991D01*
X25742Y12249D02*
X89991D01*
X25807Y12149D02*
X89991D01*
X26080Y11649D02*
X89991D01*
X26125Y11549D02*
X89991D01*
X25981Y11849D02*
X89991D01*
X26032Y11749D02*
X89991D01*
X40138Y9649D02*
X89991D01*
X40208Y9549D02*
X89991D01*
X39983Y9849D02*
X89991D01*
X40063Y9749D02*
X89991D01*
X40398Y9249D02*
X89991D01*
X40454Y9149D02*
X89991D01*
X40275Y9449D02*
X89991D01*
X40338Y9349D02*
X89991D01*
X39390Y10449D02*
X89991D01*
X39506Y10349D02*
X89991D01*
X39133Y10649D02*
X89991D01*
X39267Y10549D02*
X89991D01*
X39810Y10049D02*
X89991D01*
X39899Y9949D02*
X89991D01*
X39613Y10249D02*
X89991D01*
X39715Y10149D02*
X89991D01*
X17498Y-15851D02*
X89991D01*
X17493Y-15751D02*
X89991D01*
X17500Y-15951D02*
X89991D01*
X17478Y-15551D02*
X89991D01*
X17486Y-15651D02*
X89991D01*
X17493Y-16251D02*
X89991D01*
X17486Y-16351D02*
X89991D01*
X17500Y-16051D02*
X89991D01*
X17498Y-16151D02*
X89991D01*
X17466Y-16551D02*
X89991D01*
X17453Y-16651D02*
X89991D01*
X17466Y-15451D02*
X89991D01*
X17477Y-16451D02*
X89991D01*
X17398Y-16951D02*
X89991D01*
X17376Y-17051D02*
X89991D01*
X17437Y-16751D02*
X89991D01*
X17419Y-16851D02*
X89991D01*
X17292Y-17351D02*
X89991D01*
X17260Y-17451D02*
X89991D01*
X17350Y-17151D02*
X89991D01*
X17323Y-17251D02*
X89991D01*
X17145Y-17751D02*
X89991D01*
X17102Y-17851D02*
X89991D01*
X17224Y-17551D02*
X89991D01*
X17186Y-17651D02*
X89991D01*
X16953Y-18151D02*
X89991D01*
X16897Y-18251D02*
X89991D01*
X17055Y-17951D02*
X89991D01*
X17005Y-18051D02*
X89991D01*
X16707Y-18551D02*
X89991D01*
X16636Y-18651D02*
X89991D01*
X16837Y-18351D02*
X89991D01*
X16774Y-18451D02*
X89991D01*
X16563Y-13251D02*
X89991D01*
X16638Y-13351D02*
X89991D01*
X16399Y-13051D02*
X89991D01*
X16483Y-13151D02*
X89991D01*
X16838Y-13651D02*
X89991D01*
X16898Y-13751D02*
X89991D01*
X16708Y-13451D02*
X89991D01*
X16775Y-13551D02*
X89991D01*
X15767Y-12451D02*
X89991D01*
X15890Y-12551D02*
X89991D01*
X15489Y-12251D02*
X89991D01*
X15633Y-12351D02*
X89991D01*
X16214Y-12851D02*
X89991D01*
X16309Y-12951D02*
X89991D01*
X16006Y-12651D02*
X89991D01*
X16113Y-12751D02*
X89991D01*
X17351Y-14851D02*
X89991D01*
X17376Y-14951D02*
X89991D01*
X17293Y-14651D02*
X89991D01*
X17323Y-14751D02*
X89991D01*
X17437Y-15251D02*
X89991D01*
X17453Y-15351D02*
X89991D01*
X17399Y-15051D02*
X89991D01*
X17419Y-15151D02*
X89991D01*
X17056Y-14051D02*
X89991D01*
X17103Y-14151D02*
X89991D01*
X16954Y-13851D02*
X89991D01*
X17006Y-13951D02*
X89991D01*
X17225Y-14451D02*
X89991D01*
X17260Y-14551D02*
X89991D01*
X17146Y-14251D02*
X89991D01*
X17187Y-14351D02*
X89991D01*
X9246Y49449D02*
X83500D01*
X9240Y49549D02*
X83454D01*
X9249Y49349D02*
X83546D01*
X9222Y49749D02*
X83360D01*
X9232Y49649D02*
X83407D01*
X9245Y49049D02*
X83684D01*
X9240Y48949D02*
X83729D01*
X9250Y49249D02*
X83592D01*
X9249Y49149D02*
X83638D01*
X9114Y50349D02*
X83075D01*
X9138Y50249D02*
X83123D01*
X9058Y50549D02*
X82978D01*
X9087Y50449D02*
X83027D01*
X9195Y49949D02*
X83266D01*
X9210Y49849D02*
X83313D01*
X9159Y50149D02*
X83171D01*
X9179Y50049D02*
X83218D01*
X9210Y48649D02*
X83865D01*
X9195Y48549D02*
X83910D01*
X9232Y48849D02*
X83775D01*
X9222Y48749D02*
X83820D01*
X9137Y48249D02*
X84043D01*
X9113Y48149D02*
X84087D01*
X9178Y48449D02*
X83954D01*
X9159Y48349D02*
X83998D01*
X9026Y47849D02*
X84218D01*
X8992Y47749D02*
X84261D01*
X9087Y48049D02*
X84130D01*
X9058Y47949D02*
X84174D01*
X8874Y47449D02*
X84389D01*
X8829Y47349D02*
X84432D01*
X8956Y47649D02*
X84304D01*
X8916Y47549D02*
X84347D01*
X7580Y52749D02*
X81863D01*
X7699Y52649D02*
X81916D01*
X7313Y52949D02*
X81757D01*
X7451Y52849D02*
X81811D01*
X8013Y52349D02*
X82073D01*
X8105Y52249D02*
X82126D01*
X7811Y52549D02*
X81969D01*
X7915Y52449D02*
X82021D01*
X6080Y53549D02*
X81433D01*
X6368Y53449D02*
X81488D01*
X4847Y53749D02*
X81324D01*
X5698Y53649D02*
X81379D01*
X6997Y53149D02*
X81650D01*
X7162Y53049D02*
X81704D01*
X6607Y53349D02*
X81542D01*
X6814Y53249D02*
X81596D01*
X8830Y51149D02*
X82684D01*
X8875Y51049D02*
X82734D01*
X8730Y51349D02*
X82584D01*
X8782Y51249D02*
X82634D01*
X8993Y50749D02*
X82881D01*
X9027Y50649D02*
X82930D01*
X8917Y50949D02*
X82783D01*
X8956Y50849D02*
X82832D01*
X8351Y51949D02*
X82280D01*
X8424Y51849D02*
X82331D01*
X8192Y52149D02*
X82177D01*
X8274Y52049D02*
X82229D01*
X8618Y51549D02*
X82484D01*
X8676Y51449D02*
X82534D01*
X8492Y51749D02*
X82382D01*
X8557Y51649D02*
X82433D01*
X8556Y46849D02*
X84642D01*
X8491Y46749D02*
X84683D01*
X8422Y46649D02*
X84724D01*
X8675Y47049D02*
X84558D01*
X8617Y46949D02*
X84600D01*
X8190Y46349D02*
X84847D01*
X8103Y46249D02*
X84888D01*
X8349Y46549D02*
X84766D01*
X8272Y46449D02*
X84806D01*
X7808Y45949D02*
X85008D01*
X7697Y45849D02*
X85048D01*
X8011Y46149D02*
X84928D01*
X7913Y46049D02*
X84968D01*
X7310Y45549D02*
X85166D01*
X7159Y45449D02*
X85205D01*
X7577Y45749D02*
X85087D01*
X7449Y45649D02*
X85127D01*
X6602Y45149D02*
X85322D01*
X6363Y45049D02*
X85360D01*
X6993Y45349D02*
X85244D01*
X6809Y45249D02*
X85283D01*
X-4163Y42449D02*
X86297D01*
X-4136Y42349D02*
X86331D01*
X6073Y44949D02*
X85398D01*
X5688Y44849D02*
X85436D01*
X-4375Y43049D02*
X86091D01*
X-4333Y42949D02*
X86126D01*
X-4468Y43249D02*
X86021D01*
X-4420Y43149D02*
X86056D01*
X-4223Y42649D02*
X86229D01*
X-4192Y42549D02*
X86264D01*
X-4294Y42849D02*
X86161D01*
X-4257Y42749D02*
X86195D01*
X8781Y47249D02*
X84474D01*
X8729Y47149D02*
X84516D01*
X-4004Y41449D02*
X42342D01*
X-4001Y41349D02*
X42169D01*
X-4000Y41249D02*
X42011D01*
X-4001Y41149D02*
X41867D01*
X-4055Y41949D02*
X43824D01*
X-4040Y41849D02*
X43344D01*
X-4028Y41749D02*
X43018D01*
X-4018Y41649D02*
X42758D01*
X-4010Y41549D02*
X42536D01*
X-4004Y41049D02*
X41733D01*
X-4010Y40949D02*
X41610D01*
X-4018Y40849D02*
X41494D01*
X-4028Y40749D02*
X41386D01*
X-4040Y40649D02*
X41285D01*
X-4055Y40549D02*
X41190D01*
X-4072Y40449D02*
X41101D01*
X-4091Y40349D02*
X41017D01*
X-4113Y40249D02*
X40937D01*
X-4137Y40149D02*
X40862D01*
X-4163Y40049D02*
X40792D01*
X-4192Y39949D02*
X40725D01*
X-4224Y39849D02*
X40662D01*
X-4258Y39749D02*
X40602D01*
X-4295Y39649D02*
X40546D01*
X-4334Y39549D02*
X40494D01*
X-4376Y39449D02*
X40444D01*
X-4421Y39349D02*
X40397D01*
X-4469Y39249D02*
X40354D01*
X-5799Y44849D02*
X3812D01*
X-5937Y44949D02*
X3427D01*
X-5670Y44749D02*
X85474D01*
X-6253Y45149D02*
X2898D01*
X-6088Y45049D02*
X3137D01*
X-5335Y44449D02*
X85587D01*
X-5237Y44349D02*
X85624D01*
X-5551Y44649D02*
X85512D01*
X-5440Y44549D02*
X85549D01*
X-24756Y89849D02*
X24739D01*
X-26050Y89749D02*
X26033D01*
X-20009Y90010D02*
X19991Y90010D01*
X-22934Y89949D02*
X22917D01*
X-28031Y89549D02*
X28013D01*
X-28854Y89449D02*
X28837D01*
X-27110Y89649D02*
X27093D01*
X-6436Y45249D02*
X2691D01*
X-4574Y43449D02*
X85951D01*
X-4520Y43349D02*
X85986D01*
X-4693Y43649D02*
X85879D01*
X-4632Y43549D02*
X85915D01*
X-4521Y39149D02*
X40313D01*
X-4575Y39049D02*
X40275D01*
X-4633Y38949D02*
X40240D01*
X-4694Y38849D02*
X40207D01*
X-4976Y44049D02*
X85734D01*
X-4899Y43949D02*
X85771D01*
X-5145Y44249D02*
X85661D01*
X-5058Y44149D02*
X85698D01*
X-4826Y43849D02*
X85807D01*
X-4758Y43749D02*
X85843D01*
X-4759Y38749D02*
X40177D01*
X-4828Y38649D02*
X40149D01*
X-7170Y45549D02*
X2190D01*
X-6882Y45449D02*
X2341D01*
X-8403Y45749D02*
X1923D01*
X-7552Y45649D02*
X2051D01*
X-6643Y45349D02*
X2507D01*
X-14302Y42149D02*
X-12909D01*
X-13920Y42049D02*
X-12929D01*
X-15154Y42249D02*
X-12888D01*
X-25654Y40749D02*
X-18605D01*
X-24802Y40649D02*
X-18692D01*
X-24420Y40549D02*
X-18774D01*
X-24132Y40449D02*
X-18851D01*
X-23893Y40349D02*
X-18924D01*
X-23686Y40249D02*
X-18992D01*
X-23503Y40149D02*
X-19057D01*
X-22395Y39249D02*
X-19493D01*
X-22308Y39149D02*
X-19527D01*
X-22226Y39049D02*
X-19559D01*
X-22149Y38949D02*
X-19587D01*
X-22076Y38849D02*
X-19614D01*
X-22008Y38749D02*
X-19638D01*
X-21943Y38649D02*
X-19659D01*
X-21882Y38549D02*
X-19678D01*
X-23338Y40049D02*
X-19118D01*
X-23187Y39949D02*
X-19176D01*
X-23049Y39849D02*
X-19231D01*
X-22920Y39749D02*
X-19282D01*
X-22801Y39649D02*
X-19330D01*
X-22689Y39549D02*
X-19375D01*
X-22585Y39449D02*
X-19417D01*
X-22487Y39349D02*
X-19456D01*
X-4901Y38549D02*
X40124D01*
X-4978Y38449D02*
X40101D01*
X-5060Y38349D02*
X40081D01*
X-5147Y38249D02*
X40063D01*
X-5239Y38149D02*
X40047D01*
X-5337Y38049D02*
X40034D01*
X-5442Y37949D02*
X40023D01*
X-5553Y37849D02*
X40014D01*
X-5673Y37749D02*
X40007D01*
X-5801Y37649D02*
X40002D01*
X-6257Y37349D02*
X40003D01*
X-5940Y37549D02*
X40000D01*
X-6091Y37449D02*
X40000D01*
X-6648Y37149D02*
X40014D01*
X-6887Y37049D02*
X40023D01*
X-6441Y37249D02*
X40007D01*
X-7177Y36949D02*
X40034D01*
X-7562Y36849D02*
X40047D01*
X-10822Y36949D02*
X-9823D01*
X-10841Y36849D02*
X-9438D01*
X-10913Y36549D02*
X40102D01*
X-10942Y36449D02*
X40125D01*
X-10863Y36749D02*
X40063D01*
X-10887Y36649D02*
X40081D01*
X-11044Y36149D02*
X40208D01*
X-11084Y36049D02*
X40240D01*
X-10974Y36349D02*
X40150D01*
X-11008Y36249D02*
X40177D01*
X-11219Y35749D02*
X40355D01*
X-11271Y35649D02*
X40398D01*
X-11126Y35949D02*
X40276D01*
X-11171Y35849D02*
X40314D01*
X-21413Y37449D02*
X-19740D01*
X-21386Y37349D02*
X-19732D01*
X-21473Y37649D02*
X-19749D01*
X-21442Y37549D02*
X-19746D01*
X-21321Y37049D02*
X-19695D01*
X-21362Y37249D02*
X-19722D01*
X-21341Y37149D02*
X-19710D01*
X-21824Y38449D02*
X-19695D01*
X-21769Y38349D02*
X-19710D01*
X-21718Y38249D02*
X-19722D01*
X-21670Y38149D02*
X-19732D01*
X-21625Y38049D02*
X-19740D01*
X-21583Y37949D02*
X-19746D01*
X-21544Y37849D02*
X-19749D01*
X-21507Y37749D02*
X-19750D01*
X-21254Y36449D02*
X-19558D01*
X-21251Y36349D02*
X-19526D01*
X-21268Y36649D02*
X-19613D01*
X-21260Y36549D02*
X-19587D01*
X-21254Y36049D02*
X-19416D01*
X-21260Y35949D02*
X-19374D01*
X-21250Y36249D02*
X-19492D01*
X-21251Y36149D02*
X-19456D01*
X-21278Y36749D02*
X-19637D01*
X-21268Y35849D02*
X-19329D01*
X-21305Y36949D02*
X-19678D01*
X-21290Y36849D02*
X-19659D01*
X-21290Y35649D02*
X-19230D01*
X-21305Y35549D02*
X-19175D01*
X-21278Y35749D02*
X-19281D01*
X-11325Y35549D02*
X40445D01*
X-11383Y35449D02*
X40495D01*
X23330Y14049D02*
X33940D01*
X22093Y14249D02*
X33673D01*
X22948Y14149D02*
X33801D01*
X24063Y13749D02*
X34440D01*
X23618Y13949D02*
X34091D01*
X23857Y13849D02*
X34257D01*
X-11578Y35149D02*
X40663D01*
X-11651Y35049D02*
X40726D01*
X-11444Y35349D02*
X40547D01*
X-11509Y35249D02*
X40603D01*
X-11897Y34749D02*
X40939D01*
X-11989Y34649D02*
X41018D01*
X-11728Y34949D02*
X40793D01*
X-11810Y34849D02*
X40864D01*
X26308Y11049D02*
X34536D01*
X26337Y10949D02*
X34342D01*
X26364Y10849D02*
X34169D01*
X26388Y10749D02*
X34011D01*
X26409Y10649D02*
X33867D01*
X26428Y10549D02*
X33733D01*
X26445Y10449D02*
X33610D01*
X26460Y10349D02*
X33494D01*
X24563Y13449D02*
X35177D01*
X24701Y13349D02*
X35561D01*
X24247Y13649D02*
X34648D01*
X24412Y13549D02*
X34887D01*
X26167Y11449D02*
X35825D01*
X26206Y11349D02*
X35344D01*
X26243Y11249D02*
X35018D01*
X26277Y11149D02*
X34758D01*
X26482Y10149D02*
X33285D01*
X26490Y10049D02*
X33190D01*
X26496Y9949D02*
X33101D01*
X26499Y9849D02*
X33017D01*
X26500Y9749D02*
X32937D01*
X26499Y9649D02*
X32862D01*
X26495Y9549D02*
X32792D01*
X26490Y9449D02*
X32725D01*
X26472Y10249D02*
X33386D01*
X26482Y9349D02*
X32662D01*
X26472Y9249D02*
X32602D01*
X26460Y9149D02*
X32546D01*
X26445Y9049D02*
X32494D01*
X26428Y8949D02*
X32444D01*
X26409Y8849D02*
X32397D01*
X26387Y8749D02*
X32354D01*
X26363Y8649D02*
X32313D01*
X26337Y8549D02*
X32275D01*
X26308Y8449D02*
X32240D01*
X26276Y8349D02*
X32207D01*
X26242Y8249D02*
X32177D01*
X26206Y8149D02*
X32149D01*
X26166Y8049D02*
X32124D01*
X26124Y7949D02*
X32101D01*
X26079Y7849D02*
X32081D01*
X26031Y7749D02*
X32063D01*
X25979Y7649D02*
X32047D01*
X25925Y7549D02*
X32034D01*
X25867Y7449D02*
X32023D01*
X25806Y7349D02*
X32014D01*
X25741Y7249D02*
X32007D01*
X25672Y7149D02*
X32002D01*
X25440Y6849D02*
X32003D01*
X25353Y6749D02*
X32007D01*
X25261Y6649D02*
X32014D01*
X25599Y7049D02*
X32000D01*
X25522Y6949D02*
X32000D01*
X24947Y6349D02*
X32047D01*
X25163Y6549D02*
X32023D01*
X25058Y6449D02*
X32034D01*
X24560Y6049D02*
X32102D01*
X24409Y5949D02*
X32125D01*
X24827Y6249D02*
X32063D01*
X24699Y6149D02*
X32081D01*
X24060Y5749D02*
X32177D01*
X23853Y5649D02*
X32208D01*
X24243Y5849D02*
X32150D01*
X22939Y5349D02*
X32314D01*
X23613Y5549D02*
X32240D01*
X23324Y5449D02*
X32276D01*
X4239Y-16751D02*
X7170D01*
X4383Y-16851D02*
X7051D01*
X-3057Y-15951D02*
X8500D01*
X2425Y-16051D02*
X8382D01*
X2906Y-16151D02*
X8143D01*
X3232Y-16251D02*
X7937D01*
X3492Y-16351D02*
X7753D01*
X3713Y-16451D02*
X7588D01*
X3907Y-16551D02*
X7437D01*
X4081Y-16651D02*
X7299D01*
X-2460Y-16051D02*
X1075D01*
X-2104Y-16151D02*
X594D01*
X-1829Y-16251D02*
X268D01*
X-1598Y-16351D02*
X8D01*
X-1397Y-16451D02*
X-213D01*
X-1217Y-16551D02*
X-407D01*
X-10152Y-16151D02*
X-4896D01*
X-9703Y-16251D02*
X-5171D01*
X-9388Y-16351D02*
X-5402D01*
X-9133Y-16451D02*
X-5604D01*
X-8916Y-16551D02*
X-5783D01*
X-8725Y-16651D02*
X-5944D01*
X-8553Y-16751D02*
X-6093D01*
X-8397Y-16851D02*
X-6229D01*
X4756Y-17151D02*
X6737D01*
X4863Y-17251D02*
X6645D01*
X4965Y-17351D02*
X6558D01*
X5059Y-17451D02*
X6477D01*
X5149Y-17551D02*
X6399D01*
X5233Y-17651D02*
X6327D01*
X5313Y-17751D02*
X6258D01*
X5388Y-17851D02*
X6193D01*
X4517Y-16951D02*
X6940D01*
X4640Y-17051D02*
X6835D01*
X-8254Y-16951D02*
X-6355D01*
X-8122Y-17051D02*
X-6473D01*
X-8000Y-17151D02*
X-6583D01*
X-7885Y-17251D02*
X-6686D01*
X-7778Y-17351D02*
X-6783D01*
X-7678Y-17451D02*
X-6873D01*
X-12303Y34349D02*
X41287D01*
X-12423Y34249D02*
X41389D01*
X-12551Y34149D02*
X41497D01*
X-12087Y34549D02*
X41103D01*
X-12192Y34449D02*
X41192D01*
X-13007Y33849D02*
X41869D01*
X-13190Y33749D02*
X42014D01*
X-12690Y34049D02*
X41612D01*
X-12841Y33949D02*
X41736D01*
X-13927Y33449D02*
X42541D01*
X-14311Y33349D02*
X42762D01*
X-13398Y33649D02*
X42172D01*
X-13637Y33549D02*
X42346D01*
X-21693Y33149D02*
X43352D01*
X-21632Y33049D02*
X43838D01*
X-21758Y33249D02*
X43024D01*
X-21825Y14949D02*
X32978D01*
X-19733Y14049D02*
X20670D01*
X-19610Y13949D02*
X20382D01*
X-19494Y13849D02*
X20143D01*
X-19387Y13749D02*
X19937D01*
X-19285Y13649D02*
X19753D01*
X-19190Y13549D02*
X19588D01*
X-19101Y13449D02*
X19437D01*
X-19017Y13349D02*
X19299D01*
X-20758Y14649D02*
X33239D01*
X-20536Y14549D02*
X33337D01*
X-21344Y14849D02*
X33060D01*
X-21018Y14749D02*
X33147D01*
X-20342Y14449D02*
X33442D01*
X-20169Y14349D02*
X33553D01*
X-20011Y14249D02*
X21907D01*
X-19867Y14149D02*
X21052D01*
X-21363Y35249D02*
X-18991D01*
X-21387Y35149D02*
X-18922D01*
X-21322Y35449D02*
X-19117D01*
X-21341Y35349D02*
X-19056D01*
X-21474Y34849D02*
X-18690D01*
X-21508Y34749D02*
X-18603D01*
X-21413Y35049D02*
X-18849D01*
X-21442Y34949D02*
X-18772D01*
X-21626Y34449D02*
X-18308D01*
X-21671Y34349D02*
X-18197D01*
X-21544Y34649D02*
X-18511D01*
X-21584Y34549D02*
X-18413D01*
X-21825Y34049D02*
X-17810D01*
X-21883Y33949D02*
X-17659D01*
X-21719Y34249D02*
X-18077D01*
X-21771Y34149D02*
X-17949D01*
X-18862Y13149D02*
X19051D01*
X-18792Y13049D02*
X18940D01*
X-18725Y12949D02*
X18835D01*
X-18662Y12849D02*
X18737D01*
X-18602Y12749D02*
X18645D01*
X-18546Y12649D02*
X18558D01*
X-18494Y12549D02*
X18477D01*
X-18444Y12449D02*
X18399D01*
X-22058Y33649D02*
X-17103D01*
X-21976Y33549D02*
X-16863D01*
X-21944Y33849D02*
X-17493D01*
X-22009Y33749D02*
X-17310D01*
X-21826Y33349D02*
X-16189D01*
X-18937Y13249D02*
X19170D01*
X-21899Y33449D02*
X-16573D01*
X-18275Y12049D02*
X18132D01*
X-18313Y12149D02*
X18193D01*
X-18240Y11949D02*
X18074D01*
X-18207Y11849D02*
X18019D01*
X-18177Y11749D02*
X17968D01*
X-18149Y11649D02*
X17920D01*
X-18124Y11549D02*
X17875D01*
X-18101Y11449D02*
X17833D01*
X-18081Y11349D02*
X17794D01*
X-18397Y12349D02*
X18326D01*
X-18354Y12249D02*
X18258D01*
X-18663Y8149D02*
X17794D01*
X-18726Y8049D02*
X17834D01*
X-18939Y7749D02*
X17969D01*
X-19018Y7649D02*
X18021D01*
X-18793Y7949D02*
X17876D01*
X-18864Y7849D02*
X17921D01*
X-19287Y7349D02*
X18194D01*
X-19389Y7249D02*
X18259D01*
X-19103Y7549D02*
X18075D01*
X-19192Y7449D02*
X18133D01*
X-19736Y6949D02*
X18478D01*
X-19869Y6849D02*
X18560D01*
X-19497Y7149D02*
X18328D01*
X-19612Y7049D02*
X18401D01*
X-20346Y6549D02*
X18837D01*
X-20540Y6449D02*
X18942D01*
X-20014Y6749D02*
X18647D01*
X-20172Y6649D02*
X18739D01*
X-21351Y6149D02*
X19301D01*
X-21838Y6049D02*
X19440D01*
X-20762Y6349D02*
X19053D01*
X-21024Y6249D02*
X19173D01*
X-18014Y10849D02*
X17636D01*
X-18007Y10749D02*
X17612D01*
X-18003Y10649D02*
X17591D01*
X-18000Y10549D02*
X17572D01*
X-18000Y10449D02*
X17555D01*
X-18003Y10349D02*
X17540D01*
X-18007Y10249D02*
X17528D01*
X-18014Y10149D02*
X17518D01*
X-18063Y11249D02*
X17757D01*
X-18047Y11149D02*
X17723D01*
X-18034Y11049D02*
X17692D01*
X-18022Y10949D02*
X17663D01*
X-18023Y10049D02*
X17510D01*
X-18034Y9949D02*
X17504D01*
X-18047Y9849D02*
X17501D01*
X-18102Y9549D02*
X17505D01*
X-18124Y9449D02*
X17510D01*
X-18063Y9749D02*
X17500D01*
X-18081Y9649D02*
X17501D01*
X-18208Y9149D02*
X17540D01*
X-18240Y9049D02*
X17555D01*
X-18150Y9349D02*
X17518D01*
X-18177Y9249D02*
X17528D01*
X-18355Y8749D02*
X17613D01*
X-18398Y8649D02*
X17637D01*
X-18276Y8949D02*
X17572D01*
X-18314Y8849D02*
X17591D01*
X-18547Y8349D02*
X17724D01*
X-18603Y8249D02*
X17758D01*
X-18445Y8549D02*
X17663D01*
X-18495Y8449D02*
X17692D01*
X89991Y-19990D02*
Y20010D01*
X50875Y-30451D02*
X89205D01*
X50917Y-30551D02*
X89190D01*
X50956Y-30651D02*
X89175D01*
X50993Y-30751D02*
X89159D01*
X51027Y-30851D02*
X89144D01*
X51058Y-30951D02*
X89128D01*
X51087Y-31051D02*
X89112D01*
X51114Y-31151D02*
X89096D01*
X50423Y-29651D02*
X89321D01*
X50492Y-29751D02*
X89307D01*
X50557Y-29851D02*
X89293D01*
X50618Y-29951D02*
X89279D01*
X50676Y-30051D02*
X89265D01*
X50730Y-30151D02*
X89250D01*
X50782Y-30251D02*
X89235D01*
X50830Y-30351D02*
X89220D01*
X79675Y-32051D02*
X88945D01*
X80155Y-32151D02*
X88927D01*
X80482Y-32251D02*
X88909D01*
X80742Y-32351D02*
X88891D01*
X80963Y-32451D02*
X88873D01*
X81157Y-32551D02*
X88855D01*
X81331Y-32651D02*
X88837D01*
X81489Y-32751D02*
X88818D01*
X51138Y-31251D02*
X89080D01*
X51159Y-31351D02*
X89063D01*
X51178Y-31451D02*
X89047D01*
X51195Y-31551D02*
X89030D01*
X51210Y-31651D02*
X89013D01*
X51222Y-31751D02*
X88996D01*
X51232Y-31851D02*
X88979D01*
X51240Y-31951D02*
X88962D01*
X51246Y-32051D02*
X78325D01*
X51249Y-32151D02*
X77845D01*
X51250Y-32251D02*
X77519D01*
X51249Y-32351D02*
X77258D01*
X81633Y-32851D02*
X88800D01*
X81767Y-32951D02*
X88781D01*
X81890Y-33051D02*
X88762D01*
X82006Y-33151D02*
X88743D01*
X51245Y-32451D02*
X77037D01*
X51240Y-32551D02*
X76843D01*
X51232Y-32651D02*
X76669D01*
X51222Y-32751D02*
X76511D01*
X51210Y-32851D02*
X76367D01*
X51195Y-32951D02*
X76234D01*
X51178Y-33051D02*
X76110D01*
X51159Y-33151D02*
X75994D01*
X82113Y-33251D02*
X88724D01*
X82214Y-33351D02*
X88704D01*
X82310Y-33451D02*
X88685D01*
X82399Y-33551D02*
X88665D01*
X82483Y-33651D02*
X88645D01*
X82563Y-33751D02*
X88625D01*
X82638Y-33851D02*
X88605D01*
X82708Y-33951D02*
X88585D01*
X51137Y-33251D02*
X75887D01*
X51113Y-33351D02*
X75785D01*
X51087Y-33451D02*
X75690D01*
X51058Y-33551D02*
X75601D01*
X51026Y-33651D02*
X75517D01*
X50992Y-33751D02*
X75437D01*
X50956Y-33851D02*
X75362D01*
X50916Y-33951D02*
X75292D01*
X83225Y-34951D02*
X88374D01*
X83187Y-34851D02*
X88396D01*
X83260Y-35051D02*
X88352D01*
X83293Y-35151D02*
X88330D01*
X83323Y-35251D02*
X88308D01*
X83351Y-35351D02*
X88285D01*
X83376Y-35451D02*
X88263D01*
X83399Y-35551D02*
X88240D01*
X83419Y-35651D02*
X88217D01*
X82775Y-34051D02*
X88565D01*
X82838Y-34151D02*
X88544D01*
X82898Y-34251D02*
X88523D01*
X82954Y-34351D02*
X88502D01*
X83006Y-34451D02*
X88481D01*
X83056Y-34551D02*
X88460D01*
X83103Y-34651D02*
X88439D01*
X83146Y-34751D02*
X88417D01*
X83486Y-36151D02*
X88100D01*
X83493Y-36251D02*
X88076D01*
X83497Y-36351D02*
X88053D01*
X83500Y-36451D02*
X88028D01*
X83500Y-36551D02*
X88004D01*
X83497Y-36651D02*
X87980D01*
X83493Y-36751D02*
X87955D01*
X83486Y-36851D02*
X87930D01*
X83437Y-35751D02*
X88194D01*
X83453Y-35851D02*
X88171D01*
X83466Y-35951D02*
X88147D01*
X83477Y-36051D02*
X88124D01*
X83477Y-36951D02*
X87906D01*
X83466Y-37051D02*
X87880D01*
X83453Y-37151D02*
X87855D01*
X83437Y-37251D02*
X87830D01*
X83419Y-37351D02*
X87804D01*
X83398Y-37451D02*
X87779D01*
X50874Y-34051D02*
X75225D01*
X83376Y-37551D02*
X87753D01*
X83350Y-37651D02*
X87727D01*
X83323Y-37751D02*
X87701D01*
X83292Y-37851D02*
X87674D01*
X50829Y-34151D02*
X75162D01*
X50781Y-34251D02*
X75102D01*
X50729Y-34351D02*
X75046D01*
X50675Y-34451D02*
X74994D01*
X50617Y-34551D02*
X74944D01*
X50556Y-34651D02*
X74897D01*
X50491Y-34751D02*
X74854D01*
X50422Y-34851D02*
X74813D01*
X83260Y-37951D02*
X87648D01*
X83224Y-38051D02*
X87621D01*
X83186Y-38151D02*
X87594D01*
X83145Y-38251D02*
X87568D01*
X83102Y-38351D02*
X87540D01*
X83055Y-38451D02*
X87513D01*
X83006Y-38551D02*
X87486D01*
X82953Y-38651D02*
X87458D01*
X82897Y-38751D02*
X87430D01*
X82837Y-38851D02*
X87402D01*
X82774Y-38951D02*
X87374D01*
X82707Y-39051D02*
X87346D01*
X82636Y-39151D02*
X87318D01*
X82561Y-39251D02*
X87289D01*
X82482Y-39351D02*
X87261D01*
X82397Y-39451D02*
X87232D01*
X16397Y-18951D02*
X89991D01*
X16308Y-19051D02*
X89991D01*
X16213Y-19151D02*
X89991D01*
X16561Y-18751D02*
X89991D01*
X16482Y-18851D02*
X89991D01*
X15888Y-19451D02*
X89991D01*
X15764Y-19551D02*
X89991D01*
X16112Y-19251D02*
X89991D01*
X16004Y-19351D02*
X89991D01*
X15328Y-19851D02*
X89991D01*
X15154Y-19951D02*
X89991D01*
X15631Y-19651D02*
X89991D01*
X15486Y-19751D02*
X89991D01*
X14960Y-20051D02*
X89991D01*
X14738Y-20151D02*
X89991D01*
X14500Y-20251D02*
X89991D01*
X14499Y-20351D02*
X89990D01*
X14496Y-20451D02*
X89990D01*
X14490Y-20551D02*
X89989D01*
X14482Y-20651D02*
X89988D01*
X14472Y-20751D02*
X89987D01*
X14460Y-20851D02*
X89986D01*
X14445Y-20951D02*
X89985D01*
X14428Y-21051D02*
X89983D01*
X14409Y-21151D02*
X89982D01*
X14387Y-21251D02*
X89980D01*
X14363Y-21351D02*
X89978D01*
X14337Y-21451D02*
X89976D01*
X14308Y-21551D02*
X89974D01*
X14276Y-21651D02*
X89972D01*
X14242Y-21751D02*
X89969D01*
X14206Y-21851D02*
X89967D01*
X14166Y-21951D02*
X89964D01*
X28948Y-22851D02*
X89933D01*
X29330Y-22951D02*
X89929D01*
X29618Y-23051D02*
X89924D01*
X29857Y-23151D02*
X89920D01*
X30063Y-23251D02*
X89915D01*
X30247Y-23351D02*
X89911D01*
X30412Y-23451D02*
X89906D01*
X30563Y-23551D02*
X89901D01*
X14124Y-22051D02*
X89961D01*
X14079Y-22151D02*
X89958D01*
X14031Y-22251D02*
X89955D01*
X13980Y-22351D02*
X89951D01*
X13925Y-22451D02*
X89948D01*
X13867Y-22551D02*
X89944D01*
X13806Y-22651D02*
X89941D01*
X28089Y-22751D02*
X89937D01*
X31523Y-24451D02*
X89849D01*
X31601Y-24551D02*
X89843D01*
X31674Y-24651D02*
X89836D01*
X31742Y-24751D02*
X89829D01*
X31807Y-24851D02*
X89822D01*
X31868Y-24951D02*
X89815D01*
X31926Y-25051D02*
X89808D01*
X31980Y-25151D02*
X89801D01*
X30701Y-23651D02*
X89896D01*
X30830Y-23751D02*
X89890D01*
X30949Y-23851D02*
X89885D01*
X31060Y-23951D02*
X89879D01*
X31165Y-24051D02*
X89874D01*
X31263Y-24151D02*
X89868D01*
X31355Y-24251D02*
X89862D01*
X31442Y-24351D02*
X89855D01*
X32337Y-26051D02*
X89728D01*
X32308Y-25951D02*
X89737D01*
X32364Y-26151D02*
X89720D01*
X32388Y-26251D02*
X89711D01*
X32409Y-26351D02*
X89702D01*
X32429Y-26451D02*
X89693D01*
X32445Y-26551D02*
X89683D01*
X32460Y-26651D02*
X89674D01*
X32472Y-26751D02*
X89664D01*
X32032Y-25251D02*
X89793D01*
X32080Y-25351D02*
X89786D01*
X32125Y-25451D02*
X89778D01*
X32167Y-25551D02*
X89770D01*
X32206Y-25651D02*
X89762D01*
X32243Y-25751D02*
X89754D01*
X32277Y-25851D02*
X89746D01*
X32500Y-27251D02*
X89614D01*
X46839Y-27751D02*
X89560D01*
X47698Y-27851D02*
X89549D01*
X48080Y-27951D02*
X89537D01*
X48368Y-28051D02*
X89526D01*
X48607Y-28151D02*
X89514D01*
X48813Y-28251D02*
X89502D01*
X48997Y-28351D02*
X89490D01*
X32482Y-26851D02*
X89654D01*
X32490Y-26951D02*
X89644D01*
X32496Y-27051D02*
X89634D01*
X32499Y-27151D02*
X89624D01*
X32499Y-27351D02*
X89603D01*
X32496Y-27451D02*
X89593D01*
X32490Y-27551D02*
X89582D01*
X32482Y-27651D02*
X89571D01*
X50013Y-29151D02*
X89389D01*
X50105Y-29251D02*
X89376D01*
X50192Y-29351D02*
X89363D01*
X50273Y-29451D02*
X89349D01*
X50351Y-29551D02*
X89335D01*
X50349Y-34951D02*
X74775D01*
X50272Y-35051D02*
X74740D01*
X50190Y-35151D02*
X74707D01*
X49162Y-28451D02*
X89478D01*
X49313Y-28551D02*
X89466D01*
X49451Y-28651D02*
X89453D01*
X49580Y-28751D02*
X89441D01*
X49699Y-28851D02*
X89428D01*
X49810Y-28951D02*
X89415D01*
X49915Y-29051D02*
X89403D01*
X25159Y-37851D02*
X74707D01*
X25246Y-38551D02*
X74995D01*
X25249Y-38651D02*
X75047D01*
X25232Y-38351D02*
X74898D01*
X25240Y-38451D02*
X74945D01*
X25245Y-38951D02*
X75226D01*
X25240Y-39051D02*
X75293D01*
X25250Y-38751D02*
X75103D01*
X25249Y-38851D02*
X75163D01*
X25210Y-38151D02*
X74814D01*
X25222Y-38251D02*
X74855D01*
X25178Y-37951D02*
X74740D01*
X25195Y-38051D02*
X74776D01*
X25210Y-39351D02*
X75518D01*
X25195Y-39451D02*
X75603D01*
X25232Y-39151D02*
X75364D01*
X25222Y-39251D02*
X75439D01*
X82308Y-39551D02*
X87203D01*
X82213Y-39651D02*
X87174D01*
X82112Y-39751D02*
X87144D01*
X82004Y-39851D02*
X87115D01*
X81888Y-39951D02*
X87085D01*
X81764Y-40051D02*
X87055D01*
X81631Y-40151D02*
X87025D01*
X81486Y-40251D02*
X86995D01*
X81328Y-40351D02*
X86965D01*
X81154Y-40451D02*
X86934D01*
X80960Y-40551D02*
X86904D01*
X80738Y-40651D02*
X86873D01*
X80477Y-40751D02*
X86842D01*
X80149Y-40851D02*
X86811D01*
X79663Y-40951D02*
X86779D01*
X77157Y-41051D02*
X86748D01*
X77331Y-41151D02*
X86716D01*
X78399Y-42051D02*
X86424D01*
X78483Y-42151D02*
X86391D01*
X78563Y-42251D02*
X86357D01*
X78638Y-42351D02*
X86324D01*
X78708Y-42451D02*
X86290D01*
X78775Y-42551D02*
X86256D01*
X78838Y-42651D02*
X86222D01*
X78898Y-42751D02*
X86188D01*
X77489Y-41251D02*
X86685D01*
X77633Y-41351D02*
X86652D01*
X77766Y-41451D02*
X86620D01*
X77890Y-41551D02*
X86588D01*
X78005Y-41651D02*
X86556D01*
X78113Y-41751D02*
X86523D01*
X78215Y-41851D02*
X86490D01*
X78309Y-41951D02*
X86457D01*
X79146Y-43251D02*
X86014D01*
X79187Y-43351D02*
X85978D01*
X79225Y-43451D02*
X85943D01*
X79260Y-43551D02*
X85907D01*
X79293Y-43651D02*
X85871D01*
X79323Y-43751D02*
X85835D01*
X79351Y-43851D02*
X85799D01*
X79376Y-43951D02*
X85763D01*
X76742Y-40851D02*
X77851D01*
X76963Y-40951D02*
X78337D01*
X76155Y-40651D02*
X77262D01*
X76481Y-40751D02*
X77523D01*
X78954Y-42851D02*
X86153D01*
X79006Y-42951D02*
X86118D01*
X79056Y-43051D02*
X86084D01*
X79103Y-43151D02*
X86049D01*
X79486Y-44651D02*
X85504D01*
X79493Y-44751D02*
X85466D01*
X79497Y-44851D02*
X85428D01*
X79500Y-44951D02*
X85390D01*
X79500Y-45051D02*
X85351D01*
X79497Y-45151D02*
X85313D01*
X79493Y-45251D02*
X85274D01*
X79486Y-45351D02*
X85236D01*
X79399Y-44051D02*
X85726D01*
X79419Y-44151D02*
X85689D01*
X79437Y-44251D02*
X85653D01*
X79453Y-44351D02*
X85616D01*
X79466Y-44451D02*
X85578D01*
X79478Y-44551D02*
X85541D01*
X79477Y-45451D02*
X85197D01*
X79466Y-45551D02*
X85158D01*
X79453Y-45651D02*
X85118D01*
X79437Y-45751D02*
X85079D01*
X79419Y-45851D02*
X85039D01*
X79398Y-45951D02*
X84999D01*
X79376Y-46051D02*
X84959D01*
X79350Y-46151D02*
X84919D01*
X79323Y-46251D02*
X84879D01*
X79292Y-46351D02*
X84838D01*
X79260Y-46451D02*
X84797D01*
X79224Y-46551D02*
X84756D01*
X79186Y-46651D02*
X84715D01*
X79145Y-46751D02*
X84674D01*
X79102Y-46851D02*
X84633D01*
X79055Y-46951D02*
X84591D01*
X79005Y-47051D02*
X84549D01*
X78953Y-47151D02*
X84507D01*
X78897Y-47251D02*
X84465D01*
X78837Y-47351D02*
X84423D01*
X78774Y-47451D02*
X84380D01*
X78707Y-47551D02*
X84337D01*
X78636Y-47651D02*
X84294D01*
X78561Y-47751D02*
X84251D01*
X78482Y-47851D02*
X84208D01*
X78397Y-47951D02*
X84164D01*
X78308Y-48051D02*
X84121D01*
X78213Y-48151D02*
X84077D01*
X78112Y-48251D02*
X84033D01*
X78004Y-48351D02*
X83989D01*
X77888Y-48451D02*
X83944D01*
X77764Y-48551D02*
X83900D01*
X77631Y-48651D02*
X83855D01*
X77486Y-48751D02*
X83810D01*
X77328Y-48851D02*
X83765D01*
X77154Y-48951D02*
X83719D01*
X76960Y-49051D02*
X83674D01*
X76738Y-49151D02*
X83628D01*
X76477Y-49251D02*
X83582D01*
X76210Y-51651D02*
X82422D01*
X76222Y-51751D02*
X82371D01*
X76232Y-51851D02*
X82320D01*
X76240Y-51951D02*
X82269D01*
X76149Y-49351D02*
X83536D01*
X76058Y-50951D02*
X82772D01*
X76087Y-51051D02*
X82723D01*
X76114Y-51151D02*
X82673D01*
X76138Y-51251D02*
X82623D01*
X76159Y-51351D02*
X82573D01*
X76178Y-51451D02*
X82523D01*
X76195Y-51551D02*
X82473D01*
X76246Y-52051D02*
X82218D01*
X76249Y-52151D02*
X82166D01*
X76250Y-52251D02*
X82114D01*
X76249Y-52351D02*
X82062D01*
X76245Y-52451D02*
X82010D01*
X76240Y-52551D02*
X81957D01*
X76232Y-52651D02*
X81905D01*
X76222Y-52751D02*
X81852D01*
X76210Y-52851D02*
X81799D01*
X76195Y-52951D02*
X81746D01*
X76178Y-53051D02*
X81692D01*
X76159Y-53151D02*
X81638D01*
X76137Y-53251D02*
X81585D01*
X76113Y-53351D02*
X81530D01*
X76087Y-53451D02*
X81476D01*
X76058Y-53551D02*
X81422D01*
X75830Y-50351D02*
X83064D01*
X75781Y-50251D02*
X83112D01*
X75875Y-50451D02*
X83016D01*
X75917Y-50551D02*
X82968D01*
X75956Y-50651D02*
X82919D01*
X75993Y-50751D02*
X82870D01*
X76027Y-50851D02*
X82821D01*
X76026Y-53651D02*
X81367D01*
X75992Y-53751D02*
X81312D01*
X75663Y-49451D02*
X83490D01*
X75351Y-49551D02*
X83443D01*
X75423Y-49651D02*
X83397D01*
X75492Y-49751D02*
X83350D01*
X75557Y-49851D02*
X83303D01*
X75618Y-49951D02*
X83256D01*
X75676Y-50051D02*
X83208D01*
X75730Y-50151D02*
X83160D01*
X75956Y-53851D02*
X81257D01*
X75916Y-53951D02*
X81201D01*
X75874Y-54051D02*
X81146D01*
X75829Y-54151D02*
X81090D01*
X75781Y-54251D02*
X81034D01*
X75729Y-54351D02*
X80978D01*
X75675Y-54451D02*
X80921D01*
X75617Y-54551D02*
X80865D01*
X75556Y-54651D02*
X80808D01*
X75491Y-54751D02*
X80751D01*
X75422Y-54851D02*
X80693D01*
X75349Y-54951D02*
X80636D01*
X75272Y-55051D02*
X80578D01*
X75190Y-55151D02*
X80520D01*
X75103Y-55251D02*
X80462D01*
X75011Y-55351D02*
X80403D01*
X75675Y-40551D02*
X77040D01*
X25178Y-39551D02*
X75692D01*
X25159Y-39651D02*
X75787D01*
X74913Y-55451D02*
X80345D01*
X25087Y-39951D02*
X76112D01*
X25058Y-40051D02*
X76236D01*
X25137Y-39751D02*
X75888D01*
X25113Y-39851D02*
X75996D01*
X24956Y-40351D02*
X76672D01*
X24916Y-40451D02*
X76846D01*
X25026Y-40151D02*
X76369D01*
X24992Y-40251D02*
X76514D01*
X74809Y-55551D02*
X80286D01*
X74697Y-55651D02*
X80227D01*
X74577Y-55751D02*
X80167D01*
X74449Y-55851D02*
X80108D01*
X74310Y-55951D02*
X80048D01*
X74159Y-56051D02*
X79988D01*
X73994Y-56151D02*
X79928D01*
X73810Y-56251D02*
X79868D01*
X73603Y-56351D02*
X79807D01*
X73363Y-56451D02*
X79746D01*
X73074Y-56551D02*
X79685D01*
X72689Y-56651D02*
X79623D01*
X70079Y-56751D02*
X79562D01*
X70199Y-56851D02*
X79500D01*
X70310Y-56951D02*
X79438D01*
X70415Y-57051D02*
X79376D01*
X71176Y-58051D02*
X78740D01*
X71118Y-57951D02*
X78804D01*
X71230Y-58151D02*
X78675D01*
X71281Y-58251D02*
X78610D01*
X71330Y-58351D02*
X78544D01*
X71375Y-58451D02*
X78479D01*
X71417Y-58551D02*
X78413D01*
X71456Y-58651D02*
X78347D01*
X71493Y-58751D02*
X78280D01*
X70513Y-57151D02*
X79313D01*
X70605Y-57251D02*
X79250D01*
X70692Y-57351D02*
X79187D01*
X70773Y-57451D02*
X79124D01*
X70851Y-57551D02*
X79061D01*
X70924Y-57651D02*
X78997D01*
X70992Y-57751D02*
X78933D01*
X71057Y-57851D02*
X78869D01*
X71710Y-59651D02*
X77672D01*
X71722Y-59751D02*
X77603D01*
X71732Y-59851D02*
X77534D01*
X71740Y-59951D02*
X77464D01*
X71746Y-60051D02*
X77395D01*
X71749Y-60151D02*
X77325D01*
X71750Y-60251D02*
X77255D01*
X71749Y-60351D02*
X77184D01*
X71527Y-58851D02*
X78214D01*
X71558Y-58951D02*
X78147D01*
X71587Y-59051D02*
X78080D01*
X71614Y-59151D02*
X78012D01*
X71638Y-59251D02*
X77945D01*
X71659Y-59351D02*
X77877D01*
X71679Y-59451D02*
X77809D01*
X71695Y-59551D02*
X77740D01*
X71746Y-60451D02*
X77113D01*
X71740Y-60551D02*
X77042D01*
X71732Y-60651D02*
X76971D01*
X71722Y-60751D02*
X76900D01*
X71710Y-60851D02*
X76828D01*
X71695Y-60951D02*
X76756D01*
X71678Y-61051D02*
X76684D01*
X71659Y-61151D02*
X76611D01*
X71637Y-61251D02*
X76538D01*
X71613Y-61351D02*
X76465D01*
X71587Y-61451D02*
X76392D01*
X71558Y-61551D02*
X76318D01*
X71526Y-61651D02*
X76244D01*
X71492Y-61751D02*
X76170D01*
X71456Y-61851D02*
X76095D01*
X71416Y-61951D02*
X76021D01*
X71374Y-62051D02*
X75946D01*
X71329Y-62151D02*
X75870D01*
X71281Y-62251D02*
X75795D01*
X71230Y-62351D02*
X75719D01*
X71175Y-62451D02*
X75643D01*
X71117Y-62551D02*
X75566D01*
X71056Y-62651D02*
X75490D01*
X70991Y-62751D02*
X75413D01*
X70922Y-62851D02*
X75335D01*
X70849Y-62951D02*
X75258D01*
X70772Y-63051D02*
X75180D01*
X70690Y-63151D02*
X75102D01*
X70603Y-63251D02*
X75023D01*
X70511Y-63351D02*
X74944D01*
X70413Y-63451D02*
X74865D01*
X70308Y-63551D02*
X74786D01*
X13741Y-22751D02*
X27911D01*
X13672Y-22851D02*
X27053D01*
X13599Y-22951D02*
X26670D01*
X13522Y-23051D02*
X26382D01*
X13440Y-23151D02*
X26143D01*
X13353Y-23251D02*
X25937D01*
X13261Y-23351D02*
X25754D01*
X13163Y-23451D02*
X25588D01*
X13058Y-23551D02*
X25438D01*
X12947Y-23651D02*
X25299D01*
X12827Y-23751D02*
X25171D01*
X12699Y-23851D02*
X25051D01*
X12560Y-23951D02*
X24940D01*
X12409Y-24051D02*
X24835D01*
X12243Y-24151D02*
X24737D01*
X12060Y-24251D02*
X24645D01*
X11853Y-24351D02*
X24558D01*
X11613Y-24451D02*
X24476D01*
X11324Y-24551D02*
X24399D01*
X10939Y-24651D02*
X24327D01*
X3226Y-24751D02*
X24258D01*
X2899Y-24851D02*
X24193D01*
X2413Y-24951D02*
X24132D01*
X-2625Y-25051D02*
X24074D01*
X-2650Y-25151D02*
X24020D01*
X-2677Y-25251D02*
X23968D01*
X-2708Y-25351D02*
X23920D01*
X-2740Y-25451D02*
X23875D01*
X-2776Y-25551D02*
X23833D01*
X-2814Y-25651D02*
X23794D01*
X-2855Y-25751D02*
X23757D01*
X-2898Y-25851D02*
X23723D01*
X-2945Y-25951D02*
X23692D01*
X5386Y-23151D02*
X6560D01*
X5524Y-22951D02*
X6401D01*
X5457Y-23051D02*
X6478D01*
X5147Y-23451D02*
X6837D01*
X5311Y-23251D02*
X6647D01*
X5232Y-23351D02*
X6739D01*
X4861Y-23751D02*
X7173D01*
X4754Y-23851D02*
X7301D01*
X5058Y-23551D02*
X6942D01*
X4963Y-23651D02*
X7053D01*
X4638Y-23951D02*
X7440D01*
X4514Y-24051D02*
X7591D01*
X4236Y-24251D02*
X7940D01*
X4078Y-24351D02*
X8147D01*
X4381Y-24151D02*
X7757D01*
X-1481Y-24451D02*
X-404D01*
X3710Y-24551D02*
X8676D01*
X3488Y-24651D02*
X9061D01*
X3904Y-24451D02*
X8387D01*
X-1694Y-24551D02*
X-210D01*
X-2581Y-24851D02*
X601D01*
X-2602Y-24951D02*
X1087D01*
X-1943Y-24651D02*
X12D01*
X-2246Y-24751D02*
X274D01*
X-2995Y-26051D02*
X23663D01*
X-3047Y-26151D02*
X23636D01*
X-3104Y-26251D02*
X23612D01*
X-3163Y-26351D02*
X23591D01*
X32472Y-27751D02*
X46661D01*
X32460Y-27851D02*
X45802D01*
X32445Y-27951D02*
X45420D01*
X32428Y-28051D02*
X45132D01*
X32409Y-28151D02*
X44893D01*
X32387Y-28251D02*
X44687D01*
X32363Y-28351D02*
X44503D01*
X32337Y-28451D02*
X44338D01*
X32308Y-28551D02*
X44187D01*
X32276Y-28651D02*
X44049D01*
X32242Y-28751D02*
X43920D01*
X32206Y-28851D02*
X43801D01*
X32166Y-28951D02*
X43690D01*
X32124Y-29051D02*
X43585D01*
X32079Y-29151D02*
X43487D01*
X32031Y-29251D02*
X43395D01*
X31979Y-29351D02*
X43308D01*
X31925Y-29451D02*
X43226D01*
X31867Y-29551D02*
X43149D01*
X31806Y-29651D02*
X43077D01*
X31741Y-29751D02*
X43008D01*
X31672Y-29851D02*
X42943D01*
X31599Y-29951D02*
X42882D01*
X31522Y-30051D02*
X42824D01*
X31440Y-30151D02*
X42770D01*
X21697Y-34351D02*
X42771D01*
X31353Y-30251D02*
X42718D01*
X20838Y-34251D02*
X42719D01*
X22607Y-34651D02*
X42944D01*
X22813Y-34751D02*
X43009D01*
X22079Y-34451D02*
X42825D01*
X22368Y-34551D02*
X42883D01*
X-3226Y-26451D02*
X23572D01*
X-3293Y-26551D02*
X23555D01*
X-3364Y-26651D02*
X23540D01*
X-3439Y-26751D02*
X23528D01*
X-3519Y-26851D02*
X23518D01*
X-3603Y-26951D02*
X23510D01*
X-3692Y-27051D02*
X23504D01*
X-3997Y-27351D02*
X23501D01*
X-4112Y-27451D02*
X23505D01*
X-3787Y-27151D02*
X23501D01*
X-3889Y-27251D02*
X23500D01*
X-4514Y-27751D02*
X23528D01*
X-4672Y-27851D02*
X23540D01*
X-4236Y-27551D02*
X23510D01*
X-4370Y-27651D02*
X23518D01*
X31261Y-30351D02*
X42670D01*
X31163Y-30451D02*
X42625D01*
X31058Y-30551D02*
X42583D01*
X30947Y-30651D02*
X42544D01*
X30827Y-30751D02*
X42507D01*
X30699Y-30851D02*
X42473D01*
X30560Y-30951D02*
X42442D01*
X30409Y-31051D02*
X42413D01*
X30243Y-31151D02*
X42386D01*
X30060Y-31251D02*
X42362D01*
X-4846Y-27951D02*
X23555D01*
X29853Y-31351D02*
X42341D01*
X29613Y-31451D02*
X42322D01*
X29324Y-31551D02*
X42305D01*
X28939Y-31651D02*
X42290D01*
X-5041Y-28051D02*
X23572D01*
X-5263Y-28151D02*
X23591D01*
X-5524Y-28251D02*
X23613D01*
X-19279D02*
X-8476D01*
X-5852Y-28351D02*
X23637D01*
X-19269D02*
X-8148D01*
X-19261Y-28451D02*
X-7661D01*
X-19388Y-27651D02*
X-9630D01*
X-19364Y-27751D02*
X-9486D01*
X-19443Y-27451D02*
X-9888D01*
X-19414Y-27551D02*
X-9764D01*
X-19306Y-28051D02*
X-8959D01*
X-19291Y-28151D02*
X-8737D01*
X-19342Y-27851D02*
X-9328D01*
X-19323Y-27951D02*
X-9154D01*
X-19252Y-28651D02*
X23724D01*
X-19251Y-28751D02*
X23758D01*
X-6339Y-28451D02*
X23663D01*
X-19256Y-28551D02*
X23692D01*
X-19261Y-29051D02*
X23876D01*
X-19269Y-29151D02*
X23921D01*
X-19252Y-28851D02*
X23794D01*
X-19256Y-28951D02*
X23834D01*
X-19306Y-29451D02*
X24075D01*
X-19323Y-29551D02*
X24133D01*
X-19279Y-29251D02*
X23969D01*
X-19291Y-29351D02*
X24021D01*
X-19388Y-29851D02*
X24328D01*
X-19414Y-29951D02*
X24401D01*
X-19342Y-29651D02*
X24194D01*
X-19364Y-29751D02*
X24259D01*
X-20804Y-25351D02*
X-11292D01*
X-20692Y-25451D02*
X-11260D01*
X-21052Y-25151D02*
X-11350D01*
X-20923Y-25251D02*
X-11323D01*
X-20398Y-25751D02*
X-11145D01*
X-20311Y-25851D02*
X-11102D01*
X-20588Y-25551D02*
X-11224D01*
X-20490Y-25651D02*
X-11186D01*
X-22137Y-24551D02*
X-13036D01*
X-21898Y-24651D02*
X-12838D01*
X-22810Y-24351D02*
X-13372D01*
X-22426Y-24451D02*
X-13212D01*
X-21342Y-24951D02*
X-12005D01*
X-21191Y-25051D02*
X-11478D01*
X-21691Y-24751D02*
X-12612D01*
X-21507Y-24851D02*
X-12345D01*
X-19672Y-26851D02*
X-10481D01*
X-19627Y-26951D02*
X-10397D01*
X-19771Y-26651D02*
X-10636D01*
X-19720Y-26751D02*
X-10561D01*
X-19509Y-27251D02*
X-10111D01*
X-19475Y-27351D02*
X-10003D01*
X-19585Y-27051D02*
X-10308D01*
X-19545Y-27151D02*
X-10213D01*
X-20079Y-26151D02*
X-10953D01*
X-20010Y-26251D02*
X-10896D01*
X-20229Y-25951D02*
X-11055D01*
X-20152Y-26051D02*
X-11005D01*
X-19884Y-26451D02*
X-10774D01*
X-19826Y-26551D02*
X-10707D01*
X-19945Y-26351D02*
X-10837D01*
X-28825Y-30051D02*
X-28059D01*
X-19944Y-31151D02*
X25756D01*
X-20009Y-31251D02*
X25940D01*
X-20078Y-31351D02*
X26147D01*
X-19825Y-30951D02*
X25440D01*
X-19883Y-31051D02*
X25591D01*
X-20310Y-31651D02*
X27061D01*
X-20397Y-31751D02*
X42278D01*
X-20151Y-31451D02*
X26387D01*
X-20228Y-31551D02*
X26676D01*
X-20489Y-31851D02*
X42268D01*
X-20587Y-31951D02*
X42260D01*
X-20691Y-32051D02*
X42254D01*
X-20803Y-32151D02*
X42251D01*
X-21189Y-32451D02*
X42255D01*
X-21340Y-32551D02*
X42260D01*
X-20922Y-32251D02*
X42250D01*
X-21051Y-32351D02*
X42251D01*
X-21895Y-32851D02*
X42290D01*
X-22134Y-32951D02*
X42305D01*
X-21505Y-32651D02*
X42268D01*
X-21689Y-32751D02*
X42278D01*
X-23684Y-33251D02*
X42363D01*
X-27727Y-33351D02*
X42387D01*
X-22423Y-33051D02*
X42322D01*
X-22805Y-33151D02*
X42341D01*
X-27760Y-33651D02*
X42474D01*
X-27776Y-33751D02*
X42508D01*
X-27736Y-33451D02*
X42413D01*
X-27747Y-33551D02*
X42442D01*
X-27836Y-34051D02*
X42626D01*
X-27861Y-34151D02*
X42671D01*
X-27793Y-33851D02*
X42544D01*
X-27814Y-33951D02*
X42584D01*
X-19508Y-30251D02*
X24647D01*
X-19545Y-30351D02*
X24739D01*
X-19443Y-30051D02*
X24478D01*
X-19474Y-30151D02*
X24560D01*
X-19672Y-30651D02*
X25053D01*
X-19720Y-30751D02*
X25173D01*
X-19584Y-30451D02*
X24837D01*
X-19627Y-30551D02*
X24942D01*
X-19771Y-30851D02*
X25301D01*
X-27841Y-31951D02*
X-26916D01*
X-27895Y-31751D02*
X-27106D01*
X-27867Y-31851D02*
X-27013D01*
X-27779Y-32251D02*
X-26580D01*
X-27818Y-32051D02*
X-26811D01*
X-27798Y-32151D02*
X-26700D01*
X-27722Y-32751D02*
X-25814D01*
X-27717Y-32851D02*
X-25607D01*
X-27738Y-32551D02*
X-26162D01*
X-27729Y-32651D02*
X-25997D01*
X-27717Y-33151D02*
X-24697D01*
X-27721Y-33251D02*
X-23819D01*
X-27715Y-32951D02*
X-25368D01*
X-27715Y-33051D02*
X-25080D01*
X-27889Y-34251D02*
X20662D01*
X-27918Y-34351D02*
X19803D01*
X-27763Y-32351D02*
X-26452D01*
X-27750Y-32451D02*
X-26313D01*
X-27951Y-34451D02*
X19421D01*
X-27986Y-34551D02*
X19132D01*
X-28024Y-34651D02*
X18893D01*
X-28064Y-34751D02*
X18687D01*
X50103Y-35251D02*
X74677D01*
X50011Y-35351D02*
X74649D01*
X49913Y-35451D02*
X74624D01*
X49808Y-35551D02*
X74601D01*
X49697Y-35651D02*
X74581D01*
X49577Y-35751D02*
X74563D01*
X49449Y-35851D02*
X74547D01*
X49310Y-35951D02*
X74534D01*
X49159Y-36051D02*
X74523D01*
X48994Y-36151D02*
X74514D01*
X48810Y-36251D02*
X74507D01*
X48603Y-36351D02*
X74503D01*
X48363Y-36451D02*
X74500D01*
X24781Y-36751D02*
X74507D01*
X24830Y-36851D02*
X74514D01*
X48074Y-36551D02*
X74500D01*
X47689Y-36651D02*
X74503D01*
X25138Y-37751D02*
X74677D01*
X70197Y-63651D02*
X74706D01*
X25114Y-37651D02*
X74650D01*
X70077Y-63751D02*
X74626D01*
X69949Y-63851D02*
X74546D01*
X69810Y-63951D02*
X74466D01*
X69659Y-64051D02*
X74385D01*
X69493Y-64151D02*
X74304D01*
X24956Y-37151D02*
X74547D01*
X24993Y-37251D02*
X74563D01*
X24875Y-36951D02*
X74523D01*
X24917Y-37051D02*
X74534D01*
X25058Y-37451D02*
X74602D01*
X25087Y-37551D02*
X74624D01*
X25027Y-37351D02*
X74581D01*
X24874Y-40551D02*
X74325D01*
X24676Y-36551D02*
X45426D01*
X24730Y-36651D02*
X45811D01*
X24557Y-36351D02*
X44897D01*
X24618Y-36451D02*
X45137D01*
X24829Y-40651D02*
X73845D01*
X24781Y-40751D02*
X73519D01*
X24729Y-40851D02*
X73258D01*
X24675Y-40951D02*
X73037D01*
X24105Y-35751D02*
X43923D01*
X24192Y-35851D02*
X44051D01*
X23915Y-35551D02*
X43692D01*
X24013Y-35651D02*
X43803D01*
X24423Y-36151D02*
X44507D01*
X24492Y-36251D02*
X44690D01*
X24274Y-35951D02*
X44190D01*
X24351Y-36051D02*
X44341D01*
X24617Y-41051D02*
X72843D01*
X69951Y-56651D02*
X70810D01*
X67337Y-55751D02*
X68923D01*
X68197Y-55851D02*
X69051D01*
X69310Y-64251D02*
X74222D01*
X69103Y-64351D02*
X74140D01*
X68863Y-64451D02*
X74058D01*
X24556Y-41151D02*
X72669D01*
X24491Y-41251D02*
X72511D01*
X24422Y-41351D02*
X72367D01*
X24349Y-41451D02*
X72234D01*
X24272Y-41551D02*
X72110D01*
X24190Y-41651D02*
X71995D01*
X24103Y-41751D02*
X71887D01*
X24011Y-41851D02*
X71785D01*
X68574Y-64551D02*
X73976D01*
X68190Y-64651D02*
X73893D01*
X67678Y-65451D02*
X73220D01*
X67695Y-65551D02*
X73135D01*
X67710Y-65651D02*
X73049D01*
X67722Y-65751D02*
X72962D01*
X67732Y-65851D02*
X72876D01*
X67740Y-65951D02*
X72789D01*
X67746Y-66051D02*
X72702D01*
X67493Y-64751D02*
X73810D01*
X67527Y-64851D02*
X73727D01*
X67558Y-64951D02*
X73643D01*
X67587Y-65051D02*
X73559D01*
X67614Y-65151D02*
X73475D01*
X67638Y-65251D02*
X73390D01*
X67659Y-65351D02*
X73306D01*
X67749Y-66151D02*
X72614D01*
X67750Y-66251D02*
X72526D01*
X67749Y-66351D02*
X72438D01*
X67745Y-66451D02*
X72350D01*
X67740Y-66551D02*
X72261D01*
X67732Y-66651D02*
X72172D01*
X67722Y-66751D02*
X72082D01*
X67710Y-66851D02*
X71992D01*
X67695Y-66951D02*
X71902D01*
X67678Y-67051D02*
X71811D01*
X67659Y-67151D02*
X71720D01*
X67637Y-67251D02*
X71629D01*
X67613Y-67351D02*
X71537D01*
X67587Y-67451D02*
X71445D01*
X67558Y-67551D02*
X71353D01*
X67526Y-67651D02*
X71260D01*
X67492Y-67751D02*
X71167D01*
X67456Y-67851D02*
X71073D01*
X67416Y-67951D02*
X70979D01*
X67374Y-68051D02*
X70885D01*
X67329Y-68151D02*
X70790D01*
X67281Y-68251D02*
X70695D01*
X67229Y-68351D02*
X70600D01*
X67175Y-68451D02*
X70504D01*
X67117Y-68551D02*
X70408D01*
X67056Y-68651D02*
X70312D01*
X66991Y-68751D02*
X70215D01*
X66922Y-68851D02*
X70117D01*
X66849Y-68951D02*
X70020D01*
X66772Y-69051D02*
X69922D01*
X66690Y-69151D02*
X69823D01*
X66603Y-69251D02*
X69724D01*
X66511Y-69351D02*
X69625D01*
X66413Y-69451D02*
X69525D01*
X66308Y-69551D02*
X69425D01*
X66197Y-69651D02*
X69325D01*
X66077Y-69751D02*
X69224D01*
X65949Y-69851D02*
X69123D01*
X65810Y-69951D02*
X69021D01*
X65659Y-70051D02*
X68919D01*
X65494Y-70151D02*
X68816D01*
X65310Y-70251D02*
X68713D01*
X65103Y-70351D02*
X68610D01*
X64863Y-70451D02*
X68506D01*
X64574Y-70551D02*
X68402D01*
X64190Y-70651D02*
X68298D01*
X23451Y-35151D02*
X43310D01*
X23312Y-35051D02*
X43228D01*
X23579Y-35251D02*
X43397D01*
X22996Y-34851D02*
X43078D01*
X23162Y-34951D02*
X43151D01*
X23699Y-35351D02*
X43489D01*
X23810Y-35451D02*
X43587D01*
X-9344Y-35651D02*
X17487D01*
X-9018Y-35751D02*
X17395D01*
X-28108Y-34851D02*
X18504D01*
X-28154Y-34951D02*
X18338D01*
X-28203Y-35051D02*
X18188D01*
X-28256Y-35151D02*
X18049D01*
X-28311Y-35251D02*
X17921D01*
X-28370Y-35351D02*
X17801D01*
X-28433Y-35451D02*
X17690D01*
X-9825Y-35551D02*
X17585D01*
X-7494Y-36651D02*
X16770D01*
X-7387Y-36751D02*
X16718D01*
X-7286Y-36851D02*
X16670D01*
X-7190Y-36951D02*
X16625D01*
X-7101Y-37051D02*
X16583D01*
X-7017Y-37151D02*
X16544D01*
X-6937Y-37251D02*
X16507D01*
X-6862Y-37351D02*
X16473D01*
X-8758Y-35851D02*
X17308D01*
X-8537Y-35951D02*
X17227D01*
X-8343Y-36051D02*
X17149D01*
X-8169Y-36151D02*
X17076D01*
X-8011Y-36251D02*
X17008D01*
X-7867Y-36351D02*
X16943D01*
X-7734Y-36451D02*
X16882D01*
X-7610Y-36551D02*
X16824D01*
X-6602Y-37751D02*
X16362D01*
X-6546Y-37851D02*
X16341D01*
X-6494Y-37951D02*
X16322D01*
X-6444Y-38051D02*
X16305D01*
X-6398Y-38151D02*
X16290D01*
X-6354Y-38251D02*
X16278D01*
X-6313Y-38351D02*
X16268D01*
X-6275Y-38451D02*
X16260D01*
X-28499Y-35551D02*
X-11175D01*
X-28570Y-35651D02*
X-11655D01*
X-28644Y-35751D02*
X-11982D01*
X-28723Y-35851D02*
X-12242D01*
X-6792Y-37451D02*
X16442D01*
X-6725Y-37551D02*
X16413D01*
X-28807Y-35951D02*
X-12463D01*
X-6662Y-37651D02*
X16386D01*
X-6022Y-39551D02*
X16322D01*
X-6014Y-39651D02*
X16341D01*
X-6047Y-39351D02*
X16290D01*
X-6034Y-39451D02*
X16305D01*
X-6000Y-39951D02*
X16413D01*
X-6000Y-40051D02*
X16442D01*
X-6007Y-39751D02*
X16363D01*
X-6003Y-39851D02*
X16387D01*
X-6240Y-38551D02*
X16254D01*
X-6149Y-38851D02*
X16251D01*
X-6207Y-38651D02*
X16251D01*
X-6177Y-38751D02*
X16250D01*
X-6081Y-39151D02*
X16268D01*
X-6063Y-39251D02*
X16278D01*
X-6124Y-38951D02*
X16255D01*
X-6101Y-39051D02*
X16260D01*
X23913Y-41951D02*
X71691D01*
X23809Y-42051D02*
X71601D01*
X23697Y-42151D02*
X71517D01*
X23577Y-42251D02*
X71437D01*
X23449Y-42351D02*
X71362D01*
X23310Y-42451D02*
X71292D01*
X23159Y-42551D02*
X71225D01*
X22994Y-42651D02*
X71162D01*
X22810Y-42751D02*
X71102D01*
X22603Y-42851D02*
X71046D01*
X22363Y-42951D02*
X70994D01*
X22074Y-43051D02*
X70944D01*
X21689Y-43151D02*
X70897D01*
X-7388Y-43251D02*
X70854D01*
X-7496Y-43351D02*
X70813D01*
X-7612Y-43451D02*
X70775D01*
X-7736Y-43551D02*
X70740D01*
X-7869Y-43651D02*
X70707D01*
X-8014Y-43751D02*
X70677D01*
X-8172Y-43851D02*
X70649D01*
X-8346Y-43951D02*
X70624D01*
X-8540Y-44051D02*
X70601D01*
X-8762Y-44151D02*
X70581D01*
X-9024Y-44251D02*
X70563D01*
X-9351Y-44351D02*
X70547D01*
X-9837Y-44451D02*
X70534D01*
X-28680Y-89451D02*
X28663D01*
X-27838Y-89551D02*
X27820D01*
X-26891Y-89651D02*
X26874D01*
X-25791Y-89751D02*
X25773D01*
X-24421Y-89851D02*
X24404D01*
X-22351Y-89951D02*
X22334D01*
X-20009Y-89990D02*
X19991D01*
X-6014Y-40351D02*
X16544D01*
X-6023Y-40451D02*
X16584D01*
X-6003Y-40151D02*
X16474D01*
X-6007Y-40251D02*
X16508D01*
X-6063Y-40751D02*
X16719D01*
X-6081Y-40851D02*
X16770D01*
X-6034Y-40551D02*
X16626D01*
X-6047Y-40651D02*
X16671D01*
X-6150Y-41151D02*
X16944D01*
X-6177Y-41251D02*
X17009D01*
X-6102Y-40951D02*
X16825D01*
X-6124Y-41051D02*
X16883D01*
X-6240Y-41451D02*
X17151D01*
X-6276Y-41551D02*
X17228D01*
X-6208Y-41351D02*
X17078D01*
X-6398Y-41851D02*
X17489D01*
X-6445Y-41951D02*
X17587D01*
X-6314Y-41651D02*
X17310D01*
X-6355Y-41751D02*
X17397D01*
X-6603Y-42251D02*
X17923D01*
X-6663Y-42351D02*
X18051D01*
X-6495Y-42051D02*
X17692D01*
X-6547Y-42151D02*
X17803D01*
X-6864Y-42651D02*
X18506D01*
X-6939Y-42751D02*
X18690D01*
X-6726Y-42451D02*
X18190D01*
X-6793Y-42551D02*
X18341D01*
X-7192Y-43051D02*
X19426D01*
X-7287Y-43151D02*
X19811D01*
X-7018Y-42851D02*
X18897D01*
X-7103Y-42951D02*
X19137D01*
X-45125Y85349D02*
X45108D01*
X-45384Y85249D02*
X45366D01*
X-45639Y85149D02*
X45622D01*
X-44598Y85549D02*
X44581D01*
X-44863Y85449D02*
X44846D01*
X-46389Y84849D02*
X46372D01*
X-46634Y84749D02*
X46616D01*
X-45892Y85049D02*
X45875D01*
X-46142Y84949D02*
X46125D01*
X-47351Y84449D02*
X47334D01*
X-47586Y84349D02*
X47569D01*
X-46875Y84649D02*
X46858D01*
X-47115Y84549D02*
X47097D01*
X-48276Y84049D02*
X48258D01*
X-48501Y83949D02*
X48484D01*
X-47818Y84249D02*
X47801D01*
X-48048Y84149D02*
X48031D01*
X-49165Y83649D02*
X49148D01*
X-49382Y83549D02*
X49365D01*
X-48724Y83849D02*
X48707D01*
X-48946Y83749D02*
X48928D01*
X-50023Y83249D02*
X50005D01*
X-50233Y83149D02*
X50215D01*
X-49598Y83449D02*
X49580D01*
X-49811Y83349D02*
X49794D01*
X-50851Y82849D02*
X50834D01*
X-51054Y82749D02*
X51037D01*
X-50441Y83049D02*
X50423D01*
X-50647Y82949D02*
X50630D01*
X-51653Y82449D02*
X51636D01*
X-51850Y82349D02*
X51833D01*
X-51256Y82649D02*
X51238D01*
X-51455Y82549D02*
X51438D01*
X-33746Y88649D02*
X33728D01*
X-34236Y88549D02*
X34219D01*
X-34710Y88449D02*
X34693D01*
X-32706Y88849D02*
X32688D01*
X-33236Y88749D02*
X33219D01*
X-36043Y88149D02*
X36026D01*
X-36462Y88049D02*
X36445D01*
X-35168Y88349D02*
X35151D01*
X-35612Y88249D02*
X35595D01*
X-37657Y87749D02*
X37639D01*
X-38036Y87649D02*
X38019D01*
X-36870Y87949D02*
X36853D01*
X-37268Y87849D02*
X37251D01*
X-39126Y87349D02*
X39109D01*
X-39475Y87249D02*
X39458D01*
X-38407Y87549D02*
X38390D01*
X-38770Y87449D02*
X38753D01*
X-40483Y86949D02*
X40465D01*
X-40807Y86849D02*
X40790D01*
X-39817Y87149D02*
X39800D01*
X-40153Y87049D02*
X40136D01*
X-41748Y86549D02*
X41730D01*
X-42051Y86449D02*
X42034D01*
X-41126Y86749D02*
X41108D01*
X-41439Y86649D02*
X41422D01*
X-42936Y86149D02*
X42919D01*
X-43222Y86049D02*
X43205D01*
X-42351Y86349D02*
X42333D01*
X-42645Y86249D02*
X42628D01*
X-44059Y85749D02*
X44041D01*
X-44330Y85649D02*
X44313D01*
X-43505Y85949D02*
X43488D01*
X-43783Y85849D02*
X43766D01*
X-57929Y78849D02*
X57912D01*
X-58084Y78749D02*
X58067D01*
X-58238Y78649D02*
X58221D01*
X-57617Y79049D02*
X57600D01*
X-57774Y78949D02*
X57757D01*
X-58694Y78349D02*
X58677D01*
X-58845Y78249D02*
X58827D01*
X-58391Y78549D02*
X58374D01*
X-58543Y78449D02*
X58526D01*
X-59291Y77949D02*
X59274D01*
X-59438Y77849D02*
X59421D01*
X-58994Y78149D02*
X58977D01*
X-59143Y78049D02*
X59126D01*
X-59874Y77549D02*
X59857D01*
X-60018Y77449D02*
X60001D01*
X-59584Y77749D02*
X59567D01*
X-59730Y77649D02*
X59712D01*
X-60446Y77149D02*
X60428D01*
X-60587Y77049D02*
X60569D01*
X-60161Y77349D02*
X60144D01*
X-60304Y77249D02*
X60287D01*
X-61005Y76749D02*
X60988D01*
X-61143Y76649D02*
X61126D01*
X-60727Y76949D02*
X60710D01*
X-60866Y76849D02*
X60849D01*
X-61553Y76349D02*
X61536D01*
X-61688Y76249D02*
X61671D01*
X-61280Y76549D02*
X61263D01*
X-61417Y76449D02*
X61400D01*
X-62090Y75949D02*
X62073D01*
X-62223Y75849D02*
X62205D01*
X-61823Y76149D02*
X61806D01*
X-61957Y76049D02*
X61940D01*
X-52431Y82049D02*
X52413D01*
X-52621Y81949D02*
X52604D01*
X-52045Y82249D02*
X52028D01*
X-52238Y82149D02*
X52221D01*
X-53185Y81649D02*
X53167D01*
X-53370Y81549D02*
X53353D01*
X-52810Y81849D02*
X52793D01*
X-52998Y81749D02*
X52981D01*
X-53917Y81249D02*
X53900D01*
X-54097Y81149D02*
X54080D01*
X-53554Y81449D02*
X53536D01*
X-53736Y81349D02*
X53719D01*
X-54630Y80849D02*
X54613D01*
X-54805Y80749D02*
X54788D01*
X-54276Y81049D02*
X54259D01*
X-54454Y80949D02*
X54436D01*
X-55324Y80449D02*
X55306D01*
X-55494Y80349D02*
X55477D01*
X-54979Y80649D02*
X54962D01*
X-55152Y80549D02*
X55135D01*
X-55999Y80049D02*
X55982D01*
X-56166Y79949D02*
X56148D01*
X-55664Y80249D02*
X55646D01*
X-55832Y80149D02*
X55815D01*
X-56658Y79649D02*
X56641D01*
X-56821Y79549D02*
X56803D01*
X-56331Y79849D02*
X56314D01*
X-56495Y79749D02*
X56478D01*
X-57302Y79249D02*
X57284D01*
X-57460Y79149D02*
X57443D01*
X-56982Y79449D02*
X56965D01*
X-57142Y79349D02*
X57125D01*
X-66491Y72349D02*
X66474D01*
X-66604Y72249D02*
X66586D01*
X-66716Y72149D02*
X66698D01*
X-66265Y72549D02*
X66248D01*
X-66378Y72449D02*
X66361D01*
X-67048Y71849D02*
X67031D01*
X-67158Y71749D02*
X67141D01*
X-66827Y72049D02*
X66810D01*
X-66938Y71949D02*
X66921D01*
X-67485Y71449D02*
X67468D01*
X-67593Y71349D02*
X67576D01*
X-67268Y71649D02*
X67250D01*
X-67377Y71549D02*
X67360D01*
X-67915Y71049D02*
X67898D01*
X-68021Y70949D02*
X68004D01*
X-67701Y71249D02*
X67684D01*
X-67808Y71149D02*
X67791D01*
X-68338Y70649D02*
X68320D01*
X-68442Y70549D02*
X68425D01*
X-68127Y70849D02*
X68110D01*
X-68233Y70749D02*
X68215D01*
X-68753Y70249D02*
X68736D01*
X-68856Y70149D02*
X68839D01*
X-68546Y70449D02*
X68529D01*
X-68650Y70349D02*
X68633D01*
X-69162Y69849D02*
X69145D01*
X-69264Y69749D02*
X69246D01*
X-68959Y70049D02*
X68941D01*
X-69061Y69949D02*
X69043D01*
X-69565Y69449D02*
X69547D01*
X-69664Y69349D02*
X69647D01*
X-69364Y69649D02*
X69347D01*
X-69465Y69549D02*
X69447D01*
X-62617Y75549D02*
X62599D01*
X-62747Y75449D02*
X62729D01*
X-62355Y75749D02*
X62337D01*
X-62486Y75649D02*
X62469D01*
X-63133Y75149D02*
X63116D01*
X-63260Y75049D02*
X63243D01*
X-62876Y75349D02*
X62859D01*
X-63005Y75249D02*
X62987D01*
X-63639Y74749D02*
X63622D01*
X-63765Y74649D02*
X63747D01*
X-63387Y74949D02*
X63370D01*
X-63514Y74849D02*
X63496D01*
X-64137Y74349D02*
X64120D01*
X-64260Y74249D02*
X64242D01*
X-63889Y74549D02*
X63872D01*
X-64013Y74449D02*
X63996D01*
X-64625Y73949D02*
X64608D01*
X-64745Y73849D02*
X64728D01*
X-64382Y74149D02*
X64365D01*
X-64504Y74049D02*
X64486D01*
X-65104Y73549D02*
X65087D01*
X-65222Y73449D02*
X65205D01*
X-64865Y73749D02*
X64848D01*
X-64985Y73649D02*
X64968D01*
X-65575Y73149D02*
X65557D01*
X-65691Y73049D02*
X65674D01*
X-65340Y73349D02*
X65323D01*
X-65458Y73249D02*
X65441D01*
X-66037Y72749D02*
X66020D01*
X-66151Y72649D02*
X66134D01*
X-65807Y72949D02*
X65790D01*
X-65922Y72849D02*
X65905D01*
X-72912Y65849D02*
X72895D01*
X-72999Y65749D02*
X72982D01*
X-73085Y65649D02*
X73068D01*
X-72738Y66049D02*
X72721D01*
X-72825Y65949D02*
X72808D01*
X-73341Y65349D02*
X73324D01*
X-73426Y65249D02*
X73409D01*
X-73171Y65549D02*
X73154D01*
X-73256Y65449D02*
X73239D01*
X-73679Y64949D02*
X73662D01*
X-73762Y64849D02*
X73745D01*
X-73511Y65149D02*
X73493D01*
X-73595Y65049D02*
X73578D01*
X-74011Y64549D02*
X73994D01*
X-74094Y64449D02*
X74076D01*
X-73846Y64749D02*
X73829D01*
X-73929Y64649D02*
X73911D01*
X-74339Y64149D02*
X74321D01*
X-74420Y64049D02*
X74402D01*
X-74176Y64349D02*
X74158D01*
X-74257Y64249D02*
X74240D01*
X-74661Y63749D02*
X74644D01*
X-74741Y63649D02*
X74724D01*
X-74501Y63949D02*
X74483D01*
X-74581Y63849D02*
X74564D01*
X-74979Y63349D02*
X74962D01*
X-75058Y63249D02*
X75040D01*
X-74821Y63549D02*
X74804D01*
X-74900Y63449D02*
X74883D01*
X-75292Y62949D02*
X75275D01*
X-75370Y62849D02*
X75352D01*
X-75136Y63149D02*
X75119D01*
X-75214Y63049D02*
X75197D01*
X-69960Y69049D02*
X69943D01*
X-70058Y68949D02*
X70041D01*
X-69763Y69249D02*
X69746D01*
X-69862Y69149D02*
X69845D01*
X-70350Y68649D02*
X70333D01*
X-70447Y68549D02*
X70429D01*
X-70156Y68849D02*
X70139D01*
X-70253Y68749D02*
X70236D01*
X-70733Y68249D02*
X70716D01*
X-70828Y68149D02*
X70811D01*
X-70542Y68449D02*
X70525D01*
X-70638Y68349D02*
X70621D01*
X-71111Y67849D02*
X71094D01*
X-71204Y67749D02*
X71187D01*
X-70923Y68049D02*
X70906D01*
X-71017Y67949D02*
X71000D01*
X-71482Y67449D02*
X71465D01*
X-71574Y67349D02*
X71557D01*
X-71297Y67649D02*
X71280D01*
X-71390Y67549D02*
X71373D01*
X-71848Y67049D02*
X71831D01*
X-71939Y66949D02*
X71922D01*
X-71666Y67249D02*
X71649D01*
X-71757Y67149D02*
X71740D01*
X-72208Y66649D02*
X72191D01*
X-72298Y66549D02*
X72280D01*
X-72029Y66849D02*
X72012D01*
X-72119Y66749D02*
X72102D01*
X-72563Y66249D02*
X72546D01*
X-72651Y66149D02*
X72634D01*
X-72386Y66449D02*
X72369D01*
X-72475Y66349D02*
X72458D01*
X-77909Y59349D02*
X77892D01*
X-77977Y59249D02*
X77959D01*
X-78044Y59149D02*
X78027D01*
X-77773Y59549D02*
X77755D01*
X-77841Y59449D02*
X77824D01*
X-78246Y58849D02*
X78228D01*
X-78312Y58749D02*
X78295D01*
X-78112Y59049D02*
X78094D01*
X-78179Y58949D02*
X78162D01*
X-78510Y58449D02*
X78493D01*
X-78576Y58349D02*
X78559D01*
X-78379Y58649D02*
X78361D01*
X-78444Y58549D02*
X78427D01*
X-78771Y58049D02*
X78754D01*
X-78836Y57949D02*
X78819D01*
X-78641Y58249D02*
X78624D01*
X-78706Y58149D02*
X78689D01*
X-79028Y57649D02*
X79011D01*
X-31602Y26249D02*
X89713D01*
X-78900Y57849D02*
X78883D01*
X-78964Y57749D02*
X78947D01*
X-31444Y25949D02*
X89739D01*
X-31397Y25849D02*
X89747D01*
X-31546Y26149D02*
X89722D01*
X-31494Y26049D02*
X89730D01*
X-79219Y57349D02*
X79201D01*
X-79281Y57249D02*
X79264D01*
X-79092Y57549D02*
X79075D01*
X-79155Y57449D02*
X79138D01*
X-79469Y56949D02*
X79452D01*
X-79531Y56849D02*
X79514D01*
X-79344Y57149D02*
X79327D01*
X-79407Y57049D02*
X79389D01*
X-75600Y62549D02*
X75583D01*
X-75677Y62449D02*
X75659D01*
X-75447Y62749D02*
X75430D01*
X-75524Y62649D02*
X75507D01*
X-75904Y62149D02*
X75887D01*
X-75979Y62049D02*
X75962D01*
X-75753Y62349D02*
X75736D01*
X-75829Y62249D02*
X75811D01*
X-76203Y61749D02*
X76186D01*
X-76278Y61649D02*
X76260D01*
X-76054Y61949D02*
X76037D01*
X-76129Y61849D02*
X76112D01*
X-76498Y61349D02*
X76481D01*
X-76571Y61249D02*
X76554D01*
X-76351Y61549D02*
X76334D01*
X-76425Y61449D02*
X76408D01*
X-76789Y60949D02*
X76772D01*
X-76861Y60849D02*
X76844D01*
X-76644Y61149D02*
X76627D01*
X-76717Y61049D02*
X76700D01*
X-77075Y60549D02*
X77058D01*
X-77146Y60449D02*
X77129D01*
X-76933Y60749D02*
X76915D01*
X-77004Y60649D02*
X76987D01*
X-77357Y60149D02*
X77340D01*
X-77427Y60049D02*
X77410D01*
X-77217Y60349D02*
X77200D01*
X-77287Y60249D02*
X77270D01*
X-77635Y59749D02*
X77618D01*
X-77704Y59649D02*
X77687D01*
X-77497Y59949D02*
X77480D01*
X-77566Y59849D02*
X77549D01*
X-31023Y24449D02*
X89851D01*
X-31034Y24549D02*
X89844D01*
X-31014Y24349D02*
X89857D01*
X-31063Y24749D02*
X89831D01*
X-31047Y24649D02*
X89838D01*
X-31000Y24049D02*
X89875D01*
X-31000Y23949D02*
X89880D01*
X-31007Y24249D02*
X89863D01*
X-31003Y24149D02*
X89869D01*
X-31207Y25349D02*
X89788D01*
X-31177Y25249D02*
X89795D01*
X-31275Y25549D02*
X89772D01*
X-31240Y25449D02*
X89780D01*
X-31101Y24949D02*
X89817D01*
X-31081Y24849D02*
X89824D01*
X-31149Y25149D02*
X89803D01*
X-31124Y25049D02*
X89810D01*
X-31014Y23649D02*
X89897D01*
X-31023Y23549D02*
X89902D01*
X-31003Y23849D02*
X89886D01*
X-31007Y23749D02*
X89891D01*
X-31063Y23249D02*
X89916D01*
X-31081Y23149D02*
X89921D01*
X-31034Y23449D02*
X89907D01*
X-31047Y23349D02*
X89912D01*
X-31150Y22849D02*
X89934D01*
X-31177Y22749D02*
X89938D01*
X-31102Y23049D02*
X89925D01*
X-31124Y22949D02*
X89930D01*
X-31276Y22449D02*
X89949D01*
X-31314Y22349D02*
X89952D01*
X-31208Y22649D02*
X89942D01*
X-31240Y22549D02*
X89945D01*
X-31354Y25749D02*
X89756D01*
X-31313Y25649D02*
X89764D01*
X-31355Y22249D02*
X36406D01*
X-31398Y22149D02*
X35552D01*
X-31445Y22049D02*
X35170D01*
X-31495Y21949D02*
X34882D01*
X-31547Y21849D02*
X34643D01*
X-31604Y21749D02*
X34437D01*
X-31663Y21649D02*
X34253D01*
X-31726Y21549D02*
X34088D01*
X-31793Y21449D02*
X33937D01*
X-31864Y21349D02*
X33799D01*
X-31939Y21249D02*
X33670D01*
X-32018Y21149D02*
X33551D01*
X-32103Y21049D02*
X33440D01*
X-32192Y20949D02*
X33335D01*
X-32287Y20849D02*
X33237D01*
X-32389Y20749D02*
X33145D01*
X-32497Y20649D02*
X33058D01*
X-32612Y20549D02*
X32976D01*
X-32736Y20449D02*
X32899D01*
X-32869Y20349D02*
X32826D01*
X-33014Y20249D02*
X32758D01*
X-33172Y20149D02*
X32693D01*
X-33346Y20049D02*
X32632D01*
X-33541Y19949D02*
X32574D01*
X-33762Y19849D02*
X32520D01*
X-34024Y19749D02*
X32468D01*
X-34352Y19649D02*
X32420D01*
X-34838Y19549D02*
X32375D01*
X-37192Y19449D02*
X32333D01*
X-37287Y19349D02*
X32294D01*
X-79715Y56549D02*
X79698D01*
X-79777Y56449D02*
X79759D01*
X-79837Y56349D02*
X79820D01*
X-79593Y56749D02*
X79575D01*
X-79654Y56649D02*
X79637D01*
X-80019Y56049D02*
X80001D01*
X-80079Y55949D02*
X80061D01*
X-79898Y56249D02*
X79881D01*
X-79958Y56149D02*
X79941D01*
X-80257Y55649D02*
X80240D01*
X-80316Y55549D02*
X80299D01*
X-80138Y55849D02*
X80121D01*
X-80198Y55749D02*
X80181D01*
X-80492Y55249D02*
X80475D01*
X-80550Y55149D02*
X80533D01*
X-80375Y55449D02*
X80358D01*
X-80434Y55349D02*
X80416D01*
X-80723Y54849D02*
X80706D01*
X-80780Y54749D02*
X80763D01*
X-80608Y55049D02*
X80591D01*
X-80666Y54949D02*
X80648D01*
X-80951Y54449D02*
X80934D01*
X-81007Y54349D02*
X80990D01*
X-80837Y54649D02*
X80820D01*
X-80894Y54549D02*
X80877D01*
X-81175Y54049D02*
X81158D01*
X-81231Y53949D02*
X81214D01*
X-81063Y54249D02*
X81046D01*
X-81119Y54149D02*
X81102D01*
X-81286Y53849D02*
X81269D01*
X-90009Y3149D02*
X34172D01*
X-90009Y3349D02*
X33869D01*
X-90009Y3249D02*
X34014D01*
X-90009Y15249D02*
X32759D01*
X-90009Y15149D02*
X32828D01*
X-90009Y15449D02*
X32633D01*
X-90009Y15349D02*
X32694D01*
X-90009Y15049D02*
X32901D01*
X-90009Y5049D02*
X32445D01*
X-90009Y5249D02*
X32355D01*
X-90009Y5149D02*
X32398D01*
X-90009Y16049D02*
X32334D01*
X-90009Y15949D02*
X32376D01*
X-90009Y16249D02*
X32258D01*
X-90009Y16149D02*
X32294D01*
X-90009Y15649D02*
X32521D01*
X-90009Y15549D02*
X32575D01*
X-90009Y15849D02*
X32421D01*
X-90009Y15749D02*
X32469D01*
X-90009Y3949D02*
X33192D01*
X-90009Y3849D02*
X33287D01*
X-90009Y4149D02*
X33018D01*
X-90009Y4049D02*
X33103D01*
X-90009Y3549D02*
X33612D01*
X-90009Y3449D02*
X33736D01*
X-90009Y3749D02*
X33389D01*
X-90009Y3649D02*
X33496D01*
X-90009Y4749D02*
X32603D01*
X-90009Y4649D02*
X32663D01*
X-90009Y4949D02*
X32495D01*
X-90009Y4849D02*
X32547D01*
X-90009Y4349D02*
X32864D01*
X-90009Y4249D02*
X32939D01*
X-90009Y4549D02*
X32726D01*
X-90009Y4449D02*
X32793D01*
X-90009Y1549D02*
X50588D01*
X-90009Y1649D02*
X50753D01*
X-90009Y1449D02*
X50437D01*
X-90009Y1349D02*
X50299D01*
X-90009Y1249D02*
X50170D01*
X-90009Y1149D02*
X50051D01*
X-90009Y1049D02*
X49940D01*
X-90009Y949D02*
X49835D01*
X-90009Y849D02*
X49737D01*
X-90009Y2449D02*
X89991D01*
X-90009Y2349D02*
X89991D01*
X-90009Y2249D02*
X52908D01*
X-90009Y2149D02*
X52052D01*
X-90009Y2049D02*
X51670D01*
X-90009Y1949D02*
X51382D01*
X-90009Y1849D02*
X51143D01*
X-90009Y1749D02*
X50937D01*
X-90009Y749D02*
X49645D01*
X-90009Y649D02*
X49558D01*
X-90009Y549D02*
X49476D01*
X-90009Y449D02*
X49399D01*
X-90009Y349D02*
X49327D01*
X-90009Y249D02*
X49258D01*
X-90009Y149D02*
X49193D01*
X-90009Y49D02*
X49132D01*
X-90009Y-51D02*
X49074D01*
X-90009Y-151D02*
X49020D01*
X-90009Y-251D02*
X48968D01*
X-90009Y-351D02*
X48920D01*
X-90009Y-451D02*
X48875D01*
X-90009Y-551D02*
X48833D01*
X-90009Y-651D02*
X48794D01*
X-90009Y-751D02*
X48757D01*
X-90009Y2849D02*
X34762D01*
X-90009Y2749D02*
X35024D01*
X-90009Y3049D02*
X34346D01*
X-90009Y2949D02*
X34541D01*
X-90009Y-1651D02*
X48540D01*
X-90009Y-1751D02*
X48528D01*
X-90009Y2649D02*
X35352D01*
X-90009Y2549D02*
X35838D01*
X-90009Y-851D02*
X48723D01*
X-90009Y-951D02*
X48692D01*
X-90009Y-1051D02*
X48663D01*
X-90009Y-1151D02*
X48636D01*
X-90009Y-1251D02*
X48612D01*
X-90009Y-1351D02*
X48591D01*
X-90009Y-1451D02*
X48572D01*
X-90009Y-1551D02*
X48555D01*
X-90009Y-2851D02*
X48540D01*
X-90009Y-2951D02*
X48555D01*
X-90009Y-2651D02*
X48518D01*
X-90009Y-2751D02*
X48528D01*
X-90009Y-3251D02*
X48613D01*
X-90009Y-3351D02*
X48637D01*
X-90009Y-3051D02*
X48572D01*
X-90009Y-3151D02*
X48591D01*
X-90009Y-1851D02*
X48518D01*
X-90009Y-1951D02*
X48510D01*
X-90009Y-2051D02*
X48504D01*
X-90009Y-2151D02*
X48501D01*
X-90009Y-2451D02*
X48505D01*
X-90009Y-2551D02*
X48510D01*
X-90009Y-2251D02*
X48500D01*
X-90009Y-2351D02*
X48501D01*
X-30955Y89149D02*
X30938D01*
X-31569Y89049D02*
X31552D01*
X-32151Y88949D02*
X32134D01*
X-29607Y89349D02*
X29590D01*
X-30303Y89249D02*
X30286D01*
X-81341Y53749D02*
X4653D01*
X-81396Y53649D02*
X3802D01*
X-81451Y53549D02*
X3420D01*
X-81505Y53449D02*
X3132D01*
X-81560Y53349D02*
X2893D01*
X-81614Y53249D02*
X2686D01*
X-81667Y53149D02*
X2503D01*
X-81721Y53049D02*
X2338D01*
X-81775Y52949D02*
X2187D01*
X-81828Y52849D02*
X2049D01*
X-81881Y52749D02*
X1920D01*
X-81934Y52649D02*
X1801D01*
X-81986Y52549D02*
X1690D01*
X-82039Y52449D02*
X1585D01*
X-82091Y52349D02*
X1487D01*
X-82143Y52249D02*
X1395D01*
X-82195Y52149D02*
X1308D01*
X-82246Y52049D02*
X1226D01*
X-82297Y51949D02*
X1149D01*
X-82349Y51849D02*
X1076D01*
X-82400Y51749D02*
X1008D01*
X-82450Y51649D02*
X943D01*
X-82501Y51549D02*
X882D01*
X-82551Y51449D02*
X824D01*
X-82601Y51349D02*
X769D01*
X-82652Y51249D02*
X718D01*
X-82701Y51149D02*
X670D01*
X-82751Y51049D02*
X625D01*
X-82800Y50949D02*
X583D01*
X-82849Y50849D02*
X544D01*
X-82898Y50749D02*
X507D01*
X-82947Y50649D02*
X473D01*
X-82996Y50549D02*
X442D01*
X-83044Y50449D02*
X413D01*
X-83092Y50349D02*
X386D01*
X-83140Y50249D02*
X362D01*
X-83188Y50149D02*
X341D01*
X-83236Y50049D02*
X322D01*
X-83283Y49949D02*
X305D01*
X-83330Y49849D02*
X290D01*
X-83377Y49749D02*
X278D01*
X-83424Y49649D02*
X268D01*
X-83471Y49549D02*
X260D01*
X-83517Y49449D02*
X254D01*
X-83656Y49149D02*
X251D01*
X-83701Y49049D02*
X255D01*
X-83564Y49349D02*
X251D01*
X-83610Y49249D02*
X250D01*
X-83837Y48749D02*
X278D01*
X-83882Y48649D02*
X290D01*
X-83747Y48949D02*
X260D01*
X-83792Y48849D02*
X268D01*
X-84016Y48349D02*
X341D01*
X-84060Y48249D02*
X363D01*
X-83927Y48549D02*
X305D01*
X-83971Y48449D02*
X322D01*
X-84191Y47949D02*
X442D01*
X-84235Y47849D02*
X474D01*
X-84104Y48149D02*
X387D01*
X-84148Y48049D02*
X413D01*
X-84364Y47549D02*
X584D01*
X-84407Y47449D02*
X626D01*
X-84449Y47349D02*
X671D01*
X-84278Y47749D02*
X508D01*
X-84321Y47649D02*
X544D01*
X-84576Y47049D02*
X825D01*
X-84617Y46949D02*
X883D01*
X-84492Y47249D02*
X719D01*
X-84534Y47149D02*
X771D01*
X-84742Y46649D02*
X1078D01*
X-84783Y46549D02*
X1151D01*
X-84659Y46849D02*
X944D01*
X-84700Y46749D02*
X1009D01*
X-84905Y46249D02*
X1397D01*
X-84945Y46149D02*
X1489D01*
X-84824Y46449D02*
X1228D01*
X-84864Y46349D02*
X1310D01*
X-85025Y45949D02*
X1692D01*
X-85065Y45849D02*
X1803D01*
X-84985Y46049D02*
X1587D01*
X-85105Y45749D02*
X-8597D01*
X-85144Y45649D02*
X-9448D01*
X-85183Y45549D02*
X-9830D01*
X-85223Y45449D02*
X-10118D01*
X-85261Y45349D02*
X-10357D01*
X-85300Y45249D02*
X-10564D01*
X-85339Y45149D02*
X-10747D01*
X-85377Y45049D02*
X-10912D01*
X-85415Y44949D02*
X-11063D01*
X-85454Y44849D02*
X-11201D01*
X-85491Y44749D02*
X-11330D01*
X-85529Y44649D02*
X-11449D01*
X-85567Y44549D02*
X-11560D01*
X-85604Y44449D02*
X-11665D01*
X-85641Y44349D02*
X-11763D01*
X-85678Y44249D02*
X-11855D01*
X-85715Y44149D02*
X-11942D01*
X-85751Y44049D02*
X-12024D01*
X-85788Y43949D02*
X-12101D01*
X-85824Y43849D02*
X-12174D01*
X-85861Y43749D02*
X-12242D01*
X-85896Y43649D02*
X-12307D01*
X-85932Y43549D02*
X-12368D01*
X-85968Y43449D02*
X-12426D01*
X-86003Y43349D02*
X-12480D01*
X-86039Y43249D02*
X-12532D01*
X-86074Y43149D02*
X-12580D01*
X-86109Y43049D02*
X-12625D01*
X-86143Y42949D02*
X-12667D01*
X-86178Y42849D02*
X-12706D01*
X-86212Y42749D02*
X-12743D01*
X-86247Y42649D02*
X-12777D01*
X-86281Y42549D02*
X-12809D01*
X-86315Y42449D02*
X-12837D01*
X-86348Y42349D02*
X-12864D01*
X-86382Y42249D02*
X-15346D01*
X-86416Y42149D02*
X-16198D01*
X-86449Y42049D02*
X-16580D01*
X-86482Y41949D02*
X-16868D01*
X-86515Y41849D02*
X-17107D01*
X-86547Y41749D02*
X-17314D01*
X-86580Y41649D02*
X-17497D01*
X-86613Y41549D02*
X-17662D01*
X-86645Y41449D02*
X-17813D01*
X-86677Y41349D02*
X-17951D01*
X-86709Y41249D02*
X-18080D01*
X-86741Y41149D02*
X-18199D01*
X-86772Y41049D02*
X-18311D01*
X-86804Y40949D02*
X-18415D01*
X-86835Y40849D02*
X-18513D01*
X-86866Y40749D02*
X-25846D01*
X-86897Y40649D02*
X-26698D01*
X-86928Y40549D02*
X-27080D01*
X-86958Y40449D02*
X-27368D01*
X-86989Y40349D02*
X-27607D01*
X-87019Y40249D02*
X-27813D01*
X-87049Y40149D02*
X-27997D01*
X-87079Y40049D02*
X-28162D01*
X-87109Y39949D02*
X-28313D01*
X-87139Y39849D02*
X-28451D01*
X-87168Y39749D02*
X-28580D01*
X-87197Y39649D02*
X-28699D01*
X-87226Y39549D02*
X-28811D01*
X-87255Y39449D02*
X-28915D01*
X-87284Y39349D02*
X-29013D01*
X-87313Y39249D02*
X-29105D01*
X-87341Y39149D02*
X-29192D01*
X-87370Y39049D02*
X-29274D01*
X-87398Y38949D02*
X-29351D01*
X-87426Y38849D02*
X-29424D01*
X-87454Y38749D02*
X-29492D01*
X-87481Y38649D02*
X-29557D01*
X-87509Y38549D02*
X-29618D01*
X-87536Y38449D02*
X-29676D01*
X-87564Y38349D02*
X-29731D01*
X-87591Y38249D02*
X-29782D01*
X-87618Y38149D02*
X-29830D01*
X-87644Y38049D02*
X-29875D01*
X-87671Y37949D02*
X-29917D01*
X-87697Y37849D02*
X-29956D01*
X-87724Y37749D02*
X-29993D01*
X-87750Y37649D02*
X-30027D01*
X-87776Y37549D02*
X-30058D01*
X-87802Y37449D02*
X-30087D01*
X-87827Y37349D02*
X-30114D01*
X-87853Y37249D02*
X-30138D01*
X-87878Y37149D02*
X-30159D01*
X-87903Y37049D02*
X-30178D01*
X-87928Y36949D02*
X-30195D01*
X-87953Y36849D02*
X-30210D01*
X-87978Y36749D02*
X-30222D01*
X-88002Y36649D02*
X-30232D01*
X-88027Y36549D02*
X-30240D01*
X-88051Y36449D02*
X-30246D01*
X-88075Y36349D02*
X-30249D01*
X-88099Y36249D02*
X-30250D01*
X-88170Y35949D02*
X-30240D01*
X-88193Y35849D02*
X-30232D01*
X-88123Y36149D02*
X-30249D01*
X-88146Y36049D02*
X-30245D01*
X-88262Y35549D02*
X-30195D01*
X-88285Y35449D02*
X-30178D01*
X-88216Y35749D02*
X-30222D01*
X-88239Y35649D02*
X-30210D01*
X-88352Y35149D02*
X-30113D01*
X-88374Y35049D02*
X-30087D01*
X-88307Y35349D02*
X-30159D01*
X-88330Y35249D02*
X-30137D01*
X-88586Y34049D02*
X-29675D01*
X-88607Y33949D02*
X-29617D01*
X-88627Y33849D02*
X-29556D01*
X-88545Y34249D02*
X-29781D01*
X-88566Y34149D02*
X-29729D01*
X-88687Y33549D02*
X-29349D01*
X-88707Y33449D02*
X-29272D01*
X-88647Y33749D02*
X-29491D01*
X-88667Y33649D02*
X-29422D01*
X-88726Y33349D02*
X-29190D01*
X-88745Y33249D02*
X-29242D01*
X-88764Y33149D02*
X-29307D01*
X-88784Y33049D02*
X-29368D01*
X-88802Y32949D02*
X-29426D01*
X-88821Y32849D02*
X-29481D01*
X-88840Y32749D02*
X-29532D01*
X-88858Y32649D02*
X-29580D01*
X-88876Y32549D02*
X-29625D01*
X-88895Y32449D02*
X-29667D01*
X-88912Y32349D02*
X-29706D01*
X-88930Y32249D02*
X-29743D01*
X-88948Y32149D02*
X-29777D01*
X-88966Y32049D02*
X-29808D01*
X-89369Y29449D02*
X-29808D01*
X-89410Y29149D02*
X-29706D01*
X-89423Y29049D02*
X-29666D01*
X-89383Y29349D02*
X-29776D01*
X-89396Y29249D02*
X-29742D01*
X-89461Y28749D02*
X-29531D01*
X-89473Y28649D02*
X-29479D01*
X-89436Y28949D02*
X-29624D01*
X-89448Y28849D02*
X-29579D01*
X-88439Y34749D02*
X-29992D01*
X-88461Y34649D02*
X-29956D01*
X-88396Y34949D02*
X-30058D01*
X-88418Y34849D02*
X-30026D01*
X-88524Y34349D02*
X-29829D01*
X-88983Y31949D02*
X-29837D01*
X-88482Y34549D02*
X-29916D01*
X-88503Y34449D02*
X-29874D01*
X-89000Y31849D02*
X-29864D01*
X-89017Y31749D02*
X-29888D01*
X-89034Y31649D02*
X-29909D01*
X-89051Y31549D02*
X-29929D01*
X-89068Y31449D02*
X-29945D01*
X-89084Y31349D02*
X-29960D01*
X-89101Y31249D02*
X-29972D01*
X-89117Y31149D02*
X-29982D01*
X-89133Y31049D02*
X-29990D01*
X-89149Y30949D02*
X-29996D01*
X-89164Y30849D02*
X-29999D01*
X-89180Y30749D02*
X-30000D01*
X-89226Y30449D02*
X-29990D01*
X-89241Y30349D02*
X-29982D01*
X-89195Y30649D02*
X-29999D01*
X-89211Y30549D02*
X-29996D01*
X-89285Y30049D02*
X-29945D01*
X-89299Y29949D02*
X-29928D01*
X-89256Y30249D02*
X-29972D01*
X-89270Y30149D02*
X-29960D01*
X-89342Y29649D02*
X-29863D01*
X-89356Y29549D02*
X-29837D01*
X-89314Y29849D02*
X-29909D01*
X-89328Y29749D02*
X-29887D01*
X-34018Y28249D02*
X-29241D01*
X-34344Y28349D02*
X-29306D01*
X-33758Y28149D02*
X-29172D01*
X-89486Y28549D02*
X-29425D01*
X-34824Y28449D02*
X-29367D01*
X-33169Y27849D02*
X-28940D01*
X-33011Y27749D02*
X-28853D01*
X-33536Y28049D02*
X-29099D01*
X-33342Y27949D02*
X-29022D01*
X-89498Y28449D02*
X-36176D01*
X-89510Y28349D02*
X-36656D01*
X-89522Y28249D02*
X-36982D01*
X-89534Y28149D02*
X-37242D01*
X-89545Y28049D02*
X-37464D01*
X-89557Y27949D02*
X-37658D01*
X-89568Y27849D02*
X-37831D01*
X-89579Y27749D02*
X-37989D01*
X-32017Y26849D02*
X-27743D01*
X-31937Y26749D02*
X-27560D01*
X-32190Y27049D02*
X-28060D01*
X-32101Y26949D02*
X-27909D01*
X-31725Y26449D02*
X-26823D01*
X-31662Y26349D02*
X-26439D01*
X-31862Y26649D02*
X-27352D01*
X-31792Y26549D02*
X-27113D01*
X-32867Y27649D02*
X-28761D01*
X-32733Y27549D02*
X-28663D01*
X-89591Y27649D02*
X-38133D01*
X-89601Y27549D02*
X-38267D01*
X-32387Y27249D02*
X-28327D01*
X-32285Y27149D02*
X-28199D01*
X-32610Y27449D02*
X-28558D01*
X-32494Y27349D02*
X-28447D01*
X-89612Y27449D02*
X-38390D01*
X-89623Y27349D02*
X-38506D01*
X-89633Y27249D02*
X-38614D01*
X-89644Y27149D02*
X-38715D01*
X-89654Y27049D02*
X-38810D01*
X-39824Y26949D02*
X-38899D01*
X-89664D02*
X-41176D01*
X-89674Y26849D02*
X-41656D01*
X-89684Y26749D02*
X-41982D01*
X-89693Y26649D02*
X-42242D01*
X-89703Y26549D02*
X-42464D01*
X-89712Y26449D02*
X-42658D01*
X-89721Y26349D02*
X-42831D01*
X-89730Y26249D02*
X-42989D01*
X-89739Y26149D02*
X-43133D01*
X-89748Y26049D02*
X-43267D01*
X-89756Y25949D02*
X-43390D01*
X-89765Y25849D02*
X-43506D01*
X-89773Y25749D02*
X-43614D01*
X-89781Y25649D02*
X-43715D01*
X-89789Y25549D02*
X-43810D01*
X-89797Y25449D02*
X-43899D01*
X-89805Y25349D02*
X-43983D01*
X-89812Y25249D02*
X-44063D01*
X-89820Y25149D02*
X-44138D01*
X-89827Y25049D02*
X-44208D01*
X-89834Y24949D02*
X-44275D01*
X-89841Y24849D02*
X-44338D01*
X-89848Y24749D02*
X-44398D01*
X-89855Y24649D02*
X-44454D01*
X-89861Y24549D02*
X-44506D01*
X-89868Y24449D02*
X-44556D01*
X-89874Y24349D02*
X-44603D01*
X-37103Y19549D02*
X-36162D01*
X-89880Y24249D02*
X-44646D01*
X-89886Y24149D02*
X-44687D01*
X-37389Y19249D02*
X32257D01*
X-37497Y19149D02*
X32223D01*
X-90006Y20649D02*
X-44602D01*
X-90007Y20549D02*
X-44555D01*
X-90004Y20849D02*
X-44686D01*
X-90005Y20749D02*
X-44645D01*
X-90008Y20249D02*
X-44397D01*
X-90008Y20149D02*
X-44337D01*
X-90007Y20449D02*
X-44505D01*
X-90008Y20349D02*
X-44453D01*
X-37612Y19049D02*
X32192D01*
X-37736Y18949D02*
X32163D01*
X-37869Y18849D02*
X32136D01*
X-38014Y18749D02*
X32112D01*
X-38172Y18649D02*
X32091D01*
X-38346Y18549D02*
X32071D01*
X-38541Y18449D02*
X32055D01*
X-38762Y18349D02*
X32040D01*
X-90009Y18449D02*
X-42459D01*
X-90009Y18349D02*
X-42238D01*
X-90009Y18649D02*
X-42828D01*
X-90009Y18549D02*
X-42654D01*
X-39024Y18249D02*
X32028D01*
X-39352Y18149D02*
X32018D01*
X-39838Y18049D02*
X32010D01*
X-90009Y8549D02*
X-26555D01*
X-89892Y24049D02*
X-44725D01*
X-89898Y23949D02*
X-44760D01*
X-89903Y23849D02*
X-44793D01*
X-89909Y23749D02*
X-44823D01*
X-89914Y23649D02*
X-44851D01*
X-89919Y23549D02*
X-44876D01*
X-89924Y23449D02*
X-44899D01*
X-89929Y23349D02*
X-44919D01*
X-89934Y23249D02*
X-44937D01*
X-89938Y23149D02*
X-44953D01*
X-89943Y23049D02*
X-44966D01*
X-89947Y22949D02*
X-44977D01*
X-89951Y22849D02*
X-44986D01*
X-89955Y22749D02*
X-44993D01*
X-89959Y22649D02*
X-44998D01*
X-89963Y22549D02*
X-45000D01*
X-89973Y22249D02*
X-44993D01*
X-89976Y22149D02*
X-44986D01*
X-89966Y22449D02*
X-45000D01*
X-89970Y22349D02*
X-44997D01*
X-89985Y21849D02*
X-44953D01*
X-89987Y21749D02*
X-44937D01*
X-89979Y22049D02*
X-44977D01*
X-89982Y21949D02*
X-44966D01*
X-89994Y21449D02*
X-44875D01*
X-89996Y21349D02*
X-44850D01*
X-89989Y21649D02*
X-44919D01*
X-89992Y21549D02*
X-44898D01*
X-90001Y21049D02*
X-44760D01*
X-90002Y20949D02*
X-44724D01*
X-89998Y21249D02*
X-44823D01*
X-89999Y21149D02*
X-44792D01*
X-90009Y16849D02*
X32091D01*
X-90009Y16949D02*
X32072D01*
X-90009Y16749D02*
X32113D01*
X-90009Y17149D02*
X32040D01*
X-90009Y17049D02*
X32055D01*
X-90009Y16449D02*
X32192D01*
X-90009Y16349D02*
X32224D01*
X-90009Y16649D02*
X32137D01*
X-90009Y16549D02*
X32163D01*
X-90009Y17949D02*
X32004D01*
X-90009Y17649D02*
X32001D01*
X-90009Y17849D02*
X32001D01*
X-90009Y17749D02*
X32000D01*
X-90009Y17349D02*
X32018D01*
X-90009Y17249D02*
X32028D01*
X-90009Y17549D02*
X32004D01*
X-90009Y17449D02*
X32010D01*
X-90009Y14149D02*
X-25133D01*
X-90009Y14049D02*
X-25267D01*
X-90009Y13949D02*
X-25390D01*
X-90009Y13849D02*
X-25506D01*
X-90009Y13749D02*
X-25614D01*
X-90009Y13649D02*
X-25715D01*
X-90009Y13549D02*
X-25810D01*
X-90009Y13449D02*
X-25899D01*
X-90009Y14949D02*
X-23175D01*
X-90009Y14849D02*
X-23656D01*
X-90009Y14749D02*
X-23982D01*
X-90009Y14649D02*
X-24242D01*
X-90009Y14549D02*
X-24464D01*
X-90009Y14449D02*
X-24658D01*
X-90009Y14349D02*
X-24831D01*
X-90009Y14249D02*
X-24989D01*
X-90009Y19049D02*
X-43388D01*
X-90009Y18949D02*
X-43264D01*
X-90009Y19249D02*
X-43611D01*
X-90009Y19149D02*
X-43503D01*
X-90009Y18249D02*
X-41976D01*
X-90009Y18149D02*
X-41648D01*
X-90009Y18849D02*
X-43131D01*
X-90009Y18749D02*
X-42986D01*
X-90009Y19849D02*
X-44136D01*
X-90009Y19749D02*
X-44061D01*
X-90009Y20049D02*
X-44274D01*
X-90009Y19949D02*
X-44207D01*
X-90009Y19449D02*
X-43808D01*
X-90009Y19349D02*
X-43713D01*
X-90009Y19649D02*
X-43982D01*
X-90009Y19549D02*
X-43897D01*
X-90009Y12649D02*
X-26454D01*
X-90009Y12549D02*
X-26506D01*
X-90009Y12449D02*
X-26556D01*
X-90009Y12349D02*
X-26602D01*
X-90009Y12249D02*
X-26646D01*
X-90009Y12149D02*
X-26687D01*
X-90009Y12049D02*
X-26725D01*
X-90009Y11949D02*
X-26760D01*
X-90009Y13349D02*
X-25983D01*
X-90009Y13249D02*
X-26063D01*
X-90009Y18049D02*
X-41162D01*
X-90009Y13149D02*
X-26138D01*
X-90009Y13049D02*
X-26208D01*
X-90009Y12949D02*
X-26275D01*
X-90009Y12849D02*
X-26338D01*
X-90009Y12749D02*
X-26398D01*
X-90009Y7449D02*
X-25808D01*
X-90009Y7549D02*
X-25897D01*
X-90009Y7349D02*
X-25713D01*
X-90009Y7749D02*
X-26061D01*
X-90009Y7649D02*
X-25982D01*
X-90009Y7049D02*
X-25388D01*
X-90009Y6949D02*
X-25264D01*
X-90009Y7249D02*
X-25611D01*
X-90009Y7149D02*
X-25503D01*
X-90009Y8349D02*
X-26453D01*
X-90009Y8249D02*
X-26397D01*
X-90009Y8649D02*
X-26602D01*
X-90009Y8449D02*
X-26505D01*
X-90009Y7949D02*
X-26207D01*
X-90009Y7849D02*
X-26136D01*
X-90009Y8149D02*
X-26337D01*
X-90009Y8049D02*
X-26274D01*
X-90009Y5849D02*
X19757D01*
X-90009Y5749D02*
X19940D01*
X-90009Y6049D02*
X-23162D01*
X-90009Y5949D02*
X19591D01*
X-90009Y5449D02*
X20677D01*
X-90009Y5349D02*
X21061D01*
X-90009Y5649D02*
X20147D01*
X-90009Y5549D02*
X20387D01*
X-90009Y6649D02*
X-24828D01*
X-90009Y6549D02*
X-24654D01*
X-90009Y6849D02*
X-25131D01*
X-90009Y6749D02*
X-24986D01*
X-90009Y6249D02*
X-23976D01*
X-90009Y6149D02*
X-23648D01*
X-90009Y6449D02*
X-24460D01*
X-90009Y6349D02*
X-24238D01*
X-90009Y11049D02*
X-26966D01*
X-90009Y10949D02*
X-26978D01*
X-90009Y10849D02*
X-26986D01*
X-90009Y10749D02*
X-26993D01*
X-90009Y10649D02*
X-26997D01*
X-90009Y10349D02*
X-26997D01*
X-90009Y10549D02*
X-27000D01*
X-90009Y10449D02*
X-27000D01*
X-90009Y11849D02*
X-26793D01*
X-90009Y11749D02*
X-26823D01*
X-90009Y11649D02*
X-26851D01*
X-90009Y11549D02*
X-26876D01*
X-90009Y11449D02*
X-26899D01*
X-90009Y11349D02*
X-26919D01*
X-90009Y11249D02*
X-26937D01*
X-90009Y11149D02*
X-26953D01*
X-90009Y9249D02*
X-26823D01*
X-90009Y9149D02*
X-26792D01*
X-90009Y9449D02*
X-26876D01*
X-90009Y9349D02*
X-26850D01*
X-90009Y8849D02*
X-26686D01*
X-90009Y8749D02*
X-26645D01*
X-90009Y9049D02*
X-26760D01*
X-90009Y8949D02*
X-26724D01*
X-90009Y10049D02*
X-26977D01*
X-90009Y9949D02*
X-26966D01*
X-90009Y10249D02*
X-26993D01*
X-90009Y10149D02*
X-26986D01*
X-90009Y9649D02*
X-26919D01*
X-90009Y9549D02*
X-26898D01*
X-90009Y9849D02*
X-26953D01*
X-90009Y9749D02*
X-26937D01*
X-35858Y-9351D02*
X89991D01*
X-36675Y-7751D02*
X89991D01*
X-35831Y-9451D02*
X89991D01*
X-36844Y-7551D02*
X89991D01*
X-36757Y-7651D02*
X89991D01*
X-35766Y-9751D02*
X89991D01*
X-35749Y-9851D02*
X89991D01*
X-35807Y-9551D02*
X89991D01*
X-35785Y-9651D02*
X89991D01*
X-37501Y-6951D02*
X89991D01*
X-37372Y-7051D02*
X89991D01*
X-37792Y-6751D02*
X89991D01*
X-37641Y-6851D02*
X89991D01*
X-37035Y-7351D02*
X89991D01*
X-36937Y-7451D02*
X89991D01*
X-37252Y-7151D02*
X89991D01*
X-37140Y-7251D02*
X89991D01*
X-35694Y-10451D02*
X89991D01*
X-35693Y-10551D02*
X89991D01*
X-35703Y-10251D02*
X89991D01*
X-35698Y-10351D02*
X89991D01*
X-35703Y-10851D02*
X89991D01*
X-35710Y-10951D02*
X89991D01*
X-35694Y-10651D02*
X89991D01*
X-35697Y-10751D02*
X89991D01*
X-35711Y-10151D02*
X89991D01*
X-35720Y-11051D02*
X89991D01*
X-35734Y-9951D02*
X89991D01*
X-35722Y-10051D02*
X89991D01*
X-35764Y-11351D02*
X89991D01*
X-35783Y-11451D02*
X89991D01*
X-35732Y-11151D02*
X89991D01*
X-35747Y-11251D02*
X89991D01*
X-36329Y-8251D02*
X89991D01*
X-36271Y-8351D02*
X89991D01*
X-36455Y-8051D02*
X89991D01*
X-36390Y-8151D02*
X89991D01*
X-36117Y-8651D02*
X89991D01*
X-36071Y-8751D02*
X89991D01*
X-36216Y-8451D02*
X89991D01*
X-36165Y-8551D02*
X89991D01*
X-38593Y-6351D02*
X51147D01*
X-38352Y-6451D02*
X51387D01*
X-39278Y-6151D02*
X50757D01*
X-38886Y-6251D02*
X50940D01*
X-36598Y-7851D02*
X89991D01*
X-36525Y-7951D02*
X89991D01*
X-38143Y-6551D02*
X51676D01*
X-37959Y-6651D02*
X52061D01*
X-35953Y-9051D02*
X89991D01*
X-35918Y-9151D02*
X89991D01*
X-36029Y-8851D02*
X89991D01*
X-35989Y-8951D02*
X89991D01*
X-35887Y-9251D02*
X89991D01*
X-80244Y-55651D02*
X68803D01*
X-80185Y-55751D02*
X67163D01*
X-80125Y-55851D02*
X66303D01*
X-80595Y-55051D02*
X68228D01*
X-80537Y-55151D02*
X68310D01*
X-80711Y-54851D02*
X68078D01*
X-80653Y-54951D02*
X68151D01*
X-80362Y-55451D02*
X68587D01*
X-80303Y-55551D02*
X68692D01*
X-80479Y-55251D02*
X68397D01*
X-80421Y-55351D02*
X68489D01*
X-79517Y-56851D02*
X64301D01*
X-79579Y-56751D02*
X64420D01*
X-79455Y-56951D02*
X64190D01*
X-79393Y-57051D02*
X64085D01*
X-79330Y-57151D02*
X63987D01*
X-79268Y-57251D02*
X63895D01*
X-79205Y-57351D02*
X63808D01*
X-79141Y-57451D02*
X63727D01*
X-79078Y-57551D02*
X63649D01*
X-80065Y-55951D02*
X65921D01*
X-80006Y-56051D02*
X65632D01*
X-79945Y-56151D02*
X65393D01*
X-79885Y-56251D02*
X65187D01*
X-79824Y-56351D02*
X65004D01*
X-79763Y-56451D02*
X64838D01*
X-79702Y-56551D02*
X64688D01*
X-79641Y-56651D02*
X64549D01*
X-78496Y-58451D02*
X63125D01*
X-78430Y-58551D02*
X63083D01*
X-78364Y-58651D02*
X63044D01*
X-78298Y-58751D02*
X63007D01*
X-76261Y-61651D02*
X62974D01*
X-76187Y-61751D02*
X63008D01*
X-78231Y-58851D02*
X62973D01*
X-76335Y-61551D02*
X62942D01*
X-79014Y-57651D02*
X63577D01*
X-78950Y-57751D02*
X63508D01*
X-78886Y-57851D02*
X63443D01*
X-78822Y-57951D02*
X63382D01*
X-78757Y-58051D02*
X63324D01*
X-78692Y-58151D02*
X63270D01*
X-78627Y-58251D02*
X63218D01*
X-78562Y-58351D02*
X63170D01*
X-77620Y-59751D02*
X62778D01*
X-77551Y-59851D02*
X62768D01*
X-77481Y-59951D02*
X62760D01*
X-77412Y-60051D02*
X62754D01*
X-77201Y-60351D02*
X62751D01*
X-77131Y-60451D02*
X62755D01*
X-77342Y-60151D02*
X62751D01*
X-77272Y-60251D02*
X62750D01*
X-78164Y-58951D02*
X62942D01*
X-78097Y-59051D02*
X62913D01*
X-78030Y-59151D02*
X62886D01*
X-77962Y-59251D02*
X62862D01*
X-77894Y-59351D02*
X62841D01*
X-77826Y-59451D02*
X62821D01*
X-77758Y-59551D02*
X62805D01*
X-77689Y-59651D02*
X62790D01*
X-76482Y-61351D02*
X62887D01*
X-76409Y-61451D02*
X62913D01*
X-76113Y-61851D02*
X62303D01*
X-76038Y-61951D02*
X61921D01*
X-75963Y-62051D02*
X61632D01*
X-75888Y-62151D02*
X61393D01*
X-75812Y-62251D02*
X61187D01*
X-75736Y-62351D02*
X61004D01*
X-76917Y-60751D02*
X62778D01*
X-76845Y-60851D02*
X62790D01*
X-77060Y-60551D02*
X62760D01*
X-76988Y-60651D02*
X62768D01*
X-76628Y-61151D02*
X62841D01*
X-76556Y-61251D02*
X62863D01*
X-76773Y-60951D02*
X62805D01*
X-76701Y-61051D02*
X62822D01*
X-85096Y-45751D02*
X70563D01*
X-85136Y-45651D02*
X70547D01*
X-85056Y-45851D02*
X70581D01*
X-85214Y-45451D02*
X70523D01*
X-85175Y-45551D02*
X70534D01*
X-84936Y-46151D02*
X70650D01*
X-84896Y-46251D02*
X70677D01*
X-85017Y-45951D02*
X70602D01*
X-84977Y-46051D02*
X70624D01*
X-85558Y-44551D02*
X70522D01*
X-85521Y-44651D02*
X70514D01*
X-85483Y-44751D02*
X70507D01*
X-85445Y-44851D02*
X70503D01*
X-85292Y-45251D02*
X70507D01*
X-85253Y-45351D02*
X70514D01*
X-85369Y-45051D02*
X70500D01*
X-85330Y-45151D02*
X70503D01*
X-84440Y-47351D02*
X71163D01*
X-84397Y-47451D02*
X71226D01*
X-84524Y-47151D02*
X71047D01*
X-84482Y-47251D02*
X71103D01*
X-84312Y-47651D02*
X71364D01*
X-84269Y-47751D02*
X71439D01*
X-84355Y-47551D02*
X71293D01*
X-84225Y-47851D02*
X70803D01*
X-84774Y-46551D02*
X70776D01*
X-84733Y-46651D02*
X70814D01*
X-84855Y-46351D02*
X70708D01*
X-84815Y-46451D02*
X70740D01*
X-84608Y-46951D02*
X70945D01*
X-84566Y-47051D02*
X70995D01*
X-84691Y-46751D02*
X70855D01*
X-84650Y-46851D02*
X70898D01*
X-90009Y-4451D02*
X49075D01*
X-90009Y-4551D02*
X49133D01*
X-90009Y-4251D02*
X48969D01*
X-90009Y-4351D02*
X49021D01*
X-90009Y-4851D02*
X49328D01*
X-90009Y-4951D02*
X49401D01*
X-90009Y-4651D02*
X49194D01*
X-90009Y-4751D02*
X49259D01*
X-90009Y-3651D02*
X48724D01*
X-90009Y-3751D02*
X48758D01*
X-90009Y-3451D02*
X48663D01*
X-90009Y-3551D02*
X48692D01*
X-90009Y-4051D02*
X48876D01*
X-90009Y-4151D02*
X48921D01*
X-90009Y-3851D02*
X48794D01*
X-90009Y-3951D02*
X48834D01*
X-90009Y-6051D02*
X50591D01*
X-85407Y-44951D02*
X70500D01*
X-90009Y-5851D02*
X50301D01*
X-90009Y-5951D02*
X50440D01*
X-84182Y-47951D02*
X70421D01*
X-84138Y-48051D02*
X70132D01*
X-84094Y-48151D02*
X69893D01*
X-84050Y-48251D02*
X69687D01*
X-90009Y-5251D02*
X49647D01*
X-90009Y-5351D02*
X49739D01*
X-90009Y-5051D02*
X49478D01*
X-90009Y-5151D02*
X49560D01*
X-90009Y-5651D02*
X50053D01*
X-90009Y-5751D02*
X50173D01*
X-90009Y-5451D02*
X49837D01*
X-90009Y-5551D02*
X49942D01*
X-83600Y-49251D02*
X68395D01*
X-83645Y-49151D02*
X68487D01*
X-83553Y-49351D02*
X68308D01*
X-83507Y-49451D02*
X68227D01*
X-83461Y-49551D02*
X68149D01*
X-83414Y-49651D02*
X68077D01*
X-83367Y-49751D02*
X68008D01*
X-83320Y-49851D02*
X67943D01*
X-83273Y-49951D02*
X67882D01*
X-84006Y-48351D02*
X69503D01*
X-83962Y-48451D02*
X69338D01*
X-83917Y-48551D02*
X69187D01*
X-83872Y-48651D02*
X69049D01*
X-83827Y-48751D02*
X68920D01*
X-83782Y-48851D02*
X68801D01*
X-83737Y-48951D02*
X68690D01*
X-83691Y-49051D02*
X68585D01*
X-81051Y-54251D02*
X67719D01*
X-80995Y-54351D02*
X67771D01*
X-81163Y-54051D02*
X67626D01*
X-81107Y-54151D02*
X67671D01*
X-80825Y-54651D02*
X67944D01*
X-80768Y-54751D02*
X68009D01*
X-80939Y-54451D02*
X67825D01*
X-80882Y-54551D02*
X67883D01*
X-83225Y-50051D02*
X67824D01*
X-83178Y-50151D02*
X67770D01*
X-83130Y-50251D02*
X67719D01*
X-83082Y-50351D02*
X67670D01*
X-83034Y-50451D02*
X67625D01*
X-81219Y-53951D02*
X67584D01*
X-82985Y-50551D02*
X67583D01*
X-81274Y-53851D02*
X67544D01*
X-82540Y-51451D02*
X67322D01*
X-82490Y-51551D02*
X67305D01*
X-82439Y-51651D02*
X67290D01*
X-82388Y-51751D02*
X67278D01*
X-82338Y-51851D02*
X67268D01*
X-82286Y-51951D02*
X67260D01*
X-82235Y-52051D02*
X67254D01*
X-82183Y-52151D02*
X67251D01*
X-82936Y-50651D02*
X67544D01*
X-82888Y-50751D02*
X67507D01*
X-82839Y-50851D02*
X67473D01*
X-82789Y-50951D02*
X67442D01*
X-82740Y-51051D02*
X67413D01*
X-82690Y-51151D02*
X67386D01*
X-82641Y-51251D02*
X67362D01*
X-82591Y-51351D02*
X67341D01*
X-81602Y-53251D02*
X67363D01*
X-81548Y-53351D02*
X67387D01*
X-81709Y-53051D02*
X67322D01*
X-81656Y-53151D02*
X67341D01*
X-81384Y-53651D02*
X67474D01*
X-81329Y-53751D02*
X67508D01*
X-81493Y-53451D02*
X67413D01*
X-81439Y-53551D02*
X67442D01*
X-82027Y-52451D02*
X67255D01*
X-81975Y-52551D02*
X67260D01*
X-82131Y-52251D02*
X67250D01*
X-82079Y-52351D02*
X67251D01*
X-81816Y-52851D02*
X67290D01*
X-81763Y-52951D02*
X67305D01*
X-81922Y-52651D02*
X67268D01*
X-81869Y-52751D02*
X67278D01*
X-61523Y-76351D02*
X61506D01*
X-61659Y-76251D02*
X61641D01*
X-61387Y-76451D02*
X61370D01*
X-61250Y-76551D02*
X61233D01*
X-61113Y-76651D02*
X61095D01*
X-60975Y-76751D02*
X60957D01*
X-60836Y-76851D02*
X60818D01*
X-60696Y-76951D02*
X60679D01*
X-60556Y-77051D02*
X60538D01*
X-62718Y-75451D02*
X62701D01*
X-62588Y-75551D02*
X62571D01*
X-62457Y-75651D02*
X62440D01*
X-62326Y-75751D02*
X62308D01*
X-62194Y-75851D02*
X62176D01*
X-62061Y-75951D02*
X62043D01*
X-61927Y-76051D02*
X61910D01*
X-61793Y-76151D02*
X61776D01*
X-59258Y-77951D02*
X59241D01*
X-59110Y-78051D02*
X59093D01*
X-58962Y-78151D02*
X58944D01*
X-58812Y-78251D02*
X58794D01*
X-58661Y-78351D02*
X58644D01*
X-58510Y-78451D02*
X58492D01*
X-58358Y-78551D02*
X58340D01*
X-58204Y-78651D02*
X58187D01*
X-60415Y-77151D02*
X60397D01*
X-60273Y-77251D02*
X60255D01*
X-60130Y-77351D02*
X60113D01*
X-59987Y-77451D02*
X59970D01*
X-59843Y-77551D02*
X59825D01*
X-59698Y-77651D02*
X59681D01*
X-59552Y-77751D02*
X59535D01*
X-59406Y-77851D02*
X59388D01*
X-56785Y-79551D02*
X56768D01*
X-56623Y-79651D02*
X56605D01*
X-56459Y-79751D02*
X56442D01*
X-56295Y-79851D02*
X56277D01*
X-56129Y-79951D02*
X56112D01*
X-55963Y-80051D02*
X55946D01*
X-55795Y-80151D02*
X55778D01*
X-55627Y-80251D02*
X55609D01*
X-58050Y-78751D02*
X58033D01*
X-57895Y-78851D02*
X57878D01*
X-57740Y-78951D02*
X57722D01*
X-57583Y-79051D02*
X57565D01*
X-57425Y-79151D02*
X57408D01*
X-57267Y-79251D02*
X57249D01*
X-57107Y-79351D02*
X57090D01*
X-56947Y-79451D02*
X56929D01*
X-54058Y-81151D02*
X54041D01*
X-53878Y-81251D02*
X53860D01*
X-53696Y-81351D02*
X53679D01*
X-53513Y-81451D02*
X53496D01*
X-53329Y-81551D02*
X53312D01*
X-53144Y-81651D02*
X53127D01*
X-52957Y-81751D02*
X52940D01*
X-52769Y-81851D02*
X52752D01*
X-55457Y-80351D02*
X55440D01*
X-55286Y-80451D02*
X55269D01*
X-55114Y-80551D02*
X55097D01*
X-54941Y-80651D02*
X54924D01*
X-54767Y-80751D02*
X54749D01*
X-54591Y-80851D02*
X54574D01*
X-54415Y-80951D02*
X54398D01*
X-54237Y-81051D02*
X54220D01*
X-50807Y-82851D02*
X50789D01*
X-51010Y-82751D02*
X50993D01*
X-50602Y-82951D02*
X50584D01*
X-50395Y-83051D02*
X50378D01*
X-50187Y-83151D02*
X50169D01*
X-49977Y-83251D02*
X49959D01*
X-49764Y-83351D02*
X49747D01*
X-49551Y-83451D02*
X49533D01*
X-49335Y-83551D02*
X49317D01*
X-52579Y-81951D02*
X52562D01*
X-52389Y-82051D02*
X52371D01*
X-52196Y-82151D02*
X52179D01*
X-52002Y-82251D02*
X51985D01*
X-51807Y-82351D02*
X51790D01*
X-51610Y-82451D02*
X51593D01*
X-51412Y-82551D02*
X51394D01*
X-51212Y-82651D02*
X51194D01*
X-47300Y-84451D02*
X47283D01*
X-47062Y-84551D02*
X47045D01*
X-46823Y-84651D02*
X46805D01*
X-46580Y-84751D02*
X46563D01*
X-46335Y-84851D02*
X46318D01*
X-46087Y-84951D02*
X46070D01*
X-45837Y-85051D02*
X45820D01*
X-45583Y-85151D02*
X45566D01*
X-49117Y-83651D02*
X49100D01*
X-48897Y-83751D02*
X48880D01*
X-48676Y-83851D02*
X48658D01*
X-48452Y-83951D02*
X48435D01*
X-48226Y-84051D02*
X48209D01*
X-47998Y-84151D02*
X47980D01*
X-47767Y-84251D02*
X47750D01*
X-47535Y-84351D02*
X47517D01*
X-43160Y-86051D02*
X43142D01*
X-42872Y-86151D02*
X42855D01*
X-42581Y-86251D02*
X42564D01*
X-42285Y-86351D02*
X42268D01*
X-41985Y-86451D02*
X41968D01*
X-41680Y-86551D02*
X41663D01*
X-41371Y-86651D02*
X41353D01*
X-41056Y-86751D02*
X41039D01*
X-45327Y-85251D02*
X45310D01*
X-45068Y-85351D02*
X45051D01*
X-44805Y-85451D02*
X44788D01*
X-44540Y-85551D02*
X44523D01*
X-44271Y-85651D02*
X44254D01*
X-43999Y-85751D02*
X43981D01*
X-43723Y-85851D02*
X43705D01*
X-43443Y-85951D02*
X43426D01*
X-37953Y-87651D02*
X37936D01*
X-37572Y-87751D02*
X37555D01*
X-37182Y-87851D02*
X37164D01*
X-36781Y-87951D02*
X36764D01*
X-36371Y-88051D02*
X36354D01*
X-35949Y-88151D02*
X35932D01*
X-35515Y-88251D02*
X35498D01*
X-35069Y-88351D02*
X35051D01*
X-40736Y-86851D02*
X40719D01*
X-40411Y-86951D02*
X40394D01*
X-40080Y-87051D02*
X40062D01*
X-39743Y-87151D02*
X39725D01*
X-39399Y-87251D02*
X39382D01*
X-39049Y-87351D02*
X39031D01*
X-38691Y-87451D02*
X38674D01*
X-38326Y-87551D02*
X38309D01*
X-74962Y-63351D02*
X59808D01*
X-75040Y-63251D02*
X59895D01*
X-74883Y-63451D02*
X59727D01*
X-74803Y-63551D02*
X59649D01*
X-74724Y-63651D02*
X59577D01*
X-74644Y-63751D02*
X59508D01*
X-74563Y-63851D02*
X59443D01*
X-74483Y-63951D02*
X59382D01*
X-74402Y-64051D02*
X59324D01*
X-75660Y-62451D02*
X60838D01*
X-75584Y-62551D02*
X60688D01*
X-75507Y-62651D02*
X60549D01*
X-75430Y-62751D02*
X60421D01*
X-75353Y-62851D02*
X60301D01*
X-75275Y-62951D02*
X60190D01*
X-75197Y-63051D02*
X60085D01*
X-75119Y-63151D02*
X59987D01*
X-70617Y-68351D02*
X59271D01*
X-70521Y-68451D02*
X59325D01*
X-70808Y-68151D02*
X59171D01*
X-70713Y-68251D02*
X59219D01*
X-70232Y-68751D02*
X59509D01*
X-70135Y-68851D02*
X59578D01*
X-70425Y-68551D02*
X59383D01*
X-70329Y-68651D02*
X59444D01*
X-74321Y-64151D02*
X59270D01*
X-74240Y-64251D02*
X59219D01*
X-74158Y-64351D02*
X59170D01*
X-74076Y-64451D02*
X59125D01*
X-70996Y-67951D02*
X59084D01*
X-70902Y-68051D02*
X59126D01*
X-73993Y-64551D02*
X59083D01*
X-71090Y-67851D02*
X59044D01*
X-73238Y-65451D02*
X58822D01*
X-73152Y-65551D02*
X58805D01*
X-73066Y-65651D02*
X58790D01*
X-72980Y-65751D02*
X58778D01*
X-72893Y-65851D02*
X58768D01*
X-72806Y-65951D02*
X58760D01*
X-72719Y-66051D02*
X58754D01*
X-72632Y-66151D02*
X58751D01*
X-73910Y-64651D02*
X59044D01*
X-73828Y-64751D02*
X59007D01*
X-73744Y-64851D02*
X58973D01*
X-73660Y-64951D02*
X58942D01*
X-73577Y-65051D02*
X58913D01*
X-73492Y-65151D02*
X58886D01*
X-73408Y-65251D02*
X58862D01*
X-73323Y-65351D02*
X58841D01*
X-71646Y-67251D02*
X58863D01*
X-71554Y-67351D02*
X58887D01*
X-71828Y-67051D02*
X58822D01*
X-71737Y-67151D02*
X58841D01*
X-71277Y-67651D02*
X58974D01*
X-71184Y-67751D02*
X59008D01*
X-71462Y-67451D02*
X58913D01*
X-71370Y-67551D02*
X58942D01*
X-72367Y-66451D02*
X58755D01*
X-72278Y-66551D02*
X58760D01*
X-72544Y-66251D02*
X58750D01*
X-72456Y-66351D02*
X58751D01*
X-72009Y-66851D02*
X58790D01*
X-71919Y-66951D02*
X58805D01*
X-72189Y-66651D02*
X58768D01*
X-72099Y-66751D02*
X58778D01*
X-67244Y-71651D02*
X67227D01*
X-67353Y-71551D02*
X67336D01*
X-67134Y-71751D02*
X67117D01*
X-67024Y-71851D02*
X67007D01*
X-66914Y-71951D02*
X66896D01*
X-66803Y-72051D02*
X66785D01*
X-66691Y-72151D02*
X66674D01*
X-66579Y-72251D02*
X66562D01*
X-66467Y-72351D02*
X66449D01*
X-68210Y-70751D02*
X68192D01*
X-68104Y-70851D02*
X68087D01*
X-67998Y-70951D02*
X67981D01*
X-67892Y-71051D02*
X67874D01*
X-67785Y-71151D02*
X67768D01*
X-67678Y-71251D02*
X67660D01*
X-67570Y-71351D02*
X67552D01*
X-67462Y-71451D02*
X67444D01*
X-65432Y-73251D02*
X65415D01*
X-65315Y-73351D02*
X65297D01*
X-65196Y-73451D02*
X65179D01*
X-65078Y-73551D02*
X65061D01*
X-64959Y-73651D02*
X64942D01*
X-64839Y-73751D02*
X64822D01*
X-64719Y-73851D02*
X64702D01*
X-64598Y-73951D02*
X64581D01*
X-66354Y-72451D02*
X66336D01*
X-66240Y-72551D02*
X66223D01*
X-66126Y-72651D02*
X66109D01*
X-66012Y-72751D02*
X65995D01*
X-65897Y-72851D02*
X65880D01*
X-65781Y-72951D02*
X65764D01*
X-65665Y-73051D02*
X65648D01*
X-65549Y-73151D02*
X65532D01*
X-69038Y-69951D02*
X60690D01*
X-68936Y-70051D02*
X60841D01*
X-69241Y-69751D02*
X60423D01*
X-69140Y-69851D02*
X60551D01*
X-68627Y-70351D02*
X61397D01*
X-68524Y-70451D02*
X61637D01*
X-68834Y-70151D02*
X61006D01*
X-68731Y-70251D02*
X61190D01*
X-69840Y-69151D02*
X59810D01*
X-69742Y-69251D02*
X59897D01*
X-70037Y-68951D02*
X59651D01*
X-69939Y-69051D02*
X59728D01*
X-69443Y-69551D02*
X60191D01*
X-69342Y-69651D02*
X60303D01*
X-69642Y-69351D02*
X59989D01*
X-69543Y-69451D02*
X60087D01*
X-63737Y-74651D02*
X63720D01*
X-63612Y-74751D02*
X63595D01*
X-63486Y-74851D02*
X63469D01*
X-63360Y-74951D02*
X63342D01*
X-63233Y-75051D02*
X63215D01*
X-63105Y-75151D02*
X63088D01*
X-62977Y-75251D02*
X62959D01*
X-62848Y-75351D02*
X62830D01*
X-64477Y-74051D02*
X64460D01*
X-64355Y-74151D02*
X64338D01*
X-68419Y-70551D02*
X61926D01*
X-68315Y-70651D02*
X62310D01*
X-64233Y-74251D02*
X64215D01*
X-64110Y-74351D02*
X64092D01*
X-63986Y-74451D02*
X63969D01*
X-63862Y-74551D02*
X63845D01*
X-35804Y-11551D02*
X12325D01*
X-35828Y-11651D02*
X11844D01*
X-35854Y-11751D02*
X11518D01*
X-35883Y-11851D02*
X11258D01*
X-35914Y-11951D02*
X11037D01*
X-35948Y-12051D02*
X10842D01*
X-35985Y-12151D02*
X10669D01*
X-36024Y-12251D02*
X10511D01*
X-36066Y-12351D02*
X10367D01*
X-36111Y-12451D02*
X10233D01*
X-36159Y-12551D02*
X10110D01*
X-36210Y-12651D02*
X9994D01*
X-36264Y-12751D02*
X9887D01*
X-36322Y-12851D02*
X9786D01*
X-36383Y-12951D02*
X9690D01*
X-36447Y-13051D02*
X9601D01*
X-36516Y-13151D02*
X9517D01*
X-36588Y-13251D02*
X9437D01*
X-36665Y-13351D02*
X9362D01*
X-36747Y-13451D02*
X9292D01*
X-36834Y-13551D02*
X9225D01*
X-36925Y-13651D02*
X9162D01*
X-37023Y-13751D02*
X9102D01*
X-37127Y-13851D02*
X9046D01*
X-37238Y-13951D02*
X8994D01*
X-37357Y-14051D02*
X8944D01*
X-37485Y-14151D02*
X8898D01*
X-37623Y-14251D02*
X8854D01*
X-37773Y-14351D02*
X8813D01*
X-37938Y-14451D02*
X8775D01*
X-38120Y-14551D02*
X8740D01*
X-38325Y-14651D02*
X8707D01*
X-38562Y-14751D02*
X8677D01*
X-38847Y-14851D02*
X8649D01*
X-39222Y-14951D02*
X8624D01*
X-39708Y-15051D02*
X8601D01*
X-39739Y-15151D02*
X8581D01*
X-39772Y-15251D02*
X8563D01*
X-39808Y-15351D02*
X8547D01*
X-39847Y-15451D02*
X8534D01*
X-39889Y-15551D02*
X8522D01*
X-39933Y-15651D02*
X8514D01*
X-39981Y-15751D02*
X8507D01*
X-40031Y-15851D02*
X8503D01*
X-40085Y-15951D02*
X-3943D01*
X-40142Y-16051D02*
X-4540D01*
X-40202Y-16151D02*
X-11657D01*
X-40266Y-16251D02*
X-12106D01*
X-40334Y-16351D02*
X-12422D01*
X-40406Y-16451D02*
X-12676D01*
X-40483Y-16551D02*
X-12894D01*
X-40563Y-16651D02*
X-13085D01*
X-40649Y-16751D02*
X-13256D01*
X-40740Y-16851D02*
X-13412D01*
X-40837Y-16951D02*
X-13555D01*
X-40940Y-17051D02*
X-13687D01*
X-41050Y-17151D02*
X-13810D01*
X-41168Y-17251D02*
X-13924D01*
X-41294Y-17351D02*
X-14031D01*
X-41431Y-17451D02*
X-14131D01*
X-41579Y-17551D02*
X-14226D01*
X-41741Y-17651D02*
X-14314D01*
X-41920Y-17751D02*
X-14398D01*
X-42121Y-17851D02*
X-14477D01*
X-42352Y-17951D02*
X-14551D01*
X-42628Y-18051D02*
X-14622D01*
X-42984Y-18151D02*
X-14688D01*
X-43585Y-18251D02*
X-14750D01*
X-89962Y-22551D02*
X-14954D01*
X-89958Y-22651D02*
X-14904D01*
X-89969Y-22351D02*
X-15045D01*
X-89965Y-22451D02*
X-15001D01*
X-90009Y-19051D02*
X-15134D01*
X-90009Y-19151D02*
X-15169D01*
X-90009Y-19251D02*
X-15202D01*
X-89984Y-21851D02*
X-15224D01*
X-89975Y-22151D02*
X-15124D01*
X-89972Y-22251D02*
X-15086D01*
X-89981Y-21951D02*
X-15193D01*
X-89978Y-22051D02*
X-15160D01*
X-89908Y-23751D02*
X-14105D01*
X-89902Y-23851D02*
X-14003D01*
X-89918Y-23551D02*
X-14291D01*
X-89913Y-23651D02*
X-14201D01*
X-89885Y-24151D02*
X-13653D01*
X-89879Y-24251D02*
X-13518D01*
X-89896Y-23951D02*
X-13894D01*
X-89891Y-24051D02*
X-13778D01*
X-89946Y-22951D02*
X-14734D01*
X-89942Y-23051D02*
X-14671D01*
X-89954Y-22751D02*
X-14851D01*
X-89950Y-22851D02*
X-14794D01*
X-89928Y-23351D02*
X-14456D01*
X-89923Y-23451D02*
X-14376D01*
X-89937Y-23151D02*
X-14603D01*
X-89933Y-23251D02*
X-14532D01*
X-90009Y-20051D02*
X-15373D01*
X-90008Y-20151D02*
X-15383D01*
X-90008Y-20251D02*
X-15392D01*
X-90008Y-20351D02*
X-15398D01*
X-90007Y-20451D02*
X-15403D01*
X-90006Y-20551D02*
X-15404D01*
X-90006Y-20651D02*
X-15404D01*
X-90009Y-19351D02*
X-15231D01*
X-90009Y-19451D02*
X-15259D01*
X-90009Y-19551D02*
X-15284D01*
X-90009Y-19651D02*
X-15306D01*
X-90009Y-19751D02*
X-15326D01*
X-90009Y-19851D02*
X-15344D01*
X-90009Y-19951D02*
X-15359D01*
X-89989Y-21651D02*
X-15277D01*
X-89986Y-21751D02*
X-15252D01*
X-89991Y-21551D02*
X-15300D01*
X-89873Y-24351D02*
X-24692D01*
X-89866Y-24451D02*
X-25076D01*
X-89860Y-24551D02*
X-25365D01*
X-89853Y-24651D02*
X-25605D01*
X-89847Y-24751D02*
X-25812D01*
X-90002Y-20951D02*
X-15390D01*
X-90001Y-21051D02*
X-15381D01*
X-90005Y-20751D02*
X-15402D01*
X-90003Y-20851D02*
X-15397D01*
X-89995Y-21351D02*
X-15339D01*
X-89993Y-21451D02*
X-15321D01*
X-89999Y-21151D02*
X-15369D01*
X-89997Y-21251D02*
X-15355D01*
X-90009Y-7051D02*
X-43014D01*
X-90009Y-6951D02*
X-42885D01*
X-90009Y-7151D02*
X-43134D01*
X-90009Y-7251D02*
X-43246D01*
X-90009Y-7351D02*
X-43351D01*
X-90009Y-7451D02*
X-43449D01*
X-90009Y-7551D02*
X-43542D01*
X-90009Y-7651D02*
X-43629D01*
X-90009Y-7751D02*
X-43711D01*
X-90009Y-6151D02*
X-41108D01*
X-90009Y-6251D02*
X-41500D01*
X-90009Y-6351D02*
X-41793D01*
X-90009Y-6451D02*
X-42034D01*
X-90009Y-6551D02*
X-42243D01*
X-90009Y-6651D02*
X-42428D01*
X-90009Y-6751D02*
X-42594D01*
X-90009Y-6851D02*
X-42745D01*
X-90009Y-8651D02*
X-44269D01*
X-90009Y-8751D02*
X-44315D01*
X-90009Y-8851D02*
X-44357D01*
X-90009Y-8951D02*
X-44397D01*
X-90009Y-9051D02*
X-44433D01*
X-90009Y-9151D02*
X-44468D01*
X-90009Y-9251D02*
X-44499D01*
X-90009Y-9351D02*
X-44860D01*
X-90009Y-7851D02*
X-43788D01*
X-90009Y-7951D02*
X-43862D01*
X-90009Y-8051D02*
X-43931D01*
X-90009Y-8151D02*
X-43996D01*
X-90009Y-8251D02*
X-44057D01*
X-90009Y-8351D02*
X-44115D01*
X-90009Y-8451D02*
X-44170D01*
X-90009Y-8551D02*
X-44221D01*
X-90009Y-10251D02*
X-46824D01*
X-90009Y-10351D02*
X-46945D01*
X-90009Y-10451D02*
X-47059D01*
X-90009Y-10551D02*
X-47164D01*
X-90009Y-10651D02*
X-47264D01*
X-90009Y-10751D02*
X-47357D01*
X-90009Y-10851D02*
X-47445D01*
X-90009Y-10951D02*
X-47528D01*
X-90009Y-9451D02*
X-45278D01*
X-90009Y-9551D02*
X-45581D01*
X-90009Y-9651D02*
X-45829D01*
X-90009Y-9751D02*
X-46042D01*
X-90009Y-9851D02*
X-46230D01*
X-90009Y-9951D02*
X-46399D01*
X-90009Y-10051D02*
X-46552D01*
X-90009Y-10151D02*
X-46694D01*
X-90009Y-11851D02*
X-48091D01*
X-90009Y-11951D02*
X-48137D01*
X-90009Y-12051D02*
X-48180D01*
X-90009Y-12151D02*
X-48220D01*
X-90009Y-12251D02*
X-48257D01*
X-90009Y-12351D02*
X-48292D01*
X-90009Y-12451D02*
X-48324D01*
X-90009Y-12551D02*
X-48353D01*
X-90009Y-11051D02*
X-47606D01*
X-90009Y-11151D02*
X-47680D01*
X-90009Y-11251D02*
X-47750D01*
X-90009Y-11351D02*
X-47815D01*
X-90009Y-11451D02*
X-47877D01*
X-90009Y-11551D02*
X-47936D01*
X-90009Y-11651D02*
X-47991D01*
X-90009Y-11751D02*
X-48043D01*
X-90009Y-16851D02*
X-47304D01*
X-90009Y-16751D02*
X-47395D01*
X-90009Y-16951D02*
X-47207D01*
X-90009Y-16551D02*
X-47562D01*
X-90009Y-16651D02*
X-47481D01*
X-90009Y-17251D02*
X-46877D01*
X-90009Y-17351D02*
X-46750D01*
X-90009Y-17051D02*
X-47104D01*
X-90009Y-17151D02*
X-46994D01*
X-90009Y-15951D02*
X-47960D01*
X-90009Y-16051D02*
X-47903D01*
X-90009Y-15751D02*
X-48064D01*
X-90009Y-15851D02*
X-48013D01*
X-90009Y-16351D02*
X-47710D01*
X-90009Y-16451D02*
X-47638D01*
X-90009Y-16151D02*
X-47842D01*
X-90009Y-16251D02*
X-47778D01*
X-90009Y-18351D02*
X-14809D01*
X-90009Y-18451D02*
X-14865D01*
X-90009Y-18251D02*
X-44459D01*
X-90009Y-18551D02*
X-14917D01*
X-90009Y-18651D02*
X-14967D01*
X-90009Y-18751D02*
X-15013D01*
X-90009Y-18851D02*
X-15056D01*
X-90009Y-18951D02*
X-15096D01*
X-90009Y-17651D02*
X-46304D01*
X-90009Y-17751D02*
X-46125D01*
X-90009Y-17451D02*
X-46614D01*
X-90009Y-17551D02*
X-46466D01*
X-90009Y-18051D02*
X-45416D01*
X-90009Y-18151D02*
X-45060D01*
X-90009Y-17851D02*
X-45923D01*
X-90009Y-17951D02*
X-45692D01*
X-90009Y-13351D02*
X-48502D01*
X-90009Y-13451D02*
X-48511D01*
X-90009Y-13551D02*
X-48517D01*
X-90009Y-13651D02*
X-48521D01*
X-90009Y-13951D02*
X-48519D01*
X-90009Y-14051D02*
X-48513D01*
X-90009Y-13751D02*
X-48522D01*
X-90009Y-13851D02*
X-48521D01*
X-90009Y-12651D02*
X-48380D01*
X-90009Y-12751D02*
X-48405D01*
X-90009Y-12851D02*
X-48427D01*
X-90009Y-12951D02*
X-48447D01*
X-90009Y-13051D02*
X-48464D01*
X-90009Y-13151D02*
X-48479D01*
X-90009Y-19990D02*
X-90009Y20010D01*
X-90009Y-13251D02*
X-48492D01*
X-90009Y-15151D02*
X-48306D01*
X-90009Y-15251D02*
X-48272D01*
X-90009Y-14951D02*
X-48365D01*
X-90009Y-15051D02*
X-48337D01*
X-90009Y-15551D02*
X-48156D01*
X-90009Y-15651D02*
X-48111D01*
X-90009Y-15351D02*
X-48236D01*
X-90009Y-15451D02*
X-48197D01*
X-90009Y-14351D02*
X-48485D01*
X-90009Y-14451D02*
X-48471D01*
X-90009Y-14151D02*
X-48506D01*
X-90009Y-14251D02*
X-48497D01*
X-90009Y-14751D02*
X-48415D01*
X-90009Y-14851D02*
X-48391D01*
X-90009Y-14551D02*
X-48454D01*
X-90009Y-14651D02*
X-48436D01*
X-28896Y-36051D02*
X-12657D01*
X-28990Y-36151D02*
X-12831D01*
X-29091Y-36251D02*
X-12989D01*
X-28916Y-29951D02*
X-28088D01*
X-29198Y-36351D02*
X-13133D01*
X-29313Y-36451D02*
X-13267D01*
X-29436Y-36551D02*
X-13390D01*
X-29568Y-36651D02*
X-13506D01*
X-29711Y-36751D02*
X-13613D01*
X-29867Y-36851D02*
X-13714D01*
X-30039Y-36951D02*
X-13809D01*
X-30231Y-37051D02*
X-13899D01*
X-30450Y-37151D02*
X-13983D01*
X-30705Y-37251D02*
X-14063D01*
X-31023Y-37351D02*
X-14138D01*
X-31479Y-37451D02*
X-14208D01*
X-36091Y-37551D02*
X-14275D01*
X-36256Y-37651D02*
X-14338D01*
X-36440Y-37751D02*
X-14398D01*
X-36647Y-37851D02*
X-14454D01*
X-36887Y-37951D02*
X-14506D01*
X-37176Y-38051D02*
X-14556D01*
X-37561Y-38151D02*
X-14603D01*
X-87585Y-38251D02*
X-14646D01*
X-87558Y-38351D02*
X-14687D01*
X-87530Y-38451D02*
X-14725D01*
X-87503Y-38551D02*
X-14760D01*
X-87476Y-38651D02*
X-14793D01*
X-87448Y-38751D02*
X-14823D01*
X-87420Y-38851D02*
X-14851D01*
X-87392Y-38951D02*
X-14876D01*
X-30078Y-29051D02*
X-28241D01*
X-29902Y-29151D02*
X-28233D01*
X-30500Y-28851D02*
X-28250D01*
X-30275Y-28951D02*
X-28247D01*
X-29463Y-29451D02*
X-28196D01*
X-29338Y-29551D02*
X-28180D01*
X-29743Y-29251D02*
X-28223D01*
X-29597Y-29351D02*
X-28211D01*
X-31620Y-28551D02*
X-28247D01*
X-31103Y-28651D02*
X-28250D01*
X-30766Y-28751D02*
X-28251D01*
X-38411Y-29251D02*
X-34686D01*
X-37552Y-29351D02*
X-34832D01*
X-37171Y-29451D02*
X-34966D01*
X-36882Y-29551D02*
X-35091D01*
X-29113Y-29751D02*
X-28139D01*
X-29011Y-29851D02*
X-28115D01*
X-29222Y-29651D02*
X-28160D01*
X-35337Y-36951D02*
X-34389D01*
X-35673Y-37251D02*
X-33723D01*
X-35801Y-37351D02*
X-33406D01*
X-35442Y-37051D02*
X-34197D01*
X-35553Y-37151D02*
X-33979D01*
X-36643Y-29651D02*
X-35207D01*
X-35940Y-37451D02*
X-32950D01*
X-36437Y-29751D02*
X-35316D01*
X-36253Y-29851D02*
X-35418D01*
X-87639Y-38051D02*
X-39824D01*
X-87612Y-38151D02*
X-39439D01*
X-87692Y-37851D02*
X-40353D01*
X-87665Y-37951D02*
X-40113D01*
X-85996Y-43351D02*
X-13504D01*
X-86031Y-43251D02*
X-13612D01*
X-85960Y-43451D02*
X-13388D01*
X-86101Y-43051D02*
X-13808D01*
X-86066Y-43151D02*
X-13713D01*
X-85853Y-43751D02*
X-12986D01*
X-85816Y-43851D02*
X-12828D01*
X-85924Y-43551D02*
X-13264D01*
X-85889Y-43651D02*
X-13131D01*
X-86307Y-42451D02*
X-14274D01*
X-86273Y-42551D02*
X-14207D01*
X-86375Y-42251D02*
X-14397D01*
X-86341Y-42351D02*
X-14337D01*
X-86170Y-42851D02*
X-13982D01*
X-86136Y-42951D02*
X-13897D01*
X-86239Y-42651D02*
X-14136D01*
X-86205Y-42751D02*
X-14061D01*
X-33636Y-88651D02*
X33618D01*
X-33122Y-88751D02*
X33104D01*
X-32586Y-88851D02*
X32569D01*
X-32026Y-88951D02*
X32008D01*
X-31437Y-89051D02*
X31420D01*
X-30815Y-89151D02*
X30798D01*
X-30155Y-89251D02*
X30137D01*
X-29447Y-89351D02*
X29430D01*
X-85707Y-44151D02*
X-12238D01*
X-85670Y-44251D02*
X-11976D01*
X-85780Y-43951D02*
X-12654D01*
X-85744Y-44051D02*
X-12460D01*
X-34607Y-88451D02*
X34590D01*
X-34130Y-88551D02*
X34113D01*
X-85633Y-44351D02*
X-11649D01*
X-85596Y-44451D02*
X-11163D01*
X-87132Y-39851D02*
X-14998D01*
X-87043Y-40151D02*
X-14998D01*
X-87102Y-39951D02*
X-15000D01*
X-87072Y-40051D02*
X-15000D01*
X-86952Y-40451D02*
X-14977D01*
X-86921Y-40551D02*
X-14966D01*
X-87012Y-40251D02*
X-14993D01*
X-86982Y-40351D02*
X-14986D01*
X-87364Y-39051D02*
X-14899D01*
X-87335Y-39151D02*
X-14919D01*
X-87307Y-39251D02*
X-14937D01*
X-87278Y-39351D02*
X-14953D01*
X-87249Y-39451D02*
X-14966D01*
X-87220Y-39551D02*
X-14978D01*
X-87191Y-39651D02*
X-14986D01*
X-87162Y-39751D02*
X-14993D01*
X-86573Y-41651D02*
X-14686D01*
X-86540Y-41751D02*
X-14645D01*
X-86638Y-41451D02*
X-14760D01*
X-86605Y-41551D02*
X-14724D01*
X-86441Y-42051D02*
X-14505D01*
X-86408Y-42151D02*
X-14453D01*
X-86508Y-41851D02*
X-14602D01*
X-86475Y-41951D02*
X-14555D01*
X-86828Y-40851D02*
X-14919D01*
X-86797Y-40951D02*
X-14898D01*
X-86890Y-40651D02*
X-14953D01*
X-86859Y-40751D02*
X-14937D01*
X-86702Y-41251D02*
X-14823D01*
X-86670Y-41351D02*
X-14792D01*
X-86765Y-41051D02*
X-14876D01*
X-86734Y-41151D02*
X-14850D01*
X-89771Y-25751D02*
X-27105D01*
X-89779Y-25651D02*
X-27013D01*
X-89763Y-25851D02*
X-27192D01*
X-89754Y-25951D02*
X-27273D01*
X-89746Y-26051D02*
X-27351D01*
X-89737Y-26151D02*
X-27424D01*
X-89728Y-26251D02*
X-27492D01*
X-89719Y-26351D02*
X-27557D01*
X-89710Y-26451D02*
X-27619D01*
X-89840Y-24851D02*
X-25995D01*
X-89833Y-24951D02*
X-26161D01*
X-89825Y-25051D02*
X-26312D01*
X-89818Y-25151D02*
X-26451D01*
X-89811Y-25251D02*
X-26579D01*
X-89803Y-25351D02*
X-26698D01*
X-89795Y-25451D02*
X-26810D01*
X-89787Y-25551D02*
X-26915D01*
X-89621Y-27351D02*
X-28028D01*
X-89610Y-27451D02*
X-28059D01*
X-89599Y-27551D02*
X-28088D01*
X-89588Y-27651D02*
X-28115D01*
X-89577Y-27751D02*
X-28138D01*
X-89566Y-27851D02*
X-28160D01*
X-89555Y-27951D02*
X-28179D01*
X-89543Y-28051D02*
X-28196D01*
X-89700Y-26551D02*
X-27676D01*
X-89691Y-26651D02*
X-27731D01*
X-89681Y-26751D02*
X-27782D01*
X-89672Y-26851D02*
X-27830D01*
X-89662Y-26951D02*
X-27875D01*
X-89652Y-27051D02*
X-27917D01*
X-89641Y-27151D02*
X-27957D01*
X-89631Y-27251D02*
X-27994D01*
X-89433Y-28951D02*
X-34154D01*
X-89420Y-29051D02*
X-34351D01*
X-89407Y-29151D02*
X-34527D01*
X-89393Y-29251D02*
X-38589D01*
X-89380Y-29351D02*
X-39448D01*
X-89366Y-29451D02*
X-39829D01*
X-89353Y-29551D02*
X-40118D01*
X-89339Y-29651D02*
X-40357D01*
X-89531Y-28151D02*
X-28211D01*
X-89520Y-28251D02*
X-28223D01*
X-89508Y-28351D02*
X-28233D01*
X-89495Y-28451D02*
X-28241D01*
X-89483Y-28551D02*
X-32809D01*
X-89471Y-28651D02*
X-33326D01*
X-89458Y-28751D02*
X-33663D01*
X-89446Y-28851D02*
X-33929D01*
X-89207Y-30551D02*
X-41665D01*
X-89192Y-30651D02*
X-41763D01*
X-89177Y-30751D02*
X-41855D01*
X-89161Y-30851D02*
X-41942D01*
X-89145Y-30951D02*
X-42024D01*
X-89129Y-31051D02*
X-42101D01*
X-89113Y-31151D02*
X-42174D01*
X-89097Y-31251D02*
X-42242D01*
X-89325Y-29751D02*
X-40563D01*
X-89311Y-29851D02*
X-40746D01*
X-89296Y-29951D02*
X-40912D01*
X-89282Y-30051D02*
X-41062D01*
X-89267Y-30151D02*
X-41201D01*
X-89253Y-30251D02*
X-41329D01*
X-89238Y-30351D02*
X-41449D01*
X-89223Y-30451D02*
X-41560D01*
X-88234Y-35651D02*
X-42579D01*
X-88257Y-35551D02*
X-42624D01*
X-88211Y-35751D02*
X-42531D01*
X-88302Y-35351D02*
X-42706D01*
X-88280Y-35451D02*
X-42666D01*
X-88141Y-36051D02*
X-42367D01*
X-88118Y-36151D02*
X-42306D01*
X-88188Y-35851D02*
X-42480D01*
X-88165Y-35951D02*
X-42425D01*
X-89081Y-31351D02*
X-42307D01*
X-89064Y-31451D02*
X-42368D01*
X-89047Y-31551D02*
X-42426D01*
X-89031Y-31651D02*
X-42480D01*
X-89014Y-31751D02*
X-42532D01*
X-88996Y-31851D02*
X-42580D01*
X-88979Y-31951D02*
X-42625D01*
X-88962Y-32051D02*
X-42667D01*
X-87847Y-37251D02*
X-41327D01*
X-87822Y-37351D02*
X-41199D01*
X-87898Y-37051D02*
X-41558D01*
X-87872Y-37151D02*
X-41447D01*
X-87744Y-37651D02*
X-40743D01*
X-87718Y-37751D02*
X-40560D01*
X-87796Y-37451D02*
X-41060D01*
X-87770Y-37551D02*
X-40909D01*
X-88046Y-36451D02*
X-42099D01*
X-88021Y-36551D02*
X-42022D01*
X-88094Y-36251D02*
X-42241D01*
X-88070Y-36351D02*
X-42172D01*
X-87948Y-36851D02*
X-41761D01*
X-87923Y-36951D02*
X-41663D01*
X-87997Y-36651D02*
X-41940D01*
X-87972Y-36751D02*
X-41853D01*
X-88798Y-32951D02*
X-42929D01*
X-88779Y-33051D02*
X-42945D01*
X-88760Y-33151D02*
X-42960D01*
X-88741Y-33251D02*
X-42972D01*
X-88722Y-33351D02*
X-42982D01*
X-88702Y-33451D02*
X-42990D01*
X-88683Y-33551D02*
X-42996D01*
X-88663Y-33651D02*
X-42999D01*
X-88944Y-32151D02*
X-42706D01*
X-88926Y-32251D02*
X-42743D01*
X-88909Y-32351D02*
X-42777D01*
X-88891Y-32451D02*
X-42808D01*
X-88872Y-32551D02*
X-42837D01*
X-88854Y-32651D02*
X-42864D01*
X-88836Y-32751D02*
X-42888D01*
X-88817Y-32851D02*
X-42909D01*
X-88435Y-34751D02*
X-42887D01*
X-88413Y-34851D02*
X-42863D01*
X-88477Y-34551D02*
X-42928D01*
X-88456Y-34651D02*
X-42909D01*
X-88347Y-35151D02*
X-42776D01*
X-88325Y-35251D02*
X-42742D01*
X-88391Y-34951D02*
X-42837D01*
X-88369Y-35051D02*
X-42808D01*
X-88602Y-33951D02*
X-42996D01*
X-88582Y-34051D02*
X-42990D01*
X-88643Y-33751D02*
X-43000D01*
X-88623Y-33851D02*
X-42999D01*
X-88520Y-34351D02*
X-42960D01*
X-88499Y-34451D02*
X-42945D01*
X-88561Y-34151D02*
X-42982D01*
X-88541Y-34251D02*
X-42972D01*
D22*
X79000Y-36500D02*
D03*
X75000Y-45000D02*
D03*
X71750Y-52250D02*
D03*
X67250Y-60250D02*
D03*
X63250Y-66250D02*
D03*
X-32250Y-50250D02*
D03*
X22000Y9750D02*
D03*
X6000Y-23750D02*
D03*
X28000Y-27250D02*
D03*
X1750Y-20500D02*
D03*
X10000Y-20250D02*
D03*
X-3500Y-20429D02*
D03*
X13000Y-16000D02*
D03*
X2250Y-2000D02*
D03*
X-2000Y1500D02*
D03*
X-32214Y-33011D02*
D03*
X-23751Y-28751D02*
D03*
X-26446Y-33323D02*
D03*
X-7000Y-24000D02*
D03*
X-10905Y-20587D02*
D03*
X-22500Y10500D02*
D03*
X-25500Y30750D02*
D03*
X-8500Y41250D02*
D03*
X-15250Y37750D02*
D03*
X-49500Y-10500D02*
D03*
X-44022Y-13772D02*
D03*
X-48500Y22000D02*
D03*
X-40193Y-10557D02*
D03*
X53000Y-2250D02*
D03*
X53500Y3500D02*
D03*
X30000Y26000D02*
D03*
X6000Y38000D02*
D03*
X-7250Y54250D02*
D03*
X-10500Y-40000D02*
D03*
X-35500Y24000D02*
D03*
X44500Y37500D02*
D03*
X32500Y-51750D02*
D03*
X-40500Y22500D02*
D03*
X4750Y49250D02*
D03*
X20750Y-38750D02*
D03*
X-25750Y36250D02*
D03*
X-38500Y-33750D02*
D03*
X46750Y-32250D02*
D03*
X38182Y22459D02*
D03*
X36500Y7000D02*
D03*
Y17750D02*
D03*
M02*
