G04*
G04 #@! TF.GenerationSoftware,Altium Limited,Altium Designer,22.11.1 (43)*
G04*
G04 Layer_Color=8388736*
%FSLAX44Y44*%
%MOMM*%
G71*
G04*
G04 #@! TF.SameCoordinates,9E3D4236-1486-42F4-8DBD-DBFDAF104F79*
G04*
G04*
G04 #@! TF.FilePolarity,Negative*
G04*
G01*
G75*
%ADD45R,0.6604X0.7112*%
%ADD46O,0.4532X0.9032*%
%ADD47R,0.4532X0.9032*%
%ADD48R,0.9032X0.4532*%
%ADD49R,2.2032X2.2032*%
%ADD50R,1.1176X1.1176*%
%ADD51R,1.1176X1.4732*%
%ADD52R,0.7032X0.5532*%
%ADD53R,0.7112X0.6604*%
%ADD54R,1.6256X1.0668*%
%ADD55R,0.5532X0.7032*%
G04:AMPARAMS|DCode=56|XSize=1.0032mm|YSize=1.0032mm|CornerRadius=0mm|HoleSize=0mm|Usage=FLASHONLY|Rotation=270.000|XOffset=0mm|YOffset=0mm|HoleType=Round|Shape=RoundedRectangle|*
%AMROUNDEDRECTD56*
21,1,1.0032,1.0032,0,0,270.0*
21,1,1.0032,1.0032,0,0,270.0*
1,1,0.0000,-0.5016,-0.5016*
1,1,0.0000,-0.5016,0.5016*
1,1,0.0000,0.5016,0.5016*
1,1,0.0000,0.5016,-0.5016*
%
%ADD56ROUNDEDRECTD56*%
G04:AMPARAMS|DCode=57|XSize=1.0032mm|YSize=1.0032mm|CornerRadius=0mm|HoleSize=0mm|Usage=FLASHONLY|Rotation=180.000|XOffset=0mm|YOffset=0mm|HoleType=Round|Shape=RoundedRectangle|*
%AMROUNDEDRECTD57*
21,1,1.0032,1.0032,0,0,180.0*
21,1,1.0032,1.0032,0,0,180.0*
1,1,0.0000,-0.5016,0.5016*
1,1,0.0000,0.5016,0.5016*
1,1,0.0000,0.5016,-0.5016*
1,1,0.0000,-0.5016,-0.5016*
%
%ADD57ROUNDEDRECTD57*%
%ADD58R,0.9032X1.2032*%
%ADD59C,1.2032*%
%ADD60R,0.7032X0.9032*%
%ADD61R,0.5032X1.7032*%
%ADD62R,2.2032X1.8032*%
%ADD63R,1.4532X0.7032*%
%ADD64R,2.4032X2.2032*%
%ADD65R,0.7000X1.7000*%
%ADD66R,1.1000X2.4000*%
%ADD67R,1.3032X0.8032*%
%ADD68R,1.3032X0.5032*%
G04:AMPARAMS|DCode=69|XSize=1.5032mm|YSize=0.5032mm|CornerRadius=0.2021mm|HoleSize=0mm|Usage=FLASHONLY|Rotation=0.000|XOffset=0mm|YOffset=0mm|HoleType=Round|Shape=RoundedRectangle|*
%AMROUNDEDRECTD69*
21,1,1.5032,0.0990,0,0,0.0*
21,1,1.0990,0.5032,0,0,0.0*
1,1,0.4042,0.5495,-0.0495*
1,1,0.4042,-0.5495,-0.0495*
1,1,0.4042,-0.5495,0.0495*
1,1,0.4042,0.5495,0.0495*
%
%ADD69ROUNDEDRECTD69*%
%ADD70C,1.2232*%
%ADD71C,0.9032*%
%ADD72O,2.2032X1.4032*%
D45*
X158480Y156210D02*
D03*
X148590D02*
D03*
X158115Y140970D02*
D03*
X148225D02*
D03*
X158115Y148590D02*
D03*
X148225D02*
D03*
X148590Y165100D02*
D03*
X158480D02*
D03*
X249555Y60960D02*
D03*
X240665D02*
D03*
X274320Y224790D02*
D03*
X265430D02*
D03*
X93345Y273050D02*
D03*
X102235D02*
D03*
X406400Y182880D02*
D03*
X415290D02*
D03*
X193675Y93980D02*
D03*
X184785D02*
D03*
X406400Y191770D02*
D03*
X415290D02*
D03*
X265430Y234950D02*
D03*
X274320D02*
D03*
X407670Y101600D02*
D03*
X416560D02*
D03*
X407670Y111760D02*
D03*
X416560D02*
D03*
X407035Y133350D02*
D03*
X415925D02*
D03*
X407035Y143510D02*
D03*
X415925D02*
D03*
X406400Y161290D02*
D03*
X415290D02*
D03*
X406400Y171450D02*
D03*
X415290D02*
D03*
X202565Y194310D02*
D03*
X193675D02*
D03*
X202565Y220980D02*
D03*
X193675D02*
D03*
X202565Y167640D02*
D03*
X193675D02*
D03*
X99060Y209550D02*
D03*
X107950D02*
D03*
X249030Y38770D02*
D03*
X240140D02*
D03*
D46*
X280700Y187640D02*
D03*
D47*
X276700D02*
D03*
X272700D02*
D03*
X268700D02*
D03*
X264700D02*
D03*
X260700D02*
D03*
X256700D02*
D03*
X252700D02*
D03*
Y147640D02*
D03*
X256700D02*
D03*
X260700D02*
D03*
X264700D02*
D03*
X268700D02*
D03*
X272700D02*
D03*
X276700D02*
D03*
X280700D02*
D03*
D48*
X246700Y181640D02*
D03*
Y177640D02*
D03*
Y173640D02*
D03*
Y169640D02*
D03*
Y165640D02*
D03*
Y161640D02*
D03*
Y157640D02*
D03*
Y153640D02*
D03*
X286700D02*
D03*
Y157640D02*
D03*
Y161640D02*
D03*
Y165640D02*
D03*
Y169640D02*
D03*
Y173640D02*
D03*
Y177640D02*
D03*
Y181640D02*
D03*
D49*
X266700Y167640D02*
D03*
D50*
X118745Y255524D02*
D03*
X137795D02*
D03*
X260350Y248920D02*
D03*
X279400D02*
D03*
D51*
X128270Y275844D02*
D03*
X269875Y269240D02*
D03*
D52*
X90170Y171704D02*
D03*
Y163576D02*
D03*
Y148336D02*
D03*
Y156464D02*
D03*
X248920Y199390D02*
D03*
Y207518D02*
D03*
D53*
X167640Y264160D02*
D03*
Y255270D02*
D03*
X218440Y52070D02*
D03*
Y60960D02*
D03*
X153670Y264160D02*
D03*
Y255270D02*
D03*
X281940Y285115D02*
D03*
Y276225D02*
D03*
X292100Y285115D02*
D03*
Y276225D02*
D03*
X240030Y208915D02*
D03*
Y200025D02*
D03*
X219710Y123190D02*
D03*
Y132080D02*
D03*
X210820Y123190D02*
D03*
Y132080D02*
D03*
X257810Y199390D02*
D03*
Y208280D02*
D03*
X266700D02*
D03*
Y199390D02*
D03*
X275590Y208280D02*
D03*
Y199390D02*
D03*
X367030Y91440D02*
D03*
Y82550D02*
D03*
X358140Y91440D02*
D03*
Y82550D02*
D03*
X349250Y91440D02*
D03*
Y82550D02*
D03*
X383540Y91440D02*
D03*
Y82550D02*
D03*
X340360Y91440D02*
D03*
Y82550D02*
D03*
X374650Y91440D02*
D03*
Y82550D02*
D03*
D54*
X203200Y60960D02*
D03*
Y43460D02*
D03*
D55*
X99822Y199390D02*
D03*
X107950D02*
D03*
D56*
X205610Y207680D02*
D03*
X190610D02*
D03*
X205610Y234350D02*
D03*
X190610D02*
D03*
X205610Y181010D02*
D03*
X190610D02*
D03*
X263130Y39370D02*
D03*
X278130D02*
D03*
X263130Y60960D02*
D03*
X278130D02*
D03*
D57*
X95250Y229870D02*
D03*
Y244870D02*
D03*
D58*
X89680Y185420D02*
D03*
X106680D02*
D03*
D59*
X184150Y264160D02*
D03*
X293370Y124460D02*
D03*
X302260Y137160D02*
D03*
X137160Y240030D02*
D03*
X90170Y116840D02*
D03*
X127000Y153670D02*
D03*
Y167640D02*
D03*
X90170Y130810D02*
D03*
D60*
X276860Y103840D02*
D03*
Y116840D02*
D03*
X266700D02*
D03*
Y103840D02*
D03*
D61*
X401161Y59690D02*
D03*
X396160D02*
D03*
X391160D02*
D03*
X386160D02*
D03*
X381159D02*
D03*
X376159D02*
D03*
X371159D02*
D03*
X366158D02*
D03*
X361158D02*
D03*
X356158D02*
D03*
X351157D02*
D03*
X346157D02*
D03*
D62*
X329157Y32880D02*
D03*
X418158Y32885D02*
D03*
D63*
X440392Y102323D02*
D03*
X440389Y112317D02*
D03*
Y122312D02*
D03*
Y132320D02*
D03*
Y142315D02*
D03*
Y152310D02*
D03*
Y162307D02*
D03*
Y172312D02*
D03*
Y182310D02*
D03*
Y192315D02*
D03*
D64*
X466391Y75320D02*
D03*
Y219320D02*
D03*
D65*
X392030Y251240D02*
D03*
X382030D02*
D03*
X372030D02*
D03*
X362030D02*
D03*
X352030D02*
D03*
X342030D02*
D03*
D66*
X330529Y287240D02*
D03*
X403531D02*
D03*
D67*
X66581Y123901D02*
D03*
Y131900D02*
D03*
Y179901D02*
D03*
Y187902D02*
D03*
D68*
Y138399D02*
D03*
Y143401D02*
D03*
Y148402D02*
D03*
Y153401D02*
D03*
Y158402D02*
D03*
Y163401D02*
D03*
Y168400D02*
D03*
Y173401D02*
D03*
D69*
X143420Y82550D02*
D03*
Y77550D02*
D03*
Y72550D02*
D03*
Y67550D02*
D03*
Y62550D02*
D03*
X185420D02*
D03*
Y67550D02*
D03*
Y72550D02*
D03*
Y77550D02*
D03*
Y82550D02*
D03*
D70*
X352910Y194310D02*
D03*
X340210D02*
D03*
X352910Y117360D02*
D03*
X340210D02*
D03*
X352910Y219710D02*
D03*
X340210D02*
D03*
X352910Y142630D02*
D03*
X340210D02*
D03*
X352910Y167900D02*
D03*
X340210D02*
D03*
D71*
X55880Y127000D02*
D03*
Y184800D02*
D03*
D72*
X19079Y112653D02*
D03*
X61082D02*
D03*
X19079Y199152D02*
D03*
X61082D02*
D03*
M02*
