G04*
G04 #@! TF.GenerationSoftware,Altium Limited,Altium Designer,22.11.1 (43)*
G04*
G04 Layer_Color=8388736*
%FSLAX44Y44*%
%MOMM*%
G71*
G04*
G04 #@! TF.SameCoordinates,9E3D4236-1486-42F4-8DBD-DBFDAF104F79*
G04*
G04*
G04 #@! TF.FilePolarity,Positive*
G04*
G01*
G75*
%ADD81C,0.0150*%
G36*
X164287Y73190D02*
X164389Y73174D01*
X164505Y73151D01*
X164638Y73119D01*
X164771Y73073D01*
X164903Y73010D01*
X164911D01*
X164919Y73002D01*
X164965Y72979D01*
X165028Y72940D01*
X165106Y72885D01*
X165192Y72815D01*
X165285Y72730D01*
X165371Y72628D01*
X165449Y72519D01*
X165457Y72503D01*
X165480Y72464D01*
X165511Y72402D01*
X165543Y72324D01*
X165574Y72223D01*
X165605Y72113D01*
X165628Y71996D01*
X165636Y71864D01*
Y71848D01*
Y71809D01*
X165628Y71747D01*
X165613Y71669D01*
X165589Y71575D01*
X165558Y71474D01*
X165519Y71365D01*
X165457Y71263D01*
X165449Y71248D01*
X165426Y71217D01*
X165379Y71170D01*
X165324Y71108D01*
X165246Y71037D01*
X165161Y70967D01*
X165051Y70889D01*
X164926Y70827D01*
X164934D01*
X164950Y70819D01*
X164973D01*
X165005Y70803D01*
X165082Y70780D01*
X165184Y70733D01*
X165293Y70679D01*
X165410Y70601D01*
X165527Y70507D01*
X165628Y70390D01*
X165636Y70374D01*
X165667Y70328D01*
X165706Y70258D01*
X165761Y70164D01*
X165808Y70047D01*
X165847Y69907D01*
X165878Y69743D01*
X165886Y69564D01*
Y69556D01*
Y69532D01*
Y69501D01*
X165878Y69454D01*
X165870Y69392D01*
X165862Y69330D01*
X165847Y69252D01*
X165823Y69174D01*
X165769Y68994D01*
X165730Y68893D01*
X165675Y68799D01*
X165620Y68706D01*
X165558Y68612D01*
X165480Y68519D01*
X165394Y68425D01*
X165387Y68417D01*
X165371Y68402D01*
X165348Y68386D01*
X165309Y68355D01*
X165262Y68316D01*
X165199Y68277D01*
X165129Y68238D01*
X165059Y68199D01*
X164973Y68152D01*
X164880Y68113D01*
X164778Y68074D01*
X164669Y68035D01*
X164552Y68004D01*
X164428Y67988D01*
X164295Y67973D01*
X164162Y67965D01*
X164100D01*
X164053Y67973D01*
X163991Y67981D01*
X163928Y67988D01*
X163850Y67996D01*
X163772Y68012D01*
X163593Y68059D01*
X163406Y68137D01*
X163312Y68176D01*
X163227Y68230D01*
X163133Y68292D01*
X163047Y68363D01*
X163039Y68370D01*
X163032Y68378D01*
X163008Y68402D01*
X162977Y68433D01*
X162946Y68480D01*
X162907Y68527D01*
X162860Y68581D01*
X162821Y68643D01*
X162728Y68799D01*
X162650Y68979D01*
X162579Y69181D01*
X162556Y69291D01*
X162540Y69408D01*
X163172Y69493D01*
Y69486D01*
X163180Y69470D01*
Y69439D01*
X163195Y69408D01*
X163219Y69314D01*
X163258Y69197D01*
X163305Y69072D01*
X163367Y68940D01*
X163445Y68823D01*
X163531Y68721D01*
X163546Y68714D01*
X163577Y68682D01*
X163632Y68651D01*
X163710Y68604D01*
X163796Y68565D01*
X163905Y68527D01*
X164030Y68495D01*
X164162Y68488D01*
X164209D01*
X164240Y68495D01*
X164318Y68503D01*
X164420Y68527D01*
X164544Y68565D01*
X164669Y68612D01*
X164794Y68690D01*
X164911Y68792D01*
X164926Y68807D01*
X164958Y68846D01*
X165005Y68909D01*
X165067Y69002D01*
X165121Y69111D01*
X165168Y69244D01*
X165199Y69392D01*
X165215Y69556D01*
Y69564D01*
Y69571D01*
Y69595D01*
X165207Y69626D01*
X165199Y69704D01*
X165176Y69805D01*
X165145Y69914D01*
X165090Y70039D01*
X165020Y70156D01*
X164926Y70265D01*
X164911Y70281D01*
X164880Y70312D01*
X164817Y70351D01*
X164732Y70406D01*
X164630Y70460D01*
X164505Y70499D01*
X164373Y70531D01*
X164217Y70546D01*
X164147D01*
X164092Y70538D01*
X164030Y70531D01*
X163952Y70523D01*
X163866Y70507D01*
X163772Y70484D01*
X163843Y71037D01*
X163882D01*
X163913Y71030D01*
X164014D01*
X164084Y71037D01*
X164186Y71053D01*
X164295Y71076D01*
X164412Y71115D01*
X164537Y71162D01*
X164661Y71232D01*
X164677Y71240D01*
X164716Y71271D01*
X164763Y71326D01*
X164825Y71396D01*
X164888Y71482D01*
X164934Y71591D01*
X164973Y71724D01*
X164989Y71880D01*
Y71887D01*
Y71895D01*
Y71934D01*
X164973Y71996D01*
X164958Y72082D01*
X164934Y72168D01*
X164888Y72262D01*
X164833Y72363D01*
X164755Y72449D01*
X164747Y72456D01*
X164716Y72488D01*
X164661Y72527D01*
X164591Y72566D01*
X164505Y72613D01*
X164404Y72644D01*
X164287Y72675D01*
X164154Y72683D01*
X164092D01*
X164022Y72667D01*
X163944Y72652D01*
X163843Y72628D01*
X163741Y72581D01*
X163640Y72527D01*
X163538Y72449D01*
X163531Y72441D01*
X163500Y72410D01*
X163461Y72355D01*
X163414Y72277D01*
X163359Y72184D01*
X163312Y72067D01*
X163266Y71926D01*
X163234Y71762D01*
X162603Y71872D01*
Y71880D01*
X162611Y71903D01*
X162618Y71934D01*
X162626Y71973D01*
X162642Y72028D01*
X162657Y72090D01*
X162712Y72230D01*
X162774Y72386D01*
X162868Y72550D01*
X162977Y72706D01*
X163117Y72846D01*
X163125Y72854D01*
X163133Y72862D01*
X163156Y72878D01*
X163195Y72901D01*
X163234Y72924D01*
X163281Y72956D01*
X163398Y73026D01*
X163546Y73088D01*
X163726Y73143D01*
X163921Y73182D01*
X164030Y73197D01*
X164209D01*
X164287Y73190D01*
D02*
G37*
G36*
X161659Y70211D02*
Y70203D01*
Y70180D01*
Y70141D01*
Y70086D01*
X161651Y70016D01*
Y69946D01*
X161644Y69860D01*
X161636Y69766D01*
X161612Y69571D01*
X161581Y69369D01*
X161542Y69166D01*
X161480Y68987D01*
Y68979D01*
X161472Y68963D01*
X161464Y68940D01*
X161449Y68909D01*
X161402Y68831D01*
X161339Y68721D01*
X161254Y68604D01*
X161145Y68480D01*
X161004Y68363D01*
X160848Y68246D01*
X160840D01*
X160825Y68230D01*
X160802Y68222D01*
X160763Y68199D01*
X160723Y68183D01*
X160669Y68160D01*
X160599Y68129D01*
X160529Y68105D01*
X160451Y68082D01*
X160357Y68051D01*
X160263Y68027D01*
X160154Y68012D01*
X159920Y67981D01*
X159655Y67965D01*
X159585D01*
X159538Y67973D01*
X159476D01*
X159406Y67981D01*
X159328Y67988D01*
X159242Y67996D01*
X159055Y68027D01*
X158860Y68066D01*
X158657Y68129D01*
X158478Y68207D01*
X158470D01*
X158454Y68222D01*
X158439Y68230D01*
X158408Y68253D01*
X158322Y68308D01*
X158228Y68394D01*
X158119Y68495D01*
X158018Y68612D01*
X157916Y68760D01*
X157830Y68924D01*
Y68932D01*
X157823Y68948D01*
X157815Y68971D01*
X157799Y69010D01*
X157784Y69057D01*
X157768Y69119D01*
X157753Y69189D01*
X157737Y69267D01*
X157714Y69353D01*
X157698Y69447D01*
X157682Y69556D01*
X157667Y69665D01*
X157651Y69790D01*
X157643Y69922D01*
X157636Y70063D01*
Y70211D01*
Y73174D01*
X158314D01*
Y70211D01*
Y70203D01*
Y70180D01*
Y70148D01*
Y70102D01*
Y70047D01*
X158322Y69985D01*
X158330Y69837D01*
X158345Y69681D01*
X158361Y69517D01*
X158392Y69361D01*
X158408Y69291D01*
X158431Y69228D01*
X158439Y69213D01*
X158454Y69174D01*
X158485Y69119D01*
X158532Y69049D01*
X158587Y68971D01*
X158665Y68885D01*
X158751Y68807D01*
X158860Y68737D01*
X158875Y68729D01*
X158914Y68714D01*
X158977Y68682D01*
X159063Y68659D01*
X159172Y68628D01*
X159297Y68597D01*
X159437Y68581D01*
X159593Y68573D01*
X159663D01*
X159718Y68581D01*
X159780D01*
X159850Y68589D01*
X160006Y68612D01*
X160186Y68659D01*
X160357Y68714D01*
X160521Y68799D01*
X160599Y68846D01*
X160661Y68909D01*
Y68916D01*
X160677Y68924D01*
X160692Y68948D01*
X160708Y68979D01*
X160739Y69018D01*
X160763Y69064D01*
X160794Y69127D01*
X160825Y69197D01*
X160848Y69283D01*
X160879Y69376D01*
X160911Y69478D01*
X160934Y69603D01*
X160950Y69735D01*
X160965Y69875D01*
X160981Y70039D01*
Y70211D01*
Y73174D01*
X161659D01*
Y70211D01*
D02*
G37*
D81*
X59380Y127000D02*
G03*
X59380Y127000I-3500J0D01*
G01*
Y184800D02*
G03*
X59380Y184800I-3500J0D01*
G01*
M02*
