G04*
G04 #@! TF.GenerationSoftware,Altium Limited,Altium Designer,22.11.1 (43)*
G04*
G04 Layer_Color=128*
%FSLAX44Y44*%
%MOMM*%
G71*
G04*
G04 #@! TF.SameCoordinates,9E3D4236-1486-42F4-8DBD-DBFDAF104F79*
G04*
G04*
G04 #@! TF.FilePolarity,Positive*
G04*
G01*
G75*
%ADD13C,0.1270*%
D13*
X349410Y194310D02*
X356410D01*
X352910Y190810D02*
Y197810D01*
X336710Y194310D02*
X343710D01*
X340210Y190810D02*
Y197810D01*
X349410Y117360D02*
X356410D01*
X352910Y113860D02*
Y120860D01*
X336710Y117360D02*
X343710D01*
X340210Y113860D02*
Y120860D01*
X349410Y219710D02*
X356410D01*
X352910Y216210D02*
Y223210D01*
X336710Y219710D02*
X343710D01*
X340210Y216210D02*
Y223210D01*
X349410Y142630D02*
X356410D01*
X352910Y139130D02*
Y146130D01*
X336710Y142630D02*
X343710D01*
X340210Y139130D02*
Y146130D01*
X349410Y167900D02*
X356410D01*
X352910Y164400D02*
Y171400D01*
X336710Y167900D02*
X343710D01*
X340210Y164400D02*
Y171400D01*
X52380Y127000D02*
X59380D01*
X55880Y123500D02*
Y130500D01*
X52380Y184800D02*
X59380D01*
X55880Y181300D02*
Y188300D01*
X16080Y112653D02*
X22080D01*
X19080Y109653D02*
Y115653D01*
X58083Y112653D02*
X64083D01*
X61083Y109653D02*
Y115653D01*
X16080Y199152D02*
X22080D01*
X19080Y196152D02*
Y202152D01*
X58083Y199152D02*
X64082D01*
X61083Y196152D02*
Y202152D01*
X250460Y220980D02*
X252460D01*
X251460Y219980D02*
Y221980D01*
X250460Y233680D02*
X252460D01*
X251460Y232680D02*
Y234680D01*
X240300Y224790D02*
X242300D01*
X241300Y223790D02*
Y225790D01*
X235220Y238760D02*
X237220D01*
X236220Y237760D02*
Y239760D01*
X470170Y179070D02*
X472170D01*
X471170Y178070D02*
Y180070D01*
X115840Y123190D02*
X117840D01*
X116840Y122190D02*
Y124190D01*
X161560Y280670D02*
X163560D01*
X162560Y279670D02*
Y281670D01*
X239030Y149860D02*
X241030D01*
X240030Y148860D02*
Y150860D01*
X47260Y54610D02*
X49260D01*
X48260Y53610D02*
Y55610D01*
X24400Y25400D02*
X26400D01*
X25400Y24400D02*
Y26400D01*
X18050Y81280D02*
X20050D01*
X19050Y80280D02*
Y82280D01*
X20590Y50800D02*
X22590D01*
X21590Y49800D02*
Y51800D01*
X73930Y54610D02*
X75930D01*
X74930Y53610D02*
Y55610D01*
X157750Y199390D02*
X159750D01*
X158750Y198390D02*
Y200390D01*
X169180Y240030D02*
X171180D01*
X170180Y239030D02*
Y241030D01*
X165370Y212090D02*
X167370D01*
X166370Y211090D02*
Y213090D01*
X167910Y222250D02*
X169910D01*
X168910Y221250D02*
Y223250D01*
X159020Y228600D02*
X161020D01*
X160020Y227600D02*
Y229600D01*
X232680Y100330D02*
X234680D01*
X233680Y99330D02*
Y101330D01*
X250460Y100330D02*
X252460D01*
X251460Y99330D02*
Y101330D01*
X250460Y83820D02*
X252460D01*
X251460Y82820D02*
Y84820D01*
X207280Y86360D02*
X209280D01*
X208280Y85360D02*
Y87360D01*
X235220Y255270D02*
X237220D01*
X236220Y254270D02*
Y256270D01*
X320310Y285750D02*
X322310D01*
X321310Y284750D02*
Y286750D01*
X380000Y273050D02*
X382000D01*
X381000Y272050D02*
Y274050D01*
X395240Y281940D02*
X397240D01*
X396240Y280940D02*
Y282940D01*
X358410Y283210D02*
X360410D01*
X359410Y282210D02*
Y284210D01*
X435880Y232410D02*
X437880D01*
X436880Y231410D02*
Y233410D01*
X420640Y215900D02*
X422640D01*
X421640Y214900D02*
Y216900D01*
X470170Y207010D02*
X472170D01*
X471170Y206010D02*
Y208010D01*
X470170Y121920D02*
X472170D01*
X471170Y120920D02*
Y122920D01*
X439690Y46990D02*
X441690D01*
X440690Y45990D02*
Y47990D01*
X426990Y80010D02*
X428990D01*
X427990Y79010D02*
Y81010D01*
X307610Y48260D02*
X309610D01*
X308610Y47260D02*
Y49260D01*
X320310Y67310D02*
X322310D01*
X321310Y66310D02*
Y68310D01*
X298720Y67310D02*
X300720D01*
X299720Y66310D02*
Y68310D01*
X292370Y83820D02*
X294370D01*
X293370Y82820D02*
Y84820D01*
X170450Y189230D02*
X172450D01*
X171450Y188230D02*
Y190230D01*
X148860Y284480D02*
X150860D01*
X149860Y283480D02*
Y285480D01*
X186960Y284480D02*
X188960D01*
X187960Y283480D02*
Y285480D01*
X231410Y283210D02*
X233410D01*
X232410Y282210D02*
Y284210D01*
X306340Y256540D02*
X308340D01*
X307340Y255540D02*
Y257540D01*
X146320Y116840D02*
X148320D01*
X147320Y115840D02*
Y117840D01*
X179340Y129540D02*
X181340D01*
X180340Y128540D02*
Y130540D01*
X113300Y87630D02*
X115300D01*
X114300Y86630D02*
Y88630D01*
X118380Y102870D02*
X120380D01*
X119380Y101870D02*
Y103870D01*
X134890Y193040D02*
X136890D01*
X135890Y192040D02*
Y194040D01*
X148860Y209550D02*
X150860D01*
X149860Y208550D02*
Y210550D01*
X132350Y217170D02*
X134350D01*
X133350Y216170D02*
Y218170D01*
X82820Y283210D02*
X84820D01*
X83820Y282210D02*
Y284210D01*
X51070Y284480D02*
X53070D01*
X52070Y283480D02*
Y285480D01*
X12970Y262890D02*
X14970D01*
X13970Y261890D02*
Y263890D01*
X15510Y283210D02*
X17510D01*
X16510Y282210D02*
Y284210D01*
X70120Y215900D02*
X72120D01*
X71120Y214900D02*
Y216900D01*
X68850Y236220D02*
X70850D01*
X69850Y235220D02*
Y237220D01*
X34560Y217170D02*
X36560D01*
X35560Y216170D02*
Y218170D01*
X47260Y233680D02*
X49260D01*
X48260Y232680D02*
Y234680D01*
X12970Y236220D02*
X14970D01*
X13970Y235220D02*
Y237220D01*
X35830Y259080D02*
X37830D01*
X36830Y258080D02*
Y260080D01*
X70120Y271780D02*
X72120D01*
X71120Y270780D02*
Y272780D01*
X204740Y252730D02*
X206740D01*
X205740Y251730D02*
Y253730D01*
X219980Y262890D02*
X221980D01*
X220980Y261890D02*
Y263890D01*
X468900Y276860D02*
X470900D01*
X469900Y275860D02*
Y277860D01*
X468900Y234950D02*
X470900D01*
X469900Y233950D02*
Y235950D01*
X428260Y269240D02*
X430260D01*
X429260Y268240D02*
Y270240D01*
X449850Y257810D02*
X451850D01*
X450850Y256810D02*
Y258810D01*
X415560Y242570D02*
X417560D01*
X416560Y241570D02*
Y243570D01*
X386350Y204470D02*
X388350D01*
X387350Y203470D02*
Y205470D01*
X466360Y90170D02*
X468360D01*
X467360Y89170D02*
Y91170D01*
X463820Y48260D02*
X465820D01*
X464820Y47260D02*
Y49260D01*
X162830Y43180D02*
X164830D01*
X163830Y42180D02*
Y44180D01*
X110760Y60960D02*
X112760D01*
X111760Y59960D02*
Y61960D01*
X80280Y85090D02*
X82280D01*
X81280Y84090D02*
Y86090D01*
X44720Y83820D02*
X46720D01*
X45720Y82820D02*
Y84820D01*
X481600Y22860D02*
X483600D01*
X482600Y21860D02*
Y23860D01*
X440960Y21590D02*
X442960D01*
X441960Y20590D02*
Y22590D01*
X405400Y21590D02*
X407400D01*
X406400Y20590D02*
Y22590D01*
X372380Y22860D02*
X374380D01*
X373380Y21860D02*
Y23860D01*
X341900Y21590D02*
X343900D01*
X342900Y20590D02*
Y22590D01*
X306340Y22860D02*
X308340D01*
X307340Y21860D02*
Y23860D01*
X270780Y22860D02*
X272780D01*
X271780Y21860D02*
Y23860D01*
X225060Y22860D02*
X227060D01*
X226060Y21860D02*
Y23860D01*
X178070Y22860D02*
X180070D01*
X179070Y21860D02*
Y23860D01*
X139970Y25400D02*
X141970D01*
X140970Y24400D02*
Y26400D01*
X106950Y26670D02*
X108950D01*
X107950Y25670D02*
Y27670D01*
X79010Y27940D02*
X81010D01*
X80010Y26940D02*
Y28940D01*
X48530Y27940D02*
X50530D01*
X49530Y26940D02*
Y28940D01*
X123460Y231140D02*
X125460D01*
X124460Y230140D02*
Y232140D01*
X227600Y60960D02*
X229600D01*
X228600Y59960D02*
Y61960D01*
X202350Y123190D02*
X204350D01*
X203350Y122190D02*
Y124190D01*
X192675Y102235D02*
X194675D01*
X193675Y101235D02*
Y103235D01*
X195850Y138430D02*
X197850D01*
X196850Y137430D02*
Y139430D01*
X79010Y171450D02*
X81010D01*
X80010Y170450D02*
Y172450D01*
X88670Y199390D02*
X91670D01*
X90170Y197890D02*
Y200890D01*
X79010Y149606D02*
X81010D01*
X80010Y148606D02*
Y150606D01*
X283178Y208280D02*
X285178D01*
X284178Y207280D02*
Y209280D01*
X283480Y218440D02*
X285480D01*
X284480Y217440D02*
Y219440D01*
X312690Y146050D02*
X314690D01*
X313690Y145050D02*
Y147050D01*
X319040Y157035D02*
X321040D01*
X320040Y156035D02*
Y158035D01*
X214900Y157480D02*
X216900D01*
X215900Y156480D02*
Y158480D01*
X209820Y139700D02*
X211820D01*
X210820Y138700D02*
Y140700D01*
X283480Y199390D02*
X285480D01*
X284480Y198390D02*
Y200390D01*
X397882Y133248D02*
X399882D01*
X398882Y132248D02*
Y134248D01*
X407940Y92710D02*
X409940D01*
X408940Y91710D02*
Y93710D01*
X382540Y97790D02*
X384540D01*
X383540Y96790D02*
Y98790D01*
X300546Y166880D02*
X302546D01*
X301546Y165880D02*
Y167880D01*
X350790Y237059D02*
X352790D01*
X351790Y236059D02*
Y238059D01*
X234787Y155373D02*
X236787D01*
X235787Y154373D02*
Y156373D01*
X299355Y234315D02*
X301355D01*
X300355Y233315D02*
Y235315D01*
X360950Y236220D02*
X362950D01*
X361950Y235220D02*
Y237220D01*
X405400Y200660D02*
X407400D01*
X406400Y199660D02*
Y201660D01*
X330080Y116840D02*
X332080D01*
X331080Y115840D02*
Y117840D01*
X390160Y161290D02*
X392160D01*
X391160Y160290D02*
Y162290D01*
X390160Y144780D02*
X392160D01*
X391160Y143780D02*
Y145780D01*
X396510Y171450D02*
X398510D01*
X397510Y170450D02*
Y172450D01*
X228930Y157420D02*
X230930D01*
X229930Y156420D02*
Y158420D01*
X222520Y157480D02*
X224520D01*
X223520Y156480D02*
Y158480D01*
X399050Y111760D02*
X401050D01*
X400050Y110760D02*
Y112760D01*
X366030Y97790D02*
X368030D01*
X367030Y96790D02*
Y98790D01*
X373650Y97790D02*
X375650D01*
X374650Y96790D02*
Y98790D01*
X357140Y97790D02*
X359140D01*
X358140Y96790D02*
Y98790D01*
X293100Y165640D02*
X295100D01*
X294100Y164640D02*
Y166640D01*
X303800Y187960D02*
X305800D01*
X304800Y186960D02*
Y188960D01*
X328203Y98095D02*
X330203D01*
X329203Y97095D02*
Y99095D01*
X299355Y285115D02*
X301355D01*
X300355Y284115D02*
Y286115D01*
X218040Y181010D02*
X220040D01*
X219040Y180010D02*
Y182010D01*
X264430Y77470D02*
X266430D01*
X265430Y76470D02*
Y78470D01*
X348250Y97790D02*
X350250D01*
X349250Y96790D02*
Y98790D01*
X272050Y161290D02*
X274050D01*
X273050Y160290D02*
Y162290D01*
X259350Y173990D02*
X261350D01*
X260350Y172990D02*
Y174990D01*
X218040Y207680D02*
X220040D01*
X219040Y206680D02*
Y208680D01*
X218040Y234350D02*
X220040D01*
X219040Y233350D02*
Y235350D01*
X277130Y49530D02*
X279130D01*
X278130Y48530D02*
Y50530D01*
X131080Y72390D02*
X133080D01*
X132080Y71390D02*
Y73390D01*
X341030Y266300D02*
X343030D01*
X342030Y265300D02*
Y267300D01*
X299355Y276225D02*
X301355D01*
X300355Y275225D02*
Y277225D01*
X457380Y152310D02*
X459380D01*
X458380Y151310D02*
Y153310D01*
X400161Y45879D02*
X402161D01*
X401161Y44879D02*
Y46879D01*
X360158Y46469D02*
X362158D01*
X361158Y45469D02*
Y47469D01*
X350157Y46628D02*
X352157D01*
X351157Y45628D02*
Y47628D01*
X345157Y46708D02*
X347157D01*
X346157Y45708D02*
Y47708D01*
X184700Y43460D02*
X186700D01*
X185700Y42460D02*
Y44460D01*
M02*
