M48
;Layer_Color=9474304
;FILE_FORMAT=4:4
METRIC,TZ
;TYPE=PLATED
T1F00S00C0.2000
T3F00S00C0.7000
T4F00S00C3.0000
%
T01
X36576Y68072
X59182
X79248Y57912
X63500Y106934
X66112Y114237
X65024Y126492
X70612Y123444
X77228Y126758
X83058Y126492
X101092
X119380Y124817
X127000Y103378
X140208Y113284
X143510Y118364
X149240Y123810
X148844Y171450
X154185Y167932
X140462Y169926
X140684Y178022
X143234Y183410
X147320Y188468
X141732Y197866
X149380Y210594
X164338Y212852
X159766Y217678
X159004Y242570
X158242Y248158
X149606Y247650
X150876Y272542
X156972Y268224
X163322Y263652
X119634Y260350
X121412Y251714
X103378Y251206
X109220Y242316
X102616Y235966
X107696Y227584
X121666
X118872Y181610
X113284Y175768
X85598Y172466
X77978Y171958
X56134Y171704
X52547Y181387
X48514Y165862
X49022Y150368
Y200152
X48768Y211836
X67564Y222504
X72390Y235966
X79502Y208534
X90678Y290322
X115062Y291084
X140970
X118110Y320548
X102108Y326136
X130048Y339090
X175260Y199390
X179832Y165608
X99314Y106426
X31750Y93980
X24384Y111760
T03
X91138Y50080
X139638
T04
X25317Y25076
X205317
Y325075
X25317
M30
