G04*
G04 #@! TF.GenerationSoftware,Altium Limited,Altium Designer,22.11.1 (43)*
G04*
G04 Layer_Color=255*
%FSLAX44Y44*%
%MOMM*%
G71*
G04*
G04 #@! TF.SameCoordinates,B8883E9C-D705-438C-9963-9241EE4E2B18*
G04*
G04*
G04 #@! TF.FilePolarity,Positive*
G04*
G01*
G75*
%ADD22R,0.6500X0.6000*%
%ADD23R,0.4000X0.5100*%
%ADD24R,0.3000X0.4000*%
%ADD25C,0.2000*%
%ADD26P,0.6788X4X270.0*%
%ADD27O,1.9075X0.6090*%
%ADD28R,0.9906X2.8448*%
%ADD29R,0.6096X1.7018*%
%ADD30R,2.0000X2.0000*%
%ADD31O,0.7500X0.2000*%
%ADD32O,0.2000X0.7500*%
%ADD33R,0.4000X0.3000*%
%ADD34R,0.4000X0.2700*%
%ADD35C,1.0000*%
%ADD36R,0.2700X0.4000*%
%ADD37R,0.6000X0.6500*%
%ADD56R,0.4000X1.6000*%
%ADD58C,1.0000*%
%ADD59O,1.0000X1.6000*%
%ADD60C,4.0000*%
D22*
X36576Y102870D02*
D03*
Y111872D02*
D03*
X95758Y136794D02*
D03*
Y145796D02*
D03*
X89154Y215250D02*
D03*
Y206248D02*
D03*
X119126Y216083D02*
D03*
Y207081D02*
D03*
D23*
X53848Y144272D02*
D03*
X43848D02*
D03*
X48848Y157272D02*
D03*
X181022Y172766D02*
D03*
X176022Y159766D02*
D03*
X186022D02*
D03*
D24*
X79248Y180848D02*
D03*
X73750D02*
D03*
X156673Y203454D02*
D03*
X151175D02*
D03*
X52070Y136144D02*
D03*
X46572D02*
D03*
X74004Y213614D02*
D03*
X79502D02*
D03*
X82460Y120904D02*
D03*
X76962D02*
D03*
X161634Y173736D02*
D03*
X167132D02*
D03*
X161380Y165862D02*
D03*
X166878D02*
D03*
X183806Y152146D02*
D03*
X178308D02*
D03*
X78232Y165100D02*
D03*
X83730D02*
D03*
X69760D02*
D03*
X64262D02*
D03*
X40640Y173482D02*
D03*
X35142D02*
D03*
X143854Y162306D02*
D03*
X149352D02*
D03*
X74213Y192786D02*
D03*
X79711D02*
D03*
X80010Y201676D02*
D03*
X74512D02*
D03*
D25*
X45974Y85852D02*
D03*
X38862D02*
D03*
Y93980D02*
D03*
X45974D02*
D03*
D26*
X42442Y89915D02*
D03*
D27*
X205076Y260684D02*
D03*
Y247984D02*
D03*
Y235284D02*
D03*
Y222584D02*
D03*
X134776D02*
D03*
Y235284D02*
D03*
Y247984D02*
D03*
Y260684D02*
D03*
D28*
X65613Y334431D02*
D03*
X165113D02*
D03*
D29*
X84113Y302431D02*
D03*
X96613D02*
D03*
X109113D02*
D03*
X121613D02*
D03*
X134113D02*
D03*
X146613D02*
D03*
D30*
X113030Y176022D02*
D03*
D31*
X132780Y190022D02*
D03*
Y186022D02*
D03*
Y182022D02*
D03*
Y178022D02*
D03*
Y174022D02*
D03*
Y170022D02*
D03*
Y166022D02*
D03*
Y162022D02*
D03*
X93280D02*
D03*
Y166022D02*
D03*
Y170022D02*
D03*
Y174022D02*
D03*
Y178022D02*
D03*
Y182022D02*
D03*
Y186022D02*
D03*
Y190022D02*
D03*
D32*
X127030Y156272D02*
D03*
X123030D02*
D03*
X119030D02*
D03*
X115030D02*
D03*
X111030D02*
D03*
X107030D02*
D03*
X103030D02*
D03*
X99030D02*
D03*
Y195772D02*
D03*
X103030D02*
D03*
X107030D02*
D03*
X111030D02*
D03*
X115030D02*
D03*
X119030D02*
D03*
X123030D02*
D03*
X127030D02*
D03*
D33*
X98298Y207608D02*
D03*
Y213106D02*
D03*
X56134Y160528D02*
D03*
Y166026D02*
D03*
X56642Y93218D02*
D03*
Y87720D02*
D03*
Y106934D02*
D03*
Y101436D02*
D03*
X130048Y144018D02*
D03*
Y138520D02*
D03*
X33274Y152310D02*
D03*
Y146812D02*
D03*
X63500Y148844D02*
D03*
Y154342D02*
D03*
X64008Y140925D02*
D03*
Y135427D02*
D03*
X41656Y160274D02*
D03*
Y165772D02*
D03*
X98298Y226986D02*
D03*
Y221488D02*
D03*
X180340Y181864D02*
D03*
Y187362D02*
D03*
X164592Y280715D02*
D03*
Y286213D02*
D03*
X47752Y107188D02*
D03*
Y101690D02*
D03*
X139192Y208026D02*
D03*
Y213524D02*
D03*
X121666Y143928D02*
D03*
Y138430D02*
D03*
X113284Y144018D02*
D03*
Y138520D02*
D03*
X104648Y143928D02*
D03*
Y138430D02*
D03*
X86868Y145751D02*
D03*
Y140253D02*
D03*
X129286Y213016D02*
D03*
Y207518D02*
D03*
D34*
X32766Y159766D02*
D03*
Y164865D02*
D03*
X89408Y227603D02*
D03*
Y222504D02*
D03*
X107950Y207518D02*
D03*
Y212617D02*
D03*
D35*
X64008Y189992D02*
D03*
X178308Y290830D02*
D03*
X53340Y300990D02*
D03*
X116332Y94996D02*
D03*
X79756Y86868D02*
D03*
X130810Y119380D02*
D03*
X54356Y122936D02*
D03*
X103378Y94996D02*
D03*
X150622Y137922D02*
D03*
X151384Y150622D02*
D03*
X80010Y251206D02*
D03*
X140716Y127254D02*
D03*
D36*
X76708Y113030D02*
D03*
X81807D02*
D03*
X79248Y222250D02*
D03*
X74149D02*
D03*
X198393Y175768D02*
D03*
X193294D02*
D03*
X121920Y284480D02*
D03*
X116821D02*
D03*
X94507Y120904D02*
D03*
X89408D02*
D03*
X117367Y121158D02*
D03*
X112268D02*
D03*
X100838D02*
D03*
X105937D02*
D03*
X96520Y282956D02*
D03*
X91421D02*
D03*
X138938Y284480D02*
D03*
X133839D02*
D03*
X36232Y75946D02*
D03*
X41331D02*
D03*
D37*
X59294Y76454D02*
D03*
X50292D02*
D03*
D56*
X102388Y51331D02*
D03*
X108888D02*
D03*
X115388D02*
D03*
X121888D02*
D03*
X128388D02*
D03*
D58*
X91138Y50080D02*
D03*
X139638D02*
D03*
D59*
X79138Y23580D02*
D03*
X151638D02*
D03*
D60*
X25317Y325075D02*
D03*
X205317D02*
D03*
X25317Y25076D02*
D03*
X205317D02*
D03*
M02*
