G04*
G04 #@! TF.GenerationSoftware,Altium Limited,Altium Designer,22.11.1 (43)*
G04*
G04 Layer_Color=8421504*
%FSLAX44Y44*%
%MOMM*%
G71*
G04*
G04 #@! TF.SameCoordinates,B8883E9C-D705-438C-9963-9241EE4E2B18*
G04*
G04*
G04 #@! TF.FilePolarity,Positive*
G04*
G01*
G75*
%ADD22R,0.6500X0.6000*%
%ADD23R,0.4000X0.5100*%
%ADD24R,0.3000X0.4000*%
%ADD25C,0.2000*%
%ADD26P,0.6788X4X270.0*%
%ADD27O,1.9075X0.6090*%
%ADD28R,0.9906X2.8448*%
%ADD29R,0.6096X1.7018*%
%ADD30R,2.0000X2.0000*%
%ADD31O,0.7500X0.2000*%
%ADD32O,0.2000X0.7500*%
%ADD33R,0.4000X0.3000*%
%ADD34R,0.4000X0.2700*%
%ADD35C,1.0000*%
%ADD36R,0.2700X0.4000*%
%ADD37R,0.6000X0.6500*%
G36*
X40693Y94165D02*
X38193Y91665D01*
X37692D01*
Y95166D01*
X40693D01*
Y94165D01*
D02*
G37*
G36*
X47192Y91165D02*
X44192Y94165D01*
Y95166D01*
X47192D01*
Y91165D01*
D02*
G37*
G36*
Y84666D02*
X44192D01*
Y85165D01*
Y85665D01*
X46692Y88165D01*
X47192D01*
Y84666D01*
D02*
G37*
G36*
X40693Y85665D02*
Y84666D01*
X37692D01*
Y88165D01*
X38193D01*
X40693Y85665D01*
D02*
G37*
G36*
X141410Y54756D02*
X143380Y53396D01*
X144492Y51277D01*
Y48884D01*
X143380Y46765D01*
X141410Y45405D01*
X139035Y45117D01*
X136797Y45966D01*
X135210Y47757D01*
X134637Y50080D01*
X135210Y52404D01*
X136797Y54195D01*
X139035Y55044D01*
X141410Y54756D01*
D02*
G37*
G36*
X92912D02*
X94881Y53396D01*
X95993Y51277D01*
Y48884D01*
X94881Y46765D01*
X92912Y45405D01*
X90536Y45117D01*
X88299Y45966D01*
X86712Y47757D01*
X86139Y50080D01*
X86712Y52404D01*
X88299Y54195D01*
X90536Y55044D01*
X92912Y54756D01*
D02*
G37*
G36*
X130388Y43330D02*
X126388D01*
Y59330D01*
X130388D01*
Y43330D01*
D02*
G37*
G36*
X123888D02*
X119888D01*
Y59330D01*
X123888D01*
Y43330D01*
D02*
G37*
G36*
X117388D02*
X113388D01*
Y59330D01*
X117388D01*
Y43330D01*
D02*
G37*
G36*
X110888D02*
X106888D01*
Y59330D01*
X110888D01*
Y43330D01*
D02*
G37*
G36*
X104388D02*
X100388D01*
Y59330D01*
X104388D01*
Y43330D01*
D02*
G37*
G36*
X152013Y31567D02*
X152261Y31542D01*
X152507Y31505D01*
X152752Y31455D01*
X152993Y31394D01*
X153231Y31320D01*
X153466Y31235D01*
X153695Y31138D01*
X153920Y31030D01*
X154139Y30911D01*
X154352Y30781D01*
X154558Y30640D01*
X154756Y30490D01*
X154947Y30329D01*
X155130Y30160D01*
X155304Y29981D01*
X155469Y29794D01*
X155625Y29600D01*
X155770Y29397D01*
X155906Y29188D01*
X156030Y28972D01*
X156144Y28750D01*
X156246Y28523D01*
X156337Y28291D01*
X156417Y28054D01*
X156484Y27814D01*
X156540Y27571D01*
X156583Y27326D01*
X156614Y27078D01*
X156633Y26830D01*
X156639Y26581D01*
Y20581D01*
X156633Y20331D01*
X156614Y20083D01*
X156583Y19835D01*
X156540Y19590D01*
X156484Y19347D01*
X156417Y19107D01*
X156337Y18870D01*
X156246Y18638D01*
X156144Y18411D01*
X156030Y18189D01*
X155906Y17974D01*
X155770Y17764D01*
X155625Y17562D01*
X155469Y17367D01*
X155304Y17180D01*
X155130Y17001D01*
X154947Y16832D01*
X154756Y16672D01*
X154558Y16521D01*
X154352Y16380D01*
X154139Y16250D01*
X153920Y16131D01*
X153695Y16023D01*
X153466Y15926D01*
X153231Y15841D01*
X152993Y15768D01*
X152752Y15706D01*
X152507Y15657D01*
X152261Y15619D01*
X152013Y15595D01*
X151764Y15582D01*
X151514D01*
X151265Y15595D01*
X151017Y15619D01*
X150771Y15657D01*
X150527Y15706D01*
X150285Y15768D01*
X150047Y15841D01*
X149812Y15926D01*
X149583Y16023D01*
X149358Y16131D01*
X149139Y16250D01*
X148926Y16380D01*
X148720Y16521D01*
X148522Y16672D01*
X148331Y16832D01*
X148148Y17001D01*
X147974Y17180D01*
X147809Y17367D01*
X147653Y17562D01*
X147508Y17764D01*
X147373Y17974D01*
X147248Y18189D01*
X147134Y18411D01*
X147032Y18638D01*
X146940Y18870D01*
X146861Y19107D01*
X146794Y19347D01*
X146738Y19590D01*
X146695Y19835D01*
X146664Y20083D01*
X146645Y20331D01*
X146639Y20581D01*
Y26581D01*
X146645Y26830D01*
X146664Y27078D01*
X146695Y27326D01*
X146738Y27571D01*
X146794Y27814D01*
X146861Y28054D01*
X146940Y28291D01*
X147032Y28523D01*
X147134Y28750D01*
X147248Y28972D01*
X147373Y29188D01*
X147508Y29397D01*
X147653Y29600D01*
X147809Y29794D01*
X147974Y29981D01*
X148148Y30160D01*
X148331Y30329D01*
X148522Y30490D01*
X148720Y30640D01*
X148926Y30781D01*
X149139Y30911D01*
X149358Y31030D01*
X149583Y31138D01*
X149812Y31235D01*
X150047Y31320D01*
X150285Y31394D01*
X150527Y31455D01*
X150771Y31505D01*
X151017Y31542D01*
X151265Y31567D01*
X151514Y31579D01*
X151764D01*
X152013Y31567D01*
D02*
G37*
G36*
X79511D02*
X79759Y31542D01*
X80005Y31505D01*
X80250Y31455D01*
X80491Y31394D01*
X80730Y31320D01*
X80964Y31235D01*
X81194Y31138D01*
X81418Y31030D01*
X81637Y30911D01*
X81850Y30781D01*
X82056Y30640D01*
X82255Y30490D01*
X82446Y30329D01*
X82628Y30160D01*
X82802Y29981D01*
X82968Y29794D01*
X83123Y29600D01*
X83269Y29397D01*
X83404Y29188D01*
X83528Y28972D01*
X83642Y28750D01*
X83745Y28523D01*
X83836Y28291D01*
X83915Y28054D01*
X83983Y27814D01*
X84038Y27571D01*
X84081Y27326D01*
X84112Y27078D01*
X84131Y26830D01*
X84137Y26581D01*
Y20581D01*
X84131Y20331D01*
X84112Y20083D01*
X84081Y19835D01*
X84038Y19590D01*
X83983Y19347D01*
X83915Y19107D01*
X83836Y18870D01*
X83745Y18638D01*
X83642Y18411D01*
X83528Y18189D01*
X83404Y17974D01*
X83269Y17764D01*
X83123Y17562D01*
X82968Y17367D01*
X82802Y17180D01*
X82628Y17001D01*
X82446Y16832D01*
X82255Y16672D01*
X82056Y16521D01*
X81850Y16380D01*
X81637Y16250D01*
X81418Y16131D01*
X81194Y16023D01*
X80964Y15926D01*
X80730Y15841D01*
X80491Y15768D01*
X80250Y15706D01*
X80005Y15657D01*
X79759Y15619D01*
X79511Y15595D01*
X79262Y15582D01*
X79012D01*
X78764Y15595D01*
X78516Y15619D01*
X78269Y15657D01*
X78025Y15706D01*
X77783Y15768D01*
X77545Y15841D01*
X77311Y15926D01*
X77081Y16023D01*
X76856Y16131D01*
X76637Y16250D01*
X76424Y16380D01*
X76219Y16521D01*
X76020Y16672D01*
X75829Y16832D01*
X75646Y17001D01*
X75472Y17180D01*
X75307Y17367D01*
X75152Y17562D01*
X75006Y17764D01*
X74871Y17974D01*
X74746Y18189D01*
X74632Y18411D01*
X74530Y18638D01*
X74439Y18870D01*
X74359Y19107D01*
X74292Y19347D01*
X74236Y19590D01*
X74193Y19835D01*
X74162Y20083D01*
X74143Y20331D01*
X74137Y20581D01*
Y26581D01*
X74143Y26830D01*
X74162Y27078D01*
X74193Y27326D01*
X74236Y27571D01*
X74292Y27814D01*
X74359Y28054D01*
X74439Y28291D01*
X74530Y28523D01*
X74632Y28750D01*
X74746Y28972D01*
X74871Y29188D01*
X75006Y29397D01*
X75152Y29600D01*
X75307Y29794D01*
X75472Y29981D01*
X75646Y30160D01*
X75829Y30329D01*
X76020Y30490D01*
X76219Y30640D01*
X76424Y30781D01*
X76637Y30911D01*
X76856Y31030D01*
X77081Y31138D01*
X77311Y31235D01*
X77545Y31320D01*
X77783Y31394D01*
X78025Y31455D01*
X78269Y31505D01*
X78516Y31542D01*
X78764Y31567D01*
X79012Y31579D01*
X79262D01*
X79511Y31567D01*
D02*
G37*
D22*
X36576Y102870D02*
D03*
Y111872D02*
D03*
X95758Y136794D02*
D03*
Y145796D02*
D03*
X89154Y215250D02*
D03*
Y206248D02*
D03*
X119126Y216083D02*
D03*
Y207081D02*
D03*
D23*
X53848Y144272D02*
D03*
X43848D02*
D03*
X48848Y157272D02*
D03*
X181022Y172766D02*
D03*
X176022Y159766D02*
D03*
X186022D02*
D03*
D24*
X79248Y180848D02*
D03*
X73750D02*
D03*
X156673Y203454D02*
D03*
X151175D02*
D03*
X52070Y136144D02*
D03*
X46572D02*
D03*
X74004Y213614D02*
D03*
X79502D02*
D03*
X82460Y120904D02*
D03*
X76962D02*
D03*
X161634Y173736D02*
D03*
X167132D02*
D03*
X161380Y165862D02*
D03*
X166878D02*
D03*
X183806Y152146D02*
D03*
X178308D02*
D03*
X78232Y165100D02*
D03*
X83730D02*
D03*
X69760D02*
D03*
X64262D02*
D03*
X40640Y173482D02*
D03*
X35142D02*
D03*
X143854Y162306D02*
D03*
X149352D02*
D03*
X74213Y192786D02*
D03*
X79711D02*
D03*
X80010Y201676D02*
D03*
X74512D02*
D03*
D25*
X45974Y85852D02*
D03*
X38862D02*
D03*
Y93980D02*
D03*
X45974D02*
D03*
D26*
X42442Y89915D02*
D03*
D27*
X205076Y260684D02*
D03*
Y247984D02*
D03*
Y235284D02*
D03*
Y222584D02*
D03*
X134776D02*
D03*
Y235284D02*
D03*
Y247984D02*
D03*
Y260684D02*
D03*
D28*
X65613Y334431D02*
D03*
X165113D02*
D03*
D29*
X84113Y302431D02*
D03*
X96613D02*
D03*
X109113D02*
D03*
X121613D02*
D03*
X134113D02*
D03*
X146613D02*
D03*
D30*
X113030Y176022D02*
D03*
D31*
X132780Y190022D02*
D03*
Y186022D02*
D03*
Y182022D02*
D03*
Y178022D02*
D03*
Y174022D02*
D03*
Y170022D02*
D03*
Y166022D02*
D03*
Y162022D02*
D03*
X93280D02*
D03*
Y166022D02*
D03*
Y170022D02*
D03*
Y174022D02*
D03*
Y178022D02*
D03*
Y182022D02*
D03*
Y186022D02*
D03*
Y190022D02*
D03*
D32*
X127030Y156272D02*
D03*
X123030D02*
D03*
X119030D02*
D03*
X115030D02*
D03*
X111030D02*
D03*
X107030D02*
D03*
X103030D02*
D03*
X99030D02*
D03*
Y195772D02*
D03*
X103030D02*
D03*
X107030D02*
D03*
X111030D02*
D03*
X115030D02*
D03*
X119030D02*
D03*
X123030D02*
D03*
X127030D02*
D03*
D33*
X98298Y207608D02*
D03*
Y213106D02*
D03*
X56134Y160528D02*
D03*
Y166026D02*
D03*
X56642Y93218D02*
D03*
Y87720D02*
D03*
Y106934D02*
D03*
Y101436D02*
D03*
X130048Y144018D02*
D03*
Y138520D02*
D03*
X33274Y152310D02*
D03*
Y146812D02*
D03*
X63500Y148844D02*
D03*
Y154342D02*
D03*
X64008Y140925D02*
D03*
Y135427D02*
D03*
X41656Y160274D02*
D03*
Y165772D02*
D03*
X98298Y226986D02*
D03*
Y221488D02*
D03*
X180340Y181864D02*
D03*
Y187362D02*
D03*
X164592Y280715D02*
D03*
Y286213D02*
D03*
X47752Y107188D02*
D03*
Y101690D02*
D03*
X139192Y208026D02*
D03*
Y213524D02*
D03*
X121666Y143928D02*
D03*
Y138430D02*
D03*
X113284Y144018D02*
D03*
Y138520D02*
D03*
X104648Y143928D02*
D03*
Y138430D02*
D03*
X86868Y145751D02*
D03*
Y140253D02*
D03*
X129286Y213016D02*
D03*
Y207518D02*
D03*
D34*
X32766Y159766D02*
D03*
Y164865D02*
D03*
X89408Y227603D02*
D03*
Y222504D02*
D03*
X107950Y207518D02*
D03*
Y212617D02*
D03*
D35*
X64008Y189992D02*
D03*
X178308Y290830D02*
D03*
X53340Y300990D02*
D03*
X116332Y94996D02*
D03*
X79756Y86868D02*
D03*
X130810Y119380D02*
D03*
X54356Y122936D02*
D03*
X103378Y94996D02*
D03*
X150622Y137922D02*
D03*
X151384Y150622D02*
D03*
X80010Y251206D02*
D03*
X140716Y127254D02*
D03*
D36*
X76708Y113030D02*
D03*
X81807D02*
D03*
X79248Y222250D02*
D03*
X74149D02*
D03*
X198393Y175768D02*
D03*
X193294D02*
D03*
X121920Y284480D02*
D03*
X116821D02*
D03*
X94507Y120904D02*
D03*
X89408D02*
D03*
X117367Y121158D02*
D03*
X112268D02*
D03*
X100838D02*
D03*
X105937D02*
D03*
X96520Y282956D02*
D03*
X91421D02*
D03*
X138938Y284480D02*
D03*
X133839D02*
D03*
X36232Y75946D02*
D03*
X41331D02*
D03*
D37*
X59294Y76454D02*
D03*
X50292D02*
D03*
M02*
