G04*
G04 #@! TF.GenerationSoftware,Altium Limited,Altium Designer,22.11.1 (43)*
G04*
G04 Layer_Physical_Order=2*
G04 Layer_Color=16711680*
%FSLAX44Y44*%
%MOMM*%
G71*
G04*
G04 #@! TF.SameCoordinates,B8883E9C-D705-438C-9963-9241EE4E2B18*
G04*
G04*
G04 #@! TF.FilePolarity,Positive*
G04*
G01*
G75*
%ADD13C,0.3000*%
%ADD18C,0.2540*%
%ADD21C,0.2000*%
%ADD35C,1.0000*%
%ADD55C,0.1270*%
%ADD57C,0.1500*%
%ADD58C,1.0000*%
%ADD59O,1.0000X1.6000*%
%ADD60C,4.0000*%
%ADD61C,0.4000*%
%ADD62C,0.8000*%
%ADD63R,0.6500X0.6500*%
%ADD64R,0.8000X0.8000*%
%ADD65R,0.6000X0.8000*%
%ADD66R,0.8000X0.6000*%
G04:AMPARAMS|DCode=67|XSize=0.8mm|YSize=0.6mm|CornerRadius=0.15mm|HoleSize=0mm|Usage=FLASHONLY|Rotation=180.000|XOffset=0mm|YOffset=0mm|HoleType=Round|Shape=RoundedRectangle|*
%AMROUNDEDRECTD67*
21,1,0.8000,0.3000,0,0,180.0*
21,1,0.5000,0.6000,0,0,180.0*
1,1,0.3000,-0.2500,0.1500*
1,1,0.3000,0.2500,0.1500*
1,1,0.3000,0.2500,-0.1500*
1,1,0.3000,-0.2500,-0.1500*
%
%ADD67ROUNDEDRECTD67*%
G36*
X123007Y63277D02*
X131881Y64593D01*
X140584Y66773D01*
X149031Y69795D01*
X157141Y73631D01*
X164836Y78243D01*
X172042Y83588D01*
X178689Y89613D01*
X184714Y96260D01*
X190059Y103466D01*
X194671Y111161D01*
X198507Y119271D01*
X201529Y127718D01*
X203709Y136421D01*
X205025Y145295D01*
X205404Y152999D01*
X205436Y154256D01*
D01*
X205436Y155524D01*
Y192988D01*
X205436Y194256D01*
X205436D01*
X205404Y195514D01*
X205025Y203217D01*
X203709Y212091D01*
X201529Y220794D01*
X198507Y229241D01*
X194671Y237351D01*
X190059Y245046D01*
X184714Y252252D01*
X178689Y258899D01*
X172042Y264924D01*
X164836Y270269D01*
X157141Y274881D01*
X149031Y278717D01*
X140584Y281739D01*
X131881Y283919D01*
X123007Y285235D01*
X114046Y285676D01*
X105085Y285235D01*
X96211Y283919D01*
X87508Y281739D01*
X79061Y278717D01*
X70951Y274881D01*
X63256Y270269D01*
X56050Y264924D01*
X49403Y258899D01*
X43378Y252252D01*
X38033Y245046D01*
X33421Y237351D01*
X29585Y229241D01*
X26563Y220794D01*
X24383Y212091D01*
X23067Y203217D01*
X22629Y194320D01*
X22656Y194256D01*
Y154256D01*
X22629Y154192D01*
X23067Y145295D01*
X24383Y136421D01*
X26563Y127718D01*
X29585Y119271D01*
X33421Y111161D01*
X38033Y103466D01*
X43378Y96260D01*
X49403Y89613D01*
X56050Y83588D01*
X63256Y78243D01*
X70951Y73631D01*
X79061Y69795D01*
X87508Y66773D01*
X96211Y64593D01*
X105085Y63277D01*
X114046Y62836D01*
X123007Y63277D01*
D02*
G37*
%LPC*%
G36*
X114046Y74066D02*
X105068Y74571D01*
X96202Y76077D01*
X87561Y78566D01*
X79253Y82008D01*
X71383Y86357D01*
X64049Y91561D01*
X57343Y97553D01*
X51351Y104259D01*
X46147Y111593D01*
X41798Y119463D01*
X38356Y127771D01*
X35867Y136412D01*
X34361Y145278D01*
X33856Y154256D01*
X33936D01*
Y194256D01*
X33856D01*
X34361Y203234D01*
X35867Y212100D01*
X38356Y220741D01*
X41798Y229049D01*
X46147Y236919D01*
X51351Y244253D01*
X57343Y250959D01*
X64049Y256951D01*
X71383Y262155D01*
X79253Y266504D01*
X87561Y269946D01*
X96202Y272435D01*
X105068Y273941D01*
X114046Y274446D01*
X123024Y273941D01*
X131890Y272435D01*
X140531Y269946D01*
X148839Y266504D01*
X156709Y262155D01*
X164044Y256951D01*
X170749Y250959D01*
X176741Y244253D01*
X181945Y236919D01*
X186294Y229049D01*
X189736Y220741D01*
X192225Y212100D01*
X193731Y203234D01*
X194236Y194256D01*
X194156D01*
Y154256D01*
X194236D01*
X193731Y145278D01*
X192225Y136412D01*
X189736Y127771D01*
X186294Y119463D01*
X181945Y111593D01*
X176741Y104259D01*
X170749Y97553D01*
X164044Y91561D01*
X156709Y86357D01*
X148839Y82008D01*
X140531Y78566D01*
X131890Y76077D01*
X123024Y74571D01*
X114046Y74066D01*
D02*
G37*
%LPD*%
D13*
X106012Y210058D02*
X113380Y217426D01*
Y218426D01*
X105918Y210058D02*
X106012D01*
X105156Y209296D02*
X105918Y210058D01*
X89380Y217426D02*
X97510Y209296D01*
X105156D01*
X89380Y217426D02*
Y218426D01*
X66303Y114046D02*
X102616D01*
X66112Y114237D02*
X66303Y114046D01*
X91640Y251366D02*
X103218D01*
X91480Y251526D02*
X91640Y251366D01*
X103218D02*
X103378Y251206D01*
X67755Y220685D02*
X69880Y218560D01*
X67564Y222504D02*
X67755Y222313D01*
X69880Y218560D02*
X77246D01*
X67755Y220685D02*
Y222313D01*
X65024Y120142D02*
Y126492D01*
X60452Y115570D02*
X65024Y120142D01*
X60452Y110253D02*
Y115570D01*
X63500Y106934D02*
Y107205D01*
X60452Y110253D02*
X63500Y107205D01*
X102616Y114046D02*
X108887Y120317D01*
X77304Y133350D02*
X77380Y133426D01*
X77304Y126834D02*
Y133350D01*
X77228Y126758D02*
X77304Y126834D01*
X121600Y251526D02*
X135280D01*
X108887Y120317D02*
X113380Y124810D01*
Y133426D01*
X125380Y123094D02*
Y133426D01*
X122603Y120317D02*
X125380Y123094D01*
X108887Y120317D02*
X122603D01*
X115824Y227584D02*
X121666D01*
X107696Y227855D02*
X109220Y229379D01*
Y242316D01*
X107696Y227584D02*
Y227855D01*
X113380Y225140D02*
X115824Y227584D01*
X119634Y339906D02*
X129232D01*
X130048Y339090D01*
X48768Y211836D02*
Y212090D01*
X72390Y235712D01*
Y235966D01*
X49022Y185183D02*
X52547Y181657D01*
X49022Y185183D02*
Y200152D01*
X52547Y181387D02*
Y181657D01*
X113380Y218426D02*
Y225140D01*
X111135Y339906D02*
X119634D01*
X77246Y218560D02*
X77366Y218440D01*
X83249Y126683D02*
X83637D01*
X89380Y132426D01*
X83058Y126492D02*
X83249Y126683D01*
X89380Y132426D02*
Y133426D01*
X101346Y234442D02*
X101380Y234408D01*
Y218426D02*
Y234408D01*
D18*
X205317Y325075D02*
Y346076D01*
Y325075D02*
X226318D01*
X184317D02*
X205317D01*
Y304076D02*
Y325075D01*
X140970Y291084D02*
Y294084D01*
Y291084D02*
X143970D01*
X137970D02*
X140970D01*
X135280Y251526D02*
X139280D01*
X131280D02*
X135280D01*
Y256526D01*
Y246526D02*
Y251526D01*
X121412Y251714D02*
X124412D01*
X121412D02*
Y254714D01*
X121666Y227584D02*
Y230584D01*
X121412Y248714D02*
Y251714D01*
X163380Y193926D02*
X168380D01*
X163380D02*
Y197926D01*
Y189926D02*
Y193926D01*
X121666Y227584D02*
X124666D01*
X118666D02*
X121666D01*
Y224584D02*
Y227584D01*
X113380Y218426D02*
Y223426D01*
Y218426D02*
X117380D01*
X109380D02*
X113380D01*
Y213426D02*
Y218426D01*
X114380Y181926D02*
X119380D01*
X124380D01*
X119380D02*
Y186926D01*
X107380Y181926D02*
X112380D01*
X107380D02*
Y186926D01*
X179832Y162608D02*
Y165608D01*
Y168608D01*
X205317Y25076D02*
Y46076D01*
Y25076D02*
X226318D01*
X205317Y4076D02*
Y25076D01*
X184317D02*
X205317D01*
X163380Y169926D02*
Y173926D01*
X158380Y169926D02*
X163380D01*
X168380D01*
X154185Y167932D02*
X157185D01*
X163380Y165926D02*
Y169926D01*
X154185Y167932D02*
Y170932D01*
Y164932D02*
Y167932D01*
X119380Y176926D02*
Y181926D01*
X113284Y175768D02*
Y178768D01*
Y175768D02*
X116284D01*
X110284D02*
X113284D01*
Y172768D02*
Y175768D01*
X107380Y169926D02*
Y174926D01*
X119380Y169926D02*
Y174926D01*
Y169926D02*
X124380D01*
X119380Y164926D02*
Y169926D01*
X114380D02*
X119380D01*
X137380Y133426D02*
Y138426D01*
X143510Y118364D02*
X146510D01*
X143510D02*
Y121364D01*
X151638Y23580D02*
X158138D01*
X151638D02*
Y32580D01*
Y14580D02*
Y23580D01*
X145138D02*
X151638D01*
X133380Y133426D02*
X137380D01*
X141380D01*
X137380Y128426D02*
Y133426D01*
X135280Y100926D02*
X139280D01*
X135280Y95926D02*
Y100926D01*
Y105926D01*
X139638Y50080D02*
Y56080D01*
Y50080D02*
X145638D01*
X139638Y44080D02*
Y50080D01*
X133638D02*
X139638D01*
X127000Y103378D02*
Y106378D01*
Y100378D02*
Y103378D01*
X131280Y100926D02*
X135280D01*
X127000Y103378D02*
X130000D01*
X124000D02*
X127000D01*
X90678Y290322D02*
Y293322D01*
Y290322D02*
X93678D01*
X87678D02*
X90678D01*
X103378Y251206D02*
Y254206D01*
Y251206D02*
X106378D01*
X100378D02*
X103378D01*
Y248206D02*
Y251206D01*
X91480Y251526D02*
Y256526D01*
Y251526D02*
X95480D01*
X87480D02*
X91480D01*
Y246526D02*
Y251526D01*
X89380Y218426D02*
Y223426D01*
Y218426D02*
X93380D01*
X85380D02*
X89380D01*
Y213426D02*
Y218426D01*
X107380Y176926D02*
Y181926D01*
X102380D02*
X107380D01*
X79502Y208534D02*
X82502D01*
X76502D02*
X79502D01*
Y211534D01*
X25317Y325075D02*
X46318D01*
X25317D02*
Y346076D01*
Y304076D02*
Y325075D01*
X4317D02*
X25317D01*
X107380Y169926D02*
X112380D01*
X107380Y164926D02*
Y169926D01*
X102380D02*
X107380D01*
X97380Y133426D02*
X101380D01*
X105380D01*
X101380D02*
Y138426D01*
X101092Y126492D02*
X104092D01*
X98092D02*
X101092D01*
Y123492D02*
Y126492D01*
X99314Y106426D02*
X102314D01*
X99314Y103426D02*
Y106426D01*
X96314D02*
X99314D01*
X91480Y100926D02*
Y105926D01*
Y100926D02*
X95480D01*
X91480Y95926D02*
Y100926D01*
X87480D02*
X91480D01*
X79248Y57912D02*
Y60912D01*
Y57912D02*
X82248D01*
X91138Y50080D02*
X97138D01*
X91138D02*
Y56080D01*
X85138Y50080D02*
X91138D01*
X79248Y54912D02*
Y57912D01*
X91138Y44080D02*
Y50080D01*
X79138Y23580D02*
Y32580D01*
X76248Y57912D02*
X79248D01*
X72638Y23580D02*
X79138D01*
X85638D01*
X79138Y14580D02*
Y23580D01*
X48514Y165862D02*
X51514D01*
X49022Y150368D02*
X52022D01*
X48514Y165862D02*
Y168862D01*
X45514Y165862D02*
X48514D01*
X49022Y150368D02*
Y153368D01*
X48514Y162862D02*
Y165862D01*
X46022Y150368D02*
X49022D01*
Y147368D02*
Y150368D01*
X70612Y123444D02*
Y126444D01*
Y120444D02*
Y123444D01*
X24384Y111760D02*
Y114760D01*
X21384Y111760D02*
X24384D01*
Y108760D02*
Y111760D01*
X31750Y93980D02*
Y96980D01*
X28750Y93980D02*
X31750D01*
X34750D01*
X31750Y90980D02*
Y93980D01*
X59182Y68072D02*
X62182D01*
X59182D02*
Y71072D01*
Y65072D02*
Y68072D01*
X56182D02*
X59182D01*
X36576D02*
X39576D01*
X36576Y65072D02*
Y68072D01*
Y71072D01*
X33576Y68072D02*
X36576D01*
X25317Y25076D02*
Y46076D01*
X4317Y25076D02*
X25317D01*
X46318D01*
X25317Y4076D02*
Y25076D01*
D21*
X154185Y167932D02*
X161386D01*
X162578Y169124D01*
X91480Y101926D02*
X95980Y106426D01*
X123952D01*
X137380Y124494D02*
X143510Y118364D01*
X107380Y181926D02*
X119380D01*
X113284Y175768D02*
X113538D01*
X113030D02*
X113284D01*
X163380Y193926D02*
X169796D01*
X175260Y199390D01*
X127000Y103378D02*
X129452Y100926D01*
X123952Y106426D02*
X127000Y103378D01*
X129452Y100926D02*
X135280D01*
X113538Y175768D02*
X119380Y169926D01*
X107380D02*
X119380D01*
X107380D02*
Y181926D01*
X137380Y124494D02*
Y133426D01*
X91138Y50080D02*
X139638D01*
Y38581D02*
Y50080D01*
Y38581D02*
X151638Y26580D01*
X79138D02*
X91138Y38581D01*
Y50080D01*
X91480Y100926D02*
Y101926D01*
X101092Y126492D02*
X101380Y126780D01*
Y133426D01*
X77366Y218440D02*
X77380Y218426D01*
D35*
X115316Y279920D02*
D03*
D55*
X226952Y325075D02*
G03*
X226952Y325075I-21635J0D01*
G01*
X175625Y203007D02*
G03*
X175625Y195773I-365J-3617D01*
G01*
X165880Y189291D02*
G03*
X169015Y192426I0J3135D01*
G01*
Y195426D02*
G03*
X165880Y198561I-3135J0D01*
G01*
X172866Y180366D02*
G03*
X171875Y177973I2394J-2394D01*
G01*
X172866Y180366D02*
G03*
X171875Y177973I2394J-2394D01*
G01*
X141353Y287469D02*
G03*
X144605Y291084I-383J3615D01*
G01*
D02*
G03*
X138928Y288077I-3635J0D01*
G01*
X131067Y343612D02*
G03*
X129232Y344041I-1834J-3706D01*
G01*
X134683Y339090D02*
G03*
X131067Y343612I-4635J0D01*
G01*
Y343612D02*
G03*
X129232Y344041I-1834J-3706D01*
G01*
X126813Y335771D02*
G03*
X134683Y339090I3235J3319D01*
G01*
X166199Y244063D02*
G03*
X165208Y246457I-3385J0D01*
G01*
X166199Y244063D02*
G03*
X165208Y246457I-3385J0D01*
G01*
X162827Y248837D02*
G03*
X153826Y249566I-4585J-679D01*
G01*
X153826D02*
G03*
X149451Y243018I-4220J-1917D01*
G01*
X125047Y251714D02*
G03*
X119810Y254977I-3635J0D01*
G01*
X122745Y320548D02*
G03*
X122304Y322521I-4635J0D01*
G01*
X113916D02*
G03*
X122745Y320548I4194J-1973D01*
G01*
X118695Y291199D02*
G03*
X111433Y291300I-3633J-115D01*
G01*
X124269Y260350D02*
G03*
X115035Y259776I-4635J0D01*
G01*
X120664Y255831D02*
G03*
X124269Y260350I-1030J4519D01*
G01*
X113431Y258172D02*
G03*
X112439Y255778I2394J-2394D01*
G01*
X113431Y258172D02*
G03*
X112439Y255778I2394J-2394D01*
G01*
X119209Y248823D02*
G03*
X125047Y251714I2203J2891D01*
G01*
X125301Y227584D02*
G03*
X120771Y224061I-3635J0D01*
G01*
X113355Y240222D02*
G03*
X113827Y241812I-4135J2094D01*
G01*
X112207Y226519D02*
G03*
X113355Y229379I-2987J2859D01*
G01*
X112207Y226519D02*
G03*
X113355Y229379I-2987J2859D01*
G01*
X167723Y209686D02*
G03*
X168973Y212852I-3385J3166D01*
G01*
X146629Y224061D02*
G03*
X145649Y226168I-3373J-287D01*
G01*
X146629Y224061D02*
G03*
X145649Y226168I-3373J-287D01*
G01*
X166731Y203092D02*
G03*
X167723Y205486I-2394J2394D01*
G01*
X166731Y203092D02*
G03*
X167723Y205486I-2394J2394D01*
G01*
X145153Y208692D02*
G03*
X148139Y206128I4227J1902D01*
G01*
X144125Y227691D02*
G03*
X141732Y228683I-2394J-2394D01*
G01*
X144125Y227691D02*
G03*
X141732Y228683I-2394J-2394D01*
G01*
X132745Y218563D02*
G03*
X131938Y216369I2578J-2194D01*
G01*
X132745Y218563D02*
G03*
X131938Y216369I2578J-2194D01*
G01*
X143947Y201937D02*
G03*
X140755Y193335I-2216J-4071D01*
G01*
X157745Y192426D02*
G03*
X160880Y189291I3135J0D01*
G01*
X155510Y185311D02*
G03*
X153116Y184319I0J-3385D01*
G01*
X155510Y185311D02*
G03*
X153116Y184319I0J-3385D01*
G01*
X147847Y183863D02*
G03*
X151952Y188313I-527J4605D01*
G01*
X140755Y193335D02*
G03*
X139849Y191030I2479J-2305D01*
G01*
X140755Y193335D02*
G03*
X139849Y191030I2479J-2305D01*
G01*
X145168Y179197D02*
G03*
X147869Y183410I-1933J4212D01*
G01*
X139849Y186576D02*
G03*
X138751Y182234I3385J-3166D01*
G01*
X150023Y181226D02*
G03*
X149031Y178832I2394J-2394D01*
G01*
X150023Y181226D02*
G03*
X149031Y178832I2394J-2394D01*
G01*
X145316Y178177D02*
G03*
X145168Y179197I-4632J-155D01*
G01*
X122561Y224061D02*
G03*
X125301Y227584I-895J3523D01*
G01*
X110708Y224061D02*
G03*
X112207Y226519I-3012J3523D01*
G01*
X127508Y192449D02*
G03*
X129902Y193440I0J3385D01*
G01*
X127508Y192449D02*
G03*
X129902Y193440I0J3385D01*
G01*
X178645Y162172D02*
G03*
X180765Y162095I1187J3436D01*
G01*
Y169121D02*
G03*
X178645Y169044I-933J-3513D01*
G01*
X186544Y144164D02*
G03*
X187535Y146558I-2394J2394D01*
G01*
X186544Y144164D02*
G03*
X187535Y146558I-2394J2394D01*
G01*
X177654Y147212D02*
G03*
X178645Y149606I-2394J2394D01*
G01*
X177654Y147212D02*
G03*
X178645Y149606I-2394J2394D01*
G01*
X226952Y25076D02*
G03*
X226952Y25076I-21635J0D01*
G01*
X154810Y172555D02*
G03*
X155801Y174949I-2394J2394D01*
G01*
X154810Y172555D02*
G03*
X155801Y174949I-2394J2394D01*
G01*
X157745Y168668D02*
G03*
X153801Y171546I-3560J-736D01*
G01*
X147911Y166910D02*
G03*
X150630Y167173I933J4540D01*
G01*
D02*
G03*
X157745Y167196I3555J759D01*
G01*
X152105Y139061D02*
G03*
X151124Y141191I-3375J-264D01*
G01*
X152105Y139061D02*
G03*
X151124Y141191I-3375J-264D01*
G01*
X147457Y175873D02*
G03*
X146919Y176574I-2931J-1693D01*
G01*
X147457Y175873D02*
G03*
X146919Y176574I-2931J-1693D01*
G01*
X148764Y176084D02*
G03*
X147457Y175873I80J-4634D01*
G01*
X138751Y182234D02*
G03*
X138319Y174036I1933J-4212D01*
G01*
Y174036D02*
G03*
X137077Y166760I2143J-4110D01*
G01*
X147329Y155849D02*
G03*
X149723Y154857I2394J2394D01*
G01*
X147329Y155849D02*
G03*
X149723Y154857I2394J2394D01*
G01*
X137077Y147066D02*
G03*
X138069Y144672I3385J0D01*
G01*
X137077Y147066D02*
G03*
X138069Y144672I3385J0D01*
G01*
X146826Y119853D02*
G03*
X153859Y123418I2414J3956D01*
G01*
X146867Y127791D02*
G03*
X145166Y121600I2373J-3981D01*
G01*
X147145Y118364D02*
G03*
X146826Y119853I-3635J0D01*
G01*
X151316Y110339D02*
G03*
X153709Y111330I0J3385D01*
G01*
X151316Y110339D02*
G03*
X153709Y111330I0J3385D01*
G01*
X146921Y117109D02*
G03*
X147145Y118364I-3411J1255D01*
G01*
X144503Y21081D02*
G03*
X158773Y21081I7135J0D01*
G01*
Y26080D02*
G03*
X144503Y26080I-7135J0D01*
G01*
X145166Y121600D02*
G03*
X139904Y117909I-1656J-3236D01*
G01*
X128304Y120170D02*
G03*
X129515Y123094I-2924J2924D01*
G01*
X120745Y128186D02*
G03*
X118015Y128186I-1365J-3369D01*
G01*
X128296Y120162D02*
G03*
X129515Y123094I-2916J2932D01*
G01*
X139904Y117909D02*
G03*
X143787Y110339I304J-4625D01*
G01*
X146273Y50080D02*
G03*
X146273Y50080I-6635J0D01*
G01*
X130635Y103378D02*
G03*
X130635Y103378I-3635J0D01*
G01*
X122603Y116182D02*
G03*
X125535Y117401I0J4135D01*
G01*
X122603Y116182D02*
G03*
X125527Y117393I0J4135D01*
G01*
X104054Y330791D02*
G03*
X103119Y330659I0J-3385D01*
G01*
D02*
G03*
X106232Y324021I-1011J-4523D01*
G01*
X104054Y330791D02*
G03*
X103119Y330659I0J-3385D01*
G01*
X94313Y290322D02*
G03*
X88060Y287800I-3635J0D01*
G01*
X94176Y289332D02*
G03*
X94313Y290322I-3498J990D01*
G01*
X107013Y251206D02*
G03*
X107013Y251206I-3635J0D01*
G01*
X112439Y245651D02*
G03*
X105085Y240222I-3219J-3335D01*
G01*
X106015Y223265D02*
G03*
X108745Y223069I1681J4319D01*
G01*
X105085Y239889D02*
G03*
X98098Y237001I-2469J-3923D01*
G01*
D02*
G03*
X97245Y233913I3248J-2559D01*
G01*
X82864Y207153D02*
G03*
X83137Y208534I-3362J1381D01*
G01*
X90233Y172466D02*
G03*
X86214Y177060I-4635J0D01*
G01*
X77025Y235966D02*
G03*
X67885Y237054I-4635J0D01*
G01*
X74243Y231718D02*
G03*
X77025Y235966I-1854J4248D01*
G01*
X83137Y208534D02*
G03*
X76140Y207153I-3635J0D01*
G01*
X75585Y193402D02*
G03*
X74593Y191008I2394J-2394D01*
G01*
X75585Y193402D02*
G03*
X74593Y191008I2394J-2394D01*
G01*
X46953Y325075D02*
G03*
X46953Y325075I-21635J0D01*
G01*
X72195Y222695D02*
G03*
X69319Y226794I-4631J-191D01*
G01*
X63682Y219971D02*
G03*
X64831Y217761I4073J714D01*
G01*
X63274Y220749D02*
G03*
X63682Y219971I4290J1755D01*
G01*
X63682Y219971D02*
G03*
X64840Y217753I4073J714D01*
G01*
X66948Y215644D02*
G03*
X69880Y214425I2932J2916D01*
G01*
X66956Y215636D02*
G03*
X69880Y214425I2924J2924D01*
G01*
X61782Y207153D02*
G03*
X59388Y206161I0J-3385D01*
G01*
X61782Y207153D02*
G03*
X59388Y206161I0J-3385D01*
G01*
X55236Y202010D02*
G03*
X54245Y199616I2394J-2394D01*
G01*
X55236Y202010D02*
G03*
X54245Y199616I2394J-2394D01*
G01*
X46915Y216084D02*
G03*
X53273Y210748I1854J-4248D01*
G01*
X48037Y180320D02*
G03*
X54245Y177074I4511J1067D01*
G01*
X53157Y198058D02*
G03*
X53657Y200152I-4135J2094D01*
G01*
D02*
G03*
X44887Y198058I-4635J0D01*
G01*
Y185183D02*
G03*
X46106Y182251I4135J0D01*
G01*
X44887Y185183D02*
G03*
X46098Y182259I4135J0D01*
G01*
X97697Y127791D02*
G03*
X104727Y126492I3395J-1299D01*
G01*
X102616Y109911D02*
G03*
X105548Y111130I0J4135D01*
G01*
X102616Y109911D02*
G03*
X105540Y111122I0J4135D01*
G01*
X104727Y126492D02*
G03*
X104487Y127791I-3635J0D01*
G01*
X98281Y109911D02*
G03*
X95681Y106561I1033J-3485D01*
G01*
X102949Y106426D02*
G03*
X100347Y109911I-3635J0D01*
G01*
X96115Y104700D02*
G03*
X102949Y106426I3199J1726D01*
G01*
X81963Y169590D02*
G03*
X90233Y172466I3635J2876D01*
G01*
X74593Y175124D02*
G03*
X81963Y169590I3385J-3166D01*
G01*
X79979Y123028D02*
G03*
X87186Y124384I3079J3464D01*
G01*
X72745Y127935D02*
G03*
X72601Y126487I4483J-1177D01*
G01*
X74240Y123215D02*
G03*
X79979Y123028I2988J3543D01*
G01*
X69159Y120112D02*
G03*
X74240Y123215I1453J3332D01*
G01*
X97773Y50080D02*
G03*
X97773Y50080I-6635J0D01*
G01*
X82883Y57912D02*
G03*
X82883Y57912I-3635J0D01*
G01*
X86273Y26080D02*
G03*
X72003Y26080I-7135J0D01*
G01*
Y21081D02*
G03*
X86273Y21081I7135J0D01*
G01*
X54245Y175937D02*
G03*
X57745Y167358I1889J-4233D01*
G01*
X52657Y150368D02*
G03*
X52657Y150368I-3635J0D01*
G01*
X52149Y165862D02*
G03*
X52149Y165862I-3635J0D01*
G01*
X72601Y126487D02*
G03*
X69637Y126946I-1989J-3043D01*
G01*
D02*
G03*
X60889Y124398I-4613J-454D01*
G01*
X68664Y118181D02*
G03*
X69159Y120112I-3640J1961D01*
G01*
X68664Y118181D02*
G03*
X69159Y120112I-3640J1961D01*
G01*
X57536Y118502D02*
G03*
X56317Y115570I2916J-2932D01*
G01*
X57528Y118494D02*
G03*
X56317Y115570I2924J-2924D01*
G01*
Y110253D02*
G03*
X57536Y107321I4135J0D01*
G01*
X56317Y110253D02*
G03*
X57528Y107329I4135J0D01*
G01*
X25096Y115324D02*
G03*
X27591Y110049I-712J-3564D01*
G01*
X68135Y106934D02*
G03*
X67196Y109731I-4635J0D01*
G01*
X58989Y105868D02*
G03*
X68135Y106934I4511J1067D01*
G01*
X35385Y93980D02*
G03*
X35385Y93980I-3635J0D01*
G01*
X62817Y68072D02*
G03*
X62817Y68072I-3635J0D01*
G01*
X40211D02*
G03*
X40211Y68072I-3635J0D01*
G01*
X46953Y25076D02*
G03*
X46953Y25076I-21635J0D01*
G01*
X226620Y321296D02*
X227619D01*
X226413Y320276D02*
X227619D01*
X226776Y322316D02*
X227619D01*
X225843Y318236D02*
X227619D01*
X226155Y319256D02*
X227619D01*
X214304Y344756D02*
X227619D01*
X216266Y343736D02*
X227619D01*
X211608Y345776D02*
X227619D01*
X225047Y316196D02*
X227619D01*
X225474Y317216D02*
X227619D01*
X223995Y314156D02*
X227619D01*
X223360Y313136D02*
X227619D01*
X224555Y315176D02*
X227619D01*
X221830Y311096D02*
X227619D01*
X222642Y312116D02*
X227619D01*
X219859Y309056D02*
X227619D01*
X218649Y308036D02*
X227619D01*
X220909Y310076D02*
X227619D01*
X215518Y305996D02*
X227619D01*
X217231Y307016D02*
X227619D01*
X222947Y337616D02*
X227619D01*
X223630Y336596D02*
X227619D01*
X222175Y338636D02*
X227619D01*
X224765Y334556D02*
X227619D01*
X224233Y335576D02*
X227619D01*
X219168Y341696D02*
X227619D01*
X220308Y340676D02*
X227619D01*
X217843Y342716D02*
X227619D01*
X221301Y339656D02*
X227619D01*
X226268Y330476D02*
X227619D01*
X226504Y329456D02*
X227619D01*
X225978Y331496D02*
X227619D01*
X226826Y327416D02*
X227619D01*
X226690Y328436D02*
X227619D01*
X225633Y332516D02*
X227619D01*
X225230Y333536D02*
X227619D01*
X210014Y303956D02*
X227619D01*
X197518Y243777D02*
X227619D01*
X213324Y304976D02*
X227619D01*
X198740Y241737D02*
X227619D01*
X198129Y242757D02*
X227619D01*
X195072Y247857D02*
X227619D01*
X195683Y246837D02*
X227619D01*
X183509Y262137D02*
X227619D01*
X196906Y244797D02*
X227619D01*
X196295Y245817D02*
X227619D01*
X202329Y234597D02*
X227619D01*
X202811Y233577D02*
X227619D01*
X201847Y235617D02*
X227619D01*
X203741Y231537D02*
X227619D01*
X203294Y232557D02*
X227619D01*
X199917Y239697D02*
X227619D01*
X200399Y238677D02*
X227619D01*
X199352Y240717D02*
X227619D01*
X201364Y236637D02*
X227619D01*
X200882Y237657D02*
X227619D01*
X188132Y257037D02*
X227619D01*
X189027Y256017D02*
X227619D01*
X189832Y254997D02*
X227619D01*
X189329Y255674D02*
X194673Y248468D01*
X184434Y261117D02*
X227619D01*
X185358Y260097D02*
X227619D01*
X187207Y258057D02*
X227619D01*
X186283Y259077D02*
X227619D01*
X193614Y249897D02*
X227619D01*
X194370Y248877D02*
X227619D01*
X194987Y248000D02*
X199599Y240305D01*
X203916Y231176D02*
X206939Y222729D01*
X199865Y239807D02*
X203701Y231697D01*
X191345Y252957D02*
X227619D01*
X190588Y253977D02*
X227619D01*
X192857Y250917D02*
X227619D01*
X192101Y251937D02*
X227619D01*
X134648Y339656D02*
X189334D01*
X134661Y338636D02*
X188460D01*
X134442Y337616D02*
X187688D01*
X144208Y292736D02*
X227619D01*
X143434Y293757D02*
X227619D01*
X124519Y344756D02*
X196331D01*
X130791Y343736D02*
X194369D01*
X132935Y342716D02*
X192792D01*
X133881Y341696D02*
X191467D01*
X134403Y340676D02*
X190327D01*
X146857Y285597D02*
X227619D01*
X149708Y284577D02*
X227619D01*
X144584Y290697D02*
X227619D01*
X154392Y282537D02*
X227619D01*
X152235Y283557D02*
X227619D01*
X144321Y289676D02*
X227619D01*
X143676Y288657D02*
X227619D01*
X144550Y291716D02*
X227619D01*
X144006Y286617D02*
X227619D01*
X142122Y287637D02*
X227619D01*
X133955Y336596D02*
X187005D01*
X133070Y335576D02*
X186402D01*
X131010Y334556D02*
X185870D01*
X124519Y326396D02*
X183723D01*
X124519Y325376D02*
X183685D01*
X124519Y331496D02*
X184657D01*
X124519Y330476D02*
X184367D01*
X124519Y329456D02*
X184131D01*
X124519Y328436D02*
X183945D01*
X124519Y327416D02*
X183810D01*
X124519Y323336D02*
X183752D01*
X122684Y321296D02*
X184015D01*
X124519Y324356D02*
X183694D01*
X122561Y319256D02*
X184480D01*
X122737Y320276D02*
X184221D01*
X122127Y318236D02*
X184792D01*
X122395Y322316D02*
X183859D01*
X119705Y316196D02*
X185588D01*
X121332Y317216D02*
X185161D01*
X167456Y275397D02*
X227619D01*
X168942Y274377D02*
X227619D01*
X165754Y276417D02*
X227619D01*
X171692Y272337D02*
X227619D01*
X170317Y273357D02*
X227619D01*
X158705Y280497D02*
X227619D01*
X160649Y279477D02*
X227619D01*
X156549Y281517D02*
X227619D01*
X164052Y277437D02*
X227619D01*
X162351Y278457D02*
X227619D01*
X179171Y266217D02*
X227619D01*
X180297Y265197D02*
X227619D01*
X178046Y267237D02*
X227619D01*
X182547Y263157D02*
X227619D01*
X181422Y264177D02*
X227619D01*
X174443Y270297D02*
X227619D01*
X173067Y271317D02*
X227619D01*
X176921Y268257D02*
X227619D01*
X175741Y269277D02*
X227619D01*
X175900Y269181D02*
X182548Y263157D01*
X182946Y262758D02*
X188971Y256110D01*
X168259Y274883D02*
X175464Y269539D01*
X172242Y240666D02*
X177072Y233858D01*
X166680Y246890D02*
X172242Y240666D01*
X166199Y242757D02*
X170373D01*
X166199Y241737D02*
X171284D01*
X166199Y243777D02*
X169461D01*
X166199Y239697D02*
X172929D01*
X166199Y240717D02*
X172196D01*
X166199Y233577D02*
X177227D01*
X166199Y232557D02*
X177791D01*
X166199Y234597D02*
X176548D01*
X177072Y233858D02*
X181110Y226552D01*
X166199Y231537D02*
X178355D01*
X166199Y237657D02*
X174376D01*
X166199Y238677D02*
X173653D01*
X166199Y235617D02*
X175824D01*
X166199Y236637D02*
X175100D01*
X209810Y210117D02*
X227619D01*
X209961Y209097D02*
X227619D01*
X209659Y211138D02*
X227619D01*
X210264Y207057D02*
X227619D01*
X210113Y208078D02*
X227619D01*
X204517Y229497D02*
X227619D01*
X204882Y228477D02*
X227619D01*
X204152Y230517D02*
X227619D01*
X209507Y212157D02*
X227619D01*
X205247Y227457D02*
X227619D01*
X210940Y199918D02*
X227619D01*
X210990Y198898D02*
X227619D01*
X210890Y200938D02*
X227619D01*
X211090Y196858D02*
X227619D01*
X211040Y197878D02*
X227619D01*
X210567Y205018D02*
X227619D01*
X210706Y203998D02*
X227619D01*
X210415Y206038D02*
X227619D01*
X210840Y201958D02*
X227619D01*
X210790Y202978D02*
X227619D01*
X207571Y220317D02*
X227619D01*
X207827Y219297D02*
X227619D01*
X207316Y221337D02*
X227619D01*
X208082Y218277D02*
X227619D01*
X207102Y222190D02*
X209282Y213487D01*
X205977Y225417D02*
X227619D01*
X206342Y224397D02*
X227619D01*
X205612Y226437D02*
X227619D01*
X207023Y222357D02*
X227619D01*
X206707Y223377D02*
X227619D01*
X208849Y215217D02*
X227619D01*
X209104Y214197D02*
X227619D01*
X208593Y216237D02*
X227619D01*
X209305Y213178D02*
X227619D01*
X209392Y212934D02*
X210709Y204060D01*
X208338Y217257D02*
X227619D01*
X187535Y205405D02*
X188013Y202590D01*
X187535Y195838D02*
X188392D01*
X187535Y196858D02*
X188335D01*
X211182Y190738D02*
X227619D01*
X211182Y189718D02*
X227619D01*
X211182Y191758D02*
X227619D01*
X211182Y187678D02*
X227619D01*
X211182Y188698D02*
X227619D01*
X211169Y194818D02*
X227619D01*
X211182Y193798D02*
X227619D01*
X211140Y195838D02*
X227619D01*
X211182Y192778D02*
X227619D01*
X211181Y194256D02*
X211182Y192989D01*
Y180538D02*
X227619D01*
X211182Y179518D02*
X227619D01*
X211182Y181558D02*
X227619D01*
X211182Y177478D02*
X227619D01*
X211182Y178498D02*
X227619D01*
X211182Y185638D02*
X227619D01*
X211182Y184618D02*
X227619D01*
X211182Y186658D02*
X227619D01*
X211182Y182578D02*
X227619D01*
X211182Y183598D02*
X227619D01*
X210764Y203499D02*
X211142Y195796D01*
X211147Y195661D02*
X211180Y194403D01*
X188013Y202590D02*
X188466Y194533D01*
X187535Y189718D02*
X188411D01*
X187535Y190738D02*
X188411D01*
X187535Y194818D02*
X188450D01*
X187535Y192778D02*
X188411D01*
X187535Y193798D02*
X188411D01*
X187535Y191758D02*
X188411D01*
X187535Y176891D02*
Y205405D01*
Y180538D02*
X188411D01*
X187535Y179518D02*
X188411D01*
X187535Y181558D02*
X188411D01*
X187535Y177478D02*
X188411D01*
X187535Y178498D02*
X188411D01*
X187535Y187678D02*
X188411D01*
X187535Y188698D02*
X188411D01*
X187535Y182578D02*
X188411D01*
X187535Y183598D02*
X188411D01*
X175118Y221337D02*
X183270D01*
X176138Y220317D02*
X183692D01*
X174098Y222357D02*
X182847D01*
X181110Y226552D02*
X184304Y218840D01*
X177158Y219297D02*
X184115D01*
X171038Y225417D02*
X181580D01*
X172058Y224397D02*
X182002D01*
X170018Y226437D02*
X181157D01*
X166199Y230256D02*
X186544Y209912D01*
X173078Y223377D02*
X182425D01*
X184298Y212157D02*
X186229D01*
X185318Y211138D02*
X186523D01*
X183278Y213178D02*
X185936D01*
X186615Y210819D02*
X186823Y209595D01*
X184304Y218840D02*
X186615Y210819D01*
X179198Y217257D02*
X184760D01*
X180218Y216237D02*
X185054D01*
X178178Y218277D02*
X184466D01*
X182258Y214197D02*
X185642D01*
X181238Y215217D02*
X185348D01*
X168998Y227457D02*
X180610D01*
X168644Y211138D02*
X170917D01*
X168921Y212157D02*
X169897D01*
X168967Y213088D02*
X175625Y206430D01*
X168080Y210117D02*
X171937D01*
X166958Y229497D02*
X179482D01*
X167978Y228477D02*
X180046D01*
X166199Y230517D02*
X178918D01*
X167723Y208078D02*
X173977D01*
X167723Y209097D02*
X172957D01*
X167723Y206038D02*
X175625D01*
X167690Y205018D02*
X175625D01*
X167723Y207057D02*
X174997D01*
X175625Y203007D02*
Y206430D01*
X167378Y203998D02*
X175625D01*
X166617Y202978D02*
X174675D01*
X165597Y201958D02*
X172687D01*
X164577Y200938D02*
X171971D01*
X163557Y199918D02*
X171663D01*
X169015Y194818D02*
X175625D01*
X169015Y193798D02*
X175625D01*
Y183125D02*
Y195773D01*
X169015Y192778D02*
X175625D01*
X168522Y190738D02*
X175625D01*
X167459Y189718D02*
X175625D01*
X168943Y191758D02*
X175625D01*
X151887Y187678D02*
X175625D01*
X152337Y188698D02*
X175625D01*
X187535Y185638D02*
X188411D01*
X187535Y184618D02*
X188411D01*
X187535Y186658D02*
X188411D01*
X180765Y176878D02*
Y178690D01*
X179552Y177478D02*
X180765D01*
X169015Y184618D02*
X175625D01*
X169015Y185638D02*
X175625D01*
X172866Y180366D02*
X175625Y183125D01*
X169015Y183598D02*
X175625D01*
X168669Y196858D02*
X172652D01*
X168988Y195838D02*
X174489D01*
X167834Y197878D02*
X171955D01*
X169015Y177291D02*
Y186561D01*
Y192426D02*
Y195426D01*
X162537Y198898D02*
X171658D01*
X151587Y186658D02*
X175625D01*
X157745Y186561D02*
X169015D01*
Y179518D02*
X172248D01*
X169015Y178498D02*
X171916D01*
X169015Y177478D02*
X171875D01*
X169015Y182578D02*
X175078D01*
X169015Y181558D02*
X174058D01*
X169015Y180538D02*
X173038D01*
X157745Y177291D02*
X169015D01*
X142519Y287149D02*
X150966Y284126D01*
X151487Y283911D02*
X159597Y280075D01*
X160095Y279809D02*
X167790Y275197D01*
X146342Y261320D02*
X153648Y257282D01*
X138630Y264514D02*
X146342Y261320D01*
X153648Y257282D02*
X160456Y252452D01*
X151368Y251937D02*
X155558D01*
X139915D02*
X147844D01*
X152894Y250917D02*
X154518D01*
X139915D02*
X146318D01*
X139915Y256017D02*
X155431D01*
X139915Y254997D02*
X156869D01*
X139915Y257037D02*
X153994D01*
X139915Y252957D02*
X159744D01*
X139915Y253977D02*
X158306D01*
X132223Y289676D02*
X137619D01*
X124519Y344041D02*
X129232D01*
X124519Y335576D02*
X127026D01*
X124519Y335771D02*
X126813D01*
X125347Y290697D02*
X137356D01*
X124519Y322521D02*
Y332291D01*
X133277Y289492D02*
X138928Y288077D01*
X130645Y257161D02*
X139915D01*
X136613Y288657D02*
X138264D01*
X130609Y266825D02*
X138630Y264514D01*
X124828Y252957D02*
X130645D01*
X124959Y250917D02*
X130645D01*
X125040Y251937D02*
X130645D01*
X163807Y247857D02*
X165597D01*
X164827Y246837D02*
X166727D01*
X162827Y248837D02*
X165208Y246457D01*
X162538Y249897D02*
X163314D01*
X162821Y248877D02*
X164456D01*
X160456Y252452D02*
X166680Y246890D01*
X165709Y245817D02*
X167638D01*
X166119Y244797D02*
X168550D01*
X149451Y243018D02*
X151510Y240959D01*
X166199Y230256D02*
Y244063D01*
X151510Y224061D02*
Y240959D01*
X125516Y239697D02*
X151510D01*
X126536Y238677D02*
X151510D01*
X124496Y240717D02*
X151510D01*
X128576Y236637D02*
X151510D01*
X127556Y237657D02*
X151510D01*
X139915Y249897D02*
X145552D01*
X139915Y248877D02*
X145136D01*
X139915Y247857D02*
X144976D01*
X139915Y246837D02*
X145043D01*
X139915Y245891D02*
Y257161D01*
X124560Y249897D02*
X130645D01*
Y245891D02*
X139915D01*
X130645D02*
Y257161D01*
X133676Y231537D02*
X151510D01*
X134696Y230517D02*
X151510D01*
X132656Y232557D02*
X151510D01*
X135716Y229497D02*
X151510D01*
X136530Y228683D02*
X141732D01*
X130616Y234597D02*
X151510D01*
X129596Y235617D02*
X151510D01*
X131636Y233577D02*
X151510D01*
X124757Y229497D02*
X126142D01*
X123850Y290919D02*
X132724Y289602D01*
X122380Y268223D02*
X130609Y266825D01*
X122304Y322521D02*
X124519D01*
X123322Y263157D02*
X141907D01*
X122249Y264177D02*
X139445D01*
X116020Y332291D02*
X124519D01*
X117526Y293757D02*
X138506D01*
X116020Y335021D02*
X124519D01*
X118300Y292736D02*
X137732D01*
X118642Y291716D02*
X137390D01*
X124205Y261117D02*
X146709D01*
X124262Y260097D02*
X148555D01*
X123911Y262137D02*
X144370D01*
X124091Y259077D02*
X150400D01*
X124257Y253977D02*
X130645D01*
X123662Y258057D02*
X152246D01*
X121279Y256017D02*
X130645D01*
X122875Y257037D02*
X130645D01*
X122973Y254997D02*
X130645D01*
X116020Y344791D02*
X124519D01*
X114749Y332291D02*
X116020D01*
X114749Y335021D02*
X116020D01*
X114749Y332291D02*
X116020D01*
X114749Y344791D02*
X116020D01*
X114749Y335021D02*
X116020D01*
X114749Y344791D02*
X116020D01*
X118695Y291199D02*
X123289Y290974D01*
X114046Y268691D02*
X122380Y268223D01*
X119810Y254977D02*
X120664Y255831D01*
X113431Y258172D02*
X115035Y259776D01*
X106939Y251937D02*
X112439D01*
X123685Y248877D02*
X130645D01*
X121436Y243777D02*
X147060D01*
X120416Y244797D02*
X145953D01*
X119209Y247857D02*
X130645D01*
X119209Y246837D02*
X130645D01*
X119396Y245817D02*
X145349D01*
X119209Y246004D02*
X136530Y228683D01*
X122456Y242757D02*
X149712D01*
X123476Y241737D02*
X150732D01*
X123813Y230517D02*
X125122D01*
X113355Y232557D02*
X123082D01*
X113355Y233577D02*
X122062D01*
X113827Y241812D02*
X132734Y222904D01*
X113355Y231537D02*
X124102D01*
X119209Y246004D02*
Y248823D01*
X113570Y240717D02*
X114922D01*
X113355Y239697D02*
X115942D01*
X113355Y229379D02*
Y240222D01*
X106769Y249897D02*
X112439D01*
X110241Y246837D02*
X112439D01*
X107001Y250917D02*
X112439D01*
Y245651D02*
Y255778D01*
X113355Y235617D02*
X120022D01*
X113355Y234597D02*
X121042D01*
X113355Y236637D02*
X119002D01*
X113355Y230517D02*
X119519D01*
X113355Y229497D02*
X118575D01*
X113355Y237657D02*
X117982D01*
X113355Y238677D02*
X116962D01*
X146583Y224397D02*
X151510D01*
X146629Y224061D02*
X151510D01*
X146215Y225417D02*
X151510D01*
X167723Y205486D02*
Y209686D01*
X144360Y227457D02*
X151510D01*
X145380Y226437D02*
X151510D01*
X142894Y228477D02*
X151510D01*
X162200Y198561D02*
X165880D01*
X142499Y206038D02*
X148048D01*
X141479Y205018D02*
X147028D01*
X162200Y198561D02*
X166731Y203092D01*
X143947Y201937D02*
X148139Y206128D01*
X144125Y227691D02*
X145649Y226168D01*
X143519Y207057D02*
X146384D01*
X144539Y208078D02*
X145488D01*
X132745Y218563D02*
Y222894D01*
X140459Y203998D02*
X146008D01*
X131938Y214703D02*
Y216369D01*
X139439Y202978D02*
X144988D01*
X138419Y201958D02*
X139554D01*
X137399Y200938D02*
X138261D01*
X136379Y199918D02*
X137576D01*
X135359Y198898D02*
X137213D01*
X134339Y197878D02*
X137097D01*
X132299Y195838D02*
X137564D01*
X133319Y196858D02*
X137208D01*
X160880Y189291D02*
X165880D01*
X157745Y192426D02*
Y194106D01*
Y185311D02*
Y186561D01*
X155397Y191758D02*
X157817D01*
X154377Y190738D02*
X158238D01*
X156417Y192778D02*
X157745D01*
X153357Y189718D02*
X159301D01*
X151952Y188313D02*
X157745Y194106D01*
X156869Y178498D02*
X157745D01*
X155849Y177478D02*
X157745D01*
X156912Y178541D02*
X157745D01*
Y177291D02*
Y178541D01*
X155801Y177430D02*
X156912Y178541D01*
X155510Y185311D02*
X157745D01*
X150991Y185638D02*
X157745D01*
X149901Y184618D02*
X153458D01*
X147865Y183598D02*
X152395D01*
X150023Y181226D02*
X153116Y184319D01*
X147794Y182578D02*
X151375D01*
X139849Y186576D02*
Y191030D01*
X147483Y181558D02*
X150355D01*
X146872Y180538D02*
X149492D01*
X146015Y177478D02*
X149031D01*
X145751Y179518D02*
X149101D01*
X145295Y178498D02*
X149031D01*
X145316Y178177D02*
X146919Y176574D01*
X125299Y227457D02*
X128182D01*
X125115Y226437D02*
X129202D01*
X125190Y228477D02*
X127162D01*
X123415Y224397D02*
X131242D01*
X124585Y225417D02*
X130222D01*
X122561Y224061D02*
X130015D01*
Y219297D02*
X132745D01*
X130015Y218277D02*
X132527D01*
X130015Y217257D02*
X132057D01*
X130015Y215217D02*
X131938D01*
X130015Y216237D02*
X131938D01*
X130015Y222357D02*
X132745D01*
X130015Y221337D02*
X132745D01*
X130015Y223377D02*
X132262D01*
X130015Y220317D02*
X132745D01*
X118015Y215217D02*
X120745D01*
X113256Y228477D02*
X118142D01*
X118015Y223377D02*
X120745D01*
X112881Y227457D02*
X118033D01*
X118015Y222357D02*
X120745D01*
X111793Y225417D02*
X118747D01*
X111062Y224397D02*
X119917D01*
X112187Y226437D02*
X118217D01*
X110708Y224061D02*
X118015D01*
Y218277D02*
X120745D01*
X118015Y217257D02*
X120745D01*
X118015Y219297D02*
X120745D01*
X118015Y214197D02*
X120745D01*
X118015Y216237D02*
X120745D01*
X118015Y220317D02*
X120745D01*
X118015Y221337D02*
X120745D01*
X130015Y214197D02*
X131432D01*
X131279Y194818D02*
X138240D01*
X130015Y212791D02*
Y224061D01*
X129902Y193440D02*
X145153Y208692D01*
X130259Y193798D02*
X139511D01*
X128765Y211530D02*
X131938Y214703D01*
X128963Y192778D02*
X140335D01*
X128765Y212791D02*
X130015D01*
X125015Y186658D02*
X139849D01*
X125015Y181558D02*
X137687D01*
X125015Y180538D02*
X136791D01*
X125015Y179518D02*
X136297D01*
X125015Y177478D02*
X136081D01*
X125015Y178498D02*
X136074D01*
X125015Y185638D02*
X139170D01*
X125015Y184618D02*
X138759D01*
X125015Y182578D02*
X138674D01*
X125015Y183598D02*
X138603D01*
X120745Y212791D02*
X121995D01*
X128765Y211530D02*
Y212791D01*
X120745D02*
Y224061D01*
X118800Y207153D02*
X121995Y210348D01*
Y212791D01*
X118015Y213178D02*
X120745D01*
X108745Y212791D02*
Y223069D01*
X118015Y212791D02*
Y224061D01*
X108745Y212791D02*
X118015D01*
X113745Y187561D02*
X125015D01*
X113745Y179374D02*
Y187561D01*
X113015Y179393D02*
Y187561D01*
X211182Y167278D02*
X227619D01*
X211182Y166258D02*
X227619D01*
X211182Y168298D02*
X227619D01*
X211182Y164218D02*
X227619D01*
X211182Y165238D02*
X227619D01*
X211182Y172378D02*
X227619D01*
X211182Y171358D02*
X227619D01*
X211182Y173398D02*
X227619D01*
X211182Y169318D02*
X227619D01*
X211182Y170338D02*
X227619D01*
X211182Y159118D02*
X227619D01*
X211182Y158098D02*
X227619D01*
X211182Y160138D02*
X227619D01*
X211182Y156058D02*
X227619D01*
X211182Y157078D02*
X227619D01*
X211182Y162178D02*
X227619D01*
X211182Y161158D02*
X227619D01*
X211182Y163198D02*
X227619D01*
X211177Y154018D02*
X227619D01*
X211182Y155038D02*
X227619D01*
X211182Y175438D02*
X227619D01*
X211182Y174418D02*
X227619D01*
X211182Y176458D02*
X227619D01*
X211182Y155524D02*
Y192988D01*
X188411Y154256D02*
Y194256D01*
X187535Y175438D02*
X188411D01*
X187535Y174418D02*
X188411D01*
X187535Y176458D02*
X188411D01*
X187535Y172378D02*
X188411D01*
X187535Y173398D02*
X188411D01*
X187535Y166258D02*
X188411D01*
X187535Y159118D02*
X188411D01*
X187535Y167278D02*
X188411D01*
X211181Y154256D02*
X211182Y155523D01*
X187535Y152998D02*
X188411D01*
X187535Y170338D02*
X188411D01*
X187535Y171358D02*
X188411D01*
X187535Y168298D02*
X188411D01*
X187535Y169318D02*
X188411D01*
X211106Y151978D02*
X227619D01*
X211056Y150958D02*
X227619D01*
X211151Y152998D02*
X227619D01*
Y2762D02*
Y347377D01*
X209858Y138718D02*
X227619D01*
X209555Y136678D02*
X227619D01*
X209404Y135658D02*
X227619D01*
X209707Y137698D02*
X227619D01*
X208930Y133618D02*
X227619D01*
X209185Y134638D02*
X227619D01*
X208419Y131578D02*
X227619D01*
X208163Y130558D02*
X227619D01*
X208674Y132598D02*
X227619D01*
X207652Y128518D02*
X227619D01*
X207908Y129538D02*
X227619D01*
X207141Y126479D02*
X227619D01*
X206823Y125458D02*
X227619D01*
X207397Y127499D02*
X227619D01*
X206093Y123419D02*
X227619D01*
X206458Y124438D02*
X227619D01*
X211006Y149938D02*
X227619D01*
X210956Y148918D02*
X227619D01*
X211147Y152852D02*
X211180Y154109D01*
X210856Y146878D02*
X227619D01*
X210906Y147898D02*
X227619D01*
X188013Y145922D02*
X188466Y153979D01*
X187535Y151978D02*
X188353D01*
X187535Y146558D02*
Y176877D01*
X210805Y145858D02*
X227619D01*
X210764Y145013D02*
X211142Y152717D01*
X210615Y143818D02*
X227619D01*
X210463Y142798D02*
X227619D01*
X210720Y144838D02*
X227619D01*
X210161Y140758D02*
X227619D01*
X210312Y141778D02*
X227619D01*
X210009Y139738D02*
X227619D01*
X209392Y135578D02*
X210709Y144452D01*
X207102Y126322D02*
X209282Y135025D01*
X203916Y117336D02*
X206939Y125783D01*
X187535Y163198D02*
X188411D01*
X187535Y162178D02*
X188411D01*
X187535Y164218D02*
X188411D01*
X187535Y160138D02*
X188411D01*
X187535Y161158D02*
X188411D01*
X187535Y165238D02*
X188411D01*
X178645Y161158D02*
X180765D01*
X178645Y159118D02*
X180765D01*
X178645Y160138D02*
X180765D01*
X187535Y157078D02*
X188411D01*
X187535Y156058D02*
X188411D01*
X187535Y158098D02*
X188411D01*
X187535Y154018D02*
X188458D01*
X187535Y155038D02*
X188411D01*
X178645Y157078D02*
X180765D01*
X178645Y156058D02*
X180765D01*
X178645Y158098D02*
X180765D01*
X178645Y149938D02*
X180765D01*
X178645Y155038D02*
X180765D01*
X178645Y172378D02*
X180765D01*
X178645Y171358D02*
X180765D01*
X178645Y173398D02*
X180765D01*
Y169121D02*
Y176864D01*
X178645Y170338D02*
X180765D01*
X178645Y176458D02*
X180765D01*
X178645Y175438D02*
X180765D01*
X178645Y176570D02*
X180765Y178690D01*
X178645Y174418D02*
X180765D01*
X178645Y169044D02*
Y176570D01*
Y152998D02*
X180765D01*
X178645Y150958D02*
X180765D01*
X178645Y151978D02*
X180765D01*
X178645Y169318D02*
X180765D01*
X178645Y154018D02*
X180765D01*
X178645Y149606D02*
Y162172D01*
X187066Y144838D02*
X187829D01*
X186615Y137693D02*
X188013Y145922D01*
X186197Y143818D02*
X187656D01*
X185177Y142798D02*
X187482D01*
X184157Y141778D02*
X187309D01*
X183137Y140758D02*
X187136D01*
X182117Y139738D02*
X186963D01*
X153709Y111330D02*
X186544Y144164D01*
X181097Y138718D02*
X186789D01*
X180077Y137698D02*
X186616D01*
X179058Y136678D02*
X186323D01*
X184304Y129672D02*
X186615Y137693D01*
X178037Y135658D02*
X186029D01*
X177017Y134638D02*
X185735D01*
X175998Y133618D02*
X185441D01*
X174977Y132598D02*
X185147D01*
X173958Y131578D02*
X184853D01*
X180765Y147960D02*
Y162095D01*
X178574Y148918D02*
X180765D01*
X178183Y147898D02*
X180703D01*
X177319Y146878D02*
X179683D01*
X176299Y145858D02*
X178663D01*
X175279Y144838D02*
X177643D01*
X149914Y117109D02*
X180765Y147960D01*
X153859Y123418D02*
X177654Y147212D01*
X172938Y130558D02*
X184560D01*
X171917Y129538D02*
X184249D01*
X170898Y128518D02*
X183827D01*
X181110Y121960D02*
X184304Y129672D01*
X169878Y127499D02*
X183404D01*
X168858Y126479D02*
X182981D01*
X167838Y125458D02*
X182559D01*
X166818Y124438D02*
X182136D01*
X165798Y123419D02*
X181714D01*
X205363Y121378D02*
X227619D01*
X197100Y104039D02*
X227619D01*
X205728Y122399D02*
X227619D01*
X195878Y101999D02*
X227619D01*
X196489Y103019D02*
X227619D01*
X194611Y99959D02*
X227619D01*
X193854Y98939D02*
X227619D01*
X195266Y100979D02*
X227619D01*
X192341Y96899D02*
X227619D01*
X193098Y97919D02*
X227619D01*
X190828Y94859D02*
X227619D01*
X211186Y45900D02*
X227619D01*
X191585Y95879D02*
X227619D01*
X216052Y43860D02*
X227619D01*
X214028Y44879D02*
X227619D01*
X189308Y92819D02*
X227619D01*
X188425Y91799D02*
X227619D01*
X190072Y93839D02*
X227619D01*
X186576Y89759D02*
X227619D01*
X187501Y90779D02*
X227619D01*
X204633Y119339D02*
X227619D01*
X204268Y118319D02*
X227619D01*
X204998Y120359D02*
X227619D01*
X203447Y116279D02*
X227619D01*
X203894Y117299D02*
X227619D01*
X202482Y114239D02*
X227619D01*
X202000Y113219D02*
X227619D01*
X202964Y115259D02*
X227619D01*
X201517Y112199D02*
X227619D01*
X199865Y108705D02*
X203701Y116815D01*
X200552Y110159D02*
X227619D01*
X200070Y109139D02*
X227619D01*
X201035Y111179D02*
X227619D01*
X198934Y107099D02*
X227619D01*
X199546Y108119D02*
X227619D01*
X197712Y105059D02*
X227619D01*
X198323Y106079D02*
X227619D01*
X194987Y100512D02*
X199599Y108207D01*
X189329Y92837D02*
X194673Y100043D01*
X226441Y20400D02*
X227619D01*
X226189Y19380D02*
X227619D01*
X226641Y21420D02*
X227619D01*
X225522Y17340D02*
X227619D01*
X225884Y18360D02*
X227619D01*
X225102Y16320D02*
X227619D01*
X224618Y15300D02*
X227619D01*
X217667Y42839D02*
X227619D01*
X223441Y13260D02*
X227619D01*
X224067Y14280D02*
X227619D01*
X221934Y11220D02*
X227619D01*
X221027Y10200D02*
X227619D01*
X222734Y12240D02*
X227619D01*
X218806Y8160D02*
X227619D01*
X219994Y9180D02*
X227619D01*
X215746Y6120D02*
X227619D01*
X217417Y7140D02*
X227619D01*
X210539Y4080D02*
X227619D01*
X213627Y5100D02*
X227619D01*
X223552Y36720D02*
X227619D01*
X224164Y35700D02*
X227619D01*
X222859Y37740D02*
X227619D01*
X225177Y33660D02*
X227619D01*
X224704Y34680D02*
X227619D01*
X220178Y40799D02*
X227619D01*
X221188Y39780D02*
X227619D01*
X219018Y41820D02*
X227619D01*
X222075Y38760D02*
X227619D01*
X226479Y29580D02*
X227619D01*
X226670Y28560D02*
X227619D01*
X226235Y30600D02*
X227619D01*
X226791Y22440D02*
X227619D01*
X226812Y27540D02*
X227619D01*
X225939Y31620D02*
X227619D01*
X225587Y32640D02*
X227619D01*
X176152Y79559D02*
X227619D01*
X174879Y78539D02*
X227619D01*
X185652Y88739D02*
X227619D01*
X172129Y76499D02*
X227619D01*
X173504Y77519D02*
X227619D01*
X169378Y74459D02*
X227619D01*
X167926Y73439D02*
X227619D01*
X170754Y75479D02*
X227619D01*
X164593Y71399D02*
X227619D01*
X166294Y72419D02*
X227619D01*
X161189Y69359D02*
X227619D01*
X159390Y68339D02*
X227619D01*
X162891Y70379D02*
X227619D01*
X155077Y66299D02*
X227619D01*
X157233Y67319D02*
X227619D01*
X150613Y64259D02*
X227619D01*
X147762Y63239D02*
X227619D01*
X152920Y65279D02*
X227619D01*
X141978Y61199D02*
X227619D01*
X144911Y62219D02*
X227619D01*
X164778Y122399D02*
X181292D01*
X163758Y121378D02*
X180789D01*
X162738Y120359D02*
X180225D01*
X182946Y85754D02*
X188971Y92402D01*
X177072Y114654D02*
X181110Y121960D01*
X161718Y119339D02*
X179661D01*
X160698Y118319D02*
X179097D01*
X159678Y117299D02*
X178534D01*
X158658Y116279D02*
X177970D01*
X157638Y115259D02*
X177406D01*
X183803Y86699D02*
X227619D01*
X182845Y85679D02*
X227619D01*
X184727Y87719D02*
X227619D01*
X180654Y83639D02*
X227619D01*
X181779Y84659D02*
X227619D01*
X178403Y81599D02*
X227619D01*
X179529Y82619D02*
X227619D01*
X177278Y80579D02*
X227619D01*
X175900Y79331D02*
X182548Y85356D01*
X144947Y54059D02*
X227619D01*
X145576Y53039D02*
X227619D01*
X144001Y55079D02*
X227619D01*
X146209Y50999D02*
X227619D01*
X145983Y52019D02*
X227619D01*
X133834Y59159D02*
X227619D01*
X127530Y58139D02*
X227619D01*
X137906Y60179D02*
X227619D01*
X142430Y56099D02*
X227619D01*
X114763Y57119D02*
X227619D01*
X146177Y48959D02*
X227619D01*
X145918Y47939D02*
X227619D01*
X146272Y49979D02*
X227619D01*
X145471Y46919D02*
X227619D01*
X144790Y45900D02*
X199449D01*
X143758Y44879D02*
X196607D01*
X141945Y43860D02*
X194583D01*
X158622Y27540D02*
X183823D01*
X158760Y26520D02*
X183731D01*
X158773Y25500D02*
X183687D01*
X158773Y23460D02*
X183743D01*
X158773Y24480D02*
X183691D01*
X154446Y32640D02*
X185048D01*
X156135Y31620D02*
X184696D01*
X157159Y30600D02*
X184400D01*
X157856Y29580D02*
X184156D01*
X158329Y28560D02*
X183965D01*
X158773Y21420D02*
X183994D01*
X158741Y20400D02*
X184194D01*
X158773Y22440D02*
X183844D01*
X158234Y18360D02*
X184751D01*
X158567Y19380D02*
X184446D01*
X156953Y16320D02*
X185533D01*
X157714Y17340D02*
X185113D01*
X153797Y14280D02*
X186569D01*
X155821Y15300D02*
X186017D01*
X169015Y173398D02*
X171875D01*
X169015Y172378D02*
X171875D01*
X169015Y174418D02*
X171875D01*
X169015Y171358D02*
X171875D01*
X169015Y165291D02*
Y174561D01*
X155801Y176458D02*
X171875D01*
X155801Y175438D02*
X171875D01*
X157745Y174561D02*
X169015D01*
Y169318D02*
X171875D01*
X169015Y168298D02*
X171875D01*
X169015Y170338D02*
X171875D01*
X169015Y166258D02*
X171875D01*
X169015Y167278D02*
X171875D01*
X157745Y165291D02*
X169015D01*
X156626Y165238D02*
X171875D01*
X155759Y174418D02*
X157745D01*
X155425Y173398D02*
X157745D01*
X155801Y174949D02*
Y177430D01*
X157745Y168668D02*
Y174561D01*
X154632Y172378D02*
X157745D01*
X149031Y176351D02*
Y178832D01*
X153801Y171546D02*
X154810Y172555D01*
X156910Y170338D02*
X157745D01*
X155400Y171358D02*
X157745D01*
Y165291D02*
Y167196D01*
X147911Y166258D02*
X150959D01*
X147911Y164841D02*
Y166910D01*
X169015Y158098D02*
X171875D01*
X169015Y157078D02*
X171875D01*
X169015Y159118D02*
X171875D01*
Y151008D02*
Y177973D01*
X169015Y156058D02*
X171875D01*
X149554Y163198D02*
X171875D01*
X169015Y162178D02*
X171875D01*
X148534Y164218D02*
X171875D01*
X169015Y160138D02*
X171875D01*
X169015Y161158D02*
X171875D01*
X174259Y143818D02*
X176623D01*
X173239Y142798D02*
X175603D01*
X172219Y141778D02*
X174583D01*
X171199Y140758D02*
X173563D01*
X170179Y139738D02*
X172543D01*
X169015Y155038D02*
X171875D01*
X169015Y154018D02*
X171875D01*
X169159Y138718D02*
X171523D01*
X154015Y133148D02*
X171875Y151008D01*
X168139Y137698D02*
X170503D01*
X157745Y162561D02*
X169015D01*
X157745Y153291D02*
Y154857D01*
Y161627D02*
Y162561D01*
X169015Y153291D02*
Y162561D01*
X157745Y153291D02*
X169015D01*
X151125Y161627D02*
X157745D01*
X149723Y154857D02*
X157745D01*
X150574Y162178D02*
X157745D01*
X148497Y143818D02*
X164685D01*
X149517Y142798D02*
X163665D01*
X151982Y139738D02*
X160605D01*
X154015Y138718D02*
X159585D01*
X152105Y139061D02*
X154015D01*
Y137698D02*
X158565D01*
X154015Y133148D02*
Y139061D01*
X150537Y141778D02*
X162645D01*
X151490Y140758D02*
X161625D01*
X147030Y176458D02*
X149031D01*
X125015Y175438D02*
X136836D01*
X125015Y174418D02*
X137770D01*
X125015Y176458D02*
X136321D01*
X125015Y173398D02*
X137391D01*
X147911Y165238D02*
X151745D01*
X147911Y164841D02*
X151125Y161627D01*
X125015Y165238D02*
X137077D01*
X143847Y157078D02*
X146100D01*
X143847Y158098D02*
X145079D01*
X125015Y172378D02*
X136529D01*
X125015Y168298D02*
X136122D01*
X125015Y171358D02*
X136054D01*
X125015Y166258D02*
X137077D01*
X125015Y167278D02*
X136658D01*
X125015Y176291D02*
Y187561D01*
X116881Y176291D02*
X125015D01*
Y164291D02*
Y175561D01*
X116913D02*
X125015D01*
Y170338D02*
X135845D01*
X125015Y169318D02*
X135867D01*
X113015Y164291D02*
Y172143D01*
X113745Y164291D02*
X125015D01*
X113745D02*
Y172162D01*
X143847Y151978D02*
X171875D01*
X143847Y150958D02*
X171825D01*
X143847Y149938D02*
X170805D01*
X143847Y159331D02*
X147329Y155849D01*
X143847Y155038D02*
X148630D01*
X143847Y156058D02*
X147120D01*
X143847Y152998D02*
X171875D01*
X143847Y154018D02*
X157745D01*
X144417Y147898D02*
X168765D01*
X145437Y146878D02*
X167745D01*
X146457Y145858D02*
X166725D01*
X147477Y144838D02*
X165705D01*
X144745Y127791D02*
Y137996D01*
X143847Y148918D02*
X169785D01*
X143847Y148468D02*
X151124Y141191D01*
X142015Y137698D02*
X144745D01*
X138069Y144672D02*
X144745Y137996D01*
X143847Y148468D02*
Y159331D01*
X137077Y147066D02*
Y166760D01*
X130015Y127791D02*
Y139061D01*
X118015Y128186D02*
Y139061D01*
X120745D02*
X130015D01*
X108745D02*
X118015D01*
X120745Y128186D02*
Y139061D01*
X108745Y127791D02*
Y139061D01*
X132745D02*
X142015D01*
Y138718D02*
X144023D01*
X142015Y127791D02*
Y139061D01*
X132745Y127791D02*
Y139061D01*
X130015Y138718D02*
X132745D01*
X118015D02*
X120745D01*
X130015Y137698D02*
X132745D01*
X118015D02*
X120745D01*
X167120Y136678D02*
X169483D01*
X166099Y135658D02*
X168463D01*
X165079Y134638D02*
X167443D01*
X164060Y133618D02*
X166423D01*
X163039Y132598D02*
X165403D01*
X154015Y136678D02*
X157545D01*
X154015Y135658D02*
X156525D01*
X154015Y134638D02*
X155505D01*
X162020Y131578D02*
X164383D01*
X161000Y130558D02*
X163363D01*
X159979Y129538D02*
X162343D01*
X158960Y128518D02*
X161323D01*
X157940Y127499D02*
X160303D01*
X156920Y126479D02*
X159283D01*
X155900Y125458D02*
X158263D01*
X154880Y124438D02*
X157243D01*
X153860Y123419D02*
X156223D01*
X153655Y122399D02*
X155203D01*
X153187Y121378D02*
X154184D01*
X142015Y130558D02*
X144745D01*
X142015Y129538D02*
X144745D01*
X142015Y131578D02*
X144745D01*
X142015Y128518D02*
X144745D01*
X142015Y135658D02*
X144745D01*
X142015Y134638D02*
X144745D01*
X142015Y136678D02*
X144745D01*
X142015Y132598D02*
X144745D01*
X142015Y133618D02*
X144745D01*
X152334Y120359D02*
X153163D01*
X150462Y119339D02*
X152143D01*
X147012D02*
X148019D01*
X147145Y118319D02*
X151124D01*
X146985Y117299D02*
X150104D01*
X144745Y127791D02*
X146867D01*
X156618Y114239D02*
X176777D01*
X155598Y113219D02*
X176054D01*
X154578Y112199D02*
X175330D01*
X172242Y107846D02*
X177072Y114654D01*
X166680Y101622D02*
X172242Y107846D01*
X153547Y111179D02*
X174606D01*
X143631Y110159D02*
X173883D01*
X142282Y109139D02*
X173159D01*
X139915Y106079D02*
X170662D01*
X139915Y105059D02*
X169751D01*
X160456Y96060D02*
X166680Y101622D01*
X139915Y97919D02*
X162535D01*
X139915Y96899D02*
X161394D01*
X168259Y73629D02*
X175464Y78973D01*
X160095Y68703D02*
X167790Y73315D01*
X139915Y104039D02*
X168839D01*
X139915Y101999D02*
X167016D01*
X139915Y99959D02*
X164818D01*
X139915Y98939D02*
X163677D01*
X146921Y117109D02*
X149914D01*
X153648Y91230D02*
X160456Y96060D01*
X151487Y64601D02*
X159597Y68437D01*
X143787Y110339D02*
X151316D01*
X139915Y95879D02*
X160200D01*
X146342Y87192D02*
X153648Y91230D01*
X139915Y95291D02*
Y106561D01*
X158773Y21081D02*
Y26080D01*
X142519Y61363D02*
X150966Y64386D01*
X144503Y21081D02*
Y26080D01*
X130015Y128518D02*
X132745D01*
Y127791D02*
X142015D01*
X130015Y131578D02*
X132745D01*
X130015Y130558D02*
X132745D01*
X130015Y132598D02*
X132745D01*
X129515Y127499D02*
X146434D01*
X130015Y129538D02*
X132745D01*
X129515Y126479D02*
X145451D01*
X129515Y125458D02*
X144909D01*
X129515Y124438D02*
X144648D01*
X129515Y123419D02*
X144622D01*
X129456Y122399D02*
X144825D01*
X129142Y121378D02*
X141479D01*
X128481Y120359D02*
X140471D01*
X127472Y119339D02*
X140008D01*
X126452Y118319D02*
X139875D01*
X130015Y135658D02*
X132745D01*
X130015Y134638D02*
X132745D01*
X130015Y136678D02*
X132745D01*
X130015Y133618D02*
X132745D01*
X118015Y131578D02*
X120745D01*
X118015Y135658D02*
X120745D01*
X118015Y134638D02*
X120745D01*
X118015Y136678D02*
X120745D01*
X118015Y132598D02*
X120745D01*
X118015Y133618D02*
X120745D01*
X129515Y123094D02*
Y127791D01*
X125535Y117401D02*
X128296Y120162D01*
X118015Y129538D02*
X120745D01*
X118015Y130558D02*
X120745D01*
X118015Y128518D02*
X120745D01*
X109245Y126523D02*
Y127791D01*
X139915Y103019D02*
X167928D01*
X139915Y100979D02*
X165959D01*
X125429Y117299D02*
X137892D01*
X123491Y116279D02*
X136670D01*
X109676Y115259D02*
X136015D01*
X130645Y106561D02*
X139915D01*
X138630Y83998D02*
X146342Y87192D01*
X133277Y59020D02*
X141980Y61200D01*
X130645Y95291D02*
X139915D01*
X130609Y81687D02*
X138630Y83998D01*
X129433Y106079D02*
X130645D01*
Y95291D02*
Y106561D01*
X110600Y116182D02*
X122603D01*
X108656Y114239D02*
X135672D01*
X107636Y113219D02*
X135574D01*
X129731Y100979D02*
X130645D01*
X123850Y57593D02*
X132724Y58910D01*
X128234Y99959D02*
X130645D01*
X122380Y80289D02*
X130609Y81687D01*
X114328Y57098D02*
X123289Y57538D01*
X114046Y79821D02*
X122380Y80289D01*
X106250Y335021D02*
X114749D01*
X106250Y332291D02*
X114749D01*
X106250Y330791D02*
Y332291D01*
Y322521D02*
X113916D01*
X106250D02*
Y324021D01*
Y344791D02*
X114749D01*
X104733Y322316D02*
X113826D01*
X91869Y293757D02*
X112598D01*
X93395Y292736D02*
X111824D01*
X94035Y291716D02*
X111482D01*
X105712Y268223D02*
X114046Y268691D01*
X106310Y268257D02*
X121782D01*
X104803Y290974D02*
X111433Y291300D01*
X95372Y266217D02*
X132720D01*
X99907Y267237D02*
X128186D01*
X91831Y265197D02*
X136261D01*
X88647Y264177D02*
X117019D01*
X86185Y263157D02*
X115946D01*
X83722Y262137D02*
X115357D01*
X81383Y261117D02*
X115063D01*
X106250Y335021D02*
Y344791D01*
X104054Y330791D02*
X106250D01*
X95368Y289602D02*
X104242Y290919D01*
X94294Y290697D02*
X102745D01*
X94255Y289676D02*
X95869D01*
X97483Y266825D02*
X105712Y268223D01*
X89462Y264514D02*
X97483Y266825D01*
X86112Y287312D02*
X88060Y287800D01*
X77126Y284126D02*
X85573Y287149D01*
X81750Y261320D02*
X89462Y264514D01*
X68495Y280075D02*
X76605Y283911D01*
X96115Y254997D02*
X112439D01*
X105731Y253977D02*
X112439D01*
X96115D02*
X101025D01*
X79537Y260097D02*
X115006D01*
X77692Y259077D02*
X114336D01*
X75846Y258057D02*
X113321D01*
X96115Y257037D02*
X112682D01*
X96115Y256017D02*
X112448D01*
X106564Y252957D02*
X112439D01*
X106169Y248877D02*
X112439D01*
X104791Y247857D02*
X112439D01*
X96115D02*
X101965D01*
X96115Y248877D02*
X100587D01*
X96115Y246837D02*
X108199D01*
X86845Y257161D02*
X96115D01*
X74444Y257282D02*
X81750Y261320D01*
X96115Y245891D02*
Y257161D01*
X86845Y245891D02*
Y257161D01*
X72661Y256017D02*
X86845D01*
X71224Y254997D02*
X86845D01*
X74099Y257037D02*
X86845D01*
X69786Y253977D02*
X86845D01*
X67636Y252452D02*
X74444Y257282D01*
X96115Y252957D02*
X100192D01*
X96115Y251937D02*
X99817D01*
X96115Y250917D02*
X99754D01*
X96115Y249897D02*
X99987D01*
X68348Y252957D02*
X86845D01*
Y245891D02*
X96115D01*
X45230Y333536D02*
X185405D01*
X45633Y332516D02*
X185002D01*
X46620Y321296D02*
X113536D01*
X46155Y319256D02*
X113659D01*
X46413Y320276D02*
X113483D01*
X2952Y347377D02*
X227619D01*
X2952Y346796D02*
X227619D01*
X31608Y345776D02*
X199027D01*
X44765Y334556D02*
X129086D01*
X44233Y335576D02*
X106250D01*
X45475Y317216D02*
X114888D01*
X45047Y316196D02*
X116515D01*
X45843Y318236D02*
X114093D01*
X43995Y314156D02*
X186640D01*
X44555Y315176D02*
X186080D01*
X42642Y312116D02*
X187993D01*
X41830Y311096D02*
X188805D01*
X43360Y313136D02*
X187275D01*
X39859Y309056D02*
X190776D01*
X40909Y310076D02*
X189726D01*
X42175Y338636D02*
X106250D01*
X42947Y337616D02*
X106250D01*
X41301Y339656D02*
X106250D01*
X45978Y331496D02*
X106250D01*
X43630Y336596D02*
X106250D01*
X36266Y343736D02*
X106250D01*
X37843Y342716D02*
X106250D01*
X34304Y344756D02*
X106250D01*
X40307Y340676D02*
X106250D01*
X39168Y341696D02*
X106250D01*
X46825Y327416D02*
X97653D01*
X46950Y325376D02*
X97536D01*
X46912Y326396D02*
X97480D01*
X46883Y323336D02*
X98414D01*
X46940Y324356D02*
X97828D01*
X46268Y330476D02*
X100481D01*
X46504Y329456D02*
X98874D01*
X46776Y322316D02*
X99483D01*
X46690Y328436D02*
X98084D01*
X37231Y307016D02*
X193404D01*
X35518Y305996D02*
X195117D01*
X38649Y308036D02*
X191986D01*
X30014Y303956D02*
X200621D01*
X33324Y304976D02*
X197311D01*
X2952Y301916D02*
X227619D01*
X2952Y300896D02*
X227619D01*
X2952Y302936D02*
X227619D01*
X2952Y298856D02*
X227619D01*
X2952Y299876D02*
X227619D01*
X60454Y245817D02*
X106183D01*
X59542Y244797D02*
X105305D01*
X58631Y243777D02*
X104821D01*
X55896Y240717D02*
X104869D01*
X56808Y241737D02*
X104621D01*
X2952Y296816D02*
X227619D01*
X2952Y297836D02*
X227619D01*
X2952Y294776D02*
X227619D01*
X2952Y295797D02*
X227619D01*
X2952Y288657D02*
X87447D01*
X2952Y287637D02*
X87407D01*
X2952Y286617D02*
X84086D01*
X2952Y285597D02*
X81235D01*
X2952Y284577D02*
X78384D01*
X2952Y293757D02*
X89487D01*
X2952Y292736D02*
X87961D01*
X2952Y291716D02*
X87321D01*
X2952Y289676D02*
X87101D01*
X2952Y290697D02*
X87062D01*
X65919Y250917D02*
X86845D01*
X64778Y249897D02*
X86845D01*
X67060Y251937D02*
X86845D01*
X62495Y247857D02*
X86845D01*
X63636Y248877D02*
X86845D01*
X2952Y283557D02*
X75857D01*
X2952Y282537D02*
X73700D01*
X57719Y242757D02*
X104606D01*
X61365Y246837D02*
X86845D01*
X106015Y222357D02*
X108745D01*
X106015Y221337D02*
X108745D01*
X106015Y219297D02*
X108745D01*
X106015Y220317D02*
X108745D01*
X97245Y224061D02*
Y233913D01*
X106015Y212791D02*
Y223265D01*
X96745Y212791D02*
Y224061D01*
X106015Y216237D02*
X108745D01*
X106015Y215217D02*
X108745D01*
X106015Y217257D02*
X108745D01*
X106015Y213178D02*
X108745D01*
X106015Y214197D02*
X108745D01*
X106015Y218277D02*
X108745D01*
X94015Y217257D02*
X96745D01*
X94015Y218277D02*
X96745D01*
X82039Y211138D02*
X121995D01*
X96745Y212791D02*
X106015D01*
X94015Y222357D02*
X96745D01*
X94015Y221337D02*
X96745D01*
X94015Y223377D02*
X96745D01*
X94015Y219297D02*
X96745D01*
X94015Y220317D02*
X96745D01*
X84745Y224061D02*
X94015D01*
X82015Y221337D02*
X84745D01*
X94015Y212791D02*
Y224061D01*
X84745Y212791D02*
Y224061D01*
X94015Y216237D02*
X96745D01*
X94015Y215217D02*
X96745D01*
X94015Y213178D02*
X96745D01*
X94015Y214197D02*
X96745D01*
X82015Y218277D02*
X84745D01*
Y212791D02*
X94015D01*
X90119Y191758D02*
X139928D01*
X89099Y190738D02*
X139849D01*
X90810Y192449D02*
X127508D01*
X87059Y188698D02*
X139849D01*
X88079Y189718D02*
X139849D01*
X82774Y210117D02*
X121764D01*
X83093Y209097D02*
X120744D01*
X83108Y208078D02*
X119724D01*
X86189Y187678D02*
X139849D01*
X82864Y207153D02*
X118800D01*
X101745Y187561D02*
X113015D01*
X101745Y176291D02*
X109687D01*
X101745Y175561D02*
X109655D01*
X90232Y172378D02*
X101745D01*
X86189Y181558D02*
X101745D01*
X89716Y170338D02*
X101745D01*
X90099Y171358D02*
X101745D01*
X86189Y183598D02*
X101745D01*
X86189Y182578D02*
X101745D01*
X86189Y184618D02*
X101745D01*
Y176291D02*
Y187561D01*
X86189Y180538D02*
X101745D01*
X86189Y187828D02*
X90810Y192449D01*
X86189Y186658D02*
X101745D01*
X86189Y185638D02*
X101745D01*
X86189Y177085D02*
Y187828D01*
X89155Y175438D02*
X101745D01*
X89802Y174418D02*
X101745D01*
X87953Y176458D02*
X101745D01*
X89000Y169318D02*
X101745D01*
X90138Y173398D02*
X101745D01*
X86189Y178498D02*
X101745D01*
X86189Y179518D02*
X101745D01*
X86189Y177478D02*
X101745D01*
X76705Y237657D02*
X98301D01*
X76976Y236637D02*
X97842D01*
X77012Y235617D02*
X97381D01*
X76362Y233577D02*
X97245D01*
X76818Y234597D02*
X97214D01*
X75140Y239697D02*
X99866D01*
X76149Y238677D02*
X98857D01*
X75531Y232557D02*
X97245D01*
X73043Y230517D02*
X97245D01*
X74063Y231537D02*
X97245D01*
X72023Y229497D02*
X97245D01*
X82015Y222357D02*
X84745D01*
X82015Y223377D02*
X84745D01*
X79791Y212157D02*
X121995D01*
X82015Y213178D02*
X84745D01*
X69983Y227457D02*
X97245D01*
X70016Y226437D02*
X97245D01*
X71003Y228477D02*
X97245D01*
X71795Y224397D02*
X97245D01*
X71169Y225417D02*
X97245D01*
X82015Y219297D02*
X84745D01*
X82015Y217257D02*
X84745D01*
X82015Y220317D02*
X84745D01*
X82015Y215217D02*
X84745D01*
X82015Y216237D02*
X84745D01*
X69319Y226794D02*
X74243Y231718D01*
X82015Y212791D02*
Y224061D01*
X72745D02*
X82015D01*
Y214197D02*
X84745D01*
X72745Y212791D02*
X82015D01*
X54683Y212157D02*
X79213D01*
X53663Y211138D02*
X76965D01*
X53073Y210117D02*
X76230D01*
X52508Y209097D02*
X75911D01*
X51480Y208078D02*
X75896D01*
X69015Y196858D02*
X79041D01*
X75585Y193402D02*
X82566Y200383D01*
X69015Y195838D02*
X78021D01*
X63184Y200383D02*
X82566D01*
X62719Y199918D02*
X82100D01*
X61782Y207153D02*
X76140D01*
X61699Y198898D02*
X81081D01*
X69015Y197878D02*
X80061D01*
X69015Y192778D02*
X75093D01*
X69015Y191758D02*
X74677D01*
X69015Y185638D02*
X74593D01*
X69015Y194818D02*
X77001D01*
X69015Y193798D02*
X75981D01*
X61015Y186658D02*
X74593D01*
X61015Y187678D02*
X74593D01*
X69015Y181558D02*
X74593D01*
X69015Y180538D02*
X74593D01*
X69015Y182578D02*
X74593D01*
Y175124D02*
Y191008D01*
X69015Y179518D02*
X74593D01*
X69015Y189718D02*
X74593D01*
X61015Y188698D02*
X74593D01*
X69015Y190738D02*
X74593D01*
X69015Y183598D02*
X74593D01*
X69015Y184618D02*
X74593D01*
X69015Y174418D02*
X74050D01*
X69015Y173398D02*
X73572D01*
X69015Y171358D02*
X73382D01*
X69015Y169318D02*
X74168D01*
X69015Y170338D02*
X73635D01*
X69015Y177478D02*
X74593D01*
X69015Y178498D02*
X74593D01*
X61015Y175438D02*
X74593D01*
X61015Y176458D02*
X74593D01*
X60302Y275197D02*
X67997Y279809D01*
X52628Y269539D02*
X59833Y274883D01*
X45544Y263157D02*
X52192Y269181D01*
X61412Y246889D02*
X67636Y252452D01*
X39121Y256110D02*
X45146Y262758D01*
X2952Y253977D02*
X37504D01*
X33419Y248468D02*
X38763Y255674D01*
X2952Y252957D02*
X36748D01*
X55163Y239697D02*
X69640D01*
X54439Y238677D02*
X68631D01*
X55850Y240666D02*
X61412Y246889D01*
X53716Y237657D02*
X68074D01*
X52992Y236637D02*
X67467D01*
X2952Y251937D02*
X35991D01*
X2952Y250917D02*
X35235D01*
X2952Y249897D02*
X34478D01*
X52268Y235617D02*
X66447D01*
X51544Y234597D02*
X65427D01*
X28493Y240305D02*
X33105Y248000D01*
X2952Y243777D02*
X30575D01*
X2952Y248877D02*
X33722D01*
X2952Y247857D02*
X33020D01*
X2952Y246837D02*
X32408D01*
X2952Y245817D02*
X31797D01*
X2952Y244797D02*
X31186D01*
X2952Y238677D02*
X27693D01*
X2952Y237657D02*
X27210D01*
X2952Y236637D02*
X26728D01*
X2952Y235617D02*
X26246D01*
X2952Y234597D02*
X25763D01*
X2952Y242757D02*
X29963D01*
X2952Y241737D02*
X29352D01*
X2952Y240717D02*
X28740D01*
X2952Y239697D02*
X28175D01*
X50865Y233577D02*
X64408D01*
X50301Y232557D02*
X63387D01*
X51020Y233858D02*
X55850Y240666D01*
X49737Y231537D02*
X62368D01*
X49174Y230517D02*
X61347D01*
X48610Y229497D02*
X60328D01*
X48046Y228477D02*
X59307D01*
X46915Y216084D02*
X67885Y237054D01*
X47482Y227457D02*
X58288D01*
X72745Y222695D02*
Y224061D01*
X64840Y217753D02*
X66948Y215644D01*
X46935Y226437D02*
X57268D01*
X61823Y219297D02*
X63860D01*
X46512Y225417D02*
X56248D01*
X60803Y218277D02*
X64393D01*
X53273Y210748D02*
X63274Y220749D01*
X24392Y231697D02*
X28227Y239807D01*
X46982Y226552D02*
X51020Y233858D01*
X2952Y228477D02*
X23210D01*
X43788Y218840D02*
X46982Y226552D01*
X21153Y222729D02*
X24176Y231176D01*
X2952Y233577D02*
X25281D01*
X2952Y232557D02*
X24798D01*
X2952Y231537D02*
X24351D01*
X2952Y230517D02*
X23940D01*
X2952Y229497D02*
X23575D01*
X46090Y224397D02*
X55228D01*
X45667Y223377D02*
X54208D01*
X45245Y222357D02*
X53188D01*
X44822Y221337D02*
X52168D01*
X44400Y220317D02*
X51148D01*
X43977Y219297D02*
X50128D01*
X43626Y218277D02*
X49108D01*
X41477Y210819D02*
X43788Y218840D01*
X18810Y213487D02*
X20990Y222190D01*
X2952Y340676D02*
X10328D01*
X2952Y339656D02*
X9334D01*
X2952Y338636D02*
X8460D01*
X2952Y337616D02*
X7688D01*
X2952Y336596D02*
X7005D01*
X2952Y345776D02*
X19027D01*
X2952Y344756D02*
X16331D01*
X2952Y343736D02*
X14369D01*
X2952Y342716D02*
X12792D01*
X2952Y341696D02*
X11467D01*
X2952Y308036D02*
X11986D01*
X2952Y307016D02*
X13404D01*
X2952Y309056D02*
X10776D01*
X2952Y304976D02*
X17311D01*
X2952Y305996D02*
X15117D01*
X2952Y313136D02*
X7275D01*
X2952Y312116D02*
X7993D01*
X2952Y314156D02*
X6640D01*
X2952Y310076D02*
X9726D01*
X2952Y311096D02*
X8805D01*
X2952Y330476D02*
X4367D01*
X2952Y329456D02*
X4131D01*
X2952Y328436D02*
X3945D01*
X2952Y327416D02*
X3810D01*
X2952Y326396D02*
X3723D01*
X2952Y335576D02*
X6402D01*
X2952Y334556D02*
X5870D01*
X2952Y333536D02*
X5405D01*
X2952Y332516D02*
X5002D01*
X2952Y331496D02*
X4657D01*
X2952Y318236D02*
X4792D01*
X2952Y317216D02*
X5160D01*
X2952Y319256D02*
X4480D01*
X2952Y315176D02*
X6080D01*
X2952Y316196D02*
X5588D01*
X2952Y322316D02*
X3859D01*
X2952Y323336D02*
X3753D01*
X2952Y320276D02*
X4221D01*
X2952Y321296D02*
X4015D01*
X2952Y276417D02*
X62338D01*
X2952Y275397D02*
X60636D01*
X2952Y274377D02*
X59150D01*
X2952Y273357D02*
X57775D01*
X2952Y272337D02*
X56400D01*
X2952Y281517D02*
X71543D01*
X2952Y280497D02*
X69387D01*
X2952Y279477D02*
X67443D01*
X2952Y278457D02*
X65741D01*
X2952Y277437D02*
X64040D01*
X2952Y267237D02*
X50046D01*
X2952Y266217D02*
X48921D01*
X2952Y265197D02*
X47795D01*
X2952Y264177D02*
X46670D01*
X2952Y263157D02*
X45545D01*
X2952Y271317D02*
X55024D01*
X2952Y270297D02*
X53649D01*
X2952Y269277D02*
X52351D01*
X2952Y268257D02*
X51172D01*
X2952Y258057D02*
X40885D01*
X2952Y257037D02*
X39960D01*
X2952Y256017D02*
X39065D01*
X2952Y254997D02*
X38261D01*
X2952Y227457D02*
X22845D01*
X2952Y262137D02*
X44583D01*
X2952Y261117D02*
X43658D01*
X2952Y303956D02*
X20621D01*
X2952Y260097D02*
X42734D01*
X2952Y259077D02*
X41809D01*
X2952Y222357D02*
X21069D01*
X2952Y221337D02*
X20776D01*
X2952Y220317D02*
X20521D01*
X2952Y219297D02*
X20265D01*
X2952Y218277D02*
X20010D01*
X2952Y226437D02*
X22480D01*
X2952Y225417D02*
X22115D01*
X2952Y224397D02*
X21750D01*
X2952Y223377D02*
X21385D01*
X59783Y217257D02*
X65335D01*
X72745Y212791D02*
Y214425D01*
X69880D02*
X72745D01*
X57743Y215217D02*
X67446D01*
X56723Y214197D02*
X72745D01*
X58763Y216237D02*
X66355D01*
X55703Y213178D02*
X72745D01*
X55236Y202010D02*
X59388Y206161D01*
X53291Y201958D02*
X55186D01*
X40838Y207057D02*
X60984D01*
X40665Y206038D02*
X59264D01*
X40491Y205018D02*
X58245D01*
X51609Y203998D02*
X57224D01*
X52696Y202978D02*
X56205D01*
X43332Y217257D02*
X48088D01*
X43038Y216237D02*
X47068D01*
X42744Y215217D02*
X45598D01*
X42450Y214197D02*
X44780D01*
X42156Y213178D02*
X44331D01*
X41569Y211138D02*
X44186D01*
X41863Y212157D02*
X44144D01*
X41358Y210117D02*
X44463D01*
X40079Y202590D02*
X41477Y210819D01*
X41011Y208078D02*
X46056D01*
X40318Y203998D02*
X46435D01*
X41185Y209097D02*
X45029D01*
X53590Y200938D02*
X54514D01*
X40145Y202978D02*
X45348D01*
X40043Y201958D02*
X44753D01*
X39986Y200938D02*
X44454D01*
X39871Y198898D02*
X44560D01*
X39929Y199918D02*
X44393D01*
X61362Y198561D02*
X69015D01*
X61015Y189291D02*
X69015D01*
X61362Y198561D02*
X63184Y200383D01*
X69015Y189291D02*
Y198561D01*
X61015Y186561D02*
Y189291D01*
X53157Y196858D02*
X54245D01*
X53157Y187678D02*
X54245D01*
X53157Y197878D02*
X54245D01*
Y185807D02*
Y199616D01*
X53157Y186895D02*
X54245Y185807D01*
X69015Y177291D02*
Y186561D01*
X61015Y177291D02*
X69015D01*
X61015Y174561D02*
Y177291D01*
X69015Y172378D02*
X73362D01*
X61015Y174561D02*
X69015D01*
X61015Y186561D02*
X69015D01*
X53395Y186658D02*
X54245D01*
Y175937D02*
Y177074D01*
X53157Y195838D02*
X54245D01*
X53157Y194818D02*
X54245D01*
X53157Y193798D02*
X54245D01*
X53157Y186895D02*
Y198058D01*
X39757Y196858D02*
X44887D01*
X39814Y197878D02*
X44887D01*
Y185183D02*
Y198058D01*
X39700Y195838D02*
X44887D01*
X53157Y191758D02*
X54245D01*
X53157Y190738D02*
X54245D01*
X53157Y192778D02*
X54245D01*
X53157Y188698D02*
X54245D01*
X53157Y189718D02*
X54245D01*
X49641Y169318D02*
X52160D01*
X46106Y182251D02*
X48037Y180320D01*
X2952Y212157D02*
X18585D01*
X2952Y211138D02*
X18433D01*
X2952Y210117D02*
X18282D01*
X17383Y204060D02*
X18700Y212934D01*
X2952Y209097D02*
X18131D01*
X2952Y217257D02*
X19754D01*
X2952Y216237D02*
X19499D01*
X2952Y215217D02*
X19243D01*
X2952Y214197D02*
X18988D01*
X2952Y213178D02*
X18787D01*
X39681Y191758D02*
X44887D01*
X39681Y190738D02*
X44887D01*
X39681Y192778D02*
X44887D01*
X39681Y188698D02*
X44887D01*
X39681Y189718D02*
X44887D01*
X2952Y208078D02*
X17979D01*
X39642Y194818D02*
X44887D01*
X2952Y207057D02*
X17828D01*
X39681Y193798D02*
X44887D01*
X39626Y194533D02*
X40079Y202590D01*
X2952Y200938D02*
X17202D01*
X2952Y199918D02*
X17152D01*
X2952Y198898D02*
X17102D01*
X16891Y194602D02*
X17328Y203499D01*
X2952Y197878D02*
X17052D01*
X2952Y206038D02*
X17677D01*
X2952Y205018D02*
X17526D01*
X2952Y203998D02*
X17386D01*
X2952Y202978D02*
X17303D01*
X2952Y201958D02*
X17252D01*
X2952Y191758D02*
X16911D01*
X2952Y190738D02*
X16911D01*
X2952Y192778D02*
X16911D01*
X2952Y188698D02*
X16911D01*
X2952Y189718D02*
X16911D01*
X2952Y196858D02*
X17002D01*
X2952Y195838D02*
X16952D01*
X2952Y193798D02*
X16911D01*
X2952Y194818D02*
X16902D01*
X39681Y181558D02*
X46799D01*
X39681Y180538D02*
X47819D01*
X39681Y182578D02*
X45811D01*
X39681Y178498D02*
X48923D01*
X39681Y179518D02*
X48306D01*
X39681Y186658D02*
X44887D01*
X39681Y185638D02*
X44887D01*
X39681Y187678D02*
X44887D01*
X39681Y183598D02*
X45203D01*
X39681Y184618D02*
X44926D01*
X39681Y173398D02*
X51820D01*
X39681Y172378D02*
X51548D01*
X39681Y171358D02*
X51512D01*
X39681Y170338D02*
X51705D01*
X39681Y169318D02*
X47387D01*
X39681Y176458D02*
X54245D01*
X39681Y177478D02*
X50057D01*
X39681Y175438D02*
X53388D01*
X39681Y174418D02*
X52377D01*
X2952Y181558D02*
X16911D01*
X2952Y180538D02*
X16911D01*
X2952Y182578D02*
X16911D01*
X2952Y178498D02*
X16911D01*
X2952Y179518D02*
X16911D01*
X2952Y186658D02*
X16911D01*
X2952Y185638D02*
X16911D01*
X2952Y187678D02*
X16911D01*
X2952Y183598D02*
X16911D01*
X2952Y184618D02*
X16911D01*
X2952Y172378D02*
X16911D01*
X2952Y171358D02*
X16911D01*
X2952Y173398D02*
X16911D01*
X2952Y169318D02*
X16911D01*
X2952Y170338D02*
X16911D01*
X2952Y176458D02*
X16911D01*
X2952Y177478D02*
X16911D01*
X2952Y174418D02*
X16911D01*
X2952Y175438D02*
X16911D01*
X106015Y137698D02*
X108745D01*
X106015Y135658D02*
X108745D01*
X106015Y136678D02*
X108745D01*
X101745Y164291D02*
X113015D01*
X96745Y139061D02*
X106015D01*
Y138718D02*
X108745D01*
X106015Y127791D02*
Y139061D01*
Y131578D02*
X108745D01*
X106015Y130558D02*
X108745D01*
X106015Y132598D02*
X108745D01*
X106015Y128518D02*
X108745D01*
X106015Y129538D02*
X108745D01*
X106015Y134638D02*
X108745D01*
X106015Y133618D02*
X108745D01*
X104487Y127791D02*
X106015D01*
X101745Y164291D02*
Y175561D01*
X94015Y134638D02*
X96745D01*
X94015Y135658D02*
X96745D01*
Y127791D02*
Y139061D01*
X87626Y168298D02*
X101745D01*
X94015Y137698D02*
X96745D01*
X94015Y138718D02*
X96745D01*
X94015Y136678D02*
X96745D01*
X94015Y127791D02*
Y139061D01*
Y130558D02*
X96745D01*
X94015Y129538D02*
X96745D01*
X94015Y131578D02*
X96745D01*
Y127791D02*
X97697D01*
X94015Y128518D02*
X96745D01*
X94015Y132598D02*
X96745D01*
X94015Y133618D02*
X96745D01*
X90300Y127499D02*
X97599D01*
X90593Y127791D02*
X94015D01*
X104585Y127499D02*
X109245D01*
X105971Y123249D02*
X109245Y126523D01*
X104727Y126479D02*
X109201D01*
X106616Y112199D02*
X135702D01*
X105548Y111130D02*
X110600Y116182D01*
X104577Y125458D02*
X108181D01*
X104091Y124438D02*
X107161D01*
X103033Y123419D02*
X106141D01*
X100903Y118181D02*
X105955Y123233D01*
X104026Y110159D02*
X136785D01*
X102886Y107099D02*
X171574D01*
X105596Y111179D02*
X136079D01*
X102932Y106079D02*
X124567D01*
X102682Y105059D02*
X123777D01*
X101734Y109139D02*
X138134D01*
X102531Y108119D02*
X172435D01*
X102055Y104039D02*
X123426D01*
X100347Y109911D02*
X102616D01*
X88260Y125458D02*
X97607D01*
X87240Y124438D02*
X98093D01*
X89280Y126479D02*
X97457D01*
X87186Y124384D02*
X90593Y127791D01*
X96115Y103019D02*
X98048D01*
X96115Y95291D02*
Y104700D01*
X86845Y106561D02*
X95681D01*
X69015Y157078D02*
X137077D01*
X69015Y156058D02*
X137077D01*
X69015Y158098D02*
X137077D01*
X69015Y154018D02*
X137077D01*
X69015Y155038D02*
X137077D01*
X51531Y152998D02*
X137077D01*
X52281Y151978D02*
X137077D01*
X69015Y159118D02*
X137077D01*
X52632Y149938D02*
X137077D01*
X52609Y150958D02*
X137077D01*
X51689Y147898D02*
X137077D01*
X50039Y146878D02*
X137082D01*
X52355Y148918D02*
X137077D01*
X41129Y139738D02*
X143003D01*
X40956Y140758D02*
X141983D01*
X40263Y144838D02*
X137913D01*
X40436Y143818D02*
X138923D01*
X40090Y145858D02*
X137300D01*
X40783Y141778D02*
X140963D01*
X40610Y142798D02*
X139943D01*
X80822Y168298D02*
X83570D01*
X69015Y162178D02*
X137077D01*
X69015Y166258D02*
X101745D01*
X69015Y167278D02*
X101745D01*
X52095Y165238D02*
X101745D01*
X69015Y168298D02*
X75134D01*
X50987Y163198D02*
X137077D01*
X51756Y164218D02*
X137077D01*
X69015Y160138D02*
X137077D01*
X84745Y139061D02*
X94015D01*
X72745D02*
X82015D01*
Y137698D02*
X84745D01*
X82015Y138718D02*
X84745D01*
X69015Y161158D02*
X137077D01*
X41303Y138718D02*
X72745D01*
X41769Y136678D02*
X72745D01*
X41476Y137698D02*
X72745D01*
X82015Y135658D02*
X84745D01*
X86527Y123419D02*
X99151D01*
X82015Y136678D02*
X84745D01*
X85232Y122399D02*
X105121D01*
X73603Y121378D02*
X104101D01*
X72534Y120359D02*
X103081D01*
X69080Y119339D02*
X102061D01*
X68735Y118319D02*
X101041D01*
X68664Y118181D02*
X100903D01*
X67775Y109911D02*
X98281D01*
X67981Y108119D02*
X96097D01*
X68132Y107099D02*
X95742D01*
X86845Y95291D02*
Y106561D01*
X68055Y106079D02*
X86845D01*
X67577Y109139D02*
X96894D01*
X67739Y105059D02*
X86845D01*
X65981Y103019D02*
X86845D01*
X67119Y104039D02*
X86845D01*
X84745Y133639D02*
Y139061D01*
X82015Y134638D02*
X84745D01*
X82015Y133618D02*
X84725D01*
X82142Y131036D02*
X84745Y133639D01*
X82015Y131008D02*
Y139061D01*
X42357Y134638D02*
X72745D01*
X42651Y133618D02*
X72745D01*
X42063Y135658D02*
X72745D01*
Y127935D02*
Y139061D01*
X42945Y132598D02*
X72745D01*
X82015D02*
X83705D01*
X74093Y122399D02*
X75654D01*
X78802D02*
X80884D01*
X67248Y130558D02*
X72745D01*
X43239Y131578D02*
X72745D01*
X69193Y128518D02*
X72745D01*
X96115Y98939D02*
X130645D01*
X96115Y97919D02*
X130645D01*
X100581Y103019D02*
X123383D01*
X96115Y95879D02*
X130645D01*
X96115Y96899D02*
X130645D01*
X96115Y100979D02*
X124269D01*
X96115Y99959D02*
X125766D01*
X96115Y101999D02*
X123637D01*
X78951Y88739D02*
X149141D01*
X80797Y87719D02*
X147295D01*
X94248Y82619D02*
X133844D01*
X98001Y81599D02*
X130091D01*
X104004Y80579D02*
X124088D01*
X95501Y55079D02*
X135275D01*
X105712Y80289D02*
X114046Y79821D01*
X82941Y86699D02*
X145151D01*
X85403Y85679D02*
X142689D01*
X87865Y84659D02*
X140227D01*
X90707Y83639D02*
X137385D01*
X93930Y56099D02*
X136846D01*
X86845Y95291D02*
X96115D01*
X97483Y81687D02*
X105712Y80289D01*
X89462Y83998D02*
X97483Y81687D01*
X81750Y87192D02*
X89462Y83998D01*
X80800Y61199D02*
X86114D01*
X86112Y61200D02*
X94815Y59020D01*
X95368Y58910D02*
X104242Y57593D01*
X82876Y58139D02*
X100562D01*
X82662Y59159D02*
X94258D01*
X104803Y57538D02*
X113764Y57098D01*
X82795Y57119D02*
X113329D01*
X82089Y60179D02*
X90186D01*
X82399Y56099D02*
X88346D01*
X81526Y55079D02*
X86775D01*
X86122Y27540D02*
X144654D01*
X86259Y26520D02*
X144516D01*
X86273Y25500D02*
X144503D01*
X86273Y23460D02*
X144503D01*
X86273Y24480D02*
X144503D01*
X81946Y32640D02*
X148830D01*
X83635Y31620D02*
X147141D01*
X84659Y30600D02*
X146117D01*
X85356Y29580D02*
X145420D01*
X85828Y28560D02*
X144948D01*
X86273Y21420D02*
X144503D01*
X86240Y20400D02*
X144535D01*
X86273Y22440D02*
X144503D01*
X85734Y18360D02*
X145042D01*
X86067Y19380D02*
X144708D01*
X84452Y16320D02*
X146323D01*
X85214Y17340D02*
X145562D01*
X81297Y14280D02*
X149479D01*
X83320Y15300D02*
X147455D01*
X96447Y54059D02*
X134328D01*
X97077Y53039D02*
X133699D01*
X97483Y52019D02*
X133292D01*
X97709Y50999D02*
X133067D01*
X97678Y48959D02*
X133098D01*
X97418Y47939D02*
X133358D01*
X97772Y49979D02*
X133004D01*
X96290Y45900D02*
X134486D01*
X96972Y46919D02*
X133804D01*
X93445Y43860D02*
X137331D01*
X95258Y44879D02*
X135518D01*
X86273Y21081D02*
Y26080D01*
X67892Y95879D02*
X86845D01*
X69330Y94859D02*
X158763D01*
X66698Y96899D02*
X86845D01*
X70767Y93839D02*
X157325D01*
X72205Y92819D02*
X155887D01*
X62133Y100979D02*
X86845D01*
X63274Y99959D02*
X86845D01*
X61076Y101999D02*
X86845D01*
X65557Y97919D02*
X86845D01*
X64415Y98939D02*
X86845D01*
X73642Y91799D02*
X154450D01*
X75260Y90779D02*
X152832D01*
X77106Y89759D02*
X150986D01*
X77126Y64386D02*
X85573Y61363D01*
X2952Y46919D02*
X85304D01*
X2952Y54059D02*
X85829D01*
X2952Y53039D02*
X85199D01*
X2952Y52019D02*
X84793D01*
X2952Y47939D02*
X84858D01*
X2952Y48959D02*
X84598D01*
X67636Y96060D02*
X74444Y91230D01*
X81750Y87192D01*
X62355Y66299D02*
X73015D01*
X68495Y68437D02*
X76605Y64601D01*
X2952Y64259D02*
X77479D01*
X2952Y63239D02*
X80330D01*
X61509Y65279D02*
X75172D01*
X2952Y62219D02*
X83181D01*
X2952Y61199D02*
X77696D01*
X2952Y55079D02*
X76970D01*
X2952Y56099D02*
X76097D01*
X2952Y50999D02*
X84567D01*
X2952Y49979D02*
X84504D01*
X2952Y60179D02*
X76407D01*
X2952Y59159D02*
X75834D01*
X2952Y57119D02*
X75700D01*
X2952Y58139D02*
X75620D01*
X42075Y38760D02*
X188560D01*
X42859Y37740D02*
X187776D01*
X43552Y36720D02*
X187083D01*
X42734Y12240D02*
X187901D01*
X43441Y13260D02*
X187194D01*
X37667Y42839D02*
X192968D01*
X39018Y41820D02*
X191617D01*
X40178Y40799D02*
X190457D01*
X41188Y39780D02*
X189447D01*
X41934Y11220D02*
X188701D01*
X39994Y9180D02*
X190641D01*
X38806Y8160D02*
X191829D01*
X41027Y10200D02*
X189608D01*
X35746Y6120D02*
X194889D01*
X37417Y7140D02*
X193218D01*
X30539Y4080D02*
X200096D01*
X33627Y5100D02*
X197008D01*
X2952Y2762D02*
X227619D01*
X2952Y3060D02*
X227619D01*
X45177Y33660D02*
X185458D01*
X45587Y32640D02*
X76330D01*
X45939Y31620D02*
X74641D01*
X46235Y30600D02*
X73616D01*
X34028Y44879D02*
X87018D01*
X36052Y43860D02*
X88831D01*
X31186Y45900D02*
X85986D01*
X44164Y35700D02*
X186471D01*
X44704Y34680D02*
X185931D01*
X46479Y29580D02*
X72920D01*
X45102Y16320D02*
X73823D01*
X45522Y17340D02*
X73062D01*
X44067Y14280D02*
X76979D01*
X44618Y15300D02*
X74955D01*
X69015Y165291D02*
Y174561D01*
X57745Y165291D02*
X69015D01*
X57745D02*
Y167358D01*
X69015Y153291D02*
Y162561D01*
X57745Y153291D02*
Y162561D01*
X51862Y167278D02*
X54758D01*
X51212Y168298D02*
X52990D01*
X52127Y166258D02*
X57745D01*
Y162561D02*
X69015D01*
X57745Y153291D02*
X69015D01*
X43532Y130558D02*
X62800D01*
X39681Y161158D02*
X57745D01*
X39681Y160138D02*
X57745D01*
X39681Y162178D02*
X57745D01*
X39681Y158098D02*
X57745D01*
X39681Y159118D02*
X57745D01*
X39681Y167278D02*
X45166D01*
X39681Y165238D02*
X44933D01*
X39681Y166258D02*
X44901D01*
X39681Y163198D02*
X46041D01*
X39681Y164218D02*
X45272D01*
X40025Y146878D02*
X48005D01*
X39968Y147898D02*
X46355D01*
X40079Y145922D02*
X41477Y137693D01*
X39739Y151978D02*
X45763D01*
X39796Y150958D02*
X45435D01*
X39911Y148918D02*
X45689D01*
X39853Y149938D02*
X45413D01*
X68517Y129538D02*
X72745D01*
X69548Y127499D02*
X72653D01*
X43843Y129538D02*
X61531D01*
X44265Y128518D02*
X60855D01*
X44688Y127499D02*
X60500D01*
X45533Y125458D02*
X60506D01*
X45111Y126479D02*
X60389D01*
X57536Y118502D02*
X60889Y121855D01*
Y124398D01*
X46378Y123419D02*
X60889D01*
X46800Y122399D02*
X60889D01*
X45956Y124438D02*
X60869D01*
X47304Y121378D02*
X60413D01*
X47867Y120359D02*
X59393D01*
X49558Y117299D02*
X56696D01*
X50122Y116279D02*
X56378D01*
X56317Y110253D02*
Y115570D01*
X43788Y129672D02*
X46982Y121960D01*
X48431Y119339D02*
X58373D01*
X41477Y137693D02*
X43788Y129672D01*
X48995Y118319D02*
X57363D01*
X46982Y121960D02*
X51020Y114654D01*
X53486Y111179D02*
X56317D01*
X54210Y110159D02*
X56318D01*
X52762Y112199D02*
X56317D01*
X51315Y114239D02*
X56317D01*
X50686Y115259D02*
X56317D01*
X52038Y113219D02*
X56317D01*
X51020Y114654D02*
X55850Y107846D01*
X39681Y157078D02*
X57745D01*
X39681Y156058D02*
X57745D01*
X39681Y168298D02*
X45816D01*
X39681Y155038D02*
X57745D01*
X39681Y154256D02*
Y194256D01*
X39634Y154018D02*
X57745D01*
X39681Y152998D02*
X46513D01*
X2952Y149938D02*
X17086D01*
X39626Y153979D02*
X40079Y145922D01*
X16891Y153910D02*
X17328Y145013D01*
X2952Y142798D02*
X17629D01*
X2952Y141778D02*
X17780D01*
X2952Y143818D02*
X17478D01*
X2952Y139738D02*
X18083D01*
X2952Y140758D02*
X17931D01*
X2952Y147898D02*
X17186D01*
X2952Y146878D02*
X17236D01*
X2952Y148918D02*
X17136D01*
X2952Y144838D02*
X17372D01*
X2952Y145858D02*
X17287D01*
X2952Y162178D02*
X16911D01*
X2952Y161158D02*
X16911D01*
X2952Y163198D02*
X16911D01*
Y154326D02*
Y194186D01*
X2952Y160138D02*
X16911D01*
X2952Y167278D02*
X16911D01*
X2952Y166258D02*
X16911D01*
X2952Y168298D02*
X16911D01*
X2952Y164218D02*
X16911D01*
X2952Y165238D02*
X16911D01*
X2952Y155038D02*
X16911D01*
X2952Y152998D02*
X16936D01*
X2952Y154018D02*
X16907D01*
X2952Y150958D02*
X17036D01*
X2952Y151978D02*
X16986D01*
X2952Y158098D02*
X16911D01*
X2952Y159118D02*
X16911D01*
X2952Y156058D02*
X16911D01*
X2952Y157078D02*
X16911D01*
X2952Y119339D02*
X23459D01*
X2952Y118319D02*
X23824D01*
X2952Y120359D02*
X23094D01*
X2952Y117299D02*
X24198D01*
X21153Y125783D02*
X24176Y117336D01*
X2952Y124438D02*
X21634D01*
X2952Y123419D02*
X21999D01*
X2952Y125458D02*
X21269D01*
X2952Y121378D02*
X22729D01*
X2952Y122399D02*
X22364D01*
X24392Y116815D02*
X25096Y115324D01*
X2952Y116279D02*
X24645D01*
X2952Y115259D02*
X23398D01*
X2952Y114239D02*
X21725D01*
X2952Y110159D02*
X21121D01*
X2952Y134638D02*
X18907D01*
X2952Y133618D02*
X19162D01*
X17383Y144452D02*
X18700Y135578D01*
X18810Y135025D02*
X20990Y126322D01*
X2952Y132598D02*
X19418D01*
X2952Y137698D02*
X18385D01*
X2952Y136678D02*
X18537D01*
X2952Y138718D02*
X18234D01*
X2952Y135658D02*
X18688D01*
X2952Y347377D02*
X2952Y2762D01*
Y126479D02*
X20951D01*
X2952Y113219D02*
X21054D01*
X2952Y127499D02*
X20695D01*
X2952Y111179D02*
X20796D01*
X2952Y112199D02*
X20776D01*
X2952Y130558D02*
X19929D01*
X2952Y131578D02*
X19673D01*
X2952Y128518D02*
X20440D01*
X2952Y129538D02*
X20184D01*
X58341Y105059D02*
X59261D01*
X57536Y107321D02*
X58989Y105868D01*
X60164Y103019D02*
X61019D01*
X55657Y108119D02*
X56910D01*
X56518Y107099D02*
X57758D01*
X54933Y109139D02*
X56470D01*
X55850Y107846D02*
X61413Y101622D01*
X57430Y106079D02*
X58778D01*
X61413Y101622D02*
X67636Y96060D01*
X61991Y70379D02*
X65201D01*
X60646Y71399D02*
X63499D01*
X60302Y73315D02*
X67997Y68703D01*
X62582Y69359D02*
X66903D01*
X52628Y78973D02*
X59833Y73629D01*
X38040Y71399D02*
X57718D01*
X45544Y85356D02*
X52192Y79331D01*
X39385Y70379D02*
X56373D01*
X39976Y69359D02*
X55782D01*
X34850Y95879D02*
X36507D01*
X35277Y94859D02*
X37264D01*
X33916Y96899D02*
X35751D01*
X33419Y100043D02*
X38763Y92837D01*
X27591Y110049D02*
X28227Y108705D01*
X28493Y108207D02*
X33105Y100512D01*
X26902Y109139D02*
X28022D01*
X35195Y92819D02*
X38784D01*
X34658Y91799D02*
X39667D01*
X35382Y93839D02*
X38020D01*
X39121Y92402D02*
X45146Y85754D01*
X33472Y90779D02*
X40591D01*
X2952Y69359D02*
X33177D01*
X2952Y68339D02*
X32951D01*
X62807D02*
X68702D01*
X62738Y67319D02*
X70859D01*
X46670Y28560D02*
X72447D01*
X46812Y27540D02*
X72154D01*
X46904Y26520D02*
X72016D01*
X46944Y24480D02*
X72003D01*
X46892Y23460D02*
X72003D01*
X46948Y25500D02*
X72003D01*
Y21081D02*
Y26080D01*
X46791Y22440D02*
X72003D01*
X46441Y20400D02*
X72035D01*
X46641Y21420D02*
X72003D01*
X45884Y18360D02*
X72542D01*
X46189Y19380D02*
X72208D01*
X40201Y68339D02*
X55557D01*
X40132Y67319D02*
X55626D01*
X39749Y66299D02*
X56009D01*
X2952Y67319D02*
X33020D01*
X2952Y66299D02*
X33403D01*
X38903Y65279D02*
X56855D01*
X2952D02*
X34249D01*
X2952Y45900D02*
X19449D01*
X2952Y20400D02*
X4194D01*
X2952Y84659D02*
X46313D01*
X2952Y83639D02*
X47438D01*
X2952Y85679D02*
X45247D01*
X2952Y81599D02*
X49689D01*
X2952Y82619D02*
X48563D01*
X2952Y89759D02*
X41516D01*
X2952Y88739D02*
X42440D01*
X2952Y97919D02*
X34994D01*
X2952Y86699D02*
X44289D01*
X2952Y87719D02*
X43365D01*
X2952Y74459D02*
X58714D01*
X2952Y73439D02*
X60166D01*
X2952Y75479D02*
X57339D01*
X2952Y72419D02*
X61798D01*
X2952Y71399D02*
X35112D01*
X2952Y79559D02*
X51940D01*
X2952Y78539D02*
X53213D01*
X2952Y80579D02*
X50814D01*
X2952Y76499D02*
X55963D01*
X2952Y77519D02*
X54588D01*
X2952Y103019D02*
X31603D01*
X2952Y101999D02*
X32214D01*
X2952Y104039D02*
X30992D01*
X2952Y99959D02*
X33482D01*
X2952Y100979D02*
X32826D01*
X2952Y108119D02*
X28546D01*
X2952Y107099D02*
X29158D01*
X2952Y109139D02*
X21866D01*
X2952Y105059D02*
X30380D01*
X2952Y106079D02*
X29769D01*
X2952Y92819D02*
X28305D01*
X2952Y91799D02*
X28842D01*
X2952Y93839D02*
X28118D01*
X2952Y70379D02*
X33767D01*
X2952Y90779D02*
X30028D01*
X2952Y98939D02*
X34238D01*
X2952Y96899D02*
X29583D01*
X2952Y95879D02*
X28650D01*
X2952Y94859D02*
X28223D01*
X2952Y39780D02*
X9447D01*
X2952Y38760D02*
X8560D01*
X2952Y37740D02*
X7776D01*
X2952Y13260D02*
X7194D01*
X2952Y36720D02*
X7083D01*
X2952Y44879D02*
X16607D01*
X2952Y43860D02*
X14583D01*
X2952Y42839D02*
X12968D01*
X2952Y41820D02*
X11617D01*
X2952Y40799D02*
X10457D01*
X2952Y7140D02*
X13218D01*
X2952Y6120D02*
X14889D01*
X2952Y8160D02*
X11829D01*
X2952Y4080D02*
X20096D01*
X2952Y5100D02*
X17008D01*
X2952Y11220D02*
X8701D01*
X2952Y12240D02*
X7901D01*
X2952Y9180D02*
X10641D01*
X2952Y10200D02*
X9608D01*
X2952Y30600D02*
X4400D01*
X2952Y29580D02*
X4157D01*
X2952Y28560D02*
X3965D01*
X2952Y27540D02*
X3823D01*
X2952Y26520D02*
X3731D01*
X2952Y35700D02*
X6471D01*
X2952Y34680D02*
X5931D01*
X2952Y33660D02*
X5458D01*
X2952Y32640D02*
X5048D01*
X2952Y31620D02*
X4696D01*
X2952Y17340D02*
X5113D01*
X2952Y16320D02*
X5533D01*
X2952Y18360D02*
X4751D01*
X2952Y14280D02*
X6568D01*
X2952Y15300D02*
X6017D01*
X2952Y22440D02*
X3844D01*
X2952Y23460D02*
X3743D01*
X2952Y19380D02*
X4446D01*
X2952Y21420D02*
X3994D01*
D57*
X148917Y171450D02*
X152416Y174949D01*
X148844Y171450D02*
X148917D01*
X152416Y174949D02*
Y178832D01*
X144526Y163439D02*
Y174180D01*
X140684Y178022D02*
X144526Y174180D01*
Y163439D02*
X149723Y158242D01*
X143234Y183410D02*
Y191030D01*
X140462Y147066D02*
Y169926D01*
X152416Y178832D02*
X155510Y181926D01*
X184150Y146558D02*
Y176877D01*
X184150Y176878D02*
X184150Y176877D01*
X151316Y113724D02*
X184150Y146558D01*
X162814Y228854D02*
X184150Y207518D01*
Y176878D02*
Y207518D01*
X140648Y113724D02*
X151316D01*
X175260Y177973D02*
X179010Y181723D01*
X175260Y149606D02*
Y177973D01*
X149464Y123810D02*
X175260Y149606D01*
X149240Y123810D02*
X149464D01*
X140208Y113284D02*
X140648Y113724D01*
X158719Y248158D02*
X162814Y244063D01*
Y228854D02*
Y244063D01*
X158242Y248158D02*
X158719D01*
X158750Y228092D02*
Y242316D01*
X159004Y242570D01*
X158750Y228092D02*
X179010Y207832D01*
X149606Y247650D02*
X154895Y242361D01*
Y208098D02*
Y242361D01*
X144703Y197906D02*
X154895Y208098D01*
X179010Y181723D02*
Y207832D01*
X160020Y207816D02*
Y217424D01*
X159766Y217678D02*
X160020Y217424D01*
X143234Y191030D02*
X160020Y207816D01*
X147320Y188468D02*
X164338Y205486D01*
Y212852D01*
X149380Y210594D02*
Y218426D01*
X149352Y210566D02*
X149380Y210594D01*
X140462Y147066D02*
X148731Y138797D01*
Y134075D02*
X149380Y133426D01*
X148731Y134075D02*
Y138797D01*
X141732Y197866D02*
X141771Y197906D01*
X144703D01*
X149723Y158242D02*
X163064D01*
X163380Y157926D01*
X155510Y181926D02*
X163380D01*
X121412Y251714D02*
X121600Y251526D01*
X115824Y244602D02*
X135128Y225298D01*
X115824Y244602D02*
Y255778D01*
X119634Y259588D02*
Y260350D01*
X115824Y255778D02*
X119634Y259588D01*
X141732Y225298D02*
X143256Y223774D01*
X127508Y195834D02*
X143256Y211582D01*
Y223774D01*
X135128Y225298D02*
X141732D01*
X89408Y195834D02*
X127508D01*
X61782Y203768D02*
X120202D01*
X125380Y208946D01*
X57630Y199616D02*
X61782Y203768D01*
X102785Y326136D02*
X104054Y327406D01*
X102108Y326136D02*
X102785D01*
X77978Y191008D02*
X86487Y199517D01*
X77978Y171958D02*
Y191008D01*
X162578Y169124D02*
X163380Y169926D01*
X56134Y172337D02*
X57630Y173833D01*
X56134Y171704D02*
Y172337D01*
X57630Y173833D02*
Y199616D01*
X151638Y23580D02*
Y26580D01*
X79138Y23580D02*
Y26580D01*
X82804Y176743D02*
Y189230D01*
Y175682D02*
X85598Y172888D01*
Y172466D02*
Y172888D01*
X82804Y175682D02*
Y176743D01*
X86487Y199517D02*
X121539D01*
X135323Y213301D01*
X82804Y189230D02*
X89408Y195834D01*
X135323Y216369D02*
X137380Y218426D01*
X135323Y213301D02*
Y216369D01*
X125380Y208946D02*
Y218426D01*
X118110Y320548D02*
Y325882D01*
X119634Y327406D01*
X104054D02*
X111135D01*
D58*
X91138Y50080D02*
D03*
X139638D02*
D03*
D59*
X79138Y23580D02*
D03*
X151638D02*
D03*
D60*
X25317Y325075D02*
D03*
X205317D02*
D03*
X25317Y25076D02*
D03*
X205317D02*
D03*
D61*
X79502Y208534D02*
D03*
X66112Y114237D02*
D03*
X70612Y123444D02*
D03*
X148844Y171450D02*
D03*
X143234Y183410D02*
D03*
X140684Y178022D02*
D03*
X140462Y169926D02*
D03*
X154185Y167932D02*
D03*
X119380Y124817D02*
D03*
X103378Y251206D02*
D03*
X140970Y291084D02*
D03*
X179832Y165608D02*
D03*
X149240Y123810D02*
D03*
X143510Y118364D02*
D03*
X140208Y113284D02*
D03*
X67564Y222504D02*
D03*
X65024Y126492D02*
D03*
X63500Y106934D02*
D03*
X77228Y126758D02*
D03*
X158242Y248158D02*
D03*
X159004Y242570D02*
D03*
X159766Y217678D02*
D03*
X164338Y212852D02*
D03*
X149606Y247650D02*
D03*
X150876Y272542D02*
D03*
X149380Y210594D02*
D03*
X147320Y188468D02*
D03*
X175260Y199390D02*
D03*
X121412Y251714D02*
D03*
X127000Y103378D02*
D03*
X121666Y227584D02*
D03*
X156972Y268224D02*
D03*
X109220Y242316D02*
D03*
X107696Y227584D02*
D03*
X130048Y339090D02*
D03*
X102108Y326136D02*
D03*
X77978Y171958D02*
D03*
X48768Y211836D02*
D03*
X72390Y235966D02*
D03*
X49022Y200152D02*
D03*
X118872Y181610D02*
D03*
X113284Y175768D02*
D03*
X52547Y181387D02*
D03*
X31750Y93980D02*
D03*
X48514Y165862D02*
D03*
X24384Y111760D02*
D03*
X36576Y68072D02*
D03*
X59182D02*
D03*
X79248Y57912D02*
D03*
X102616Y235966D02*
D03*
X115062Y291084D02*
D03*
X141732Y197866D02*
D03*
X85598Y172466D02*
D03*
X56134Y171704D02*
D03*
X119634Y260350D02*
D03*
X99314Y106426D02*
D03*
X163322Y263652D02*
D03*
X90678Y290322D02*
D03*
X118110Y320548D02*
D03*
X49022Y150368D02*
D03*
X101092Y126492D02*
D03*
X83058D02*
D03*
D62*
X111096Y279846D02*
D03*
D63*
X111135Y339906D02*
D03*
X119634D02*
D03*
X111135Y327406D02*
D03*
X119634D02*
D03*
D64*
X107380Y169926D02*
D03*
Y181926D02*
D03*
X119380D02*
D03*
Y169926D02*
D03*
D65*
X91480Y251526D02*
D03*
X135280D02*
D03*
Y100926D02*
D03*
X91480D02*
D03*
X77380Y218426D02*
D03*
X149380D02*
D03*
X137380D02*
D03*
X125380D02*
D03*
X113380D02*
D03*
X101380D02*
D03*
X89380D02*
D03*
X149380Y133426D02*
D03*
X137380D02*
D03*
X125380D02*
D03*
X113380D02*
D03*
X101380D02*
D03*
X89380D02*
D03*
X77380D02*
D03*
D66*
X63380Y193926D02*
D03*
X163380Y181926D02*
D03*
Y157926D02*
D03*
Y169926D02*
D03*
X63380Y157926D02*
D03*
Y169926D02*
D03*
Y181926D02*
D03*
D67*
X163380Y193926D02*
D03*
M02*
