G04*
G04 #@! TF.GenerationSoftware,Altium Limited,Altium Designer,22.11.1 (43)*
G04*
G04 Layer_Color=32896*
%FSLAX44Y44*%
%MOMM*%
G71*
G04*
G04 #@! TF.SameCoordinates,B8883E9C-D705-438C-9963-9241EE4E2B18*
G04*
G04*
G04 #@! TF.FilePolarity,Positive*
G04*
G01*
G75*
%ADD12C,0.1520*%
%ADD15C,0.5080*%
%ADD18C,0.2540*%
G36*
X167944Y236313D02*
X167549D01*
Y236761D01*
X167944D01*
Y236313D01*
D02*
G37*
G36*
X163726Y235927D02*
X163828Y235908D01*
X163916Y235884D01*
X163999Y235854D01*
X164062Y235825D01*
X164111Y235801D01*
X164126Y235791D01*
X164140Y235781D01*
X164145Y235776D01*
X164150D01*
X164233Y235713D01*
X164301Y235644D01*
X164360Y235571D01*
X164414Y235503D01*
X164453Y235440D01*
X164477Y235391D01*
X164487Y235371D01*
X164496Y235357D01*
X164501Y235347D01*
Y235342D01*
X164540Y235235D01*
X164570Y235128D01*
X164589Y235025D01*
X164604Y234928D01*
X164613Y234850D01*
Y234816D01*
X164618Y234786D01*
Y234762D01*
Y234742D01*
Y234733D01*
Y234728D01*
X164613Y234640D01*
X164609Y234552D01*
X164579Y234396D01*
X164555Y234323D01*
X164536Y234255D01*
X164511Y234191D01*
X164487Y234133D01*
X164462Y234079D01*
X164438Y234035D01*
X164414Y233996D01*
X164394Y233962D01*
X164380Y233933D01*
X164365Y233913D01*
X164360Y233904D01*
X164355Y233899D01*
X164301Y233840D01*
X164248Y233787D01*
X164189Y233743D01*
X164126Y233704D01*
X164067Y233669D01*
X164004Y233640D01*
X163945Y233616D01*
X163887Y233601D01*
X163828Y233587D01*
X163780Y233577D01*
X163731Y233567D01*
X163692Y233562D01*
X163658Y233557D01*
X163614D01*
X163545Y233562D01*
X163477Y233572D01*
X163414Y233587D01*
X163355Y233606D01*
X163243Y233655D01*
X163151Y233708D01*
X163077Y233762D01*
X163048Y233791D01*
X163019Y233811D01*
X162999Y233830D01*
X162985Y233845D01*
X162980Y233855D01*
X162975Y233860D01*
Y233791D01*
Y233728D01*
Y233674D01*
Y233621D01*
X162980Y233577D01*
Y233533D01*
X162990Y233465D01*
X162994Y233416D01*
X162999Y233382D01*
X163004Y233362D01*
Y233357D01*
X163029Y233289D01*
X163058Y233226D01*
X163087Y233177D01*
X163121Y233133D01*
X163155Y233099D01*
X163180Y233074D01*
X163199Y233060D01*
X163204Y233055D01*
X163263Y233016D01*
X163331Y232992D01*
X163399Y232972D01*
X163468Y232957D01*
X163531Y232948D01*
X163580Y232943D01*
X163624D01*
X163711Y232948D01*
X163794Y232962D01*
X163862Y232977D01*
X163916Y233001D01*
X163965Y233021D01*
X163994Y233035D01*
X164019Y233050D01*
X164023Y233055D01*
X164062Y233089D01*
X164092Y233128D01*
X164116Y233172D01*
X164136Y233216D01*
X164145Y233255D01*
X164155Y233284D01*
X164160Y233304D01*
Y233313D01*
X164540Y233367D01*
Y233299D01*
X164531Y233235D01*
X164506Y233123D01*
X164467Y233026D01*
X164423Y232948D01*
X164375Y232884D01*
X164336Y232840D01*
X164306Y232816D01*
X164301Y232806D01*
X164296D01*
X164194Y232743D01*
X164082Y232694D01*
X163970Y232665D01*
X163862Y232640D01*
X163770Y232626D01*
X163726Y232621D01*
X163692D01*
X163663Y232616D01*
X163624D01*
X163497Y232621D01*
X163385Y232636D01*
X163282Y232660D01*
X163194Y232684D01*
X163126Y232704D01*
X163077Y232728D01*
X163058Y232738D01*
X163043Y232743D01*
X163038Y232748D01*
X163034D01*
X162951Y232801D01*
X162877Y232860D01*
X162819Y232918D01*
X162770Y232977D01*
X162736Y233031D01*
X162707Y233070D01*
X162692Y233099D01*
X162687Y233104D01*
Y233109D01*
X162668Y233153D01*
X162648Y233206D01*
X162624Y233323D01*
X162604Y233450D01*
X162590Y233572D01*
X162585Y233630D01*
X162580Y233689D01*
Y233738D01*
X162575Y233782D01*
Y233821D01*
Y233845D01*
Y233864D01*
Y233869D01*
Y235879D01*
X162936D01*
Y235596D01*
X162985Y235654D01*
X163038Y235708D01*
X163097Y235752D01*
X163151Y235791D01*
X163209Y235825D01*
X163267Y235849D01*
X163321Y235874D01*
X163375Y235888D01*
X163468Y235913D01*
X163511Y235923D01*
X163545Y235927D01*
X163575Y235932D01*
X163614D01*
X163726Y235927D01*
D02*
G37*
G36*
X160907Y236698D02*
X160961Y236620D01*
X161019Y236547D01*
X161078Y236479D01*
X161131Y236425D01*
X161175Y236381D01*
X161205Y236352D01*
X161210Y236347D01*
X161214Y236342D01*
X161307Y236264D01*
X161405Y236191D01*
X161502Y236127D01*
X161590Y236074D01*
X161668Y236030D01*
X161702Y236015D01*
X161731Y236000D01*
X161751Y235986D01*
X161770Y235976D01*
X161780Y235971D01*
X161785D01*
Y235586D01*
X161717Y235615D01*
X161644Y235649D01*
X161575Y235679D01*
X161512Y235713D01*
X161458Y235742D01*
X161414Y235767D01*
X161385Y235786D01*
X161380Y235791D01*
X161375D01*
X161292Y235840D01*
X161219Y235893D01*
X161156Y235937D01*
X161102Y235981D01*
X161058Y236015D01*
X161024Y236040D01*
X161005Y236059D01*
X161000Y236064D01*
Y233557D01*
X160605D01*
Y236776D01*
X160863D01*
X160907Y236698D01*
D02*
G37*
G36*
X171119Y233557D02*
X170695D01*
Y234981D01*
X170149D01*
X170100Y234976D01*
X170061D01*
X170027Y234972D01*
X170002Y234967D01*
X169983D01*
X169973Y234962D01*
X169968D01*
X169895Y234937D01*
X169837Y234908D01*
X169812Y234893D01*
X169793Y234884D01*
X169783Y234879D01*
X169778Y234874D01*
X169739Y234850D01*
X169705Y234816D01*
X169632Y234747D01*
X169607Y234713D01*
X169583Y234684D01*
X169568Y234664D01*
X169564Y234659D01*
X169515Y234596D01*
X169466Y234528D01*
X169412Y234455D01*
X169363Y234381D01*
X169320Y234318D01*
X169286Y234269D01*
X169276Y234250D01*
X169266Y234235D01*
X169256Y234225D01*
Y234221D01*
X168832Y233557D01*
X168300D01*
X168856Y234425D01*
X168920Y234518D01*
X168983Y234601D01*
X169042Y234674D01*
X169095Y234737D01*
X169139Y234786D01*
X169173Y234825D01*
X169198Y234845D01*
X169207Y234855D01*
X169242Y234884D01*
X169286Y234913D01*
X169368Y234967D01*
X169403Y234986D01*
X169432Y235001D01*
X169451Y235011D01*
X169461Y235015D01*
X169378Y235030D01*
X169300Y235045D01*
X169227Y235064D01*
X169164Y235089D01*
X169100Y235113D01*
X169047Y235137D01*
X168993Y235162D01*
X168949Y235186D01*
X168910Y235210D01*
X168876Y235230D01*
X168847Y235254D01*
X168822Y235269D01*
X168808Y235289D01*
X168793Y235298D01*
X168783Y235308D01*
X168744Y235352D01*
X168710Y235401D01*
X168652Y235498D01*
X168612Y235591D01*
X168588Y235684D01*
X168569Y235762D01*
X168564Y235796D01*
Y235825D01*
X168559Y235849D01*
Y235869D01*
Y235879D01*
Y235884D01*
X168564Y235981D01*
X168578Y236069D01*
X168603Y236152D01*
X168627Y236225D01*
X168652Y236283D01*
X168676Y236327D01*
X168690Y236357D01*
X168695Y236366D01*
X168749Y236444D01*
X168808Y236508D01*
X168866Y236561D01*
X168925Y236600D01*
X168973Y236635D01*
X169012Y236659D01*
X169042Y236669D01*
X169047Y236674D01*
X169051D01*
X169095Y236688D01*
X169144Y236703D01*
X169247Y236722D01*
X169354Y236742D01*
X169456Y236752D01*
X169554Y236756D01*
X169593D01*
X169632Y236761D01*
X171119D01*
Y233557D01*
D02*
G37*
G36*
X167944D02*
X167549D01*
Y235879D01*
X167944D01*
Y233557D01*
D02*
G37*
G36*
X165950Y235927D02*
X166033Y235918D01*
X166111Y235898D01*
X166179Y235874D01*
X166247Y235844D01*
X166306Y235810D01*
X166359Y235776D01*
X166413Y235742D01*
X166457Y235703D01*
X166491Y235669D01*
X166525Y235635D01*
X166550Y235606D01*
X166574Y235581D01*
X166589Y235562D01*
X166593Y235552D01*
X166598Y235547D01*
Y235879D01*
X166954D01*
Y233557D01*
X166559D01*
Y234825D01*
Y234903D01*
X166550Y234976D01*
X166545Y235045D01*
X166530Y235108D01*
X166516Y235162D01*
X166501Y235210D01*
X166486Y235254D01*
X166467Y235293D01*
X166452Y235327D01*
X166437Y235357D01*
X166408Y235396D01*
X166389Y235420D01*
X166379Y235430D01*
X166311Y235484D01*
X166233Y235523D01*
X166164Y235552D01*
X166096Y235571D01*
X166033Y235581D01*
X165989Y235591D01*
X165945D01*
X165886Y235586D01*
X165838Y235581D01*
X165789Y235567D01*
X165750Y235557D01*
X165716Y235542D01*
X165691Y235527D01*
X165677Y235523D01*
X165672Y235518D01*
X165633Y235488D01*
X165599Y235454D01*
X165569Y235425D01*
X165545Y235391D01*
X165530Y235367D01*
X165521Y235342D01*
X165511Y235327D01*
Y235323D01*
X165496Y235274D01*
X165482Y235220D01*
X165472Y235157D01*
X165467Y235103D01*
X165462Y235050D01*
Y235006D01*
Y234976D01*
Y234972D01*
Y234967D01*
Y233557D01*
X165067D01*
Y234981D01*
Y235079D01*
X165072Y235157D01*
X165077Y235225D01*
Y235279D01*
X165082Y235318D01*
X165087Y235347D01*
X165091Y235362D01*
Y235367D01*
X165106Y235425D01*
X165126Y235484D01*
X165145Y235532D01*
X165165Y235571D01*
X165184Y235606D01*
X165199Y235635D01*
X165208Y235649D01*
X165213Y235654D01*
X165247Y235698D01*
X165291Y235737D01*
X165335Y235771D01*
X165379Y235801D01*
X165418Y235825D01*
X165448Y235840D01*
X165467Y235849D01*
X165477Y235854D01*
X165545Y235879D01*
X165608Y235898D01*
X165677Y235913D01*
X165735Y235923D01*
X165784Y235927D01*
X165828Y235932D01*
X165862D01*
X165950Y235927D01*
D02*
G37*
G36*
X110657Y335119D02*
X110711Y335041D01*
X110769Y334967D01*
X110828Y334899D01*
X110881Y334846D01*
X110925Y334802D01*
X110955Y334772D01*
X110959Y334767D01*
X110964Y334763D01*
X111057Y334685D01*
X111154Y334612D01*
X111252Y334548D01*
X111340Y334494D01*
X111418Y334450D01*
X111452Y334436D01*
X111481Y334421D01*
X111501Y334407D01*
X111520Y334397D01*
X111530Y334392D01*
X111535D01*
Y334007D01*
X111467Y334036D01*
X111393Y334070D01*
X111325Y334099D01*
X111262Y334133D01*
X111208Y334163D01*
X111164Y334187D01*
X111135Y334207D01*
X111130Y334212D01*
X111125D01*
X111042Y334260D01*
X110969Y334314D01*
X110906Y334358D01*
X110852Y334402D01*
X110808Y334436D01*
X110774Y334460D01*
X110755Y334480D01*
X110750Y334485D01*
Y331978D01*
X110355D01*
Y335197D01*
X110613D01*
X110657Y335119D01*
D02*
G37*
G36*
X120396Y331978D02*
X118397D01*
Y332354D01*
X119972D01*
Y335182D01*
X120396D01*
Y331978D01*
D02*
G37*
G36*
X117880D02*
X115490D01*
Y332354D01*
X117455D01*
Y333446D01*
X115685D01*
Y333821D01*
X117455D01*
Y334807D01*
X115563D01*
Y335182D01*
X117880D01*
Y331978D01*
D02*
G37*
G36*
X114905D02*
X113754D01*
X113646Y331983D01*
X113549Y331988D01*
X113461Y331997D01*
X113388Y332007D01*
X113325Y332017D01*
X113281Y332022D01*
X113251Y332032D01*
X113242D01*
X113159Y332056D01*
X113086Y332080D01*
X113022Y332105D01*
X112969Y332129D01*
X112925Y332154D01*
X112891Y332173D01*
X112866Y332183D01*
X112861Y332188D01*
X112803Y332232D01*
X112749Y332280D01*
X112696Y332329D01*
X112656Y332373D01*
X112618Y332417D01*
X112593Y332451D01*
X112574Y332471D01*
X112569Y332480D01*
X112520Y332553D01*
X112476Y332631D01*
X112437Y332710D01*
X112408Y332783D01*
X112383Y332851D01*
X112364Y332900D01*
X112359Y332919D01*
X112354Y332934D01*
X112349Y332944D01*
Y332948D01*
X112320Y333056D01*
X112301Y333168D01*
X112281Y333280D01*
X112271Y333378D01*
X112266Y333465D01*
Y333504D01*
X112261Y333534D01*
Y333563D01*
Y333582D01*
Y333592D01*
Y333597D01*
X112266Y333753D01*
X112281Y333895D01*
X112301Y334021D01*
X112315Y334080D01*
X112325Y334133D01*
X112335Y334182D01*
X112349Y334226D01*
X112359Y334265D01*
X112369Y334295D01*
X112379Y334319D01*
X112383Y334338D01*
X112388Y334348D01*
Y334353D01*
X112442Y334475D01*
X112500Y334582D01*
X112564Y334675D01*
X112627Y334753D01*
X112681Y334816D01*
X112725Y334865D01*
X112759Y334894D01*
X112764Y334904D01*
X112769D01*
X112847Y334963D01*
X112925Y335011D01*
X113003Y335050D01*
X113076Y335080D01*
X113139Y335104D01*
X113193Y335119D01*
X113212Y335128D01*
X113222D01*
X113232Y335133D01*
X113237D01*
X113315Y335148D01*
X113407Y335163D01*
X113505Y335172D01*
X113593Y335177D01*
X113676Y335182D01*
X114905D01*
Y331978D01*
D02*
G37*
G36*
X112319Y177145D02*
X112397Y177140D01*
X112543Y177111D01*
X112607Y177097D01*
X112670Y177077D01*
X112724Y177053D01*
X112773Y177033D01*
X112817Y177009D01*
X112856Y176989D01*
X112890Y176965D01*
X112919Y176950D01*
X112939Y176936D01*
X112953Y176921D01*
X112963Y176916D01*
X112968Y176911D01*
X113017Y176862D01*
X113056Y176814D01*
X113129Y176702D01*
X113182Y176589D01*
X113221Y176477D01*
X113251Y176380D01*
X113256Y176336D01*
X113265Y176297D01*
X113270Y176268D01*
X113275Y176243D01*
Y176229D01*
Y176224D01*
X112870Y176180D01*
X112860Y176287D01*
X112841Y176380D01*
X112817Y176458D01*
X112782Y176526D01*
X112753Y176580D01*
X112724Y176619D01*
X112704Y176638D01*
X112700Y176648D01*
X112631Y176706D01*
X112558Y176750D01*
X112480Y176779D01*
X112407Y176804D01*
X112344Y176814D01*
X112295Y176819D01*
X112275Y176823D01*
X112246D01*
X112149Y176819D01*
X112061Y176799D01*
X111988Y176775D01*
X111924Y176745D01*
X111875Y176711D01*
X111836Y176687D01*
X111817Y176667D01*
X111807Y176663D01*
X111749Y176599D01*
X111710Y176531D01*
X111680Y176467D01*
X111656Y176404D01*
X111646Y176350D01*
X111641Y176306D01*
X111636Y176277D01*
Y176272D01*
Y176268D01*
X111646Y176185D01*
X111666Y176097D01*
X111695Y176019D01*
X111729Y175946D01*
X111763Y175882D01*
X111792Y175833D01*
X111802Y175814D01*
X111812Y175799D01*
X111822Y175794D01*
Y175790D01*
X111861Y175741D01*
X111905Y175687D01*
X111953Y175634D01*
X112012Y175580D01*
X112129Y175468D01*
X112246Y175355D01*
X112353Y175263D01*
X112402Y175219D01*
X112446Y175185D01*
X112480Y175151D01*
X112505Y175131D01*
X112524Y175117D01*
X112529Y175112D01*
X112646Y175009D01*
X112753Y174917D01*
X112841Y174834D01*
X112914Y174765D01*
X112973Y174707D01*
X113012Y174663D01*
X113036Y174634D01*
X113046Y174629D01*
Y174624D01*
X113109Y174546D01*
X113158Y174473D01*
X113207Y174400D01*
X113241Y174336D01*
X113270Y174278D01*
X113290Y174239D01*
X113299Y174209D01*
X113304Y174205D01*
Y174200D01*
X113319Y174151D01*
X113334Y174102D01*
X113338Y174058D01*
X113343Y174019D01*
X113348Y173985D01*
Y173956D01*
Y173936D01*
Y173932D01*
X111227D01*
Y174307D01*
X112802D01*
X112748Y174385D01*
X112695Y174448D01*
X112670Y174478D01*
X112651Y174497D01*
X112641Y174512D01*
X112636Y174517D01*
X112612Y174541D01*
X112587Y174566D01*
X112524Y174624D01*
X112446Y174692D01*
X112373Y174760D01*
X112300Y174824D01*
X112241Y174873D01*
X112217Y174892D01*
X112197Y174907D01*
X112188Y174917D01*
X112183Y174921D01*
X112105Y174990D01*
X112036Y175048D01*
X111968Y175107D01*
X111910Y175160D01*
X111856Y175214D01*
X111807Y175258D01*
X111758Y175302D01*
X111719Y175341D01*
X111685Y175375D01*
X111656Y175404D01*
X111612Y175448D01*
X111588Y175477D01*
X111578Y175487D01*
X111515Y175565D01*
X111456Y175634D01*
X111412Y175702D01*
X111378Y175760D01*
X111349Y175809D01*
X111329Y175843D01*
X111320Y175868D01*
X111315Y175877D01*
X111285Y175946D01*
X111266Y176014D01*
X111251Y176077D01*
X111241Y176136D01*
X111237Y176185D01*
X111232Y176224D01*
Y176248D01*
Y176258D01*
X111237Y176326D01*
X111241Y176394D01*
X111276Y176516D01*
X111320Y176623D01*
X111368Y176716D01*
X111417Y176789D01*
X111441Y176819D01*
X111461Y176848D01*
X111480Y176867D01*
X111495Y176882D01*
X111500Y176887D01*
X111505Y176892D01*
X111558Y176936D01*
X111612Y176980D01*
X111671Y177014D01*
X111734Y177043D01*
X111856Y177087D01*
X111973Y177116D01*
X112027Y177131D01*
X112075Y177136D01*
X112119Y177140D01*
X112158Y177145D01*
X112192Y177150D01*
X112236D01*
X112319Y177145D01*
D02*
G37*
G36*
X116357Y175282D02*
Y175190D01*
X116352Y175102D01*
X116347Y175019D01*
X116338Y174941D01*
X116328Y174873D01*
X116318Y174804D01*
X116308Y174746D01*
X116294Y174692D01*
X116284Y174643D01*
X116274Y174600D01*
X116264Y174561D01*
X116255Y174531D01*
X116245Y174507D01*
X116240Y174492D01*
X116235Y174483D01*
Y174478D01*
X116182Y174375D01*
X116118Y174283D01*
X116055Y174209D01*
X115987Y174146D01*
X115928Y174092D01*
X115874Y174058D01*
X115855Y174044D01*
X115845Y174039D01*
X115835Y174029D01*
X115830D01*
X115718Y173980D01*
X115591Y173941D01*
X115470Y173917D01*
X115353Y173897D01*
X115299Y173892D01*
X115250Y173888D01*
X115206Y173883D01*
X115167D01*
X115138Y173878D01*
X115094D01*
X114928Y173888D01*
X114782Y173907D01*
X114714Y173917D01*
X114655Y173932D01*
X114597Y173951D01*
X114548Y173966D01*
X114504Y173980D01*
X114460Y174000D01*
X114426Y174014D01*
X114402Y174024D01*
X114377Y174039D01*
X114363Y174044D01*
X114353Y174053D01*
X114348D01*
X114250Y174127D01*
X114163Y174200D01*
X114094Y174278D01*
X114041Y174351D01*
X114002Y174419D01*
X113972Y174468D01*
X113963Y174487D01*
X113958Y174502D01*
X113953Y174512D01*
Y174517D01*
X113914Y174629D01*
X113890Y174756D01*
X113870Y174883D01*
X113855Y175004D01*
X113850Y175063D01*
X113846Y175117D01*
Y175160D01*
X113841Y175204D01*
Y175238D01*
Y175263D01*
Y175278D01*
Y175282D01*
Y177136D01*
X114265D01*
Y175282D01*
Y175175D01*
X114275Y175073D01*
X114285Y174985D01*
X114294Y174902D01*
X114309Y174824D01*
X114328Y174760D01*
X114348Y174702D01*
X114363Y174648D01*
X114382Y174604D01*
X114402Y174566D01*
X114416Y174536D01*
X114436Y174512D01*
X114445Y174492D01*
X114455Y174478D01*
X114465Y174473D01*
Y174468D01*
X114504Y174429D01*
X114553Y174400D01*
X114655Y174346D01*
X114762Y174312D01*
X114875Y174283D01*
X114972Y174268D01*
X115016Y174263D01*
X115055D01*
X115089Y174258D01*
X115133D01*
X115231Y174263D01*
X115318Y174273D01*
X115396Y174292D01*
X115465Y174312D01*
X115518Y174326D01*
X115557Y174346D01*
X115582Y174356D01*
X115591Y174361D01*
X115660Y174405D01*
X115714Y174453D01*
X115762Y174507D01*
X115796Y174556D01*
X115826Y174600D01*
X115845Y174634D01*
X115855Y174658D01*
X115860Y174668D01*
X115874Y174707D01*
X115884Y174751D01*
X115904Y174848D01*
X115913Y174951D01*
X115923Y175048D01*
X115928Y175141D01*
X115933Y175180D01*
Y175214D01*
Y175243D01*
Y175263D01*
Y175278D01*
Y175282D01*
Y177136D01*
X116357D01*
Y175282D01*
D02*
G37*
%LPC*%
G36*
X163609Y235606D02*
X163536D01*
X163487Y235596D01*
X163399Y235571D01*
X163321Y235537D01*
X163258Y235498D01*
X163204Y235454D01*
X163165Y235420D01*
X163141Y235396D01*
X163131Y235391D01*
Y235386D01*
X163097Y235342D01*
X163068Y235298D01*
X163019Y235196D01*
X162985Y235089D01*
X162965Y234986D01*
X162951Y234889D01*
X162946Y234850D01*
Y234811D01*
X162941Y234781D01*
Y234762D01*
Y234747D01*
Y234742D01*
Y234664D01*
X162951Y234586D01*
X162955Y234518D01*
X162970Y234455D01*
X162985Y234396D01*
X162999Y234342D01*
X163014Y234294D01*
X163034Y234250D01*
X163053Y234211D01*
X163068Y234177D01*
X163082Y234152D01*
X163097Y234128D01*
X163107Y234113D01*
X163116Y234099D01*
X163126Y234094D01*
Y234089D01*
X163199Y234021D01*
X163272Y233972D01*
X163350Y233933D01*
X163419Y233908D01*
X163482Y233894D01*
X163536Y233889D01*
X163555Y233884D01*
X163580D01*
X163628Y233889D01*
X163677Y233894D01*
X163765Y233918D01*
X163843Y233952D01*
X163906Y233991D01*
X163960Y234025D01*
X163999Y234060D01*
X164023Y234084D01*
X164033Y234094D01*
X164062Y234138D01*
X164092Y234181D01*
X164136Y234284D01*
X164170Y234396D01*
X164189Y234503D01*
X164204Y234601D01*
X164209Y234645D01*
Y234684D01*
X164214Y234713D01*
Y234737D01*
Y234752D01*
Y234757D01*
X164204Y234903D01*
X164184Y235035D01*
X164170Y235089D01*
X164155Y235142D01*
X164140Y235191D01*
X164121Y235230D01*
X164106Y235269D01*
X164092Y235303D01*
X164077Y235327D01*
X164062Y235352D01*
X164048Y235367D01*
X164043Y235381D01*
X164033Y235391D01*
X163999Y235430D01*
X163960Y235464D01*
X163887Y235513D01*
X163809Y235552D01*
X163741Y235581D01*
X163677Y235596D01*
X163628Y235601D01*
X163609Y235606D01*
D02*
G37*
G36*
X170695Y236405D02*
X169685D01*
X169559Y236400D01*
X169451Y236381D01*
X169363Y236361D01*
X169290Y236332D01*
X169237Y236308D01*
X169193Y236283D01*
X169173Y236264D01*
X169164Y236259D01*
X169110Y236201D01*
X169066Y236137D01*
X169037Y236074D01*
X169017Y236015D01*
X169007Y235961D01*
X168998Y235923D01*
Y235893D01*
Y235888D01*
Y235884D01*
X169003Y235825D01*
X169012Y235771D01*
X169027Y235723D01*
X169042Y235684D01*
X169056Y235644D01*
X169071Y235620D01*
X169081Y235601D01*
X169086Y235596D01*
X169120Y235552D01*
X169159Y235513D01*
X169203Y235479D01*
X169242Y235450D01*
X169276Y235430D01*
X169305Y235415D01*
X169324Y235410D01*
X169334Y235406D01*
X169398Y235386D01*
X169471Y235371D01*
X169549Y235362D01*
X169622Y235357D01*
X169685Y235352D01*
X169739Y235347D01*
X170695D01*
Y236405D01*
D02*
G37*
G36*
X114480Y334807D02*
X113812D01*
X113681Y334802D01*
X113568Y334797D01*
X113476Y334787D01*
X113398Y334772D01*
X113339Y334758D01*
X113300Y334748D01*
X113276Y334743D01*
X113266Y334738D01*
X113183Y334694D01*
X113105Y334641D01*
X113037Y334582D01*
X112978Y334519D01*
X112930Y334465D01*
X112895Y334416D01*
X112881Y334397D01*
X112876Y334382D01*
X112866Y334377D01*
Y334372D01*
X112837Y334319D01*
X112813Y334260D01*
X112769Y334138D01*
X112739Y334012D01*
X112720Y333885D01*
X112715Y333831D01*
X112710Y333778D01*
X112705Y333729D01*
X112700Y333685D01*
Y333651D01*
Y333626D01*
Y333607D01*
Y333602D01*
X112705Y333470D01*
X112715Y333353D01*
X112730Y333246D01*
X112744Y333153D01*
X112759Y333080D01*
X112769Y333051D01*
X112774Y333027D01*
X112778Y333007D01*
X112783Y332992D01*
X112788Y332988D01*
Y332983D01*
X112822Y332895D01*
X112861Y332812D01*
X112900Y332744D01*
X112935Y332685D01*
X112969Y332641D01*
X112998Y332607D01*
X113017Y332583D01*
X113022Y332578D01*
X113066Y332539D01*
X113110Y332505D01*
X113159Y332480D01*
X113208Y332456D01*
X113247Y332436D01*
X113281Y332422D01*
X113300Y332417D01*
X113310Y332412D01*
X113383Y332393D01*
X113461Y332378D01*
X113544Y332368D01*
X113622Y332363D01*
X113695Y332358D01*
X113749Y332354D01*
X114480D01*
Y334807D01*
D02*
G37*
%LPD*%
D12*
X115385Y332386D02*
Y334926D01*
X106495Y325656D02*
Y341656D01*
X124275Y325656D02*
Y341656D01*
X112210Y334926D02*
X118560D01*
X115385Y332386D02*
X118560Y334926D01*
X112210D02*
X115385Y332386D01*
X113722Y333716D02*
X116933Y334926D01*
D15*
X195466Y302431D02*
G03*
X195466Y302431I-3810J0D01*
G01*
D18*
X38476Y153990D02*
G03*
X188476Y153990I75000J0D01*
G01*
Y193990D02*
G03*
X38476Y193990I-75000J0D01*
G01*
X188476D02*
G03*
X38476Y193990I-75000J0D01*
G01*
Y153990D02*
G03*
X188476Y153990I75000J0D01*
G01*
Y193990D01*
Y153990D02*
Y193990D01*
X38476Y153990D02*
Y193990D01*
Y153990D02*
Y193990D01*
X162910Y219106D02*
Y222916D01*
X178150Y207676D01*
X162910D02*
X178150D01*
X162910D02*
Y219106D01*
M02*
