G04*
G04 #@! TF.GenerationSoftware,Altium Limited,Altium Designer,22.11.1 (43)*
G04*
G04 Layer_Color=32768*
%FSLAX44Y44*%
%MOMM*%
G71*
G04*
G04 #@! TF.SameCoordinates,B8883E9C-D705-438C-9963-9241EE4E2B18*
G04*
G04*
G04 #@! TF.FilePolarity,Positive*
G04*
G01*
G75*
%ADD10C,0.1900*%
%ADD11C,0.1000*%
%ADD21C,0.2000*%
%ADD75C,0.0500*%
G36*
X120465Y340641D02*
X122370D01*
Y339370D01*
X121100Y339371D01*
X120465Y339371D01*
Y337466D01*
X119195D01*
Y338736D01*
Y339370D01*
X117290Y339370D01*
Y340641D01*
X119195D01*
Y342546D01*
X120465D01*
Y340641D01*
D02*
G37*
G36*
X111966D02*
X113871D01*
Y339370D01*
X112601Y339371D01*
X111966Y339371D01*
Y337466D01*
X110696D01*
Y338736D01*
Y339370D01*
X108791Y339370D01*
Y340641D01*
X110696D01*
Y342546D01*
X111966D01*
Y340641D01*
D02*
G37*
G36*
X120465Y324766D02*
X119195D01*
Y326036D01*
Y329846D01*
X120465D01*
Y324766D01*
D02*
G37*
G36*
X110940D02*
X109670D01*
Y326036D01*
Y329846D01*
X110940D01*
Y324766D01*
D02*
G37*
D10*
X44493Y142073D02*
G03*
X44493Y142073I-945J0D01*
G01*
X176667Y157567D02*
G03*
X176667Y157567I-945J0D01*
G01*
D11*
X108030Y176022D02*
X118030D01*
X113030Y171022D02*
Y181022D01*
D21*
X99390Y56456D02*
G03*
X99390Y56456I-1001J0D01*
G01*
D75*
X87030Y150022D02*
Y202022D01*
X139030Y150022D02*
Y202022D01*
X87030Y150022D02*
X139030D01*
X87030Y202022D02*
X139030D01*
M02*
