G04*
G04 #@! TF.GenerationSoftware,Altium Limited,Altium Designer,22.11.1 (43)*
G04*
G04 Layer_Color=8388736*
%FSLAX44Y44*%
%MOMM*%
G71*
G04*
G04 #@! TF.SameCoordinates,B8883E9C-D705-438C-9963-9241EE4E2B18*
G04*
G04*
G04 #@! TF.FilePolarity,Negative*
G04*
G01*
G75*
%ADD25C,0.2000*%
%ADD28R,0.9906X2.8448*%
%ADD29R,0.6096X1.7018*%
%ADD38R,0.7516X0.7016*%
%ADD39R,0.5016X1.7016*%
%ADD40R,0.5016X0.6116*%
%ADD41R,0.5032X0.6032*%
%ADD42P,0.8225X4X270.0*%
%ADD43O,2.0091X0.7106*%
%ADD44R,2.2032X2.2032*%
%ADD45O,0.9532X0.4032*%
%ADD46O,0.4032X0.9532*%
%ADD47R,0.6032X0.5032*%
%ADD48R,0.5000X0.3700*%
%ADD49C,1.2032*%
%ADD50R,0.3700X0.5000*%
%ADD51R,0.7016X0.7516*%
%ADD52C,1.1016*%
%ADD53O,1.1016X1.7016*%
%ADD54C,4.2032*%
G36*
X38242Y88663D02*
X38291Y88658D01*
X38363Y88636D01*
X38385Y88629D01*
X38472Y88583D01*
X38548Y88520D01*
X41048Y86020D01*
X41110Y85944D01*
X41157Y85857D01*
X41163Y85835D01*
X41185Y85763D01*
X41190Y85714D01*
X41195Y85665D01*
X41195Y85665D01*
Y84666D01*
X41185Y84568D01*
X41157Y84474D01*
X41110Y84387D01*
X41048Y84311D01*
X40972Y84249D01*
X40885Y84202D01*
X40791Y84173D01*
X40693Y84164D01*
X37692D01*
X37594Y84173D01*
X37500Y84202D01*
X37413Y84249D01*
X37337Y84311D01*
X37275Y84387D01*
X37228Y84474D01*
X37200Y84568D01*
X37190Y84666D01*
Y88165D01*
X37200Y88263D01*
X37228Y88357D01*
X37275Y88444D01*
X37337Y88520D01*
X37413Y88583D01*
X37500Y88629D01*
X37594Y88658D01*
X37692Y88667D01*
X38192D01*
X38193Y88667D01*
X38242Y88663D01*
D02*
G37*
G36*
X46693Y88667D02*
X47192D01*
X47291Y88658D01*
X47385Y88629D01*
X47472Y88583D01*
X47548Y88520D01*
X47610Y88444D01*
X47657Y88357D01*
X47685Y88263D01*
X47695Y88165D01*
Y84666D01*
X47685Y84568D01*
X47657Y84474D01*
X47610Y84387D01*
X47548Y84311D01*
X47472Y84249D01*
X47385Y84202D01*
X47291Y84173D01*
X47192Y84164D01*
X44192D01*
X44094Y84173D01*
X44000Y84202D01*
X43913Y84249D01*
X43837Y84311D01*
X43774Y84387D01*
X43728Y84474D01*
X43699Y84568D01*
X43690Y84666D01*
Y85165D01*
Y85665D01*
X43690Y85665D01*
X43695Y85714D01*
X43699Y85763D01*
X43721Y85835D01*
X43728Y85857D01*
X43774Y85944D01*
X43837Y86020D01*
X46337Y88520D01*
X46413Y88583D01*
X46500Y88629D01*
X46522Y88636D01*
X46594Y88658D01*
X46643Y88663D01*
X46692Y88667D01*
X46693Y88667D01*
D02*
G37*
G36*
X40791Y95659D02*
X40885Y95630D01*
X40972Y95584D01*
X41048Y95521D01*
X41110Y95445D01*
X41157Y95358D01*
X41185Y95264D01*
X41195Y95166D01*
Y94165D01*
X41195Y94165D01*
X41190Y94116D01*
X41185Y94067D01*
X41163Y93995D01*
X41157Y93973D01*
X41110Y93886D01*
X41048Y93809D01*
X38548Y91309D01*
X38472Y91247D01*
X38385Y91201D01*
X38363Y91194D01*
X38291Y91172D01*
X38242Y91167D01*
X38193Y91162D01*
X38192Y91162D01*
X37692D01*
X37594Y91172D01*
X37500Y91201D01*
X37413Y91247D01*
X37337Y91309D01*
X37275Y91385D01*
X37228Y91472D01*
X37200Y91567D01*
X37190Y91665D01*
Y95166D01*
X37200Y95264D01*
X37228Y95358D01*
X37275Y95445D01*
X37337Y95521D01*
X37413Y95584D01*
X37500Y95630D01*
X37594Y95659D01*
X37692Y95668D01*
X40693D01*
X40791Y95659D01*
D02*
G37*
G36*
X47291D02*
X47385Y95630D01*
X47472Y95584D01*
X47548Y95521D01*
X47610Y95445D01*
X47657Y95358D01*
X47685Y95264D01*
X47695Y95166D01*
Y91165D01*
X47695Y91165D01*
X47686Y91076D01*
X47685Y91067D01*
X47657Y90972D01*
X47610Y90886D01*
X47599Y90872D01*
X47548Y90809D01*
X47506Y90775D01*
X47472Y90747D01*
X47425Y90722D01*
X47385Y90701D01*
X47291Y90672D01*
X47246Y90668D01*
X47193Y90662D01*
X47104Y90671D01*
X47094Y90672D01*
X47000Y90701D01*
X46913Y90747D01*
X46900Y90758D01*
X46837Y90809D01*
X46837Y90810D01*
X43837Y93809D01*
X43837Y93809D01*
X43803Y93851D01*
X43774Y93886D01*
X43728Y93973D01*
X43721Y93995D01*
X43699Y94067D01*
X43695Y94114D01*
X43690Y94165D01*
X43690Y94165D01*
Y95166D01*
X43699Y95264D01*
X43728Y95358D01*
X43774Y95445D01*
X43837Y95521D01*
X43913Y95584D01*
X44000Y95630D01*
X44094Y95659D01*
X44192Y95668D01*
X47192D01*
X47291Y95659D01*
D02*
G37*
D25*
X45974Y85852D02*
D03*
X38862D02*
D03*
Y93980D02*
D03*
X45974D02*
D03*
D28*
X65613Y334431D02*
D03*
X165113D02*
D03*
D29*
X84113Y302431D02*
D03*
X96613D02*
D03*
X109113D02*
D03*
X121613D02*
D03*
X134113D02*
D03*
X146613D02*
D03*
D38*
X36576Y102870D02*
D03*
Y111872D02*
D03*
X95758Y136794D02*
D03*
Y145796D02*
D03*
X89154Y215250D02*
D03*
Y206248D02*
D03*
X119126Y216083D02*
D03*
Y207081D02*
D03*
D39*
X102388Y51331D02*
D03*
X108888D02*
D03*
X115388D02*
D03*
X121888D02*
D03*
X128388D02*
D03*
D40*
X53848Y144272D02*
D03*
X43848D02*
D03*
X48848Y157272D02*
D03*
X181022Y172766D02*
D03*
X176022Y159766D02*
D03*
X186022D02*
D03*
D41*
X79248Y180848D02*
D03*
X73750D02*
D03*
X156673Y203454D02*
D03*
X151175D02*
D03*
X52070Y136144D02*
D03*
X46572D02*
D03*
X74004Y213614D02*
D03*
X79502D02*
D03*
X82460Y120904D02*
D03*
X76962D02*
D03*
X161634Y173736D02*
D03*
X167132D02*
D03*
X161380Y165862D02*
D03*
X166878D02*
D03*
X183806Y152146D02*
D03*
X178308D02*
D03*
X78232Y165100D02*
D03*
X83730D02*
D03*
X69760D02*
D03*
X64262D02*
D03*
X40640Y173482D02*
D03*
X35142D02*
D03*
X143854Y162306D02*
D03*
X149352D02*
D03*
X74213Y192786D02*
D03*
X79711D02*
D03*
X80010Y201676D02*
D03*
X74512D02*
D03*
D42*
X42442Y89915D02*
D03*
D43*
X205076Y260684D02*
D03*
Y247984D02*
D03*
Y235284D02*
D03*
Y222584D02*
D03*
X134776D02*
D03*
Y235284D02*
D03*
Y247984D02*
D03*
Y260684D02*
D03*
D44*
X113030Y176022D02*
D03*
D45*
X132780Y190022D02*
D03*
Y186022D02*
D03*
Y182022D02*
D03*
Y178022D02*
D03*
Y174022D02*
D03*
Y170022D02*
D03*
Y166022D02*
D03*
Y162022D02*
D03*
X93280D02*
D03*
Y166022D02*
D03*
Y170022D02*
D03*
Y174022D02*
D03*
Y178022D02*
D03*
Y182022D02*
D03*
Y186022D02*
D03*
Y190022D02*
D03*
D46*
X127030Y156272D02*
D03*
X123030D02*
D03*
X119030D02*
D03*
X115030D02*
D03*
X111030D02*
D03*
X107030D02*
D03*
X103030D02*
D03*
X99030D02*
D03*
Y195772D02*
D03*
X103030D02*
D03*
X107030D02*
D03*
X111030D02*
D03*
X115030D02*
D03*
X119030D02*
D03*
X123030D02*
D03*
X127030D02*
D03*
D47*
X98298Y207608D02*
D03*
Y213106D02*
D03*
X56134Y160528D02*
D03*
Y166026D02*
D03*
X56642Y93218D02*
D03*
Y87720D02*
D03*
Y106934D02*
D03*
Y101436D02*
D03*
X130048Y144018D02*
D03*
Y138520D02*
D03*
X33274Y152310D02*
D03*
Y146812D02*
D03*
X63500Y148844D02*
D03*
Y154342D02*
D03*
X64008Y140925D02*
D03*
Y135427D02*
D03*
X41656Y160274D02*
D03*
Y165772D02*
D03*
X98298Y226986D02*
D03*
Y221488D02*
D03*
X180340Y181864D02*
D03*
Y187362D02*
D03*
X164592Y280715D02*
D03*
Y286213D02*
D03*
X47752Y107188D02*
D03*
Y101690D02*
D03*
X139192Y208026D02*
D03*
Y213524D02*
D03*
X121666Y143928D02*
D03*
Y138430D02*
D03*
X113284Y144018D02*
D03*
Y138520D02*
D03*
X104648Y143928D02*
D03*
Y138430D02*
D03*
X86868Y145751D02*
D03*
Y140253D02*
D03*
X129286Y213016D02*
D03*
Y207518D02*
D03*
D48*
X32766Y159766D02*
D03*
Y164865D02*
D03*
X89408Y227603D02*
D03*
Y222504D02*
D03*
X107950Y207518D02*
D03*
Y212617D02*
D03*
D49*
X64008Y189992D02*
D03*
X178308Y290830D02*
D03*
X53340Y300990D02*
D03*
X116332Y94996D02*
D03*
X79756Y86868D02*
D03*
X130810Y119380D02*
D03*
X54356Y122936D02*
D03*
X103378Y94996D02*
D03*
X150622Y137922D02*
D03*
X151384Y150622D02*
D03*
X80010Y251206D02*
D03*
X140716Y127254D02*
D03*
D50*
X76708Y113030D02*
D03*
X81807D02*
D03*
X79248Y222250D02*
D03*
X74149D02*
D03*
X198393Y175768D02*
D03*
X193294D02*
D03*
X121920Y284480D02*
D03*
X116821D02*
D03*
X94507Y120904D02*
D03*
X89408D02*
D03*
X117367Y121158D02*
D03*
X112268D02*
D03*
X100838D02*
D03*
X105937D02*
D03*
X96520Y282956D02*
D03*
X91421D02*
D03*
X138938Y284480D02*
D03*
X133839D02*
D03*
X36232Y75946D02*
D03*
X41331D02*
D03*
D51*
X59294Y76454D02*
D03*
X50292D02*
D03*
D52*
X91138Y50080D02*
D03*
X139638D02*
D03*
D53*
X79138Y23580D02*
D03*
X151638D02*
D03*
D54*
X25317Y325075D02*
D03*
X205317D02*
D03*
X25317Y25076D02*
D03*
X205317D02*
D03*
M02*
