G04*
G04 #@! TF.GenerationSoftware,Altium Limited,Altium Designer,22.11.1 (43)*
G04*
G04 Layer_Color=2752767*
%FSLAX44Y44*%
%MOMM*%
G71*
G04*
G04 #@! TF.SameCoordinates,B8883E9C-D705-438C-9963-9241EE4E2B18*
G04*
G04*
G04 #@! TF.FilePolarity,Positive*
G04*
G01*
G75*
%ADD55C,0.1270*%
%ADD76C,0.1693*%
D55*
X91138Y45000D02*
X86058Y55160D01*
X96218D01*
X91138Y45000D01*
X139638D02*
X134558Y55160D01*
X144718D01*
X139638Y45000D01*
X20238Y319995D02*
Y330155D01*
X30398D01*
Y319995D01*
X20238D01*
X200238D02*
Y330155D01*
X210397D01*
Y319995D01*
X200238D01*
X20238Y19995D02*
Y30155D01*
X30398D01*
Y19995D01*
X20238D01*
X200238D02*
Y30155D01*
X210397D01*
Y19995D01*
X200238D01*
X74422Y203454D02*
X76962Y208534D01*
X74422Y213614D01*
X79502Y211074D01*
X84582Y213614D01*
X82042Y208534D01*
X84582Y203454D01*
X79502Y205994D01*
X74422Y203454D01*
X61032Y109157D02*
X63572Y114237D01*
X61032Y119317D01*
X66112Y116777D01*
X71192Y119317D01*
X68652Y114237D01*
X71192Y109157D01*
X66112Y111697D01*
X61032Y109157D01*
X65532Y118364D02*
X68072Y123444D01*
X65532Y128524D01*
X70612Y125984D01*
X75692Y128524D01*
X73152Y123444D01*
X75692Y118364D01*
X70612Y120904D01*
X65532Y118364D01*
X143764Y166370D02*
X146304Y171450D01*
X143764Y176530D01*
X148844Y173990D01*
X153924Y176530D01*
X151384Y171450D01*
X153924Y166370D01*
X148844Y168910D01*
X143764Y166370D01*
X138154Y178330D02*
X140694Y183410D01*
X138154Y188490D01*
X143234Y185950D01*
X148314Y188490D01*
X145774Y183410D01*
X148314Y178330D01*
X143234Y180870D01*
X138154Y178330D01*
X135604Y172942D02*
X138144Y178022D01*
X135604Y183102D01*
X140684Y180562D01*
X145764Y183102D01*
X143224Y178022D01*
X145764Y172942D01*
X140684Y175482D01*
X135604Y172942D01*
X135382Y164846D02*
X137922Y169926D01*
X135382Y175006D01*
X140462Y172466D01*
X145542Y175006D01*
X143002Y169926D01*
X145542Y164846D01*
X140462Y167386D01*
X135382Y164846D01*
X149105Y162852D02*
X151645Y167932D01*
X149105Y173012D01*
X154185Y170472D01*
X159265Y173012D01*
X156725Y167932D01*
X159265Y162852D01*
X154185Y165392D01*
X149105Y162852D01*
X114300Y119737D02*
X116840Y124817D01*
X114300Y129897D01*
X119380Y127357D01*
X124460Y129897D01*
X121920Y124817D01*
X124460Y119737D01*
X119380Y122277D01*
X114300Y119737D01*
X98298Y246126D02*
X100838Y251206D01*
X98298Y256286D01*
X103378Y253746D01*
X108458Y256286D01*
X105918Y251206D01*
X108458Y246126D01*
X103378Y248666D01*
X98298Y246126D01*
X135890Y286004D02*
X138430Y291084D01*
X135890Y296164D01*
X140970Y293624D01*
X146050Y296164D01*
X143510Y291084D01*
X146050Y286004D01*
X140970Y288544D01*
X135890Y286004D01*
X174752Y160528D02*
X177292Y165608D01*
X174752Y170688D01*
X179832Y168148D01*
X184912Y170688D01*
X182372Y165608D01*
X184912Y160528D01*
X179832Y163068D01*
X174752Y160528D01*
X144160Y118730D02*
X146700Y123810D01*
X144160Y128890D01*
X149240Y126350D01*
X154320Y128890D01*
X151780Y123810D01*
X154320Y118730D01*
X149240Y121270D01*
X144160Y118730D01*
X138430Y113284D02*
X140970Y118364D01*
X138430Y123444D01*
X143510Y120904D01*
X148590Y123444D01*
X146050Y118364D01*
X148590Y113284D01*
X143510Y115824D01*
X138430Y113284D01*
X135128Y108204D02*
X137668Y113284D01*
X135128Y118364D01*
X140208Y115824D01*
X145288Y118364D01*
X142748Y113284D01*
X145288Y108204D01*
X140208Y110744D01*
X135128Y108204D01*
X62484Y217424D02*
X65024Y222504D01*
X62484Y227584D01*
X67564Y225044D01*
X72644Y227584D01*
X70104Y222504D01*
X72644Y217424D01*
X67564Y219964D01*
X62484Y217424D01*
X59944Y121412D02*
X62484Y126492D01*
X59944Y131572D01*
X65024Y129032D01*
X70104Y131572D01*
X67564Y126492D01*
X70104Y121412D01*
X65024Y123952D01*
X59944Y121412D01*
X58420Y101854D02*
X60960Y106934D01*
X58420Y112014D01*
X63500Y109474D01*
X68580Y112014D01*
X66040Y106934D01*
X68580Y101854D01*
X63500Y104394D01*
X58420Y101854D01*
X72148Y121678D02*
X74688Y126758D01*
X72148Y131838D01*
X77228Y129298D01*
X82308Y131838D01*
X79768Y126758D01*
X82308Y121678D01*
X77228Y124218D01*
X72148Y121678D01*
X153162Y243078D02*
X155702Y248158D01*
X153162Y253238D01*
X158242Y250698D01*
X163322Y253238D01*
X160782Y248158D01*
X163322Y243078D01*
X158242Y245618D01*
X153162Y243078D01*
X153924Y237490D02*
X156464Y242570D01*
X153924Y247650D01*
X159004Y245110D01*
X164084Y247650D01*
X161544Y242570D01*
X164084Y237490D01*
X159004Y240030D01*
X153924Y237490D01*
X154686Y212598D02*
X157226Y217678D01*
X154686Y222758D01*
X159766Y220218D01*
X164846Y222758D01*
X162306Y217678D01*
X164846Y212598D01*
X159766Y215138D01*
X154686Y212598D01*
X159258Y207772D02*
X161798Y212852D01*
X159258Y217932D01*
X164338Y215392D01*
X169418Y217932D01*
X166878Y212852D01*
X169418Y207772D01*
X164338Y210312D01*
X159258Y207772D01*
X144526Y242570D02*
X147066Y247650D01*
X144526Y252730D01*
X149606Y250190D01*
X154686Y252730D01*
X152146Y247650D01*
X154686Y242570D01*
X149606Y245110D01*
X144526Y242570D01*
X145796Y267462D02*
X148336Y272542D01*
X145796Y277622D01*
X150876Y275082D01*
X155956Y277622D01*
X153416Y272542D01*
X155956Y267462D01*
X150876Y270002D01*
X145796Y267462D01*
X144300Y205514D02*
X146840Y210594D01*
X144300Y215674D01*
X149380Y213134D01*
X154460Y215674D01*
X151920Y210594D01*
X154460Y205514D01*
X149380Y208054D01*
X144300Y205514D01*
X142240Y183388D02*
X144780Y188468D01*
X142240Y193548D01*
X147320Y191008D01*
X152400Y193548D01*
X149860Y188468D01*
X152400Y183388D01*
X147320Y185928D01*
X142240Y183388D01*
X170180Y194310D02*
X172720Y199390D01*
X170180Y204470D01*
X175260Y201930D01*
X180340Y204470D01*
X177800Y199390D01*
X180340Y194310D01*
X175260Y196850D01*
X170180Y194310D01*
X116332Y246634D02*
X118872Y251714D01*
X116332Y256794D01*
X121412Y254254D01*
X126492Y256794D01*
X123952Y251714D01*
X126492Y246634D01*
X121412Y249174D01*
X116332Y246634D01*
X121920Y98298D02*
X124460Y103378D01*
X121920Y108458D01*
X127000Y105918D01*
X132080Y108458D01*
X129540Y103378D01*
X132080Y98298D01*
X127000Y100838D01*
X121920Y98298D01*
X116586Y222504D02*
X119126Y227584D01*
X116586Y232664D01*
X121666Y230124D01*
X126746Y232664D01*
X124206Y227584D01*
X126746Y222504D01*
X121666Y225044D01*
X116586Y222504D01*
X151892Y263144D02*
X154432Y268224D01*
X151892Y273304D01*
X156972Y270764D01*
X162052Y273304D01*
X159512Y268224D01*
X162052Y263144D01*
X156972Y265684D01*
X151892Y263144D01*
X104140Y237236D02*
X106680Y242316D01*
X104140Y247396D01*
X109220Y244856D01*
X114300Y247396D01*
X111760Y242316D01*
X114300Y237236D01*
X109220Y239776D01*
X104140Y237236D01*
X102616Y222504D02*
X105156Y227584D01*
X102616Y232664D01*
X107696Y230124D01*
X112776Y232664D01*
X110236Y227584D01*
X112776Y222504D01*
X107696Y225044D01*
X102616Y222504D01*
X124968Y334010D02*
X127508Y339090D01*
X124968Y344170D01*
X130048Y341630D01*
X135128Y344170D01*
X132588Y339090D01*
X135128Y334010D01*
X130048Y336550D01*
X124968Y334010D01*
X97028Y321056D02*
X99568Y326136D01*
X97028Y331216D01*
X102108Y328676D01*
X107188Y331216D01*
X104648Y326136D01*
X107188Y321056D01*
X102108Y323596D01*
X97028Y321056D01*
X72898Y166878D02*
X75438Y171958D01*
X72898Y177038D01*
X77978Y174498D01*
X83058Y177038D01*
X80518Y171958D01*
X83058Y166878D01*
X77978Y169418D01*
X72898Y166878D01*
X43688Y206756D02*
X46228Y211836D01*
X43688Y216916D01*
X48768Y214376D01*
X53848Y216916D01*
X51308Y211836D01*
X53848Y206756D01*
X48768Y209296D01*
X43688Y206756D01*
X67310Y230886D02*
X69850Y235966D01*
X67310Y241046D01*
X72390Y238506D01*
X77470Y241046D01*
X74930Y235966D01*
X77470Y230886D01*
X72390Y233426D01*
X67310Y230886D01*
X43942Y195072D02*
X46482Y200152D01*
X43942Y205232D01*
X49022Y202692D01*
X54102Y205232D01*
X51562Y200152D01*
X54102Y195072D01*
X49022Y197612D01*
X43942Y195072D01*
X113792Y176530D02*
X116332Y181610D01*
X113792Y186690D01*
X118872Y184150D01*
X123952Y186690D01*
X121412Y181610D01*
X123952Y176530D01*
X118872Y179070D01*
X113792Y176530D01*
X108204Y170688D02*
X110744Y175768D01*
X108204Y180848D01*
X113284Y178308D01*
X118364Y180848D01*
X115824Y175768D01*
X118364Y170688D01*
X113284Y173228D01*
X108204Y170688D01*
X47467Y176307D02*
X50007Y181387D01*
X47467Y186467D01*
X52547Y183927D01*
X57627Y186467D01*
X55087Y181387D01*
X57627Y176307D01*
X52547Y178847D01*
X47467Y176307D01*
X26670Y88900D02*
X29210Y93980D01*
X26670Y99060D01*
X31750Y96520D01*
X36830Y99060D01*
X34290Y93980D01*
X36830Y88900D01*
X31750Y91440D01*
X26670Y88900D01*
X43434Y160782D02*
X45974Y165862D01*
X43434Y170942D01*
X48514Y168402D01*
X53594Y170942D01*
X51054Y165862D01*
X53594Y160782D01*
X48514Y163322D01*
X43434Y160782D01*
X19304Y106680D02*
X21844Y111760D01*
X19304Y116840D01*
X24384Y114300D01*
X29464Y116840D01*
X26924Y111760D01*
X29464Y106680D01*
X24384Y109220D01*
X19304Y106680D01*
X31496Y62992D02*
X34036Y68072D01*
X31496Y73152D01*
X36576Y70612D01*
X41656Y73152D01*
X39116Y68072D01*
X41656Y62992D01*
X36576Y65532D01*
X31496Y62992D01*
X54102D02*
X56642Y68072D01*
X54102Y73152D01*
X59182Y70612D01*
X64262Y73152D01*
X61722Y68072D01*
X64262Y62992D01*
X59182Y65532D01*
X54102Y62992D01*
X74168Y52832D02*
X76708Y57912D01*
X74168Y62992D01*
X79248Y60452D01*
X84328Y62992D01*
X81788Y57912D01*
X84328Y52832D01*
X79248Y55372D01*
X74168Y52832D01*
X97536Y230886D02*
X100076Y235966D01*
X97536Y241046D01*
X102616Y238506D01*
X107696Y241046D01*
X105156Y235966D01*
X107696Y230886D01*
X102616Y233426D01*
X97536Y230886D01*
X109982Y286004D02*
X112522Y291084D01*
X109982Y296164D01*
X115062Y293624D01*
X120142Y296164D01*
X117602Y291084D01*
X120142Y286004D01*
X115062Y288544D01*
X109982Y286004D01*
X136652Y192786D02*
X139192Y197866D01*
X136652Y202946D01*
X141732Y200406D01*
X146812Y202946D01*
X144272Y197866D01*
X146812Y192786D01*
X141732Y195326D01*
X136652Y192786D01*
X80518Y167386D02*
X83058Y172466D01*
X80518Y177546D01*
X85598Y175006D01*
X90678Y177546D01*
X88138Y172466D01*
X90678Y167386D01*
X85598Y169926D01*
X80518Y167386D01*
X51054Y166624D02*
X53594Y171704D01*
X51054Y176784D01*
X56134Y174244D01*
X61214Y176784D01*
X58674Y171704D01*
X61214Y166624D01*
X56134Y169164D01*
X51054Y166624D01*
X114554Y255270D02*
X117094Y260350D01*
X114554Y265430D01*
X119634Y262890D01*
X124714Y265430D01*
X122174Y260350D01*
X124714Y255270D01*
X119634Y257810D01*
X114554Y255270D01*
X94234Y101346D02*
X96774Y106426D01*
X94234Y111506D01*
X99314Y108966D01*
X104394Y111506D01*
X101854Y106426D01*
X104394Y101346D01*
X99314Y103886D01*
X94234Y101346D01*
X158242Y258572D02*
X160782Y263652D01*
X158242Y268732D01*
X163322Y266192D01*
X168402Y268732D01*
X165862Y263652D01*
X168402Y258572D01*
X163322Y261112D01*
X158242Y258572D01*
X85598Y285242D02*
X88138Y290322D01*
X85598Y295402D01*
X90678Y292862D01*
X95758Y295402D01*
X93218Y290322D01*
X95758Y285242D01*
X90678Y287782D01*
X85598Y285242D01*
X113030Y315468D02*
X115570Y320548D01*
X113030Y325628D01*
X118110Y323088D01*
X123190Y325628D01*
X120650Y320548D01*
X123190Y315468D01*
X118110Y318008D01*
X113030Y315468D01*
X43942Y145288D02*
X46482Y150368D01*
X43942Y155448D01*
X49022Y152908D01*
X54102Y155448D01*
X51562Y150368D01*
X54102Y145288D01*
X49022Y147828D01*
X43942Y145288D01*
X96012Y121412D02*
X98552Y126492D01*
X96012Y131572D01*
X101092Y129032D01*
X106172Y131572D01*
X103632Y126492D01*
X106172Y121412D01*
X101092Y123952D01*
X96012Y121412D01*
X77978D02*
X80518Y126492D01*
X77978Y131572D01*
X83058Y129032D01*
X88138Y131572D01*
X85598Y126492D01*
X88138Y121412D01*
X83058Y123952D01*
X77978Y121412D01*
D76*
X84218Y23580D02*
G03*
X84218Y23580I-5080J0D01*
G01*
X156718D02*
G03*
X156718Y23580I-5080J0D01*
G01*
M02*
