G04*
G04 #@! TF.GenerationSoftware,Altium Limited,Altium Designer,22.11.1 (43)*
G04*
G04 Layer_Color=16711935*
%FSLAX44Y44*%
%MOMM*%
G71*
G04*
G04 #@! TF.SameCoordinates,B8883E9C-D705-438C-9963-9241EE4E2B18*
G04*
G04*
G04 #@! TF.FilePolarity,Positive*
G04*
G01*
G75*
%ADD74C,0.0127*%
D74*
X220317Y25076D02*
G03*
X220317Y25076I-15000J0D01*
G01*
X225317D02*
G03*
X225317Y25076I-20000J0D01*
G01*
X45318D02*
G03*
X45318Y25076I-20000J0D01*
G01*
X40318D02*
G03*
X40318Y25076I-15000J0D01*
G01*
Y325075D02*
G03*
X40318Y325075I-15000J0D01*
G01*
X45318D02*
G03*
X45318Y325075I-20000J0D01*
G01*
X225317D02*
G03*
X225317Y325075I-20000J0D01*
G01*
X220317D02*
G03*
X220317Y325075I-15000J0D01*
G01*
X145707Y310311D02*
X147790D01*
X133116Y310764D02*
X135200D01*
X145707D02*
X147790D01*
X145707Y301253D02*
X147790D01*
X145707Y302431D02*
X147790D01*
X145707Y309405D02*
X147790D01*
Y301253D02*
Y310854D01*
X135200Y301253D02*
Y310854D01*
X145707Y301253D02*
Y310854D01*
X133116Y306869D02*
X135200D01*
X145707D02*
X147790D01*
X133116Y309405D02*
X135200D01*
X133116Y310311D02*
X135200D01*
X133116Y301253D02*
Y310854D01*
X166450Y311851D02*
Y316380D01*
X76142Y310854D02*
X95435D01*
X155761Y343554D02*
X159022Y350075D01*
X169348Y309315D02*
Y350075D01*
X168442Y309315D02*
X169348D01*
X95435Y310854D02*
X154584D01*
X166450Y311851D02*
X168442Y309315D01*
X164276Y316380D02*
X169348D01*
X61287Y309315D02*
Y350075D01*
X152500D02*
X155761Y343554D01*
X95435Y350075D02*
X169348D01*
X108026Y309405D02*
X110019D01*
X108026Y310311D02*
X110019D01*
X108026Y310764D02*
X110019D01*
X108026Y301253D02*
Y310854D01*
X97428Y301253D02*
Y310854D01*
X95435Y306869D02*
X97428D01*
X95435Y309405D02*
X97428D01*
X95435Y310311D02*
X97428D01*
X95435Y310764D02*
X97428D01*
X110019Y301253D02*
Y310854D01*
X108026Y306869D02*
X110019D01*
X95435Y301253D02*
Y310854D01*
X108026Y302431D02*
X110019D01*
X133116D02*
X135200D01*
X120616D02*
X122609D01*
X95435D02*
X97428D01*
X95435Y301253D02*
X97428D01*
X108026D02*
X110019D01*
X120616D02*
X122609D01*
X133116D02*
X135200D01*
X160290Y311307D02*
X164276D01*
X166359Y308318D02*
Y316380D01*
X164366Y308318D02*
Y316380D01*
Y314840D02*
X166359D01*
X164366Y308318D02*
X166359D01*
X154584Y309315D02*
X162192D01*
X164366Y309858D02*
X166359D01*
X154584Y309315D02*
Y310854D01*
X162192Y309315D02*
X164276Y311307D01*
X160290Y309315D02*
Y311307D01*
X164276D02*
Y316380D01*
X82935Y310764D02*
X84928D01*
X82935Y309405D02*
X84928D01*
X82935Y310311D02*
X84928D01*
X82935Y306869D02*
X84928D01*
X82935Y302431D02*
X84928D01*
X82935Y301253D02*
X84928D01*
Y310854D01*
X82935Y301253D02*
Y310854D01*
X120616Y310311D02*
X122609D01*
X120616Y310764D02*
X122609D01*
X115317Y301253D02*
Y350075D01*
X120616Y301253D02*
Y310854D01*
Y306869D02*
X122609D01*
X120616Y309405D02*
X122609D01*
Y301253D02*
Y310854D01*
X61287Y309315D02*
X62193D01*
X64276Y314840D02*
X66269D01*
X62193Y309315D02*
X64185Y311851D01*
X66269Y308318D02*
Y316380D01*
X64276Y308318D02*
Y316380D01*
X61287D02*
X66359D01*
X64185Y311851D02*
Y316380D01*
X64276Y308318D02*
X66269D01*
X64276Y309858D02*
X66269D01*
X66359Y311307D02*
Y316380D01*
Y311307D02*
X70345D01*
X68443Y309315D02*
X76142D01*
X66359Y311307D02*
X68443Y309315D01*
X70345D02*
Y311307D01*
X76142Y309315D02*
Y310854D01*
X77818Y1467D02*
Y52267D01*
X152817Y1467D02*
Y52267D01*
X77818D02*
X152817D01*
X77818Y1467D02*
X152817D01*
M02*
