G04*
G04 #@! TF.GenerationSoftware,Altium Limited,Altium Designer,22.11.1 (43)*
G04*
G04 Layer_Color=255*
%FSLAX44Y44*%
%MOMM*%
G71*
G04*
G04 #@! TF.SameCoordinates,B8883E9C-D705-438C-9963-9241EE4E2B18*
G04*
G04*
G04 #@! TF.FilePolarity,Positive*
G04*
G01*
G75*
%ADD35C,1.0000*%
%ADD58C,1.0000*%
%ADD59O,1.0000X1.6000*%
%ADD60C,4.0000*%
%ADD62C,0.8000*%
%ADD63R,0.6500X0.6500*%
%ADD64R,0.8000X0.8000*%
%ADD65R,0.6000X0.8000*%
%ADD66R,0.8000X0.6000*%
G04:AMPARAMS|DCode=67|XSize=0.8mm|YSize=0.6mm|CornerRadius=0.15mm|HoleSize=0mm|Usage=FLASHONLY|Rotation=180.000|XOffset=0mm|YOffset=0mm|HoleType=Round|Shape=RoundedRectangle|*
%AMROUNDEDRECTD67*
21,1,0.8000,0.3000,0,0,180.0*
21,1,0.5000,0.6000,0,0,180.0*
1,1,0.3000,-0.2500,0.1500*
1,1,0.3000,0.2500,0.1500*
1,1,0.3000,0.2500,-0.1500*
1,1,0.3000,-0.2500,-0.1500*
%
%ADD67ROUNDEDRECTD67*%
D35*
X115316Y279920D02*
D03*
D58*
X91138Y50080D02*
D03*
X139638D02*
D03*
D59*
X79138Y23580D02*
D03*
X151638D02*
D03*
D60*
X25317Y325075D02*
D03*
X205317D02*
D03*
X25317Y25076D02*
D03*
X205317D02*
D03*
D62*
X111096Y279846D02*
D03*
D63*
X111135Y339906D02*
D03*
X119634D02*
D03*
X111135Y327406D02*
D03*
X119634D02*
D03*
D64*
X107380Y169926D02*
D03*
Y181926D02*
D03*
X119380D02*
D03*
Y169926D02*
D03*
D65*
X91480Y251526D02*
D03*
X135280D02*
D03*
Y100926D02*
D03*
X91480D02*
D03*
X77380Y218426D02*
D03*
X149380D02*
D03*
X137380D02*
D03*
X125380D02*
D03*
X113380D02*
D03*
X101380D02*
D03*
X89380D02*
D03*
X149380Y133426D02*
D03*
X137380D02*
D03*
X125380D02*
D03*
X113380D02*
D03*
X101380D02*
D03*
X89380D02*
D03*
X77380D02*
D03*
D66*
X63380Y193926D02*
D03*
X163380Y181926D02*
D03*
Y157926D02*
D03*
Y169926D02*
D03*
X63380Y157926D02*
D03*
Y169926D02*
D03*
Y181926D02*
D03*
D67*
X163380Y193926D02*
D03*
M02*
