G04*
G04 #@! TF.GenerationSoftware,Altium Limited,Altium Designer,22.11.1 (43)*
G04*
G04 Layer_Color=8421504*
%FSLAX44Y44*%
%MOMM*%
G71*
G04*
G04 #@! TF.SameCoordinates,BDA14645-3F24-47FE-B4C7-F524B08D16E3*
G04*
G04*
G04 #@! TF.FilePolarity,Positive*
G04*
G01*
G75*
%ADD12C,0.6000*%
%ADD13R,0.8000X0.4000*%
%ADD14R,0.4000X0.8000*%
%ADD15R,0.6000X0.6000*%
%ADD16R,0.7000X0.6000*%
%ADD17R,0.6000X0.7000*%
G36*
X17982Y79709D02*
X17982Y79709D01*
X17982Y79709D01*
X23742Y78267D01*
X31299Y75563D01*
X38555Y72131D01*
X45439Y68004D01*
X51886Y63223D01*
X57833Y57833D01*
X63223Y51886D01*
X68004Y45439D01*
X72131Y38555D01*
X75563Y31299D01*
X78266Y23742D01*
X80217Y15956D01*
X81394Y8017D01*
X81788Y0D01*
X81394Y-8017D01*
X80217Y-15956D01*
X78266Y-23742D01*
X75563Y-31299D01*
X72131Y-38555D01*
X68004Y-45439D01*
X63223Y-51886D01*
X57833Y-57833D01*
X51886Y-63223D01*
X45439Y-68004D01*
X38555Y-72131D01*
X31299Y-75562D01*
X23742Y-78266D01*
X17982Y-79709D01*
X17982D01*
X17982Y-79709D01*
X16716Y-79804D01*
X-16672D01*
X-17915Y-79709D01*
X-17915Y-79709D01*
X-17915Y-79709D01*
X-23675Y-78266D01*
X-31233Y-75562D01*
X-38488Y-72131D01*
X-45373Y-68004D01*
X-51820Y-63223D01*
X-57767Y-57833D01*
X-63157Y-51886D01*
X-67938Y-45439D01*
X-72064Y-38555D01*
X-75496Y-31299D01*
X-78200Y-23742D01*
X-80150Y-15956D01*
X-81328Y-8017D01*
X-81722Y0D01*
X-81328Y8017D01*
X-80150Y15956D01*
X-78200Y23742D01*
X-75496Y31299D01*
X-72064Y38555D01*
X-67938Y45439D01*
X-63157Y51886D01*
X-57767Y57833D01*
X-51820Y63223D01*
X-45373Y68004D01*
X-38488Y72131D01*
X-31233Y75563D01*
X-23675Y78267D01*
X-17915Y79709D01*
X-17915D01*
X-17915Y79709D01*
X-16649Y79804D01*
X16739D01*
X17982Y79709D01*
D02*
G37*
%LPC*%
G36*
X0Y70574D02*
X-7902Y70131D01*
X-15704Y68805D01*
X-23309Y66614D01*
X-30621Y63586D01*
X-37548Y59757D01*
X-44002Y55177D01*
X-49904Y49904D01*
X-55177Y44002D01*
X-59757Y37548D01*
X-63586Y30621D01*
X-66614Y23309D01*
X-68805Y15704D01*
X-70131Y7902D01*
X-70574Y0D01*
X-70131Y-7902D01*
X-68805Y-15704D01*
X-66614Y-23309D01*
X-63586Y-30621D01*
X-59757Y-37548D01*
X-55177Y-44002D01*
X-49904Y-49904D01*
X-44002Y-55177D01*
X-37548Y-59757D01*
X-30621Y-63586D01*
X-23309Y-66614D01*
X-15704Y-68805D01*
X-7902Y-70131D01*
X0Y-70574D01*
X7902Y-70131D01*
X15704Y-68805D01*
X23309Y-66614D01*
X30621Y-63586D01*
X37548Y-59757D01*
X44002Y-55177D01*
X49904Y-49904D01*
X55177Y-44002D01*
X59757Y-37548D01*
X63586Y-30621D01*
X66614Y-23309D01*
X68805Y-15704D01*
X70131Y-7902D01*
X70574Y0D01*
X70131Y7902D01*
X68805Y15704D01*
X66614Y23309D01*
X63586Y30621D01*
X59757Y37548D01*
X55177Y44002D01*
X49904Y49904D01*
X44002Y55177D01*
X37548Y59757D01*
X30621Y63586D01*
X23309Y66614D01*
X15704Y68805D01*
X7902Y70131D01*
X0Y70574D01*
D02*
G37*
%LPD*%
G36*
X34000Y18500D02*
Y15000D01*
X27001D01*
Y21000D01*
X31500D01*
X34000Y18500D01*
D02*
G37*
D12*
X30157Y-69801D02*
D03*
D13*
X0Y-43300D02*
D03*
X0Y43300D02*
D03*
D14*
X-43300Y0D02*
D03*
X43300D02*
D03*
D15*
X5000Y5000D02*
D03*
Y-5000D02*
D03*
X-4999Y5000D02*
D03*
Y-5000D02*
D03*
D16*
X30500Y-6000D02*
D03*
Y-18000D02*
D03*
Y6000D02*
D03*
X-30500Y-6000D02*
D03*
Y6000D02*
D03*
Y18000D02*
D03*
Y-18000D02*
D03*
D17*
X6000Y-30500D02*
D03*
X-6000D02*
D03*
X-18000D02*
D03*
X18000D02*
D03*
X-6000Y30500D02*
D03*
X6000D02*
D03*
X18000D02*
D03*
X-18000D02*
D03*
M02*
